G04 EAGLE Gerber X2 export*
%TF.Part,Single*%
%TF.FileFunction,Copper,L2,Bot,Mixed*%
%TF.FilePolarity,Positive*%
%TF.GenerationSoftware,Autodesk,EAGLE,9.6.2*%
%TF.CreationDate,2020-09-24T16:42:56Z*%
G75*
%MOMM*%
%FSLAX34Y34*%
%LPD*%
%INBottom Copper*%
%AMOC8*
5,1,8,0,0,1.08239X$1,22.5*%
G01*
%ADD10C,0.203200*%
%ADD11C,1.930400*%
%ADD12C,5.080000*%
%ADD13C,1.790700*%
%ADD14C,1.500000*%
%ADD15P,1.623585X8X112.500000*%
%ADD16C,1.500000*%
%ADD17C,0.508000*%
%ADD18C,1.900000*%

G36*
X-84916Y4576D02*
X-84916Y4576D01*
X-84951Y4574D01*
X-85116Y4596D01*
X-85281Y4613D01*
X-85315Y4623D01*
X-85350Y4628D01*
X-85507Y4682D01*
X-85666Y4731D01*
X-85697Y4748D01*
X-85731Y4759D01*
X-85874Y4843D01*
X-86020Y4923D01*
X-86047Y4945D01*
X-86078Y4963D01*
X-86202Y5074D01*
X-86329Y5180D01*
X-86351Y5208D01*
X-86378Y5231D01*
X-86478Y5365D01*
X-86582Y5494D01*
X-86598Y5525D01*
X-86619Y5554D01*
X-86691Y5704D01*
X-86767Y5851D01*
X-86777Y5885D01*
X-86792Y5917D01*
X-86833Y6079D01*
X-86879Y6238D01*
X-86882Y6274D01*
X-86890Y6308D01*
X-86898Y6474D01*
X-86912Y6640D01*
X-86907Y6675D01*
X-86909Y6710D01*
X-86884Y6875D01*
X-86865Y7039D01*
X-86854Y7073D01*
X-86848Y7108D01*
X-86791Y7264D01*
X-86740Y7422D01*
X-86722Y7453D01*
X-86710Y7486D01*
X-86624Y7628D01*
X-86542Y7773D01*
X-86519Y7800D01*
X-86500Y7830D01*
X-86387Y7952D01*
X-86279Y8077D01*
X-86251Y8099D01*
X-86227Y8125D01*
X-85961Y8324D01*
X-85406Y8673D01*
X-82952Y10629D01*
X-80733Y12848D01*
X-78777Y15302D01*
X-77107Y17959D01*
X-75745Y20787D01*
X-74709Y23749D01*
X-74011Y26808D01*
X-73940Y27433D01*
X-99568Y27433D01*
X-99586Y27435D01*
X-99603Y27433D01*
X-99786Y27454D01*
X-99968Y27473D01*
X-99986Y27478D01*
X-100003Y27480D01*
X-100178Y27537D01*
X-100353Y27591D01*
X-100369Y27599D01*
X-100386Y27605D01*
X-100546Y27695D01*
X-100707Y27783D01*
X-100721Y27794D01*
X-100737Y27803D01*
X-100876Y27923D01*
X-101017Y28040D01*
X-101028Y28054D01*
X-101041Y28066D01*
X-101154Y28211D01*
X-101269Y28354D01*
X-101277Y28370D01*
X-101288Y28384D01*
X-101370Y28549D01*
X-101455Y28711D01*
X-101459Y28728D01*
X-101467Y28745D01*
X-101515Y28923D01*
X-101566Y29098D01*
X-101567Y29116D01*
X-101572Y29133D01*
X-101599Y29464D01*
X-101599Y31497D01*
X-101601Y31497D01*
X-101601Y29464D01*
X-101603Y29446D01*
X-101601Y29428D01*
X-101623Y29246D01*
X-101641Y29063D01*
X-101646Y29046D01*
X-101648Y29029D01*
X-101705Y28854D01*
X-101759Y28678D01*
X-101767Y28663D01*
X-101773Y28646D01*
X-101863Y28486D01*
X-101951Y28324D01*
X-101962Y28311D01*
X-101971Y28295D01*
X-102091Y28156D01*
X-102208Y28015D01*
X-102222Y28004D01*
X-102234Y27991D01*
X-102379Y27878D01*
X-102522Y27763D01*
X-102538Y27755D01*
X-102552Y27744D01*
X-102717Y27662D01*
X-102880Y27577D01*
X-102897Y27572D01*
X-102913Y27564D01*
X-103091Y27517D01*
X-103266Y27466D01*
X-103284Y27464D01*
X-103301Y27460D01*
X-103632Y27433D01*
X-129260Y27433D01*
X-129189Y26808D01*
X-128491Y23749D01*
X-127455Y20787D01*
X-126093Y17959D01*
X-124423Y15302D01*
X-122467Y12848D01*
X-120248Y10629D01*
X-117794Y8673D01*
X-117239Y8324D01*
X-117211Y8302D01*
X-117180Y8285D01*
X-117052Y8179D01*
X-116921Y8077D01*
X-116898Y8050D01*
X-116871Y8028D01*
X-116766Y7898D01*
X-116658Y7772D01*
X-116640Y7742D01*
X-116618Y7714D01*
X-116542Y7566D01*
X-116460Y7422D01*
X-116449Y7388D01*
X-116433Y7357D01*
X-116387Y7197D01*
X-116335Y7039D01*
X-116331Y7004D01*
X-116321Y6970D01*
X-116308Y6804D01*
X-116288Y6639D01*
X-116291Y6604D01*
X-116288Y6568D01*
X-116308Y6403D01*
X-116321Y6238D01*
X-116331Y6204D01*
X-116335Y6169D01*
X-116387Y6010D01*
X-116433Y5851D01*
X-116449Y5820D01*
X-116460Y5786D01*
X-116542Y5641D01*
X-116619Y5493D01*
X-116641Y5466D01*
X-116658Y5435D01*
X-116767Y5309D01*
X-116871Y5180D01*
X-116898Y5157D01*
X-116921Y5130D01*
X-117053Y5029D01*
X-117180Y4922D01*
X-117212Y4905D01*
X-117239Y4884D01*
X-117388Y4810D01*
X-117535Y4731D01*
X-117568Y4720D01*
X-117600Y4704D01*
X-117761Y4661D01*
X-117919Y4613D01*
X-117954Y4609D01*
X-117989Y4600D01*
X-118319Y4573D01*
X-184934Y4573D01*
X-184943Y4574D01*
X-184952Y4573D01*
X-185144Y4594D01*
X-185335Y4613D01*
X-185344Y4615D01*
X-185353Y4616D01*
X-185535Y4674D01*
X-185720Y4731D01*
X-185728Y4735D01*
X-185736Y4738D01*
X-185905Y4831D01*
X-186074Y4923D01*
X-186081Y4928D01*
X-186089Y4933D01*
X-186236Y5057D01*
X-186383Y5180D01*
X-186389Y5187D01*
X-186396Y5193D01*
X-186515Y5344D01*
X-186636Y5494D01*
X-186640Y5502D01*
X-186645Y5509D01*
X-186733Y5682D01*
X-186821Y5851D01*
X-186824Y5860D01*
X-186828Y5868D01*
X-186879Y6054D01*
X-186933Y6238D01*
X-186933Y6247D01*
X-186936Y6256D01*
X-186950Y6449D01*
X-186965Y6640D01*
X-186964Y6648D01*
X-186965Y6657D01*
X-186941Y6850D01*
X-186919Y7039D01*
X-186916Y7048D01*
X-186915Y7057D01*
X-186853Y7240D01*
X-186794Y7422D01*
X-186789Y7430D01*
X-186786Y7438D01*
X-186690Y7605D01*
X-186596Y7773D01*
X-186590Y7780D01*
X-186585Y7787D01*
X-186371Y8040D01*
X-181677Y12734D01*
X-179390Y15021D01*
X-178307Y17635D01*
X-178307Y53870D01*
X-178305Y53897D01*
X-178307Y53924D01*
X-178285Y54098D01*
X-178267Y54271D01*
X-178260Y54297D01*
X-178256Y54323D01*
X-178201Y54489D01*
X-178149Y54656D01*
X-178136Y54680D01*
X-178128Y54705D01*
X-178041Y54857D01*
X-177957Y55010D01*
X-177940Y55030D01*
X-177927Y55054D01*
X-177712Y55307D01*
X-131992Y101027D01*
X-131985Y101032D01*
X-131980Y101039D01*
X-131830Y101160D01*
X-131681Y101282D01*
X-131673Y101286D01*
X-131666Y101292D01*
X-131495Y101381D01*
X-131325Y101470D01*
X-131317Y101473D01*
X-131309Y101477D01*
X-131123Y101530D01*
X-130939Y101585D01*
X-130930Y101586D01*
X-130922Y101589D01*
X-130730Y101604D01*
X-130538Y101622D01*
X-130529Y101621D01*
X-130520Y101621D01*
X-130331Y101599D01*
X-130138Y101578D01*
X-130129Y101576D01*
X-130121Y101575D01*
X-129938Y101515D01*
X-129754Y101457D01*
X-129746Y101452D01*
X-129738Y101450D01*
X-129569Y101355D01*
X-129402Y101262D01*
X-129395Y101256D01*
X-129387Y101252D01*
X-129241Y101126D01*
X-129095Y101001D01*
X-129089Y100994D01*
X-129082Y100989D01*
X-128965Y100837D01*
X-128845Y100686D01*
X-128841Y100678D01*
X-128836Y100671D01*
X-128750Y100498D01*
X-128663Y100327D01*
X-128660Y100318D01*
X-128656Y100310D01*
X-128606Y100124D01*
X-128555Y99939D01*
X-128554Y99930D01*
X-128552Y99921D01*
X-128525Y99590D01*
X-128525Y98262D01*
X-126359Y93034D01*
X-122358Y89033D01*
X-117130Y86867D01*
X-111470Y86867D01*
X-106242Y89033D01*
X-105193Y90082D01*
X-105172Y90099D01*
X-105155Y90120D01*
X-105017Y90227D01*
X-104881Y90337D01*
X-104858Y90350D01*
X-104837Y90366D01*
X-104680Y90444D01*
X-104526Y90526D01*
X-104500Y90534D01*
X-104476Y90546D01*
X-104307Y90591D01*
X-104140Y90641D01*
X-104113Y90643D01*
X-104087Y90650D01*
X-103757Y90677D01*
X-79865Y90677D01*
X-77251Y91760D01*
X-46040Y122971D01*
X-44957Y125585D01*
X-44957Y434185D01*
X-46040Y436799D01*
X-83647Y474406D01*
X-85559Y475198D01*
X-85594Y475216D01*
X-85631Y475229D01*
X-85771Y475312D01*
X-85913Y475388D01*
X-85944Y475413D01*
X-85978Y475433D01*
X-86099Y475541D01*
X-86224Y475644D01*
X-86249Y475675D01*
X-86279Y475702D01*
X-86376Y475831D01*
X-86478Y475957D01*
X-86496Y475992D01*
X-86520Y476024D01*
X-86589Y476170D01*
X-86665Y476313D01*
X-86676Y476352D01*
X-86693Y476387D01*
X-86732Y476544D01*
X-86778Y476700D01*
X-86781Y476739D01*
X-86791Y476778D01*
X-86798Y476940D01*
X-86812Y477101D01*
X-86808Y477140D01*
X-86810Y477180D01*
X-86785Y477341D01*
X-86767Y477501D01*
X-86755Y477539D01*
X-86749Y477578D01*
X-86693Y477731D01*
X-86644Y477884D01*
X-86625Y477919D01*
X-86611Y477956D01*
X-86527Y478095D01*
X-86448Y478236D01*
X-86422Y478266D01*
X-86401Y478300D01*
X-86291Y478419D01*
X-86186Y478542D01*
X-86155Y478566D01*
X-86128Y478595D01*
X-85892Y478771D01*
X-85869Y478790D01*
X-85866Y478792D01*
X-85862Y478794D01*
X-85406Y479081D01*
X-82952Y481037D01*
X-80733Y483256D01*
X-78777Y485710D01*
X-77107Y488367D01*
X-75745Y491195D01*
X-74709Y494157D01*
X-74011Y497216D01*
X-73940Y497841D01*
X-99568Y497841D01*
X-99586Y497843D01*
X-99603Y497841D01*
X-99786Y497862D01*
X-99968Y497881D01*
X-99986Y497886D01*
X-100003Y497888D01*
X-100178Y497945D01*
X-100353Y497999D01*
X-100369Y498007D01*
X-100386Y498013D01*
X-100546Y498103D01*
X-100707Y498191D01*
X-100721Y498202D01*
X-100737Y498211D01*
X-100876Y498331D01*
X-101017Y498448D01*
X-101028Y498462D01*
X-101041Y498474D01*
X-101154Y498619D01*
X-101269Y498762D01*
X-101277Y498778D01*
X-101288Y498792D01*
X-101370Y498957D01*
X-101455Y499119D01*
X-101459Y499136D01*
X-101467Y499153D01*
X-101515Y499331D01*
X-101566Y499506D01*
X-101567Y499524D01*
X-101572Y499541D01*
X-101599Y499872D01*
X-101599Y501905D01*
X-101601Y501905D01*
X-101601Y499872D01*
X-101603Y499854D01*
X-101601Y499836D01*
X-101623Y499654D01*
X-101641Y499471D01*
X-101646Y499454D01*
X-101648Y499437D01*
X-101705Y499262D01*
X-101759Y499086D01*
X-101767Y499071D01*
X-101773Y499054D01*
X-101863Y498894D01*
X-101951Y498732D01*
X-101962Y498719D01*
X-101971Y498703D01*
X-102091Y498564D01*
X-102208Y498423D01*
X-102222Y498412D01*
X-102234Y498399D01*
X-102379Y498286D01*
X-102522Y498171D01*
X-102538Y498163D01*
X-102552Y498152D01*
X-102717Y498070D01*
X-102880Y497985D01*
X-102897Y497980D01*
X-102913Y497972D01*
X-103091Y497925D01*
X-103266Y497874D01*
X-103284Y497872D01*
X-103301Y497868D01*
X-103632Y497841D01*
X-129260Y497841D01*
X-129189Y497216D01*
X-128491Y494157D01*
X-127455Y491195D01*
X-126093Y488367D01*
X-124423Y485710D01*
X-122467Y483256D01*
X-120248Y481037D01*
X-117828Y479108D01*
X-117740Y479022D01*
X-117646Y478944D01*
X-117597Y478882D01*
X-117540Y478827D01*
X-117470Y478726D01*
X-117394Y478630D01*
X-117357Y478560D01*
X-117313Y478495D01*
X-117265Y478382D01*
X-117208Y478273D01*
X-117186Y478197D01*
X-117155Y478124D01*
X-117131Y478004D01*
X-117097Y477886D01*
X-117090Y477807D01*
X-117074Y477730D01*
X-117074Y477607D01*
X-117064Y477484D01*
X-117073Y477406D01*
X-117073Y477327D01*
X-117096Y477207D01*
X-117111Y477085D01*
X-117135Y477009D01*
X-117150Y476932D01*
X-117197Y476819D01*
X-117236Y476702D01*
X-117274Y476633D01*
X-117305Y476560D01*
X-117373Y476458D01*
X-117433Y476351D01*
X-117485Y476291D01*
X-117529Y476226D01*
X-117616Y476139D01*
X-117697Y476046D01*
X-117759Y475998D01*
X-117815Y475943D01*
X-117918Y475875D01*
X-118015Y475800D01*
X-118085Y475765D01*
X-118151Y475721D01*
X-118265Y475675D01*
X-118375Y475620D01*
X-118452Y475600D01*
X-118525Y475570D01*
X-118645Y475548D01*
X-118764Y475516D01*
X-118856Y475508D01*
X-118920Y475496D01*
X-118992Y475497D01*
X-119095Y475489D01*
X-136080Y475489D01*
X-136107Y475491D01*
X-136134Y475489D01*
X-136308Y475511D01*
X-136481Y475529D01*
X-136507Y475536D01*
X-136533Y475540D01*
X-136699Y475595D01*
X-136866Y475647D01*
X-136890Y475660D01*
X-136915Y475668D01*
X-137067Y475755D01*
X-137220Y475839D01*
X-137241Y475856D01*
X-137264Y475869D01*
X-137517Y476084D01*
X-192227Y530794D01*
X-192301Y530824D01*
X-192301Y530825D01*
X-194841Y531877D01*
X-264051Y531877D01*
X-266248Y530967D01*
X-266252Y530965D01*
X-266256Y530963D01*
X-266441Y530908D01*
X-266633Y530850D01*
X-266638Y530850D01*
X-266642Y530849D01*
X-266840Y530831D01*
X-267034Y530812D01*
X-267038Y530813D01*
X-267043Y530812D01*
X-267245Y530834D01*
X-267434Y530854D01*
X-267439Y530855D01*
X-267443Y530856D01*
X-267633Y530916D01*
X-267819Y530974D01*
X-267823Y530976D01*
X-267827Y530977D01*
X-267999Y531072D01*
X-268172Y531167D01*
X-268175Y531170D01*
X-268179Y531172D01*
X-268329Y531299D01*
X-268480Y531426D01*
X-268483Y531429D01*
X-268486Y531432D01*
X-268609Y531587D01*
X-268731Y531741D01*
X-268733Y531745D01*
X-268736Y531748D01*
X-268825Y531924D01*
X-268915Y532099D01*
X-268916Y532103D01*
X-268918Y532107D01*
X-268972Y532299D01*
X-269025Y532486D01*
X-269025Y532491D01*
X-269026Y532495D01*
X-269041Y532697D01*
X-269056Y532888D01*
X-269055Y532892D01*
X-269056Y532897D01*
X-269031Y533094D01*
X-269007Y533287D01*
X-269006Y533292D01*
X-269005Y533296D01*
X-268943Y533481D01*
X-268881Y533670D01*
X-268878Y533674D01*
X-268877Y533678D01*
X-268779Y533848D01*
X-268681Y534019D01*
X-268678Y534023D01*
X-268676Y534027D01*
X-268461Y534280D01*
X-254189Y548552D01*
X-254168Y548569D01*
X-254151Y548590D01*
X-254013Y548697D01*
X-253877Y548807D01*
X-253854Y548820D01*
X-253832Y548836D01*
X-253676Y548914D01*
X-253522Y548996D01*
X-253496Y549004D01*
X-253472Y549016D01*
X-253303Y549061D01*
X-253136Y549111D01*
X-253109Y549113D01*
X-253083Y549120D01*
X-252752Y549147D01*
X-233535Y549147D01*
X-230921Y550230D01*
X-220030Y561121D01*
X-218947Y563735D01*
X-218947Y595775D01*
X-220030Y598389D01*
X-228632Y606991D01*
X-228649Y607012D01*
X-228670Y607029D01*
X-228777Y607167D01*
X-228887Y607303D01*
X-228900Y607326D01*
X-228916Y607348D01*
X-228994Y607504D01*
X-229076Y607658D01*
X-229084Y607684D01*
X-229096Y607708D01*
X-229141Y607877D01*
X-229191Y608044D01*
X-229193Y608071D01*
X-229200Y608097D01*
X-229227Y608428D01*
X-229227Y612001D01*
X-231065Y616439D01*
X-234461Y619835D01*
X-238899Y621673D01*
X-243701Y621673D01*
X-248139Y619835D01*
X-251535Y616439D01*
X-253373Y612001D01*
X-253373Y607199D01*
X-251535Y602761D01*
X-248139Y599365D01*
X-243701Y597527D01*
X-240128Y597527D01*
X-240101Y597525D01*
X-240074Y597527D01*
X-239900Y597505D01*
X-239727Y597487D01*
X-239701Y597480D01*
X-239675Y597476D01*
X-239509Y597420D01*
X-239342Y597369D01*
X-239318Y597356D01*
X-239293Y597348D01*
X-239141Y597261D01*
X-238988Y597177D01*
X-238968Y597160D01*
X-238944Y597147D01*
X-238691Y596932D01*
X-233768Y592009D01*
X-233751Y591988D01*
X-233730Y591971D01*
X-233624Y591833D01*
X-233513Y591697D01*
X-233500Y591673D01*
X-233484Y591652D01*
X-233406Y591496D01*
X-233324Y591342D01*
X-233316Y591316D01*
X-233304Y591292D01*
X-233259Y591123D01*
X-233209Y590956D01*
X-233207Y590929D01*
X-233200Y590903D01*
X-233173Y590572D01*
X-233173Y584241D01*
X-233174Y584228D01*
X-233173Y584214D01*
X-233194Y584028D01*
X-233213Y583840D01*
X-233217Y583828D01*
X-233218Y583814D01*
X-233276Y583635D01*
X-233331Y583455D01*
X-233337Y583444D01*
X-233341Y583431D01*
X-233433Y583266D01*
X-233523Y583101D01*
X-233531Y583091D01*
X-233538Y583079D01*
X-233660Y582936D01*
X-233780Y582792D01*
X-233791Y582784D01*
X-233799Y582774D01*
X-233948Y582657D01*
X-234094Y582540D01*
X-234106Y582534D01*
X-234116Y582525D01*
X-234285Y582441D01*
X-234451Y582354D01*
X-234464Y582351D01*
X-234476Y582345D01*
X-234657Y582295D01*
X-234838Y582243D01*
X-234852Y582242D01*
X-234865Y582238D01*
X-235053Y582225D01*
X-235240Y582210D01*
X-235253Y582212D01*
X-235266Y582211D01*
X-235454Y582235D01*
X-235639Y582257D01*
X-235652Y582261D01*
X-235665Y582263D01*
X-235981Y582364D01*
X-238899Y583573D01*
X-243701Y583573D01*
X-248139Y581735D01*
X-250666Y579208D01*
X-250686Y579191D01*
X-250704Y579170D01*
X-250842Y579063D01*
X-250977Y578953D01*
X-251001Y578940D01*
X-251022Y578924D01*
X-251179Y578846D01*
X-251333Y578764D01*
X-251358Y578756D01*
X-251383Y578744D01*
X-251552Y578699D01*
X-251719Y578649D01*
X-251745Y578647D01*
X-251771Y578640D01*
X-252102Y578613D01*
X-268115Y578613D01*
X-270729Y577530D01*
X-273016Y575243D01*
X-325466Y522793D01*
X-325483Y522779D01*
X-325498Y522761D01*
X-325639Y522651D01*
X-325777Y522538D01*
X-325797Y522527D01*
X-325815Y522513D01*
X-325976Y522433D01*
X-326133Y522349D01*
X-326155Y522343D01*
X-326175Y522333D01*
X-326348Y522285D01*
X-326519Y522235D01*
X-326542Y522232D01*
X-326564Y522227D01*
X-326742Y522214D01*
X-326920Y522198D01*
X-326943Y522201D01*
X-326965Y522199D01*
X-327142Y522222D01*
X-327165Y522225D01*
X-333030Y522225D01*
X-338258Y520059D01*
X-341464Y516853D01*
X-341477Y516842D01*
X-341489Y516828D01*
X-341633Y516714D01*
X-341775Y516598D01*
X-341791Y516590D01*
X-341805Y516579D01*
X-341969Y516495D01*
X-342131Y516409D01*
X-342148Y516404D01*
X-342164Y516396D01*
X-342341Y516347D01*
X-342517Y516295D01*
X-342535Y516293D01*
X-342552Y516288D01*
X-342735Y516275D01*
X-342918Y516258D01*
X-342936Y516260D01*
X-342953Y516259D01*
X-343135Y516282D01*
X-343318Y516302D01*
X-343335Y516307D01*
X-343353Y516309D01*
X-343526Y516368D01*
X-343702Y516423D01*
X-343718Y516432D01*
X-343734Y516438D01*
X-343894Y516529D01*
X-344054Y516618D01*
X-344068Y516629D01*
X-344083Y516638D01*
X-344336Y516853D01*
X-347542Y520059D01*
X-352770Y522225D01*
X-358430Y522225D01*
X-363658Y520059D01*
X-366864Y516853D01*
X-366877Y516842D01*
X-366889Y516828D01*
X-367033Y516714D01*
X-367175Y516598D01*
X-367191Y516590D01*
X-367205Y516579D01*
X-367369Y516495D01*
X-367531Y516409D01*
X-367548Y516404D01*
X-367564Y516396D01*
X-367741Y516347D01*
X-367917Y516295D01*
X-367935Y516293D01*
X-367952Y516288D01*
X-368135Y516275D01*
X-368318Y516258D01*
X-368336Y516260D01*
X-368353Y516259D01*
X-368535Y516282D01*
X-368718Y516302D01*
X-368735Y516307D01*
X-368753Y516309D01*
X-368926Y516368D01*
X-369102Y516423D01*
X-369118Y516432D01*
X-369134Y516438D01*
X-369294Y516529D01*
X-369454Y516618D01*
X-369468Y516629D01*
X-369483Y516638D01*
X-369736Y516853D01*
X-372942Y520059D01*
X-378170Y522225D01*
X-383830Y522225D01*
X-389058Y520059D01*
X-393059Y516058D01*
X-395225Y510830D01*
X-395225Y505170D01*
X-393059Y499942D01*
X-389058Y495941D01*
X-383830Y493775D01*
X-378170Y493775D01*
X-372942Y495941D01*
X-369736Y499147D01*
X-369722Y499158D01*
X-369711Y499172D01*
X-369567Y499285D01*
X-369425Y499402D01*
X-369409Y499410D01*
X-369395Y499421D01*
X-369231Y499505D01*
X-369069Y499591D01*
X-369052Y499596D01*
X-369036Y499604D01*
X-368859Y499653D01*
X-368683Y499705D01*
X-368665Y499707D01*
X-368648Y499712D01*
X-368465Y499725D01*
X-368282Y499742D01*
X-368264Y499740D01*
X-368247Y499741D01*
X-368065Y499718D01*
X-367882Y499698D01*
X-367865Y499693D01*
X-367847Y499691D01*
X-367673Y499632D01*
X-367498Y499577D01*
X-367482Y499568D01*
X-367466Y499562D01*
X-367306Y499471D01*
X-367146Y499382D01*
X-367132Y499371D01*
X-367117Y499362D01*
X-366864Y499147D01*
X-363658Y495941D01*
X-358430Y493775D01*
X-352770Y493775D01*
X-347542Y495941D01*
X-344336Y499147D01*
X-344322Y499158D01*
X-344311Y499172D01*
X-344167Y499285D01*
X-344025Y499402D01*
X-344009Y499410D01*
X-343995Y499421D01*
X-343831Y499505D01*
X-343669Y499591D01*
X-343652Y499596D01*
X-343636Y499604D01*
X-343459Y499653D01*
X-343283Y499705D01*
X-343265Y499707D01*
X-343248Y499712D01*
X-343065Y499725D01*
X-342882Y499742D01*
X-342864Y499740D01*
X-342847Y499741D01*
X-342665Y499718D01*
X-342482Y499698D01*
X-342465Y499693D01*
X-342447Y499691D01*
X-342273Y499632D01*
X-342098Y499577D01*
X-342082Y499568D01*
X-342066Y499562D01*
X-341906Y499471D01*
X-341746Y499382D01*
X-341732Y499371D01*
X-341717Y499362D01*
X-341464Y499147D01*
X-338258Y495941D01*
X-333030Y493775D01*
X-327370Y493775D01*
X-322142Y495941D01*
X-318936Y499147D01*
X-318922Y499158D01*
X-318911Y499172D01*
X-318767Y499285D01*
X-318625Y499402D01*
X-318609Y499410D01*
X-318595Y499421D01*
X-318431Y499505D01*
X-318269Y499591D01*
X-318252Y499596D01*
X-318236Y499604D01*
X-318059Y499653D01*
X-317883Y499705D01*
X-317865Y499707D01*
X-317848Y499712D01*
X-317665Y499725D01*
X-317482Y499742D01*
X-317464Y499740D01*
X-317447Y499741D01*
X-317265Y499718D01*
X-317082Y499698D01*
X-317065Y499693D01*
X-317047Y499691D01*
X-316873Y499632D01*
X-316698Y499577D01*
X-316682Y499568D01*
X-316666Y499562D01*
X-316506Y499471D01*
X-316346Y499382D01*
X-316332Y499371D01*
X-316317Y499362D01*
X-316064Y499147D01*
X-312858Y495941D01*
X-307630Y493775D01*
X-301970Y493775D01*
X-296742Y495941D01*
X-293536Y499147D01*
X-293523Y499158D01*
X-293511Y499172D01*
X-293367Y499286D01*
X-293225Y499402D01*
X-293209Y499410D01*
X-293195Y499421D01*
X-293031Y499505D01*
X-292869Y499591D01*
X-292852Y499596D01*
X-292836Y499604D01*
X-292659Y499653D01*
X-292483Y499705D01*
X-292465Y499707D01*
X-292448Y499712D01*
X-292265Y499725D01*
X-292082Y499742D01*
X-292064Y499740D01*
X-292047Y499741D01*
X-291865Y499718D01*
X-291682Y499698D01*
X-291665Y499693D01*
X-291647Y499691D01*
X-291474Y499632D01*
X-291298Y499577D01*
X-291282Y499568D01*
X-291266Y499562D01*
X-291106Y499471D01*
X-290946Y499382D01*
X-290932Y499371D01*
X-290917Y499362D01*
X-290664Y499147D01*
X-287458Y495941D01*
X-282230Y493775D01*
X-276570Y493775D01*
X-271342Y495941D01*
X-268136Y499147D01*
X-268123Y499158D01*
X-268111Y499172D01*
X-267967Y499286D01*
X-267825Y499402D01*
X-267809Y499410D01*
X-267795Y499421D01*
X-267631Y499505D01*
X-267469Y499591D01*
X-267452Y499596D01*
X-267436Y499604D01*
X-267259Y499653D01*
X-267083Y499705D01*
X-267065Y499707D01*
X-267048Y499712D01*
X-266865Y499725D01*
X-266682Y499742D01*
X-266664Y499740D01*
X-266647Y499741D01*
X-266465Y499718D01*
X-266282Y499698D01*
X-266265Y499693D01*
X-266247Y499691D01*
X-266074Y499632D01*
X-265898Y499577D01*
X-265882Y499568D01*
X-265866Y499562D01*
X-265706Y499471D01*
X-265546Y499382D01*
X-265532Y499371D01*
X-265517Y499362D01*
X-265264Y499147D01*
X-262058Y495941D01*
X-256830Y493775D01*
X-251004Y493775D01*
X-250872Y493785D01*
X-250694Y493802D01*
X-250672Y493800D01*
X-250649Y493801D01*
X-250471Y493779D01*
X-250294Y493760D01*
X-250272Y493754D01*
X-250249Y493751D01*
X-250080Y493694D01*
X-249909Y493641D01*
X-249889Y493630D01*
X-249868Y493623D01*
X-249713Y493533D01*
X-249556Y493448D01*
X-249539Y493433D01*
X-249519Y493422D01*
X-249266Y493207D01*
X-215711Y459652D01*
X-215706Y459645D01*
X-215699Y459640D01*
X-215578Y459490D01*
X-215456Y459341D01*
X-215452Y459333D01*
X-215446Y459326D01*
X-215357Y459155D01*
X-215268Y458985D01*
X-215265Y458977D01*
X-215261Y458969D01*
X-215208Y458783D01*
X-215153Y458599D01*
X-215152Y458590D01*
X-215149Y458582D01*
X-215134Y458390D01*
X-215116Y458198D01*
X-215117Y458189D01*
X-215117Y458180D01*
X-215139Y457991D01*
X-215160Y457798D01*
X-215162Y457789D01*
X-215163Y457781D01*
X-215223Y457599D01*
X-215281Y457414D01*
X-215286Y457406D01*
X-215288Y457398D01*
X-215383Y457229D01*
X-215476Y457062D01*
X-215482Y457055D01*
X-215486Y457047D01*
X-215612Y456901D01*
X-215737Y456755D01*
X-215744Y456749D01*
X-215749Y456742D01*
X-215901Y456625D01*
X-216052Y456505D01*
X-216060Y456501D01*
X-216067Y456496D01*
X-216240Y456410D01*
X-216411Y456323D01*
X-216420Y456320D01*
X-216428Y456316D01*
X-216614Y456266D01*
X-216799Y456215D01*
X-216808Y456214D01*
X-216817Y456212D01*
X-217148Y456185D01*
X-358924Y456185D01*
X-358951Y456187D01*
X-358978Y456185D01*
X-359152Y456207D01*
X-359325Y456225D01*
X-359351Y456232D01*
X-359377Y456236D01*
X-359543Y456291D01*
X-359710Y456343D01*
X-359734Y456356D01*
X-359759Y456364D01*
X-359911Y456451D01*
X-360064Y456535D01*
X-360084Y456552D01*
X-360108Y456565D01*
X-360361Y456780D01*
X-406847Y503266D01*
X-406861Y503283D01*
X-406879Y503298D01*
X-406989Y503439D01*
X-407102Y503577D01*
X-407113Y503597D01*
X-407127Y503615D01*
X-407207Y503776D01*
X-407291Y503933D01*
X-407297Y503955D01*
X-407307Y503975D01*
X-407355Y504148D01*
X-407405Y504319D01*
X-407408Y504342D01*
X-407413Y504364D01*
X-407426Y504542D01*
X-407442Y504720D01*
X-407439Y504743D01*
X-407441Y504765D01*
X-407418Y504942D01*
X-407415Y504965D01*
X-407415Y510830D01*
X-409581Y516058D01*
X-413582Y520059D01*
X-418810Y522225D01*
X-424470Y522225D01*
X-429698Y520059D01*
X-432904Y516853D01*
X-432917Y516842D01*
X-432929Y516828D01*
X-433073Y516714D01*
X-433215Y516598D01*
X-433231Y516590D01*
X-433245Y516579D01*
X-433409Y516495D01*
X-433571Y516409D01*
X-433588Y516404D01*
X-433604Y516396D01*
X-433781Y516347D01*
X-433957Y516295D01*
X-433975Y516293D01*
X-433992Y516288D01*
X-434175Y516275D01*
X-434358Y516258D01*
X-434376Y516260D01*
X-434393Y516259D01*
X-434575Y516282D01*
X-434758Y516302D01*
X-434775Y516307D01*
X-434793Y516309D01*
X-434966Y516368D01*
X-435142Y516423D01*
X-435158Y516432D01*
X-435174Y516438D01*
X-435334Y516529D01*
X-435494Y516618D01*
X-435508Y516629D01*
X-435523Y516638D01*
X-435776Y516853D01*
X-438982Y520059D01*
X-444210Y522225D01*
X-450036Y522225D01*
X-450168Y522215D01*
X-450346Y522198D01*
X-450368Y522200D01*
X-450391Y522199D01*
X-450569Y522221D01*
X-450746Y522240D01*
X-450768Y522246D01*
X-450791Y522249D01*
X-450960Y522306D01*
X-451131Y522359D01*
X-451151Y522370D01*
X-451172Y522377D01*
X-451327Y522467D01*
X-451484Y522552D01*
X-451501Y522567D01*
X-451521Y522578D01*
X-451774Y522793D01*
X-488731Y559750D01*
X-491345Y560833D01*
X-574981Y560833D01*
X-574990Y560834D01*
X-574999Y560833D01*
X-575191Y560854D01*
X-575382Y560873D01*
X-575390Y560875D01*
X-575399Y560876D01*
X-575581Y560934D01*
X-575766Y560991D01*
X-575774Y560995D01*
X-575783Y560998D01*
X-575951Y561091D01*
X-576120Y561183D01*
X-576127Y561188D01*
X-576135Y561193D01*
X-576281Y561316D01*
X-576430Y561440D01*
X-576435Y561447D01*
X-576442Y561453D01*
X-576561Y561604D01*
X-576682Y561754D01*
X-576686Y561762D01*
X-576692Y561769D01*
X-576780Y561942D01*
X-576868Y562111D01*
X-576870Y562120D01*
X-576874Y562128D01*
X-576926Y562313D01*
X-576979Y562498D01*
X-576980Y562507D01*
X-576982Y562516D01*
X-576996Y562709D01*
X-577012Y562900D01*
X-577011Y562908D01*
X-577011Y562917D01*
X-576987Y563110D01*
X-576965Y563299D01*
X-576962Y563308D01*
X-576961Y563317D01*
X-576900Y563500D01*
X-576840Y563682D01*
X-576836Y563690D01*
X-576833Y563698D01*
X-576737Y563865D01*
X-576642Y564033D01*
X-576636Y564040D01*
X-576632Y564047D01*
X-576417Y564300D01*
X-573133Y567585D01*
X-571074Y572556D01*
X-571074Y575056D01*
X-571072Y575074D01*
X-571073Y575092D01*
X-571052Y575274D01*
X-571034Y575457D01*
X-571029Y575474D01*
X-571027Y575491D01*
X-570970Y575665D01*
X-570916Y575842D01*
X-570907Y575857D01*
X-570902Y575874D01*
X-570811Y576034D01*
X-570724Y576196D01*
X-570713Y576209D01*
X-570704Y576225D01*
X-570584Y576364D01*
X-570466Y576505D01*
X-570452Y576516D01*
X-570441Y576530D01*
X-570296Y576642D01*
X-570152Y576757D01*
X-570137Y576765D01*
X-570123Y576776D01*
X-569958Y576858D01*
X-569795Y576943D01*
X-569778Y576948D01*
X-569762Y576956D01*
X-569584Y577003D01*
X-569408Y577054D01*
X-569390Y577056D01*
X-569373Y577060D01*
X-569043Y577087D01*
X-559202Y577087D01*
X-559176Y577085D01*
X-559149Y577087D01*
X-558975Y577065D01*
X-558801Y577047D01*
X-558776Y577040D01*
X-558749Y577036D01*
X-558584Y576981D01*
X-558417Y576929D01*
X-558393Y576916D01*
X-558368Y576908D01*
X-558216Y576821D01*
X-558063Y576737D01*
X-558042Y576720D01*
X-558019Y576707D01*
X-557766Y576492D01*
X-555239Y573965D01*
X-553306Y573165D01*
X-550801Y572127D01*
X-530999Y572127D01*
X-526561Y573965D01*
X-523165Y577361D01*
X-521327Y581799D01*
X-521327Y586601D01*
X-523165Y591039D01*
X-526561Y594435D01*
X-527982Y595023D01*
X-527990Y595028D01*
X-527999Y595030D01*
X-528169Y595123D01*
X-528337Y595214D01*
X-528344Y595219D01*
X-528352Y595224D01*
X-528500Y595348D01*
X-528648Y595470D01*
X-528653Y595477D01*
X-528660Y595483D01*
X-528781Y595634D01*
X-528901Y595783D01*
X-528905Y595790D01*
X-528911Y595798D01*
X-528999Y595969D01*
X-529088Y596139D01*
X-529091Y596148D01*
X-529095Y596156D01*
X-529147Y596340D01*
X-529201Y596526D01*
X-529202Y596535D01*
X-529205Y596543D01*
X-529219Y596733D01*
X-529236Y596927D01*
X-529235Y596936D01*
X-529236Y596944D01*
X-529212Y597136D01*
X-529191Y597327D01*
X-529188Y597335D01*
X-529187Y597344D01*
X-529127Y597526D01*
X-529068Y597710D01*
X-529063Y597718D01*
X-529061Y597726D01*
X-528966Y597892D01*
X-528871Y598062D01*
X-528866Y598068D01*
X-528861Y598076D01*
X-528736Y598220D01*
X-528610Y598367D01*
X-528602Y598373D01*
X-528597Y598380D01*
X-528444Y598497D01*
X-528293Y598616D01*
X-528285Y598620D01*
X-528277Y598625D01*
X-527982Y598777D01*
X-526561Y599365D01*
X-523165Y602761D01*
X-522217Y605051D01*
X-522211Y605062D01*
X-522207Y605075D01*
X-522116Y605239D01*
X-522027Y605406D01*
X-522018Y605416D01*
X-522012Y605428D01*
X-521891Y605570D01*
X-521770Y605716D01*
X-521760Y605724D01*
X-521751Y605735D01*
X-521604Y605851D01*
X-521458Y605970D01*
X-521446Y605976D01*
X-521435Y605984D01*
X-521268Y606069D01*
X-521101Y606157D01*
X-521088Y606160D01*
X-521076Y606167D01*
X-520895Y606217D01*
X-520715Y606270D01*
X-520701Y606271D01*
X-520689Y606275D01*
X-520500Y606288D01*
X-520314Y606304D01*
X-520301Y606303D01*
X-520287Y606304D01*
X-520100Y606280D01*
X-519914Y606259D01*
X-519901Y606255D01*
X-519888Y606253D01*
X-519710Y606194D01*
X-519530Y606136D01*
X-519519Y606130D01*
X-519506Y606125D01*
X-519343Y606031D01*
X-519179Y605940D01*
X-519169Y605931D01*
X-519157Y605924D01*
X-518904Y605710D01*
X-471673Y558478D01*
X-469058Y557395D01*
X-401817Y557395D01*
X-399203Y558478D01*
X-396916Y560765D01*
X-396309Y561372D01*
X-396288Y561389D01*
X-396271Y561410D01*
X-396133Y561517D01*
X-395997Y561627D01*
X-395974Y561640D01*
X-395952Y561656D01*
X-395796Y561734D01*
X-395642Y561816D01*
X-395616Y561824D01*
X-395592Y561836D01*
X-395423Y561881D01*
X-395256Y561931D01*
X-395229Y561933D01*
X-395203Y561940D01*
X-394872Y561967D01*
X-391299Y561967D01*
X-386861Y563805D01*
X-384334Y566332D01*
X-384314Y566349D01*
X-384296Y566370D01*
X-384158Y566477D01*
X-384023Y566587D01*
X-383999Y566600D01*
X-383978Y566616D01*
X-383821Y566694D01*
X-383667Y566776D01*
X-383642Y566784D01*
X-383617Y566796D01*
X-383448Y566841D01*
X-383281Y566891D01*
X-383255Y566893D01*
X-383229Y566900D01*
X-382898Y566927D01*
X-355431Y566927D01*
X-355408Y566925D01*
X-355386Y566927D01*
X-355209Y566905D01*
X-355030Y566887D01*
X-355009Y566881D01*
X-354986Y566878D01*
X-354817Y566822D01*
X-354645Y566769D01*
X-354625Y566759D01*
X-354604Y566752D01*
X-354449Y566663D01*
X-354291Y566577D01*
X-354274Y566563D01*
X-354254Y566552D01*
X-354120Y566435D01*
X-353982Y566320D01*
X-353968Y566302D01*
X-353951Y566288D01*
X-353842Y566146D01*
X-353729Y566006D01*
X-353719Y565986D01*
X-353706Y565968D01*
X-353554Y565673D01*
X-353135Y564661D01*
X-349739Y561265D01*
X-345301Y559427D01*
X-340499Y559427D01*
X-336061Y561265D01*
X-332665Y564661D01*
X-330827Y569099D01*
X-330827Y573901D01*
X-332665Y578339D01*
X-336061Y581735D01*
X-340499Y583573D01*
X-345301Y583573D01*
X-349744Y581732D01*
X-349746Y581731D01*
X-349764Y581710D01*
X-349902Y581603D01*
X-350037Y581493D01*
X-350061Y581480D01*
X-350082Y581464D01*
X-350239Y581386D01*
X-350393Y581304D01*
X-350418Y581296D01*
X-350443Y581284D01*
X-350612Y581239D01*
X-350779Y581189D01*
X-350805Y581187D01*
X-350831Y581180D01*
X-351162Y581153D01*
X-382898Y581153D01*
X-382924Y581155D01*
X-382951Y581153D01*
X-383125Y581175D01*
X-383299Y581193D01*
X-383324Y581200D01*
X-383351Y581204D01*
X-383517Y581260D01*
X-383683Y581311D01*
X-383707Y581323D01*
X-383732Y581332D01*
X-383884Y581419D01*
X-384037Y581503D01*
X-384058Y581520D01*
X-384081Y581533D01*
X-384334Y581748D01*
X-386787Y584201D01*
X-386799Y584214D01*
X-386812Y584226D01*
X-386926Y584370D01*
X-387042Y584512D01*
X-387051Y584528D01*
X-387062Y584542D01*
X-387145Y584706D01*
X-387231Y584868D01*
X-387236Y584885D01*
X-387244Y584901D01*
X-387293Y585078D01*
X-387346Y585254D01*
X-387347Y585271D01*
X-387352Y585289D01*
X-387365Y585470D01*
X-387382Y585655D01*
X-387380Y585672D01*
X-387381Y585690D01*
X-387358Y585872D01*
X-387339Y586055D01*
X-387333Y586072D01*
X-387331Y586090D01*
X-387273Y586263D01*
X-387217Y586439D01*
X-387208Y586454D01*
X-387203Y586471D01*
X-387111Y586631D01*
X-387022Y586791D01*
X-387011Y586805D01*
X-387002Y586820D01*
X-386787Y587073D01*
X-383659Y590201D01*
X-383659Y592329D01*
X-393700Y592329D01*
X-403741Y592329D01*
X-403741Y590201D01*
X-400613Y587073D01*
X-400601Y587059D01*
X-400588Y587048D01*
X-400474Y586904D01*
X-400358Y586762D01*
X-400349Y586746D01*
X-400338Y586732D01*
X-400255Y586568D01*
X-400169Y586406D01*
X-400164Y586389D01*
X-400156Y586373D01*
X-400107Y586196D01*
X-400054Y586020D01*
X-400053Y586002D01*
X-400048Y585985D01*
X-400035Y585802D01*
X-400018Y585619D01*
X-400020Y585601D01*
X-400019Y585584D01*
X-400042Y585401D01*
X-400061Y585219D01*
X-400067Y585202D01*
X-400069Y585184D01*
X-400127Y585010D01*
X-400183Y584835D01*
X-400192Y584819D01*
X-400197Y584802D01*
X-400289Y584643D01*
X-400378Y584483D01*
X-400389Y584469D01*
X-400398Y584454D01*
X-400613Y584201D01*
X-403935Y580879D01*
X-405773Y576441D01*
X-405773Y573652D01*
X-405775Y573634D01*
X-405773Y573616D01*
X-405794Y573434D01*
X-405813Y573251D01*
X-405818Y573234D01*
X-405820Y573217D01*
X-405877Y573042D01*
X-405931Y572866D01*
X-405939Y572851D01*
X-405945Y572834D01*
X-406035Y572674D01*
X-406123Y572512D01*
X-406134Y572499D01*
X-406143Y572483D01*
X-406263Y572344D01*
X-406380Y572203D01*
X-406394Y572192D01*
X-406406Y572178D01*
X-406552Y572065D01*
X-406694Y571951D01*
X-406710Y571943D01*
X-406724Y571932D01*
X-406889Y571850D01*
X-407051Y571765D01*
X-407068Y571760D01*
X-407084Y571752D01*
X-407263Y571705D01*
X-407438Y571654D01*
X-407456Y571652D01*
X-407473Y571648D01*
X-407804Y571621D01*
X-436311Y571621D01*
X-436437Y571633D01*
X-436563Y571636D01*
X-436636Y571653D01*
X-436711Y571661D01*
X-436832Y571698D01*
X-436956Y571726D01*
X-437024Y571757D01*
X-437096Y571779D01*
X-437207Y571839D01*
X-437323Y571891D01*
X-437384Y571935D01*
X-437450Y571971D01*
X-437547Y572051D01*
X-437650Y572125D01*
X-437702Y572180D01*
X-437760Y572228D01*
X-437839Y572327D01*
X-437925Y572419D01*
X-437965Y572483D01*
X-438012Y572542D01*
X-438070Y572654D01*
X-438137Y572762D01*
X-438163Y572833D01*
X-438198Y572899D01*
X-438232Y573021D01*
X-438276Y573139D01*
X-438288Y573214D01*
X-438309Y573286D01*
X-438319Y573412D01*
X-438339Y573537D01*
X-438336Y573612D01*
X-438342Y573688D01*
X-438327Y573813D01*
X-438322Y573939D01*
X-438304Y574012D01*
X-438295Y574087D01*
X-438256Y574208D01*
X-438226Y574330D01*
X-438193Y574398D01*
X-438170Y574470D01*
X-438108Y574580D01*
X-438054Y574695D01*
X-438009Y574755D01*
X-437972Y574821D01*
X-437890Y574916D01*
X-437814Y575018D01*
X-437758Y575069D01*
X-437709Y575125D01*
X-437609Y575203D01*
X-437515Y575288D01*
X-437441Y575334D01*
X-437391Y575372D01*
X-437325Y575405D01*
X-437233Y575462D01*
X-436937Y575612D01*
X-435659Y576541D01*
X-434541Y577659D01*
X-433612Y578938D01*
X-432895Y580346D01*
X-432407Y581849D01*
X-432356Y582169D01*
X-457200Y582169D01*
X-467044Y582169D01*
X-466993Y581849D01*
X-466505Y580346D01*
X-465788Y578938D01*
X-464859Y577659D01*
X-463741Y576541D01*
X-462463Y575612D01*
X-462167Y575462D01*
X-462061Y575394D01*
X-461950Y575333D01*
X-461892Y575285D01*
X-461828Y575244D01*
X-461737Y575156D01*
X-461640Y575076D01*
X-461593Y575017D01*
X-461539Y574964D01*
X-461467Y574860D01*
X-461388Y574762D01*
X-461353Y574695D01*
X-461310Y574633D01*
X-461261Y574517D01*
X-461202Y574405D01*
X-461182Y574332D01*
X-461152Y574263D01*
X-461126Y574139D01*
X-461091Y574018D01*
X-461085Y573943D01*
X-461069Y573869D01*
X-461069Y573742D01*
X-461058Y573616D01*
X-461067Y573542D01*
X-461066Y573466D01*
X-461090Y573342D01*
X-461105Y573217D01*
X-461128Y573145D01*
X-461143Y573071D01*
X-461191Y572954D01*
X-461230Y572834D01*
X-461267Y572768D01*
X-461296Y572698D01*
X-461366Y572593D01*
X-461428Y572483D01*
X-461477Y572426D01*
X-461519Y572363D01*
X-461608Y572274D01*
X-461691Y572178D01*
X-461750Y572132D01*
X-461804Y572079D01*
X-461909Y572009D01*
X-462009Y571932D01*
X-462077Y571898D01*
X-462139Y571856D01*
X-462256Y571809D01*
X-462370Y571752D01*
X-462442Y571733D01*
X-462512Y571704D01*
X-462636Y571681D01*
X-462758Y571648D01*
X-462846Y571641D01*
X-462908Y571629D01*
X-462981Y571630D01*
X-463089Y571621D01*
X-463856Y571621D01*
X-463882Y571623D01*
X-463909Y571621D01*
X-464083Y571643D01*
X-464257Y571661D01*
X-464282Y571668D01*
X-464309Y571672D01*
X-464474Y571727D01*
X-464641Y571779D01*
X-464665Y571792D01*
X-464690Y571800D01*
X-464842Y571887D01*
X-464995Y571971D01*
X-465016Y571988D01*
X-465039Y572001D01*
X-465292Y572216D01*
X-521032Y627955D01*
X-521032Y627956D01*
X-523318Y630242D01*
X-525933Y631325D01*
X-685303Y631325D01*
X-687917Y630242D01*
X-704930Y613229D01*
X-706013Y610615D01*
X-706013Y606011D01*
X-706015Y605985D01*
X-706013Y605958D01*
X-706035Y605784D01*
X-706053Y605611D01*
X-706060Y605585D01*
X-706064Y605558D01*
X-706119Y605393D01*
X-706171Y605226D01*
X-706184Y605202D01*
X-706192Y605177D01*
X-706279Y605025D01*
X-706363Y604872D01*
X-706380Y604851D01*
X-706393Y604828D01*
X-706608Y604575D01*
X-710367Y600815D01*
X-712426Y595844D01*
X-712426Y572556D01*
X-710367Y567585D01*
X-706562Y563779D01*
X-701591Y561720D01*
X-696209Y561720D01*
X-691238Y563779D01*
X-687433Y567585D01*
X-685374Y572556D01*
X-685374Y595844D01*
X-687433Y600815D01*
X-690893Y604275D01*
X-690904Y604289D01*
X-690918Y604301D01*
X-691032Y604445D01*
X-691148Y604587D01*
X-691156Y604603D01*
X-691167Y604617D01*
X-691251Y604781D01*
X-691337Y604943D01*
X-691342Y604960D01*
X-691350Y604976D01*
X-691399Y605153D01*
X-691451Y605329D01*
X-691453Y605346D01*
X-691458Y605364D01*
X-691471Y605547D01*
X-691488Y605730D01*
X-691486Y605747D01*
X-691487Y605765D01*
X-691464Y605947D01*
X-691444Y606130D01*
X-691439Y606147D01*
X-691437Y606165D01*
X-691378Y606338D01*
X-691323Y606514D01*
X-691314Y606529D01*
X-691309Y606546D01*
X-691217Y606706D01*
X-691128Y606866D01*
X-691117Y606880D01*
X-691108Y606895D01*
X-690893Y607148D01*
X-681537Y616504D01*
X-681516Y616521D01*
X-681499Y616542D01*
X-681361Y616649D01*
X-681225Y616759D01*
X-681202Y616772D01*
X-681180Y616788D01*
X-681024Y616866D01*
X-680870Y616948D01*
X-680844Y616956D01*
X-680820Y616968D01*
X-680651Y617013D01*
X-680484Y617063D01*
X-680457Y617065D01*
X-680431Y617072D01*
X-680100Y617099D01*
X-637384Y617099D01*
X-637375Y617098D01*
X-637366Y617099D01*
X-637174Y617078D01*
X-636983Y617059D01*
X-636974Y617057D01*
X-636965Y617056D01*
X-636783Y616998D01*
X-636598Y616941D01*
X-636590Y616937D01*
X-636582Y616934D01*
X-636413Y616841D01*
X-636244Y616749D01*
X-636237Y616744D01*
X-636229Y616739D01*
X-636082Y616615D01*
X-635935Y616492D01*
X-635929Y616485D01*
X-635922Y616479D01*
X-635803Y616328D01*
X-635682Y616178D01*
X-635678Y616170D01*
X-635673Y616163D01*
X-635585Y615990D01*
X-635497Y615821D01*
X-635494Y615812D01*
X-635490Y615804D01*
X-635438Y615618D01*
X-635385Y615434D01*
X-635385Y615425D01*
X-635382Y615416D01*
X-635368Y615223D01*
X-635353Y615032D01*
X-635354Y615024D01*
X-635353Y615015D01*
X-635377Y614820D01*
X-635399Y614633D01*
X-635402Y614624D01*
X-635403Y614615D01*
X-635465Y614432D01*
X-635524Y614250D01*
X-635529Y614242D01*
X-635532Y614234D01*
X-635627Y614068D01*
X-635722Y613899D01*
X-635728Y613892D01*
X-635733Y613885D01*
X-635947Y613632D01*
X-638743Y610836D01*
X-641030Y608549D01*
X-642113Y605935D01*
X-642113Y605611D01*
X-642115Y605585D01*
X-642113Y605558D01*
X-642135Y605384D01*
X-642153Y605211D01*
X-642160Y605185D01*
X-642164Y605158D01*
X-642219Y604993D01*
X-642271Y604826D01*
X-642284Y604802D01*
X-642292Y604777D01*
X-642379Y604625D01*
X-642463Y604472D01*
X-642480Y604451D01*
X-642493Y604428D01*
X-642708Y604175D01*
X-646067Y600815D01*
X-648126Y595844D01*
X-648126Y572556D01*
X-646067Y567585D01*
X-642783Y564300D01*
X-642777Y564293D01*
X-642770Y564288D01*
X-642650Y564138D01*
X-642528Y563989D01*
X-642524Y563981D01*
X-642518Y563974D01*
X-642429Y563804D01*
X-642339Y563633D01*
X-642337Y563624D01*
X-642332Y563617D01*
X-642279Y563432D01*
X-642224Y563247D01*
X-642223Y563238D01*
X-642221Y563230D01*
X-642205Y563039D01*
X-642188Y562846D01*
X-642189Y562837D01*
X-642188Y562828D01*
X-642210Y562639D01*
X-642231Y562446D01*
X-642234Y562437D01*
X-642235Y562429D01*
X-642294Y562247D01*
X-642353Y562062D01*
X-642357Y562054D01*
X-642360Y562046D01*
X-642455Y561877D01*
X-642548Y561710D01*
X-642553Y561703D01*
X-642558Y561695D01*
X-642684Y561549D01*
X-642808Y561403D01*
X-642815Y561397D01*
X-642821Y561390D01*
X-642972Y561273D01*
X-643124Y561153D01*
X-643132Y561149D01*
X-643139Y561144D01*
X-643311Y561058D01*
X-643483Y560971D01*
X-643492Y560968D01*
X-643500Y560964D01*
X-643686Y560914D01*
X-643871Y560863D01*
X-643880Y560862D01*
X-643888Y560860D01*
X-644219Y560833D01*
X-670593Y560833D01*
X-673207Y559750D01*
X-701990Y530967D01*
X-703073Y528353D01*
X-703073Y487647D01*
X-701990Y485033D01*
X-613771Y396814D01*
X-612882Y396446D01*
X-611157Y395731D01*
X-171428Y395731D01*
X-171401Y395729D01*
X-171374Y395731D01*
X-171200Y395709D01*
X-171027Y395691D01*
X-171001Y395684D01*
X-170975Y395680D01*
X-170809Y395625D01*
X-170642Y395573D01*
X-170618Y395560D01*
X-170593Y395552D01*
X-170441Y395465D01*
X-170288Y395381D01*
X-170268Y395364D01*
X-170244Y395351D01*
X-169991Y395136D01*
X-129093Y354238D01*
X-129079Y354221D01*
X-129061Y354206D01*
X-128951Y354065D01*
X-128838Y353927D01*
X-128827Y353907D01*
X-128813Y353889D01*
X-128733Y353728D01*
X-128649Y353571D01*
X-128643Y353549D01*
X-128633Y353529D01*
X-128585Y353356D01*
X-128535Y353185D01*
X-128532Y353162D01*
X-128527Y353140D01*
X-128514Y352962D01*
X-128498Y352784D01*
X-128501Y352761D01*
X-128499Y352739D01*
X-128522Y352562D01*
X-128525Y352539D01*
X-128525Y346674D01*
X-126359Y341446D01*
X-122358Y337445D01*
X-119881Y336419D01*
X-119766Y336357D01*
X-119646Y336304D01*
X-119589Y336262D01*
X-119526Y336229D01*
X-119425Y336145D01*
X-119319Y336069D01*
X-119270Y336018D01*
X-119216Y335972D01*
X-119133Y335871D01*
X-119044Y335775D01*
X-119007Y335715D01*
X-118962Y335660D01*
X-118901Y335544D01*
X-118832Y335433D01*
X-118808Y335366D01*
X-118775Y335303D01*
X-118738Y335178D01*
X-118693Y335055D01*
X-118682Y334985D01*
X-118662Y334917D01*
X-118650Y334787D01*
X-118630Y334657D01*
X-118633Y334586D01*
X-118627Y334516D01*
X-118642Y334386D01*
X-118647Y334255D01*
X-118664Y334186D01*
X-118672Y334116D01*
X-118712Y333991D01*
X-118743Y333864D01*
X-118774Y333800D01*
X-118795Y333732D01*
X-118859Y333618D01*
X-118915Y333500D01*
X-118957Y333443D01*
X-118992Y333381D01*
X-119077Y333282D01*
X-119155Y333176D01*
X-119207Y333129D01*
X-119254Y333075D01*
X-119357Y332994D01*
X-119454Y332907D01*
X-119524Y332864D01*
X-119571Y332827D01*
X-119639Y332793D01*
X-119736Y332732D01*
X-120690Y332246D01*
X-122243Y331118D01*
X-123600Y329761D01*
X-124728Y328208D01*
X-125599Y326498D01*
X-126192Y324673D01*
X-126249Y324317D01*
X-114768Y324317D01*
X-114750Y324315D01*
X-114733Y324317D01*
X-114550Y324296D01*
X-114368Y324277D01*
X-114351Y324272D01*
X-114333Y324270D01*
X-114292Y324257D01*
X-114198Y324284D01*
X-114180Y324286D01*
X-114163Y324290D01*
X-113832Y324317D01*
X-102351Y324317D01*
X-102408Y324673D01*
X-103001Y326498D01*
X-103872Y328208D01*
X-105000Y329761D01*
X-106357Y331118D01*
X-107910Y332246D01*
X-108864Y332732D01*
X-108974Y332803D01*
X-109089Y332866D01*
X-109143Y332911D01*
X-109203Y332950D01*
X-109297Y333041D01*
X-109397Y333125D01*
X-109441Y333181D01*
X-109492Y333230D01*
X-109566Y333338D01*
X-109648Y333440D01*
X-109680Y333503D01*
X-109721Y333561D01*
X-109772Y333682D01*
X-109832Y333798D01*
X-109851Y333866D01*
X-109879Y333931D01*
X-109906Y334060D01*
X-109941Y334185D01*
X-109947Y334256D01*
X-109961Y334326D01*
X-109962Y334457D01*
X-109973Y334587D01*
X-109964Y334657D01*
X-109965Y334728D01*
X-109940Y334857D01*
X-109924Y334986D01*
X-109902Y335054D01*
X-109888Y335123D01*
X-109839Y335244D01*
X-109797Y335369D01*
X-109762Y335430D01*
X-109735Y335496D01*
X-109663Y335605D01*
X-109598Y335718D01*
X-109551Y335772D01*
X-109512Y335831D01*
X-109420Y335923D01*
X-109333Y336022D01*
X-109277Y336065D01*
X-109227Y336115D01*
X-109118Y336188D01*
X-109014Y336267D01*
X-108941Y336305D01*
X-108891Y336338D01*
X-108821Y336367D01*
X-108719Y336419D01*
X-106242Y337445D01*
X-104413Y339274D01*
X-104283Y339381D01*
X-104156Y339492D01*
X-104127Y339508D01*
X-104101Y339529D01*
X-103953Y339608D01*
X-103807Y339692D01*
X-103775Y339702D01*
X-103746Y339718D01*
X-103584Y339766D01*
X-103425Y339819D01*
X-103392Y339823D01*
X-103360Y339833D01*
X-103192Y339848D01*
X-103025Y339869D01*
X-102992Y339866D01*
X-102959Y339869D01*
X-102791Y339851D01*
X-102624Y339838D01*
X-102592Y339829D01*
X-102559Y339826D01*
X-102398Y339775D01*
X-102236Y339729D01*
X-102207Y339714D01*
X-102175Y339704D01*
X-102027Y339623D01*
X-101878Y339546D01*
X-101852Y339526D01*
X-101822Y339509D01*
X-101694Y339400D01*
X-101562Y339296D01*
X-101541Y339271D01*
X-101515Y339249D01*
X-101411Y339117D01*
X-101302Y338988D01*
X-101286Y338959D01*
X-101266Y338933D01*
X-101190Y338783D01*
X-101108Y338636D01*
X-101098Y338604D01*
X-101083Y338574D01*
X-101038Y338412D01*
X-100999Y338287D01*
X-91399Y338287D01*
X-91399Y360721D01*
X-100999Y360721D01*
X-100999Y360720D01*
X-101004Y360687D01*
X-101059Y360529D01*
X-101110Y360368D01*
X-101126Y360339D01*
X-101138Y360308D01*
X-101224Y360163D01*
X-101305Y360016D01*
X-101327Y359990D01*
X-101344Y359962D01*
X-101457Y359837D01*
X-101566Y359709D01*
X-101592Y359688D01*
X-101614Y359664D01*
X-101750Y359564D01*
X-101882Y359459D01*
X-101911Y359444D01*
X-101938Y359424D01*
X-102091Y359353D01*
X-102240Y359277D01*
X-102273Y359268D01*
X-102303Y359254D01*
X-102466Y359214D01*
X-102628Y359169D01*
X-102662Y359166D01*
X-102694Y359159D01*
X-102862Y359152D01*
X-103030Y359139D01*
X-103063Y359144D01*
X-103096Y359142D01*
X-103262Y359169D01*
X-103429Y359190D01*
X-103461Y359200D01*
X-103494Y359206D01*
X-103652Y359265D01*
X-103811Y359318D01*
X-103840Y359335D01*
X-103871Y359346D01*
X-104014Y359435D01*
X-104160Y359519D01*
X-104188Y359543D01*
X-104213Y359559D01*
X-104276Y359618D01*
X-104413Y359734D01*
X-106301Y361622D01*
X-106373Y361660D01*
X-106380Y361666D01*
X-106388Y361671D01*
X-106536Y361795D01*
X-106683Y361917D01*
X-106689Y361924D01*
X-106696Y361930D01*
X-106817Y362081D01*
X-106937Y362229D01*
X-106941Y362237D01*
X-106947Y362245D01*
X-107035Y362416D01*
X-107124Y362586D01*
X-107127Y362594D01*
X-107131Y362603D01*
X-107183Y362787D01*
X-107237Y362972D01*
X-107238Y362981D01*
X-107241Y362990D01*
X-107255Y363180D01*
X-107272Y363373D01*
X-107271Y363382D01*
X-107272Y363391D01*
X-107249Y363581D01*
X-107227Y363773D01*
X-107224Y363782D01*
X-107223Y363791D01*
X-107163Y363972D01*
X-107104Y364157D01*
X-107099Y364165D01*
X-107097Y364173D01*
X-107002Y364339D01*
X-106908Y364508D01*
X-106902Y364515D01*
X-106897Y364523D01*
X-106771Y364668D01*
X-106646Y364814D01*
X-106639Y364820D01*
X-106633Y364827D01*
X-106480Y364944D01*
X-106329Y365062D01*
X-106321Y365066D01*
X-106313Y365072D01*
X-106288Y365085D01*
X-104365Y367008D01*
X-104235Y367115D01*
X-104108Y367225D01*
X-104079Y367242D01*
X-104054Y367263D01*
X-103905Y367342D01*
X-103759Y367426D01*
X-103727Y367436D01*
X-103698Y367452D01*
X-103537Y367500D01*
X-103377Y367553D01*
X-103344Y367557D01*
X-103312Y367567D01*
X-103144Y367582D01*
X-102977Y367602D01*
X-102944Y367600D01*
X-102911Y367603D01*
X-102743Y367585D01*
X-102576Y367572D01*
X-102544Y367563D01*
X-102511Y367560D01*
X-102350Y367509D01*
X-102188Y367463D01*
X-102159Y367448D01*
X-102127Y367438D01*
X-101979Y367356D01*
X-101830Y367280D01*
X-101804Y367259D01*
X-101775Y367243D01*
X-101646Y367134D01*
X-101514Y367030D01*
X-101493Y367004D01*
X-101468Y366983D01*
X-101363Y366851D01*
X-101255Y366722D01*
X-101239Y366693D01*
X-101218Y366667D01*
X-101142Y366517D01*
X-101061Y366369D01*
X-101051Y366338D01*
X-101036Y366308D01*
X-100990Y366145D01*
X-100940Y365985D01*
X-100937Y365952D01*
X-100928Y365920D01*
X-100915Y365752D01*
X-100912Y365719D01*
X-91399Y365719D01*
X-91399Y388407D01*
X-100999Y388407D01*
X-100999Y388406D01*
X-101004Y388373D01*
X-101059Y388215D01*
X-101110Y388054D01*
X-101126Y388025D01*
X-101138Y387994D01*
X-101223Y387849D01*
X-101305Y387702D01*
X-101327Y387676D01*
X-101344Y387648D01*
X-101457Y387523D01*
X-101566Y387395D01*
X-101592Y387374D01*
X-101614Y387350D01*
X-101749Y387250D01*
X-101882Y387145D01*
X-101911Y387130D01*
X-101938Y387110D01*
X-102090Y387039D01*
X-102240Y386963D01*
X-102273Y386954D01*
X-102303Y386940D01*
X-102466Y386900D01*
X-102628Y386855D01*
X-102662Y386852D01*
X-102694Y386845D01*
X-102862Y386838D01*
X-103030Y386825D01*
X-103063Y386830D01*
X-103096Y386828D01*
X-103262Y386855D01*
X-103429Y386876D01*
X-103461Y386886D01*
X-103494Y386892D01*
X-103651Y386950D01*
X-103811Y387004D01*
X-103840Y387021D01*
X-103871Y387032D01*
X-104014Y387121D01*
X-104160Y387205D01*
X-104188Y387229D01*
X-104213Y387245D01*
X-104276Y387304D01*
X-104413Y387420D01*
X-106463Y389470D01*
X-106474Y389483D01*
X-106488Y389495D01*
X-106602Y389639D01*
X-106718Y389781D01*
X-106726Y389797D01*
X-106737Y389811D01*
X-106821Y389975D01*
X-106907Y390137D01*
X-106912Y390154D01*
X-106920Y390170D01*
X-106969Y390347D01*
X-107021Y390523D01*
X-107023Y390541D01*
X-107028Y390558D01*
X-107041Y390741D01*
X-107058Y390924D01*
X-107056Y390942D01*
X-107057Y390959D01*
X-107034Y391141D01*
X-107014Y391324D01*
X-107009Y391341D01*
X-107007Y391359D01*
X-106948Y391532D01*
X-106893Y391708D01*
X-106884Y391724D01*
X-106878Y391740D01*
X-106787Y391899D01*
X-106698Y392060D01*
X-106686Y392074D01*
X-106678Y392089D01*
X-106463Y392342D01*
X-104413Y394392D01*
X-104283Y394499D01*
X-104156Y394610D01*
X-104127Y394626D01*
X-104101Y394647D01*
X-103953Y394726D01*
X-103807Y394810D01*
X-103775Y394820D01*
X-103746Y394836D01*
X-103584Y394884D01*
X-103425Y394937D01*
X-103392Y394941D01*
X-103360Y394951D01*
X-103192Y394966D01*
X-103025Y394987D01*
X-102992Y394984D01*
X-102959Y394987D01*
X-102791Y394969D01*
X-102624Y394956D01*
X-102592Y394947D01*
X-102559Y394944D01*
X-102398Y394893D01*
X-102236Y394847D01*
X-102206Y394832D01*
X-102175Y394822D01*
X-102027Y394741D01*
X-101878Y394664D01*
X-101852Y394644D01*
X-101822Y394627D01*
X-101694Y394518D01*
X-101562Y394414D01*
X-101541Y394388D01*
X-101515Y394367D01*
X-101411Y394235D01*
X-101302Y394106D01*
X-101286Y394077D01*
X-101266Y394051D01*
X-101190Y393901D01*
X-101108Y393754D01*
X-101098Y393722D01*
X-101083Y393692D01*
X-101038Y393530D01*
X-100999Y393405D01*
X-91399Y393405D01*
X-91399Y416093D01*
X-100908Y416093D01*
X-100923Y415990D01*
X-100941Y415822D01*
X-100951Y415790D01*
X-100956Y415757D01*
X-101012Y415598D01*
X-101063Y415438D01*
X-101079Y415409D01*
X-101090Y415378D01*
X-101176Y415233D01*
X-101257Y415086D01*
X-101279Y415061D01*
X-101296Y415032D01*
X-101409Y414908D01*
X-101518Y414779D01*
X-101544Y414758D01*
X-101566Y414734D01*
X-101701Y414634D01*
X-101834Y414529D01*
X-101864Y414514D01*
X-101890Y414495D01*
X-102043Y414423D01*
X-102193Y414347D01*
X-102225Y414338D01*
X-102255Y414324D01*
X-102419Y414284D01*
X-102581Y414239D01*
X-102614Y414237D01*
X-102646Y414229D01*
X-102814Y414222D01*
X-102982Y414210D01*
X-103015Y414214D01*
X-103048Y414213D01*
X-103214Y414239D01*
X-103382Y414260D01*
X-103413Y414271D01*
X-103446Y414276D01*
X-103604Y414335D01*
X-103763Y414388D01*
X-103792Y414405D01*
X-103823Y414417D01*
X-103967Y414505D01*
X-104112Y414589D01*
X-104140Y414613D01*
X-104165Y414629D01*
X-104229Y414688D01*
X-104365Y414804D01*
X-106301Y416740D01*
X-106373Y416778D01*
X-106380Y416784D01*
X-106388Y416789D01*
X-106536Y416913D01*
X-106683Y417035D01*
X-106689Y417042D01*
X-106696Y417048D01*
X-106817Y417199D01*
X-106937Y417347D01*
X-106941Y417355D01*
X-106947Y417363D01*
X-107035Y417534D01*
X-107124Y417704D01*
X-107127Y417712D01*
X-107131Y417721D01*
X-107183Y417905D01*
X-107237Y418090D01*
X-107238Y418099D01*
X-107241Y418108D01*
X-107255Y418298D01*
X-107272Y418491D01*
X-107271Y418500D01*
X-107272Y418509D01*
X-107249Y418699D01*
X-107227Y418891D01*
X-107224Y418900D01*
X-107223Y418909D01*
X-107163Y419091D01*
X-107104Y419275D01*
X-107099Y419283D01*
X-107097Y419291D01*
X-107002Y419457D01*
X-106908Y419626D01*
X-106902Y419633D01*
X-106897Y419641D01*
X-106772Y419785D01*
X-106646Y419932D01*
X-106639Y419938D01*
X-106633Y419945D01*
X-106480Y420062D01*
X-106329Y420180D01*
X-106321Y420184D01*
X-106313Y420190D01*
X-106288Y420203D01*
X-104413Y422078D01*
X-104283Y422185D01*
X-104156Y422296D01*
X-104127Y422312D01*
X-104101Y422333D01*
X-103953Y422412D01*
X-103807Y422496D01*
X-103775Y422506D01*
X-103746Y422522D01*
X-103584Y422570D01*
X-103425Y422623D01*
X-103392Y422627D01*
X-103360Y422637D01*
X-103192Y422652D01*
X-103025Y422673D01*
X-102992Y422670D01*
X-102959Y422673D01*
X-102791Y422655D01*
X-102624Y422642D01*
X-102592Y422633D01*
X-102559Y422630D01*
X-102398Y422579D01*
X-102236Y422533D01*
X-102206Y422518D01*
X-102175Y422508D01*
X-102027Y422427D01*
X-101878Y422350D01*
X-101852Y422330D01*
X-101822Y422313D01*
X-101694Y422205D01*
X-101562Y422100D01*
X-101541Y422074D01*
X-101515Y422053D01*
X-101411Y421921D01*
X-101303Y421792D01*
X-101286Y421763D01*
X-101266Y421737D01*
X-101190Y421587D01*
X-101109Y421440D01*
X-101099Y421408D01*
X-101083Y421378D01*
X-101038Y421216D01*
X-100999Y421091D01*
X-89368Y421091D01*
X-89350Y421089D01*
X-89333Y421091D01*
X-89150Y421070D01*
X-88968Y421051D01*
X-88951Y421046D01*
X-88933Y421044D01*
X-88758Y420987D01*
X-88583Y420933D01*
X-88567Y420925D01*
X-88550Y420919D01*
X-88390Y420829D01*
X-88229Y420741D01*
X-88215Y420730D01*
X-88199Y420721D01*
X-88060Y420601D01*
X-87919Y420484D01*
X-87908Y420470D01*
X-87895Y420458D01*
X-87782Y420313D01*
X-87667Y420170D01*
X-87659Y420154D01*
X-87648Y420140D01*
X-87566Y419975D01*
X-87552Y419948D01*
X-87454Y419893D01*
X-87292Y419805D01*
X-87279Y419794D01*
X-87263Y419785D01*
X-87124Y419665D01*
X-86983Y419547D01*
X-86972Y419534D01*
X-86958Y419522D01*
X-86846Y419377D01*
X-86731Y419234D01*
X-86723Y419218D01*
X-86712Y419204D01*
X-86630Y419039D01*
X-86545Y418876D01*
X-86540Y418859D01*
X-86532Y418843D01*
X-86484Y418665D01*
X-86434Y418490D01*
X-86432Y418472D01*
X-86428Y418455D01*
X-86401Y418124D01*
X-86401Y391374D01*
X-86402Y391356D01*
X-86401Y391339D01*
X-86422Y391156D01*
X-86441Y390974D01*
X-86446Y390957D01*
X-86448Y390939D01*
X-86461Y390898D01*
X-86434Y390804D01*
X-86432Y390786D01*
X-86428Y390769D01*
X-86401Y390438D01*
X-86401Y363688D01*
X-86402Y363670D01*
X-86401Y363653D01*
X-86422Y363470D01*
X-86441Y363288D01*
X-86446Y363271D01*
X-86448Y363253D01*
X-86461Y363212D01*
X-86434Y363118D01*
X-86432Y363100D01*
X-86428Y363083D01*
X-86401Y362752D01*
X-86401Y336256D01*
X-86402Y336238D01*
X-86401Y336221D01*
X-86422Y336038D01*
X-86441Y335856D01*
X-86446Y335839D01*
X-86448Y335821D01*
X-86461Y335780D01*
X-86434Y335686D01*
X-86432Y335668D01*
X-86428Y335651D01*
X-86401Y335320D01*
X-86401Y308570D01*
X-86402Y308552D01*
X-86401Y308535D01*
X-86422Y308352D01*
X-86441Y308170D01*
X-86446Y308153D01*
X-86448Y308135D01*
X-86461Y308094D01*
X-86434Y308000D01*
X-86432Y307982D01*
X-86428Y307965D01*
X-86401Y307634D01*
X-86401Y280884D01*
X-86402Y280866D01*
X-86401Y280849D01*
X-86422Y280666D01*
X-86441Y280484D01*
X-86446Y280467D01*
X-86448Y280449D01*
X-86461Y280408D01*
X-86434Y280314D01*
X-86432Y280296D01*
X-86428Y280279D01*
X-86401Y279948D01*
X-86401Y253452D01*
X-86402Y253434D01*
X-86401Y253417D01*
X-86422Y253234D01*
X-86441Y253052D01*
X-86446Y253035D01*
X-86448Y253017D01*
X-86461Y252976D01*
X-86434Y252882D01*
X-86432Y252864D01*
X-86428Y252847D01*
X-86401Y252516D01*
X-86401Y225766D01*
X-86402Y225748D01*
X-86401Y225731D01*
X-86422Y225548D01*
X-86441Y225366D01*
X-86446Y225349D01*
X-86448Y225331D01*
X-86461Y225290D01*
X-86434Y225196D01*
X-86432Y225178D01*
X-86428Y225161D01*
X-86401Y224830D01*
X-86401Y198080D01*
X-86402Y198062D01*
X-86401Y198045D01*
X-86422Y197862D01*
X-86441Y197680D01*
X-86446Y197663D01*
X-86448Y197645D01*
X-86461Y197604D01*
X-86434Y197510D01*
X-86432Y197492D01*
X-86428Y197475D01*
X-86401Y197144D01*
X-86401Y170648D01*
X-86402Y170630D01*
X-86401Y170613D01*
X-86422Y170430D01*
X-86441Y170248D01*
X-86446Y170231D01*
X-86448Y170213D01*
X-86505Y170038D01*
X-86559Y169863D01*
X-86567Y169847D01*
X-86573Y169830D01*
X-86663Y169670D01*
X-86750Y169509D01*
X-86762Y169495D01*
X-86771Y169479D01*
X-86891Y169340D01*
X-87008Y169199D01*
X-87022Y169188D01*
X-87034Y169175D01*
X-87179Y169062D01*
X-87322Y168947D01*
X-87338Y168939D01*
X-87352Y168928D01*
X-87517Y168846D01*
X-87544Y168832D01*
X-87599Y168734D01*
X-87687Y168572D01*
X-87698Y168559D01*
X-87707Y168543D01*
X-87827Y168404D01*
X-87945Y168263D01*
X-87958Y168252D01*
X-87970Y168238D01*
X-88115Y168126D01*
X-88258Y168011D01*
X-88274Y168003D01*
X-88288Y167992D01*
X-88453Y167910D01*
X-88616Y167825D01*
X-88633Y167820D01*
X-88649Y167812D01*
X-88827Y167764D01*
X-89002Y167714D01*
X-89020Y167712D01*
X-89037Y167708D01*
X-89368Y167681D01*
X-100908Y167681D01*
X-100923Y167578D01*
X-100941Y167410D01*
X-100951Y167378D01*
X-100956Y167345D01*
X-101012Y167186D01*
X-101063Y167026D01*
X-101079Y166997D01*
X-101090Y166966D01*
X-101176Y166821D01*
X-101257Y166674D01*
X-101279Y166649D01*
X-101296Y166620D01*
X-101409Y166496D01*
X-101518Y166367D01*
X-101544Y166346D01*
X-101566Y166322D01*
X-101701Y166222D01*
X-101834Y166117D01*
X-101864Y166102D01*
X-101890Y166083D01*
X-102043Y166011D01*
X-102193Y165935D01*
X-102225Y165926D01*
X-102255Y165912D01*
X-102419Y165872D01*
X-102581Y165827D01*
X-102614Y165825D01*
X-102646Y165817D01*
X-102814Y165810D01*
X-102982Y165798D01*
X-103015Y165802D01*
X-103048Y165801D01*
X-103214Y165827D01*
X-103382Y165848D01*
X-103413Y165859D01*
X-103446Y165864D01*
X-103604Y165923D01*
X-103763Y165976D01*
X-103792Y165993D01*
X-103823Y166005D01*
X-103967Y166093D01*
X-104112Y166177D01*
X-104140Y166201D01*
X-104165Y166217D01*
X-104229Y166276D01*
X-104365Y166392D01*
X-106301Y168328D01*
X-106373Y168366D01*
X-106380Y168372D01*
X-106388Y168376D01*
X-106535Y168500D01*
X-106683Y168623D01*
X-106689Y168630D01*
X-106696Y168636D01*
X-106816Y168786D01*
X-106937Y168935D01*
X-106941Y168943D01*
X-106947Y168950D01*
X-107035Y169122D01*
X-107124Y169292D01*
X-107127Y169300D01*
X-107131Y169309D01*
X-107184Y169495D01*
X-107237Y169678D01*
X-107238Y169687D01*
X-107241Y169696D01*
X-107256Y169889D01*
X-107272Y170079D01*
X-107271Y170088D01*
X-107272Y170097D01*
X-107249Y170288D01*
X-107227Y170479D01*
X-107224Y170488D01*
X-107223Y170497D01*
X-107163Y170679D01*
X-107104Y170863D01*
X-107099Y170871D01*
X-107097Y170879D01*
X-107001Y171046D01*
X-106908Y171214D01*
X-106902Y171221D01*
X-106897Y171229D01*
X-106772Y171373D01*
X-106646Y171520D01*
X-106639Y171526D01*
X-106633Y171533D01*
X-106480Y171650D01*
X-106329Y171768D01*
X-106321Y171772D01*
X-106314Y171778D01*
X-106288Y171791D01*
X-104413Y173666D01*
X-104283Y173773D01*
X-104156Y173884D01*
X-104127Y173900D01*
X-104101Y173921D01*
X-103953Y174000D01*
X-103807Y174084D01*
X-103775Y174094D01*
X-103746Y174110D01*
X-103584Y174158D01*
X-103425Y174211D01*
X-103392Y174215D01*
X-103360Y174225D01*
X-103192Y174240D01*
X-103025Y174261D01*
X-102992Y174258D01*
X-102959Y174261D01*
X-102791Y174243D01*
X-102624Y174230D01*
X-102592Y174221D01*
X-102559Y174218D01*
X-102398Y174167D01*
X-102236Y174121D01*
X-102206Y174106D01*
X-102175Y174096D01*
X-102027Y174015D01*
X-101878Y173938D01*
X-101852Y173918D01*
X-101822Y173901D01*
X-101694Y173792D01*
X-101562Y173688D01*
X-101541Y173662D01*
X-101515Y173641D01*
X-101411Y173509D01*
X-101302Y173380D01*
X-101286Y173351D01*
X-101266Y173325D01*
X-101190Y173175D01*
X-101108Y173028D01*
X-101098Y172996D01*
X-101083Y172966D01*
X-101038Y172804D01*
X-100999Y172679D01*
X-91399Y172679D01*
X-91399Y195113D01*
X-100999Y195113D01*
X-100999Y195112D01*
X-101004Y195079D01*
X-101060Y194920D01*
X-101110Y194760D01*
X-101126Y194731D01*
X-101138Y194700D01*
X-101224Y194555D01*
X-101305Y194408D01*
X-101327Y194382D01*
X-101344Y194354D01*
X-101457Y194229D01*
X-101566Y194101D01*
X-101592Y194080D01*
X-101614Y194055D01*
X-101750Y193955D01*
X-101882Y193851D01*
X-101911Y193836D01*
X-101938Y193816D01*
X-102091Y193745D01*
X-102241Y193669D01*
X-102273Y193660D01*
X-102303Y193646D01*
X-102466Y193606D01*
X-102628Y193561D01*
X-102662Y193558D01*
X-102694Y193551D01*
X-102862Y193544D01*
X-103030Y193531D01*
X-103063Y193536D01*
X-103096Y193534D01*
X-103262Y193561D01*
X-103429Y193582D01*
X-103461Y193593D01*
X-103494Y193598D01*
X-103651Y193656D01*
X-103811Y193710D01*
X-103840Y193727D01*
X-103871Y193738D01*
X-104014Y193827D01*
X-104160Y193911D01*
X-104188Y193935D01*
X-104213Y193951D01*
X-104276Y194010D01*
X-104413Y194126D01*
X-106301Y196014D01*
X-106373Y196052D01*
X-106380Y196058D01*
X-106388Y196062D01*
X-106535Y196186D01*
X-106683Y196309D01*
X-106689Y196316D01*
X-106696Y196322D01*
X-106816Y196472D01*
X-106937Y196621D01*
X-106941Y196629D01*
X-106947Y196636D01*
X-107035Y196808D01*
X-107124Y196978D01*
X-107127Y196986D01*
X-107131Y196995D01*
X-107183Y197179D01*
X-107237Y197364D01*
X-107238Y197373D01*
X-107241Y197382D01*
X-107256Y197575D01*
X-107272Y197765D01*
X-107271Y197774D01*
X-107272Y197783D01*
X-107249Y197974D01*
X-107227Y198165D01*
X-107224Y198174D01*
X-107223Y198183D01*
X-107163Y198365D01*
X-107104Y198549D01*
X-107099Y198557D01*
X-107097Y198565D01*
X-107002Y198731D01*
X-106908Y198900D01*
X-106902Y198907D01*
X-106897Y198915D01*
X-106771Y199060D01*
X-106646Y199206D01*
X-106639Y199212D01*
X-106633Y199219D01*
X-106480Y199336D01*
X-106329Y199454D01*
X-106321Y199458D01*
X-106314Y199464D01*
X-106288Y199477D01*
X-104365Y201400D01*
X-104235Y201507D01*
X-104108Y201617D01*
X-104079Y201634D01*
X-104054Y201655D01*
X-103905Y201734D01*
X-103759Y201818D01*
X-103727Y201828D01*
X-103698Y201844D01*
X-103537Y201892D01*
X-103377Y201945D01*
X-103344Y201949D01*
X-103312Y201959D01*
X-103144Y201974D01*
X-102977Y201994D01*
X-102944Y201992D01*
X-102911Y201995D01*
X-102743Y201977D01*
X-102576Y201964D01*
X-102544Y201955D01*
X-102511Y201952D01*
X-102350Y201901D01*
X-102188Y201855D01*
X-102159Y201840D01*
X-102127Y201830D01*
X-101979Y201748D01*
X-101830Y201672D01*
X-101804Y201651D01*
X-101775Y201635D01*
X-101646Y201526D01*
X-101514Y201422D01*
X-101493Y201396D01*
X-101468Y201375D01*
X-101363Y201243D01*
X-101255Y201114D01*
X-101239Y201085D01*
X-101218Y201059D01*
X-101142Y200909D01*
X-101061Y200761D01*
X-101051Y200730D01*
X-101036Y200700D01*
X-100990Y200537D01*
X-100940Y200377D01*
X-100937Y200344D01*
X-100928Y200312D01*
X-100915Y200144D01*
X-100912Y200111D01*
X-91399Y200111D01*
X-91399Y222799D01*
X-100999Y222799D01*
X-100999Y222798D01*
X-101004Y222765D01*
X-101059Y222607D01*
X-101110Y222446D01*
X-101127Y222417D01*
X-101138Y222386D01*
X-101224Y222241D01*
X-101305Y222094D01*
X-101327Y222069D01*
X-101344Y222040D01*
X-101457Y221915D01*
X-101566Y221787D01*
X-101592Y221766D01*
X-101614Y221741D01*
X-101750Y221641D01*
X-101882Y221537D01*
X-101911Y221522D01*
X-101938Y221502D01*
X-102091Y221431D01*
X-102241Y221355D01*
X-102273Y221346D01*
X-102303Y221332D01*
X-102466Y221292D01*
X-102628Y221247D01*
X-102662Y221244D01*
X-102694Y221237D01*
X-102862Y221230D01*
X-103030Y221217D01*
X-103063Y221222D01*
X-103096Y221220D01*
X-103262Y221247D01*
X-103429Y221268D01*
X-103461Y221279D01*
X-103494Y221284D01*
X-103651Y221342D01*
X-103811Y221396D01*
X-103840Y221413D01*
X-103871Y221424D01*
X-104014Y221513D01*
X-104160Y221597D01*
X-104188Y221621D01*
X-104213Y221637D01*
X-104276Y221696D01*
X-104413Y221812D01*
X-106463Y223862D01*
X-106474Y223875D01*
X-106488Y223887D01*
X-106602Y224032D01*
X-106718Y224173D01*
X-106726Y224189D01*
X-106737Y224203D01*
X-106821Y224368D01*
X-106907Y224529D01*
X-106912Y224546D01*
X-106920Y224562D01*
X-106969Y224740D01*
X-107021Y224915D01*
X-107023Y224933D01*
X-107028Y224950D01*
X-107041Y225133D01*
X-107058Y225316D01*
X-107056Y225334D01*
X-107057Y225351D01*
X-107034Y225533D01*
X-107014Y225716D01*
X-107009Y225733D01*
X-107007Y225751D01*
X-106948Y225924D01*
X-106893Y226100D01*
X-106884Y226115D01*
X-106879Y226132D01*
X-106787Y226292D01*
X-106698Y226452D01*
X-106686Y226466D01*
X-106678Y226481D01*
X-106463Y226734D01*
X-104413Y228784D01*
X-104283Y228891D01*
X-104156Y229002D01*
X-104127Y229018D01*
X-104101Y229039D01*
X-103953Y229118D01*
X-103807Y229202D01*
X-103775Y229212D01*
X-103746Y229228D01*
X-103584Y229276D01*
X-103425Y229329D01*
X-103392Y229333D01*
X-103360Y229343D01*
X-103192Y229358D01*
X-103025Y229379D01*
X-102992Y229376D01*
X-102959Y229379D01*
X-102791Y229361D01*
X-102624Y229348D01*
X-102592Y229339D01*
X-102559Y229336D01*
X-102398Y229285D01*
X-102236Y229239D01*
X-102206Y229224D01*
X-102175Y229214D01*
X-102027Y229133D01*
X-101878Y229056D01*
X-101852Y229036D01*
X-101822Y229019D01*
X-101694Y228911D01*
X-101562Y228806D01*
X-101541Y228780D01*
X-101515Y228759D01*
X-101411Y228627D01*
X-101303Y228498D01*
X-101286Y228469D01*
X-101266Y228443D01*
X-101190Y228293D01*
X-101109Y228146D01*
X-101099Y228114D01*
X-101083Y228084D01*
X-101038Y227922D01*
X-100999Y227797D01*
X-91399Y227797D01*
X-91399Y250485D01*
X-100908Y250485D01*
X-100923Y250382D01*
X-100941Y250214D01*
X-100951Y250182D01*
X-100956Y250149D01*
X-101012Y249991D01*
X-101063Y249830D01*
X-101079Y249801D01*
X-101090Y249770D01*
X-101176Y249625D01*
X-101257Y249478D01*
X-101279Y249453D01*
X-101296Y249424D01*
X-101409Y249299D01*
X-101518Y249171D01*
X-101544Y249150D01*
X-101566Y249126D01*
X-101702Y249026D01*
X-101834Y248921D01*
X-101863Y248906D01*
X-101890Y248887D01*
X-102043Y248815D01*
X-102193Y248739D01*
X-102225Y248730D01*
X-102255Y248716D01*
X-102419Y248676D01*
X-102581Y248631D01*
X-102614Y248629D01*
X-102646Y248621D01*
X-102814Y248614D01*
X-102982Y248602D01*
X-103015Y248606D01*
X-103048Y248605D01*
X-103214Y248631D01*
X-103382Y248652D01*
X-103413Y248663D01*
X-103446Y248668D01*
X-103604Y248727D01*
X-103763Y248780D01*
X-103792Y248797D01*
X-103823Y248809D01*
X-103967Y248897D01*
X-104112Y248981D01*
X-104140Y249005D01*
X-104165Y249021D01*
X-104229Y249080D01*
X-104365Y249196D01*
X-106301Y251132D01*
X-106373Y251170D01*
X-106380Y251176D01*
X-106388Y251180D01*
X-106535Y251304D01*
X-106683Y251427D01*
X-106689Y251434D01*
X-106696Y251440D01*
X-106816Y251590D01*
X-106937Y251739D01*
X-106941Y251747D01*
X-106947Y251754D01*
X-107035Y251926D01*
X-107124Y252096D01*
X-107127Y252104D01*
X-107131Y252113D01*
X-107184Y252299D01*
X-107237Y252482D01*
X-107238Y252491D01*
X-107241Y252500D01*
X-107256Y252693D01*
X-107272Y252883D01*
X-107271Y252892D01*
X-107272Y252901D01*
X-107249Y253092D01*
X-107227Y253283D01*
X-107224Y253292D01*
X-107223Y253301D01*
X-107163Y253483D01*
X-107104Y253667D01*
X-107099Y253675D01*
X-107097Y253683D01*
X-107001Y253850D01*
X-106908Y254018D01*
X-106902Y254025D01*
X-106897Y254033D01*
X-106772Y254177D01*
X-106646Y254324D01*
X-106639Y254330D01*
X-106633Y254337D01*
X-106480Y254454D01*
X-106329Y254572D01*
X-106321Y254576D01*
X-106314Y254582D01*
X-106288Y254595D01*
X-104413Y256470D01*
X-104283Y256577D01*
X-104156Y256688D01*
X-104127Y256704D01*
X-104101Y256725D01*
X-103953Y256804D01*
X-103807Y256888D01*
X-103775Y256898D01*
X-103746Y256914D01*
X-103584Y256962D01*
X-103425Y257015D01*
X-103392Y257019D01*
X-103360Y257029D01*
X-103192Y257044D01*
X-103025Y257065D01*
X-102992Y257062D01*
X-102959Y257065D01*
X-102791Y257047D01*
X-102624Y257034D01*
X-102592Y257025D01*
X-102559Y257022D01*
X-102398Y256971D01*
X-102236Y256925D01*
X-102206Y256910D01*
X-102175Y256900D01*
X-102027Y256819D01*
X-101878Y256742D01*
X-101852Y256722D01*
X-101822Y256705D01*
X-101694Y256597D01*
X-101562Y256492D01*
X-101541Y256466D01*
X-101515Y256445D01*
X-101411Y256313D01*
X-101303Y256184D01*
X-101286Y256155D01*
X-101266Y256129D01*
X-101190Y255979D01*
X-101109Y255832D01*
X-101099Y255800D01*
X-101083Y255770D01*
X-101038Y255608D01*
X-100999Y255483D01*
X-91399Y255483D01*
X-91399Y277917D01*
X-100999Y277917D01*
X-100999Y277916D01*
X-101004Y277883D01*
X-101059Y277725D01*
X-101110Y277564D01*
X-101126Y277535D01*
X-101138Y277504D01*
X-101224Y277359D01*
X-101305Y277212D01*
X-101327Y277186D01*
X-101344Y277158D01*
X-101457Y277033D01*
X-101566Y276905D01*
X-101592Y276884D01*
X-101614Y276860D01*
X-101750Y276760D01*
X-101882Y276655D01*
X-101911Y276640D01*
X-101938Y276620D01*
X-102091Y276549D01*
X-102240Y276473D01*
X-102273Y276464D01*
X-102303Y276450D01*
X-102466Y276410D01*
X-102628Y276365D01*
X-102662Y276362D01*
X-102694Y276355D01*
X-102862Y276348D01*
X-103030Y276335D01*
X-103063Y276340D01*
X-103096Y276338D01*
X-103262Y276365D01*
X-103429Y276386D01*
X-103461Y276396D01*
X-103494Y276402D01*
X-103652Y276461D01*
X-103811Y276514D01*
X-103840Y276531D01*
X-103871Y276542D01*
X-104014Y276631D01*
X-104160Y276715D01*
X-104188Y276739D01*
X-104213Y276755D01*
X-104276Y276814D01*
X-104413Y276930D01*
X-106242Y278759D01*
X-106702Y278949D01*
X-106702Y278950D01*
X-108719Y279785D01*
X-108834Y279847D01*
X-108954Y279900D01*
X-109011Y279942D01*
X-109074Y279975D01*
X-109175Y280059D01*
X-109281Y280135D01*
X-109330Y280186D01*
X-109384Y280232D01*
X-109467Y280333D01*
X-109556Y280429D01*
X-109593Y280489D01*
X-109638Y280544D01*
X-109699Y280660D01*
X-109768Y280771D01*
X-109792Y280838D01*
X-109825Y280901D01*
X-109862Y281026D01*
X-109907Y281149D01*
X-109918Y281219D01*
X-109938Y281287D01*
X-109950Y281417D01*
X-109970Y281547D01*
X-109967Y281618D01*
X-109973Y281688D01*
X-109958Y281818D01*
X-109953Y281949D01*
X-109936Y282018D01*
X-109928Y282088D01*
X-109888Y282213D01*
X-109857Y282340D01*
X-109826Y282404D01*
X-109805Y282472D01*
X-109741Y282586D01*
X-109685Y282704D01*
X-109643Y282761D01*
X-109608Y282823D01*
X-109523Y282922D01*
X-109445Y283028D01*
X-109393Y283075D01*
X-109346Y283129D01*
X-109243Y283210D01*
X-109146Y283297D01*
X-109076Y283340D01*
X-109029Y283377D01*
X-108961Y283411D01*
X-108864Y283472D01*
X-107910Y283958D01*
X-106357Y285086D01*
X-105000Y286443D01*
X-103872Y287996D01*
X-103001Y289706D01*
X-102408Y291531D01*
X-102351Y291887D01*
X-113832Y291887D01*
X-113850Y291888D01*
X-113867Y291887D01*
X-114050Y291908D01*
X-114232Y291927D01*
X-114249Y291932D01*
X-114267Y291934D01*
X-114308Y291947D01*
X-114402Y291920D01*
X-114420Y291918D01*
X-114437Y291914D01*
X-114768Y291887D01*
X-126249Y291887D01*
X-126192Y291531D01*
X-125599Y289706D01*
X-124728Y287996D01*
X-123600Y286443D01*
X-122243Y285086D01*
X-120690Y283958D01*
X-119736Y283472D01*
X-119626Y283401D01*
X-119511Y283338D01*
X-119457Y283293D01*
X-119397Y283254D01*
X-119303Y283163D01*
X-119203Y283079D01*
X-119159Y283023D01*
X-119108Y282974D01*
X-119034Y282866D01*
X-118952Y282764D01*
X-118920Y282701D01*
X-118879Y282643D01*
X-118828Y282522D01*
X-118768Y282406D01*
X-118749Y282338D01*
X-118721Y282273D01*
X-118694Y282144D01*
X-118659Y282019D01*
X-118653Y281948D01*
X-118639Y281878D01*
X-118638Y281747D01*
X-118627Y281617D01*
X-118636Y281547D01*
X-118635Y281476D01*
X-118660Y281347D01*
X-118676Y281218D01*
X-118698Y281150D01*
X-118712Y281081D01*
X-118761Y280960D01*
X-118803Y280835D01*
X-118838Y280774D01*
X-118865Y280708D01*
X-118937Y280599D01*
X-119002Y280486D01*
X-119049Y280432D01*
X-119088Y280373D01*
X-119180Y280281D01*
X-119267Y280182D01*
X-119323Y280139D01*
X-119373Y280089D01*
X-119482Y280016D01*
X-119586Y279937D01*
X-119659Y279899D01*
X-119709Y279866D01*
X-119779Y279837D01*
X-119881Y279785D01*
X-122358Y278759D01*
X-126359Y274758D01*
X-128525Y269530D01*
X-128525Y263703D01*
X-128515Y263571D01*
X-128498Y263393D01*
X-128500Y263371D01*
X-128499Y263349D01*
X-128521Y263170D01*
X-128540Y262993D01*
X-128546Y262972D01*
X-128549Y262949D01*
X-128606Y262780D01*
X-128660Y262608D01*
X-128670Y262589D01*
X-128677Y262568D01*
X-128767Y262413D01*
X-128853Y262255D01*
X-128867Y262238D01*
X-128878Y262219D01*
X-129093Y261966D01*
X-244790Y146269D01*
X-245873Y143655D01*
X-245873Y69828D01*
X-245875Y69801D01*
X-245873Y69774D01*
X-245895Y69600D01*
X-245913Y69427D01*
X-245920Y69401D01*
X-245924Y69375D01*
X-245979Y69209D01*
X-246031Y69042D01*
X-246044Y69018D01*
X-246052Y68993D01*
X-246139Y68841D01*
X-246223Y68688D01*
X-246240Y68668D01*
X-246253Y68644D01*
X-246468Y68391D01*
X-274666Y40193D01*
X-274683Y40179D01*
X-274698Y40161D01*
X-274839Y40051D01*
X-274977Y39938D01*
X-274997Y39927D01*
X-275015Y39913D01*
X-275176Y39833D01*
X-275333Y39749D01*
X-275355Y39743D01*
X-275375Y39733D01*
X-275548Y39685D01*
X-275719Y39635D01*
X-275742Y39632D01*
X-275764Y39627D01*
X-275942Y39614D01*
X-276120Y39598D01*
X-276143Y39601D01*
X-276165Y39599D01*
X-276342Y39622D01*
X-276365Y39625D01*
X-282230Y39625D01*
X-287458Y37459D01*
X-290664Y34253D01*
X-290678Y34242D01*
X-290689Y34228D01*
X-290833Y34115D01*
X-290975Y33998D01*
X-290991Y33990D01*
X-291005Y33979D01*
X-291169Y33895D01*
X-291331Y33809D01*
X-291348Y33804D01*
X-291364Y33796D01*
X-291541Y33747D01*
X-291717Y33695D01*
X-291735Y33693D01*
X-291752Y33688D01*
X-291935Y33675D01*
X-292118Y33658D01*
X-292136Y33660D01*
X-292153Y33659D01*
X-292335Y33682D01*
X-292518Y33702D01*
X-292535Y33707D01*
X-292553Y33709D01*
X-292727Y33768D01*
X-292902Y33823D01*
X-292918Y33832D01*
X-292934Y33838D01*
X-293094Y33929D01*
X-293254Y34018D01*
X-293268Y34029D01*
X-293283Y34038D01*
X-293536Y34253D01*
X-296860Y37577D01*
X-296960Y37664D01*
X-297098Y37778D01*
X-297113Y37795D01*
X-297130Y37810D01*
X-297239Y37951D01*
X-297352Y38090D01*
X-297363Y38110D01*
X-297376Y38128D01*
X-297456Y38288D01*
X-297539Y38447D01*
X-297546Y38468D01*
X-297556Y38488D01*
X-297602Y38661D01*
X-297652Y38833D01*
X-297654Y38855D01*
X-297660Y38877D01*
X-297687Y39208D01*
X-297687Y66446D01*
X-297685Y66464D01*
X-297687Y66482D01*
X-297666Y66664D01*
X-297647Y66847D01*
X-297642Y66864D01*
X-297640Y66881D01*
X-297583Y67056D01*
X-297529Y67232D01*
X-297521Y67247D01*
X-297515Y67264D01*
X-297425Y67424D01*
X-297337Y67586D01*
X-297326Y67599D01*
X-297317Y67615D01*
X-297197Y67754D01*
X-297080Y67895D01*
X-297066Y67906D01*
X-297054Y67920D01*
X-296909Y68032D01*
X-296766Y68147D01*
X-296750Y68155D01*
X-296736Y68166D01*
X-296571Y68248D01*
X-296409Y68333D01*
X-296392Y68338D01*
X-296376Y68346D01*
X-296197Y68393D01*
X-296022Y68444D01*
X-296004Y68446D01*
X-295987Y68450D01*
X-295656Y68477D01*
X-294381Y68477D01*
X-289208Y70620D01*
X-285250Y74578D01*
X-283107Y79751D01*
X-283107Y85349D01*
X-285250Y90522D01*
X-289208Y94480D01*
X-294381Y96623D01*
X-299979Y96623D01*
X-305152Y94480D01*
X-309110Y90522D01*
X-311253Y85349D01*
X-311253Y79751D01*
X-311199Y79622D01*
X-311192Y79596D01*
X-311180Y79572D01*
X-311133Y79404D01*
X-311083Y79237D01*
X-311080Y79210D01*
X-311073Y79184D01*
X-311061Y79010D01*
X-311045Y78836D01*
X-311047Y78809D01*
X-311046Y78782D01*
X-311068Y78609D01*
X-311086Y78435D01*
X-311094Y78410D01*
X-311098Y78383D01*
X-311199Y78067D01*
X-311913Y76345D01*
X-311913Y39208D01*
X-311915Y39185D01*
X-311913Y39163D01*
X-311935Y38985D01*
X-311953Y38807D01*
X-311959Y38786D01*
X-311962Y38763D01*
X-312018Y38593D01*
X-312071Y38422D01*
X-312081Y38402D01*
X-312089Y38381D01*
X-312177Y38225D01*
X-312263Y38068D01*
X-312277Y38051D01*
X-312288Y38031D01*
X-312406Y37896D01*
X-312520Y37759D01*
X-312538Y37745D01*
X-312553Y37728D01*
X-312695Y37619D01*
X-312712Y37605D01*
X-316064Y34253D01*
X-316078Y34242D01*
X-316089Y34228D01*
X-316233Y34115D01*
X-316375Y33998D01*
X-316391Y33990D01*
X-316405Y33979D01*
X-316569Y33895D01*
X-316731Y33809D01*
X-316748Y33804D01*
X-316764Y33796D01*
X-316941Y33747D01*
X-317117Y33695D01*
X-317135Y33693D01*
X-317152Y33688D01*
X-317335Y33675D01*
X-317518Y33658D01*
X-317536Y33660D01*
X-317553Y33659D01*
X-317735Y33682D01*
X-317918Y33702D01*
X-317935Y33707D01*
X-317953Y33709D01*
X-318127Y33768D01*
X-318302Y33823D01*
X-318318Y33832D01*
X-318334Y33838D01*
X-318494Y33929D01*
X-318654Y34018D01*
X-318668Y34029D01*
X-318683Y34038D01*
X-318936Y34253D01*
X-322260Y37577D01*
X-322360Y37664D01*
X-322498Y37778D01*
X-322513Y37795D01*
X-322530Y37810D01*
X-322639Y37951D01*
X-322752Y38090D01*
X-322763Y38110D01*
X-322776Y38128D01*
X-322856Y38288D01*
X-322939Y38447D01*
X-322946Y38468D01*
X-322956Y38488D01*
X-323002Y38661D01*
X-323052Y38833D01*
X-323054Y38855D01*
X-323060Y38877D01*
X-323087Y39208D01*
X-323087Y84475D01*
X-323085Y84502D01*
X-323087Y84529D01*
X-323065Y84703D01*
X-323047Y84876D01*
X-323040Y84901D01*
X-323036Y84928D01*
X-322981Y85094D01*
X-322929Y85261D01*
X-322916Y85284D01*
X-322908Y85310D01*
X-322821Y85461D01*
X-322737Y85615D01*
X-322720Y85635D01*
X-322707Y85659D01*
X-322492Y85912D01*
X-302105Y106299D01*
X-302084Y106316D01*
X-302067Y106336D01*
X-301929Y106443D01*
X-301794Y106554D01*
X-301770Y106566D01*
X-301749Y106583D01*
X-301592Y106661D01*
X-301438Y106742D01*
X-301412Y106750D01*
X-301388Y106762D01*
X-301219Y106808D01*
X-301052Y106857D01*
X-301025Y106860D01*
X-301000Y106867D01*
X-300669Y106894D01*
X-294697Y106894D01*
X-289525Y109036D01*
X-285566Y112995D01*
X-283424Y118167D01*
X-283424Y123766D01*
X-285566Y128938D01*
X-289525Y132897D01*
X-294697Y135039D01*
X-300296Y135039D01*
X-305468Y132897D01*
X-309427Y128938D01*
X-311569Y123766D01*
X-311569Y117794D01*
X-311572Y117767D01*
X-311570Y117741D01*
X-311592Y117567D01*
X-311609Y117393D01*
X-311617Y117368D01*
X-311620Y117341D01*
X-311676Y117176D01*
X-311727Y117009D01*
X-311740Y116985D01*
X-311749Y116960D01*
X-311836Y116808D01*
X-311919Y116654D01*
X-311936Y116634D01*
X-311949Y116611D01*
X-312164Y116358D01*
X-336230Y92292D01*
X-337313Y89678D01*
X-337313Y39208D01*
X-337315Y39185D01*
X-337313Y39163D01*
X-337335Y38985D01*
X-337353Y38807D01*
X-337359Y38786D01*
X-337362Y38763D01*
X-337418Y38593D01*
X-337471Y38422D01*
X-337481Y38402D01*
X-337489Y38381D01*
X-337577Y38225D01*
X-337663Y38068D01*
X-337677Y38051D01*
X-337688Y38031D01*
X-337806Y37896D01*
X-337920Y37759D01*
X-337938Y37745D01*
X-337953Y37728D01*
X-338095Y37619D01*
X-338112Y37605D01*
X-342259Y33458D01*
X-344425Y28230D01*
X-344425Y22570D01*
X-342259Y17342D01*
X-338258Y13341D01*
X-333030Y11175D01*
X-327370Y11175D01*
X-322142Y13341D01*
X-318936Y16547D01*
X-318923Y16558D01*
X-318911Y16572D01*
X-318767Y16686D01*
X-318625Y16802D01*
X-318609Y16810D01*
X-318595Y16821D01*
X-318431Y16905D01*
X-318269Y16991D01*
X-318252Y16996D01*
X-318236Y17004D01*
X-318059Y17053D01*
X-317883Y17105D01*
X-317865Y17107D01*
X-317848Y17112D01*
X-317665Y17125D01*
X-317482Y17142D01*
X-317464Y17140D01*
X-317447Y17141D01*
X-317265Y17118D01*
X-317082Y17098D01*
X-317065Y17093D01*
X-317047Y17091D01*
X-316874Y17032D01*
X-316698Y16977D01*
X-316682Y16968D01*
X-316666Y16962D01*
X-316506Y16871D01*
X-316346Y16782D01*
X-316332Y16771D01*
X-316317Y16762D01*
X-316064Y16547D01*
X-312858Y13341D01*
X-307630Y11175D01*
X-301970Y11175D01*
X-296742Y13341D01*
X-293536Y16547D01*
X-293523Y16558D01*
X-293511Y16572D01*
X-293367Y16686D01*
X-293225Y16802D01*
X-293209Y16810D01*
X-293195Y16821D01*
X-293031Y16905D01*
X-292869Y16991D01*
X-292852Y16996D01*
X-292836Y17004D01*
X-292659Y17053D01*
X-292483Y17105D01*
X-292465Y17107D01*
X-292448Y17112D01*
X-292265Y17125D01*
X-292082Y17142D01*
X-292064Y17140D01*
X-292047Y17141D01*
X-291865Y17118D01*
X-291682Y17098D01*
X-291665Y17093D01*
X-291647Y17091D01*
X-291474Y17032D01*
X-291298Y16977D01*
X-291282Y16968D01*
X-291266Y16962D01*
X-291106Y16871D01*
X-290946Y16782D01*
X-290932Y16771D01*
X-290917Y16762D01*
X-290664Y16547D01*
X-287458Y13341D01*
X-282230Y11175D01*
X-276570Y11175D01*
X-271342Y13341D01*
X-268136Y16547D01*
X-268123Y16558D01*
X-268111Y16572D01*
X-267967Y16686D01*
X-267825Y16802D01*
X-267809Y16810D01*
X-267795Y16821D01*
X-267631Y16905D01*
X-267469Y16991D01*
X-267452Y16996D01*
X-267436Y17004D01*
X-267259Y17053D01*
X-267083Y17105D01*
X-267065Y17107D01*
X-267048Y17112D01*
X-266865Y17125D01*
X-266682Y17142D01*
X-266664Y17140D01*
X-266647Y17141D01*
X-266465Y17118D01*
X-266282Y17098D01*
X-266265Y17093D01*
X-266247Y17091D01*
X-266074Y17032D01*
X-265898Y16977D01*
X-265882Y16968D01*
X-265866Y16962D01*
X-265706Y16871D01*
X-265546Y16782D01*
X-265532Y16771D01*
X-265517Y16762D01*
X-265264Y16547D01*
X-262058Y13341D01*
X-256830Y11175D01*
X-251170Y11175D01*
X-250283Y11543D01*
X-250262Y11549D01*
X-250242Y11559D01*
X-250069Y11608D01*
X-249898Y11659D01*
X-249875Y11661D01*
X-249854Y11667D01*
X-249675Y11681D01*
X-249497Y11697D01*
X-249475Y11695D01*
X-249452Y11697D01*
X-249274Y11674D01*
X-249096Y11656D01*
X-249075Y11649D01*
X-249053Y11646D01*
X-248883Y11589D01*
X-248712Y11536D01*
X-248692Y11525D01*
X-248671Y11518D01*
X-248516Y11429D01*
X-248359Y11343D01*
X-248342Y11328D01*
X-248322Y11317D01*
X-248069Y11103D01*
X-245007Y8040D01*
X-245001Y8033D01*
X-244995Y8028D01*
X-244874Y7878D01*
X-244752Y7729D01*
X-244748Y7721D01*
X-244742Y7714D01*
X-244654Y7544D01*
X-244563Y7373D01*
X-244561Y7364D01*
X-244557Y7357D01*
X-244504Y7172D01*
X-244449Y6987D01*
X-244448Y6978D01*
X-244445Y6970D01*
X-244430Y6779D01*
X-244412Y6586D01*
X-244413Y6577D01*
X-244413Y6568D01*
X-244435Y6379D01*
X-244456Y6186D01*
X-244458Y6177D01*
X-244459Y6169D01*
X-244519Y5987D01*
X-244577Y5802D01*
X-244581Y5794D01*
X-244584Y5786D01*
X-244679Y5617D01*
X-244772Y5450D01*
X-244778Y5443D01*
X-244782Y5435D01*
X-244908Y5289D01*
X-245032Y5143D01*
X-245040Y5137D01*
X-245045Y5130D01*
X-245197Y5013D01*
X-245348Y4893D01*
X-245356Y4889D01*
X-245363Y4884D01*
X-245536Y4798D01*
X-245707Y4711D01*
X-245716Y4708D01*
X-245724Y4704D01*
X-245910Y4654D01*
X-246095Y4603D01*
X-246104Y4602D01*
X-246113Y4600D01*
X-246443Y4573D01*
X-832106Y4573D01*
X-832124Y4575D01*
X-832142Y4573D01*
X-832324Y4594D01*
X-832507Y4613D01*
X-832524Y4618D01*
X-832541Y4620D01*
X-832716Y4677D01*
X-832892Y4731D01*
X-832907Y4739D01*
X-832924Y4745D01*
X-833084Y4835D01*
X-833246Y4923D01*
X-833259Y4934D01*
X-833275Y4943D01*
X-833414Y5063D01*
X-833555Y5180D01*
X-833566Y5194D01*
X-833580Y5206D01*
X-833692Y5351D01*
X-833807Y5494D01*
X-833815Y5510D01*
X-833826Y5524D01*
X-833908Y5689D01*
X-833993Y5851D01*
X-833998Y5868D01*
X-834006Y5884D01*
X-834053Y6063D01*
X-834104Y6238D01*
X-834106Y6256D01*
X-834110Y6273D01*
X-834137Y6604D01*
X-834137Y641096D01*
X-834135Y641114D01*
X-834137Y641132D01*
X-834116Y641314D01*
X-834097Y641497D01*
X-834092Y641514D01*
X-834090Y641531D01*
X-834033Y641706D01*
X-833979Y641882D01*
X-833971Y641897D01*
X-833965Y641914D01*
X-833875Y642074D01*
X-833787Y642236D01*
X-833776Y642249D01*
X-833767Y642265D01*
X-833647Y642404D01*
X-833530Y642545D01*
X-833516Y642556D01*
X-833504Y642570D01*
X-833359Y642682D01*
X-833216Y642797D01*
X-833200Y642805D01*
X-833186Y642816D01*
X-833021Y642898D01*
X-832859Y642983D01*
X-832842Y642988D01*
X-832826Y642996D01*
X-832647Y643043D01*
X-832472Y643094D01*
X-832454Y643096D01*
X-832437Y643100D01*
X-832106Y643127D01*
X-6604Y643127D01*
X-6586Y643125D01*
X-6568Y643127D01*
X-6386Y643106D01*
X-6203Y643087D01*
X-6186Y643082D01*
X-6169Y643080D01*
X-5994Y643023D01*
X-5818Y642969D01*
X-5803Y642961D01*
X-5786Y642955D01*
X-5626Y642865D01*
X-5464Y642777D01*
X-5451Y642766D01*
X-5435Y642757D01*
X-5296Y642637D01*
X-5155Y642520D01*
X-5144Y642506D01*
X-5130Y642494D01*
X-5018Y642349D01*
X-4903Y642206D01*
X-4895Y642190D01*
X-4884Y642176D01*
X-4802Y642011D01*
X-4717Y641849D01*
X-4712Y641832D01*
X-4704Y641816D01*
X-4657Y641637D01*
X-4606Y641462D01*
X-4604Y641444D01*
X-4600Y641427D01*
X-4573Y641096D01*
X-4573Y6604D01*
X-4575Y6586D01*
X-4573Y6568D01*
X-4594Y6386D01*
X-4613Y6203D01*
X-4618Y6186D01*
X-4620Y6169D01*
X-4677Y5994D01*
X-4731Y5818D01*
X-4739Y5803D01*
X-4745Y5786D01*
X-4835Y5626D01*
X-4923Y5464D01*
X-4934Y5451D01*
X-4943Y5435D01*
X-5063Y5296D01*
X-5180Y5155D01*
X-5194Y5144D01*
X-5206Y5130D01*
X-5351Y5018D01*
X-5494Y4903D01*
X-5510Y4895D01*
X-5524Y4884D01*
X-5689Y4802D01*
X-5851Y4717D01*
X-5868Y4712D01*
X-5884Y4704D01*
X-6063Y4657D01*
X-6238Y4606D01*
X-6256Y4604D01*
X-6273Y4600D01*
X-6604Y4573D01*
X-84881Y4573D01*
X-84916Y4576D01*
G37*
G36*
X-594495Y439423D02*
X-594495Y439423D01*
X-594522Y439421D01*
X-594696Y439443D01*
X-594869Y439461D01*
X-594894Y439468D01*
X-594921Y439472D01*
X-595087Y439527D01*
X-595254Y439579D01*
X-595277Y439592D01*
X-595303Y439600D01*
X-595454Y439687D01*
X-595608Y439771D01*
X-595628Y439788D01*
X-595652Y439801D01*
X-595905Y440016D01*
X-646855Y490966D01*
X-646863Y490976D01*
X-646873Y490985D01*
X-646991Y491132D01*
X-647110Y491277D01*
X-647116Y491289D01*
X-647124Y491299D01*
X-647209Y491465D01*
X-647298Y491633D01*
X-647302Y491646D01*
X-647308Y491658D01*
X-647359Y491838D01*
X-647413Y492019D01*
X-647414Y492032D01*
X-647418Y492045D01*
X-647432Y492231D01*
X-647449Y492420D01*
X-647448Y492433D01*
X-647449Y492446D01*
X-647427Y492631D01*
X-647406Y492820D01*
X-647402Y492833D01*
X-647400Y492846D01*
X-647342Y493023D01*
X-647285Y493204D01*
X-647278Y493216D01*
X-647274Y493228D01*
X-647181Y493391D01*
X-647090Y493556D01*
X-647081Y493566D01*
X-647074Y493578D01*
X-646951Y493720D01*
X-646829Y493863D01*
X-646819Y493871D01*
X-646810Y493882D01*
X-646661Y493996D01*
X-646513Y494113D01*
X-646501Y494119D01*
X-646491Y494127D01*
X-646196Y494279D01*
X-642182Y495941D01*
X-638976Y499147D01*
X-638962Y499158D01*
X-638951Y499172D01*
X-638807Y499285D01*
X-638665Y499402D01*
X-638649Y499410D01*
X-638635Y499421D01*
X-638471Y499505D01*
X-638309Y499591D01*
X-638292Y499596D01*
X-638276Y499604D01*
X-638099Y499653D01*
X-637923Y499705D01*
X-637905Y499707D01*
X-637888Y499712D01*
X-637705Y499725D01*
X-637522Y499742D01*
X-637504Y499740D01*
X-637487Y499741D01*
X-637305Y499718D01*
X-637122Y499698D01*
X-637105Y499693D01*
X-637087Y499691D01*
X-636913Y499632D01*
X-636738Y499577D01*
X-636722Y499568D01*
X-636706Y499562D01*
X-636546Y499471D01*
X-636386Y499382D01*
X-636372Y499371D01*
X-636357Y499362D01*
X-636104Y499147D01*
X-632898Y495941D01*
X-627670Y493775D01*
X-622010Y493775D01*
X-616782Y495941D01*
X-613576Y499147D01*
X-613563Y499158D01*
X-613551Y499172D01*
X-613407Y499286D01*
X-613265Y499402D01*
X-613249Y499410D01*
X-613235Y499421D01*
X-613071Y499505D01*
X-612909Y499591D01*
X-612892Y499596D01*
X-612876Y499604D01*
X-612699Y499653D01*
X-612523Y499705D01*
X-612505Y499707D01*
X-612488Y499712D01*
X-612305Y499725D01*
X-612122Y499742D01*
X-612104Y499740D01*
X-612087Y499741D01*
X-611905Y499718D01*
X-611722Y499698D01*
X-611705Y499693D01*
X-611687Y499691D01*
X-611514Y499632D01*
X-611338Y499577D01*
X-611322Y499568D01*
X-611306Y499562D01*
X-611146Y499471D01*
X-610986Y499382D01*
X-610972Y499371D01*
X-610957Y499362D01*
X-610704Y499147D01*
X-607498Y495941D01*
X-602270Y493775D01*
X-596610Y493775D01*
X-591382Y495941D01*
X-587381Y499942D01*
X-587271Y500207D01*
X-587190Y500359D01*
X-587113Y500513D01*
X-587095Y500536D01*
X-587081Y500561D01*
X-586971Y500694D01*
X-586865Y500831D01*
X-586843Y500850D01*
X-586825Y500872D01*
X-586691Y500981D01*
X-586560Y501093D01*
X-586535Y501107D01*
X-586512Y501126D01*
X-586359Y501206D01*
X-586209Y501290D01*
X-586181Y501299D01*
X-586156Y501313D01*
X-585990Y501361D01*
X-585826Y501414D01*
X-585797Y501418D01*
X-585769Y501426D01*
X-585597Y501440D01*
X-585426Y501460D01*
X-585397Y501458D01*
X-585368Y501460D01*
X-585197Y501441D01*
X-585024Y501426D01*
X-584997Y501418D01*
X-584968Y501415D01*
X-584804Y501362D01*
X-584638Y501314D01*
X-584612Y501301D01*
X-584585Y501292D01*
X-584434Y501208D01*
X-584281Y501128D01*
X-584258Y501110D01*
X-584233Y501096D01*
X-584102Y500983D01*
X-583968Y500875D01*
X-583947Y500850D01*
X-583927Y500834D01*
X-583875Y500767D01*
X-583751Y500623D01*
X-583340Y500057D01*
X-581983Y498700D01*
X-580430Y497572D01*
X-578720Y496701D01*
X-576895Y496108D01*
X-576539Y496051D01*
X-576539Y507532D01*
X-576537Y507550D01*
X-576539Y507567D01*
X-576518Y507750D01*
X-576499Y507932D01*
X-576494Y507949D01*
X-576492Y507967D01*
X-576435Y508142D01*
X-576381Y508317D01*
X-576373Y508333D01*
X-576367Y508350D01*
X-576277Y508510D01*
X-576189Y508671D01*
X-576178Y508685D01*
X-576169Y508701D01*
X-576049Y508840D01*
X-575932Y508981D01*
X-575918Y508992D01*
X-575906Y509005D01*
X-575761Y509118D01*
X-575618Y509233D01*
X-575602Y509241D01*
X-575588Y509252D01*
X-575423Y509334D01*
X-575261Y509418D01*
X-575244Y509423D01*
X-575228Y509431D01*
X-575049Y509479D01*
X-574874Y509530D01*
X-574856Y509531D01*
X-574839Y509536D01*
X-574508Y509563D01*
X-573572Y509563D01*
X-573554Y509561D01*
X-573536Y509563D01*
X-573354Y509541D01*
X-573171Y509523D01*
X-573154Y509518D01*
X-573137Y509516D01*
X-572962Y509459D01*
X-572786Y509405D01*
X-572771Y509397D01*
X-572754Y509391D01*
X-572594Y509301D01*
X-572432Y509213D01*
X-572419Y509202D01*
X-572403Y509193D01*
X-572264Y509073D01*
X-572123Y508955D01*
X-572112Y508942D01*
X-572098Y508930D01*
X-571986Y508785D01*
X-571871Y508642D01*
X-571863Y508626D01*
X-571852Y508612D01*
X-571770Y508447D01*
X-571685Y508284D01*
X-571680Y508267D01*
X-571672Y508251D01*
X-571624Y508073D01*
X-571574Y507898D01*
X-571572Y507880D01*
X-571568Y507863D01*
X-571541Y507532D01*
X-571541Y496051D01*
X-571185Y496108D01*
X-569360Y496701D01*
X-567650Y497572D01*
X-566097Y498700D01*
X-564740Y500057D01*
X-564329Y500623D01*
X-564214Y500752D01*
X-564103Y500884D01*
X-564080Y500902D01*
X-564061Y500924D01*
X-563923Y501028D01*
X-563788Y501135D01*
X-563762Y501148D01*
X-563739Y501166D01*
X-563584Y501240D01*
X-563430Y501319D01*
X-563402Y501327D01*
X-563376Y501339D01*
X-563209Y501382D01*
X-563042Y501429D01*
X-563013Y501431D01*
X-562985Y501438D01*
X-562813Y501447D01*
X-562641Y501460D01*
X-562612Y501457D01*
X-562583Y501458D01*
X-562412Y501432D01*
X-562241Y501411D01*
X-562214Y501402D01*
X-562185Y501398D01*
X-562023Y501339D01*
X-561859Y501285D01*
X-561834Y501270D01*
X-561807Y501261D01*
X-561659Y501171D01*
X-561509Y501085D01*
X-561487Y501066D01*
X-561463Y501051D01*
X-561336Y500934D01*
X-561206Y500821D01*
X-561188Y500798D01*
X-561167Y500778D01*
X-561065Y500639D01*
X-560960Y500502D01*
X-560945Y500473D01*
X-560931Y500452D01*
X-560895Y500375D01*
X-560809Y500207D01*
X-560699Y499942D01*
X-556698Y495941D01*
X-551470Y493775D01*
X-545810Y493775D01*
X-540582Y495941D01*
X-537376Y499147D01*
X-537362Y499158D01*
X-537351Y499172D01*
X-537207Y499285D01*
X-537065Y499402D01*
X-537049Y499410D01*
X-537035Y499421D01*
X-536871Y499505D01*
X-536709Y499591D01*
X-536692Y499596D01*
X-536676Y499604D01*
X-536499Y499653D01*
X-536323Y499705D01*
X-536305Y499707D01*
X-536288Y499712D01*
X-536105Y499725D01*
X-535922Y499742D01*
X-535904Y499740D01*
X-535887Y499741D01*
X-535705Y499718D01*
X-535522Y499698D01*
X-535505Y499693D01*
X-535487Y499691D01*
X-535313Y499632D01*
X-535138Y499577D01*
X-535122Y499568D01*
X-535106Y499562D01*
X-534946Y499471D01*
X-534786Y499382D01*
X-534772Y499371D01*
X-534757Y499362D01*
X-534504Y499147D01*
X-531298Y495941D01*
X-526070Y493775D01*
X-520410Y493775D01*
X-515182Y495941D01*
X-511976Y499147D01*
X-511962Y499158D01*
X-511951Y499172D01*
X-511807Y499285D01*
X-511665Y499402D01*
X-511649Y499410D01*
X-511635Y499421D01*
X-511471Y499505D01*
X-511309Y499591D01*
X-511292Y499596D01*
X-511276Y499604D01*
X-511099Y499653D01*
X-510923Y499705D01*
X-510905Y499707D01*
X-510888Y499712D01*
X-510705Y499725D01*
X-510522Y499742D01*
X-510504Y499740D01*
X-510487Y499741D01*
X-510305Y499718D01*
X-510122Y499698D01*
X-510105Y499693D01*
X-510087Y499691D01*
X-509913Y499632D01*
X-509738Y499577D01*
X-509722Y499568D01*
X-509706Y499562D01*
X-509546Y499471D01*
X-509386Y499382D01*
X-509372Y499371D01*
X-509357Y499362D01*
X-509104Y499147D01*
X-505898Y495941D01*
X-500670Y493775D01*
X-495010Y493775D01*
X-489782Y495941D01*
X-486576Y499147D01*
X-486562Y499158D01*
X-486551Y499172D01*
X-486407Y499285D01*
X-486265Y499402D01*
X-486249Y499410D01*
X-486235Y499421D01*
X-486071Y499505D01*
X-485909Y499591D01*
X-485892Y499596D01*
X-485876Y499604D01*
X-485699Y499653D01*
X-485523Y499705D01*
X-485505Y499707D01*
X-485488Y499712D01*
X-485305Y499725D01*
X-485122Y499742D01*
X-485104Y499740D01*
X-485087Y499741D01*
X-484905Y499718D01*
X-484722Y499698D01*
X-484705Y499693D01*
X-484687Y499691D01*
X-484513Y499632D01*
X-484338Y499577D01*
X-484322Y499568D01*
X-484306Y499562D01*
X-484146Y499471D01*
X-483986Y499382D01*
X-483972Y499371D01*
X-483957Y499362D01*
X-483704Y499147D01*
X-480498Y495941D01*
X-475270Y493775D01*
X-469610Y493775D01*
X-464382Y495941D01*
X-461176Y499147D01*
X-461162Y499158D01*
X-461151Y499172D01*
X-461007Y499285D01*
X-460865Y499402D01*
X-460849Y499410D01*
X-460835Y499421D01*
X-460671Y499505D01*
X-460509Y499591D01*
X-460492Y499596D01*
X-460476Y499604D01*
X-460299Y499653D01*
X-460123Y499705D01*
X-460105Y499707D01*
X-460088Y499712D01*
X-459905Y499725D01*
X-459722Y499742D01*
X-459704Y499740D01*
X-459687Y499741D01*
X-459505Y499718D01*
X-459322Y499698D01*
X-459305Y499693D01*
X-459287Y499691D01*
X-459113Y499632D01*
X-458938Y499577D01*
X-458922Y499568D01*
X-458906Y499562D01*
X-458746Y499471D01*
X-458586Y499382D01*
X-458572Y499371D01*
X-458557Y499362D01*
X-458304Y499147D01*
X-455098Y495941D01*
X-449870Y493775D01*
X-444210Y493775D01*
X-438982Y495941D01*
X-435776Y499147D01*
X-435762Y499158D01*
X-435751Y499172D01*
X-435607Y499285D01*
X-435465Y499402D01*
X-435449Y499410D01*
X-435435Y499421D01*
X-435271Y499505D01*
X-435109Y499591D01*
X-435092Y499596D01*
X-435076Y499604D01*
X-434899Y499653D01*
X-434723Y499705D01*
X-434705Y499707D01*
X-434688Y499712D01*
X-434505Y499725D01*
X-434322Y499742D01*
X-434304Y499740D01*
X-434287Y499741D01*
X-434105Y499718D01*
X-433922Y499698D01*
X-433905Y499693D01*
X-433887Y499691D01*
X-433713Y499632D01*
X-433538Y499577D01*
X-433522Y499568D01*
X-433506Y499562D01*
X-433346Y499471D01*
X-433186Y499382D01*
X-433172Y499371D01*
X-433157Y499362D01*
X-432904Y499147D01*
X-429698Y495941D01*
X-424470Y493775D01*
X-418644Y493775D01*
X-418512Y493785D01*
X-418334Y493802D01*
X-418312Y493800D01*
X-418289Y493801D01*
X-418111Y493779D01*
X-417934Y493760D01*
X-417912Y493754D01*
X-417889Y493751D01*
X-417720Y493694D01*
X-417549Y493641D01*
X-417529Y493630D01*
X-417508Y493623D01*
X-417353Y493533D01*
X-417196Y493448D01*
X-417179Y493433D01*
X-417159Y493422D01*
X-416906Y493207D01*
X-369028Y445329D01*
X-366587Y442888D01*
X-366582Y442881D01*
X-366575Y442876D01*
X-366454Y442726D01*
X-366332Y442577D01*
X-366328Y442569D01*
X-366322Y442562D01*
X-366234Y442392D01*
X-366144Y442221D01*
X-366141Y442212D01*
X-366137Y442205D01*
X-366084Y442020D01*
X-366029Y441835D01*
X-366028Y441826D01*
X-366025Y441818D01*
X-366010Y441627D01*
X-365992Y441434D01*
X-365993Y441425D01*
X-365993Y441416D01*
X-366015Y441227D01*
X-366036Y441034D01*
X-366038Y441025D01*
X-366039Y441017D01*
X-366099Y440835D01*
X-366157Y440650D01*
X-366162Y440642D01*
X-366164Y440634D01*
X-366259Y440465D01*
X-366352Y440298D01*
X-366358Y440291D01*
X-366362Y440283D01*
X-366488Y440137D01*
X-366613Y439991D01*
X-366620Y439985D01*
X-366625Y439978D01*
X-366777Y439861D01*
X-366928Y439741D01*
X-366936Y439737D01*
X-366943Y439732D01*
X-367116Y439646D01*
X-367287Y439559D01*
X-367296Y439556D01*
X-367304Y439552D01*
X-367490Y439502D01*
X-367675Y439451D01*
X-367684Y439450D01*
X-367693Y439448D01*
X-368024Y439421D01*
X-594468Y439421D01*
X-594495Y439423D01*
G37*
%LPC*%
G36*
X-454370Y11175D02*
X-454370Y11175D01*
X-449142Y13341D01*
X-445141Y17342D01*
X-445031Y17607D01*
X-444950Y17759D01*
X-444873Y17913D01*
X-444855Y17936D01*
X-444841Y17961D01*
X-444731Y18094D01*
X-444625Y18231D01*
X-444603Y18250D01*
X-444585Y18272D01*
X-444451Y18381D01*
X-444320Y18493D01*
X-444295Y18507D01*
X-444272Y18526D01*
X-444119Y18606D01*
X-443969Y18690D01*
X-443941Y18699D01*
X-443916Y18713D01*
X-443750Y18761D01*
X-443586Y18814D01*
X-443557Y18818D01*
X-443529Y18826D01*
X-443357Y18840D01*
X-443186Y18860D01*
X-443157Y18858D01*
X-443128Y18860D01*
X-442957Y18841D01*
X-442784Y18826D01*
X-442757Y18818D01*
X-442728Y18815D01*
X-442564Y18762D01*
X-442398Y18714D01*
X-442372Y18701D01*
X-442345Y18692D01*
X-442194Y18608D01*
X-442041Y18528D01*
X-442018Y18510D01*
X-441993Y18496D01*
X-441862Y18383D01*
X-441728Y18275D01*
X-441707Y18250D01*
X-441687Y18234D01*
X-441635Y18167D01*
X-441511Y18023D01*
X-441100Y17457D01*
X-439743Y16100D01*
X-438190Y14972D01*
X-436480Y14101D01*
X-434655Y13508D01*
X-434299Y13451D01*
X-434299Y24932D01*
X-434297Y24950D01*
X-434299Y24967D01*
X-434278Y25149D01*
X-434259Y25332D01*
X-434254Y25349D01*
X-434252Y25367D01*
X-434239Y25408D01*
X-434266Y25502D01*
X-434268Y25520D01*
X-434272Y25537D01*
X-434299Y25868D01*
X-434299Y37349D01*
X-434655Y37292D01*
X-436480Y36699D01*
X-438190Y35828D01*
X-439743Y34700D01*
X-441100Y33343D01*
X-441511Y32777D01*
X-441626Y32648D01*
X-441737Y32516D01*
X-441760Y32498D01*
X-441779Y32476D01*
X-441917Y32372D01*
X-442052Y32265D01*
X-442078Y32252D01*
X-442101Y32234D01*
X-442256Y32160D01*
X-442410Y32081D01*
X-442438Y32073D01*
X-442464Y32061D01*
X-442631Y32018D01*
X-442798Y31971D01*
X-442827Y31969D01*
X-442855Y31962D01*
X-443027Y31953D01*
X-443199Y31940D01*
X-443228Y31943D01*
X-443257Y31942D01*
X-443428Y31968D01*
X-443599Y31989D01*
X-443626Y31998D01*
X-443655Y32002D01*
X-443817Y32061D01*
X-443981Y32115D01*
X-444006Y32130D01*
X-444033Y32139D01*
X-444181Y32229D01*
X-444331Y32315D01*
X-444353Y32334D01*
X-444377Y32349D01*
X-444504Y32466D01*
X-444634Y32579D01*
X-444652Y32602D01*
X-444673Y32622D01*
X-444775Y32761D01*
X-444880Y32898D01*
X-444895Y32927D01*
X-444909Y32948D01*
X-444945Y33025D01*
X-445031Y33193D01*
X-445141Y33458D01*
X-449142Y37459D01*
X-453495Y39262D01*
X-454370Y39625D01*
X-460030Y39625D01*
X-465258Y37459D01*
X-468464Y34253D01*
X-468477Y34242D01*
X-468489Y34228D01*
X-468633Y34114D01*
X-468775Y33998D01*
X-468791Y33990D01*
X-468805Y33979D01*
X-468969Y33895D01*
X-469131Y33809D01*
X-469148Y33804D01*
X-469164Y33796D01*
X-469341Y33747D01*
X-469517Y33695D01*
X-469535Y33693D01*
X-469552Y33688D01*
X-469735Y33675D01*
X-469918Y33658D01*
X-469936Y33660D01*
X-469953Y33659D01*
X-470135Y33682D01*
X-470318Y33702D01*
X-470335Y33707D01*
X-470353Y33709D01*
X-470526Y33768D01*
X-470702Y33823D01*
X-470718Y33832D01*
X-470734Y33838D01*
X-470894Y33929D01*
X-471054Y34018D01*
X-471068Y34029D01*
X-471083Y34038D01*
X-471336Y34253D01*
X-474542Y37459D01*
X-478895Y39262D01*
X-479770Y39625D01*
X-485430Y39625D01*
X-490658Y37459D01*
X-493864Y34253D01*
X-493877Y34242D01*
X-493889Y34228D01*
X-494033Y34114D01*
X-494175Y33998D01*
X-494191Y33990D01*
X-494205Y33979D01*
X-494369Y33895D01*
X-494531Y33809D01*
X-494548Y33804D01*
X-494564Y33796D01*
X-494741Y33747D01*
X-494917Y33695D01*
X-494935Y33693D01*
X-494952Y33688D01*
X-495135Y33675D01*
X-495318Y33658D01*
X-495336Y33660D01*
X-495353Y33659D01*
X-495535Y33682D01*
X-495718Y33702D01*
X-495735Y33707D01*
X-495753Y33709D01*
X-495926Y33768D01*
X-496102Y33823D01*
X-496118Y33832D01*
X-496134Y33838D01*
X-496294Y33929D01*
X-496454Y34018D01*
X-496468Y34029D01*
X-496483Y34038D01*
X-496736Y34253D01*
X-499942Y37459D01*
X-504295Y39262D01*
X-505170Y39625D01*
X-510830Y39625D01*
X-516058Y37459D01*
X-519264Y34253D01*
X-519277Y34242D01*
X-519289Y34228D01*
X-519433Y34114D01*
X-519575Y33998D01*
X-519591Y33990D01*
X-519605Y33979D01*
X-519769Y33895D01*
X-519931Y33809D01*
X-519948Y33804D01*
X-519964Y33796D01*
X-520141Y33747D01*
X-520317Y33695D01*
X-520335Y33693D01*
X-520352Y33688D01*
X-520535Y33675D01*
X-520718Y33658D01*
X-520736Y33660D01*
X-520753Y33659D01*
X-520935Y33682D01*
X-521118Y33702D01*
X-521135Y33707D01*
X-521153Y33709D01*
X-521326Y33768D01*
X-521502Y33823D01*
X-521518Y33832D01*
X-521534Y33838D01*
X-521694Y33929D01*
X-521854Y34018D01*
X-521868Y34029D01*
X-521883Y34038D01*
X-522136Y34253D01*
X-525342Y37459D01*
X-529695Y39262D01*
X-530570Y39625D01*
X-536230Y39625D01*
X-541458Y37459D01*
X-544664Y34253D01*
X-544677Y34242D01*
X-544689Y34228D01*
X-544833Y34114D01*
X-544975Y33998D01*
X-544991Y33990D01*
X-545005Y33979D01*
X-545169Y33895D01*
X-545331Y33809D01*
X-545348Y33804D01*
X-545364Y33796D01*
X-545541Y33747D01*
X-545717Y33695D01*
X-545735Y33693D01*
X-545752Y33688D01*
X-545935Y33675D01*
X-546118Y33658D01*
X-546136Y33660D01*
X-546153Y33659D01*
X-546335Y33682D01*
X-546518Y33702D01*
X-546535Y33707D01*
X-546553Y33709D01*
X-546726Y33768D01*
X-546902Y33823D01*
X-546918Y33832D01*
X-546934Y33838D01*
X-547094Y33929D01*
X-547254Y34018D01*
X-547268Y34029D01*
X-547283Y34038D01*
X-547536Y34253D01*
X-550742Y37459D01*
X-555095Y39262D01*
X-555970Y39625D01*
X-561630Y39625D01*
X-566858Y37459D01*
X-570859Y33458D01*
X-573025Y28230D01*
X-573025Y22570D01*
X-570859Y17342D01*
X-566858Y13341D01*
X-561630Y11175D01*
X-555970Y11175D01*
X-550742Y13341D01*
X-547536Y16547D01*
X-547522Y16558D01*
X-547511Y16572D01*
X-547367Y16685D01*
X-547225Y16802D01*
X-547209Y16810D01*
X-547195Y16821D01*
X-547031Y16905D01*
X-546869Y16991D01*
X-546852Y16996D01*
X-546836Y17004D01*
X-546659Y17053D01*
X-546483Y17105D01*
X-546465Y17107D01*
X-546448Y17112D01*
X-546265Y17125D01*
X-546082Y17142D01*
X-546064Y17140D01*
X-546047Y17141D01*
X-545865Y17118D01*
X-545682Y17098D01*
X-545665Y17093D01*
X-545647Y17091D01*
X-545473Y17032D01*
X-545298Y16977D01*
X-545282Y16968D01*
X-545266Y16962D01*
X-545106Y16871D01*
X-544946Y16782D01*
X-544932Y16771D01*
X-544917Y16762D01*
X-544664Y16547D01*
X-541458Y13341D01*
X-536230Y11175D01*
X-530570Y11175D01*
X-525342Y13341D01*
X-522136Y16547D01*
X-522122Y16558D01*
X-522111Y16572D01*
X-521967Y16685D01*
X-521825Y16802D01*
X-521809Y16810D01*
X-521795Y16821D01*
X-521631Y16905D01*
X-521469Y16991D01*
X-521452Y16996D01*
X-521436Y17004D01*
X-521259Y17053D01*
X-521083Y17105D01*
X-521065Y17107D01*
X-521048Y17112D01*
X-520865Y17125D01*
X-520682Y17142D01*
X-520664Y17140D01*
X-520647Y17141D01*
X-520465Y17118D01*
X-520282Y17098D01*
X-520265Y17093D01*
X-520247Y17091D01*
X-520073Y17032D01*
X-519898Y16977D01*
X-519882Y16968D01*
X-519866Y16962D01*
X-519706Y16871D01*
X-519546Y16782D01*
X-519532Y16771D01*
X-519517Y16762D01*
X-519264Y16547D01*
X-516058Y13341D01*
X-510830Y11175D01*
X-505170Y11175D01*
X-499942Y13341D01*
X-496736Y16547D01*
X-496722Y16558D01*
X-496711Y16572D01*
X-496567Y16685D01*
X-496425Y16802D01*
X-496409Y16810D01*
X-496395Y16821D01*
X-496231Y16905D01*
X-496069Y16991D01*
X-496052Y16996D01*
X-496036Y17004D01*
X-495859Y17053D01*
X-495683Y17105D01*
X-495665Y17107D01*
X-495648Y17112D01*
X-495465Y17125D01*
X-495282Y17142D01*
X-495264Y17140D01*
X-495247Y17141D01*
X-495065Y17118D01*
X-494882Y17098D01*
X-494865Y17093D01*
X-494847Y17091D01*
X-494673Y17032D01*
X-494498Y16977D01*
X-494482Y16968D01*
X-494466Y16962D01*
X-494306Y16871D01*
X-494146Y16782D01*
X-494132Y16771D01*
X-494117Y16762D01*
X-493864Y16547D01*
X-490658Y13341D01*
X-485430Y11175D01*
X-479770Y11175D01*
X-474542Y13341D01*
X-471336Y16547D01*
X-471322Y16558D01*
X-471311Y16572D01*
X-471167Y16685D01*
X-471025Y16802D01*
X-471009Y16810D01*
X-470995Y16821D01*
X-470831Y16905D01*
X-470669Y16991D01*
X-470652Y16996D01*
X-470636Y17004D01*
X-470459Y17053D01*
X-470283Y17105D01*
X-470265Y17107D01*
X-470248Y17112D01*
X-470065Y17125D01*
X-469882Y17142D01*
X-469864Y17140D01*
X-469847Y17141D01*
X-469665Y17118D01*
X-469482Y17098D01*
X-469465Y17093D01*
X-469447Y17091D01*
X-469273Y17032D01*
X-469098Y16977D01*
X-469082Y16968D01*
X-469066Y16962D01*
X-468906Y16871D01*
X-468746Y16782D01*
X-468732Y16771D01*
X-468717Y16762D01*
X-468464Y16547D01*
X-465258Y13341D01*
X-460030Y11175D01*
X-454370Y11175D01*
G37*
%LPD*%
%LPC*%
G36*
X-457200Y586231D02*
X-457200Y586231D01*
X-432356Y586231D01*
X-432407Y586551D01*
X-432895Y588054D01*
X-433612Y589462D01*
X-434541Y590741D01*
X-435659Y591859D01*
X-436938Y592788D01*
X-438346Y593505D01*
X-439365Y593836D01*
X-439446Y593872D01*
X-439531Y593898D01*
X-439630Y593953D01*
X-439734Y593998D01*
X-439807Y594049D01*
X-439884Y594092D01*
X-439971Y594164D01*
X-440063Y594229D01*
X-440125Y594294D01*
X-440192Y594351D01*
X-440263Y594439D01*
X-440341Y594521D01*
X-440388Y594596D01*
X-440443Y594666D01*
X-440495Y594766D01*
X-440555Y594862D01*
X-440587Y594945D01*
X-440627Y595024D01*
X-440658Y595132D01*
X-440698Y595238D01*
X-440713Y595326D01*
X-440737Y595411D01*
X-440746Y595524D01*
X-440764Y595635D01*
X-440761Y595724D01*
X-440768Y595813D01*
X-440755Y595925D01*
X-440751Y596038D01*
X-440730Y596124D01*
X-440720Y596212D01*
X-440684Y596319D01*
X-440658Y596430D01*
X-440621Y596510D01*
X-440593Y596595D01*
X-440537Y596693D01*
X-440490Y596795D01*
X-440438Y596867D01*
X-440394Y596944D01*
X-440319Y597029D01*
X-440253Y597121D01*
X-440187Y597181D01*
X-440129Y597248D01*
X-440039Y597317D01*
X-439956Y597393D01*
X-439880Y597439D01*
X-439810Y597493D01*
X-439684Y597558D01*
X-439612Y597602D01*
X-439569Y597617D01*
X-439515Y597645D01*
X-435361Y599365D01*
X-432834Y601892D01*
X-432814Y601909D01*
X-432796Y601930D01*
X-432658Y602037D01*
X-432523Y602147D01*
X-432499Y602160D01*
X-432478Y602176D01*
X-432321Y602254D01*
X-432167Y602336D01*
X-432142Y602344D01*
X-432117Y602356D01*
X-431948Y602401D01*
X-431781Y602451D01*
X-431755Y602453D01*
X-431729Y602460D01*
X-431398Y602487D01*
X-404676Y602487D01*
X-404667Y602486D01*
X-404658Y602487D01*
X-404466Y602466D01*
X-404276Y602447D01*
X-404267Y602445D01*
X-404258Y602444D01*
X-404076Y602386D01*
X-403891Y602329D01*
X-403883Y602325D01*
X-403874Y602322D01*
X-403706Y602229D01*
X-403537Y602137D01*
X-403530Y602132D01*
X-403522Y602127D01*
X-403374Y602002D01*
X-403227Y601880D01*
X-403222Y601873D01*
X-403215Y601867D01*
X-403096Y601716D01*
X-402975Y601566D01*
X-402971Y601558D01*
X-402965Y601551D01*
X-402878Y601380D01*
X-402790Y601209D01*
X-402787Y601200D01*
X-402783Y601192D01*
X-402731Y601004D01*
X-402678Y600822D01*
X-402678Y600813D01*
X-402675Y600804D01*
X-402661Y600612D01*
X-402645Y600420D01*
X-402646Y600412D01*
X-402646Y600403D01*
X-402670Y600210D01*
X-402692Y600021D01*
X-402695Y600012D01*
X-402696Y600003D01*
X-402757Y599822D01*
X-402817Y599638D01*
X-402822Y599630D01*
X-402824Y599622D01*
X-402920Y599456D01*
X-403015Y599287D01*
X-403021Y599280D01*
X-403025Y599273D01*
X-403240Y599020D01*
X-403741Y598519D01*
X-403741Y596391D01*
X-393700Y596391D01*
X-383659Y596391D01*
X-383659Y598519D01*
X-384160Y599020D01*
X-384166Y599027D01*
X-384173Y599032D01*
X-384292Y599181D01*
X-384415Y599331D01*
X-384419Y599339D01*
X-384425Y599346D01*
X-384513Y599516D01*
X-384604Y599687D01*
X-384606Y599696D01*
X-384610Y599703D01*
X-384663Y599887D01*
X-384718Y600073D01*
X-384719Y600082D01*
X-384722Y600090D01*
X-384737Y600281D01*
X-384755Y600474D01*
X-384754Y600483D01*
X-384755Y600492D01*
X-384732Y600681D01*
X-384711Y600874D01*
X-384709Y600883D01*
X-384708Y600891D01*
X-384648Y601074D01*
X-384590Y601258D01*
X-384586Y601266D01*
X-384583Y601274D01*
X-384489Y601440D01*
X-384395Y601610D01*
X-384389Y601617D01*
X-384385Y601625D01*
X-384260Y601770D01*
X-384135Y601917D01*
X-384128Y601923D01*
X-384122Y601930D01*
X-383970Y602047D01*
X-383819Y602167D01*
X-383811Y602171D01*
X-383804Y602176D01*
X-383632Y602262D01*
X-383460Y602349D01*
X-383451Y602352D01*
X-383443Y602356D01*
X-383258Y602405D01*
X-383072Y602457D01*
X-383063Y602458D01*
X-383054Y602460D01*
X-382724Y602487D01*
X-353702Y602487D01*
X-353676Y602485D01*
X-353649Y602487D01*
X-353475Y602465D01*
X-353301Y602447D01*
X-353276Y602440D01*
X-353249Y602436D01*
X-353084Y602381D01*
X-352917Y602329D01*
X-352893Y602316D01*
X-352868Y602308D01*
X-352716Y602220D01*
X-352563Y602137D01*
X-352542Y602120D01*
X-352519Y602107D01*
X-352266Y601892D01*
X-349739Y599365D01*
X-345301Y597527D01*
X-340499Y597527D01*
X-336061Y599365D01*
X-332665Y602761D01*
X-330827Y607199D01*
X-330827Y612001D01*
X-332665Y616439D01*
X-336061Y619835D01*
X-340499Y621673D01*
X-345301Y621673D01*
X-349739Y619835D01*
X-352266Y617308D01*
X-352286Y617291D01*
X-352304Y617270D01*
X-352442Y617163D01*
X-352577Y617053D01*
X-352601Y617040D01*
X-352622Y617024D01*
X-352779Y616946D01*
X-352933Y616864D01*
X-352958Y616856D01*
X-352983Y616844D01*
X-353152Y616799D01*
X-353319Y616749D01*
X-353345Y616747D01*
X-353371Y616740D01*
X-353702Y616713D01*
X-431398Y616713D01*
X-431424Y616715D01*
X-431451Y616713D01*
X-431625Y616735D01*
X-431799Y616753D01*
X-431824Y616760D01*
X-431851Y616764D01*
X-432016Y616819D01*
X-432183Y616871D01*
X-432207Y616884D01*
X-432232Y616892D01*
X-432384Y616979D01*
X-432537Y617063D01*
X-432558Y617080D01*
X-432581Y617093D01*
X-432834Y617308D01*
X-435361Y619835D01*
X-439799Y621673D01*
X-459601Y621673D01*
X-464039Y619835D01*
X-467435Y616439D01*
X-469273Y612001D01*
X-469273Y607199D01*
X-467435Y602761D01*
X-464039Y599365D01*
X-459885Y597645D01*
X-459807Y597603D01*
X-459725Y597570D01*
X-459630Y597508D01*
X-459530Y597455D01*
X-459462Y597398D01*
X-459388Y597349D01*
X-459307Y597270D01*
X-459220Y597198D01*
X-459164Y597129D01*
X-459101Y597067D01*
X-459037Y596973D01*
X-458966Y596886D01*
X-458925Y596807D01*
X-458875Y596733D01*
X-458832Y596629D01*
X-458779Y596529D01*
X-458754Y596444D01*
X-458720Y596362D01*
X-458698Y596251D01*
X-458666Y596143D01*
X-458658Y596054D01*
X-458641Y595967D01*
X-458641Y595854D01*
X-458631Y595742D01*
X-458641Y595653D01*
X-458642Y595565D01*
X-458664Y595454D01*
X-458677Y595341D01*
X-458704Y595257D01*
X-458721Y595170D01*
X-458765Y595066D01*
X-458800Y594958D01*
X-458843Y594880D01*
X-458878Y594799D01*
X-458941Y594705D01*
X-458996Y594607D01*
X-459054Y594539D01*
X-459104Y594466D01*
X-459184Y594387D01*
X-459258Y594301D01*
X-459328Y594246D01*
X-459391Y594184D01*
X-459486Y594122D01*
X-459575Y594053D01*
X-459654Y594013D01*
X-459729Y593964D01*
X-459859Y593910D01*
X-459935Y593872D01*
X-459979Y593860D01*
X-460035Y593836D01*
X-461054Y593505D01*
X-462462Y592788D01*
X-463741Y591859D01*
X-464859Y590741D01*
X-465788Y589462D01*
X-466505Y588054D01*
X-466993Y586551D01*
X-467044Y586231D01*
X-457200Y586231D01*
X-457200Y586231D01*
G37*
%LPD*%
%LPC*%
G36*
X-41968Y580158D02*
X-41968Y580158D01*
X-40232Y581546D01*
X-39159Y583494D01*
X-39068Y584311D01*
X-39046Y584416D01*
X-39034Y584523D01*
X-39004Y584612D01*
X-38985Y584705D01*
X-38942Y584803D01*
X-38909Y584905D01*
X-38862Y584988D01*
X-38825Y585075D01*
X-38764Y585163D01*
X-38711Y585256D01*
X-38649Y585327D01*
X-38595Y585405D01*
X-38518Y585480D01*
X-38448Y585561D01*
X-38373Y585619D01*
X-38305Y585684D01*
X-38214Y585742D01*
X-38130Y585807D01*
X-38045Y585850D01*
X-37965Y585900D01*
X-37865Y585939D01*
X-37769Y585987D01*
X-37678Y586011D01*
X-37589Y586045D01*
X-37484Y586063D01*
X-37380Y586091D01*
X-37267Y586101D01*
X-37192Y586113D01*
X-37132Y586112D01*
X-37050Y586118D01*
X-34036Y586118D01*
X-34018Y586117D01*
X-34000Y586118D01*
X-33818Y586097D01*
X-33635Y586078D01*
X-33618Y586073D01*
X-33601Y586071D01*
X-33426Y586014D01*
X-33250Y585960D01*
X-33235Y585952D01*
X-33218Y585946D01*
X-33058Y585856D01*
X-32896Y585769D01*
X-32883Y585757D01*
X-32867Y585748D01*
X-32728Y585628D01*
X-32587Y585511D01*
X-32576Y585497D01*
X-32562Y585485D01*
X-32450Y585340D01*
X-32335Y585197D01*
X-32327Y585181D01*
X-32316Y585167D01*
X-32233Y585002D01*
X-32149Y584840D01*
X-32144Y584823D01*
X-32136Y584807D01*
X-32089Y584629D01*
X-32038Y584453D01*
X-32036Y584435D01*
X-32032Y584418D01*
X-32006Y584109D01*
X-31154Y582050D01*
X-29582Y580478D01*
X-27528Y579627D01*
X-25304Y579627D01*
X-23250Y580478D01*
X-21678Y582050D01*
X-20827Y584104D01*
X-20827Y599310D01*
X-21593Y601158D01*
X-21601Y601184D01*
X-21613Y601208D01*
X-21659Y601376D01*
X-21709Y601544D01*
X-21712Y601570D01*
X-21719Y601596D01*
X-21731Y601771D01*
X-21748Y601945D01*
X-21745Y601971D01*
X-21747Y601998D01*
X-21724Y602172D01*
X-21706Y602345D01*
X-21698Y602371D01*
X-21694Y602397D01*
X-21593Y602713D01*
X-20827Y604561D01*
X-20827Y608083D01*
X-21593Y609931D01*
X-21601Y609957D01*
X-21613Y609981D01*
X-21659Y610150D01*
X-21709Y610317D01*
X-21712Y610344D01*
X-21719Y610369D01*
X-21731Y610544D01*
X-21748Y610718D01*
X-21745Y610744D01*
X-21747Y610771D01*
X-21724Y610945D01*
X-21706Y611118D01*
X-21698Y611144D01*
X-21694Y611170D01*
X-21593Y611486D01*
X-20827Y613335D01*
X-20827Y625124D01*
X-23716Y630128D01*
X-28720Y633017D01*
X-30093Y633017D01*
X-36350Y633017D01*
X-40313Y631376D01*
X-41739Y629949D01*
X-41749Y629941D01*
X-41758Y629931D01*
X-41905Y629813D01*
X-42051Y629694D01*
X-42062Y629688D01*
X-42073Y629680D01*
X-42241Y629593D01*
X-42406Y629506D01*
X-42419Y629502D01*
X-42431Y629496D01*
X-42612Y629444D01*
X-42792Y629391D01*
X-42805Y629390D01*
X-42818Y629386D01*
X-43005Y629372D01*
X-43193Y629355D01*
X-43207Y629356D01*
X-43220Y629355D01*
X-43405Y629377D01*
X-43593Y629398D01*
X-43606Y629402D01*
X-43620Y629404D01*
X-43797Y629462D01*
X-43977Y629519D01*
X-43989Y629526D01*
X-44002Y629530D01*
X-44165Y629623D01*
X-44330Y629714D01*
X-44340Y629723D01*
X-44351Y629730D01*
X-44493Y629853D01*
X-44637Y629975D01*
X-44645Y629985D01*
X-44655Y629994D01*
X-44770Y630144D01*
X-44886Y630291D01*
X-44892Y630303D01*
X-44900Y630313D01*
X-45043Y630591D01*
X-46618Y632166D01*
X-48672Y633017D01*
X-50896Y633017D01*
X-52950Y632166D01*
X-54522Y630594D01*
X-55373Y628540D01*
X-55373Y613335D01*
X-54522Y611280D01*
X-52950Y609708D01*
X-50896Y608858D01*
X-38286Y608858D01*
X-36112Y609758D01*
X-36099Y609762D01*
X-36087Y609768D01*
X-35907Y609820D01*
X-35726Y609875D01*
X-35713Y609876D01*
X-35700Y609880D01*
X-35512Y609895D01*
X-35325Y609913D01*
X-35312Y609912D01*
X-35299Y609913D01*
X-35111Y609891D01*
X-34925Y609871D01*
X-34912Y609867D01*
X-34899Y609866D01*
X-34719Y609807D01*
X-34540Y609752D01*
X-34529Y609745D01*
X-34516Y609741D01*
X-34352Y609648D01*
X-34187Y609558D01*
X-34177Y609550D01*
X-34165Y609543D01*
X-34023Y609420D01*
X-33879Y609299D01*
X-33871Y609289D01*
X-33861Y609280D01*
X-33746Y609131D01*
X-33628Y608984D01*
X-33622Y608972D01*
X-33614Y608962D01*
X-33530Y608793D01*
X-33444Y608626D01*
X-33441Y608613D01*
X-33435Y608601D01*
X-33385Y608418D01*
X-33335Y608239D01*
X-33334Y608226D01*
X-33330Y608213D01*
X-33303Y607882D01*
X-33303Y604561D01*
X-32452Y602507D01*
X-32159Y602214D01*
X-32145Y602197D01*
X-32128Y602182D01*
X-32017Y602041D01*
X-31904Y601903D01*
X-31893Y601883D01*
X-31880Y601865D01*
X-31799Y601705D01*
X-31715Y601547D01*
X-31709Y601526D01*
X-31699Y601506D01*
X-31652Y601333D01*
X-31600Y601161D01*
X-31598Y601139D01*
X-31593Y601117D01*
X-31580Y600940D01*
X-31564Y600760D01*
X-31567Y600738D01*
X-31565Y600716D01*
X-31588Y600539D01*
X-31607Y600360D01*
X-31614Y600338D01*
X-31617Y600316D01*
X-31719Y600001D01*
X-32006Y599306D01*
X-32005Y599292D01*
X-32026Y599109D01*
X-32045Y598926D01*
X-32050Y598909D01*
X-32052Y598892D01*
X-32109Y598717D01*
X-32163Y598542D01*
X-32171Y598526D01*
X-32177Y598509D01*
X-32267Y598348D01*
X-32355Y598188D01*
X-32366Y598174D01*
X-32375Y598158D01*
X-32495Y598019D01*
X-32612Y597878D01*
X-32626Y597867D01*
X-32638Y597854D01*
X-32783Y597741D01*
X-32926Y597626D01*
X-32942Y597618D01*
X-32956Y597607D01*
X-33121Y597525D01*
X-33283Y597440D01*
X-33300Y597436D01*
X-33316Y597428D01*
X-33495Y597380D01*
X-33670Y597329D01*
X-33688Y597328D01*
X-33705Y597323D01*
X-34036Y597296D01*
X-49362Y597296D01*
X-49446Y597304D01*
X-49586Y597308D01*
X-50272Y597384D01*
X-50300Y597376D01*
X-50419Y597354D01*
X-50535Y597323D01*
X-50630Y597315D01*
X-50696Y597303D01*
X-50766Y597304D01*
X-50866Y597296D01*
X-50896Y597296D01*
X-51533Y597032D01*
X-51614Y597007D01*
X-51745Y596958D01*
X-52407Y596766D01*
X-52430Y596747D01*
X-52531Y596681D01*
X-52627Y596608D01*
X-52712Y596564D01*
X-52768Y596528D01*
X-52833Y596502D01*
X-52922Y596456D01*
X-52950Y596445D01*
X-53438Y595957D01*
X-53503Y595904D01*
X-53605Y595807D01*
X-54143Y595377D01*
X-54158Y595351D01*
X-54226Y595251D01*
X-54286Y595147D01*
X-54348Y595074D01*
X-54386Y595019D01*
X-54436Y594970D01*
X-54501Y594894D01*
X-54522Y594873D01*
X-54786Y594236D01*
X-54826Y594161D01*
X-54883Y594033D01*
X-55216Y593429D01*
X-55219Y593399D01*
X-55242Y593294D01*
X-55253Y593200D01*
X-55256Y593188D01*
X-55260Y593162D01*
X-55289Y593071D01*
X-55303Y593006D01*
X-55331Y592942D01*
X-55361Y592846D01*
X-55373Y592819D01*
X-55373Y592129D01*
X-55381Y592045D01*
X-55385Y591905D01*
X-55461Y591219D01*
X-55453Y591191D01*
X-55431Y591072D01*
X-55400Y590956D01*
X-55392Y590861D01*
X-55380Y590795D01*
X-55381Y590725D01*
X-55373Y590625D01*
X-55373Y590595D01*
X-55109Y589958D01*
X-55084Y589877D01*
X-55034Y589746D01*
X-54843Y589084D01*
X-54824Y589061D01*
X-54758Y588959D01*
X-54685Y588864D01*
X-54641Y588779D01*
X-54605Y588723D01*
X-54579Y588658D01*
X-54533Y588569D01*
X-54522Y588541D01*
X-54034Y588054D01*
X-53981Y587988D01*
X-53884Y587886D01*
X-48261Y580857D01*
X-46313Y579784D01*
X-44103Y579539D01*
X-41968Y580158D01*
G37*
%LPD*%
%LPC*%
G36*
X-378170Y11175D02*
X-378170Y11175D01*
X-372942Y13341D01*
X-368941Y17342D01*
X-366775Y22570D01*
X-366775Y28230D01*
X-368941Y33458D01*
X-372942Y37459D01*
X-377295Y39262D01*
X-378170Y39625D01*
X-383830Y39625D01*
X-389058Y37459D01*
X-393059Y33458D01*
X-393169Y33193D01*
X-393250Y33041D01*
X-393327Y32887D01*
X-393345Y32864D01*
X-393359Y32839D01*
X-393469Y32706D01*
X-393575Y32569D01*
X-393597Y32550D01*
X-393615Y32528D01*
X-393749Y32419D01*
X-393880Y32307D01*
X-393905Y32293D01*
X-393928Y32274D01*
X-394081Y32194D01*
X-394231Y32110D01*
X-394259Y32101D01*
X-394284Y32087D01*
X-394450Y32039D01*
X-394614Y31986D01*
X-394643Y31982D01*
X-394671Y31974D01*
X-394843Y31960D01*
X-395014Y31940D01*
X-395043Y31942D01*
X-395072Y31940D01*
X-395243Y31959D01*
X-395416Y31974D01*
X-395443Y31982D01*
X-395472Y31985D01*
X-395636Y32038D01*
X-395802Y32086D01*
X-395828Y32099D01*
X-395855Y32108D01*
X-396006Y32192D01*
X-396159Y32272D01*
X-396182Y32290D01*
X-396207Y32304D01*
X-396338Y32417D01*
X-396472Y32525D01*
X-396493Y32550D01*
X-396513Y32566D01*
X-396565Y32633D01*
X-396689Y32777D01*
X-397100Y33343D01*
X-398457Y34700D01*
X-400010Y35828D01*
X-401720Y36699D01*
X-403545Y37292D01*
X-403901Y37349D01*
X-403901Y25868D01*
X-403902Y25850D01*
X-403901Y25833D01*
X-403922Y25650D01*
X-403941Y25468D01*
X-403946Y25451D01*
X-403948Y25433D01*
X-403961Y25392D01*
X-403934Y25298D01*
X-403932Y25280D01*
X-403928Y25263D01*
X-403901Y24932D01*
X-403901Y13451D01*
X-403545Y13508D01*
X-401720Y14101D01*
X-400010Y14972D01*
X-398457Y16100D01*
X-397100Y17457D01*
X-396689Y18023D01*
X-396574Y18152D01*
X-396463Y18284D01*
X-396440Y18302D01*
X-396421Y18324D01*
X-396283Y18428D01*
X-396148Y18535D01*
X-396122Y18548D01*
X-396099Y18566D01*
X-395944Y18640D01*
X-395790Y18719D01*
X-395762Y18727D01*
X-395736Y18739D01*
X-395569Y18782D01*
X-395402Y18829D01*
X-395373Y18831D01*
X-395345Y18838D01*
X-395173Y18847D01*
X-395001Y18860D01*
X-394972Y18857D01*
X-394943Y18858D01*
X-394772Y18832D01*
X-394601Y18811D01*
X-394574Y18802D01*
X-394545Y18798D01*
X-394383Y18739D01*
X-394219Y18685D01*
X-394194Y18670D01*
X-394167Y18661D01*
X-394019Y18571D01*
X-393869Y18485D01*
X-393847Y18466D01*
X-393823Y18451D01*
X-393696Y18334D01*
X-393566Y18221D01*
X-393548Y18198D01*
X-393527Y18178D01*
X-393425Y18039D01*
X-393320Y17902D01*
X-393305Y17873D01*
X-393291Y17852D01*
X-393255Y17775D01*
X-393169Y17607D01*
X-393059Y17342D01*
X-389058Y13341D01*
X-383830Y11175D01*
X-378170Y11175D01*
G37*
%LPD*%
%LPC*%
G36*
X-105663Y505967D02*
X-105663Y505967D01*
X-105663Y529564D01*
X-106288Y529493D01*
X-109347Y528795D01*
X-112309Y527759D01*
X-115137Y526397D01*
X-117794Y524727D01*
X-120248Y522771D01*
X-122467Y520552D01*
X-124423Y518098D01*
X-126093Y515441D01*
X-127455Y512613D01*
X-128491Y509651D01*
X-129189Y506592D01*
X-129260Y505967D01*
X-105663Y505967D01*
G37*
%LPD*%
%LPC*%
G36*
X-105663Y35559D02*
X-105663Y35559D01*
X-105663Y59156D01*
X-106288Y59085D01*
X-109347Y58387D01*
X-112309Y57351D01*
X-115137Y55989D01*
X-117794Y54319D01*
X-120248Y52363D01*
X-122467Y50144D01*
X-124423Y47690D01*
X-126093Y45033D01*
X-127455Y42205D01*
X-128491Y39243D01*
X-129189Y36184D01*
X-129260Y35559D01*
X-105663Y35559D01*
G37*
%LPD*%
%LPC*%
G36*
X-73940Y505967D02*
X-73940Y505967D01*
X-74011Y506592D01*
X-74709Y509651D01*
X-75745Y512613D01*
X-77107Y515441D01*
X-78777Y518098D01*
X-80733Y520552D01*
X-82952Y522771D01*
X-85406Y524727D01*
X-88063Y526397D01*
X-90891Y527759D01*
X-93853Y528795D01*
X-96912Y529493D01*
X-97537Y529564D01*
X-97537Y505967D01*
X-73940Y505967D01*
G37*
%LPD*%
%LPC*%
G36*
X-73940Y35559D02*
X-73940Y35559D01*
X-74011Y36184D01*
X-74709Y39243D01*
X-75745Y42205D01*
X-77107Y45033D01*
X-78777Y47690D01*
X-80733Y50144D01*
X-82952Y52363D01*
X-85406Y54319D01*
X-88063Y55989D01*
X-90891Y57351D01*
X-93853Y58387D01*
X-96912Y59085D01*
X-97537Y59156D01*
X-97537Y35559D01*
X-73940Y35559D01*
G37*
%LPD*%
%LPC*%
G36*
X-408899Y27899D02*
X-408899Y27899D01*
X-408899Y37349D01*
X-409255Y37292D01*
X-411080Y36699D01*
X-412790Y35828D01*
X-414343Y34700D01*
X-415700Y33343D01*
X-416828Y31790D01*
X-417290Y30884D01*
X-417318Y30841D01*
X-417339Y30794D01*
X-417426Y30672D01*
X-417508Y30545D01*
X-417543Y30508D01*
X-417573Y30466D01*
X-417683Y30364D01*
X-417788Y30256D01*
X-417830Y30227D01*
X-417867Y30192D01*
X-417995Y30112D01*
X-418119Y30027D01*
X-418166Y30007D01*
X-418210Y29980D01*
X-418351Y29928D01*
X-418489Y29869D01*
X-418539Y29858D01*
X-418587Y29840D01*
X-418736Y29817D01*
X-418883Y29786D01*
X-418934Y29786D01*
X-418985Y29778D01*
X-419136Y29784D01*
X-419286Y29783D01*
X-419336Y29793D01*
X-419387Y29795D01*
X-419534Y29831D01*
X-419681Y29860D01*
X-419729Y29879D01*
X-419778Y29891D01*
X-419914Y29955D01*
X-420054Y30012D01*
X-420096Y30041D01*
X-420143Y30063D01*
X-420263Y30152D01*
X-420389Y30236D01*
X-420425Y30272D01*
X-420466Y30302D01*
X-420567Y30414D01*
X-420673Y30521D01*
X-420701Y30563D01*
X-420736Y30601D01*
X-420857Y30798D01*
X-420896Y30856D01*
X-420901Y30869D01*
X-420910Y30884D01*
X-421372Y31790D01*
X-422500Y33343D01*
X-423857Y34700D01*
X-425410Y35828D01*
X-427120Y36699D01*
X-428945Y37292D01*
X-429301Y37349D01*
X-429301Y27899D01*
X-408899Y27899D01*
G37*
%LPD*%
%LPC*%
G36*
X-428945Y13508D02*
X-428945Y13508D01*
X-427120Y14101D01*
X-425410Y14972D01*
X-423857Y16100D01*
X-422500Y17457D01*
X-421372Y19010D01*
X-420910Y19916D01*
X-420882Y19959D01*
X-420861Y20006D01*
X-420774Y20128D01*
X-420692Y20255D01*
X-420657Y20292D01*
X-420627Y20334D01*
X-420517Y20436D01*
X-420412Y20544D01*
X-420370Y20573D01*
X-420333Y20608D01*
X-420205Y20688D01*
X-420081Y20773D01*
X-420034Y20793D01*
X-419990Y20820D01*
X-419849Y20872D01*
X-419711Y20931D01*
X-419661Y20942D01*
X-419613Y20960D01*
X-419464Y20983D01*
X-419317Y21014D01*
X-419266Y21014D01*
X-419215Y21022D01*
X-419064Y21016D01*
X-418914Y21017D01*
X-418864Y21007D01*
X-418813Y21005D01*
X-418666Y20969D01*
X-418519Y20940D01*
X-418471Y20921D01*
X-418422Y20909D01*
X-418286Y20845D01*
X-418146Y20788D01*
X-418104Y20759D01*
X-418057Y20737D01*
X-417937Y20648D01*
X-417811Y20564D01*
X-417775Y20528D01*
X-417734Y20498D01*
X-417633Y20386D01*
X-417527Y20279D01*
X-417499Y20237D01*
X-417464Y20199D01*
X-417343Y20002D01*
X-417304Y19944D01*
X-417299Y19931D01*
X-417290Y19916D01*
X-416828Y19010D01*
X-415700Y17457D01*
X-414343Y16100D01*
X-412790Y14972D01*
X-411080Y14101D01*
X-409255Y13508D01*
X-408899Y13451D01*
X-408899Y22901D01*
X-429301Y22901D01*
X-429301Y13451D01*
X-428945Y13508D01*
G37*
%LPD*%
%LPC*%
G36*
X-751884Y587184D02*
X-751884Y587184D01*
X-751884Y604270D01*
X-753312Y603806D01*
X-754924Y602984D01*
X-756388Y601921D01*
X-757667Y600641D01*
X-758731Y599178D01*
X-759552Y597566D01*
X-760111Y595845D01*
X-760394Y594058D01*
X-760394Y587184D01*
X-751884Y587184D01*
G37*
%LPD*%
%LPC*%
G36*
X-751884Y581216D02*
X-751884Y581216D01*
X-760394Y581216D01*
X-760394Y574342D01*
X-760111Y572555D01*
X-759552Y570834D01*
X-758731Y569222D01*
X-757667Y567759D01*
X-756388Y566479D01*
X-754924Y565416D01*
X-753312Y564594D01*
X-751884Y564130D01*
X-751884Y581216D01*
G37*
%LPD*%
%LPC*%
G36*
X-737406Y587184D02*
X-737406Y587184D01*
X-737406Y594058D01*
X-737689Y595845D01*
X-738248Y597566D01*
X-739069Y599178D01*
X-740133Y600641D01*
X-741412Y601921D01*
X-742876Y602984D01*
X-744488Y603806D01*
X-745916Y604270D01*
X-745916Y587184D01*
X-737406Y587184D01*
G37*
%LPD*%
%LPC*%
G36*
X-744488Y564594D02*
X-744488Y564594D01*
X-742876Y565416D01*
X-741412Y566479D01*
X-740133Y567759D01*
X-739069Y569222D01*
X-738248Y570834D01*
X-737689Y572555D01*
X-737406Y574342D01*
X-737406Y581216D01*
X-745916Y581216D01*
X-745916Y564130D01*
X-744488Y564594D01*
G37*
%LPD*%
%LPC*%
G36*
X-116799Y319319D02*
X-116799Y319319D01*
X-126249Y319319D01*
X-126192Y318963D01*
X-125599Y317138D01*
X-124728Y315428D01*
X-123600Y313875D01*
X-122243Y312518D01*
X-120690Y311390D01*
X-118980Y310519D01*
X-117489Y310034D01*
X-117334Y309966D01*
X-117178Y309904D01*
X-117150Y309886D01*
X-117120Y309872D01*
X-116981Y309775D01*
X-116841Y309683D01*
X-116818Y309660D01*
X-116799Y309647D01*
X-116799Y319319D01*
G37*
%LPD*%
%LPC*%
G36*
X-102351Y296885D02*
X-102351Y296885D01*
X-102408Y297241D01*
X-103001Y299066D01*
X-103872Y300776D01*
X-105000Y302329D01*
X-106357Y303686D01*
X-107910Y304814D01*
X-109620Y305685D01*
X-111111Y306170D01*
X-111266Y306238D01*
X-111422Y306300D01*
X-111450Y306319D01*
X-111480Y306332D01*
X-111618Y306429D01*
X-111759Y306521D01*
X-111782Y306544D01*
X-111801Y306557D01*
X-111801Y296885D01*
X-102351Y296885D01*
G37*
%LPD*%
%LPC*%
G36*
X-116799Y296885D02*
X-116799Y296885D01*
X-116799Y306562D01*
X-116845Y306518D01*
X-116873Y306500D01*
X-116897Y306477D01*
X-117042Y306390D01*
X-117182Y306298D01*
X-117217Y306284D01*
X-117242Y306269D01*
X-117323Y306239D01*
X-117489Y306170D01*
X-118980Y305685D01*
X-120690Y304814D01*
X-122243Y303686D01*
X-123600Y302329D01*
X-124728Y300776D01*
X-125599Y299066D01*
X-126192Y297241D01*
X-126249Y296885D01*
X-116799Y296885D01*
G37*
%LPD*%
%LPC*%
G36*
X-111755Y309686D02*
X-111755Y309686D01*
X-111727Y309705D01*
X-111703Y309727D01*
X-111559Y309814D01*
X-111418Y309906D01*
X-111383Y309920D01*
X-111358Y309935D01*
X-111277Y309965D01*
X-111111Y310034D01*
X-109620Y310519D01*
X-107910Y311390D01*
X-106357Y312518D01*
X-105000Y313875D01*
X-103872Y315428D01*
X-103001Y317138D01*
X-102408Y318963D01*
X-102351Y319319D01*
X-111801Y319319D01*
X-111801Y309642D01*
X-111755Y309686D01*
G37*
%LPD*%
%LPC*%
G36*
X-91399Y333289D02*
X-91399Y333289D01*
X-100849Y333289D01*
X-100792Y332933D01*
X-100199Y331108D01*
X-99328Y329398D01*
X-98200Y327845D01*
X-96843Y326488D01*
X-95290Y325360D01*
X-93580Y324489D01*
X-91698Y323877D01*
X-91543Y323809D01*
X-91399Y323751D01*
X-91399Y333289D01*
G37*
%LPD*%
%LPC*%
G36*
X-91399Y305603D02*
X-91399Y305603D01*
X-100849Y305603D01*
X-100792Y305247D01*
X-100199Y303422D01*
X-99328Y301712D01*
X-98200Y300159D01*
X-96843Y298802D01*
X-95290Y297674D01*
X-93580Y296803D01*
X-91698Y296191D01*
X-91543Y296123D01*
X-91399Y296065D01*
X-91399Y305603D01*
G37*
%LPD*%
%LPC*%
G36*
X-91399Y310601D02*
X-91399Y310601D01*
X-91399Y320138D01*
X-91426Y320127D01*
X-91451Y320112D01*
X-91532Y320082D01*
X-91698Y320013D01*
X-93580Y319401D01*
X-95290Y318530D01*
X-96843Y317402D01*
X-98200Y316045D01*
X-99328Y314492D01*
X-100199Y312782D01*
X-100792Y310957D01*
X-100849Y310601D01*
X-91399Y310601D01*
G37*
%LPD*%
%LPC*%
G36*
X-91399Y282915D02*
X-91399Y282915D01*
X-91399Y292452D01*
X-91426Y292441D01*
X-91451Y292426D01*
X-91532Y292396D01*
X-91698Y292327D01*
X-93580Y291715D01*
X-95290Y290844D01*
X-96843Y289716D01*
X-98200Y288359D01*
X-99328Y286806D01*
X-100199Y285096D01*
X-100792Y283271D01*
X-100849Y282915D01*
X-91399Y282915D01*
G37*
%LPD*%
D10*
X-44591Y585216D02*
X-49784Y591707D01*
X-26416Y591707D01*
X-26416Y585216D02*
X-26416Y598198D01*
X-26416Y605673D02*
X-27714Y605673D01*
X-27714Y606971D01*
X-26416Y606971D01*
X-26416Y605673D01*
X-26416Y614446D02*
X-26416Y622236D01*
X-26418Y622379D01*
X-26424Y622522D01*
X-26434Y622665D01*
X-26448Y622807D01*
X-26465Y622949D01*
X-26487Y623091D01*
X-26512Y623232D01*
X-26542Y623372D01*
X-26575Y623511D01*
X-26612Y623649D01*
X-26653Y623786D01*
X-26697Y623922D01*
X-26746Y624057D01*
X-26798Y624190D01*
X-26853Y624322D01*
X-26913Y624452D01*
X-26976Y624581D01*
X-27042Y624708D01*
X-27112Y624832D01*
X-27185Y624955D01*
X-27262Y625076D01*
X-27342Y625195D01*
X-27425Y625311D01*
X-27511Y625426D01*
X-27600Y625537D01*
X-27693Y625647D01*
X-27788Y625753D01*
X-27887Y625857D01*
X-27988Y625958D01*
X-28092Y626057D01*
X-28198Y626152D01*
X-28308Y626245D01*
X-28419Y626334D01*
X-28534Y626420D01*
X-28650Y626503D01*
X-28769Y626583D01*
X-28890Y626660D01*
X-29012Y626733D01*
X-29137Y626803D01*
X-29264Y626869D01*
X-29393Y626932D01*
X-29523Y626992D01*
X-29655Y627047D01*
X-29788Y627099D01*
X-29923Y627148D01*
X-30059Y627192D01*
X-30196Y627233D01*
X-30334Y627270D01*
X-30473Y627303D01*
X-30613Y627333D01*
X-30754Y627358D01*
X-30896Y627380D01*
X-31038Y627397D01*
X-31180Y627411D01*
X-31323Y627421D01*
X-31466Y627427D01*
X-31609Y627429D01*
X-31609Y627428D02*
X-34205Y627428D01*
X-34205Y627429D02*
X-34348Y627427D01*
X-34491Y627421D01*
X-34634Y627411D01*
X-34776Y627397D01*
X-34918Y627380D01*
X-35060Y627358D01*
X-35201Y627333D01*
X-35341Y627303D01*
X-35480Y627270D01*
X-35618Y627233D01*
X-35755Y627192D01*
X-35891Y627148D01*
X-36026Y627099D01*
X-36159Y627047D01*
X-36291Y626992D01*
X-36421Y626932D01*
X-36550Y626869D01*
X-36677Y626803D01*
X-36802Y626733D01*
X-36924Y626660D01*
X-37045Y626583D01*
X-37164Y626503D01*
X-37280Y626420D01*
X-37395Y626334D01*
X-37506Y626245D01*
X-37616Y626152D01*
X-37722Y626057D01*
X-37826Y625958D01*
X-37927Y625857D01*
X-38026Y625753D01*
X-38121Y625647D01*
X-38214Y625537D01*
X-38303Y625426D01*
X-38389Y625311D01*
X-38472Y625195D01*
X-38552Y625076D01*
X-38629Y624955D01*
X-38702Y624833D01*
X-38772Y624708D01*
X-38838Y624581D01*
X-38901Y624452D01*
X-38961Y624322D01*
X-39016Y624190D01*
X-39068Y624057D01*
X-39117Y623922D01*
X-39161Y623786D01*
X-39202Y623649D01*
X-39239Y623511D01*
X-39272Y623372D01*
X-39302Y623232D01*
X-39327Y623091D01*
X-39349Y622949D01*
X-39366Y622807D01*
X-39380Y622665D01*
X-39390Y622522D01*
X-39396Y622379D01*
X-39398Y622236D01*
X-39398Y614446D01*
X-49784Y614446D01*
X-49784Y627428D01*
D11*
X-114300Y101092D03*
X-114300Y128778D03*
X-114300Y156210D03*
X-114300Y183896D03*
X-114300Y211582D03*
X-114300Y239014D03*
X-114300Y266700D03*
X-114300Y294386D03*
X-114300Y321818D03*
X-114300Y349504D03*
X-114300Y377190D03*
X-114300Y404622D03*
X-114300Y432308D03*
X-88900Y114808D03*
X-88900Y142494D03*
X-88900Y170180D03*
X-88900Y197612D03*
X-88900Y225298D03*
X-88900Y252984D03*
X-88900Y280416D03*
X-88900Y308102D03*
X-88900Y335788D03*
X-88900Y363220D03*
X-88900Y390906D03*
X-88900Y418592D03*
D12*
X-101600Y501904D03*
X-101600Y31496D03*
D11*
X-304800Y508000D03*
X-330200Y25400D03*
X-279400Y508000D03*
X-254000Y508000D03*
X-228600Y508000D03*
X-203200Y508000D03*
X-330200Y508000D03*
X-355600Y508000D03*
X-381000Y508000D03*
X-421640Y508000D03*
X-447040Y508000D03*
X-472440Y508000D03*
X-497840Y508000D03*
X-523240Y508000D03*
X-548640Y508000D03*
X-574040Y508000D03*
X-599440Y508000D03*
X-304800Y25400D03*
X-279400Y25400D03*
X-254000Y25400D03*
X-228600Y25400D03*
X-203200Y25400D03*
X-381000Y25400D03*
X-406400Y25400D03*
X-431800Y25400D03*
X-457200Y25400D03*
X-482600Y25400D03*
X-508000Y25400D03*
X-533400Y25400D03*
X-624840Y508000D03*
X-650240Y508000D03*
X-558800Y25400D03*
D13*
X-698900Y575247D02*
X-698900Y593154D01*
X-748900Y593154D02*
X-748900Y575247D01*
X-584600Y575247D02*
X-584600Y593154D01*
X-634600Y593154D02*
X-634600Y575247D01*
D14*
X-241300Y571500D03*
X-342900Y571500D03*
X-241300Y609600D03*
X-342900Y609600D03*
D15*
X-393700Y594360D03*
D14*
X-393700Y574040D03*
D16*
X-442200Y609600D02*
X-457200Y609600D01*
X-457200Y584200D02*
X-442200Y584200D01*
X-533400Y584200D02*
X-548400Y584200D01*
X-548400Y609600D02*
X-533400Y609600D01*
D17*
X-345440Y574040D02*
X-342900Y571500D01*
X-345440Y574040D02*
X-393700Y574040D01*
X-403232Y564508D01*
X-467644Y564508D01*
X-527348Y624212D01*
X-698900Y609200D02*
X-698900Y584200D01*
X-683888Y624212D02*
X-527348Y624212D01*
X-683888Y624212D02*
X-698900Y609200D01*
X-457200Y609600D02*
X-342900Y609600D01*
X-667004Y514944D02*
X-667004Y501056D01*
X-667004Y514944D02*
X-657184Y524764D01*
X-598256Y432308D02*
X-114300Y432308D01*
X-598256Y432308D02*
X-667004Y501056D01*
X-540004Y524764D02*
X-523240Y508000D01*
X-540004Y524764D02*
X-657184Y524764D01*
X-676656Y518942D02*
X-676656Y497058D01*
X-676656Y518942D02*
X-661182Y534416D01*
X-132080Y422402D02*
X-114300Y404622D01*
X-132080Y422402D02*
X-602000Y422402D01*
X-676656Y497058D01*
X-524256Y534416D02*
X-497840Y508000D01*
X-524256Y534416D02*
X-661182Y534416D01*
X-686308Y522940D02*
X-686308Y493060D01*
X-686308Y522940D02*
X-665180Y544068D01*
X-149860Y412750D02*
X-114300Y377190D01*
X-149860Y412750D02*
X-605998Y412750D01*
X-686308Y493060D01*
X-508508Y544068D02*
X-472440Y508000D01*
X-508508Y544068D02*
X-665180Y544068D01*
X-695960Y526938D02*
X-695960Y489062D01*
X-695960Y526938D02*
X-669178Y553720D01*
X-609742Y402844D02*
X-167640Y402844D01*
X-114300Y349504D01*
X-609742Y402844D02*
X-695960Y489062D01*
X-492760Y553720D02*
X-447040Y508000D01*
X-492760Y553720D02*
X-669178Y553720D01*
X-88900Y146472D02*
X-88900Y142494D01*
X-88900Y146472D02*
X-72136Y163236D01*
X-72136Y425536D01*
X-95672Y449072D01*
X-362712Y449072D02*
X-421640Y508000D01*
X-362712Y449072D02*
X-95672Y449072D01*
X-266700Y571500D02*
X-330200Y508000D01*
X-266700Y571500D02*
X-241300Y571500D01*
X-256540Y556260D02*
X-304800Y508000D01*
X-256540Y556260D02*
X-234950Y556260D01*
X-226060Y565150D01*
X-226060Y594360D01*
X-241300Y609600D01*
X-114300Y101092D02*
X-113792Y101092D01*
X-110490Y97790D01*
X-81280Y97790D01*
X-52070Y127000D01*
X-52070Y432770D01*
X-87676Y468376D01*
X-139868Y468376D02*
X-196256Y524764D01*
X-139868Y468376D02*
X-87676Y468376D01*
X-262636Y524764D02*
X-279400Y508000D01*
X-262636Y524764D02*
X-196256Y524764D01*
X-254000Y508000D02*
X-204724Y458724D01*
X-91674Y458724D02*
X-62484Y429534D01*
X-91674Y458724D02*
X-204724Y458724D01*
X-88900Y118786D02*
X-88900Y114808D01*
X-88900Y118786D02*
X-62484Y145202D01*
X-62484Y429534D01*
X-330200Y88263D02*
X-330200Y25400D01*
X-330200Y88263D02*
X-297496Y120966D01*
D18*
X-297496Y120966D03*
D17*
X-146152Y124358D02*
X-114300Y156210D01*
X-146152Y124358D02*
X-146152Y121181D01*
D18*
X-146152Y121181D03*
D17*
X-184150Y141732D02*
X-114300Y211582D01*
X-184150Y141732D02*
X-184150Y82550D01*
D18*
X-184150Y82550D03*
D17*
X-304800Y74930D02*
X-304800Y25400D01*
X-304800Y74930D02*
X-297180Y82550D01*
D18*
X-297180Y82550D03*
D17*
X-238760Y142240D02*
X-114300Y266700D01*
X-238760Y142240D02*
X-238760Y66040D01*
X-279400Y25400D01*
X-254000Y25400D02*
X-252308Y25400D01*
X-235544Y8636D01*
X-195834Y8636D02*
X-185420Y19050D01*
X-195834Y8636D02*
X-235544Y8636D01*
X-185420Y57658D02*
X-114300Y128778D01*
X-185420Y57658D02*
X-185420Y19050D01*
X-165416Y132780D02*
X-114300Y183896D01*
X-165416Y132780D02*
X-165416Y101916D01*
D18*
X-165416Y101916D03*
D17*
X-228600Y92812D02*
X-228600Y25400D01*
X-228600Y92812D02*
X-219812Y101600D01*
D18*
X-219812Y101600D03*
D17*
X-203200Y150114D02*
X-203200Y25400D01*
X-203200Y150114D02*
X-114300Y239014D01*
X-533400Y609600D02*
X-629920Y609600D01*
X-635000Y604520D01*
X-635000Y584600D01*
X-634600Y584200D01*
X-584600Y584200D02*
X-533400Y584200D01*
M02*
