G04 EAGLE Gerber X2 export*
%TF.Part,Single*%
%TF.FileFunction,Copper,L2,Bot,Mixed*%
%TF.FilePolarity,Positive*%
%TF.GenerationSoftware,Autodesk,EAGLE,9.6.2*%
%TF.CreationDate,2020-09-17T17:49:48Z*%
G75*
%MOMM*%
%FSLAX34Y34*%
%LPD*%
%INBottom Copper*%
%AMOC8*
5,1,8,0,0,1.08239X$1,22.5*%
G01*
%ADD10C,0.355600*%
%ADD11C,0.279400*%
%ADD12C,1.638300*%
%ADD13P,1.814519X8X22.500000*%
%ADD14C,1.790700*%
%ADD15P,1.429621X8X292.500000*%
%ADD16C,1.320800*%
%ADD17C,1.320800*%
%ADD18C,0.508000*%

G36*
X-1016005Y-12701D02*
X-1016005Y-12701D01*
X-1016005Y-12700D01*
X-1016005Y711200D01*
X-1016001Y711205D01*
X-1016000Y711205D01*
X12700Y711205D01*
X12705Y711201D01*
X12705Y711200D01*
X12705Y-12700D01*
X12701Y-12705D01*
X12700Y-12705D01*
X-1016000Y-12705D01*
X-1016005Y-12701D01*
G37*
%LPC*%
G36*
X-242680Y5593D02*
X-242680Y5593D01*
X-240068Y6675D01*
X-238068Y8675D01*
X-126947Y119796D01*
X-126945Y119796D01*
X-126944Y119797D01*
X-126942Y119797D01*
X-126942Y119796D01*
X-126940Y119796D01*
X-126940Y119793D01*
X-126939Y119792D01*
X-126939Y119791D01*
X-128583Y115822D01*
X-128583Y110746D01*
X-126640Y106057D01*
X-123051Y102468D01*
X-118362Y100525D01*
X-113286Y100525D01*
X-113169Y100574D01*
X-113166Y100573D01*
X-113164Y100573D01*
X-108166Y95575D01*
X-105554Y94493D01*
X-74786Y94493D01*
X-72174Y95575D01*
X-32075Y135674D01*
X-30993Y138286D01*
X-30993Y547514D01*
X-32075Y550126D01*
X-161074Y679125D01*
X-163686Y680207D01*
X-712614Y680207D01*
X-715226Y679125D01*
X-766025Y628326D01*
X-768025Y626326D01*
X-769107Y623714D01*
X-769107Y519286D01*
X-768025Y516674D01*
X-740626Y489275D01*
X-738014Y488193D01*
X-392286Y488193D01*
X-389674Y489275D01*
X-362275Y516674D01*
X-361193Y519286D01*
X-361193Y547592D01*
X-361191Y547594D01*
X-361191Y547596D01*
X-355604Y553184D01*
X-355597Y553184D01*
X-355596Y553184D01*
X-348264Y545851D01*
X-337536Y545851D01*
X-330204Y553184D01*
X-330197Y553184D01*
X-330196Y553184D01*
X-322864Y545851D01*
X-312136Y545851D01*
X-304551Y553436D01*
X-304551Y564164D01*
X-312136Y571749D01*
X-322864Y571749D01*
X-330196Y564416D01*
X-330199Y564416D01*
X-330200Y564415D01*
X-330201Y564416D01*
X-330203Y564416D01*
X-330204Y564416D01*
X-337536Y571749D01*
X-348264Y571749D01*
X-355596Y564416D01*
X-355599Y564416D01*
X-355600Y564415D01*
X-355601Y564416D01*
X-355603Y564416D01*
X-355604Y564416D01*
X-362936Y571749D01*
X-373664Y571749D01*
X-380996Y564416D01*
X-380999Y564416D01*
X-381000Y564415D01*
X-381001Y564416D01*
X-381003Y564416D01*
X-381004Y564416D01*
X-388336Y571749D01*
X-399064Y571749D01*
X-406396Y564416D01*
X-406399Y564416D01*
X-406400Y564415D01*
X-406401Y564416D01*
X-406403Y564416D01*
X-406404Y564416D01*
X-413736Y571749D01*
X-424464Y571749D01*
X-431796Y564416D01*
X-431799Y564416D01*
X-431800Y564415D01*
X-431801Y564416D01*
X-431803Y564416D01*
X-431804Y564416D01*
X-439136Y571749D01*
X-449864Y571749D01*
X-457196Y564416D01*
X-457199Y564416D01*
X-457200Y564415D01*
X-457201Y564416D01*
X-457203Y564416D01*
X-457204Y564416D01*
X-464536Y571749D01*
X-475264Y571749D01*
X-482596Y564416D01*
X-482599Y564416D01*
X-482600Y564415D01*
X-482601Y564416D01*
X-482603Y564416D01*
X-482604Y564416D01*
X-489936Y571749D01*
X-500664Y571749D01*
X-508249Y564164D01*
X-508249Y553436D01*
X-500664Y545851D01*
X-489936Y545851D01*
X-482604Y553184D01*
X-482597Y553184D01*
X-482596Y553184D01*
X-475264Y545851D01*
X-464536Y545851D01*
X-457204Y553184D01*
X-457197Y553184D01*
X-457196Y553184D01*
X-451609Y547596D01*
X-451608Y547593D01*
X-451607Y547592D01*
X-451607Y542093D01*
X-451609Y542092D01*
X-451609Y542090D01*
X-455671Y538027D01*
X-455671Y528773D01*
X-449127Y522229D01*
X-439873Y522229D01*
X-433329Y528773D01*
X-433329Y538027D01*
X-437391Y542090D01*
X-437392Y542092D01*
X-437393Y542093D01*
X-437393Y547592D01*
X-437391Y547594D01*
X-437391Y547596D01*
X-431804Y553184D01*
X-431797Y553184D01*
X-431796Y553184D01*
X-426209Y547596D01*
X-426208Y547593D01*
X-426207Y547592D01*
X-426207Y542093D01*
X-426209Y542092D01*
X-426209Y542090D01*
X-430271Y538027D01*
X-430271Y528773D01*
X-423727Y522229D01*
X-414473Y522229D01*
X-407929Y528773D01*
X-407929Y538027D01*
X-411991Y542090D01*
X-411992Y542092D01*
X-411993Y542093D01*
X-411993Y547592D01*
X-411991Y547594D01*
X-411991Y547596D01*
X-406404Y553184D01*
X-406397Y553184D01*
X-406396Y553184D01*
X-400809Y547596D01*
X-400808Y547593D01*
X-400807Y547592D01*
X-400807Y523646D01*
X-400809Y523644D01*
X-400809Y523642D01*
X-409342Y515109D01*
X-409345Y515108D01*
X-409346Y515107D01*
X-720954Y515107D01*
X-720956Y515109D01*
X-720958Y515109D01*
X-742191Y536342D01*
X-742192Y536345D01*
X-742193Y536346D01*
X-742193Y541630D01*
X-742192Y541631D01*
X-742192Y541633D01*
X-742190Y541633D01*
X-742188Y541635D01*
X-742187Y541634D01*
X-742186Y541633D01*
X-742184Y541633D01*
X-740625Y540074D01*
X-727926Y527375D01*
X-725314Y526293D01*
X-582786Y526293D01*
X-580174Y527375D01*
X-578174Y529375D01*
X-561700Y545849D01*
X-561697Y545850D01*
X-561696Y545851D01*
X-555976Y545851D01*
X-548644Y553184D01*
X-548637Y553184D01*
X-548636Y553184D01*
X-541304Y545851D01*
X-530576Y545851D01*
X-522991Y553436D01*
X-522991Y561696D01*
X-522989Y561698D01*
X-522989Y561700D01*
X-494898Y589791D01*
X-494895Y589792D01*
X-494894Y589793D01*
X-244246Y589793D01*
X-244244Y589791D01*
X-244242Y589791D01*
X-184909Y530458D01*
X-184909Y530456D01*
X-184907Y530454D01*
X-184907Y423020D01*
X-183825Y420408D01*
X-181825Y418408D01*
X-128535Y365118D01*
X-128535Y365115D01*
X-128534Y365114D01*
X-128535Y365114D01*
X-128534Y365113D01*
X-128583Y364996D01*
X-128583Y359920D01*
X-126640Y355231D01*
X-123051Y351642D01*
X-118362Y349699D01*
X-113286Y349699D01*
X-108597Y351642D01*
X-105008Y355231D01*
X-103065Y359920D01*
X-103065Y364996D01*
X-105008Y369685D01*
X-108597Y373274D01*
X-113286Y375217D01*
X-118362Y375217D01*
X-118479Y375168D01*
X-118482Y375169D01*
X-118484Y375169D01*
X-122336Y379021D01*
X-122336Y379024D01*
X-122337Y379026D01*
X-122336Y379026D01*
X-122336Y379028D01*
X-122333Y379028D01*
X-122331Y379029D01*
X-118362Y377385D01*
X-113286Y377385D01*
X-108597Y379328D01*
X-105008Y382917D01*
X-103065Y387606D01*
X-103065Y392682D01*
X-105008Y397371D01*
X-108597Y400960D01*
X-113286Y402903D01*
X-118362Y402903D01*
X-118479Y402854D01*
X-118482Y402855D01*
X-118484Y402855D01*
X-122336Y406707D01*
X-122336Y406710D01*
X-122337Y406712D01*
X-122336Y406712D01*
X-122336Y406714D01*
X-122333Y406714D01*
X-122331Y406715D01*
X-118362Y405071D01*
X-113286Y405071D01*
X-108597Y407014D01*
X-105008Y410603D01*
X-103065Y415292D01*
X-103065Y420368D01*
X-105008Y425057D01*
X-108597Y428646D01*
X-113286Y430589D01*
X-118362Y430589D01*
X-118479Y430540D01*
X-118482Y430541D01*
X-118484Y430541D01*
X-122336Y434393D01*
X-122336Y434396D01*
X-122337Y434398D01*
X-122336Y434398D01*
X-122336Y434400D01*
X-122333Y434400D01*
X-122331Y434401D01*
X-118362Y432757D01*
X-113286Y432757D01*
X-108597Y434700D01*
X-105008Y438289D01*
X-103065Y442978D01*
X-103065Y448054D01*
X-105008Y452743D01*
X-108597Y456332D01*
X-113286Y458275D01*
X-118362Y458275D01*
X-118479Y458226D01*
X-118482Y458227D01*
X-118484Y458227D01*
X-132591Y472334D01*
X-132592Y472337D01*
X-132593Y472338D01*
X-132593Y572914D01*
X-133675Y575526D01*
X-197174Y639025D01*
X-198733Y640584D01*
X-198733Y640586D01*
X-198735Y640587D01*
X-198733Y640589D01*
X-198734Y640591D01*
X-198731Y640591D01*
X-198730Y640593D01*
X-193446Y640593D01*
X-193444Y640591D01*
X-193442Y640591D01*
X-70609Y517758D01*
X-70609Y517755D01*
X-70607Y517754D01*
X-70607Y181635D01*
X-70609Y181633D01*
X-70609Y181631D01*
X-84716Y167524D01*
X-84719Y167524D01*
X-84721Y167523D01*
X-84838Y167572D01*
X-89914Y167572D01*
X-94603Y165629D01*
X-98192Y162040D01*
X-100135Y157351D01*
X-100135Y152275D01*
X-98192Y147586D01*
X-94603Y143997D01*
X-89914Y142054D01*
X-84838Y142054D01*
X-80869Y143698D01*
X-80867Y143697D01*
X-80864Y143698D01*
X-80864Y143696D01*
X-80863Y143696D01*
X-80864Y143693D01*
X-80864Y143690D01*
X-84716Y139838D01*
X-84719Y139838D01*
X-84721Y139837D01*
X-84838Y139886D01*
X-89914Y139886D01*
X-94603Y137943D01*
X-98192Y134354D01*
X-100135Y129665D01*
X-100135Y124589D01*
X-98192Y119900D01*
X-94603Y116311D01*
X-89914Y114368D01*
X-84838Y114368D01*
X-80149Y116311D01*
X-76560Y119900D01*
X-74617Y124589D01*
X-74617Y129665D01*
X-74666Y129782D01*
X-74665Y129783D01*
X-74666Y129783D01*
X-74665Y129784D01*
X-74665Y129785D01*
X-74665Y129787D01*
X-46775Y157677D01*
X-45216Y159236D01*
X-45214Y159236D01*
X-45213Y159238D01*
X-45211Y159236D01*
X-45209Y159237D01*
X-45209Y159234D01*
X-45207Y159233D01*
X-45207Y142646D01*
X-45209Y142644D01*
X-45209Y142642D01*
X-79142Y108709D01*
X-79145Y108708D01*
X-79146Y108707D01*
X-101194Y108707D01*
X-101196Y108709D01*
X-101198Y108709D01*
X-103113Y110624D01*
X-103113Y110627D01*
X-103114Y110629D01*
X-103065Y110746D01*
X-103065Y115822D01*
X-105008Y120511D01*
X-108597Y124100D01*
X-113286Y126043D01*
X-118362Y126043D01*
X-122331Y124399D01*
X-122333Y124400D01*
X-122336Y124399D01*
X-122336Y124401D01*
X-122337Y124401D01*
X-122336Y124404D01*
X-122336Y124407D01*
X-118484Y128259D01*
X-118481Y128259D01*
X-118479Y128260D01*
X-118362Y128211D01*
X-113286Y128211D01*
X-108597Y130154D01*
X-105008Y133743D01*
X-103065Y138432D01*
X-103065Y143508D01*
X-105008Y148197D01*
X-108597Y151786D01*
X-113286Y153729D01*
X-118362Y153729D01*
X-122331Y152085D01*
X-122333Y152086D01*
X-122336Y152085D01*
X-122336Y152087D01*
X-122337Y152087D01*
X-122336Y152090D01*
X-122336Y152093D01*
X-118484Y155945D01*
X-118481Y155945D01*
X-118479Y155946D01*
X-118362Y155897D01*
X-113286Y155897D01*
X-108597Y157840D01*
X-105008Y161429D01*
X-103065Y166118D01*
X-103065Y171194D01*
X-105008Y175883D01*
X-108597Y179472D01*
X-113286Y181415D01*
X-118362Y181415D01*
X-122331Y179771D01*
X-122333Y179772D01*
X-122336Y179771D01*
X-122336Y179773D01*
X-122337Y179773D01*
X-122336Y179776D01*
X-122336Y179779D01*
X-118484Y183631D01*
X-118481Y183631D01*
X-118479Y183632D01*
X-118362Y183583D01*
X-113286Y183583D01*
X-108597Y185526D01*
X-105008Y189115D01*
X-103065Y193804D01*
X-103065Y198880D01*
X-105008Y203569D01*
X-108597Y207158D01*
X-113286Y209101D01*
X-118362Y209101D01*
X-122331Y207457D01*
X-122333Y207458D01*
X-122336Y207457D01*
X-122336Y207459D01*
X-122337Y207459D01*
X-122336Y207462D01*
X-122336Y207465D01*
X-118484Y211317D01*
X-118481Y211317D01*
X-118479Y211318D01*
X-118362Y211269D01*
X-113286Y211269D01*
X-108597Y213212D01*
X-105008Y216801D01*
X-103065Y221490D01*
X-103065Y226566D01*
X-105008Y231255D01*
X-108597Y234844D01*
X-113286Y236787D01*
X-118362Y236787D01*
X-122331Y235143D01*
X-122333Y235144D01*
X-122336Y235143D01*
X-122336Y235145D01*
X-122337Y235145D01*
X-122336Y235148D01*
X-122336Y235151D01*
X-118484Y239003D01*
X-118481Y239003D01*
X-118479Y239004D01*
X-118362Y238955D01*
X-113286Y238955D01*
X-108597Y240898D01*
X-105008Y244487D01*
X-103065Y249176D01*
X-103065Y254252D01*
X-105008Y258941D01*
X-108597Y262530D01*
X-113286Y264473D01*
X-118362Y264473D01*
X-122331Y262829D01*
X-122333Y262830D01*
X-122336Y262829D01*
X-122336Y262831D01*
X-122337Y262831D01*
X-122336Y262834D01*
X-122336Y262837D01*
X-118484Y266689D01*
X-118481Y266689D01*
X-118479Y266690D01*
X-118362Y266641D01*
X-113286Y266641D01*
X-108597Y268584D01*
X-105008Y272173D01*
X-103065Y276862D01*
X-103065Y281938D01*
X-105008Y286627D01*
X-108597Y290216D01*
X-113286Y292159D01*
X-118362Y292159D01*
X-123051Y290216D01*
X-126640Y286627D01*
X-128583Y281938D01*
X-128583Y276862D01*
X-128534Y276745D01*
X-128535Y276742D01*
X-128535Y276740D01*
X-316124Y89151D01*
X-316127Y89150D01*
X-316128Y89149D01*
X-322864Y89149D01*
X-330196Y81816D01*
X-330199Y81816D01*
X-330200Y81815D01*
X-330201Y81816D01*
X-330203Y81816D01*
X-330204Y81816D01*
X-337536Y89149D01*
X-348264Y89149D01*
X-355596Y81816D01*
X-355599Y81816D01*
X-355600Y81815D01*
X-355601Y81816D01*
X-355603Y81816D01*
X-355604Y81816D01*
X-362936Y89149D01*
X-373664Y89149D01*
X-380996Y81816D01*
X-380999Y81816D01*
X-381000Y81815D01*
X-381001Y81816D01*
X-381003Y81816D01*
X-381004Y81816D01*
X-388336Y89149D01*
X-399064Y89149D01*
X-406396Y81816D01*
X-406399Y81816D01*
X-406400Y81815D01*
X-406401Y81816D01*
X-406403Y81816D01*
X-406404Y81816D01*
X-413736Y89149D01*
X-424464Y89149D01*
X-431796Y81816D01*
X-431799Y81816D01*
X-431800Y81815D01*
X-431801Y81816D01*
X-431803Y81816D01*
X-431804Y81816D01*
X-439136Y89149D01*
X-449864Y89149D01*
X-457449Y81564D01*
X-457449Y70836D01*
X-451609Y64996D01*
X-451608Y64993D01*
X-451607Y64992D01*
X-451607Y11286D01*
X-450525Y8674D01*
X-448526Y6675D01*
X-445914Y5593D01*
X-242680Y5593D01*
G37*
%LPD*%
%LPC*%
G36*
X-468486Y373893D02*
X-468486Y373893D01*
X-465874Y374975D01*
X-420222Y420627D01*
X-420219Y420628D01*
X-420218Y420629D01*
X-414473Y420629D01*
X-410410Y424691D01*
X-410408Y424692D01*
X-410407Y424693D01*
X-378503Y424693D01*
X-378500Y424690D01*
X-378499Y424690D01*
X-377771Y422932D01*
X-374628Y419789D01*
X-370522Y418089D01*
X-370521Y418086D01*
X-370519Y418085D01*
X-370520Y418084D01*
X-370519Y418083D01*
X-370522Y418081D01*
X-370524Y418079D01*
X-372086Y418079D01*
X-377439Y412726D01*
X-377439Y408945D01*
X-368300Y408945D01*
X-359161Y408945D01*
X-359161Y412726D01*
X-364514Y418079D01*
X-366076Y418079D01*
X-366078Y418081D01*
X-366080Y418082D01*
X-366080Y418083D01*
X-366081Y418084D01*
X-366079Y418086D01*
X-366078Y418089D01*
X-361972Y419789D01*
X-358829Y422932D01*
X-357129Y427038D01*
X-357129Y431482D01*
X-358829Y435588D01*
X-361972Y438731D01*
X-366078Y440431D01*
X-370522Y440431D01*
X-374200Y438908D01*
X-374202Y438908D01*
X-374202Y438907D01*
X-410407Y438907D01*
X-410408Y438909D01*
X-410410Y438909D01*
X-414473Y442971D01*
X-423727Y442971D01*
X-430271Y436427D01*
X-430271Y430682D01*
X-430273Y430680D01*
X-430273Y430678D01*
X-433320Y427631D01*
X-433322Y427631D01*
X-433323Y427629D01*
X-433325Y427631D01*
X-433327Y427630D01*
X-433327Y427633D01*
X-433329Y427634D01*
X-433329Y436427D01*
X-439873Y442971D01*
X-449127Y442971D01*
X-453190Y438909D01*
X-453192Y438908D01*
X-453193Y438907D01*
X-473399Y438907D01*
X-473400Y438909D01*
X-473402Y438909D01*
X-475764Y441271D01*
X-479870Y442971D01*
X-497522Y442971D01*
X-501628Y441271D01*
X-504771Y438128D01*
X-506471Y434022D01*
X-506471Y429578D01*
X-504771Y425472D01*
X-501628Y422329D01*
X-497522Y420629D01*
X-479870Y420629D01*
X-475764Y422329D01*
X-473402Y424691D01*
X-473400Y424692D01*
X-473399Y424693D01*
X-453193Y424693D01*
X-453192Y424691D01*
X-453190Y424691D01*
X-449127Y420629D01*
X-440334Y420629D01*
X-440333Y420628D01*
X-440331Y420628D01*
X-440331Y420626D01*
X-440329Y420624D01*
X-440331Y420623D01*
X-440331Y420620D01*
X-472842Y388109D01*
X-472845Y388108D01*
X-472846Y388107D01*
X-720954Y388107D01*
X-720956Y388109D01*
X-720958Y388109D01*
X-907691Y574842D01*
X-907692Y574845D01*
X-907693Y574846D01*
X-907693Y614352D01*
X-907690Y614355D01*
X-907690Y614357D01*
X-907141Y614584D01*
X-903338Y618388D01*
X-901279Y623357D01*
X-901279Y646643D01*
X-903338Y651612D01*
X-907141Y655416D01*
X-912111Y657474D01*
X-917489Y657474D01*
X-922459Y655416D01*
X-926262Y651612D01*
X-928321Y646643D01*
X-928321Y623357D01*
X-926262Y618388D01*
X-922459Y614584D01*
X-921910Y614357D01*
X-921909Y614354D01*
X-921907Y614352D01*
X-921907Y570486D01*
X-920825Y567874D01*
X-727926Y374975D01*
X-725314Y373893D01*
X-468486Y373893D01*
G37*
%LPD*%
G36*
X-720956Y540509D02*
X-720956Y540509D01*
X-720958Y540509D01*
X-729491Y549042D01*
X-729492Y549045D01*
X-729493Y549046D01*
X-729493Y593954D01*
X-729491Y593956D01*
X-729491Y593958D01*
X-682858Y640591D01*
X-682855Y640592D01*
X-682854Y640593D01*
X-565810Y640593D01*
X-565809Y640592D01*
X-565807Y640592D01*
X-565807Y640590D01*
X-565805Y640588D01*
X-565807Y640587D01*
X-565807Y640584D01*
X-634640Y571751D01*
X-634643Y571750D01*
X-634644Y571749D01*
X-642904Y571749D01*
X-650236Y564416D01*
X-650239Y564416D01*
X-650240Y564415D01*
X-650241Y564416D01*
X-650243Y564416D01*
X-650244Y564416D01*
X-657576Y571749D01*
X-668304Y571749D01*
X-675889Y564164D01*
X-675889Y553436D01*
X-668304Y545851D01*
X-657576Y545851D01*
X-650244Y553184D01*
X-650237Y553184D01*
X-650236Y553184D01*
X-642904Y545851D01*
X-632176Y545851D01*
X-624844Y553184D01*
X-624837Y553184D01*
X-624836Y553184D01*
X-617504Y545851D01*
X-606776Y545851D01*
X-599444Y553184D01*
X-599437Y553184D01*
X-599436Y553184D01*
X-592104Y545851D01*
X-581812Y545851D01*
X-581811Y545850D01*
X-581809Y545850D01*
X-581809Y545848D01*
X-581807Y545846D01*
X-581809Y545845D01*
X-581809Y545842D01*
X-587142Y540509D01*
X-587145Y540508D01*
X-587146Y540507D01*
X-720954Y540507D01*
X-720956Y540509D01*
G37*
%LPC*%
G36*
X-569278Y395229D02*
X-569278Y395229D01*
X-565172Y396929D01*
X-562029Y400072D01*
X-560329Y404178D01*
X-560329Y408622D01*
X-562029Y412728D01*
X-565172Y415871D01*
X-569278Y417571D01*
X-586930Y417571D01*
X-591036Y415871D01*
X-593398Y413509D01*
X-593400Y413508D01*
X-593401Y413507D01*
X-720954Y413507D01*
X-720956Y413509D01*
X-720958Y413509D01*
X-856091Y548642D01*
X-856092Y548645D01*
X-856093Y548646D01*
X-856093Y614352D01*
X-856090Y614355D01*
X-856090Y614357D01*
X-855541Y614584D01*
X-851738Y618388D01*
X-849679Y623357D01*
X-849679Y646643D01*
X-851738Y651612D01*
X-855541Y655416D01*
X-860511Y657474D01*
X-865889Y657474D01*
X-870859Y655416D01*
X-874662Y651612D01*
X-876721Y646643D01*
X-876721Y623357D01*
X-874662Y618388D01*
X-870859Y614584D01*
X-870310Y614357D01*
X-870309Y614354D01*
X-870307Y614352D01*
X-870307Y544286D01*
X-869225Y541674D01*
X-727926Y400375D01*
X-725314Y399293D01*
X-593401Y399293D01*
X-593400Y399291D01*
X-593398Y399291D01*
X-591036Y396929D01*
X-586930Y395229D01*
X-569278Y395229D01*
G37*
%LPD*%
%LPC*%
G36*
X-569278Y420629D02*
X-569278Y420629D01*
X-565172Y422329D01*
X-562029Y425472D01*
X-560329Y429578D01*
X-560329Y434022D01*
X-562029Y438128D01*
X-565172Y441271D01*
X-569278Y442971D01*
X-586930Y442971D01*
X-591036Y441271D01*
X-593398Y438909D01*
X-593400Y438908D01*
X-593401Y438907D01*
X-720954Y438907D01*
X-720956Y438909D01*
X-720958Y438909D01*
X-818391Y536342D01*
X-818392Y536345D01*
X-818393Y536346D01*
X-818393Y593954D01*
X-818391Y593956D01*
X-818391Y593958D01*
X-806775Y605574D01*
X-805693Y608186D01*
X-805693Y614518D01*
X-805690Y614521D01*
X-805690Y614523D01*
X-805541Y614584D01*
X-801738Y618388D01*
X-799679Y623357D01*
X-799679Y646643D01*
X-801738Y651612D01*
X-805541Y655416D01*
X-810511Y657474D01*
X-815889Y657474D01*
X-820859Y655416D01*
X-824662Y651612D01*
X-826721Y646643D01*
X-826721Y623357D01*
X-824662Y618388D01*
X-820859Y614584D01*
X-819910Y614191D01*
X-819909Y614188D01*
X-819908Y614188D01*
X-819907Y614187D01*
X-819907Y612546D01*
X-819909Y612544D01*
X-819909Y612542D01*
X-831525Y600926D01*
X-832607Y598314D01*
X-832607Y531986D01*
X-831525Y529374D01*
X-727926Y425775D01*
X-725314Y424693D01*
X-593401Y424693D01*
X-593400Y424691D01*
X-593398Y424691D01*
X-591036Y422329D01*
X-586930Y420629D01*
X-569278Y420629D01*
G37*
%LPD*%
%LPC*%
G36*
X-603809Y180429D02*
X-603809Y180429D01*
X-603807Y180429D01*
X-603806Y180430D01*
X-602745Y180430D01*
X-601683Y181491D01*
X-601682Y181491D01*
X-601682Y181492D01*
X-600339Y182164D01*
X-600003Y183171D01*
X-600002Y183172D01*
X-600002Y183173D01*
X-599251Y183923D01*
X-599251Y185425D01*
X-599251Y185426D01*
X-599251Y185427D01*
X-597857Y189609D01*
X-596942Y191439D01*
X-597094Y191895D01*
X-597093Y191897D01*
X-597094Y191897D01*
X-597093Y191898D01*
X-597094Y191899D01*
X-593273Y203361D01*
X-595483Y207781D01*
X-600170Y209343D01*
X-603379Y207738D01*
X-603380Y207739D01*
X-603380Y207738D01*
X-603382Y207738D01*
X-603383Y207739D01*
X-603383Y207738D01*
X-606592Y209343D01*
X-611280Y207781D01*
X-611461Y207419D01*
X-611467Y207416D01*
X-611467Y207417D01*
X-611468Y207416D01*
X-613661Y208683D01*
X-613662Y208684D01*
X-613846Y208868D01*
X-614934Y208868D01*
X-614939Y208872D01*
X-614938Y208873D01*
X-614939Y208873D01*
X-614939Y210877D01*
X-615386Y211324D01*
X-615386Y211326D01*
X-615387Y211327D01*
X-615386Y211329D01*
X-615386Y211331D01*
X-615384Y211331D01*
X-615382Y211333D01*
X-609260Y211333D01*
X-605767Y214827D01*
X-605767Y216127D01*
X-605765Y216128D01*
X-605765Y216131D01*
X-605763Y216130D01*
X-605762Y216132D01*
X-605761Y216131D01*
X-605760Y216130D01*
X-605757Y216129D01*
X-603543Y212212D01*
X-598782Y210889D01*
X-594481Y213320D01*
X-594109Y214661D01*
X-594108Y214661D01*
X-594108Y214663D01*
X-594106Y214663D01*
X-594103Y214664D01*
X-594102Y214663D01*
X-594100Y214663D01*
X-590770Y211333D01*
X-585815Y211333D01*
X-585814Y211332D01*
X-585812Y211332D01*
X-585812Y211330D01*
X-585810Y211328D01*
X-585812Y211327D01*
X-585812Y211324D01*
X-586259Y210877D01*
X-586259Y197866D01*
X-586263Y197861D01*
X-586263Y197862D01*
X-586264Y197861D01*
X-588268Y197861D01*
X-591762Y194367D01*
X-591762Y189427D01*
X-588268Y185933D01*
X-581382Y185933D01*
X-576912Y188514D01*
X-576518Y189196D01*
X-576517Y189197D01*
X-576516Y189198D01*
X-576514Y189197D01*
X-576511Y189198D01*
X-576511Y189197D01*
X-576509Y189196D01*
X-576044Y188391D01*
X-571816Y185950D01*
X-571815Y185949D01*
X-571814Y185949D01*
X-571798Y185933D01*
X-571788Y185933D01*
X-566856Y185933D01*
X-566855Y185933D01*
X-562730Y185933D01*
X-560881Y187782D01*
X-560875Y187782D01*
X-560874Y187782D01*
X-559025Y185933D01*
X-554084Y185933D01*
X-553152Y186865D01*
X-553149Y186865D01*
X-553147Y186866D01*
X-548610Y185470D01*
X-544617Y187584D01*
X-544614Y187583D01*
X-544612Y187584D01*
X-541752Y185933D01*
X-536590Y185933D01*
X-532497Y188296D01*
X-532496Y188295D01*
X-532496Y188296D01*
X-532494Y188296D01*
X-532493Y188295D01*
X-532491Y188295D01*
X-530129Y185933D01*
X-520602Y185933D01*
X-520418Y186117D01*
X-520417Y186117D01*
X-520417Y186118D01*
X-516692Y188268D01*
X-514542Y191993D01*
X-514541Y191993D01*
X-514541Y191994D01*
X-514357Y192178D01*
X-514357Y202622D01*
X-514541Y202806D01*
X-514541Y202807D01*
X-514542Y202807D01*
X-516692Y206532D01*
X-520417Y208683D01*
X-520417Y208684D01*
X-520418Y208684D01*
X-520602Y208868D01*
X-521690Y208868D01*
X-521695Y208872D01*
X-521694Y208873D01*
X-521695Y208873D01*
X-521695Y210877D01*
X-522141Y211324D01*
X-522142Y211326D01*
X-522143Y211327D01*
X-522142Y211329D01*
X-522142Y211331D01*
X-522139Y211331D01*
X-522138Y211333D01*
X-516166Y211333D01*
X-511285Y214819D01*
X-510432Y217307D01*
X-510432Y217308D01*
X-509617Y218980D01*
X-508687Y223008D01*
X-508686Y223009D01*
X-508686Y223010D01*
X-508614Y223082D01*
X-508614Y228022D01*
X-508686Y228094D01*
X-508686Y228096D01*
X-508687Y228096D01*
X-509617Y232124D01*
X-509744Y232386D01*
X-509744Y232387D01*
X-509745Y232388D01*
X-509841Y233252D01*
X-510374Y233678D01*
X-510374Y233680D01*
X-510375Y233680D01*
X-510432Y233796D01*
X-510432Y233797D01*
X-511285Y236285D01*
X-516166Y239771D01*
X-522163Y239771D01*
X-527044Y236285D01*
X-527254Y235673D01*
X-527255Y235672D01*
X-527256Y235670D01*
X-527258Y235671D01*
X-527260Y235669D01*
X-527261Y235671D01*
X-527263Y235672D01*
X-528069Y237067D01*
X-532752Y239771D01*
X-537927Y239771D01*
X-537985Y239713D01*
X-537987Y239712D01*
X-542231Y237820D01*
X-545437Y234256D01*
X-546175Y231976D01*
X-546936Y229625D01*
X-544689Y225225D01*
X-542266Y224440D01*
X-542265Y224440D01*
X-542264Y224438D01*
X-542262Y224435D01*
X-542264Y224434D01*
X-542263Y224433D01*
X-543501Y222976D01*
X-543508Y222975D01*
X-543508Y222976D01*
X-543509Y222976D01*
X-544711Y224178D01*
X-548810Y224178D01*
X-548815Y224183D01*
X-548815Y226748D01*
X-548815Y232048D01*
X-551642Y236944D01*
X-556539Y239771D01*
X-562192Y239771D01*
X-567089Y236944D01*
X-567945Y235461D01*
X-567947Y235460D01*
X-567947Y235459D01*
X-567949Y235460D01*
X-567949Y235459D01*
X-567950Y235459D01*
X-567951Y235459D01*
X-567952Y235461D01*
X-567954Y235462D01*
X-568236Y236285D01*
X-573117Y239771D01*
X-579115Y239771D01*
X-583995Y236285D01*
X-584848Y233797D01*
X-584849Y233797D01*
X-584849Y233796D01*
X-585664Y232124D01*
X-586593Y228096D01*
X-586595Y228095D01*
X-586595Y228094D01*
X-586666Y228022D01*
X-586666Y224183D01*
X-586671Y224178D01*
X-586671Y224179D01*
X-586671Y224178D01*
X-590770Y224178D01*
X-591719Y223230D01*
X-591721Y223230D01*
X-591723Y223228D01*
X-591724Y223230D01*
X-591725Y223229D01*
X-591726Y223232D01*
X-591727Y223235D01*
X-589654Y230698D01*
X-589653Y230699D01*
X-589653Y230700D01*
X-589016Y231337D01*
X-589016Y232993D01*
X-589016Y232994D01*
X-589016Y232995D01*
X-588573Y234591D01*
X-589016Y235375D01*
X-589015Y235376D01*
X-589016Y235377D01*
X-589016Y236277D01*
X-590188Y237449D01*
X-590188Y237450D01*
X-590189Y237450D01*
X-591004Y238892D01*
X-591871Y239133D01*
X-591872Y239135D01*
X-591873Y239135D01*
X-592510Y239771D01*
X-594167Y239771D01*
X-594167Y239772D01*
X-594168Y239771D01*
X-595764Y240215D01*
X-596548Y239772D01*
X-596549Y239772D01*
X-596550Y239772D01*
X-596551Y239771D01*
X-606623Y239771D01*
X-610117Y236277D01*
X-610117Y235618D01*
X-610118Y235617D01*
X-610118Y235615D01*
X-610120Y235615D01*
X-610121Y235613D01*
X-610123Y235615D01*
X-610126Y235615D01*
X-610352Y235898D01*
X-610352Y235900D01*
X-610353Y235901D01*
X-610353Y236277D01*
X-611866Y237791D01*
X-613203Y239462D01*
X-613577Y239503D01*
X-613579Y239505D01*
X-613580Y239505D01*
X-613846Y239771D01*
X-615986Y239771D01*
X-615987Y239771D01*
X-618114Y240008D01*
X-618408Y239772D01*
X-618409Y239772D01*
X-618410Y239772D01*
X-618411Y239771D01*
X-618787Y239771D01*
X-620300Y238258D01*
X-620301Y238258D01*
X-626558Y233252D01*
X-627104Y228341D01*
X-624017Y224483D01*
X-622286Y224291D01*
X-622281Y224286D01*
X-622281Y223266D01*
X-622285Y223261D01*
X-622286Y223262D01*
X-622286Y223261D01*
X-623373Y223261D01*
X-626867Y219767D01*
X-626867Y214827D01*
X-624896Y212856D01*
X-624896Y212852D01*
X-624895Y212852D01*
X-624896Y212851D01*
X-624896Y212849D01*
X-624896Y212848D01*
X-626867Y210877D01*
X-626867Y189427D01*
X-623373Y185933D01*
X-613846Y185933D01*
X-613662Y186117D01*
X-613661Y186118D01*
X-613022Y186487D01*
X-613021Y186487D01*
X-613020Y186488D01*
X-613019Y186487D01*
X-613018Y186486D01*
X-613015Y186486D01*
X-613016Y186484D01*
X-613014Y186483D01*
X-613014Y183923D01*
X-609521Y180430D01*
X-606184Y180430D01*
X-606184Y180429D01*
X-606183Y180429D01*
X-604758Y179954D01*
X-603809Y180429D01*
G37*
%LPD*%
%LPC*%
G36*
X-589424Y252179D02*
X-589424Y252179D01*
X-588882Y253231D01*
X-588881Y253232D01*
X-588881Y253233D01*
X-588879Y253233D01*
X-588876Y253234D01*
X-588876Y253232D01*
X-588874Y253232D01*
X-588225Y252109D01*
X-583591Y249433D01*
X-580915Y249433D01*
X-579652Y249433D01*
X-578439Y249433D01*
X-576107Y250399D01*
X-574754Y251752D01*
X-574750Y251752D01*
X-574748Y251753D01*
X-570730Y249433D01*
X-568055Y249433D01*
X-566793Y249433D01*
X-564461Y250399D01*
X-563900Y250959D01*
X-563894Y250959D01*
X-563893Y250959D01*
X-563333Y250399D01*
X-561001Y249433D01*
X-554935Y249433D01*
X-550838Y249433D01*
X-545733Y251891D01*
X-544179Y253840D01*
X-544177Y253840D01*
X-544173Y253841D01*
X-544173Y253839D01*
X-544171Y253839D01*
X-543360Y252434D01*
X-538162Y249433D01*
X-532160Y249433D01*
X-526963Y252434D01*
X-526295Y253591D01*
X-526294Y253591D01*
X-526294Y253592D01*
X-526292Y253592D01*
X-526289Y253593D01*
X-526288Y253591D01*
X-526286Y253591D01*
X-525525Y252271D01*
X-520609Y249433D01*
X-511047Y249433D01*
X-508715Y250399D01*
X-507314Y251800D01*
X-507308Y251800D01*
X-507307Y251800D01*
X-505906Y250399D01*
X-503574Y249433D01*
X-501050Y249433D01*
X-498718Y250399D01*
X-496933Y252184D01*
X-495967Y254516D01*
X-495967Y261563D01*
X-495963Y261568D01*
X-495962Y261568D01*
X-494962Y261568D01*
X-494957Y261564D01*
X-494957Y261563D01*
X-494957Y258156D01*
X-494957Y258155D01*
X-494957Y256743D01*
X-492281Y252109D01*
X-487647Y249433D01*
X-477641Y249433D01*
X-475309Y250399D01*
X-473524Y252184D01*
X-472558Y254516D01*
X-472558Y278884D01*
X-473524Y281216D01*
X-475309Y283001D01*
X-477641Y283967D01*
X-480165Y283967D01*
X-482498Y283001D01*
X-484283Y281216D01*
X-485249Y278884D01*
X-485249Y276691D01*
X-485253Y276686D01*
X-487647Y276686D01*
X-490659Y274947D01*
X-490663Y274948D01*
X-490665Y274948D01*
X-491437Y275720D01*
X-493769Y276686D01*
X-503574Y276686D01*
X-505906Y275720D01*
X-507691Y273935D01*
X-508066Y273032D01*
X-508067Y273031D01*
X-508067Y273029D01*
X-508069Y273030D01*
X-508071Y273029D01*
X-508072Y273031D01*
X-508074Y273031D01*
X-508640Y274010D01*
X-513274Y276686D01*
X-515556Y276686D01*
X-522066Y276686D01*
X-524398Y275720D01*
X-526183Y273935D01*
X-526565Y273013D01*
X-526567Y273012D01*
X-526567Y273011D01*
X-526569Y273011D01*
X-526571Y273010D01*
X-526572Y273012D01*
X-526574Y273012D01*
X-526963Y273685D01*
X-532161Y276686D01*
X-538162Y276686D01*
X-542465Y274202D01*
X-542466Y274202D01*
X-542466Y274201D01*
X-542468Y274203D01*
X-542471Y274203D01*
X-542471Y274205D01*
X-542472Y274206D01*
X-542472Y275769D01*
X-545473Y280966D01*
X-550671Y283967D01*
X-561001Y283967D01*
X-563333Y283001D01*
X-565118Y281216D01*
X-565713Y279781D01*
X-565714Y279781D01*
X-565715Y279779D01*
X-565716Y279780D01*
X-565719Y279779D01*
X-565720Y279781D01*
X-565722Y279781D01*
X-566316Y281216D01*
X-568101Y283001D01*
X-570433Y283967D01*
X-572958Y283967D01*
X-575290Y283001D01*
X-577075Y281216D01*
X-578041Y278884D01*
X-578041Y276528D01*
X-578041Y276527D01*
X-578043Y276526D01*
X-578045Y276523D01*
X-578046Y276524D01*
X-578047Y276523D01*
X-578208Y276590D01*
X-578209Y276593D01*
X-578211Y276594D01*
X-578211Y278884D01*
X-579177Y281216D01*
X-580962Y283001D01*
X-583294Y283967D01*
X-585818Y283967D01*
X-588150Y283001D01*
X-589935Y281216D01*
X-590901Y278884D01*
X-590901Y275398D01*
X-590903Y275396D01*
X-590902Y275395D01*
X-591650Y274647D01*
X-591654Y274647D01*
X-591655Y274646D01*
X-592248Y274913D01*
X-596052Y276626D01*
X-600223Y276685D01*
X-601486Y276703D01*
X-602927Y276724D01*
X-604765Y275620D01*
X-604767Y275620D01*
X-604769Y275619D01*
X-604770Y275621D01*
X-604772Y275621D01*
X-604771Y275624D01*
X-604772Y275626D01*
X-604468Y276360D01*
X-604468Y278884D01*
X-605434Y281216D01*
X-607219Y283001D01*
X-609551Y283967D01*
X-621784Y283967D01*
X-624116Y283001D01*
X-625901Y281216D01*
X-626867Y278884D01*
X-626867Y254516D01*
X-625901Y252184D01*
X-624116Y250399D01*
X-621784Y249433D01*
X-609551Y249433D01*
X-607219Y250399D01*
X-606308Y251310D01*
X-606304Y251310D01*
X-606303Y251311D01*
X-605496Y251021D01*
X-601263Y249498D01*
X-601132Y249496D01*
X-601130Y249496D01*
X-600785Y249491D01*
X-600783Y249491D01*
X-600437Y249486D01*
X-600435Y249486D01*
X-600089Y249481D01*
X-600087Y249481D01*
X-599742Y249476D01*
X-599740Y249476D01*
X-599394Y249471D01*
X-599392Y249471D01*
X-599047Y249466D01*
X-599044Y249466D01*
X-598699Y249461D01*
X-598697Y249461D01*
X-598351Y249456D01*
X-598349Y249456D01*
X-598004Y249451D01*
X-598001Y249451D01*
X-597656Y249446D01*
X-597654Y249446D01*
X-597308Y249441D01*
X-597306Y249441D01*
X-596961Y249436D01*
X-596959Y249436D01*
X-596764Y249433D01*
X-596613Y249431D01*
X-596611Y249431D01*
X-596266Y249426D01*
X-596264Y249426D01*
X-595918Y249421D01*
X-595916Y249421D01*
X-595571Y249416D01*
X-595569Y249416D01*
X-595501Y249415D01*
X-595221Y249411D01*
X-595219Y249411D01*
X-594874Y249406D01*
X-594872Y249406D01*
X-594526Y249401D01*
X-594524Y249401D01*
X-594179Y249397D01*
X-594177Y249397D01*
X-594177Y249396D01*
X-594060Y249395D01*
X-589424Y252179D01*
G37*
%LPD*%
%LPC*%
G36*
X-566136Y63251D02*
X-566136Y63251D01*
X-558551Y70836D01*
X-558551Y81564D01*
X-566136Y89149D01*
X-576864Y89149D01*
X-584196Y81816D01*
X-584199Y81816D01*
X-584200Y81815D01*
X-584201Y81816D01*
X-584203Y81816D01*
X-584204Y81816D01*
X-591536Y89149D01*
X-602264Y89149D01*
X-609596Y81816D01*
X-609599Y81816D01*
X-609600Y81815D01*
X-609601Y81816D01*
X-609603Y81816D01*
X-609604Y81816D01*
X-616936Y89149D01*
X-627664Y89149D01*
X-635249Y81564D01*
X-635249Y70836D01*
X-627664Y63251D01*
X-616936Y63251D01*
X-609604Y70584D01*
X-609597Y70584D01*
X-609596Y70584D01*
X-602264Y63251D01*
X-591536Y63251D01*
X-584204Y70584D01*
X-584197Y70584D01*
X-584196Y70584D01*
X-576864Y63251D01*
X-566136Y63251D01*
G37*
%LPD*%
%LPC*%
G36*
X-462964Y185933D02*
X-462964Y185933D01*
X-462964Y185932D01*
X-462963Y185933D01*
X-453746Y185933D01*
X-450253Y189427D01*
X-450253Y194367D01*
X-452942Y197057D01*
X-452942Y197059D01*
X-452943Y197060D01*
X-452942Y197061D01*
X-452942Y197062D01*
X-452942Y197063D01*
X-451582Y199104D01*
X-451581Y199104D01*
X-450253Y200433D01*
X-450253Y201096D01*
X-450251Y201098D01*
X-450252Y201099D01*
X-449884Y201651D01*
X-449886Y201661D01*
X-449891Y201686D01*
X-449896Y201711D01*
X-449901Y201736D01*
X-449906Y201760D01*
X-449911Y201785D01*
X-449916Y201810D01*
X-449921Y201835D01*
X-449926Y201860D01*
X-449931Y201885D01*
X-449936Y201909D01*
X-449936Y201910D01*
X-449941Y201934D01*
X-449946Y201959D01*
X-449950Y201984D01*
X-449951Y201984D01*
X-449950Y201984D01*
X-449955Y202009D01*
X-449960Y202034D01*
X-449965Y202059D01*
X-449970Y202083D01*
X-449975Y202108D01*
X-449979Y202128D01*
X-449980Y202133D01*
X-449984Y202153D01*
X-449985Y202158D01*
X-449989Y202178D01*
X-449990Y202183D01*
X-449994Y202203D01*
X-449995Y202208D01*
X-449999Y202227D01*
X-449999Y202228D01*
X-450000Y202232D01*
X-450000Y202233D01*
X-450004Y202252D01*
X-450005Y202257D01*
X-450009Y202277D01*
X-450010Y202282D01*
X-450014Y202302D01*
X-450015Y202307D01*
X-450019Y202327D01*
X-450020Y202332D01*
X-450024Y202352D01*
X-450025Y202357D01*
X-450029Y202377D01*
X-450030Y202382D01*
X-450034Y202401D01*
X-450035Y202406D01*
X-450039Y202426D01*
X-450040Y202431D01*
X-450044Y202451D01*
X-450045Y202456D01*
X-450049Y202476D01*
X-450050Y202481D01*
X-450054Y202501D01*
X-450055Y202506D01*
X-450059Y202526D01*
X-450060Y202531D01*
X-450064Y202550D01*
X-450064Y202551D01*
X-450065Y202555D01*
X-450069Y202575D01*
X-450074Y202600D01*
X-450079Y202625D01*
X-450084Y202650D01*
X-450089Y202675D01*
X-450094Y202700D01*
X-450099Y202724D01*
X-450104Y202749D01*
X-450108Y202774D01*
X-450109Y202774D01*
X-450108Y202774D01*
X-450113Y202799D01*
X-450118Y202824D01*
X-450123Y202849D01*
X-450128Y202873D01*
X-450133Y202898D01*
X-450138Y202923D01*
X-450143Y202948D01*
X-450148Y202973D01*
X-450153Y202998D01*
X-450158Y203022D01*
X-450158Y203023D01*
X-450162Y203042D01*
X-450163Y203047D01*
X-450167Y203067D01*
X-450168Y203072D01*
X-450172Y203092D01*
X-450173Y203097D01*
X-450177Y203117D01*
X-450178Y203122D01*
X-450182Y203142D01*
X-450183Y203147D01*
X-450187Y203167D01*
X-450188Y203172D01*
X-450192Y203191D01*
X-450193Y203196D01*
X-450197Y203216D01*
X-450198Y203221D01*
X-450202Y203241D01*
X-450203Y203246D01*
X-450207Y203266D01*
X-450208Y203271D01*
X-450212Y203291D01*
X-450213Y203296D01*
X-450217Y203316D01*
X-450218Y203321D01*
X-450222Y203340D01*
X-450222Y203341D01*
X-450223Y203345D01*
X-450223Y203346D01*
X-450227Y203365D01*
X-450228Y203370D01*
X-450232Y203390D01*
X-450233Y203395D01*
X-450237Y203415D01*
X-450238Y203420D01*
X-450242Y203440D01*
X-450243Y203445D01*
X-450247Y203465D01*
X-450248Y203470D01*
X-450252Y203490D01*
X-450252Y203494D01*
X-450252Y203495D01*
X-450253Y203495D01*
X-450253Y205374D01*
X-450721Y205843D01*
X-450722Y205845D01*
X-450723Y205846D01*
X-450726Y205860D01*
X-450731Y205884D01*
X-450731Y205885D01*
X-450736Y205909D01*
X-450740Y205929D01*
X-450741Y205934D01*
X-450744Y205954D01*
X-450745Y205954D01*
X-450745Y205959D01*
X-450746Y205959D01*
X-450745Y205959D01*
X-450749Y205979D01*
X-450750Y205984D01*
X-450754Y206004D01*
X-450755Y206009D01*
X-450759Y206029D01*
X-450764Y206053D01*
X-450769Y206078D01*
X-450773Y206098D01*
X-450774Y206103D01*
X-450778Y206123D01*
X-450779Y206128D01*
X-450783Y206148D01*
X-450784Y206153D01*
X-450788Y206173D01*
X-450793Y206198D01*
X-450798Y206222D01*
X-450803Y206247D01*
X-450807Y206267D01*
X-450808Y206272D01*
X-450812Y206292D01*
X-450813Y206297D01*
X-450817Y206317D01*
X-450818Y206322D01*
X-450822Y206342D01*
X-450827Y206366D01*
X-450827Y206367D01*
X-450832Y206391D01*
X-450837Y206416D01*
X-450841Y206436D01*
X-450842Y206441D01*
X-450846Y206461D01*
X-450847Y206466D01*
X-450851Y206486D01*
X-450852Y206491D01*
X-450853Y206496D01*
X-452417Y207538D01*
X-452417Y207539D01*
X-453746Y208868D01*
X-454409Y208868D01*
X-454411Y208869D01*
X-454412Y208869D01*
X-454964Y209237D01*
X-456807Y208868D01*
X-456808Y208868D01*
X-465809Y208868D01*
X-465814Y208872D01*
X-465814Y208873D01*
X-465814Y210877D01*
X-469308Y214371D01*
X-474249Y214371D01*
X-477743Y210877D01*
X-477743Y207460D01*
X-477744Y207459D01*
X-477743Y207458D01*
X-477745Y207457D01*
X-477747Y207455D01*
X-477748Y207455D01*
X-477749Y207455D01*
X-477749Y207456D01*
X-477750Y207455D01*
X-480197Y208868D01*
X-485359Y208868D01*
X-488412Y207105D01*
X-488413Y207105D01*
X-488414Y207104D01*
X-488416Y207106D01*
X-488419Y207106D01*
X-488418Y207108D01*
X-488420Y207109D01*
X-488420Y210877D01*
X-491913Y214371D01*
X-496854Y214371D01*
X-498966Y212259D01*
X-498973Y212259D01*
X-498974Y212259D01*
X-501086Y214371D01*
X-506027Y214371D01*
X-509520Y210877D01*
X-509520Y189427D01*
X-506027Y185933D01*
X-501086Y185933D01*
X-498974Y188045D01*
X-498967Y188045D01*
X-498966Y188045D01*
X-496854Y185933D01*
X-491913Y185933D01*
X-489517Y188329D01*
X-489515Y188329D01*
X-489514Y188331D01*
X-489513Y188331D01*
X-489512Y188330D01*
X-489511Y188330D01*
X-485359Y185933D01*
X-480197Y185933D01*
X-475726Y188514D01*
X-475642Y188660D01*
X-475641Y188660D01*
X-475641Y188661D01*
X-475639Y188661D01*
X-475636Y188662D01*
X-475635Y188660D01*
X-475633Y188660D01*
X-475407Y188268D01*
X-471362Y185933D01*
X-469027Y185933D01*
X-466557Y185933D01*
X-466294Y186195D01*
X-466288Y186195D01*
X-466287Y186195D01*
X-466025Y185933D01*
X-465362Y185933D01*
X-465360Y185932D01*
X-465359Y185932D01*
X-464807Y185564D01*
X-462964Y185933D01*
G37*
%LPD*%
%LPC*%
G36*
X-453117Y249362D02*
X-453117Y249362D01*
X-453048Y249367D01*
X-453047Y249367D01*
X-452978Y249372D01*
X-452908Y249377D01*
X-452838Y249382D01*
X-452768Y249387D01*
X-452698Y249392D01*
X-452628Y249397D01*
X-452558Y249401D01*
X-452488Y249406D01*
X-452418Y249411D01*
X-452348Y249416D01*
X-452343Y249417D01*
X-452342Y249417D01*
X-452336Y249416D01*
X-452266Y249411D01*
X-452197Y249406D01*
X-452196Y249406D01*
X-452127Y249401D01*
X-452126Y249401D01*
X-452057Y249397D01*
X-451987Y249392D01*
X-451917Y249387D01*
X-451847Y249382D01*
X-451777Y249377D01*
X-451707Y249372D01*
X-451637Y249367D01*
X-451567Y249362D01*
X-451533Y249359D01*
X-451095Y249505D01*
X-451094Y249505D01*
X-451094Y249506D01*
X-451090Y249506D01*
X-451020Y249511D01*
X-450950Y249516D01*
X-450880Y249521D01*
X-450810Y249526D01*
X-450740Y249531D01*
X-450671Y249536D01*
X-450670Y249536D01*
X-450634Y249538D01*
X-449908Y249901D01*
X-449138Y250158D01*
X-448790Y250460D01*
X-448789Y250460D01*
X-448789Y250461D01*
X-448376Y250667D01*
X-447845Y251280D01*
X-447844Y251280D01*
X-447232Y251811D01*
X-447025Y252224D01*
X-447024Y252225D01*
X-446722Y252574D01*
X-446466Y253343D01*
X-446465Y253344D01*
X-446103Y254069D01*
X-446070Y254530D01*
X-446069Y254530D01*
X-446070Y254531D01*
X-441651Y267786D01*
X-441650Y267787D01*
X-441646Y267789D01*
X-441645Y267789D01*
X-441644Y267789D01*
X-439486Y266601D01*
X-437813Y266415D01*
X-437809Y266411D01*
X-437809Y266410D01*
X-437809Y262128D01*
X-437813Y262123D01*
X-437813Y262124D01*
X-437814Y262123D01*
X-438793Y262123D01*
X-441126Y261157D01*
X-442911Y259372D01*
X-443877Y257040D01*
X-443877Y254516D01*
X-442911Y252184D01*
X-441126Y250399D01*
X-438794Y249433D01*
X-424134Y249433D01*
X-421802Y250399D01*
X-420017Y252184D01*
X-419051Y254516D01*
X-419051Y257040D01*
X-420017Y259372D01*
X-421802Y261157D01*
X-424134Y262123D01*
X-425113Y262123D01*
X-425118Y262128D01*
X-425118Y277270D01*
X-425118Y277271D01*
X-425018Y278176D01*
X-425118Y278522D01*
X-425118Y278523D01*
X-425118Y278524D01*
X-425118Y278884D01*
X-425467Y279725D01*
X-425467Y279726D01*
X-425720Y280600D01*
X-425946Y280882D01*
X-425946Y280883D01*
X-426084Y281216D01*
X-426728Y281860D01*
X-426729Y281860D01*
X-427297Y282571D01*
X-427613Y282745D01*
X-427614Y282746D01*
X-427869Y283001D01*
X-428710Y283350D01*
X-428711Y283350D01*
X-429508Y283789D01*
X-429867Y283829D01*
X-429868Y283830D01*
X-429868Y283829D01*
X-430201Y283967D01*
X-431112Y283967D01*
X-432017Y284068D01*
X-432364Y283967D01*
X-432365Y283968D01*
X-432365Y283967D01*
X-432726Y283967D01*
X-433567Y283619D01*
X-434442Y283365D01*
X-434723Y283140D01*
X-434724Y283140D01*
X-434725Y283139D01*
X-435058Y283001D01*
X-435702Y282357D01*
X-439006Y279714D01*
X-439008Y279714D01*
X-439013Y279714D01*
X-439013Y279715D01*
X-439014Y279715D01*
X-439950Y281589D01*
X-441857Y283242D01*
X-444252Y284041D01*
X-446770Y283862D01*
X-449028Y282733D01*
X-450681Y280826D01*
X-452338Y275857D01*
X-452339Y275856D01*
X-452340Y275854D01*
X-452342Y275855D01*
X-452343Y275854D01*
X-452345Y275856D01*
X-452347Y275857D01*
X-454003Y280826D01*
X-455657Y282733D01*
X-457915Y283862D01*
X-460433Y284041D01*
X-462828Y283242D01*
X-464735Y281589D01*
X-465863Y279331D01*
X-466042Y276813D01*
X-458615Y254531D01*
X-458615Y254530D01*
X-458613Y254500D01*
X-458610Y254465D01*
X-458609Y254450D01*
X-458607Y254416D01*
X-458603Y254366D01*
X-458601Y254331D01*
X-458597Y254281D01*
X-458595Y254247D01*
X-458594Y254232D01*
X-458591Y254197D01*
X-458588Y254147D01*
X-458585Y254112D01*
X-458584Y254098D01*
X-458582Y254069D01*
X-458219Y253344D01*
X-458220Y253343D01*
X-458219Y253343D01*
X-457963Y252574D01*
X-457660Y252225D01*
X-457660Y252224D01*
X-457453Y251811D01*
X-456841Y251280D01*
X-456840Y251280D01*
X-456309Y250667D01*
X-455896Y250461D01*
X-455896Y250460D01*
X-455895Y250460D01*
X-455546Y250158D01*
X-454777Y249901D01*
X-454776Y249901D01*
X-454051Y249538D01*
X-454014Y249536D01*
X-453944Y249531D01*
X-453874Y249526D01*
X-453804Y249521D01*
X-453735Y249516D01*
X-453734Y249516D01*
X-453665Y249511D01*
X-453664Y249511D01*
X-453595Y249506D01*
X-453591Y249506D01*
X-453590Y249505D01*
X-453589Y249505D01*
X-453152Y249359D01*
X-453117Y249362D01*
G37*
%LPD*%
%LPC*%
G36*
X-796918Y542805D02*
X-796918Y542805D01*
X-791039Y545240D01*
X-786540Y549739D01*
X-784105Y555618D01*
X-784105Y561982D01*
X-786540Y567861D01*
X-791039Y572360D01*
X-796918Y574795D01*
X-803282Y574795D01*
X-809161Y572360D01*
X-813660Y567861D01*
X-816095Y561982D01*
X-816095Y555618D01*
X-813660Y549739D01*
X-809161Y545240D01*
X-803282Y542805D01*
X-796918Y542805D01*
G37*
%LPD*%
%LPC*%
G36*
X-288918Y390405D02*
X-288918Y390405D01*
X-283039Y392840D01*
X-278540Y397339D01*
X-276105Y403218D01*
X-276105Y409582D01*
X-278540Y415461D01*
X-283039Y419960D01*
X-288918Y422395D01*
X-295282Y422395D01*
X-301161Y419960D01*
X-305660Y415461D01*
X-308095Y409582D01*
X-308095Y403218D01*
X-305660Y397339D01*
X-301161Y392840D01*
X-295282Y390405D01*
X-288918Y390405D01*
G37*
%LPD*%
%LPC*%
G36*
X-809618Y60205D02*
X-809618Y60205D01*
X-803739Y62640D01*
X-799240Y67139D01*
X-796805Y73018D01*
X-796805Y79382D01*
X-799240Y85261D01*
X-803739Y89760D01*
X-809618Y92195D01*
X-815982Y92195D01*
X-821861Y89760D01*
X-826360Y85261D01*
X-828795Y79382D01*
X-828795Y73018D01*
X-826360Y67139D01*
X-821861Y62640D01*
X-815982Y60205D01*
X-809618Y60205D01*
G37*
%LPD*%
%LPC*%
G36*
X-98569Y28961D02*
X-98569Y28961D01*
X-92970Y31280D01*
X-88684Y35566D01*
X-86365Y41165D01*
X-86365Y47227D01*
X-88684Y52826D01*
X-92970Y57112D01*
X-98570Y59431D01*
X-104630Y59431D01*
X-110230Y57112D01*
X-114516Y52826D01*
X-116835Y47226D01*
X-116835Y41165D01*
X-114516Y35566D01*
X-110230Y31280D01*
X-104631Y28961D01*
X-98569Y28961D01*
G37*
%LPD*%
%LPC*%
G36*
X-98569Y499369D02*
X-98569Y499369D01*
X-92970Y501688D01*
X-88684Y505974D01*
X-86365Y511573D01*
X-86365Y517635D01*
X-88684Y523234D01*
X-92970Y527520D01*
X-98570Y529839D01*
X-104630Y529839D01*
X-110230Y527520D01*
X-114516Y523234D01*
X-116835Y517634D01*
X-116835Y511574D01*
X-114516Y505974D01*
X-110230Y501688D01*
X-104631Y499369D01*
X-98569Y499369D01*
G37*
%LPD*%
%LPC*%
G36*
X-708376Y545851D02*
X-708376Y545851D01*
X-700791Y553436D01*
X-700791Y564164D01*
X-708376Y571749D01*
X-719104Y571749D01*
X-726689Y564164D01*
X-726689Y553436D01*
X-719104Y545851D01*
X-708376Y545851D01*
G37*
%LPD*%
%LPC*%
G36*
X-489936Y63251D02*
X-489936Y63251D01*
X-482351Y70836D01*
X-482351Y81564D01*
X-489936Y89149D01*
X-500664Y89149D01*
X-508249Y81564D01*
X-508249Y70836D01*
X-500664Y63251D01*
X-489936Y63251D01*
G37*
%LPD*%
%LPC*%
G36*
X-964805Y635005D02*
X-964805Y635005D01*
X-964805Y655442D01*
X-965704Y655442D01*
X-967490Y655159D01*
X-969210Y654600D01*
X-970821Y653780D01*
X-972284Y652717D01*
X-973563Y651438D01*
X-974626Y649975D01*
X-975447Y648364D01*
X-976006Y646644D01*
X-976289Y644857D01*
X-976289Y635005D01*
X-964805Y635005D01*
G37*
%LPD*%
%LPC*%
G36*
X-964805Y614558D02*
X-964805Y614558D01*
X-964805Y634995D01*
X-976289Y634995D01*
X-976289Y625143D01*
X-976006Y623356D01*
X-975447Y621636D01*
X-974626Y620025D01*
X-973563Y618562D01*
X-972284Y617283D01*
X-970821Y616220D01*
X-969210Y615400D01*
X-967490Y614841D01*
X-965704Y614558D01*
X-964805Y614558D01*
G37*
%LPD*%
%LPC*%
G36*
X-953311Y635005D02*
X-953311Y635005D01*
X-953311Y644858D01*
X-953594Y646644D01*
X-954153Y648364D01*
X-954974Y649975D01*
X-956037Y651438D01*
X-957316Y652717D01*
X-958779Y653780D01*
X-960390Y654600D01*
X-962110Y655159D01*
X-963896Y655442D01*
X-964795Y655442D01*
X-964795Y635005D01*
X-953311Y635005D01*
G37*
%LPD*%
%LPC*%
G36*
X-963896Y614558D02*
X-963896Y614558D01*
X-962110Y614841D01*
X-960390Y615400D01*
X-958779Y616220D01*
X-957316Y617283D01*
X-956037Y618562D01*
X-954974Y620025D01*
X-954153Y621636D01*
X-953594Y623356D01*
X-953311Y625142D01*
X-953311Y634995D01*
X-964795Y634995D01*
X-964795Y614558D01*
X-963896Y614558D01*
G37*
%LPD*%
%LPC*%
G36*
X-472953Y406405D02*
X-472953Y406405D01*
X-472953Y407300D01*
X-472953Y407303D01*
X-472956Y407318D01*
X-472959Y407333D01*
X-472964Y407357D01*
X-472967Y407372D01*
X-472972Y407397D01*
X-472975Y407412D01*
X-472980Y407437D01*
X-472983Y407452D01*
X-472986Y407467D01*
X-472988Y407477D01*
X-472991Y407492D01*
X-472994Y407506D01*
X-472996Y407516D01*
X-472999Y407531D01*
X-473002Y407546D01*
X-473004Y407556D01*
X-473007Y407571D01*
X-473010Y407586D01*
X-473015Y407611D01*
X-473018Y407626D01*
X-473022Y407651D01*
X-473023Y407651D01*
X-473025Y407665D01*
X-473030Y407690D01*
X-473033Y407705D01*
X-473038Y407730D01*
X-473041Y407745D01*
X-473044Y407760D01*
X-473046Y407770D01*
X-473049Y407785D01*
X-473052Y407800D01*
X-473054Y407810D01*
X-473057Y407824D01*
X-473060Y407839D01*
X-473062Y407849D01*
X-473065Y407864D01*
X-473068Y407879D01*
X-473073Y407904D01*
X-473076Y407919D01*
X-473081Y407944D01*
X-473084Y407959D01*
X-473089Y407983D01*
X-473092Y407998D01*
X-473095Y408013D01*
X-473097Y408023D01*
X-473100Y408038D01*
X-473103Y408053D01*
X-473105Y408063D01*
X-473107Y408078D01*
X-473108Y408078D01*
X-473107Y408078D01*
X-473110Y408093D01*
X-473112Y408103D01*
X-473115Y408118D01*
X-473118Y408132D01*
X-473118Y408133D01*
X-473123Y408157D01*
X-473126Y408172D01*
X-473131Y408197D01*
X-473134Y408212D01*
X-473139Y408237D01*
X-473142Y408252D01*
X-473145Y408267D01*
X-473147Y408277D01*
X-473150Y408291D01*
X-473150Y408292D01*
X-473153Y408306D01*
X-473155Y408316D01*
X-473158Y408331D01*
X-473161Y408346D01*
X-473163Y408356D01*
X-473166Y408371D01*
X-473169Y408386D01*
X-473174Y408411D01*
X-473177Y408426D01*
X-473182Y408450D01*
X-473182Y408451D01*
X-473185Y408465D01*
X-473190Y408490D01*
X-473192Y408505D01*
X-473193Y408505D01*
X-473192Y408505D01*
X-473197Y408530D01*
X-473200Y408545D01*
X-473203Y408560D01*
X-473205Y408570D01*
X-473208Y408585D01*
X-473211Y408600D01*
X-473213Y408609D01*
X-473213Y408610D01*
X-473216Y408624D01*
X-473219Y408639D01*
X-473221Y408649D01*
X-473224Y408664D01*
X-473227Y408679D01*
X-473232Y408704D01*
X-473235Y408719D01*
X-473240Y408744D01*
X-473243Y408759D01*
X-473248Y408783D01*
X-473251Y408798D01*
X-473254Y408813D01*
X-473256Y408823D01*
X-473259Y408838D01*
X-473262Y408853D01*
X-473264Y408863D01*
X-473267Y408878D01*
X-473270Y408893D01*
X-473272Y408903D01*
X-473275Y408918D01*
X-473277Y408932D01*
X-473278Y408932D01*
X-473277Y408933D01*
X-473282Y408957D01*
X-473285Y408972D01*
X-473290Y408997D01*
X-473293Y409012D01*
X-473298Y409037D01*
X-473301Y409052D01*
X-473304Y409066D01*
X-473993Y410729D01*
X-474993Y412226D01*
X-476266Y413499D01*
X-477763Y414499D01*
X-479426Y415188D01*
X-481192Y415539D01*
X-495295Y415539D01*
X-495295Y406405D01*
X-472953Y406405D01*
G37*
%LPD*%
%LPC*%
G36*
X-481192Y397261D02*
X-481192Y397261D01*
X-479426Y397612D01*
X-477763Y398301D01*
X-476266Y399301D01*
X-474993Y400574D01*
X-473993Y402071D01*
X-473304Y403734D01*
X-472953Y405500D01*
X-472953Y406395D01*
X-495295Y406395D01*
X-495295Y397261D01*
X-481192Y397261D01*
G37*
%LPD*%
%LPC*%
G36*
X-677423Y558805D02*
X-677423Y558805D01*
X-677423Y563322D01*
X-683818Y569717D01*
X-688335Y569717D01*
X-688335Y558805D01*
X-677423Y558805D01*
G37*
%LPD*%
%LPC*%
G36*
X-509783Y76205D02*
X-509783Y76205D01*
X-509783Y80722D01*
X-516178Y87117D01*
X-520695Y87117D01*
X-520695Y76205D01*
X-509783Y76205D01*
G37*
%LPD*%
%LPC*%
G36*
X-535183Y76205D02*
X-535183Y76205D01*
X-535183Y80722D01*
X-541578Y87117D01*
X-546095Y87117D01*
X-546095Y76205D01*
X-535183Y76205D01*
G37*
%LPD*%
%LPC*%
G36*
X-688345Y558805D02*
X-688345Y558805D01*
X-688345Y569717D01*
X-692862Y569717D01*
X-699257Y563322D01*
X-699257Y558805D01*
X-688345Y558805D01*
G37*
%LPD*%
%LPC*%
G36*
X-546105Y76205D02*
X-546105Y76205D01*
X-546105Y87117D01*
X-550622Y87117D01*
X-557017Y80722D01*
X-557017Y76205D01*
X-546105Y76205D01*
G37*
%LPD*%
%LPC*%
G36*
X-520705Y76205D02*
X-520705Y76205D01*
X-520705Y87117D01*
X-525222Y87117D01*
X-531617Y80722D01*
X-531617Y76205D01*
X-520705Y76205D01*
G37*
%LPD*%
%LPC*%
G36*
X-688345Y547883D02*
X-688345Y547883D01*
X-688345Y558795D01*
X-699257Y558795D01*
X-699257Y554278D01*
X-692862Y547883D01*
X-688345Y547883D01*
G37*
%LPD*%
%LPC*%
G36*
X-520705Y65283D02*
X-520705Y65283D01*
X-520705Y76195D01*
X-531617Y76195D01*
X-531617Y71678D01*
X-525222Y65283D01*
X-520705Y65283D01*
G37*
%LPD*%
%LPC*%
G36*
X-546105Y65283D02*
X-546105Y65283D01*
X-546105Y76195D01*
X-557017Y76195D01*
X-557017Y71678D01*
X-550622Y65283D01*
X-546105Y65283D01*
G37*
%LPD*%
%LPC*%
G36*
X-683818Y547883D02*
X-683818Y547883D01*
X-677423Y554278D01*
X-677423Y558795D01*
X-688335Y558795D01*
X-688335Y547883D01*
X-683818Y547883D01*
G37*
%LPD*%
%LPC*%
G36*
X-516178Y65283D02*
X-516178Y65283D01*
X-509783Y71678D01*
X-509783Y76195D01*
X-520695Y76195D01*
X-520695Y65283D01*
X-516178Y65283D01*
G37*
%LPD*%
%LPC*%
G36*
X-541578Y65283D02*
X-541578Y65283D01*
X-535183Y71678D01*
X-535183Y76195D01*
X-546095Y76195D01*
X-546095Y65283D01*
X-541578Y65283D01*
G37*
%LPD*%
%LPC*%
G36*
X-76649Y265562D02*
X-76649Y265562D01*
X-76649Y266401D01*
X-76913Y268069D01*
X-77435Y269675D01*
X-78202Y271179D01*
X-79194Y272545D01*
X-80388Y273739D01*
X-81754Y274731D01*
X-83258Y275498D01*
X-84864Y276020D01*
X-86532Y276284D01*
X-87371Y276284D01*
X-87371Y265562D01*
X-76649Y265562D01*
G37*
%LPD*%
%LPC*%
G36*
X-76649Y210190D02*
X-76649Y210190D01*
X-76649Y211029D01*
X-76913Y212697D01*
X-77435Y214303D01*
X-78202Y215807D01*
X-79194Y217173D01*
X-80388Y218367D01*
X-81754Y219359D01*
X-83258Y220126D01*
X-84864Y220648D01*
X-86532Y220912D01*
X-87371Y220912D01*
X-87371Y210190D01*
X-76649Y210190D01*
G37*
%LPD*%
%LPC*%
G36*
X-76649Y431678D02*
X-76649Y431678D01*
X-76649Y432517D01*
X-76913Y434185D01*
X-77435Y435791D01*
X-78202Y437295D01*
X-79194Y438661D01*
X-80388Y439855D01*
X-81754Y440847D01*
X-83258Y441614D01*
X-84864Y442136D01*
X-86532Y442400D01*
X-87371Y442400D01*
X-87371Y431678D01*
X-76649Y431678D01*
G37*
%LPD*%
%LPC*%
G36*
X-105097Y334777D02*
X-105097Y334777D01*
X-105097Y335616D01*
X-105361Y337284D01*
X-105883Y338890D01*
X-106650Y340394D01*
X-107642Y341760D01*
X-108836Y342954D01*
X-110202Y343946D01*
X-111706Y344713D01*
X-113312Y345235D01*
X-114980Y345499D01*
X-115819Y345499D01*
X-115819Y334777D01*
X-105097Y334777D01*
G37*
%LPD*%
%LPC*%
G36*
X-76649Y403992D02*
X-76649Y403992D01*
X-76649Y404831D01*
X-76913Y406499D01*
X-77435Y408105D01*
X-78202Y409609D01*
X-79194Y410975D01*
X-80388Y412169D01*
X-81754Y413161D01*
X-83258Y413928D01*
X-84864Y414450D01*
X-86532Y414714D01*
X-87371Y414714D01*
X-87371Y403992D01*
X-76649Y403992D01*
G37*
%LPD*%
%LPC*%
G36*
X-76649Y376306D02*
X-76649Y376306D01*
X-76649Y377145D01*
X-76913Y378813D01*
X-77435Y380419D01*
X-78202Y381923D01*
X-79194Y383289D01*
X-80388Y384483D01*
X-81754Y385475D01*
X-83258Y386242D01*
X-84864Y386764D01*
X-86532Y387028D01*
X-87371Y387028D01*
X-87371Y376306D01*
X-76649Y376306D01*
G37*
%LPD*%
%LPC*%
G36*
X-76649Y182504D02*
X-76649Y182504D01*
X-76649Y183343D01*
X-76913Y185011D01*
X-77435Y186617D01*
X-78202Y188121D01*
X-79194Y189487D01*
X-80388Y190681D01*
X-81754Y191673D01*
X-83258Y192440D01*
X-84864Y192962D01*
X-86532Y193226D01*
X-87371Y193226D01*
X-87371Y182504D01*
X-76649Y182504D01*
G37*
%LPD*%
%LPC*%
G36*
X-76649Y348620D02*
X-76649Y348620D01*
X-76649Y349459D01*
X-76913Y351127D01*
X-77435Y352733D01*
X-78202Y354237D01*
X-79194Y355603D01*
X-80388Y356797D01*
X-81754Y357789D01*
X-83258Y358556D01*
X-84864Y359078D01*
X-86532Y359342D01*
X-87371Y359342D01*
X-87371Y348620D01*
X-76649Y348620D01*
G37*
%LPD*%
%LPC*%
G36*
X-76649Y293248D02*
X-76649Y293248D01*
X-76649Y294087D01*
X-76913Y295755D01*
X-77435Y297361D01*
X-78202Y298865D01*
X-79194Y300231D01*
X-80388Y301425D01*
X-81754Y302417D01*
X-83258Y303184D01*
X-84864Y303706D01*
X-86532Y303970D01*
X-87371Y303970D01*
X-87371Y293248D01*
X-76649Y293248D01*
G37*
%LPD*%
%LPC*%
G36*
X-87381Y265562D02*
X-87381Y265562D01*
X-87381Y276284D01*
X-88220Y276284D01*
X-89888Y276020D01*
X-91494Y275498D01*
X-92998Y274731D01*
X-94364Y273739D01*
X-95558Y272545D01*
X-96550Y271179D01*
X-97317Y269675D01*
X-97839Y268069D01*
X-98103Y266401D01*
X-98103Y265562D01*
X-87381Y265562D01*
G37*
%LPD*%
%LPC*%
G36*
X-105097Y307091D02*
X-105097Y307091D01*
X-105097Y307930D01*
X-105361Y309598D01*
X-105883Y311204D01*
X-106650Y312708D01*
X-107642Y314074D01*
X-108836Y315268D01*
X-110202Y316260D01*
X-111706Y317027D01*
X-113312Y317549D01*
X-114980Y317813D01*
X-115819Y317813D01*
X-115819Y307091D01*
X-105097Y307091D01*
G37*
%LPD*%
%LPC*%
G36*
X-87381Y431678D02*
X-87381Y431678D01*
X-87381Y442400D01*
X-88220Y442400D01*
X-89888Y442136D01*
X-91494Y441614D01*
X-92998Y440847D01*
X-94364Y439855D01*
X-95558Y438661D01*
X-96550Y437295D01*
X-97317Y435791D01*
X-97839Y434185D01*
X-98103Y432517D01*
X-98103Y431678D01*
X-87381Y431678D01*
G37*
%LPD*%
%LPC*%
G36*
X-87381Y210190D02*
X-87381Y210190D01*
X-87381Y220912D01*
X-88220Y220912D01*
X-89888Y220648D01*
X-91494Y220126D01*
X-92998Y219359D01*
X-94364Y218367D01*
X-95558Y217173D01*
X-96550Y215807D01*
X-97317Y214303D01*
X-97839Y212697D01*
X-98103Y211029D01*
X-98103Y210190D01*
X-87381Y210190D01*
G37*
%LPD*%
%LPC*%
G36*
X-87381Y182504D02*
X-87381Y182504D01*
X-87381Y193226D01*
X-88220Y193226D01*
X-89888Y192962D01*
X-91494Y192440D01*
X-92998Y191673D01*
X-94364Y190681D01*
X-95558Y189487D01*
X-96550Y188121D01*
X-97317Y186617D01*
X-97839Y185011D01*
X-98103Y183343D01*
X-98103Y182504D01*
X-87381Y182504D01*
G37*
%LPD*%
%LPC*%
G36*
X-87381Y403992D02*
X-87381Y403992D01*
X-87381Y414714D01*
X-88220Y414714D01*
X-89888Y414450D01*
X-91494Y413928D01*
X-92998Y413161D01*
X-94364Y412169D01*
X-95558Y410975D01*
X-96550Y409609D01*
X-97317Y408105D01*
X-97839Y406499D01*
X-98103Y404831D01*
X-98103Y403992D01*
X-87381Y403992D01*
G37*
%LPD*%
%LPC*%
G36*
X-87381Y376306D02*
X-87381Y376306D01*
X-87381Y387028D01*
X-88220Y387028D01*
X-89888Y386764D01*
X-91494Y386242D01*
X-92998Y385475D01*
X-94364Y384483D01*
X-95558Y383289D01*
X-96550Y381923D01*
X-97317Y380419D01*
X-97839Y378813D01*
X-98103Y377145D01*
X-98103Y376306D01*
X-87381Y376306D01*
G37*
%LPD*%
%LPC*%
G36*
X-87381Y348620D02*
X-87381Y348620D01*
X-87381Y359342D01*
X-88220Y359342D01*
X-89888Y359078D01*
X-91494Y358556D01*
X-92998Y357789D01*
X-94364Y356797D01*
X-95558Y355603D01*
X-96550Y354237D01*
X-97317Y352733D01*
X-97839Y351127D01*
X-98103Y349459D01*
X-98103Y348620D01*
X-87381Y348620D01*
G37*
%LPD*%
%LPC*%
G36*
X-87381Y293248D02*
X-87381Y293248D01*
X-87381Y303970D01*
X-88220Y303970D01*
X-89888Y303706D01*
X-91494Y303184D01*
X-92998Y302417D01*
X-94364Y301425D01*
X-95558Y300231D01*
X-96550Y298865D01*
X-97317Y297361D01*
X-97839Y295755D01*
X-98103Y294087D01*
X-98103Y293248D01*
X-87381Y293248D01*
G37*
%LPD*%
%LPC*%
G36*
X-115829Y334777D02*
X-115829Y334777D01*
X-115829Y345499D01*
X-116668Y345499D01*
X-118336Y345235D01*
X-119942Y344713D01*
X-121446Y343946D01*
X-122812Y342954D01*
X-124006Y341760D01*
X-124998Y340394D01*
X-125765Y338890D01*
X-126287Y337284D01*
X-126551Y335616D01*
X-126551Y334777D01*
X-115829Y334777D01*
G37*
%LPD*%
%LPC*%
G36*
X-76649Y237876D02*
X-76649Y237876D01*
X-76649Y238715D01*
X-76913Y240383D01*
X-77435Y241989D01*
X-78202Y243493D01*
X-79194Y244859D01*
X-80388Y246053D01*
X-81754Y247045D01*
X-83258Y247812D01*
X-84864Y248334D01*
X-86532Y248598D01*
X-87371Y248598D01*
X-87371Y237876D01*
X-76649Y237876D01*
G37*
%LPD*%
%LPC*%
G36*
X-76649Y320934D02*
X-76649Y320934D01*
X-76649Y321773D01*
X-76913Y323441D01*
X-77435Y325047D01*
X-78202Y326551D01*
X-79194Y327917D01*
X-80388Y329111D01*
X-81754Y330103D01*
X-83258Y330870D01*
X-84864Y331392D01*
X-86532Y331656D01*
X-87371Y331656D01*
X-87371Y320934D01*
X-76649Y320934D01*
G37*
%LPD*%
%LPC*%
G36*
X-115829Y307091D02*
X-115829Y307091D01*
X-115829Y317813D01*
X-116668Y317813D01*
X-118336Y317549D01*
X-119942Y317027D01*
X-121446Y316260D01*
X-122812Y315268D01*
X-124006Y314074D01*
X-124998Y312708D01*
X-125765Y311204D01*
X-126287Y309598D01*
X-126551Y307930D01*
X-126551Y307091D01*
X-115829Y307091D01*
G37*
%LPD*%
%LPC*%
G36*
X-87381Y310202D02*
X-87381Y310202D01*
X-87381Y320924D01*
X-98103Y320924D01*
X-98103Y320085D01*
X-97839Y318417D01*
X-97317Y316811D01*
X-96550Y315307D01*
X-95558Y313941D01*
X-94364Y312747D01*
X-92998Y311755D01*
X-91494Y310988D01*
X-89888Y310466D01*
X-88220Y310202D01*
X-87381Y310202D01*
G37*
%LPD*%
%LPC*%
G36*
X-87381Y237876D02*
X-87381Y237876D01*
X-87381Y248598D01*
X-88220Y248598D01*
X-89888Y248334D01*
X-91494Y247812D01*
X-92998Y247045D01*
X-94364Y246053D01*
X-95558Y244859D01*
X-96550Y243493D01*
X-97317Y241989D01*
X-97839Y240383D01*
X-98103Y238715D01*
X-98103Y237876D01*
X-87381Y237876D01*
G37*
%LPD*%
%LPC*%
G36*
X-87381Y337888D02*
X-87381Y337888D01*
X-87381Y348610D01*
X-98103Y348610D01*
X-98103Y347771D01*
X-97839Y346103D01*
X-97317Y344497D01*
X-96550Y342993D01*
X-95558Y341627D01*
X-94364Y340433D01*
X-92998Y339441D01*
X-91494Y338674D01*
X-89888Y338152D01*
X-88220Y337888D01*
X-87381Y337888D01*
G37*
%LPD*%
%LPC*%
G36*
X-115829Y324045D02*
X-115829Y324045D01*
X-115829Y334767D01*
X-126551Y334767D01*
X-126551Y333928D01*
X-126287Y332260D01*
X-125765Y330654D01*
X-124998Y329150D01*
X-124006Y327784D01*
X-122812Y326590D01*
X-121446Y325598D01*
X-119942Y324831D01*
X-118336Y324309D01*
X-116668Y324045D01*
X-115829Y324045D01*
G37*
%LPD*%
%LPC*%
G36*
X-87381Y199458D02*
X-87381Y199458D01*
X-87381Y210180D01*
X-98103Y210180D01*
X-98103Y209341D01*
X-97839Y207673D01*
X-97317Y206067D01*
X-96550Y204563D01*
X-95558Y203197D01*
X-94364Y202003D01*
X-92998Y201011D01*
X-91494Y200244D01*
X-89888Y199722D01*
X-88220Y199458D01*
X-87381Y199458D01*
G37*
%LPD*%
%LPC*%
G36*
X-115829Y296359D02*
X-115829Y296359D01*
X-115829Y307081D01*
X-126551Y307081D01*
X-126551Y306242D01*
X-126287Y304574D01*
X-125765Y302968D01*
X-124998Y301464D01*
X-124006Y300098D01*
X-122812Y298904D01*
X-121446Y297912D01*
X-119942Y297145D01*
X-118336Y296623D01*
X-116668Y296359D01*
X-115829Y296359D01*
G37*
%LPD*%
%LPC*%
G36*
X-87381Y420946D02*
X-87381Y420946D01*
X-87381Y431668D01*
X-98103Y431668D01*
X-98103Y430829D01*
X-97839Y429161D01*
X-97317Y427555D01*
X-96550Y426051D01*
X-95558Y424685D01*
X-94364Y423491D01*
X-92998Y422499D01*
X-91494Y421732D01*
X-89888Y421210D01*
X-88220Y420946D01*
X-87381Y420946D01*
G37*
%LPD*%
%LPC*%
G36*
X-87381Y171772D02*
X-87381Y171772D01*
X-87381Y182494D01*
X-98103Y182494D01*
X-98103Y181655D01*
X-97839Y179987D01*
X-97317Y178381D01*
X-96550Y176877D01*
X-95558Y175511D01*
X-94364Y174317D01*
X-92998Y173325D01*
X-91494Y172558D01*
X-89888Y172036D01*
X-88220Y171772D01*
X-87381Y171772D01*
G37*
%LPD*%
%LPC*%
G36*
X-87381Y282516D02*
X-87381Y282516D01*
X-87381Y293238D01*
X-98103Y293238D01*
X-98103Y292399D01*
X-97839Y290731D01*
X-97317Y289125D01*
X-96550Y287621D01*
X-95558Y286255D01*
X-94364Y285061D01*
X-92998Y284069D01*
X-91494Y283302D01*
X-89888Y282780D01*
X-88220Y282516D01*
X-87381Y282516D01*
G37*
%LPD*%
%LPC*%
G36*
X-87381Y227144D02*
X-87381Y227144D01*
X-87381Y237866D01*
X-98103Y237866D01*
X-98103Y237027D01*
X-97839Y235359D01*
X-97317Y233753D01*
X-96550Y232249D01*
X-95558Y230883D01*
X-94364Y229689D01*
X-92998Y228697D01*
X-91494Y227930D01*
X-89888Y227408D01*
X-88220Y227144D01*
X-87381Y227144D01*
G37*
%LPD*%
%LPC*%
G36*
X-87381Y365574D02*
X-87381Y365574D01*
X-87381Y376296D01*
X-98103Y376296D01*
X-98103Y375457D01*
X-97839Y373789D01*
X-97317Y372183D01*
X-96550Y370679D01*
X-95558Y369313D01*
X-94364Y368119D01*
X-92998Y367127D01*
X-91494Y366360D01*
X-89888Y365838D01*
X-88220Y365574D01*
X-87381Y365574D01*
G37*
%LPD*%
%LPC*%
G36*
X-87381Y320934D02*
X-87381Y320934D01*
X-87381Y331656D01*
X-88220Y331656D01*
X-89888Y331392D01*
X-91494Y330870D01*
X-92998Y330103D01*
X-94364Y329111D01*
X-95558Y327917D01*
X-96550Y326551D01*
X-97317Y325047D01*
X-97839Y323441D01*
X-98103Y321773D01*
X-98103Y320934D01*
X-87381Y320934D01*
G37*
%LPD*%
%LPC*%
G36*
X-86532Y310202D02*
X-86532Y310202D01*
X-84864Y310466D01*
X-83258Y310988D01*
X-81754Y311755D01*
X-80388Y312747D01*
X-79194Y313941D01*
X-78202Y315307D01*
X-77435Y316811D01*
X-76913Y318417D01*
X-76649Y320085D01*
X-76649Y320924D01*
X-87371Y320924D01*
X-87371Y310202D01*
X-86532Y310202D01*
G37*
%LPD*%
%LPC*%
G36*
X-87381Y254830D02*
X-87381Y254830D01*
X-87381Y265552D01*
X-98103Y265552D01*
X-98103Y264713D01*
X-97839Y263045D01*
X-97317Y261439D01*
X-96550Y259935D01*
X-95558Y258569D01*
X-94364Y257375D01*
X-92998Y256383D01*
X-91494Y255616D01*
X-89888Y255094D01*
X-88220Y254830D01*
X-87381Y254830D01*
G37*
%LPD*%
%LPC*%
G36*
X-87381Y393260D02*
X-87381Y393260D01*
X-87381Y403982D01*
X-98103Y403982D01*
X-98103Y403143D01*
X-97839Y401475D01*
X-97317Y399869D01*
X-96550Y398365D01*
X-95558Y396999D01*
X-94364Y395805D01*
X-92998Y394813D01*
X-91494Y394046D01*
X-89888Y393524D01*
X-88220Y393260D01*
X-87381Y393260D01*
G37*
%LPD*%
%LPC*%
G36*
X-86532Y420946D02*
X-86532Y420946D01*
X-84864Y421210D01*
X-83258Y421732D01*
X-81754Y422499D01*
X-80388Y423491D01*
X-79194Y424685D01*
X-78202Y426051D01*
X-77435Y427555D01*
X-76913Y429161D01*
X-76649Y430829D01*
X-76649Y431668D01*
X-87371Y431668D01*
X-87371Y420946D01*
X-86532Y420946D01*
G37*
%LPD*%
%LPC*%
G36*
X-114980Y296359D02*
X-114980Y296359D01*
X-113312Y296623D01*
X-111706Y297145D01*
X-110202Y297912D01*
X-108836Y298904D01*
X-107642Y300098D01*
X-106650Y301464D01*
X-105883Y302968D01*
X-105361Y304574D01*
X-105097Y306242D01*
X-105097Y307081D01*
X-115819Y307081D01*
X-115819Y296359D01*
X-114980Y296359D01*
G37*
%LPD*%
%LPC*%
G36*
X-86532Y282516D02*
X-86532Y282516D01*
X-84864Y282780D01*
X-83258Y283302D01*
X-81754Y284069D01*
X-80388Y285061D01*
X-79194Y286255D01*
X-78202Y287621D01*
X-77435Y289125D01*
X-76913Y290731D01*
X-76649Y292399D01*
X-76649Y293238D01*
X-87371Y293238D01*
X-87371Y282516D01*
X-86532Y282516D01*
G37*
%LPD*%
%LPC*%
G36*
X-86532Y227144D02*
X-86532Y227144D01*
X-84864Y227408D01*
X-83258Y227930D01*
X-81754Y228697D01*
X-80388Y229689D01*
X-79194Y230883D01*
X-78202Y232249D01*
X-77435Y233753D01*
X-76913Y235359D01*
X-76649Y237027D01*
X-76649Y237866D01*
X-87371Y237866D01*
X-87371Y227144D01*
X-86532Y227144D01*
G37*
%LPD*%
%LPC*%
G36*
X-114980Y324045D02*
X-114980Y324045D01*
X-113312Y324309D01*
X-111706Y324831D01*
X-110202Y325598D01*
X-108836Y326590D01*
X-107642Y327784D01*
X-106650Y329150D01*
X-105883Y330654D01*
X-105361Y332260D01*
X-105097Y333928D01*
X-105097Y334767D01*
X-115819Y334767D01*
X-115819Y324045D01*
X-114980Y324045D01*
G37*
%LPD*%
%LPC*%
G36*
X-86532Y337888D02*
X-86532Y337888D01*
X-84864Y338152D01*
X-83258Y338674D01*
X-81754Y339441D01*
X-80388Y340433D01*
X-79194Y341627D01*
X-78202Y342993D01*
X-77435Y344497D01*
X-76913Y346103D01*
X-76649Y347771D01*
X-76649Y348610D01*
X-87371Y348610D01*
X-87371Y337888D01*
X-86532Y337888D01*
G37*
%LPD*%
%LPC*%
G36*
X-86532Y365574D02*
X-86532Y365574D01*
X-84864Y365838D01*
X-83258Y366360D01*
X-81754Y367127D01*
X-80388Y368119D01*
X-79194Y369313D01*
X-78202Y370679D01*
X-77435Y372183D01*
X-76913Y373789D01*
X-76649Y375457D01*
X-76649Y376296D01*
X-87371Y376296D01*
X-87371Y365574D01*
X-86532Y365574D01*
G37*
%LPD*%
%LPC*%
G36*
X-86532Y171772D02*
X-86532Y171772D01*
X-84864Y172036D01*
X-83258Y172558D01*
X-81754Y173325D01*
X-80388Y174317D01*
X-79194Y175511D01*
X-78202Y176877D01*
X-77435Y178381D01*
X-76913Y179987D01*
X-76649Y181655D01*
X-76649Y182494D01*
X-87371Y182494D01*
X-87371Y171772D01*
X-86532Y171772D01*
G37*
%LPD*%
%LPC*%
G36*
X-86532Y199458D02*
X-86532Y199458D01*
X-84864Y199722D01*
X-83258Y200244D01*
X-81754Y201011D01*
X-80388Y202003D01*
X-79194Y203197D01*
X-78202Y204563D01*
X-77435Y206067D01*
X-76913Y207673D01*
X-76649Y209341D01*
X-76649Y210180D01*
X-87371Y210180D01*
X-87371Y199458D01*
X-86532Y199458D01*
G37*
%LPD*%
%LPC*%
G36*
X-86532Y254830D02*
X-86532Y254830D01*
X-84864Y255094D01*
X-83258Y255616D01*
X-81754Y256383D01*
X-80388Y257375D01*
X-79194Y258569D01*
X-78202Y259935D01*
X-77435Y261439D01*
X-76913Y263045D01*
X-76649Y264713D01*
X-76649Y265552D01*
X-87371Y265552D01*
X-87371Y254830D01*
X-86532Y254830D01*
G37*
%LPD*%
%LPC*%
G36*
X-86532Y393260D02*
X-86532Y393260D01*
X-84864Y393524D01*
X-83258Y394046D01*
X-81754Y394813D01*
X-80388Y395805D01*
X-79194Y396999D01*
X-78202Y398365D01*
X-77435Y399869D01*
X-76913Y401475D01*
X-76649Y403143D01*
X-76649Y403982D01*
X-87371Y403982D01*
X-87371Y393260D01*
X-86532Y393260D01*
G37*
%LPD*%
%LPC*%
G36*
X-368305Y399801D02*
X-368305Y399801D01*
X-368305Y408935D01*
X-377439Y408935D01*
X-377439Y405154D01*
X-372086Y399801D01*
X-368305Y399801D01*
G37*
%LPD*%
%LPC*%
G36*
X-364514Y399801D02*
X-364514Y399801D01*
X-359161Y405154D01*
X-359161Y408935D01*
X-368295Y408935D01*
X-368295Y399801D01*
X-364514Y399801D01*
G37*
%LPD*%
%LPC*%
G36*
X-495305Y406405D02*
X-495305Y406405D01*
X-495305Y415539D01*
X-496200Y415539D01*
X-497966Y415188D01*
X-499629Y414499D01*
X-501126Y413499D01*
X-502399Y412226D01*
X-503399Y410729D01*
X-504088Y409066D01*
X-504439Y407300D01*
X-504439Y406405D01*
X-495305Y406405D01*
G37*
%LPD*%
%LPC*%
G36*
X-495305Y397261D02*
X-495305Y397261D01*
X-495305Y406395D01*
X-504439Y406395D01*
X-504439Y405500D01*
X-504437Y405490D01*
X-504432Y405466D01*
X-504429Y405451D01*
X-504424Y405426D01*
X-504422Y405411D01*
X-504421Y405411D01*
X-504422Y405411D01*
X-504417Y405386D01*
X-504414Y405371D01*
X-504411Y405356D01*
X-504409Y405346D01*
X-504406Y405331D01*
X-504403Y405317D01*
X-504403Y405316D01*
X-504401Y405307D01*
X-504398Y405292D01*
X-504395Y405277D01*
X-504393Y405267D01*
X-504390Y405252D01*
X-504387Y405237D01*
X-504382Y405212D01*
X-504379Y405197D01*
X-504374Y405172D01*
X-504371Y405158D01*
X-504371Y405157D01*
X-504366Y405133D01*
X-504363Y405118D01*
X-504358Y405093D01*
X-504355Y405078D01*
X-504352Y405063D01*
X-504350Y405053D01*
X-504347Y405038D01*
X-504344Y405023D01*
X-504342Y405013D01*
X-504339Y404999D01*
X-504339Y404998D01*
X-504337Y404984D01*
X-504336Y404984D01*
X-504337Y404984D01*
X-504335Y404974D01*
X-504332Y404959D01*
X-504329Y404944D01*
X-504324Y404919D01*
X-504321Y404904D01*
X-504316Y404879D01*
X-504313Y404864D01*
X-504308Y404840D01*
X-504308Y404839D01*
X-504305Y404825D01*
X-504302Y404810D01*
X-504300Y404800D01*
X-504297Y404785D01*
X-504294Y404770D01*
X-504292Y404760D01*
X-504289Y404745D01*
X-504286Y404730D01*
X-504284Y404720D01*
X-504281Y404705D01*
X-504278Y404690D01*
X-504273Y404666D01*
X-504270Y404651D01*
X-504265Y404626D01*
X-504262Y404611D01*
X-504257Y404586D01*
X-504254Y404571D01*
X-504252Y404556D01*
X-504251Y404556D01*
X-504252Y404556D01*
X-504250Y404546D01*
X-504247Y404531D01*
X-504244Y404517D01*
X-504244Y404516D01*
X-504242Y404507D01*
X-504239Y404492D01*
X-504236Y404477D01*
X-504234Y404467D01*
X-504231Y404452D01*
X-504228Y404437D01*
X-504226Y404427D01*
X-504223Y404412D01*
X-504220Y404397D01*
X-504215Y404372D01*
X-504212Y404358D01*
X-504212Y404357D01*
X-504207Y404333D01*
X-504204Y404318D01*
X-504199Y404293D01*
X-504196Y404278D01*
X-504193Y404263D01*
X-504191Y404253D01*
X-504188Y404238D01*
X-504185Y404223D01*
X-504183Y404213D01*
X-504180Y404199D01*
X-504180Y404198D01*
X-504177Y404184D01*
X-504175Y404174D01*
X-504172Y404159D01*
X-504169Y404144D01*
X-504165Y404119D01*
X-504162Y404104D01*
X-504157Y404079D01*
X-504154Y404064D01*
X-504149Y404040D01*
X-504149Y404039D01*
X-504146Y404025D01*
X-504143Y404010D01*
X-504141Y404000D01*
X-504138Y403985D01*
X-504135Y403970D01*
X-504133Y403960D01*
X-504130Y403945D01*
X-504127Y403930D01*
X-504125Y403920D01*
X-504122Y403905D01*
X-504119Y403890D01*
X-504114Y403866D01*
X-504111Y403851D01*
X-504106Y403826D01*
X-504103Y403811D01*
X-504098Y403786D01*
X-504095Y403771D01*
X-504090Y403746D01*
X-504088Y403734D01*
X-503399Y402071D01*
X-502399Y400574D01*
X-501126Y399301D01*
X-499629Y398301D01*
X-497966Y397612D01*
X-496200Y397261D01*
X-495305Y397261D01*
G37*
%LPD*%
D10*
X-610814Y255778D02*
X-620522Y255778D01*
X-620522Y277622D01*
X-610814Y277622D01*
X-613241Y267914D02*
X-620522Y267914D01*
X-601527Y264273D02*
X-595460Y261846D01*
X-601528Y264272D02*
X-601630Y264315D01*
X-601730Y264361D01*
X-601829Y264411D01*
X-601926Y264465D01*
X-602020Y264521D01*
X-602113Y264581D01*
X-602204Y264645D01*
X-602292Y264711D01*
X-602378Y264780D01*
X-602462Y264853D01*
X-602543Y264928D01*
X-602621Y265006D01*
X-602697Y265087D01*
X-602769Y265170D01*
X-602839Y265256D01*
X-602905Y265345D01*
X-602969Y265435D01*
X-603029Y265528D01*
X-603086Y265623D01*
X-603139Y265719D01*
X-603189Y265818D01*
X-603236Y265918D01*
X-603279Y266020D01*
X-603318Y266123D01*
X-603354Y266228D01*
X-603386Y266334D01*
X-603414Y266441D01*
X-603439Y266548D01*
X-603460Y266657D01*
X-603477Y266766D01*
X-603490Y266876D01*
X-603499Y266986D01*
X-603504Y267097D01*
X-603506Y267207D01*
X-603504Y267318D01*
X-603497Y267428D01*
X-603487Y267538D01*
X-603473Y267648D01*
X-603455Y267757D01*
X-603434Y267865D01*
X-603408Y267973D01*
X-603379Y268079D01*
X-603346Y268185D01*
X-603309Y268289D01*
X-603269Y268392D01*
X-603225Y268494D01*
X-603178Y268594D01*
X-603127Y268692D01*
X-603072Y268788D01*
X-603015Y268882D01*
X-602954Y268975D01*
X-602890Y269065D01*
X-602822Y269152D01*
X-602752Y269238D01*
X-602679Y269320D01*
X-602603Y269401D01*
X-602524Y269478D01*
X-602442Y269553D01*
X-602358Y269624D01*
X-602272Y269693D01*
X-602183Y269759D01*
X-602091Y269821D01*
X-601998Y269880D01*
X-601903Y269936D01*
X-601805Y269989D01*
X-601706Y270038D01*
X-601606Y270084D01*
X-601503Y270126D01*
X-601400Y270164D01*
X-601295Y270199D01*
X-601189Y270230D01*
X-601081Y270257D01*
X-600973Y270280D01*
X-600865Y270300D01*
X-600755Y270316D01*
X-600645Y270328D01*
X-600535Y270336D01*
X-600425Y270340D01*
X-600314Y270341D01*
X-599983Y270332D01*
X-599652Y270315D01*
X-599322Y270291D01*
X-598992Y270258D01*
X-598663Y270218D01*
X-598335Y270169D01*
X-598009Y270113D01*
X-597683Y270049D01*
X-597360Y269977D01*
X-597038Y269897D01*
X-596719Y269810D01*
X-596401Y269715D01*
X-596086Y269612D01*
X-595774Y269502D01*
X-595464Y269384D01*
X-595157Y269259D01*
X-594853Y269127D01*
X-595459Y261846D02*
X-595357Y261803D01*
X-595257Y261757D01*
X-595158Y261707D01*
X-595062Y261653D01*
X-594967Y261597D01*
X-594874Y261537D01*
X-594783Y261473D01*
X-594695Y261407D01*
X-594609Y261338D01*
X-594525Y261265D01*
X-594444Y261190D01*
X-594366Y261112D01*
X-594290Y261031D01*
X-594218Y260948D01*
X-594148Y260862D01*
X-594082Y260773D01*
X-594018Y260683D01*
X-593958Y260590D01*
X-593901Y260495D01*
X-593848Y260399D01*
X-593798Y260300D01*
X-593751Y260200D01*
X-593708Y260098D01*
X-593669Y259995D01*
X-593633Y259890D01*
X-593601Y259784D01*
X-593573Y259677D01*
X-593548Y259570D01*
X-593527Y259461D01*
X-593510Y259352D01*
X-593497Y259242D01*
X-593488Y259132D01*
X-593483Y259021D01*
X-593481Y258911D01*
X-593483Y258800D01*
X-593490Y258690D01*
X-593500Y258580D01*
X-593514Y258470D01*
X-593532Y258361D01*
X-593553Y258253D01*
X-593579Y258145D01*
X-593608Y258039D01*
X-593641Y257933D01*
X-593678Y257829D01*
X-593718Y257726D01*
X-593762Y257624D01*
X-593809Y257524D01*
X-593860Y257426D01*
X-593915Y257330D01*
X-593972Y257236D01*
X-594033Y257143D01*
X-594097Y257053D01*
X-594165Y256966D01*
X-594235Y256880D01*
X-594308Y256798D01*
X-594384Y256717D01*
X-594463Y256640D01*
X-594545Y256565D01*
X-594629Y256494D01*
X-594715Y256425D01*
X-594804Y256359D01*
X-594896Y256297D01*
X-594989Y256238D01*
X-595084Y256182D01*
X-595182Y256129D01*
X-595281Y256080D01*
X-595381Y256034D01*
X-595484Y255992D01*
X-595587Y255954D01*
X-595692Y255919D01*
X-595798Y255888D01*
X-595906Y255861D01*
X-596014Y255838D01*
X-596122Y255818D01*
X-596232Y255802D01*
X-596342Y255790D01*
X-596452Y255782D01*
X-596562Y255778D01*
X-596673Y255777D01*
X-596673Y255778D02*
X-597160Y255791D01*
X-597646Y255815D01*
X-598131Y255851D01*
X-598616Y255898D01*
X-599099Y255957D01*
X-599581Y256027D01*
X-600061Y256108D01*
X-600539Y256201D01*
X-601014Y256305D01*
X-601487Y256420D01*
X-601957Y256546D01*
X-602424Y256684D01*
X-602888Y256832D01*
X-603348Y256992D01*
X-586983Y270341D02*
X-579702Y270341D01*
X-584556Y277622D02*
X-584556Y259419D01*
X-584554Y259300D01*
X-584548Y259181D01*
X-584538Y259062D01*
X-584525Y258944D01*
X-584507Y258826D01*
X-584486Y258709D01*
X-584461Y258592D01*
X-584432Y258477D01*
X-584399Y258362D01*
X-584363Y258249D01*
X-584323Y258136D01*
X-584279Y258026D01*
X-584231Y257916D01*
X-584181Y257809D01*
X-584126Y257703D01*
X-584068Y257599D01*
X-584007Y257496D01*
X-583942Y257396D01*
X-583875Y257298D01*
X-583804Y257203D01*
X-583730Y257109D01*
X-583652Y257018D01*
X-583572Y256930D01*
X-583490Y256844D01*
X-583404Y256762D01*
X-583316Y256682D01*
X-583225Y256604D01*
X-583132Y256530D01*
X-583036Y256459D01*
X-582938Y256392D01*
X-582838Y256327D01*
X-582736Y256266D01*
X-582631Y256208D01*
X-582525Y256153D01*
X-582418Y256103D01*
X-582308Y256055D01*
X-582198Y256011D01*
X-582085Y255971D01*
X-581972Y255935D01*
X-581857Y255902D01*
X-581742Y255873D01*
X-581625Y255848D01*
X-581508Y255827D01*
X-581390Y255809D01*
X-581272Y255796D01*
X-581153Y255786D01*
X-581034Y255780D01*
X-580915Y255778D01*
X-579702Y255778D01*
X-571695Y259419D02*
X-571695Y277622D01*
X-571696Y259419D02*
X-571694Y259300D01*
X-571688Y259181D01*
X-571678Y259062D01*
X-571665Y258944D01*
X-571647Y258826D01*
X-571626Y258709D01*
X-571601Y258592D01*
X-571572Y258477D01*
X-571539Y258362D01*
X-571503Y258249D01*
X-571463Y258136D01*
X-571419Y258026D01*
X-571371Y257916D01*
X-571321Y257809D01*
X-571266Y257703D01*
X-571208Y257599D01*
X-571147Y257496D01*
X-571082Y257396D01*
X-571015Y257298D01*
X-570944Y257203D01*
X-570870Y257109D01*
X-570792Y257018D01*
X-570712Y256930D01*
X-570630Y256844D01*
X-570544Y256762D01*
X-570456Y256682D01*
X-570365Y256604D01*
X-570272Y256530D01*
X-570176Y256459D01*
X-570078Y256392D01*
X-569978Y256327D01*
X-569876Y256266D01*
X-569771Y256208D01*
X-569665Y256153D01*
X-569558Y256103D01*
X-569448Y256055D01*
X-569338Y256011D01*
X-569225Y255971D01*
X-569112Y255935D01*
X-568997Y255902D01*
X-568882Y255873D01*
X-568765Y255848D01*
X-568648Y255827D01*
X-568530Y255809D01*
X-568412Y255796D01*
X-568293Y255786D01*
X-568174Y255780D01*
X-568055Y255778D01*
X-559739Y267914D02*
X-553671Y267914D01*
X-553516Y267912D01*
X-553361Y267906D01*
X-553206Y267896D01*
X-553052Y267882D01*
X-552898Y267865D01*
X-552745Y267843D01*
X-552592Y267817D01*
X-552440Y267788D01*
X-552288Y267754D01*
X-552138Y267717D01*
X-551989Y267676D01*
X-551840Y267631D01*
X-551693Y267583D01*
X-551547Y267530D01*
X-551403Y267474D01*
X-551260Y267414D01*
X-551118Y267351D01*
X-550979Y267284D01*
X-550841Y267213D01*
X-550704Y267139D01*
X-550570Y267062D01*
X-550438Y266981D01*
X-550308Y266897D01*
X-550180Y266809D01*
X-550054Y266718D01*
X-549931Y266624D01*
X-549810Y266527D01*
X-549692Y266427D01*
X-549576Y266324D01*
X-549463Y266218D01*
X-549353Y266109D01*
X-549245Y265998D01*
X-549141Y265883D01*
X-549039Y265766D01*
X-548941Y265647D01*
X-548845Y265525D01*
X-548753Y265400D01*
X-548664Y265273D01*
X-548578Y265144D01*
X-548495Y265013D01*
X-548416Y264880D01*
X-548340Y264745D01*
X-548268Y264608D01*
X-548199Y264469D01*
X-548134Y264328D01*
X-548072Y264186D01*
X-548014Y264042D01*
X-547960Y263897D01*
X-547910Y263751D01*
X-547863Y263603D01*
X-547820Y263454D01*
X-547781Y263304D01*
X-547745Y263153D01*
X-547714Y263001D01*
X-547686Y262849D01*
X-547663Y262696D01*
X-547643Y262542D01*
X-547627Y262388D01*
X-547615Y262233D01*
X-547607Y262078D01*
X-547603Y261923D01*
X-547603Y261769D01*
X-547607Y261614D01*
X-547615Y261459D01*
X-547627Y261304D01*
X-547643Y261150D01*
X-547663Y260996D01*
X-547686Y260843D01*
X-547714Y260691D01*
X-547745Y260539D01*
X-547781Y260388D01*
X-547820Y260238D01*
X-547863Y260089D01*
X-547910Y259941D01*
X-547960Y259795D01*
X-548014Y259650D01*
X-548072Y259506D01*
X-548134Y259364D01*
X-548199Y259223D01*
X-548268Y259084D01*
X-548340Y258947D01*
X-548416Y258812D01*
X-548495Y258679D01*
X-548578Y258548D01*
X-548664Y258419D01*
X-548753Y258292D01*
X-548845Y258167D01*
X-548941Y258045D01*
X-549039Y257926D01*
X-549141Y257809D01*
X-549245Y257694D01*
X-549353Y257583D01*
X-549463Y257474D01*
X-549576Y257368D01*
X-549692Y257265D01*
X-549810Y257165D01*
X-549931Y257068D01*
X-550054Y256974D01*
X-550180Y256883D01*
X-550308Y256795D01*
X-550438Y256711D01*
X-550570Y256630D01*
X-550704Y256553D01*
X-550841Y256479D01*
X-550979Y256408D01*
X-551118Y256341D01*
X-551260Y256278D01*
X-551403Y256218D01*
X-551547Y256162D01*
X-551693Y256109D01*
X-551840Y256061D01*
X-551989Y256016D01*
X-552138Y255975D01*
X-552288Y255938D01*
X-552440Y255904D01*
X-552592Y255875D01*
X-552745Y255849D01*
X-552898Y255827D01*
X-553052Y255810D01*
X-553206Y255796D01*
X-553361Y255786D01*
X-553516Y255780D01*
X-553671Y255778D01*
X-559739Y255778D01*
X-559739Y277622D01*
X-553671Y277622D01*
X-553532Y277620D01*
X-553394Y277614D01*
X-553256Y277604D01*
X-553118Y277590D01*
X-552980Y277573D01*
X-552843Y277551D01*
X-552707Y277525D01*
X-552572Y277496D01*
X-552437Y277463D01*
X-552303Y277425D01*
X-552171Y277384D01*
X-552040Y277340D01*
X-551910Y277291D01*
X-551781Y277239D01*
X-551655Y277183D01*
X-551529Y277124D01*
X-551406Y277061D01*
X-551284Y276995D01*
X-551164Y276925D01*
X-551047Y276851D01*
X-550931Y276775D01*
X-550818Y276695D01*
X-550707Y276612D01*
X-550598Y276526D01*
X-550492Y276436D01*
X-550389Y276344D01*
X-550288Y276249D01*
X-550190Y276151D01*
X-550095Y276050D01*
X-550003Y275947D01*
X-549913Y275841D01*
X-549827Y275732D01*
X-549744Y275621D01*
X-549664Y275508D01*
X-549588Y275392D01*
X-549514Y275275D01*
X-549444Y275155D01*
X-549378Y275033D01*
X-549315Y274910D01*
X-549256Y274784D01*
X-549200Y274658D01*
X-549148Y274529D01*
X-549099Y274399D01*
X-549055Y274268D01*
X-549014Y274136D01*
X-548976Y274002D01*
X-548943Y273867D01*
X-548914Y273732D01*
X-548888Y273596D01*
X-548866Y273459D01*
X-548849Y273321D01*
X-548835Y273183D01*
X-548825Y273045D01*
X-548819Y272907D01*
X-548817Y272768D01*
X-548819Y272629D01*
X-548825Y272491D01*
X-548835Y272353D01*
X-548849Y272215D01*
X-548866Y272077D01*
X-548888Y271940D01*
X-548914Y271804D01*
X-548943Y271669D01*
X-548976Y271534D01*
X-549014Y271400D01*
X-549055Y271268D01*
X-549099Y271137D01*
X-549148Y271007D01*
X-549200Y270878D01*
X-549256Y270752D01*
X-549315Y270626D01*
X-549378Y270503D01*
X-549444Y270381D01*
X-549514Y270261D01*
X-549588Y270144D01*
X-549664Y270028D01*
X-549744Y269915D01*
X-549827Y269804D01*
X-549913Y269695D01*
X-550003Y269589D01*
X-550095Y269486D01*
X-550190Y269385D01*
X-550288Y269287D01*
X-550389Y269192D01*
X-550492Y269100D01*
X-550598Y269010D01*
X-550707Y268924D01*
X-550818Y268841D01*
X-550931Y268761D01*
X-551047Y268685D01*
X-551164Y268611D01*
X-551284Y268541D01*
X-551406Y268475D01*
X-551529Y268412D01*
X-551655Y268353D01*
X-551781Y268297D01*
X-551910Y268245D01*
X-552040Y268196D01*
X-552171Y268152D01*
X-552303Y268111D01*
X-552437Y268073D01*
X-552572Y268040D01*
X-552707Y268011D01*
X-552843Y267985D01*
X-552980Y267963D01*
X-553118Y267946D01*
X-553256Y267932D01*
X-553394Y267922D01*
X-553532Y267916D01*
X-553671Y267914D01*
X-540016Y265486D02*
X-540016Y260632D01*
X-540015Y265486D02*
X-540013Y265625D01*
X-540007Y265763D01*
X-539997Y265901D01*
X-539983Y266039D01*
X-539966Y266177D01*
X-539944Y266314D01*
X-539918Y266450D01*
X-539889Y266585D01*
X-539856Y266720D01*
X-539818Y266854D01*
X-539777Y266986D01*
X-539733Y267117D01*
X-539684Y267247D01*
X-539632Y267376D01*
X-539576Y267502D01*
X-539517Y267628D01*
X-539454Y267751D01*
X-539388Y267873D01*
X-539318Y267993D01*
X-539244Y268110D01*
X-539168Y268226D01*
X-539088Y268339D01*
X-539005Y268450D01*
X-538919Y268559D01*
X-538829Y268665D01*
X-538737Y268768D01*
X-538642Y268869D01*
X-538544Y268967D01*
X-538443Y269062D01*
X-538340Y269154D01*
X-538234Y269244D01*
X-538125Y269330D01*
X-538014Y269413D01*
X-537901Y269493D01*
X-537785Y269569D01*
X-537668Y269643D01*
X-537548Y269713D01*
X-537426Y269779D01*
X-537303Y269842D01*
X-537177Y269901D01*
X-537051Y269957D01*
X-536922Y270009D01*
X-536792Y270058D01*
X-536661Y270102D01*
X-536529Y270143D01*
X-536395Y270181D01*
X-536260Y270214D01*
X-536125Y270243D01*
X-535989Y270269D01*
X-535852Y270291D01*
X-535714Y270308D01*
X-535576Y270322D01*
X-535438Y270332D01*
X-535300Y270338D01*
X-535161Y270340D01*
X-535022Y270338D01*
X-534884Y270332D01*
X-534746Y270322D01*
X-534608Y270308D01*
X-534470Y270291D01*
X-534333Y270269D01*
X-534197Y270243D01*
X-534062Y270214D01*
X-533927Y270181D01*
X-533793Y270143D01*
X-533661Y270102D01*
X-533530Y270058D01*
X-533400Y270009D01*
X-533271Y269957D01*
X-533145Y269901D01*
X-533019Y269842D01*
X-532896Y269779D01*
X-532774Y269713D01*
X-532654Y269643D01*
X-532537Y269569D01*
X-532421Y269493D01*
X-532308Y269413D01*
X-532197Y269330D01*
X-532088Y269244D01*
X-531982Y269154D01*
X-531879Y269062D01*
X-531778Y268967D01*
X-531680Y268869D01*
X-531585Y268768D01*
X-531493Y268665D01*
X-531403Y268559D01*
X-531317Y268450D01*
X-531234Y268339D01*
X-531154Y268226D01*
X-531078Y268110D01*
X-531004Y267993D01*
X-530934Y267873D01*
X-530868Y267751D01*
X-530805Y267628D01*
X-530746Y267502D01*
X-530690Y267376D01*
X-530638Y267247D01*
X-530589Y267117D01*
X-530545Y266986D01*
X-530504Y266854D01*
X-530466Y266720D01*
X-530433Y266585D01*
X-530404Y266450D01*
X-530378Y266314D01*
X-530356Y266177D01*
X-530339Y266039D01*
X-530325Y265901D01*
X-530315Y265763D01*
X-530309Y265625D01*
X-530307Y265486D01*
X-530307Y260632D01*
X-530309Y260493D01*
X-530315Y260355D01*
X-530325Y260217D01*
X-530339Y260079D01*
X-530356Y259941D01*
X-530378Y259804D01*
X-530404Y259668D01*
X-530433Y259533D01*
X-530466Y259398D01*
X-530504Y259264D01*
X-530545Y259132D01*
X-530589Y259001D01*
X-530638Y258871D01*
X-530690Y258742D01*
X-530746Y258616D01*
X-530805Y258490D01*
X-530868Y258367D01*
X-530934Y258245D01*
X-531004Y258125D01*
X-531078Y258008D01*
X-531154Y257892D01*
X-531234Y257779D01*
X-531317Y257668D01*
X-531403Y257559D01*
X-531493Y257453D01*
X-531585Y257350D01*
X-531680Y257249D01*
X-531778Y257151D01*
X-531879Y257056D01*
X-531982Y256964D01*
X-532088Y256874D01*
X-532197Y256788D01*
X-532308Y256705D01*
X-532421Y256625D01*
X-532537Y256549D01*
X-532654Y256475D01*
X-532774Y256405D01*
X-532896Y256339D01*
X-533019Y256276D01*
X-533145Y256217D01*
X-533271Y256161D01*
X-533400Y256109D01*
X-533530Y256060D01*
X-533661Y256016D01*
X-533793Y255975D01*
X-533927Y255937D01*
X-534062Y255904D01*
X-534197Y255875D01*
X-534333Y255849D01*
X-534470Y255827D01*
X-534608Y255810D01*
X-534746Y255796D01*
X-534884Y255786D01*
X-535022Y255780D01*
X-535161Y255778D01*
X-535300Y255780D01*
X-535438Y255786D01*
X-535576Y255796D01*
X-535714Y255810D01*
X-535852Y255827D01*
X-535989Y255849D01*
X-536125Y255875D01*
X-536260Y255904D01*
X-536395Y255937D01*
X-536529Y255975D01*
X-536661Y256016D01*
X-536792Y256060D01*
X-536922Y256109D01*
X-537051Y256161D01*
X-537177Y256217D01*
X-537303Y256276D01*
X-537426Y256339D01*
X-537548Y256405D01*
X-537668Y256475D01*
X-537785Y256549D01*
X-537901Y256625D01*
X-538014Y256705D01*
X-538125Y256788D01*
X-538234Y256874D01*
X-538340Y256964D01*
X-538443Y257056D01*
X-538544Y257151D01*
X-538642Y257249D01*
X-538737Y257350D01*
X-538829Y257453D01*
X-538919Y257559D01*
X-539005Y257668D01*
X-539088Y257779D01*
X-539168Y257892D01*
X-539244Y258008D01*
X-539318Y258125D01*
X-539388Y258245D01*
X-539454Y258367D01*
X-539517Y258490D01*
X-539576Y258616D01*
X-539632Y258742D01*
X-539684Y258871D01*
X-539733Y259001D01*
X-539777Y259132D01*
X-539818Y259264D01*
X-539856Y259398D01*
X-539889Y259533D01*
X-539918Y259668D01*
X-539944Y259804D01*
X-539966Y259941D01*
X-539983Y260079D01*
X-539997Y260217D01*
X-540007Y260355D01*
X-540013Y260493D01*
X-540015Y260632D01*
X-517770Y264273D02*
X-512309Y264273D01*
X-517770Y264272D02*
X-517900Y264270D01*
X-518029Y264264D01*
X-518158Y264254D01*
X-518287Y264240D01*
X-518415Y264223D01*
X-518543Y264201D01*
X-518670Y264176D01*
X-518796Y264146D01*
X-518921Y264113D01*
X-519045Y264076D01*
X-519168Y264035D01*
X-519290Y263991D01*
X-519410Y263942D01*
X-519529Y263891D01*
X-519646Y263835D01*
X-519761Y263776D01*
X-519875Y263714D01*
X-519986Y263648D01*
X-520096Y263579D01*
X-520203Y263506D01*
X-520308Y263430D01*
X-520411Y263351D01*
X-520511Y263269D01*
X-520609Y263184D01*
X-520704Y263096D01*
X-520796Y263005D01*
X-520885Y262911D01*
X-520972Y262815D01*
X-521056Y262716D01*
X-521136Y262615D01*
X-521213Y262511D01*
X-521288Y262405D01*
X-521359Y262296D01*
X-521426Y262186D01*
X-521490Y262073D01*
X-521551Y261959D01*
X-521608Y261843D01*
X-521662Y261725D01*
X-521712Y261605D01*
X-521758Y261484D01*
X-521801Y261362D01*
X-521840Y261238D01*
X-521875Y261114D01*
X-521906Y260988D01*
X-521934Y260861D01*
X-521957Y260734D01*
X-521977Y260606D01*
X-521993Y260478D01*
X-522005Y260349D01*
X-522013Y260219D01*
X-522017Y260090D01*
X-522017Y259960D01*
X-522013Y259831D01*
X-522005Y259701D01*
X-521993Y259572D01*
X-521977Y259444D01*
X-521957Y259316D01*
X-521934Y259189D01*
X-521906Y259062D01*
X-521875Y258936D01*
X-521840Y258812D01*
X-521801Y258688D01*
X-521758Y258566D01*
X-521712Y258445D01*
X-521662Y258325D01*
X-521608Y258207D01*
X-521551Y258091D01*
X-521490Y257977D01*
X-521426Y257864D01*
X-521359Y257754D01*
X-521288Y257645D01*
X-521213Y257539D01*
X-521136Y257435D01*
X-521056Y257334D01*
X-520972Y257235D01*
X-520885Y257139D01*
X-520796Y257045D01*
X-520704Y256954D01*
X-520609Y256866D01*
X-520511Y256781D01*
X-520411Y256699D01*
X-520308Y256620D01*
X-520203Y256544D01*
X-520096Y256471D01*
X-519986Y256402D01*
X-519875Y256336D01*
X-519761Y256274D01*
X-519646Y256215D01*
X-519529Y256159D01*
X-519410Y256108D01*
X-519290Y256059D01*
X-519168Y256015D01*
X-519045Y255974D01*
X-518921Y255937D01*
X-518796Y255904D01*
X-518670Y255874D01*
X-518543Y255849D01*
X-518415Y255827D01*
X-518287Y255810D01*
X-518158Y255796D01*
X-518029Y255786D01*
X-517900Y255780D01*
X-517770Y255778D01*
X-512309Y255778D01*
X-512309Y266700D01*
X-512311Y266819D01*
X-512317Y266938D01*
X-512327Y267057D01*
X-512340Y267175D01*
X-512358Y267293D01*
X-512379Y267410D01*
X-512404Y267527D01*
X-512433Y267642D01*
X-512466Y267757D01*
X-512502Y267870D01*
X-512542Y267983D01*
X-512586Y268093D01*
X-512634Y268203D01*
X-512684Y268310D01*
X-512739Y268416D01*
X-512797Y268521D01*
X-512858Y268623D01*
X-512923Y268723D01*
X-512990Y268821D01*
X-513061Y268917D01*
X-513135Y269010D01*
X-513213Y269101D01*
X-513293Y269189D01*
X-513375Y269275D01*
X-513461Y269357D01*
X-513549Y269437D01*
X-513640Y269515D01*
X-513734Y269589D01*
X-513829Y269660D01*
X-513927Y269727D01*
X-514027Y269792D01*
X-514130Y269853D01*
X-514234Y269911D01*
X-514340Y269966D01*
X-514447Y270016D01*
X-514557Y270064D01*
X-514667Y270108D01*
X-514780Y270148D01*
X-514893Y270184D01*
X-515008Y270217D01*
X-515123Y270246D01*
X-515240Y270271D01*
X-515357Y270292D01*
X-515475Y270310D01*
X-515593Y270323D01*
X-515712Y270333D01*
X-515831Y270339D01*
X-515950Y270341D01*
X-520804Y270341D01*
X-502312Y270341D02*
X-502312Y255778D01*
X-502312Y270341D02*
X-495031Y270341D01*
X-495031Y267914D01*
X-478903Y277622D02*
X-478903Y255778D01*
X-484971Y255778D01*
X-485090Y255780D01*
X-485209Y255786D01*
X-485328Y255796D01*
X-485446Y255809D01*
X-485564Y255827D01*
X-485681Y255848D01*
X-485798Y255873D01*
X-485913Y255902D01*
X-486028Y255935D01*
X-486141Y255971D01*
X-486254Y256011D01*
X-486364Y256055D01*
X-486474Y256103D01*
X-486581Y256153D01*
X-486687Y256208D01*
X-486792Y256266D01*
X-486894Y256327D01*
X-486994Y256392D01*
X-487092Y256459D01*
X-487188Y256530D01*
X-487281Y256604D01*
X-487372Y256682D01*
X-487460Y256762D01*
X-487546Y256844D01*
X-487628Y256930D01*
X-487708Y257018D01*
X-487786Y257109D01*
X-487860Y257203D01*
X-487931Y257298D01*
X-487998Y257396D01*
X-488063Y257496D01*
X-488124Y257599D01*
X-488182Y257703D01*
X-488237Y257809D01*
X-488287Y257916D01*
X-488335Y258026D01*
X-488379Y258136D01*
X-488419Y258249D01*
X-488455Y258362D01*
X-488488Y258477D01*
X-488517Y258592D01*
X-488542Y258709D01*
X-488563Y258826D01*
X-488581Y258944D01*
X-488594Y259062D01*
X-488604Y259181D01*
X-488610Y259300D01*
X-488612Y259419D01*
X-488612Y266700D01*
X-488610Y266819D01*
X-488604Y266938D01*
X-488594Y267057D01*
X-488581Y267175D01*
X-488563Y267293D01*
X-488542Y267410D01*
X-488517Y267527D01*
X-488488Y267642D01*
X-488455Y267757D01*
X-488419Y267870D01*
X-488379Y267983D01*
X-488335Y268093D01*
X-488287Y268203D01*
X-488237Y268310D01*
X-488182Y268416D01*
X-488124Y268521D01*
X-488063Y268623D01*
X-487998Y268723D01*
X-487931Y268821D01*
X-487860Y268917D01*
X-487786Y269010D01*
X-487708Y269101D01*
X-487628Y269189D01*
X-487546Y269275D01*
X-487460Y269357D01*
X-487372Y269437D01*
X-487281Y269515D01*
X-487188Y269589D01*
X-487092Y269660D01*
X-486994Y269727D01*
X-486894Y269792D01*
X-486792Y269853D01*
X-486687Y269911D01*
X-486581Y269966D01*
X-486474Y270016D01*
X-486364Y270064D01*
X-486254Y270108D01*
X-486141Y270148D01*
X-486028Y270184D01*
X-485913Y270217D01*
X-485798Y270246D01*
X-485681Y270271D01*
X-485564Y270292D01*
X-485446Y270310D01*
X-485328Y270323D01*
X-485209Y270333D01*
X-485090Y270339D01*
X-484971Y270341D01*
X-478903Y270341D01*
X-459624Y277622D02*
X-452342Y255778D01*
X-445061Y277622D01*
X-437531Y272768D02*
X-431464Y277622D01*
X-431464Y255778D01*
X-437531Y255778D02*
X-425396Y255778D01*
D11*
X-616317Y233807D02*
X-620903Y230138D01*
X-616317Y233807D02*
X-616317Y217297D01*
X-620903Y217297D02*
X-611731Y217297D01*
X-604153Y231973D02*
X-604153Y233807D01*
X-594980Y233807D01*
X-599567Y217297D01*
X-588300Y217297D02*
X-588300Y218214D01*
X-587383Y218214D01*
X-587383Y217297D01*
X-588300Y217297D01*
X-580702Y225552D02*
X-580698Y225877D01*
X-580686Y226201D01*
X-580667Y226526D01*
X-580640Y226849D01*
X-580605Y227172D01*
X-580563Y227494D01*
X-580512Y227815D01*
X-580455Y228135D01*
X-580389Y228453D01*
X-580316Y228769D01*
X-580236Y229084D01*
X-580147Y229397D01*
X-580052Y229707D01*
X-579949Y230015D01*
X-579839Y230321D01*
X-579721Y230624D01*
X-579597Y230924D01*
X-579465Y231220D01*
X-579326Y231514D01*
X-579327Y231514D02*
X-579288Y231621D01*
X-579246Y231726D01*
X-579200Y231831D01*
X-579151Y231933D01*
X-579098Y232034D01*
X-579042Y232133D01*
X-578983Y232230D01*
X-578920Y232325D01*
X-578854Y232418D01*
X-578786Y232509D01*
X-578714Y232597D01*
X-578639Y232683D01*
X-578562Y232766D01*
X-578481Y232847D01*
X-578399Y232925D01*
X-578313Y233000D01*
X-578225Y233072D01*
X-578135Y233141D01*
X-578042Y233207D01*
X-577947Y233270D01*
X-577851Y233330D01*
X-577752Y233387D01*
X-577651Y233440D01*
X-577549Y233490D01*
X-577445Y233536D01*
X-577340Y233579D01*
X-577233Y233618D01*
X-577125Y233654D01*
X-577015Y233686D01*
X-576905Y233714D01*
X-576794Y233739D01*
X-576682Y233759D01*
X-576570Y233777D01*
X-576457Y233790D01*
X-576343Y233799D01*
X-576230Y233805D01*
X-576116Y233807D01*
X-576002Y233805D01*
X-575889Y233799D01*
X-575775Y233790D01*
X-575662Y233777D01*
X-575550Y233759D01*
X-575438Y233739D01*
X-575327Y233714D01*
X-575217Y233686D01*
X-575107Y233654D01*
X-574999Y233618D01*
X-574892Y233579D01*
X-574787Y233536D01*
X-574683Y233490D01*
X-574581Y233440D01*
X-574480Y233387D01*
X-574381Y233330D01*
X-574285Y233270D01*
X-574190Y233207D01*
X-574097Y233141D01*
X-574007Y233072D01*
X-573919Y233000D01*
X-573834Y232925D01*
X-573751Y232847D01*
X-573670Y232766D01*
X-573593Y232683D01*
X-573518Y232597D01*
X-573446Y232509D01*
X-573378Y232418D01*
X-573312Y232325D01*
X-573249Y232230D01*
X-573190Y232133D01*
X-573134Y232034D01*
X-573081Y231933D01*
X-573032Y231831D01*
X-572986Y231726D01*
X-572944Y231621D01*
X-572905Y231514D01*
X-572906Y231514D02*
X-572767Y231220D01*
X-572635Y230923D01*
X-572511Y230623D01*
X-572393Y230321D01*
X-572283Y230015D01*
X-572180Y229707D01*
X-572085Y229397D01*
X-571996Y229084D01*
X-571916Y228769D01*
X-571843Y228453D01*
X-571777Y228135D01*
X-571720Y227815D01*
X-571669Y227494D01*
X-571627Y227172D01*
X-571592Y226849D01*
X-571565Y226526D01*
X-571546Y226201D01*
X-571534Y225877D01*
X-571530Y225552D01*
X-580702Y225552D02*
X-580698Y225227D01*
X-580686Y224903D01*
X-580667Y224578D01*
X-580640Y224255D01*
X-580605Y223932D01*
X-580563Y223610D01*
X-580512Y223289D01*
X-580455Y222969D01*
X-580389Y222651D01*
X-580316Y222335D01*
X-580236Y222020D01*
X-580147Y221707D01*
X-580052Y221397D01*
X-579949Y221089D01*
X-579839Y220783D01*
X-579721Y220480D01*
X-579597Y220180D01*
X-579465Y219884D01*
X-579326Y219590D01*
X-579327Y219590D02*
X-579288Y219483D01*
X-579246Y219378D01*
X-579200Y219273D01*
X-579151Y219171D01*
X-579098Y219070D01*
X-579042Y218971D01*
X-578983Y218874D01*
X-578920Y218779D01*
X-578854Y218686D01*
X-578786Y218595D01*
X-578714Y218507D01*
X-578639Y218421D01*
X-578562Y218338D01*
X-578481Y218257D01*
X-578399Y218179D01*
X-578313Y218104D01*
X-578225Y218032D01*
X-578135Y217963D01*
X-578042Y217897D01*
X-577947Y217834D01*
X-577851Y217774D01*
X-577752Y217717D01*
X-577651Y217664D01*
X-577549Y217614D01*
X-577445Y217568D01*
X-577340Y217525D01*
X-577233Y217486D01*
X-577125Y217450D01*
X-577015Y217418D01*
X-576905Y217390D01*
X-576794Y217365D01*
X-576682Y217345D01*
X-576570Y217327D01*
X-576457Y217314D01*
X-576343Y217305D01*
X-576230Y217299D01*
X-576116Y217297D01*
X-572905Y219590D02*
X-572766Y219883D01*
X-572634Y220180D01*
X-572510Y220480D01*
X-572392Y220783D01*
X-572282Y221089D01*
X-572179Y221397D01*
X-572084Y221707D01*
X-571995Y222020D01*
X-571915Y222335D01*
X-571842Y222651D01*
X-571776Y222969D01*
X-571719Y223289D01*
X-571668Y223610D01*
X-571626Y223932D01*
X-571591Y224255D01*
X-571564Y224578D01*
X-571545Y224903D01*
X-571533Y225227D01*
X-571529Y225552D01*
X-572905Y219590D02*
X-572944Y219483D01*
X-572986Y219378D01*
X-573032Y219273D01*
X-573081Y219171D01*
X-573134Y219070D01*
X-573190Y218971D01*
X-573249Y218874D01*
X-573312Y218779D01*
X-573378Y218686D01*
X-573446Y218595D01*
X-573518Y218507D01*
X-573593Y218421D01*
X-573670Y218338D01*
X-573751Y218257D01*
X-573834Y218179D01*
X-573919Y218104D01*
X-574007Y218032D01*
X-574097Y217963D01*
X-574190Y217896D01*
X-574285Y217834D01*
X-574381Y217774D01*
X-574480Y217717D01*
X-574581Y217664D01*
X-574683Y217614D01*
X-574787Y217568D01*
X-574892Y217525D01*
X-574999Y217486D01*
X-575107Y217450D01*
X-575217Y217418D01*
X-575327Y217390D01*
X-575438Y217365D01*
X-575550Y217345D01*
X-575662Y217327D01*
X-575775Y217314D01*
X-575889Y217305D01*
X-576002Y217299D01*
X-576116Y217297D01*
X-579785Y220966D02*
X-572447Y230138D01*
X-560283Y224635D02*
X-554779Y224635D01*
X-560283Y224635D02*
X-560403Y224637D01*
X-560523Y224643D01*
X-560643Y224653D01*
X-560762Y224666D01*
X-560881Y224684D01*
X-560999Y224705D01*
X-561116Y224731D01*
X-561233Y224760D01*
X-561348Y224793D01*
X-561462Y224830D01*
X-561575Y224870D01*
X-561687Y224914D01*
X-561797Y224962D01*
X-561906Y225013D01*
X-562013Y225068D01*
X-562118Y225127D01*
X-562220Y225188D01*
X-562321Y225253D01*
X-562420Y225322D01*
X-562517Y225393D01*
X-562611Y225468D01*
X-562702Y225546D01*
X-562791Y225626D01*
X-562877Y225710D01*
X-562961Y225796D01*
X-563042Y225885D01*
X-563119Y225976D01*
X-563194Y226070D01*
X-563265Y226167D01*
X-563334Y226266D01*
X-563399Y226367D01*
X-563460Y226470D01*
X-563519Y226574D01*
X-563574Y226681D01*
X-563625Y226790D01*
X-563673Y226900D01*
X-563717Y227012D01*
X-563757Y227125D01*
X-563794Y227239D01*
X-563827Y227354D01*
X-563856Y227471D01*
X-563882Y227588D01*
X-563903Y227706D01*
X-563921Y227825D01*
X-563934Y227944D01*
X-563944Y228064D01*
X-563950Y228184D01*
X-563952Y228304D01*
X-563952Y229221D01*
X-563950Y229356D01*
X-563944Y229490D01*
X-563934Y229624D01*
X-563920Y229758D01*
X-563903Y229892D01*
X-563881Y230025D01*
X-563855Y230157D01*
X-563826Y230288D01*
X-563793Y230419D01*
X-563756Y230548D01*
X-563715Y230677D01*
X-563670Y230804D01*
X-563622Y230929D01*
X-563570Y231053D01*
X-563514Y231176D01*
X-563455Y231297D01*
X-563393Y231416D01*
X-563326Y231533D01*
X-563257Y231649D01*
X-563184Y231762D01*
X-563108Y231873D01*
X-563028Y231982D01*
X-562945Y232088D01*
X-562860Y232192D01*
X-562771Y232293D01*
X-562679Y232392D01*
X-562585Y232488D01*
X-562488Y232581D01*
X-562388Y232671D01*
X-562285Y232758D01*
X-562180Y232842D01*
X-562072Y232923D01*
X-561963Y233001D01*
X-561851Y233076D01*
X-561736Y233147D01*
X-561620Y233215D01*
X-561502Y233279D01*
X-561382Y233340D01*
X-561260Y233398D01*
X-561137Y233451D01*
X-561012Y233502D01*
X-560885Y233548D01*
X-560758Y233591D01*
X-560629Y233630D01*
X-560499Y233665D01*
X-560368Y233696D01*
X-560236Y233724D01*
X-560103Y233747D01*
X-559970Y233767D01*
X-559836Y233783D01*
X-559702Y233795D01*
X-559568Y233803D01*
X-559433Y233807D01*
X-559299Y233807D01*
X-559164Y233803D01*
X-559030Y233795D01*
X-558896Y233783D01*
X-558762Y233767D01*
X-558629Y233747D01*
X-558496Y233724D01*
X-558364Y233696D01*
X-558233Y233665D01*
X-558103Y233630D01*
X-557974Y233591D01*
X-557847Y233548D01*
X-557720Y233502D01*
X-557595Y233451D01*
X-557472Y233398D01*
X-557350Y233340D01*
X-557230Y233279D01*
X-557112Y233215D01*
X-556996Y233147D01*
X-556881Y233076D01*
X-556769Y233001D01*
X-556660Y232923D01*
X-556552Y232842D01*
X-556447Y232758D01*
X-556344Y232671D01*
X-556244Y232581D01*
X-556147Y232488D01*
X-556053Y232392D01*
X-555961Y232293D01*
X-555872Y232192D01*
X-555787Y232088D01*
X-555704Y231982D01*
X-555624Y231873D01*
X-555548Y231762D01*
X-555475Y231649D01*
X-555406Y231533D01*
X-555339Y231416D01*
X-555277Y231297D01*
X-555218Y231176D01*
X-555162Y231053D01*
X-555110Y230929D01*
X-555062Y230804D01*
X-555017Y230677D01*
X-554976Y230548D01*
X-554939Y230419D01*
X-554906Y230288D01*
X-554877Y230157D01*
X-554851Y230025D01*
X-554829Y229892D01*
X-554812Y229758D01*
X-554798Y229624D01*
X-554788Y229490D01*
X-554782Y229356D01*
X-554780Y229221D01*
X-554779Y229221D02*
X-554779Y224635D01*
X-554781Y224458D01*
X-554788Y224280D01*
X-554798Y224103D01*
X-554813Y223927D01*
X-554833Y223750D01*
X-554856Y223575D01*
X-554884Y223400D01*
X-554916Y223225D01*
X-554952Y223052D01*
X-554992Y222879D01*
X-555037Y222707D01*
X-555085Y222537D01*
X-555138Y222367D01*
X-555195Y222199D01*
X-555256Y222033D01*
X-555321Y221868D01*
X-555390Y221704D01*
X-555462Y221543D01*
X-555539Y221383D01*
X-555620Y221225D01*
X-555704Y221069D01*
X-555792Y220915D01*
X-555884Y220763D01*
X-555979Y220614D01*
X-556078Y220467D01*
X-556180Y220322D01*
X-556286Y220180D01*
X-556396Y220040D01*
X-556508Y219903D01*
X-556624Y219769D01*
X-556744Y219638D01*
X-556866Y219509D01*
X-556991Y219384D01*
X-557120Y219262D01*
X-557251Y219142D01*
X-557385Y219026D01*
X-557522Y218914D01*
X-557662Y218804D01*
X-557804Y218698D01*
X-557949Y218596D01*
X-558096Y218497D01*
X-558245Y218402D01*
X-558397Y218310D01*
X-558551Y218222D01*
X-558707Y218138D01*
X-558865Y218057D01*
X-559025Y217980D01*
X-559186Y217908D01*
X-559350Y217839D01*
X-559515Y217774D01*
X-559681Y217713D01*
X-559849Y217656D01*
X-560019Y217603D01*
X-560189Y217555D01*
X-560361Y217510D01*
X-560534Y217470D01*
X-560707Y217434D01*
X-560882Y217402D01*
X-561057Y217374D01*
X-561233Y217350D01*
X-561409Y217331D01*
X-561586Y217316D01*
X-561763Y217306D01*
X-561940Y217299D01*
X-562117Y217297D01*
X-548099Y217297D02*
X-548099Y218214D01*
X-547182Y218214D01*
X-547182Y217297D01*
X-548099Y217297D01*
X-535456Y233808D02*
X-535329Y233806D01*
X-535202Y233800D01*
X-535075Y233790D01*
X-534949Y233777D01*
X-534823Y233759D01*
X-534697Y233738D01*
X-534573Y233712D01*
X-534449Y233683D01*
X-534326Y233650D01*
X-534205Y233614D01*
X-534084Y233573D01*
X-533965Y233529D01*
X-533847Y233481D01*
X-533731Y233430D01*
X-533616Y233375D01*
X-533503Y233317D01*
X-533392Y233255D01*
X-533283Y233190D01*
X-533176Y233121D01*
X-533071Y233049D01*
X-532968Y232974D01*
X-532868Y232896D01*
X-532770Y232815D01*
X-532675Y232731D01*
X-532582Y232644D01*
X-532492Y232554D01*
X-532405Y232461D01*
X-532321Y232366D01*
X-532240Y232268D01*
X-532162Y232168D01*
X-532087Y232065D01*
X-532015Y231960D01*
X-531946Y231853D01*
X-531881Y231744D01*
X-531819Y231633D01*
X-531761Y231520D01*
X-531706Y231405D01*
X-531655Y231289D01*
X-531607Y231171D01*
X-531563Y231052D01*
X-531522Y230931D01*
X-531486Y230810D01*
X-531453Y230687D01*
X-531424Y230563D01*
X-531398Y230439D01*
X-531377Y230313D01*
X-531359Y230187D01*
X-531346Y230061D01*
X-531336Y229934D01*
X-531330Y229807D01*
X-531328Y229680D01*
X-535456Y233807D02*
X-535601Y233805D01*
X-535746Y233799D01*
X-535890Y233789D01*
X-536035Y233775D01*
X-536179Y233758D01*
X-536322Y233736D01*
X-536465Y233710D01*
X-536607Y233681D01*
X-536748Y233647D01*
X-536888Y233610D01*
X-537027Y233569D01*
X-537165Y233524D01*
X-537301Y233476D01*
X-537437Y233423D01*
X-537570Y233367D01*
X-537702Y233308D01*
X-537833Y233244D01*
X-537962Y233178D01*
X-538088Y233108D01*
X-538213Y233034D01*
X-538336Y232957D01*
X-538457Y232876D01*
X-538575Y232793D01*
X-538691Y232706D01*
X-538805Y232616D01*
X-538916Y232523D01*
X-539025Y232427D01*
X-539130Y232328D01*
X-539234Y232226D01*
X-539334Y232121D01*
X-539431Y232014D01*
X-539526Y231904D01*
X-539617Y231791D01*
X-539705Y231676D01*
X-539791Y231559D01*
X-539873Y231439D01*
X-539951Y231318D01*
X-540026Y231194D01*
X-540098Y231068D01*
X-540166Y230940D01*
X-540231Y230810D01*
X-540293Y230679D01*
X-540350Y230546D01*
X-540404Y230411D01*
X-540454Y230275D01*
X-540501Y230138D01*
X-532705Y226470D02*
X-532613Y226560D01*
X-532524Y226652D01*
X-532438Y226747D01*
X-532355Y226844D01*
X-532274Y226944D01*
X-532196Y227046D01*
X-532122Y227150D01*
X-532050Y227256D01*
X-531982Y227365D01*
X-531916Y227475D01*
X-531854Y227587D01*
X-531795Y227701D01*
X-531740Y227817D01*
X-531687Y227934D01*
X-531639Y228052D01*
X-531593Y228172D01*
X-531551Y228293D01*
X-531513Y228416D01*
X-531478Y228539D01*
X-531447Y228663D01*
X-531420Y228789D01*
X-531396Y228915D01*
X-531375Y229041D01*
X-531359Y229168D01*
X-531346Y229296D01*
X-531336Y229424D01*
X-531331Y229552D01*
X-531329Y229680D01*
X-532705Y226469D02*
X-540501Y217297D01*
X-531329Y217297D01*
X-523751Y225552D02*
X-523747Y225877D01*
X-523735Y226201D01*
X-523716Y226526D01*
X-523689Y226849D01*
X-523654Y227172D01*
X-523612Y227494D01*
X-523561Y227815D01*
X-523504Y228135D01*
X-523438Y228453D01*
X-523365Y228769D01*
X-523285Y229084D01*
X-523196Y229397D01*
X-523101Y229707D01*
X-522998Y230015D01*
X-522888Y230321D01*
X-522770Y230624D01*
X-522646Y230924D01*
X-522514Y231220D01*
X-522375Y231514D01*
X-522376Y231514D02*
X-522337Y231621D01*
X-522295Y231726D01*
X-522249Y231831D01*
X-522200Y231933D01*
X-522147Y232034D01*
X-522091Y232133D01*
X-522032Y232230D01*
X-521969Y232325D01*
X-521903Y232418D01*
X-521835Y232509D01*
X-521763Y232597D01*
X-521688Y232683D01*
X-521611Y232766D01*
X-521530Y232847D01*
X-521448Y232925D01*
X-521362Y233000D01*
X-521274Y233072D01*
X-521184Y233141D01*
X-521091Y233207D01*
X-520996Y233270D01*
X-520900Y233330D01*
X-520801Y233387D01*
X-520700Y233440D01*
X-520598Y233490D01*
X-520494Y233536D01*
X-520389Y233579D01*
X-520282Y233618D01*
X-520174Y233654D01*
X-520064Y233686D01*
X-519954Y233714D01*
X-519843Y233739D01*
X-519731Y233759D01*
X-519619Y233777D01*
X-519506Y233790D01*
X-519392Y233799D01*
X-519279Y233805D01*
X-519165Y233807D01*
X-519051Y233805D01*
X-518938Y233799D01*
X-518824Y233790D01*
X-518711Y233777D01*
X-518599Y233759D01*
X-518487Y233739D01*
X-518376Y233714D01*
X-518266Y233686D01*
X-518156Y233654D01*
X-518048Y233618D01*
X-517941Y233579D01*
X-517836Y233536D01*
X-517732Y233490D01*
X-517630Y233440D01*
X-517529Y233387D01*
X-517430Y233330D01*
X-517334Y233270D01*
X-517239Y233207D01*
X-517146Y233141D01*
X-517056Y233072D01*
X-516968Y233000D01*
X-516883Y232925D01*
X-516800Y232847D01*
X-516719Y232766D01*
X-516642Y232683D01*
X-516567Y232597D01*
X-516495Y232509D01*
X-516427Y232418D01*
X-516361Y232325D01*
X-516298Y232230D01*
X-516239Y232133D01*
X-516183Y232034D01*
X-516130Y231933D01*
X-516081Y231831D01*
X-516035Y231726D01*
X-515993Y231621D01*
X-515954Y231514D01*
X-515955Y231514D02*
X-515816Y231220D01*
X-515684Y230923D01*
X-515560Y230623D01*
X-515442Y230321D01*
X-515332Y230015D01*
X-515229Y229707D01*
X-515134Y229397D01*
X-515045Y229084D01*
X-514965Y228769D01*
X-514892Y228453D01*
X-514826Y228135D01*
X-514769Y227815D01*
X-514718Y227494D01*
X-514676Y227172D01*
X-514641Y226849D01*
X-514614Y226526D01*
X-514595Y226201D01*
X-514583Y225877D01*
X-514579Y225552D01*
X-523751Y225552D02*
X-523747Y225227D01*
X-523735Y224903D01*
X-523716Y224578D01*
X-523689Y224255D01*
X-523654Y223932D01*
X-523612Y223610D01*
X-523561Y223289D01*
X-523504Y222969D01*
X-523438Y222651D01*
X-523365Y222335D01*
X-523285Y222020D01*
X-523196Y221707D01*
X-523101Y221397D01*
X-522998Y221089D01*
X-522888Y220783D01*
X-522770Y220480D01*
X-522646Y220180D01*
X-522514Y219884D01*
X-522375Y219590D01*
X-522376Y219590D02*
X-522337Y219483D01*
X-522295Y219378D01*
X-522249Y219273D01*
X-522200Y219171D01*
X-522147Y219070D01*
X-522091Y218971D01*
X-522032Y218874D01*
X-521969Y218779D01*
X-521903Y218686D01*
X-521835Y218595D01*
X-521763Y218507D01*
X-521688Y218421D01*
X-521611Y218338D01*
X-521530Y218257D01*
X-521448Y218179D01*
X-521362Y218104D01*
X-521274Y218032D01*
X-521184Y217963D01*
X-521091Y217897D01*
X-520996Y217834D01*
X-520900Y217774D01*
X-520801Y217717D01*
X-520700Y217664D01*
X-520598Y217614D01*
X-520494Y217568D01*
X-520389Y217525D01*
X-520282Y217486D01*
X-520174Y217450D01*
X-520064Y217418D01*
X-519954Y217390D01*
X-519843Y217365D01*
X-519731Y217345D01*
X-519619Y217327D01*
X-519506Y217314D01*
X-519392Y217305D01*
X-519279Y217299D01*
X-519165Y217297D01*
X-515954Y219590D02*
X-515815Y219883D01*
X-515683Y220180D01*
X-515559Y220480D01*
X-515441Y220783D01*
X-515331Y221089D01*
X-515228Y221397D01*
X-515133Y221707D01*
X-515044Y222020D01*
X-514964Y222335D01*
X-514891Y222651D01*
X-514825Y222969D01*
X-514768Y223289D01*
X-514717Y223610D01*
X-514675Y223932D01*
X-514640Y224255D01*
X-514613Y224578D01*
X-514594Y224903D01*
X-514582Y225227D01*
X-514578Y225552D01*
X-515954Y219590D02*
X-515993Y219483D01*
X-516035Y219378D01*
X-516081Y219273D01*
X-516130Y219171D01*
X-516183Y219070D01*
X-516239Y218971D01*
X-516298Y218874D01*
X-516361Y218779D01*
X-516427Y218686D01*
X-516495Y218595D01*
X-516567Y218507D01*
X-516642Y218421D01*
X-516719Y218338D01*
X-516800Y218257D01*
X-516883Y218179D01*
X-516968Y218104D01*
X-517056Y218032D01*
X-517146Y217963D01*
X-517239Y217896D01*
X-517334Y217834D01*
X-517430Y217774D01*
X-517529Y217717D01*
X-517630Y217664D01*
X-517732Y217614D01*
X-517836Y217568D01*
X-517941Y217525D01*
X-518048Y217486D01*
X-518156Y217450D01*
X-518266Y217418D01*
X-518376Y217390D01*
X-518487Y217365D01*
X-518599Y217345D01*
X-518711Y217327D01*
X-518824Y217314D01*
X-518938Y217305D01*
X-519051Y217299D01*
X-519165Y217297D01*
X-522833Y220966D02*
X-515496Y230138D01*
X-620903Y208407D02*
X-620903Y191897D01*
X-616317Y191897D01*
X-616214Y191899D01*
X-616111Y191905D01*
X-616009Y191914D01*
X-615907Y191928D01*
X-615805Y191945D01*
X-615705Y191966D01*
X-615605Y191991D01*
X-615506Y192019D01*
X-615408Y192051D01*
X-615312Y192087D01*
X-615216Y192127D01*
X-615123Y192170D01*
X-615031Y192216D01*
X-614941Y192266D01*
X-614853Y192319D01*
X-614767Y192375D01*
X-614683Y192435D01*
X-614601Y192497D01*
X-614522Y192563D01*
X-614445Y192632D01*
X-614371Y192703D01*
X-614300Y192777D01*
X-614231Y192854D01*
X-614165Y192933D01*
X-614103Y193015D01*
X-614043Y193099D01*
X-613987Y193185D01*
X-613934Y193273D01*
X-613884Y193363D01*
X-613838Y193455D01*
X-613795Y193548D01*
X-613755Y193644D01*
X-613719Y193740D01*
X-613687Y193838D01*
X-613659Y193937D01*
X-613634Y194037D01*
X-613613Y194137D01*
X-613596Y194239D01*
X-613582Y194341D01*
X-613573Y194443D01*
X-613567Y194546D01*
X-613565Y194649D01*
X-613565Y200152D01*
X-613567Y200255D01*
X-613573Y200358D01*
X-613582Y200460D01*
X-613596Y200562D01*
X-613613Y200664D01*
X-613634Y200764D01*
X-613659Y200864D01*
X-613687Y200963D01*
X-613719Y201061D01*
X-613755Y201157D01*
X-613795Y201253D01*
X-613838Y201346D01*
X-613884Y201438D01*
X-613934Y201528D01*
X-613987Y201616D01*
X-614043Y201702D01*
X-614103Y201786D01*
X-614165Y201868D01*
X-614231Y201947D01*
X-614300Y202024D01*
X-614371Y202098D01*
X-614445Y202169D01*
X-614522Y202238D01*
X-614601Y202304D01*
X-614683Y202366D01*
X-614767Y202426D01*
X-614853Y202482D01*
X-614941Y202535D01*
X-615031Y202585D01*
X-615123Y202631D01*
X-615217Y202674D01*
X-615312Y202714D01*
X-615408Y202750D01*
X-615506Y202782D01*
X-615605Y202810D01*
X-615705Y202835D01*
X-615805Y202856D01*
X-615907Y202873D01*
X-616009Y202887D01*
X-616111Y202896D01*
X-616214Y202902D01*
X-616317Y202904D01*
X-620903Y202904D01*
X-607050Y186394D02*
X-605216Y186394D01*
X-599712Y202904D01*
X-607050Y202904D02*
X-603381Y191897D01*
X-580295Y195566D02*
X-580295Y208407D01*
X-580294Y195566D02*
X-580296Y195446D01*
X-580302Y195326D01*
X-580312Y195206D01*
X-580325Y195087D01*
X-580343Y194968D01*
X-580364Y194850D01*
X-580390Y194733D01*
X-580419Y194616D01*
X-580452Y194501D01*
X-580489Y194387D01*
X-580529Y194274D01*
X-580573Y194162D01*
X-580621Y194052D01*
X-580672Y193943D01*
X-580727Y193836D01*
X-580786Y193732D01*
X-580847Y193629D01*
X-580912Y193528D01*
X-580981Y193429D01*
X-581052Y193332D01*
X-581127Y193238D01*
X-581204Y193147D01*
X-581285Y193058D01*
X-581369Y192972D01*
X-581455Y192888D01*
X-581544Y192807D01*
X-581635Y192730D01*
X-581729Y192655D01*
X-581826Y192584D01*
X-581925Y192515D01*
X-582026Y192450D01*
X-582129Y192389D01*
X-582233Y192330D01*
X-582340Y192275D01*
X-582449Y192224D01*
X-582559Y192176D01*
X-582671Y192132D01*
X-582784Y192092D01*
X-582898Y192055D01*
X-583013Y192022D01*
X-583130Y191993D01*
X-583247Y191967D01*
X-583365Y191946D01*
X-583484Y191928D01*
X-583603Y191915D01*
X-583723Y191905D01*
X-583843Y191899D01*
X-583963Y191897D01*
X-585798Y191897D01*
X-569328Y198318D02*
X-565201Y198318D01*
X-569328Y198317D02*
X-569440Y198315D01*
X-569552Y198309D01*
X-569664Y198299D01*
X-569775Y198286D01*
X-569885Y198268D01*
X-569995Y198247D01*
X-570105Y198222D01*
X-570213Y198193D01*
X-570320Y198160D01*
X-570426Y198123D01*
X-570530Y198083D01*
X-570634Y198039D01*
X-570735Y197992D01*
X-570835Y197941D01*
X-570933Y197887D01*
X-571029Y197829D01*
X-571123Y197768D01*
X-571215Y197704D01*
X-571304Y197637D01*
X-571391Y197566D01*
X-571476Y197492D01*
X-571558Y197416D01*
X-571637Y197337D01*
X-571713Y197255D01*
X-571787Y197170D01*
X-571858Y197083D01*
X-571925Y196994D01*
X-571989Y196902D01*
X-572050Y196808D01*
X-572108Y196712D01*
X-572162Y196614D01*
X-572213Y196514D01*
X-572260Y196413D01*
X-572304Y196309D01*
X-572344Y196205D01*
X-572381Y196099D01*
X-572414Y195992D01*
X-572443Y195884D01*
X-572468Y195774D01*
X-572489Y195664D01*
X-572507Y195554D01*
X-572520Y195443D01*
X-572530Y195331D01*
X-572536Y195219D01*
X-572538Y195107D01*
X-572536Y194995D01*
X-572530Y194883D01*
X-572520Y194771D01*
X-572507Y194660D01*
X-572489Y194550D01*
X-572468Y194440D01*
X-572443Y194330D01*
X-572414Y194222D01*
X-572381Y194115D01*
X-572344Y194009D01*
X-572304Y193905D01*
X-572260Y193801D01*
X-572213Y193700D01*
X-572162Y193600D01*
X-572108Y193502D01*
X-572050Y193406D01*
X-571989Y193312D01*
X-571925Y193220D01*
X-571858Y193131D01*
X-571787Y193044D01*
X-571713Y192959D01*
X-571637Y192877D01*
X-571558Y192798D01*
X-571476Y192722D01*
X-571391Y192648D01*
X-571304Y192577D01*
X-571215Y192510D01*
X-571123Y192446D01*
X-571029Y192385D01*
X-570933Y192327D01*
X-570835Y192273D01*
X-570735Y192222D01*
X-570634Y192175D01*
X-570530Y192131D01*
X-570426Y192091D01*
X-570320Y192054D01*
X-570213Y192021D01*
X-570105Y191992D01*
X-569995Y191967D01*
X-569885Y191946D01*
X-569775Y191928D01*
X-569664Y191915D01*
X-569552Y191905D01*
X-569440Y191899D01*
X-569328Y191897D01*
X-565201Y191897D01*
X-565201Y200152D01*
X-565200Y200152D02*
X-565202Y200255D01*
X-565208Y200358D01*
X-565217Y200460D01*
X-565231Y200562D01*
X-565248Y200664D01*
X-565269Y200764D01*
X-565294Y200864D01*
X-565322Y200963D01*
X-565354Y201061D01*
X-565390Y201157D01*
X-565430Y201253D01*
X-565473Y201346D01*
X-565519Y201438D01*
X-565569Y201528D01*
X-565622Y201616D01*
X-565678Y201702D01*
X-565738Y201786D01*
X-565800Y201868D01*
X-565866Y201947D01*
X-565935Y202024D01*
X-566006Y202098D01*
X-566080Y202169D01*
X-566157Y202238D01*
X-566236Y202304D01*
X-566318Y202366D01*
X-566402Y202426D01*
X-566488Y202482D01*
X-566576Y202535D01*
X-566666Y202585D01*
X-566758Y202631D01*
X-566852Y202674D01*
X-566947Y202714D01*
X-567043Y202750D01*
X-567141Y202782D01*
X-567240Y202810D01*
X-567340Y202835D01*
X-567440Y202856D01*
X-567542Y202873D01*
X-567644Y202887D01*
X-567746Y202896D01*
X-567849Y202902D01*
X-567952Y202904D01*
X-571621Y202904D01*
X-556555Y208407D02*
X-556555Y191897D01*
X-556555Y197400D02*
X-549217Y202904D01*
X-553345Y199693D02*
X-549217Y191897D01*
X-542840Y195566D02*
X-542840Y199235D01*
X-542838Y199355D01*
X-542832Y199475D01*
X-542822Y199595D01*
X-542809Y199714D01*
X-542791Y199833D01*
X-542770Y199951D01*
X-542744Y200068D01*
X-542715Y200185D01*
X-542682Y200300D01*
X-542645Y200414D01*
X-542605Y200527D01*
X-542561Y200639D01*
X-542513Y200749D01*
X-542462Y200858D01*
X-542407Y200965D01*
X-542348Y201070D01*
X-542287Y201172D01*
X-542222Y201273D01*
X-542153Y201372D01*
X-542082Y201469D01*
X-542007Y201563D01*
X-541930Y201654D01*
X-541849Y201743D01*
X-541765Y201829D01*
X-541679Y201913D01*
X-541590Y201994D01*
X-541499Y202071D01*
X-541405Y202146D01*
X-541308Y202217D01*
X-541209Y202286D01*
X-541108Y202351D01*
X-541006Y202412D01*
X-540901Y202471D01*
X-540794Y202526D01*
X-540685Y202577D01*
X-540575Y202625D01*
X-540463Y202669D01*
X-540350Y202709D01*
X-540236Y202746D01*
X-540121Y202779D01*
X-540004Y202808D01*
X-539887Y202834D01*
X-539769Y202855D01*
X-539650Y202873D01*
X-539531Y202886D01*
X-539411Y202896D01*
X-539291Y202902D01*
X-539171Y202904D01*
X-539051Y202902D01*
X-538931Y202896D01*
X-538811Y202886D01*
X-538692Y202873D01*
X-538573Y202855D01*
X-538455Y202834D01*
X-538338Y202808D01*
X-538221Y202779D01*
X-538106Y202746D01*
X-537992Y202709D01*
X-537879Y202669D01*
X-537767Y202625D01*
X-537657Y202577D01*
X-537548Y202526D01*
X-537441Y202471D01*
X-537337Y202412D01*
X-537234Y202351D01*
X-537133Y202286D01*
X-537034Y202217D01*
X-536937Y202146D01*
X-536843Y202071D01*
X-536752Y201994D01*
X-536663Y201913D01*
X-536577Y201829D01*
X-536493Y201743D01*
X-536412Y201654D01*
X-536335Y201563D01*
X-536260Y201469D01*
X-536189Y201372D01*
X-536120Y201273D01*
X-536055Y201172D01*
X-535994Y201070D01*
X-535935Y200965D01*
X-535880Y200858D01*
X-535829Y200749D01*
X-535781Y200639D01*
X-535737Y200527D01*
X-535697Y200414D01*
X-535660Y200300D01*
X-535627Y200185D01*
X-535598Y200068D01*
X-535572Y199951D01*
X-535551Y199833D01*
X-535533Y199714D01*
X-535520Y199595D01*
X-535510Y199475D01*
X-535504Y199355D01*
X-535502Y199235D01*
X-535502Y195566D01*
X-535504Y195446D01*
X-535510Y195326D01*
X-535520Y195206D01*
X-535533Y195087D01*
X-535551Y194968D01*
X-535572Y194850D01*
X-535598Y194733D01*
X-535627Y194616D01*
X-535660Y194501D01*
X-535697Y194387D01*
X-535737Y194274D01*
X-535781Y194162D01*
X-535829Y194052D01*
X-535880Y193943D01*
X-535935Y193836D01*
X-535994Y193732D01*
X-536055Y193629D01*
X-536120Y193528D01*
X-536189Y193429D01*
X-536260Y193332D01*
X-536335Y193238D01*
X-536412Y193147D01*
X-536493Y193058D01*
X-536577Y192972D01*
X-536663Y192888D01*
X-536752Y192807D01*
X-536843Y192730D01*
X-536937Y192655D01*
X-537034Y192584D01*
X-537133Y192515D01*
X-537234Y192450D01*
X-537337Y192389D01*
X-537441Y192330D01*
X-537548Y192275D01*
X-537657Y192224D01*
X-537767Y192176D01*
X-537879Y192132D01*
X-537992Y192092D01*
X-538106Y192055D01*
X-538221Y192022D01*
X-538338Y191993D01*
X-538455Y191967D01*
X-538573Y191946D01*
X-538692Y191928D01*
X-538811Y191915D01*
X-538931Y191905D01*
X-539051Y191899D01*
X-539171Y191897D01*
X-539291Y191899D01*
X-539411Y191905D01*
X-539531Y191915D01*
X-539650Y191928D01*
X-539769Y191946D01*
X-539887Y191967D01*
X-540004Y191993D01*
X-540121Y192022D01*
X-540236Y192055D01*
X-540350Y192092D01*
X-540463Y192132D01*
X-540575Y192176D01*
X-540685Y192224D01*
X-540794Y192275D01*
X-540901Y192330D01*
X-541006Y192389D01*
X-541108Y192450D01*
X-541209Y192515D01*
X-541308Y192584D01*
X-541405Y192655D01*
X-541499Y192730D01*
X-541590Y192807D01*
X-541679Y192888D01*
X-541765Y192972D01*
X-541849Y193058D01*
X-541930Y193147D01*
X-542007Y193238D01*
X-542082Y193332D01*
X-542153Y193429D01*
X-542222Y193528D01*
X-542287Y193629D01*
X-542348Y193732D01*
X-542407Y193836D01*
X-542462Y193943D01*
X-542513Y194052D01*
X-542561Y194162D01*
X-542605Y194274D01*
X-542645Y194387D01*
X-542682Y194501D01*
X-542715Y194616D01*
X-542744Y194733D01*
X-542770Y194850D01*
X-542791Y194968D01*
X-542809Y195087D01*
X-542822Y195206D01*
X-542832Y195326D01*
X-542838Y195446D01*
X-542840Y195566D01*
X-527659Y191897D02*
X-527659Y208407D01*
X-527659Y191897D02*
X-523073Y191897D01*
X-522970Y191899D01*
X-522867Y191905D01*
X-522765Y191914D01*
X-522663Y191928D01*
X-522561Y191945D01*
X-522461Y191966D01*
X-522361Y191991D01*
X-522262Y192019D01*
X-522164Y192051D01*
X-522068Y192087D01*
X-521972Y192127D01*
X-521879Y192170D01*
X-521787Y192216D01*
X-521697Y192266D01*
X-521609Y192319D01*
X-521523Y192375D01*
X-521439Y192435D01*
X-521357Y192497D01*
X-521278Y192563D01*
X-521201Y192632D01*
X-521127Y192703D01*
X-521056Y192777D01*
X-520987Y192854D01*
X-520921Y192933D01*
X-520859Y193015D01*
X-520799Y193099D01*
X-520743Y193185D01*
X-520690Y193273D01*
X-520640Y193363D01*
X-520594Y193455D01*
X-520551Y193548D01*
X-520511Y193644D01*
X-520475Y193740D01*
X-520443Y193838D01*
X-520415Y193937D01*
X-520390Y194037D01*
X-520369Y194137D01*
X-520352Y194239D01*
X-520338Y194341D01*
X-520329Y194443D01*
X-520323Y194546D01*
X-520321Y194649D01*
X-520321Y200152D01*
X-520323Y200255D01*
X-520329Y200358D01*
X-520338Y200460D01*
X-520352Y200562D01*
X-520369Y200664D01*
X-520390Y200764D01*
X-520415Y200864D01*
X-520443Y200963D01*
X-520475Y201061D01*
X-520511Y201157D01*
X-520551Y201253D01*
X-520594Y201346D01*
X-520640Y201438D01*
X-520690Y201528D01*
X-520743Y201616D01*
X-520799Y201702D01*
X-520859Y201786D01*
X-520921Y201868D01*
X-520987Y201947D01*
X-521056Y202024D01*
X-521127Y202098D01*
X-521201Y202169D01*
X-521278Y202238D01*
X-521357Y202304D01*
X-521439Y202366D01*
X-521523Y202426D01*
X-521609Y202482D01*
X-521697Y202535D01*
X-521787Y202585D01*
X-521879Y202631D01*
X-521973Y202674D01*
X-522068Y202714D01*
X-522164Y202750D01*
X-522262Y202782D01*
X-522361Y202810D01*
X-522461Y202835D01*
X-522561Y202856D01*
X-522663Y202873D01*
X-522765Y202887D01*
X-522867Y202896D01*
X-522970Y202902D01*
X-523073Y202904D01*
X-527659Y202904D01*
X-503556Y208407D02*
X-503556Y191897D01*
X-503556Y201069D02*
X-494384Y201069D01*
X-494384Y208407D02*
X-494384Y191897D01*
X-486447Y195566D02*
X-486447Y199235D01*
X-486445Y199355D01*
X-486439Y199475D01*
X-486429Y199595D01*
X-486416Y199714D01*
X-486398Y199833D01*
X-486377Y199951D01*
X-486351Y200068D01*
X-486322Y200185D01*
X-486289Y200300D01*
X-486252Y200414D01*
X-486212Y200527D01*
X-486168Y200639D01*
X-486120Y200749D01*
X-486069Y200858D01*
X-486014Y200965D01*
X-485955Y201070D01*
X-485894Y201172D01*
X-485829Y201273D01*
X-485760Y201372D01*
X-485689Y201469D01*
X-485614Y201563D01*
X-485537Y201654D01*
X-485456Y201743D01*
X-485372Y201829D01*
X-485286Y201913D01*
X-485197Y201994D01*
X-485106Y202071D01*
X-485012Y202146D01*
X-484915Y202217D01*
X-484816Y202286D01*
X-484715Y202351D01*
X-484613Y202412D01*
X-484508Y202471D01*
X-484401Y202526D01*
X-484292Y202577D01*
X-484182Y202625D01*
X-484070Y202669D01*
X-483957Y202709D01*
X-483843Y202746D01*
X-483728Y202779D01*
X-483611Y202808D01*
X-483494Y202834D01*
X-483376Y202855D01*
X-483257Y202873D01*
X-483138Y202886D01*
X-483018Y202896D01*
X-482898Y202902D01*
X-482778Y202904D01*
X-482658Y202902D01*
X-482538Y202896D01*
X-482418Y202886D01*
X-482299Y202873D01*
X-482180Y202855D01*
X-482062Y202834D01*
X-481945Y202808D01*
X-481828Y202779D01*
X-481713Y202746D01*
X-481599Y202709D01*
X-481486Y202669D01*
X-481374Y202625D01*
X-481264Y202577D01*
X-481155Y202526D01*
X-481048Y202471D01*
X-480944Y202412D01*
X-480841Y202351D01*
X-480740Y202286D01*
X-480641Y202217D01*
X-480544Y202146D01*
X-480450Y202071D01*
X-480359Y201994D01*
X-480270Y201913D01*
X-480184Y201829D01*
X-480100Y201743D01*
X-480019Y201654D01*
X-479942Y201563D01*
X-479867Y201469D01*
X-479796Y201372D01*
X-479727Y201273D01*
X-479662Y201172D01*
X-479601Y201070D01*
X-479542Y200965D01*
X-479487Y200858D01*
X-479436Y200749D01*
X-479388Y200639D01*
X-479344Y200527D01*
X-479304Y200414D01*
X-479267Y200300D01*
X-479234Y200185D01*
X-479205Y200068D01*
X-479179Y199951D01*
X-479158Y199833D01*
X-479140Y199714D01*
X-479127Y199595D01*
X-479117Y199475D01*
X-479111Y199355D01*
X-479109Y199235D01*
X-479109Y195566D01*
X-479111Y195446D01*
X-479117Y195326D01*
X-479127Y195206D01*
X-479140Y195087D01*
X-479158Y194968D01*
X-479179Y194850D01*
X-479205Y194733D01*
X-479234Y194616D01*
X-479267Y194501D01*
X-479304Y194387D01*
X-479344Y194274D01*
X-479388Y194162D01*
X-479436Y194052D01*
X-479487Y193943D01*
X-479542Y193836D01*
X-479601Y193732D01*
X-479662Y193629D01*
X-479727Y193528D01*
X-479796Y193429D01*
X-479867Y193332D01*
X-479942Y193238D01*
X-480019Y193147D01*
X-480100Y193058D01*
X-480184Y192972D01*
X-480270Y192888D01*
X-480359Y192807D01*
X-480450Y192730D01*
X-480544Y192655D01*
X-480641Y192584D01*
X-480740Y192515D01*
X-480841Y192450D01*
X-480943Y192389D01*
X-481048Y192330D01*
X-481155Y192275D01*
X-481264Y192224D01*
X-481374Y192176D01*
X-481486Y192132D01*
X-481599Y192092D01*
X-481713Y192055D01*
X-481828Y192022D01*
X-481945Y191993D01*
X-482062Y191967D01*
X-482180Y191946D01*
X-482299Y191928D01*
X-482418Y191915D01*
X-482538Y191905D01*
X-482658Y191899D01*
X-482778Y191897D01*
X-482898Y191899D01*
X-483018Y191905D01*
X-483138Y191915D01*
X-483257Y191928D01*
X-483376Y191946D01*
X-483494Y191967D01*
X-483611Y191993D01*
X-483728Y192022D01*
X-483843Y192055D01*
X-483957Y192092D01*
X-484070Y192132D01*
X-484182Y192176D01*
X-484292Y192224D01*
X-484401Y192275D01*
X-484508Y192330D01*
X-484613Y192389D01*
X-484715Y192450D01*
X-484816Y192515D01*
X-484915Y192584D01*
X-485012Y192655D01*
X-485106Y192730D01*
X-485197Y192807D01*
X-485286Y192888D01*
X-485372Y192972D01*
X-485456Y193058D01*
X-485537Y193147D01*
X-485614Y193238D01*
X-485689Y193332D01*
X-485760Y193429D01*
X-485829Y193528D01*
X-485894Y193629D01*
X-485955Y193732D01*
X-486014Y193836D01*
X-486069Y193943D01*
X-486120Y194052D01*
X-486168Y194162D01*
X-486212Y194274D01*
X-486252Y194387D01*
X-486289Y194501D01*
X-486322Y194616D01*
X-486351Y194733D01*
X-486377Y194850D01*
X-486398Y194968D01*
X-486416Y195087D01*
X-486429Y195206D01*
X-486439Y195326D01*
X-486445Y195446D01*
X-486447Y195566D01*
X-471779Y194649D02*
X-471779Y208407D01*
X-471779Y194649D02*
X-471777Y194546D01*
X-471771Y194443D01*
X-471762Y194341D01*
X-471748Y194239D01*
X-471731Y194137D01*
X-471710Y194037D01*
X-471685Y193937D01*
X-471657Y193838D01*
X-471625Y193740D01*
X-471589Y193644D01*
X-471549Y193549D01*
X-471506Y193455D01*
X-471460Y193363D01*
X-471410Y193273D01*
X-471357Y193185D01*
X-471301Y193099D01*
X-471241Y193015D01*
X-471179Y192933D01*
X-471113Y192854D01*
X-471044Y192777D01*
X-470973Y192703D01*
X-470899Y192632D01*
X-470822Y192563D01*
X-470743Y192497D01*
X-470661Y192435D01*
X-470577Y192375D01*
X-470491Y192319D01*
X-470403Y192266D01*
X-470313Y192216D01*
X-470221Y192170D01*
X-470128Y192127D01*
X-470032Y192087D01*
X-469936Y192051D01*
X-469838Y192019D01*
X-469739Y191991D01*
X-469639Y191966D01*
X-469539Y191945D01*
X-469437Y191928D01*
X-469335Y191914D01*
X-469233Y191905D01*
X-469130Y191899D01*
X-469027Y191897D01*
X-463554Y202904D02*
X-456217Y202904D01*
X-463554Y191897D01*
X-456217Y191897D01*
D12*
X-115824Y113284D03*
X-115824Y140970D03*
X-115824Y168656D03*
X-115824Y196342D03*
X-115824Y224028D03*
X-115824Y251714D03*
X-115824Y279400D03*
X-115824Y307086D03*
X-115824Y334772D03*
X-115824Y362458D03*
X-115824Y390144D03*
X-115824Y417830D03*
X-115824Y445516D03*
X-87376Y127127D03*
X-87376Y154813D03*
X-87376Y182499D03*
X-87376Y210185D03*
X-87376Y237871D03*
X-87376Y265557D03*
X-87376Y293243D03*
X-87376Y320929D03*
X-87376Y348615D03*
X-87376Y376301D03*
X-87376Y403987D03*
X-87376Y431673D03*
D13*
X-419100Y558800D03*
X-444500Y76200D03*
X-393700Y558800D03*
X-368300Y558800D03*
X-342900Y558800D03*
X-317500Y558800D03*
X-444500Y558800D03*
X-469900Y558800D03*
X-495300Y558800D03*
X-535940Y558800D03*
X-561340Y558800D03*
X-586740Y558800D03*
X-612140Y558800D03*
X-637540Y558800D03*
X-662940Y558800D03*
X-688340Y558800D03*
X-713740Y558800D03*
X-419100Y76200D03*
X-393700Y76200D03*
X-368300Y76200D03*
X-342900Y76200D03*
X-317500Y76200D03*
X-495300Y76200D03*
X-520700Y76200D03*
X-546100Y76200D03*
X-571500Y76200D03*
X-596900Y76200D03*
X-622300Y76200D03*
D14*
X-914800Y626047D02*
X-914800Y643954D01*
X-964800Y643954D02*
X-964800Y626047D01*
X-813200Y626047D02*
X-813200Y643954D01*
X-863200Y643954D02*
X-863200Y626047D01*
D15*
X-419100Y533400D03*
X-419100Y431800D03*
X-444500Y533400D03*
X-444500Y431800D03*
X-368300Y408940D03*
D16*
X-368300Y429260D03*
D17*
X-482092Y431800D02*
X-495300Y431800D01*
X-495300Y406400D02*
X-482092Y406400D01*
X-571500Y406400D02*
X-584708Y406400D01*
X-584708Y431800D02*
X-571500Y431800D01*
D18*
X-177800Y424434D02*
X-115824Y362458D01*
X-177800Y424434D02*
X-177800Y533400D01*
X-241300Y596900D01*
X-497840Y596900D01*
X-535940Y558800D01*
X-87376Y154813D02*
X-63500Y178689D01*
X-63500Y520700D01*
X-190500Y647700D01*
X-561340Y558800D02*
X-561340Y556260D01*
X-584200Y533400D01*
X-723900Y533400D01*
X-736600Y546100D01*
X-736600Y596900D01*
X-685800Y647700D01*
X-190500Y647700D01*
X-165100Y439420D02*
X-115824Y390144D01*
X-165100Y439420D02*
X-165100Y546100D01*
X-228600Y609600D01*
X-535940Y609600D01*
X-586740Y558800D01*
X-152400Y454406D02*
X-115824Y417830D01*
X-152400Y454406D02*
X-152400Y558800D01*
X-215900Y622300D01*
X-548640Y622300D01*
X-612140Y558800D01*
X-139700Y469392D02*
X-115824Y445516D01*
X-139700Y571500D02*
X-203200Y635000D01*
X-561340Y635000D01*
X-637540Y558800D01*
X-139700Y571500D02*
X-139700Y469392D01*
X-444500Y533400D02*
X-444500Y558800D01*
X-115824Y140970D02*
X-244094Y12700D01*
X-444500Y12700D01*
X-444500Y76200D01*
X-261620Y22860D02*
X-115824Y168656D01*
X-261620Y22860D02*
X-419100Y22860D01*
X-419100Y76200D01*
X-279146Y33020D02*
X-115824Y196342D01*
X-279146Y33020D02*
X-393700Y33020D01*
X-393700Y76200D01*
X-296672Y43180D02*
X-115824Y224028D01*
X-296672Y43180D02*
X-368300Y43180D01*
X-368300Y76200D01*
X-314198Y53340D02*
X-115824Y251714D01*
X-314198Y53340D02*
X-342900Y53340D01*
X-342900Y76200D01*
X-317500Y77724D02*
X-115824Y279400D01*
X-317500Y77724D02*
X-317500Y76200D01*
X-419100Y533400D02*
X-419100Y558800D01*
X-370840Y431800D02*
X-368300Y429260D01*
X-370840Y431800D02*
X-419100Y431800D01*
X-914800Y571900D02*
X-914800Y635000D01*
X-914800Y571900D02*
X-723900Y381000D01*
X-469900Y381000D01*
X-419100Y431800D01*
X-571500Y431800D02*
X-723900Y431800D01*
X-825500Y533400D01*
X-825500Y596900D01*
X-812800Y609600D01*
X-812800Y634600D01*
X-813200Y635000D01*
X-863200Y635000D02*
X-863200Y545700D01*
X-723900Y406400D01*
X-571500Y406400D01*
X-495300Y431800D02*
X-444500Y431800D01*
X-87376Y127127D02*
X-50800Y163703D01*
X-50800Y533400D01*
X-177800Y660400D01*
X-698500Y660400D01*
X-406400Y508000D02*
X-393700Y520700D01*
X-393700Y558800D01*
X-406400Y508000D02*
X-723900Y508000D01*
X-749300Y533400D01*
X-749300Y609600D01*
X-698500Y660400D01*
X-115824Y113284D02*
X-104140Y101600D01*
X-76200Y101600D01*
X-38100Y139700D01*
X-38100Y546100D01*
X-165100Y673100D01*
X-711200Y673100D01*
X-762000Y622300D01*
X-762000Y520700D01*
X-736600Y495300D01*
X-393700Y495300D01*
X-368300Y520700D01*
X-368300Y558800D01*
M02*
