G04 EAGLE Gerber X2 export*
%TF.Part,Single*%
%TF.FileFunction,Copper,L2,Bot,Mixed*%
%TF.FilePolarity,Positive*%
%TF.GenerationSoftware,Autodesk,EAGLE,9.6.2*%
%TF.CreationDate,2020-09-29T14:17:57Z*%
G75*
%MOMM*%
%FSLAX34Y34*%
%LPD*%
%INBottom Copper*%
%AMOC8*
5,1,8,0,0,1.08239X$1,22.5*%
G01*
%ADD10C,0.203200*%
%ADD11C,1.790700*%
%ADD12C,1.900000*%
%ADD13P,1.731824X8X202.500000*%
%ADD14C,1.600000*%
%ADD15C,1.500000*%
%ADD16C,1.930400*%
%ADD17C,5.080000*%
%ADD18C,0.381000*%

G36*
X-161709Y4574D02*
X-161709Y4574D01*
X-161718Y4573D01*
X-161912Y4594D01*
X-162101Y4613D01*
X-162110Y4615D01*
X-162119Y4616D01*
X-162303Y4675D01*
X-162486Y4731D01*
X-162494Y4735D01*
X-162502Y4738D01*
X-162671Y4831D01*
X-162840Y4923D01*
X-162847Y4928D01*
X-162855Y4933D01*
X-163002Y5057D01*
X-163149Y5180D01*
X-163155Y5187D01*
X-163162Y5193D01*
X-163281Y5345D01*
X-163402Y5494D01*
X-163406Y5502D01*
X-163411Y5509D01*
X-163499Y5682D01*
X-163587Y5851D01*
X-163590Y5860D01*
X-163594Y5868D01*
X-163646Y6054D01*
X-163699Y6238D01*
X-163699Y6247D01*
X-163702Y6256D01*
X-163716Y6449D01*
X-163731Y6640D01*
X-163730Y6648D01*
X-163731Y6657D01*
X-163707Y6850D01*
X-163685Y7039D01*
X-163682Y7048D01*
X-163681Y7057D01*
X-163619Y7239D01*
X-163560Y7422D01*
X-163555Y7430D01*
X-163552Y7438D01*
X-163456Y7605D01*
X-163362Y7773D01*
X-163356Y7780D01*
X-163352Y7787D01*
X-163137Y8040D01*
X-134462Y36715D01*
X-133476Y39095D01*
X-133476Y54086D01*
X-133468Y54173D01*
X-133469Y54261D01*
X-133448Y54373D01*
X-133436Y54487D01*
X-133411Y54571D01*
X-133394Y54657D01*
X-133352Y54763D01*
X-133318Y54872D01*
X-133276Y54949D01*
X-133243Y55030D01*
X-133181Y55125D01*
X-133126Y55226D01*
X-133070Y55293D01*
X-133022Y55366D01*
X-132942Y55448D01*
X-132869Y55535D01*
X-132800Y55590D01*
X-132738Y55652D01*
X-132644Y55716D01*
X-132555Y55787D01*
X-132477Y55828D01*
X-132404Y55877D01*
X-132299Y55920D01*
X-132198Y55973D01*
X-132113Y55997D01*
X-132032Y56031D01*
X-131920Y56053D01*
X-131811Y56084D01*
X-131723Y56091D01*
X-131637Y56108D01*
X-131523Y56108D01*
X-131409Y56117D01*
X-131322Y56107D01*
X-131234Y56106D01*
X-131123Y56083D01*
X-131010Y56070D01*
X-130926Y56043D01*
X-130840Y56025D01*
X-130735Y55981D01*
X-130627Y55945D01*
X-130550Y55902D01*
X-130470Y55868D01*
X-130375Y55803D01*
X-130276Y55747D01*
X-130210Y55690D01*
X-130137Y55640D01*
X-130058Y55559D01*
X-129972Y55484D01*
X-129918Y55415D01*
X-129856Y55352D01*
X-129795Y55256D01*
X-129725Y55166D01*
X-129686Y55088D01*
X-129638Y55014D01*
X-129596Y54908D01*
X-129545Y54806D01*
X-129523Y54721D01*
X-129490Y54639D01*
X-129463Y54499D01*
X-129441Y54417D01*
X-129437Y54365D01*
X-129427Y54314D01*
X-129189Y52208D01*
X-128491Y49149D01*
X-127455Y46187D01*
X-126093Y43359D01*
X-124423Y40702D01*
X-122467Y38248D01*
X-120248Y36029D01*
X-117794Y34073D01*
X-115137Y32403D01*
X-112309Y31041D01*
X-109347Y30005D01*
X-106288Y29307D01*
X-105663Y29236D01*
X-105663Y54864D01*
X-105661Y54882D01*
X-105663Y54899D01*
X-105641Y55082D01*
X-105623Y55264D01*
X-105618Y55282D01*
X-105616Y55299D01*
X-105559Y55474D01*
X-105505Y55649D01*
X-105497Y55665D01*
X-105491Y55682D01*
X-105401Y55842D01*
X-105313Y56003D01*
X-105302Y56017D01*
X-105293Y56033D01*
X-105173Y56172D01*
X-105056Y56313D01*
X-105042Y56324D01*
X-105030Y56337D01*
X-104885Y56450D01*
X-104742Y56565D01*
X-104726Y56573D01*
X-104712Y56584D01*
X-104547Y56666D01*
X-104385Y56751D01*
X-104368Y56755D01*
X-104351Y56763D01*
X-104173Y56811D01*
X-103998Y56862D01*
X-103980Y56863D01*
X-103963Y56868D01*
X-103632Y56895D01*
X-101599Y56895D01*
X-101599Y56897D01*
X-103632Y56897D01*
X-103650Y56899D01*
X-103667Y56897D01*
X-103850Y56919D01*
X-104033Y56937D01*
X-104050Y56942D01*
X-104067Y56944D01*
X-104242Y57001D01*
X-104417Y57055D01*
X-104433Y57063D01*
X-104450Y57069D01*
X-104610Y57159D01*
X-104772Y57247D01*
X-104785Y57258D01*
X-104801Y57267D01*
X-104940Y57387D01*
X-105081Y57504D01*
X-105092Y57518D01*
X-105105Y57530D01*
X-105218Y57674D01*
X-105333Y57818D01*
X-105341Y57834D01*
X-105352Y57848D01*
X-105434Y58013D01*
X-105519Y58176D01*
X-105524Y58193D01*
X-105532Y58209D01*
X-105579Y58387D01*
X-105630Y58562D01*
X-105631Y58580D01*
X-105636Y58597D01*
X-105663Y58928D01*
X-105663Y84556D01*
X-106288Y84485D01*
X-109347Y83787D01*
X-112309Y82751D01*
X-115137Y81389D01*
X-117794Y79719D01*
X-120248Y77763D01*
X-122467Y75544D01*
X-124423Y73090D01*
X-126093Y70433D01*
X-127455Y67605D01*
X-128491Y64643D01*
X-129189Y61584D01*
X-129427Y59478D01*
X-129445Y59393D01*
X-129454Y59305D01*
X-129487Y59196D01*
X-129511Y59085D01*
X-129546Y59004D01*
X-129572Y58920D01*
X-129626Y58820D01*
X-129672Y58716D01*
X-129722Y58643D01*
X-129764Y58566D01*
X-129836Y58479D01*
X-129902Y58385D01*
X-129965Y58324D01*
X-130021Y58257D01*
X-130110Y58186D01*
X-130192Y58107D01*
X-130267Y58060D01*
X-130335Y58005D01*
X-130436Y57952D01*
X-130532Y57891D01*
X-130614Y57860D01*
X-130692Y57819D01*
X-130802Y57788D01*
X-130908Y57747D01*
X-130995Y57732D01*
X-131079Y57708D01*
X-131193Y57698D01*
X-131305Y57679D01*
X-131393Y57682D01*
X-131481Y57675D01*
X-131594Y57688D01*
X-131708Y57692D01*
X-131793Y57712D01*
X-131880Y57722D01*
X-131989Y57757D01*
X-132100Y57783D01*
X-132180Y57819D01*
X-132263Y57847D01*
X-132362Y57903D01*
X-132466Y57950D01*
X-132537Y58001D01*
X-132614Y58045D01*
X-132700Y58119D01*
X-132792Y58186D01*
X-132852Y58250D01*
X-132919Y58308D01*
X-132988Y58398D01*
X-133066Y58481D01*
X-133112Y58557D01*
X-133165Y58626D01*
X-133216Y58728D01*
X-133275Y58825D01*
X-133305Y58908D01*
X-133345Y58986D01*
X-133374Y59097D01*
X-133413Y59204D01*
X-133426Y59290D01*
X-133449Y59375D01*
X-133461Y59518D01*
X-133474Y59602D01*
X-133472Y59654D01*
X-133476Y59706D01*
X-133476Y97313D01*
X-133474Y97340D01*
X-133476Y97367D01*
X-133454Y97541D01*
X-133436Y97714D01*
X-133429Y97740D01*
X-133425Y97766D01*
X-133370Y97932D01*
X-133318Y98099D01*
X-133305Y98123D01*
X-133297Y98148D01*
X-133210Y98300D01*
X-133126Y98453D01*
X-133109Y98473D01*
X-133096Y98497D01*
X-132881Y98750D01*
X-119669Y111962D01*
X-119652Y111976D01*
X-119637Y111993D01*
X-119496Y112104D01*
X-119358Y112217D01*
X-119338Y112227D01*
X-119320Y112241D01*
X-119160Y112322D01*
X-119002Y112406D01*
X-118981Y112412D01*
X-118961Y112422D01*
X-118788Y112469D01*
X-118616Y112520D01*
X-118594Y112522D01*
X-118572Y112528D01*
X-118394Y112541D01*
X-118215Y112557D01*
X-118193Y112554D01*
X-118171Y112556D01*
X-117993Y112533D01*
X-117815Y112513D01*
X-117793Y112507D01*
X-117771Y112504D01*
X-117455Y112402D01*
X-117129Y112267D01*
X-111470Y112267D01*
X-106242Y114433D01*
X-102241Y118434D01*
X-100075Y123662D01*
X-100075Y129270D01*
X-100070Y129321D01*
X-100073Y129372D01*
X-100050Y129521D01*
X-100035Y129670D01*
X-100020Y129719D01*
X-100013Y129770D01*
X-99961Y129911D01*
X-99917Y130055D01*
X-99893Y130100D01*
X-99875Y130148D01*
X-99797Y130277D01*
X-99725Y130409D01*
X-99693Y130448D01*
X-99666Y130492D01*
X-99564Y130603D01*
X-99468Y130719D01*
X-99428Y130751D01*
X-99393Y130788D01*
X-99271Y130877D01*
X-99154Y130971D01*
X-99109Y130994D01*
X-99067Y131024D01*
X-98930Y131087D01*
X-98797Y131156D01*
X-98748Y131171D01*
X-98701Y131192D01*
X-98554Y131226D01*
X-98410Y131268D01*
X-98359Y131272D01*
X-98309Y131284D01*
X-98158Y131288D01*
X-98008Y131301D01*
X-97958Y131295D01*
X-97907Y131296D01*
X-97758Y131271D01*
X-97609Y131254D01*
X-97560Y131238D01*
X-97510Y131229D01*
X-97369Y131176D01*
X-97226Y131129D01*
X-97181Y131104D01*
X-97134Y131085D01*
X-96936Y130966D01*
X-96875Y130931D01*
X-96865Y130922D01*
X-96850Y130913D01*
X-95291Y129780D01*
X-93580Y128909D01*
X-91755Y128316D01*
X-91439Y128265D01*
X-91439Y137669D01*
X-101006Y137669D01*
X-101060Y137516D01*
X-101110Y137356D01*
X-101126Y137327D01*
X-101138Y137296D01*
X-101224Y137151D01*
X-101305Y137004D01*
X-101327Y136978D01*
X-101344Y136950D01*
X-101457Y136825D01*
X-101566Y136697D01*
X-101592Y136676D01*
X-101614Y136651D01*
X-101750Y136551D01*
X-101882Y136447D01*
X-101911Y136432D01*
X-101938Y136412D01*
X-102091Y136341D01*
X-102241Y136265D01*
X-102273Y136256D01*
X-102303Y136242D01*
X-102466Y136202D01*
X-102628Y136157D01*
X-102662Y136154D01*
X-102694Y136147D01*
X-102862Y136140D01*
X-103030Y136127D01*
X-103063Y136132D01*
X-103096Y136130D01*
X-103262Y136157D01*
X-103429Y136178D01*
X-103461Y136189D01*
X-103494Y136194D01*
X-103651Y136252D01*
X-103811Y136306D01*
X-103840Y136323D01*
X-103871Y136334D01*
X-104014Y136423D01*
X-104160Y136507D01*
X-104188Y136531D01*
X-104213Y136547D01*
X-104276Y136606D01*
X-104413Y136722D01*
X-106301Y138610D01*
X-106373Y138648D01*
X-106380Y138654D01*
X-106388Y138659D01*
X-106536Y138783D01*
X-106683Y138905D01*
X-106689Y138912D01*
X-106696Y138918D01*
X-106817Y139069D01*
X-106937Y139217D01*
X-106941Y139225D01*
X-106947Y139233D01*
X-107035Y139404D01*
X-107124Y139574D01*
X-107127Y139582D01*
X-107131Y139591D01*
X-107183Y139775D01*
X-107237Y139960D01*
X-107238Y139969D01*
X-107241Y139978D01*
X-107255Y140168D01*
X-107272Y140361D01*
X-107271Y140370D01*
X-107272Y140379D01*
X-107249Y140569D01*
X-107227Y140761D01*
X-107224Y140770D01*
X-107223Y140779D01*
X-107163Y140961D01*
X-107104Y141145D01*
X-107099Y141153D01*
X-107097Y141161D01*
X-107002Y141327D01*
X-106908Y141496D01*
X-106902Y141503D01*
X-106897Y141511D01*
X-106771Y141656D01*
X-106646Y141802D01*
X-106639Y141808D01*
X-106633Y141815D01*
X-106480Y141932D01*
X-106329Y142050D01*
X-106321Y142054D01*
X-106313Y142060D01*
X-106288Y142073D01*
X-104365Y143996D01*
X-104235Y144103D01*
X-104108Y144213D01*
X-104079Y144230D01*
X-104054Y144251D01*
X-103905Y144330D01*
X-103759Y144414D01*
X-103727Y144424D01*
X-103698Y144440D01*
X-103537Y144488D01*
X-103377Y144541D01*
X-103344Y144545D01*
X-103312Y144555D01*
X-103144Y144570D01*
X-102977Y144590D01*
X-102944Y144588D01*
X-102911Y144591D01*
X-102743Y144573D01*
X-102576Y144560D01*
X-102544Y144551D01*
X-102511Y144548D01*
X-102350Y144497D01*
X-102188Y144451D01*
X-102159Y144436D01*
X-102127Y144426D01*
X-101979Y144344D01*
X-101830Y144268D01*
X-101804Y144247D01*
X-101775Y144231D01*
X-101646Y144122D01*
X-101514Y144018D01*
X-101493Y143992D01*
X-101468Y143971D01*
X-101363Y143839D01*
X-101255Y143710D01*
X-101239Y143681D01*
X-101218Y143655D01*
X-101142Y143505D01*
X-101061Y143357D01*
X-101051Y143326D01*
X-101036Y143296D01*
X-100990Y143133D01*
X-100940Y142973D01*
X-100937Y142940D01*
X-100928Y142908D01*
X-100916Y142747D01*
X-91439Y142747D01*
X-91439Y165355D01*
X-101006Y165355D01*
X-101059Y165203D01*
X-101110Y165042D01*
X-101126Y165013D01*
X-101138Y164982D01*
X-101224Y164837D01*
X-101305Y164690D01*
X-101327Y164664D01*
X-101344Y164636D01*
X-101457Y164511D01*
X-101566Y164383D01*
X-101592Y164362D01*
X-101614Y164337D01*
X-101750Y164237D01*
X-101882Y164133D01*
X-101911Y164118D01*
X-101938Y164098D01*
X-102091Y164027D01*
X-102240Y163951D01*
X-102273Y163942D01*
X-102303Y163928D01*
X-102466Y163888D01*
X-102628Y163843D01*
X-102662Y163840D01*
X-102694Y163833D01*
X-102862Y163826D01*
X-103030Y163813D01*
X-103063Y163818D01*
X-103096Y163816D01*
X-103262Y163843D01*
X-103429Y163864D01*
X-103461Y163875D01*
X-103494Y163880D01*
X-103651Y163938D01*
X-103811Y163992D01*
X-103840Y164009D01*
X-103871Y164020D01*
X-104014Y164109D01*
X-104160Y164193D01*
X-104188Y164217D01*
X-104213Y164233D01*
X-104276Y164292D01*
X-104413Y164408D01*
X-106463Y166458D01*
X-106474Y166471D01*
X-106488Y166483D01*
X-106602Y166628D01*
X-106718Y166769D01*
X-106726Y166785D01*
X-106737Y166799D01*
X-106821Y166964D01*
X-106907Y167125D01*
X-106912Y167142D01*
X-106920Y167158D01*
X-106969Y167336D01*
X-107021Y167511D01*
X-107023Y167529D01*
X-107028Y167546D01*
X-107041Y167729D01*
X-107058Y167912D01*
X-107056Y167930D01*
X-107057Y167947D01*
X-107034Y168129D01*
X-107014Y168312D01*
X-107009Y168329D01*
X-107007Y168347D01*
X-106948Y168520D01*
X-106893Y168696D01*
X-106884Y168711D01*
X-106879Y168728D01*
X-106787Y168888D01*
X-106698Y169048D01*
X-106686Y169062D01*
X-106678Y169077D01*
X-106463Y169330D01*
X-104413Y171380D01*
X-104283Y171487D01*
X-104156Y171598D01*
X-104127Y171614D01*
X-104101Y171635D01*
X-103953Y171714D01*
X-103807Y171798D01*
X-103775Y171808D01*
X-103746Y171824D01*
X-103584Y171872D01*
X-103425Y171925D01*
X-103392Y171929D01*
X-103360Y171939D01*
X-103192Y171954D01*
X-103025Y171975D01*
X-102992Y171972D01*
X-102959Y171975D01*
X-102791Y171957D01*
X-102624Y171944D01*
X-102592Y171935D01*
X-102559Y171932D01*
X-102398Y171881D01*
X-102236Y171835D01*
X-102207Y171820D01*
X-102175Y171810D01*
X-102027Y171729D01*
X-101878Y171652D01*
X-101852Y171632D01*
X-101822Y171615D01*
X-101694Y171506D01*
X-101562Y171402D01*
X-101541Y171377D01*
X-101515Y171355D01*
X-101411Y171223D01*
X-101302Y171094D01*
X-101286Y171065D01*
X-101266Y171039D01*
X-101189Y170889D01*
X-101108Y170742D01*
X-101098Y170710D01*
X-101083Y170680D01*
X-101038Y170518D01*
X-101012Y170433D01*
X-91439Y170433D01*
X-91439Y193041D01*
X-100914Y193041D01*
X-100923Y192978D01*
X-100941Y192810D01*
X-100951Y192778D01*
X-100956Y192745D01*
X-101012Y192586D01*
X-101063Y192426D01*
X-101079Y192397D01*
X-101090Y192366D01*
X-101176Y192221D01*
X-101257Y192074D01*
X-101279Y192049D01*
X-101296Y192020D01*
X-101409Y191896D01*
X-101518Y191767D01*
X-101544Y191746D01*
X-101566Y191722D01*
X-101701Y191622D01*
X-101834Y191517D01*
X-101864Y191502D01*
X-101890Y191483D01*
X-102043Y191411D01*
X-102193Y191335D01*
X-102225Y191326D01*
X-102255Y191312D01*
X-102419Y191272D01*
X-102581Y191227D01*
X-102614Y191225D01*
X-102646Y191217D01*
X-102814Y191210D01*
X-102982Y191198D01*
X-103015Y191202D01*
X-103048Y191201D01*
X-103214Y191227D01*
X-103382Y191248D01*
X-103413Y191259D01*
X-103446Y191264D01*
X-103604Y191323D01*
X-103763Y191376D01*
X-103792Y191393D01*
X-103823Y191405D01*
X-103967Y191493D01*
X-104112Y191577D01*
X-104140Y191601D01*
X-104165Y191617D01*
X-104229Y191676D01*
X-104365Y191792D01*
X-106301Y193728D01*
X-106373Y193766D01*
X-106380Y193772D01*
X-106388Y193777D01*
X-106536Y193901D01*
X-106683Y194023D01*
X-106689Y194030D01*
X-106696Y194036D01*
X-106817Y194187D01*
X-106937Y194335D01*
X-106941Y194343D01*
X-106947Y194351D01*
X-107035Y194522D01*
X-107124Y194692D01*
X-107127Y194700D01*
X-107131Y194709D01*
X-107183Y194893D01*
X-107237Y195078D01*
X-107238Y195087D01*
X-107241Y195096D01*
X-107255Y195286D01*
X-107272Y195479D01*
X-107271Y195488D01*
X-107272Y195497D01*
X-107249Y195687D01*
X-107227Y195879D01*
X-107224Y195888D01*
X-107223Y195897D01*
X-107163Y196079D01*
X-107104Y196263D01*
X-107099Y196271D01*
X-107097Y196279D01*
X-107002Y196445D01*
X-106908Y196614D01*
X-106902Y196621D01*
X-106897Y196629D01*
X-106772Y196773D01*
X-106646Y196920D01*
X-106639Y196926D01*
X-106633Y196933D01*
X-106480Y197050D01*
X-106329Y197168D01*
X-106321Y197172D01*
X-106313Y197178D01*
X-106288Y197191D01*
X-104413Y199066D01*
X-104283Y199173D01*
X-104156Y199284D01*
X-104127Y199300D01*
X-104101Y199321D01*
X-103953Y199400D01*
X-103807Y199484D01*
X-103775Y199494D01*
X-103746Y199510D01*
X-103584Y199558D01*
X-103425Y199611D01*
X-103392Y199615D01*
X-103360Y199625D01*
X-103192Y199640D01*
X-103025Y199661D01*
X-102992Y199658D01*
X-102959Y199661D01*
X-102791Y199643D01*
X-102624Y199630D01*
X-102592Y199621D01*
X-102559Y199618D01*
X-102398Y199567D01*
X-102236Y199521D01*
X-102207Y199506D01*
X-102175Y199496D01*
X-102027Y199415D01*
X-101878Y199338D01*
X-101852Y199318D01*
X-101822Y199301D01*
X-101694Y199192D01*
X-101562Y199088D01*
X-101541Y199063D01*
X-101515Y199041D01*
X-101411Y198909D01*
X-101302Y198780D01*
X-101286Y198751D01*
X-101266Y198725D01*
X-101190Y198575D01*
X-101108Y198428D01*
X-101098Y198396D01*
X-101083Y198366D01*
X-101038Y198204D01*
X-101012Y198119D01*
X-91439Y198119D01*
X-91439Y220473D01*
X-101006Y220473D01*
X-101060Y220321D01*
X-101110Y220160D01*
X-101126Y220131D01*
X-101138Y220100D01*
X-101224Y219955D01*
X-101305Y219808D01*
X-101327Y219782D01*
X-101344Y219754D01*
X-101457Y219629D01*
X-101566Y219501D01*
X-101592Y219480D01*
X-101614Y219456D01*
X-101750Y219356D01*
X-101882Y219251D01*
X-101911Y219236D01*
X-101938Y219216D01*
X-102091Y219145D01*
X-102240Y219069D01*
X-102273Y219060D01*
X-102303Y219046D01*
X-102466Y219006D01*
X-102628Y218961D01*
X-102662Y218958D01*
X-102694Y218951D01*
X-102862Y218944D01*
X-103030Y218931D01*
X-103063Y218936D01*
X-103096Y218934D01*
X-103262Y218961D01*
X-103429Y218982D01*
X-103461Y218992D01*
X-103494Y218998D01*
X-103652Y219057D01*
X-103811Y219110D01*
X-103840Y219127D01*
X-103871Y219138D01*
X-104014Y219227D01*
X-104160Y219311D01*
X-104188Y219335D01*
X-104213Y219351D01*
X-104276Y219410D01*
X-104413Y219526D01*
X-106242Y221355D01*
X-108719Y222381D01*
X-108834Y222443D01*
X-108954Y222496D01*
X-109011Y222538D01*
X-109074Y222571D01*
X-109175Y222655D01*
X-109281Y222731D01*
X-109330Y222782D01*
X-109384Y222828D01*
X-109467Y222929D01*
X-109556Y223025D01*
X-109593Y223085D01*
X-109638Y223140D01*
X-109699Y223256D01*
X-109768Y223367D01*
X-109792Y223434D01*
X-109825Y223497D01*
X-109862Y223622D01*
X-109907Y223745D01*
X-109918Y223815D01*
X-109938Y223883D01*
X-109950Y224013D01*
X-109970Y224143D01*
X-109967Y224214D01*
X-109973Y224284D01*
X-109958Y224414D01*
X-109953Y224545D01*
X-109936Y224614D01*
X-109928Y224684D01*
X-109888Y224809D01*
X-109857Y224936D01*
X-109826Y225000D01*
X-109805Y225068D01*
X-109741Y225182D01*
X-109685Y225300D01*
X-109643Y225357D01*
X-109608Y225419D01*
X-109523Y225518D01*
X-109445Y225624D01*
X-109393Y225671D01*
X-109346Y225725D01*
X-109243Y225806D01*
X-109146Y225893D01*
X-109076Y225936D01*
X-109029Y225973D01*
X-108961Y226007D01*
X-108864Y226068D01*
X-107910Y226554D01*
X-106357Y227682D01*
X-105000Y229039D01*
X-103872Y230592D01*
X-103001Y232302D01*
X-102408Y234127D01*
X-102357Y234443D01*
X-113792Y234443D01*
X-113810Y234444D01*
X-113827Y234443D01*
X-114010Y234464D01*
X-114192Y234483D01*
X-114209Y234488D01*
X-114227Y234490D01*
X-114305Y234515D01*
X-114442Y234476D01*
X-114460Y234474D01*
X-114477Y234470D01*
X-114808Y234443D01*
X-126243Y234443D01*
X-126192Y234127D01*
X-125599Y232302D01*
X-124728Y230592D01*
X-123600Y229039D01*
X-122243Y227682D01*
X-120690Y226554D01*
X-119736Y226068D01*
X-119626Y225997D01*
X-119511Y225934D01*
X-119457Y225889D01*
X-119397Y225850D01*
X-119303Y225759D01*
X-119203Y225675D01*
X-119159Y225619D01*
X-119108Y225570D01*
X-119034Y225462D01*
X-118952Y225360D01*
X-118920Y225297D01*
X-118879Y225239D01*
X-118828Y225118D01*
X-118768Y225002D01*
X-118749Y224934D01*
X-118721Y224869D01*
X-118694Y224740D01*
X-118659Y224615D01*
X-118653Y224544D01*
X-118639Y224474D01*
X-118638Y224343D01*
X-118627Y224213D01*
X-118636Y224143D01*
X-118635Y224072D01*
X-118660Y223943D01*
X-118676Y223814D01*
X-118698Y223746D01*
X-118712Y223677D01*
X-118761Y223556D01*
X-118803Y223431D01*
X-118838Y223370D01*
X-118865Y223304D01*
X-118937Y223195D01*
X-119002Y223082D01*
X-119049Y223028D01*
X-119088Y222969D01*
X-119180Y222877D01*
X-119267Y222778D01*
X-119323Y222735D01*
X-119373Y222685D01*
X-119482Y222612D01*
X-119586Y222533D01*
X-119659Y222495D01*
X-119709Y222462D01*
X-119779Y222433D01*
X-119881Y222381D01*
X-122358Y221355D01*
X-126359Y217354D01*
X-128525Y212126D01*
X-128525Y206467D01*
X-128390Y206141D01*
X-128383Y206119D01*
X-128373Y206099D01*
X-128325Y205927D01*
X-128273Y205755D01*
X-128271Y205733D01*
X-128265Y205711D01*
X-128252Y205532D01*
X-128235Y205354D01*
X-128237Y205332D01*
X-128236Y205310D01*
X-128258Y205132D01*
X-128277Y204954D01*
X-128283Y204933D01*
X-128286Y204910D01*
X-128343Y204741D01*
X-128397Y204569D01*
X-128407Y204550D01*
X-128414Y204529D01*
X-128504Y204374D01*
X-128590Y204216D01*
X-128604Y204199D01*
X-128615Y204180D01*
X-128830Y203927D01*
X-170592Y162165D01*
X-171578Y159785D01*
X-171578Y54325D01*
X-171580Y54298D01*
X-171578Y54271D01*
X-171600Y54098D01*
X-171618Y53924D01*
X-171625Y53898D01*
X-171629Y53872D01*
X-171684Y53706D01*
X-171736Y53539D01*
X-171749Y53515D01*
X-171757Y53490D01*
X-171844Y53339D01*
X-171928Y53185D01*
X-171945Y53165D01*
X-171958Y53141D01*
X-172173Y52888D01*
X-172808Y52253D01*
X-172815Y52247D01*
X-172820Y52241D01*
X-172969Y52121D01*
X-173119Y51998D01*
X-173127Y51994D01*
X-173134Y51988D01*
X-173303Y51901D01*
X-173475Y51809D01*
X-173484Y51807D01*
X-173491Y51803D01*
X-173675Y51750D01*
X-173861Y51695D01*
X-173870Y51694D01*
X-173878Y51691D01*
X-174069Y51676D01*
X-174262Y51658D01*
X-174271Y51659D01*
X-174280Y51659D01*
X-174469Y51681D01*
X-174662Y51702D01*
X-174671Y51704D01*
X-174679Y51705D01*
X-174862Y51765D01*
X-175046Y51823D01*
X-175054Y51828D01*
X-175062Y51830D01*
X-175231Y51925D01*
X-175398Y52018D01*
X-175405Y52024D01*
X-175413Y52028D01*
X-175558Y52154D01*
X-175705Y52278D01*
X-175711Y52286D01*
X-175718Y52291D01*
X-175835Y52443D01*
X-175955Y52594D01*
X-175959Y52602D01*
X-175964Y52609D01*
X-176051Y52783D01*
X-176137Y52953D01*
X-176140Y52962D01*
X-176144Y52970D01*
X-176194Y53158D01*
X-176245Y53341D01*
X-176246Y53350D01*
X-176248Y53359D01*
X-176269Y53615D01*
X-178441Y58858D01*
X-182442Y62859D01*
X-182768Y62994D01*
X-182788Y63005D01*
X-182809Y63012D01*
X-182965Y63100D01*
X-183123Y63184D01*
X-183140Y63199D01*
X-183160Y63210D01*
X-183295Y63326D01*
X-183434Y63441D01*
X-183448Y63458D01*
X-183465Y63473D01*
X-183574Y63614D01*
X-183687Y63753D01*
X-183698Y63773D01*
X-183711Y63791D01*
X-183791Y63951D01*
X-183874Y64110D01*
X-183881Y64131D01*
X-183891Y64151D01*
X-183937Y64325D01*
X-183987Y64496D01*
X-183989Y64519D01*
X-183995Y64540D01*
X-184022Y64871D01*
X-184022Y303561D01*
X-184020Y303588D01*
X-184022Y303615D01*
X-184000Y303789D01*
X-183982Y303962D01*
X-183975Y303988D01*
X-183971Y304014D01*
X-183916Y304180D01*
X-183864Y304347D01*
X-183851Y304371D01*
X-183843Y304396D01*
X-183756Y304548D01*
X-183672Y304701D01*
X-183655Y304721D01*
X-183642Y304745D01*
X-183427Y304998D01*
X-175712Y312713D01*
X-175691Y312730D01*
X-175674Y312751D01*
X-175536Y312858D01*
X-175400Y312968D01*
X-175377Y312981D01*
X-175355Y312997D01*
X-175199Y313075D01*
X-175045Y313157D01*
X-175019Y313165D01*
X-174995Y313177D01*
X-174826Y313222D01*
X-174659Y313272D01*
X-174632Y313274D01*
X-174606Y313281D01*
X-174275Y313308D01*
X-128371Y313308D01*
X-128349Y313306D01*
X-128326Y313308D01*
X-128149Y313286D01*
X-127970Y313268D01*
X-127949Y313262D01*
X-127927Y313259D01*
X-127757Y313203D01*
X-127585Y313150D01*
X-127566Y313140D01*
X-127544Y313133D01*
X-127389Y313044D01*
X-127231Y312958D01*
X-127214Y312944D01*
X-127195Y312933D01*
X-127059Y312815D01*
X-126922Y312701D01*
X-126908Y312683D01*
X-126891Y312669D01*
X-126782Y312526D01*
X-126670Y312387D01*
X-126659Y312367D01*
X-126646Y312349D01*
X-126494Y312054D01*
X-126359Y311728D01*
X-122299Y307668D01*
X-122227Y307629D01*
X-122220Y307624D01*
X-122212Y307619D01*
X-122065Y307496D01*
X-121916Y307373D01*
X-121911Y307366D01*
X-121904Y307360D01*
X-121785Y307212D01*
X-121663Y307060D01*
X-121658Y307052D01*
X-121653Y307045D01*
X-121565Y306875D01*
X-121476Y306704D01*
X-121473Y306695D01*
X-121469Y306687D01*
X-121416Y306501D01*
X-121363Y306317D01*
X-121362Y306308D01*
X-121359Y306300D01*
X-121344Y306107D01*
X-121328Y305916D01*
X-121329Y305907D01*
X-121328Y305898D01*
X-121352Y305707D01*
X-121373Y305516D01*
X-121376Y305508D01*
X-121377Y305498D01*
X-121438Y305316D01*
X-121496Y305133D01*
X-121501Y305125D01*
X-121504Y305116D01*
X-121599Y304950D01*
X-121693Y304781D01*
X-121699Y304774D01*
X-121703Y304767D01*
X-121830Y304621D01*
X-121954Y304476D01*
X-121962Y304470D01*
X-121968Y304463D01*
X-122122Y304345D01*
X-122271Y304227D01*
X-122280Y304223D01*
X-122287Y304218D01*
X-122312Y304205D01*
X-126359Y300158D01*
X-126494Y299832D01*
X-126505Y299812D01*
X-126512Y299791D01*
X-126600Y299635D01*
X-126684Y299477D01*
X-126699Y299460D01*
X-126710Y299440D01*
X-126826Y299305D01*
X-126941Y299166D01*
X-126958Y299152D01*
X-126973Y299135D01*
X-127114Y299026D01*
X-127253Y298913D01*
X-127273Y298902D01*
X-127291Y298889D01*
X-127451Y298809D01*
X-127610Y298726D01*
X-127631Y298719D01*
X-127651Y298709D01*
X-127825Y298663D01*
X-127996Y298613D01*
X-128019Y298611D01*
X-128040Y298605D01*
X-128371Y298578D01*
X-138494Y298578D01*
X-138516Y298580D01*
X-138538Y298578D01*
X-138716Y298600D01*
X-138894Y298618D01*
X-138916Y298624D01*
X-138938Y298627D01*
X-139108Y298683D01*
X-139279Y298736D01*
X-139299Y298746D01*
X-139320Y298753D01*
X-139476Y298842D01*
X-139633Y298928D01*
X-139650Y298942D01*
X-139670Y298953D01*
X-139806Y299071D01*
X-139943Y299185D01*
X-139956Y299203D01*
X-139973Y299217D01*
X-140083Y299360D01*
X-140195Y299499D01*
X-140205Y299519D01*
X-140219Y299537D01*
X-140370Y299832D01*
X-140470Y300072D01*
X-144428Y304030D01*
X-149601Y306173D01*
X-155199Y306173D01*
X-160372Y304030D01*
X-164330Y300072D01*
X-166473Y294899D01*
X-166473Y289301D01*
X-164330Y284128D01*
X-160372Y280170D01*
X-155199Y278027D01*
X-149601Y278027D01*
X-144428Y280170D01*
X-140470Y284128D01*
X-140370Y284368D01*
X-140360Y284388D01*
X-140353Y284409D01*
X-140265Y284565D01*
X-140180Y284723D01*
X-140166Y284740D01*
X-140155Y284760D01*
X-140038Y284895D01*
X-139924Y285034D01*
X-139906Y285048D01*
X-139892Y285065D01*
X-139750Y285174D01*
X-139611Y285287D01*
X-139591Y285298D01*
X-139574Y285311D01*
X-139413Y285391D01*
X-139255Y285474D01*
X-139233Y285481D01*
X-139213Y285491D01*
X-139040Y285537D01*
X-138868Y285587D01*
X-138846Y285589D01*
X-138824Y285595D01*
X-138494Y285622D01*
X-128371Y285622D01*
X-128349Y285620D01*
X-128326Y285622D01*
X-128149Y285600D01*
X-127970Y285582D01*
X-127949Y285576D01*
X-127927Y285573D01*
X-127757Y285517D01*
X-127585Y285464D01*
X-127566Y285454D01*
X-127544Y285447D01*
X-127389Y285358D01*
X-127231Y285272D01*
X-127214Y285258D01*
X-127195Y285247D01*
X-127059Y285129D01*
X-126922Y285015D01*
X-126908Y284997D01*
X-126891Y284983D01*
X-126782Y284840D01*
X-126670Y284701D01*
X-126659Y284681D01*
X-126646Y284663D01*
X-126494Y284368D01*
X-126359Y284042D01*
X-122358Y280041D01*
X-119881Y279015D01*
X-119766Y278953D01*
X-119646Y278900D01*
X-119589Y278858D01*
X-119526Y278825D01*
X-119425Y278741D01*
X-119319Y278665D01*
X-119270Y278614D01*
X-119216Y278568D01*
X-119133Y278467D01*
X-119044Y278371D01*
X-119007Y278311D01*
X-118962Y278256D01*
X-118901Y278140D01*
X-118832Y278029D01*
X-118808Y277962D01*
X-118775Y277899D01*
X-118738Y277774D01*
X-118693Y277651D01*
X-118682Y277581D01*
X-118662Y277513D01*
X-118650Y277383D01*
X-118630Y277253D01*
X-118633Y277182D01*
X-118627Y277112D01*
X-118642Y276982D01*
X-118647Y276851D01*
X-118664Y276782D01*
X-118672Y276712D01*
X-118712Y276587D01*
X-118743Y276460D01*
X-118774Y276396D01*
X-118795Y276328D01*
X-118859Y276214D01*
X-118915Y276096D01*
X-118957Y276039D01*
X-118992Y275977D01*
X-119077Y275878D01*
X-119155Y275772D01*
X-119207Y275725D01*
X-119254Y275671D01*
X-119357Y275590D01*
X-119454Y275503D01*
X-119524Y275460D01*
X-119571Y275423D01*
X-119639Y275389D01*
X-119736Y275328D01*
X-120690Y274842D01*
X-122243Y273714D01*
X-123600Y272357D01*
X-124728Y270804D01*
X-125599Y269094D01*
X-126192Y267269D01*
X-126243Y266953D01*
X-114808Y266953D01*
X-114790Y266951D01*
X-114773Y266953D01*
X-114590Y266932D01*
X-114408Y266913D01*
X-114391Y266908D01*
X-114373Y266906D01*
X-114295Y266881D01*
X-114158Y266920D01*
X-114140Y266922D01*
X-114123Y266926D01*
X-113792Y266953D01*
X-102357Y266953D01*
X-102408Y267269D01*
X-103001Y269094D01*
X-103872Y270804D01*
X-105000Y272357D01*
X-106357Y273714D01*
X-107910Y274842D01*
X-108864Y275328D01*
X-108974Y275399D01*
X-109089Y275462D01*
X-109143Y275507D01*
X-109203Y275546D01*
X-109297Y275637D01*
X-109397Y275721D01*
X-109441Y275777D01*
X-109492Y275826D01*
X-109566Y275934D01*
X-109648Y276036D01*
X-109680Y276099D01*
X-109721Y276157D01*
X-109772Y276278D01*
X-109832Y276394D01*
X-109851Y276462D01*
X-109879Y276527D01*
X-109906Y276656D01*
X-109941Y276781D01*
X-109947Y276852D01*
X-109961Y276922D01*
X-109962Y277053D01*
X-109973Y277183D01*
X-109964Y277253D01*
X-109965Y277324D01*
X-109940Y277453D01*
X-109924Y277582D01*
X-109902Y277650D01*
X-109888Y277719D01*
X-109839Y277840D01*
X-109797Y277965D01*
X-109762Y278026D01*
X-109735Y278092D01*
X-109663Y278201D01*
X-109598Y278314D01*
X-109551Y278368D01*
X-109512Y278427D01*
X-109420Y278519D01*
X-109333Y278618D01*
X-109277Y278661D01*
X-109227Y278711D01*
X-109118Y278784D01*
X-109014Y278863D01*
X-108941Y278901D01*
X-108891Y278934D01*
X-108821Y278963D01*
X-108719Y279015D01*
X-106242Y280041D01*
X-104413Y281870D01*
X-104283Y281977D01*
X-104156Y282088D01*
X-104127Y282104D01*
X-104101Y282125D01*
X-103953Y282204D01*
X-103807Y282288D01*
X-103775Y282298D01*
X-103746Y282314D01*
X-103584Y282362D01*
X-103425Y282415D01*
X-103392Y282419D01*
X-103360Y282429D01*
X-103192Y282444D01*
X-103025Y282465D01*
X-102992Y282462D01*
X-102959Y282465D01*
X-102791Y282447D01*
X-102624Y282434D01*
X-102592Y282425D01*
X-102559Y282422D01*
X-102398Y282371D01*
X-102236Y282325D01*
X-102206Y282310D01*
X-102175Y282300D01*
X-102027Y282219D01*
X-101878Y282142D01*
X-101852Y282122D01*
X-101822Y282105D01*
X-101694Y281996D01*
X-101562Y281892D01*
X-101541Y281866D01*
X-101515Y281845D01*
X-101411Y281713D01*
X-101302Y281584D01*
X-101286Y281555D01*
X-101266Y281529D01*
X-101190Y281379D01*
X-101108Y281232D01*
X-101098Y281200D01*
X-101083Y281170D01*
X-101038Y281008D01*
X-101012Y280923D01*
X-91439Y280923D01*
X-91439Y303277D01*
X-101006Y303277D01*
X-101060Y303124D01*
X-101110Y302964D01*
X-101126Y302935D01*
X-101138Y302904D01*
X-101224Y302759D01*
X-101305Y302612D01*
X-101327Y302586D01*
X-101344Y302558D01*
X-101457Y302433D01*
X-101566Y302305D01*
X-101592Y302284D01*
X-101614Y302259D01*
X-101750Y302159D01*
X-101882Y302055D01*
X-101911Y302040D01*
X-101938Y302020D01*
X-102091Y301949D01*
X-102241Y301873D01*
X-102273Y301864D01*
X-102303Y301850D01*
X-102466Y301810D01*
X-102628Y301765D01*
X-102662Y301762D01*
X-102694Y301755D01*
X-102862Y301748D01*
X-103030Y301735D01*
X-103063Y301740D01*
X-103096Y301738D01*
X-103262Y301765D01*
X-103429Y301786D01*
X-103461Y301797D01*
X-103494Y301802D01*
X-103651Y301860D01*
X-103811Y301914D01*
X-103840Y301931D01*
X-103871Y301942D01*
X-104014Y302031D01*
X-104160Y302115D01*
X-104188Y302139D01*
X-104213Y302155D01*
X-104276Y302214D01*
X-104413Y302330D01*
X-106301Y304218D01*
X-106373Y304256D01*
X-106380Y304262D01*
X-106388Y304267D01*
X-106536Y304391D01*
X-106683Y304513D01*
X-106689Y304520D01*
X-106696Y304526D01*
X-106817Y304677D01*
X-106937Y304825D01*
X-106941Y304833D01*
X-106947Y304841D01*
X-107035Y305012D01*
X-107124Y305182D01*
X-107127Y305190D01*
X-107131Y305199D01*
X-107183Y305383D01*
X-107237Y305568D01*
X-107238Y305577D01*
X-107241Y305586D01*
X-107255Y305776D01*
X-107272Y305969D01*
X-107271Y305978D01*
X-107272Y305987D01*
X-107249Y306177D01*
X-107227Y306369D01*
X-107224Y306378D01*
X-107223Y306387D01*
X-107163Y306569D01*
X-107104Y306753D01*
X-107099Y306761D01*
X-107097Y306769D01*
X-107002Y306935D01*
X-106908Y307104D01*
X-106902Y307111D01*
X-106897Y307119D01*
X-106771Y307264D01*
X-106646Y307410D01*
X-106639Y307416D01*
X-106633Y307423D01*
X-106480Y307540D01*
X-106329Y307658D01*
X-106321Y307662D01*
X-106313Y307668D01*
X-106288Y307681D01*
X-104365Y309604D01*
X-104235Y309711D01*
X-104108Y309821D01*
X-104079Y309838D01*
X-104054Y309859D01*
X-103905Y309938D01*
X-103759Y310022D01*
X-103727Y310032D01*
X-103698Y310048D01*
X-103537Y310096D01*
X-103377Y310149D01*
X-103344Y310153D01*
X-103312Y310163D01*
X-103144Y310178D01*
X-102977Y310198D01*
X-102944Y310196D01*
X-102911Y310199D01*
X-102743Y310181D01*
X-102576Y310168D01*
X-102544Y310159D01*
X-102511Y310156D01*
X-102350Y310105D01*
X-102188Y310059D01*
X-102159Y310044D01*
X-102127Y310034D01*
X-101979Y309952D01*
X-101830Y309876D01*
X-101804Y309855D01*
X-101775Y309839D01*
X-101646Y309730D01*
X-101514Y309626D01*
X-101493Y309600D01*
X-101468Y309579D01*
X-101363Y309447D01*
X-101255Y309318D01*
X-101239Y309289D01*
X-101218Y309263D01*
X-101142Y309113D01*
X-101061Y308965D01*
X-101051Y308934D01*
X-101036Y308904D01*
X-100990Y308741D01*
X-100940Y308581D01*
X-100937Y308548D01*
X-100928Y308516D01*
X-100916Y308355D01*
X-91439Y308355D01*
X-91439Y330963D01*
X-101006Y330963D01*
X-101060Y330811D01*
X-101110Y330650D01*
X-101127Y330621D01*
X-101138Y330590D01*
X-101224Y330445D01*
X-101305Y330298D01*
X-101327Y330273D01*
X-101344Y330244D01*
X-101457Y330119D01*
X-101566Y329991D01*
X-101592Y329970D01*
X-101614Y329945D01*
X-101750Y329845D01*
X-101882Y329741D01*
X-101911Y329726D01*
X-101938Y329706D01*
X-102091Y329635D01*
X-102241Y329559D01*
X-102273Y329550D01*
X-102303Y329536D01*
X-102466Y329496D01*
X-102628Y329451D01*
X-102662Y329448D01*
X-102694Y329441D01*
X-102862Y329434D01*
X-103030Y329421D01*
X-103063Y329426D01*
X-103096Y329424D01*
X-103262Y329451D01*
X-103429Y329472D01*
X-103461Y329483D01*
X-103494Y329488D01*
X-103651Y329546D01*
X-103811Y329600D01*
X-103840Y329617D01*
X-103871Y329628D01*
X-104014Y329717D01*
X-104160Y329801D01*
X-104188Y329825D01*
X-104213Y329841D01*
X-104276Y329900D01*
X-104413Y330016D01*
X-106463Y332066D01*
X-106474Y332079D01*
X-106488Y332091D01*
X-106602Y332236D01*
X-106718Y332377D01*
X-106726Y332393D01*
X-106737Y332407D01*
X-106821Y332572D01*
X-106907Y332733D01*
X-106912Y332750D01*
X-106920Y332766D01*
X-106969Y332944D01*
X-107021Y333119D01*
X-107023Y333137D01*
X-107028Y333154D01*
X-107041Y333337D01*
X-107058Y333520D01*
X-107056Y333538D01*
X-107057Y333555D01*
X-107034Y333737D01*
X-107014Y333920D01*
X-107009Y333937D01*
X-107007Y333955D01*
X-106948Y334128D01*
X-106893Y334304D01*
X-106884Y334319D01*
X-106879Y334336D01*
X-106787Y334496D01*
X-106698Y334656D01*
X-106686Y334670D01*
X-106678Y334685D01*
X-106463Y334938D01*
X-104413Y336988D01*
X-104283Y337095D01*
X-104156Y337206D01*
X-104127Y337222D01*
X-104101Y337243D01*
X-103953Y337322D01*
X-103807Y337406D01*
X-103775Y337416D01*
X-103746Y337432D01*
X-103584Y337480D01*
X-103425Y337533D01*
X-103392Y337537D01*
X-103360Y337547D01*
X-103192Y337562D01*
X-103025Y337583D01*
X-102992Y337580D01*
X-102959Y337583D01*
X-102791Y337565D01*
X-102624Y337552D01*
X-102592Y337543D01*
X-102559Y337540D01*
X-102398Y337489D01*
X-102236Y337443D01*
X-102206Y337428D01*
X-102175Y337418D01*
X-102027Y337337D01*
X-101878Y337260D01*
X-101852Y337240D01*
X-101822Y337223D01*
X-101694Y337115D01*
X-101562Y337010D01*
X-101541Y336984D01*
X-101515Y336963D01*
X-101411Y336831D01*
X-101303Y336702D01*
X-101286Y336673D01*
X-101266Y336647D01*
X-101190Y336497D01*
X-101109Y336350D01*
X-101099Y336318D01*
X-101083Y336288D01*
X-101038Y336126D01*
X-101012Y336041D01*
X-89408Y336041D01*
X-89390Y336039D01*
X-89373Y336041D01*
X-89190Y336020D01*
X-89008Y336001D01*
X-88991Y335996D01*
X-88973Y335994D01*
X-88895Y335969D01*
X-88758Y336008D01*
X-88740Y336010D01*
X-88723Y336014D01*
X-88392Y336041D01*
X-76957Y336041D01*
X-77008Y336357D01*
X-77601Y338182D01*
X-78472Y339892D01*
X-79600Y341445D01*
X-80957Y342802D01*
X-82510Y343930D01*
X-83464Y344416D01*
X-83574Y344487D01*
X-83689Y344550D01*
X-83743Y344595D01*
X-83803Y344634D01*
X-83897Y344725D01*
X-83997Y344809D01*
X-84041Y344865D01*
X-84092Y344914D01*
X-84166Y345022D01*
X-84248Y345124D01*
X-84280Y345187D01*
X-84321Y345245D01*
X-84372Y345366D01*
X-84432Y345482D01*
X-84451Y345550D01*
X-84479Y345615D01*
X-84506Y345744D01*
X-84541Y345869D01*
X-84547Y345940D01*
X-84561Y346010D01*
X-84562Y346141D01*
X-84573Y346271D01*
X-84564Y346341D01*
X-84565Y346412D01*
X-84540Y346541D01*
X-84524Y346670D01*
X-84502Y346738D01*
X-84488Y346807D01*
X-84439Y346928D01*
X-84397Y347053D01*
X-84362Y347114D01*
X-84335Y347180D01*
X-84263Y347289D01*
X-84198Y347402D01*
X-84151Y347456D01*
X-84112Y347515D01*
X-84020Y347607D01*
X-83933Y347706D01*
X-83877Y347749D01*
X-83827Y347799D01*
X-83718Y347872D01*
X-83614Y347951D01*
X-83541Y347989D01*
X-83491Y348022D01*
X-83421Y348051D01*
X-83319Y348103D01*
X-80842Y349129D01*
X-76841Y353130D01*
X-74675Y358358D01*
X-74675Y364018D01*
X-76841Y369246D01*
X-81063Y373468D01*
X-81074Y373481D01*
X-81088Y373493D01*
X-81202Y373637D01*
X-81318Y373779D01*
X-81326Y373795D01*
X-81337Y373809D01*
X-81421Y373973D01*
X-81507Y374135D01*
X-81512Y374152D01*
X-81520Y374168D01*
X-81569Y374345D01*
X-81621Y374521D01*
X-81623Y374539D01*
X-81628Y374556D01*
X-81641Y374739D01*
X-81658Y374922D01*
X-81656Y374940D01*
X-81657Y374957D01*
X-81634Y375139D01*
X-81614Y375322D01*
X-81609Y375339D01*
X-81607Y375357D01*
X-81549Y375529D01*
X-81493Y375706D01*
X-81484Y375722D01*
X-81478Y375738D01*
X-81387Y375898D01*
X-81298Y376058D01*
X-81287Y376072D01*
X-81278Y376087D01*
X-81063Y376340D01*
X-76841Y380562D01*
X-74675Y385790D01*
X-74675Y391450D01*
X-76841Y396678D01*
X-80901Y400738D01*
X-80973Y400777D01*
X-80980Y400782D01*
X-80988Y400787D01*
X-81135Y400910D01*
X-81284Y401033D01*
X-81289Y401040D01*
X-81296Y401046D01*
X-81415Y401194D01*
X-81537Y401346D01*
X-81542Y401354D01*
X-81547Y401361D01*
X-81635Y401531D01*
X-81724Y401702D01*
X-81727Y401711D01*
X-81731Y401719D01*
X-81784Y401905D01*
X-81837Y402089D01*
X-81838Y402098D01*
X-81841Y402106D01*
X-81856Y402299D01*
X-81872Y402490D01*
X-81871Y402499D01*
X-81872Y402508D01*
X-81849Y402698D01*
X-81827Y402890D01*
X-81824Y402898D01*
X-81823Y402908D01*
X-81762Y403090D01*
X-81704Y403273D01*
X-81699Y403281D01*
X-81696Y403290D01*
X-81601Y403456D01*
X-81507Y403625D01*
X-81501Y403632D01*
X-81497Y403639D01*
X-81370Y403785D01*
X-81246Y403930D01*
X-81238Y403936D01*
X-81232Y403943D01*
X-81078Y404061D01*
X-80929Y404179D01*
X-80920Y404183D01*
X-80913Y404188D01*
X-80888Y404201D01*
X-76841Y408248D01*
X-74675Y413476D01*
X-74675Y419136D01*
X-76238Y422909D01*
X-76245Y422931D01*
X-76255Y422951D01*
X-76303Y423124D01*
X-76355Y423295D01*
X-76357Y423317D01*
X-76363Y423339D01*
X-76376Y423518D01*
X-76393Y423696D01*
X-76391Y423718D01*
X-76392Y423740D01*
X-76370Y423919D01*
X-76351Y424096D01*
X-76345Y424117D01*
X-76342Y424140D01*
X-76285Y424310D01*
X-76232Y424480D01*
X-76221Y424500D01*
X-76214Y424521D01*
X-76124Y424677D01*
X-76038Y424834D01*
X-76024Y424851D01*
X-76013Y424870D01*
X-75798Y425123D01*
X-69387Y431534D01*
X-67279Y433642D01*
X-66293Y436023D01*
X-66293Y452131D01*
X-67279Y454512D01*
X-109328Y496561D01*
X-109351Y496588D01*
X-109377Y496612D01*
X-109478Y496744D01*
X-109583Y496873D01*
X-109600Y496904D01*
X-109621Y496932D01*
X-109694Y497082D01*
X-109772Y497228D01*
X-109782Y497262D01*
X-109797Y497294D01*
X-109839Y497455D01*
X-109887Y497614D01*
X-109890Y497649D01*
X-109899Y497683D01*
X-109908Y497849D01*
X-109923Y498015D01*
X-109919Y498050D01*
X-109921Y498085D01*
X-109898Y498250D01*
X-109880Y498415D01*
X-109869Y498449D01*
X-109864Y498484D01*
X-109809Y498640D01*
X-109758Y498799D01*
X-109741Y498830D01*
X-109729Y498863D01*
X-109644Y499006D01*
X-109563Y499152D01*
X-109541Y499178D01*
X-109522Y499209D01*
X-109410Y499332D01*
X-109303Y499459D01*
X-109275Y499480D01*
X-109251Y499507D01*
X-109118Y499605D01*
X-108987Y499708D01*
X-108956Y499724D01*
X-108927Y499745D01*
X-108776Y499815D01*
X-108628Y499891D01*
X-108594Y499900D01*
X-108562Y499915D01*
X-108401Y499954D01*
X-108240Y499999D01*
X-108205Y500001D01*
X-108171Y500009D01*
X-108005Y500016D01*
X-107839Y500028D01*
X-107804Y500023D01*
X-107768Y500025D01*
X-107440Y499978D01*
X-107439Y499977D01*
X-106288Y499715D01*
X-105663Y499644D01*
X-105663Y523241D01*
X-129260Y523241D01*
X-129189Y522616D01*
X-128926Y521464D01*
X-128922Y521429D01*
X-128912Y521395D01*
X-128897Y521229D01*
X-128876Y521065D01*
X-128879Y521030D01*
X-128875Y520994D01*
X-128893Y520828D01*
X-128906Y520663D01*
X-128915Y520629D01*
X-128919Y520594D01*
X-128969Y520435D01*
X-129014Y520275D01*
X-129030Y520244D01*
X-129040Y520210D01*
X-129121Y520065D01*
X-129196Y519916D01*
X-129218Y519889D01*
X-129235Y519858D01*
X-129343Y519731D01*
X-129446Y519601D01*
X-129473Y519578D01*
X-129496Y519551D01*
X-129626Y519448D01*
X-129753Y519340D01*
X-129784Y519323D01*
X-129812Y519301D01*
X-129960Y519226D01*
X-130105Y519145D01*
X-130139Y519135D01*
X-130171Y519119D01*
X-130331Y519074D01*
X-130489Y519024D01*
X-130524Y519020D01*
X-130558Y519011D01*
X-130724Y518999D01*
X-130890Y518981D01*
X-130925Y518984D01*
X-130960Y518981D01*
X-131125Y519002D01*
X-131291Y519017D01*
X-131324Y519027D01*
X-131359Y519032D01*
X-131517Y519085D01*
X-131676Y519132D01*
X-131708Y519149D01*
X-131741Y519160D01*
X-131885Y519243D01*
X-132032Y519321D01*
X-132059Y519343D01*
X-132090Y519361D01*
X-132343Y519576D01*
X-165680Y552913D01*
X-167788Y555021D01*
X-168220Y555199D01*
X-168220Y555200D01*
X-170169Y556007D01*
X-394100Y556007D01*
X-396480Y555021D01*
X-403571Y547930D01*
X-403588Y547916D01*
X-403603Y547899D01*
X-403744Y547788D01*
X-403882Y547675D01*
X-403902Y547665D01*
X-403920Y547651D01*
X-404080Y547570D01*
X-404238Y547486D01*
X-404259Y547480D01*
X-404279Y547470D01*
X-404452Y547423D01*
X-404624Y547372D01*
X-404646Y547370D01*
X-404668Y547364D01*
X-404846Y547351D01*
X-405025Y547335D01*
X-405047Y547338D01*
X-405069Y547336D01*
X-405247Y547359D01*
X-405425Y547379D01*
X-405447Y547385D01*
X-405469Y547388D01*
X-405785Y547490D01*
X-406111Y547625D01*
X-411770Y547625D01*
X-416998Y545459D01*
X-420204Y542253D01*
X-420217Y542242D01*
X-420229Y542228D01*
X-420373Y542114D01*
X-420515Y541998D01*
X-420531Y541990D01*
X-420545Y541979D01*
X-420709Y541895D01*
X-420871Y541809D01*
X-420888Y541804D01*
X-420904Y541796D01*
X-421081Y541747D01*
X-421257Y541695D01*
X-421275Y541693D01*
X-421292Y541688D01*
X-421475Y541675D01*
X-421658Y541658D01*
X-421676Y541660D01*
X-421693Y541659D01*
X-421875Y541682D01*
X-422058Y541702D01*
X-422075Y541707D01*
X-422093Y541709D01*
X-422266Y541768D01*
X-422442Y541823D01*
X-422458Y541832D01*
X-422474Y541838D01*
X-422634Y541929D01*
X-422794Y542018D01*
X-422808Y542029D01*
X-422823Y542038D01*
X-423076Y542253D01*
X-426282Y545459D01*
X-431510Y547625D01*
X-437170Y547625D01*
X-442398Y545459D01*
X-445604Y542253D01*
X-445617Y542242D01*
X-445629Y542228D01*
X-445773Y542114D01*
X-445915Y541998D01*
X-445931Y541990D01*
X-445945Y541979D01*
X-446109Y541895D01*
X-446271Y541809D01*
X-446288Y541804D01*
X-446304Y541796D01*
X-446481Y541747D01*
X-446657Y541695D01*
X-446675Y541693D01*
X-446692Y541688D01*
X-446875Y541675D01*
X-447058Y541658D01*
X-447076Y541660D01*
X-447093Y541659D01*
X-447275Y541682D01*
X-447458Y541702D01*
X-447475Y541707D01*
X-447493Y541709D01*
X-447666Y541768D01*
X-447842Y541823D01*
X-447858Y541832D01*
X-447874Y541838D01*
X-448034Y541929D01*
X-448194Y542018D01*
X-448208Y542029D01*
X-448223Y542038D01*
X-448476Y542253D01*
X-451682Y545459D01*
X-456910Y547625D01*
X-462570Y547625D01*
X-467798Y545459D01*
X-471004Y542253D01*
X-471017Y542242D01*
X-471029Y542228D01*
X-471173Y542114D01*
X-471315Y541998D01*
X-471331Y541990D01*
X-471345Y541979D01*
X-471509Y541895D01*
X-471671Y541809D01*
X-471688Y541804D01*
X-471704Y541796D01*
X-471881Y541747D01*
X-472057Y541695D01*
X-472075Y541693D01*
X-472092Y541688D01*
X-472275Y541675D01*
X-472458Y541658D01*
X-472476Y541660D01*
X-472493Y541659D01*
X-472675Y541682D01*
X-472858Y541702D01*
X-472875Y541707D01*
X-472893Y541709D01*
X-473066Y541768D01*
X-473242Y541823D01*
X-473258Y541832D01*
X-473274Y541838D01*
X-473434Y541929D01*
X-473594Y542018D01*
X-473608Y542029D01*
X-473623Y542038D01*
X-473876Y542253D01*
X-477082Y545459D01*
X-482310Y547625D01*
X-487970Y547625D01*
X-493198Y545459D01*
X-496404Y542253D01*
X-496417Y542242D01*
X-496429Y542228D01*
X-496573Y542114D01*
X-496715Y541998D01*
X-496731Y541990D01*
X-496745Y541979D01*
X-496909Y541895D01*
X-497071Y541809D01*
X-497088Y541804D01*
X-497104Y541796D01*
X-497281Y541747D01*
X-497457Y541695D01*
X-497475Y541693D01*
X-497492Y541688D01*
X-497675Y541675D01*
X-497858Y541658D01*
X-497876Y541660D01*
X-497893Y541659D01*
X-498075Y541682D01*
X-498258Y541702D01*
X-498275Y541707D01*
X-498293Y541709D01*
X-498466Y541768D01*
X-498642Y541823D01*
X-498658Y541832D01*
X-498674Y541838D01*
X-498834Y541929D01*
X-498994Y542018D01*
X-499008Y542029D01*
X-499023Y542038D01*
X-499276Y542253D01*
X-502482Y545459D01*
X-507710Y547625D01*
X-513370Y547625D01*
X-518598Y545459D01*
X-521804Y542253D01*
X-521817Y542242D01*
X-521829Y542228D01*
X-521973Y542114D01*
X-522115Y541998D01*
X-522131Y541990D01*
X-522145Y541979D01*
X-522309Y541895D01*
X-522471Y541809D01*
X-522488Y541804D01*
X-522504Y541796D01*
X-522681Y541747D01*
X-522857Y541695D01*
X-522875Y541693D01*
X-522892Y541688D01*
X-523075Y541675D01*
X-523258Y541658D01*
X-523276Y541660D01*
X-523293Y541659D01*
X-523475Y541682D01*
X-523658Y541702D01*
X-523675Y541707D01*
X-523693Y541709D01*
X-523866Y541768D01*
X-524042Y541823D01*
X-524058Y541832D01*
X-524074Y541838D01*
X-524234Y541929D01*
X-524394Y542018D01*
X-524408Y542029D01*
X-524423Y542038D01*
X-524676Y542253D01*
X-527882Y545459D01*
X-533110Y547625D01*
X-538770Y547625D01*
X-543998Y545459D01*
X-547999Y541458D01*
X-548109Y541193D01*
X-548191Y541040D01*
X-548267Y540887D01*
X-548285Y540864D01*
X-548299Y540839D01*
X-548409Y540706D01*
X-548515Y540569D01*
X-548537Y540550D01*
X-548555Y540528D01*
X-548689Y540419D01*
X-548820Y540307D01*
X-548845Y540293D01*
X-548868Y540274D01*
X-549021Y540194D01*
X-549171Y540110D01*
X-549199Y540101D01*
X-549224Y540087D01*
X-549390Y540039D01*
X-549554Y539986D01*
X-549583Y539982D01*
X-549611Y539974D01*
X-549783Y539960D01*
X-549954Y539940D01*
X-549983Y539942D01*
X-550012Y539940D01*
X-550183Y539959D01*
X-550356Y539974D01*
X-550383Y539982D01*
X-550412Y539985D01*
X-550576Y540038D01*
X-550742Y540086D01*
X-550768Y540099D01*
X-550795Y540108D01*
X-550946Y540192D01*
X-551099Y540272D01*
X-551122Y540290D01*
X-551147Y540304D01*
X-551278Y540417D01*
X-551412Y540525D01*
X-551433Y540550D01*
X-551453Y540566D01*
X-551505Y540633D01*
X-551629Y540777D01*
X-552040Y541343D01*
X-553397Y542700D01*
X-554950Y543828D01*
X-556660Y544699D01*
X-558485Y545292D01*
X-558841Y545349D01*
X-558841Y533868D01*
X-558842Y533850D01*
X-558841Y533833D01*
X-558862Y533650D01*
X-558881Y533468D01*
X-558886Y533451D01*
X-558888Y533433D01*
X-558901Y533392D01*
X-558874Y533298D01*
X-558872Y533280D01*
X-558868Y533263D01*
X-558841Y532932D01*
X-558841Y521451D01*
X-558485Y521508D01*
X-556660Y522101D01*
X-554950Y522972D01*
X-553397Y524100D01*
X-552040Y525457D01*
X-551629Y526023D01*
X-551514Y526152D01*
X-551403Y526284D01*
X-551380Y526302D01*
X-551361Y526324D01*
X-551223Y526428D01*
X-551088Y526535D01*
X-551062Y526548D01*
X-551039Y526566D01*
X-550884Y526640D01*
X-550730Y526719D01*
X-550702Y526727D01*
X-550676Y526739D01*
X-550509Y526782D01*
X-550342Y526829D01*
X-550313Y526831D01*
X-550285Y526838D01*
X-550113Y526847D01*
X-549941Y526860D01*
X-549912Y526857D01*
X-549883Y526858D01*
X-549712Y526832D01*
X-549541Y526811D01*
X-549514Y526802D01*
X-549485Y526798D01*
X-549323Y526739D01*
X-549159Y526685D01*
X-549134Y526670D01*
X-549107Y526661D01*
X-548959Y526571D01*
X-548809Y526485D01*
X-548787Y526466D01*
X-548763Y526451D01*
X-548636Y526334D01*
X-548506Y526221D01*
X-548488Y526198D01*
X-548467Y526178D01*
X-548365Y526039D01*
X-548260Y525902D01*
X-548245Y525873D01*
X-548231Y525852D01*
X-548195Y525775D01*
X-548109Y525607D01*
X-547999Y525342D01*
X-543998Y521341D01*
X-541611Y520352D01*
X-538754Y519169D01*
X-538618Y519154D01*
X-538429Y519135D01*
X-538420Y519133D01*
X-538411Y519132D01*
X-538227Y519073D01*
X-538044Y519017D01*
X-538036Y519013D01*
X-538028Y519010D01*
X-537859Y518917D01*
X-537690Y518825D01*
X-537683Y518820D01*
X-537675Y518815D01*
X-537528Y518691D01*
X-537381Y518568D01*
X-537375Y518561D01*
X-537368Y518555D01*
X-537249Y518403D01*
X-537128Y518254D01*
X-537124Y518246D01*
X-537119Y518239D01*
X-537031Y518066D01*
X-536943Y517897D01*
X-536940Y517888D01*
X-536936Y517880D01*
X-536884Y517693D01*
X-536831Y517510D01*
X-536831Y517501D01*
X-536828Y517492D01*
X-536814Y517299D01*
X-536799Y517108D01*
X-536800Y517100D01*
X-536799Y517091D01*
X-536823Y516898D01*
X-536845Y516709D01*
X-536848Y516700D01*
X-536849Y516691D01*
X-536911Y516509D01*
X-536970Y516326D01*
X-536975Y516318D01*
X-536978Y516310D01*
X-537074Y516143D01*
X-537168Y515975D01*
X-537174Y515968D01*
X-537178Y515961D01*
X-537393Y515708D01*
X-593248Y459853D01*
X-594234Y457473D01*
X-594234Y415839D01*
X-594235Y415831D01*
X-594234Y415822D01*
X-594255Y415630D01*
X-594274Y415439D01*
X-594276Y415430D01*
X-594277Y415421D01*
X-594335Y415239D01*
X-594392Y415054D01*
X-594396Y415046D01*
X-594399Y415038D01*
X-594492Y414869D01*
X-594584Y414700D01*
X-594589Y414693D01*
X-594594Y414685D01*
X-594718Y414538D01*
X-594841Y414391D01*
X-594848Y414385D01*
X-594854Y414378D01*
X-595005Y414259D01*
X-595155Y414138D01*
X-595163Y414134D01*
X-595170Y414129D01*
X-595343Y414041D01*
X-595512Y413953D01*
X-595521Y413950D01*
X-595529Y413946D01*
X-595715Y413894D01*
X-595899Y413841D01*
X-595908Y413841D01*
X-595917Y413838D01*
X-596110Y413824D01*
X-596301Y413808D01*
X-596309Y413810D01*
X-596318Y413809D01*
X-596511Y413833D01*
X-596700Y413855D01*
X-596709Y413858D01*
X-596718Y413859D01*
X-596901Y413921D01*
X-597083Y413980D01*
X-597091Y413985D01*
X-597099Y413987D01*
X-597266Y414084D01*
X-597434Y414178D01*
X-597441Y414184D01*
X-597448Y414188D01*
X-597701Y414403D01*
X-601628Y418330D01*
X-601868Y418430D01*
X-601888Y418440D01*
X-601909Y418447D01*
X-602065Y418535D01*
X-602223Y418620D01*
X-602240Y418634D01*
X-602260Y418645D01*
X-602395Y418762D01*
X-602534Y418876D01*
X-602548Y418894D01*
X-602565Y418908D01*
X-602674Y419050D01*
X-602787Y419189D01*
X-602798Y419209D01*
X-602811Y419226D01*
X-602891Y419387D01*
X-602974Y419545D01*
X-602981Y419567D01*
X-602991Y419587D01*
X-603037Y419760D01*
X-603087Y419932D01*
X-603089Y419954D01*
X-603095Y419976D01*
X-603122Y420306D01*
X-603122Y460296D01*
X-603120Y460322D01*
X-603122Y460349D01*
X-603100Y460523D01*
X-603082Y460696D01*
X-603075Y460722D01*
X-603071Y460749D01*
X-603016Y460914D01*
X-602964Y461081D01*
X-602951Y461105D01*
X-602943Y461130D01*
X-602856Y461282D01*
X-602772Y461435D01*
X-602755Y461456D01*
X-602742Y461479D01*
X-602527Y461732D01*
X-601481Y462778D01*
X-599567Y467399D01*
X-599567Y472401D01*
X-601481Y477022D01*
X-605067Y480608D01*
X-605084Y480629D01*
X-605105Y480646D01*
X-605212Y480784D01*
X-605322Y480919D01*
X-605335Y480943D01*
X-605351Y480964D01*
X-605429Y481121D01*
X-605511Y481275D01*
X-605519Y481301D01*
X-605531Y481325D01*
X-605576Y481494D01*
X-605626Y481661D01*
X-605628Y481688D01*
X-605635Y481713D01*
X-605662Y482044D01*
X-605662Y486479D01*
X-606648Y488859D01*
X-634155Y516366D01*
X-634163Y516376D01*
X-634173Y516385D01*
X-634290Y516532D01*
X-634410Y516677D01*
X-634416Y516689D01*
X-634424Y516699D01*
X-634510Y516867D01*
X-634598Y517033D01*
X-634602Y517046D01*
X-634608Y517058D01*
X-634659Y517238D01*
X-634713Y517419D01*
X-634714Y517432D01*
X-634718Y517445D01*
X-634732Y517631D01*
X-634749Y517820D01*
X-634748Y517833D01*
X-634749Y517846D01*
X-634727Y518031D01*
X-634706Y518220D01*
X-634702Y518233D01*
X-634700Y518246D01*
X-634642Y518422D01*
X-634585Y518604D01*
X-634578Y518616D01*
X-634574Y518628D01*
X-634481Y518792D01*
X-634390Y518956D01*
X-634381Y518966D01*
X-634374Y518978D01*
X-634250Y519121D01*
X-634129Y519263D01*
X-634119Y519271D01*
X-634110Y519282D01*
X-633961Y519396D01*
X-633813Y519513D01*
X-633801Y519519D01*
X-633791Y519527D01*
X-633496Y519679D01*
X-629482Y521341D01*
X-626276Y524547D01*
X-626262Y524558D01*
X-626251Y524572D01*
X-626107Y524685D01*
X-625965Y524802D01*
X-625949Y524810D01*
X-625935Y524821D01*
X-625771Y524905D01*
X-625609Y524991D01*
X-625592Y524996D01*
X-625576Y525004D01*
X-625399Y525053D01*
X-625223Y525105D01*
X-625205Y525107D01*
X-625188Y525112D01*
X-625005Y525125D01*
X-624822Y525142D01*
X-624804Y525140D01*
X-624787Y525141D01*
X-624605Y525118D01*
X-624422Y525098D01*
X-624405Y525093D01*
X-624387Y525091D01*
X-624213Y525032D01*
X-624038Y524977D01*
X-624022Y524968D01*
X-624006Y524962D01*
X-623846Y524871D01*
X-623686Y524782D01*
X-623672Y524771D01*
X-623657Y524762D01*
X-623404Y524547D01*
X-620198Y521341D01*
X-617811Y520352D01*
X-614970Y519175D01*
X-609310Y519175D01*
X-604082Y521341D01*
X-600876Y524547D01*
X-600863Y524558D01*
X-600851Y524572D01*
X-600707Y524686D01*
X-600565Y524802D01*
X-600549Y524810D01*
X-600535Y524821D01*
X-600371Y524905D01*
X-600209Y524991D01*
X-600192Y524996D01*
X-600176Y525004D01*
X-599999Y525053D01*
X-599823Y525105D01*
X-599805Y525107D01*
X-599788Y525112D01*
X-599605Y525125D01*
X-599422Y525142D01*
X-599404Y525140D01*
X-599387Y525141D01*
X-599205Y525118D01*
X-599022Y525098D01*
X-599005Y525093D01*
X-598987Y525091D01*
X-598814Y525032D01*
X-598638Y524977D01*
X-598622Y524968D01*
X-598606Y524962D01*
X-598446Y524871D01*
X-598286Y524782D01*
X-598272Y524771D01*
X-598257Y524762D01*
X-598004Y524547D01*
X-594798Y521341D01*
X-592411Y520352D01*
X-589570Y519175D01*
X-583910Y519175D01*
X-578682Y521341D01*
X-574681Y525342D01*
X-574571Y525607D01*
X-574490Y525759D01*
X-574413Y525913D01*
X-574395Y525936D01*
X-574381Y525961D01*
X-574271Y526094D01*
X-574165Y526231D01*
X-574143Y526250D01*
X-574125Y526272D01*
X-573991Y526381D01*
X-573860Y526493D01*
X-573835Y526507D01*
X-573812Y526526D01*
X-573659Y526606D01*
X-573509Y526690D01*
X-573481Y526699D01*
X-573456Y526713D01*
X-573290Y526761D01*
X-573126Y526814D01*
X-573097Y526818D01*
X-573069Y526826D01*
X-572897Y526840D01*
X-572726Y526860D01*
X-572697Y526858D01*
X-572668Y526860D01*
X-572497Y526841D01*
X-572324Y526826D01*
X-572297Y526818D01*
X-572268Y526815D01*
X-572104Y526762D01*
X-571938Y526714D01*
X-571912Y526701D01*
X-571885Y526692D01*
X-571734Y526608D01*
X-571581Y526528D01*
X-571558Y526510D01*
X-571533Y526496D01*
X-571402Y526383D01*
X-571268Y526275D01*
X-571247Y526250D01*
X-571227Y526234D01*
X-571175Y526167D01*
X-571051Y526023D01*
X-570640Y525457D01*
X-569283Y524100D01*
X-567730Y522972D01*
X-566020Y522101D01*
X-564195Y521508D01*
X-563839Y521451D01*
X-563839Y532932D01*
X-563837Y532950D01*
X-563839Y532967D01*
X-563818Y533149D01*
X-563799Y533332D01*
X-563794Y533349D01*
X-563792Y533367D01*
X-563779Y533408D01*
X-563806Y533502D01*
X-563808Y533520D01*
X-563812Y533537D01*
X-563839Y533868D01*
X-563839Y545349D01*
X-564195Y545292D01*
X-566020Y544699D01*
X-567730Y543828D01*
X-569283Y542700D01*
X-570640Y541343D01*
X-571051Y540777D01*
X-571166Y540648D01*
X-571277Y540516D01*
X-571300Y540498D01*
X-571319Y540476D01*
X-571457Y540372D01*
X-571592Y540265D01*
X-571618Y540252D01*
X-571641Y540234D01*
X-571796Y540160D01*
X-571950Y540081D01*
X-571978Y540073D01*
X-572004Y540061D01*
X-572171Y540018D01*
X-572338Y539971D01*
X-572367Y539969D01*
X-572395Y539962D01*
X-572567Y539953D01*
X-572739Y539940D01*
X-572768Y539943D01*
X-572797Y539942D01*
X-572968Y539968D01*
X-573139Y539989D01*
X-573166Y539998D01*
X-573195Y540002D01*
X-573357Y540061D01*
X-573521Y540115D01*
X-573546Y540130D01*
X-573573Y540139D01*
X-573721Y540229D01*
X-573871Y540315D01*
X-573893Y540334D01*
X-573917Y540349D01*
X-574044Y540466D01*
X-574174Y540579D01*
X-574192Y540602D01*
X-574213Y540622D01*
X-574315Y540761D01*
X-574420Y540898D01*
X-574435Y540927D01*
X-574449Y540948D01*
X-574485Y541025D01*
X-574571Y541193D01*
X-574681Y541458D01*
X-578682Y545459D01*
X-583910Y547625D01*
X-589570Y547625D01*
X-594798Y545459D01*
X-598004Y542253D01*
X-598018Y542242D01*
X-598029Y542228D01*
X-598173Y542115D01*
X-598315Y541998D01*
X-598331Y541990D01*
X-598345Y541979D01*
X-598509Y541895D01*
X-598671Y541809D01*
X-598688Y541804D01*
X-598704Y541796D01*
X-598881Y541747D01*
X-599057Y541695D01*
X-599075Y541693D01*
X-599092Y541688D01*
X-599275Y541675D01*
X-599458Y541658D01*
X-599476Y541660D01*
X-599493Y541659D01*
X-599675Y541682D01*
X-599858Y541702D01*
X-599875Y541707D01*
X-599893Y541709D01*
X-600067Y541768D01*
X-600242Y541823D01*
X-600258Y541832D01*
X-600274Y541838D01*
X-600434Y541929D01*
X-600594Y542018D01*
X-600608Y542029D01*
X-600623Y542038D01*
X-600876Y542253D01*
X-604082Y545459D01*
X-609310Y547625D01*
X-614970Y547625D01*
X-620198Y545459D01*
X-623404Y542253D01*
X-623417Y542242D01*
X-623429Y542228D01*
X-623573Y542114D01*
X-623715Y541998D01*
X-623731Y541990D01*
X-623745Y541979D01*
X-623909Y541895D01*
X-624071Y541809D01*
X-624088Y541804D01*
X-624104Y541796D01*
X-624281Y541747D01*
X-624457Y541695D01*
X-624475Y541693D01*
X-624492Y541688D01*
X-624675Y541675D01*
X-624858Y541658D01*
X-624876Y541660D01*
X-624893Y541659D01*
X-625075Y541682D01*
X-625258Y541702D01*
X-625275Y541707D01*
X-625293Y541709D01*
X-625466Y541768D01*
X-625642Y541823D01*
X-625658Y541832D01*
X-625674Y541838D01*
X-625834Y541929D01*
X-625994Y542018D01*
X-626008Y542029D01*
X-626023Y542038D01*
X-626276Y542253D01*
X-629482Y545459D01*
X-633531Y547136D01*
X-633543Y547142D01*
X-633556Y547147D01*
X-633720Y547237D01*
X-633886Y547326D01*
X-633896Y547335D01*
X-633908Y547341D01*
X-634051Y547462D01*
X-634196Y547583D01*
X-634205Y547593D01*
X-634215Y547602D01*
X-634332Y547750D01*
X-634450Y547895D01*
X-634456Y547907D01*
X-634465Y547918D01*
X-634550Y548086D01*
X-634637Y548252D01*
X-634641Y548265D01*
X-634647Y548277D01*
X-634698Y548459D01*
X-634750Y548638D01*
X-634751Y548652D01*
X-634755Y548665D01*
X-634769Y548853D01*
X-634785Y549039D01*
X-634783Y549053D01*
X-634784Y549066D01*
X-634760Y549254D01*
X-634740Y549440D01*
X-634736Y549452D01*
X-634734Y549466D01*
X-634674Y549644D01*
X-634616Y549823D01*
X-634610Y549835D01*
X-634606Y549847D01*
X-634512Y550011D01*
X-634420Y550174D01*
X-634411Y550184D01*
X-634405Y550196D01*
X-634190Y550449D01*
X-606216Y578423D01*
X-604108Y580531D01*
X-603122Y582911D01*
X-603122Y587554D01*
X-603121Y587566D01*
X-603122Y587577D01*
X-603120Y587591D01*
X-603122Y587607D01*
X-603100Y587781D01*
X-603082Y587954D01*
X-603075Y587980D01*
X-603071Y588007D01*
X-603016Y588172D01*
X-602964Y588339D01*
X-602951Y588363D01*
X-602943Y588388D01*
X-602856Y588540D01*
X-602772Y588693D01*
X-602755Y588714D01*
X-602742Y588737D01*
X-602527Y588990D01*
X-598533Y592985D01*
X-596474Y597956D01*
X-596474Y621244D01*
X-598533Y626215D01*
X-602338Y630021D01*
X-603147Y630356D01*
X-607309Y632080D01*
X-612691Y632080D01*
X-617662Y630021D01*
X-621467Y626215D01*
X-623526Y621244D01*
X-623526Y597956D01*
X-621467Y592985D01*
X-617649Y589167D01*
X-617537Y589105D01*
X-617372Y589016D01*
X-617361Y589008D01*
X-617350Y589001D01*
X-617205Y588879D01*
X-617061Y588760D01*
X-617053Y588749D01*
X-617043Y588741D01*
X-616926Y588593D01*
X-616808Y588447D01*
X-616801Y588435D01*
X-616793Y588425D01*
X-616708Y588256D01*
X-616621Y588090D01*
X-616617Y588078D01*
X-616611Y588066D01*
X-616560Y587884D01*
X-616507Y587704D01*
X-616506Y587691D01*
X-616503Y587678D01*
X-616489Y587489D01*
X-616473Y587303D01*
X-616474Y587290D01*
X-616473Y587276D01*
X-616497Y587088D01*
X-616518Y586903D01*
X-616522Y586890D01*
X-616524Y586877D01*
X-616584Y586698D01*
X-616641Y586520D01*
X-616648Y586508D01*
X-616652Y586495D01*
X-616746Y586332D01*
X-616838Y586168D01*
X-616846Y586158D01*
X-616853Y586146D01*
X-617068Y585893D01*
X-659161Y543800D01*
X-660147Y541420D01*
X-660147Y525431D01*
X-659161Y523050D01*
X-619402Y483291D01*
X-619391Y483277D01*
X-619377Y483266D01*
X-619263Y483122D01*
X-619147Y482980D01*
X-619139Y482964D01*
X-619127Y482950D01*
X-619044Y482785D01*
X-618958Y482624D01*
X-618953Y482607D01*
X-618945Y482591D01*
X-618896Y482413D01*
X-618843Y482238D01*
X-618842Y482220D01*
X-618837Y482203D01*
X-618824Y482020D01*
X-618807Y481837D01*
X-618809Y481819D01*
X-618808Y481802D01*
X-618831Y481620D01*
X-618850Y481437D01*
X-618856Y481420D01*
X-618858Y481402D01*
X-618916Y481229D01*
X-618972Y481053D01*
X-618981Y481037D01*
X-618986Y481020D01*
X-619078Y480861D01*
X-619167Y480701D01*
X-619178Y480687D01*
X-619187Y480672D01*
X-619402Y480419D01*
X-622301Y477520D01*
X-622314Y477509D01*
X-622326Y477495D01*
X-622470Y477381D01*
X-622612Y477265D01*
X-622628Y477257D01*
X-622642Y477245D01*
X-622806Y477162D01*
X-622968Y477076D01*
X-622985Y477071D01*
X-623001Y477063D01*
X-623178Y477014D01*
X-623354Y476962D01*
X-623371Y476960D01*
X-623389Y476955D01*
X-623572Y476942D01*
X-623755Y476925D01*
X-623772Y476927D01*
X-623790Y476926D01*
X-623972Y476949D01*
X-624155Y476969D01*
X-624172Y476974D01*
X-624190Y476976D01*
X-624363Y477034D01*
X-624539Y477090D01*
X-624554Y477099D01*
X-624571Y477104D01*
X-624731Y477196D01*
X-624891Y477285D01*
X-624905Y477296D01*
X-624920Y477305D01*
X-625173Y477520D01*
X-628094Y480441D01*
X-630429Y480441D01*
X-630429Y469900D01*
X-630429Y459359D01*
X-628094Y459359D01*
X-625173Y462280D01*
X-625159Y462291D01*
X-625148Y462305D01*
X-625004Y462418D01*
X-624862Y462535D01*
X-624846Y462543D01*
X-624832Y462555D01*
X-624667Y462638D01*
X-624506Y462724D01*
X-624489Y462729D01*
X-624473Y462737D01*
X-624295Y462786D01*
X-624120Y462838D01*
X-624102Y462840D01*
X-624085Y462845D01*
X-623902Y462858D01*
X-623719Y462875D01*
X-623701Y462873D01*
X-623684Y462874D01*
X-623501Y462851D01*
X-623319Y462831D01*
X-623302Y462826D01*
X-623284Y462824D01*
X-623110Y462765D01*
X-622935Y462710D01*
X-622919Y462701D01*
X-622902Y462696D01*
X-622743Y462604D01*
X-622583Y462515D01*
X-622569Y462504D01*
X-622554Y462495D01*
X-622301Y462280D01*
X-619262Y459241D01*
X-617332Y458442D01*
X-617312Y458431D01*
X-617291Y458424D01*
X-617135Y458336D01*
X-616977Y458252D01*
X-616960Y458237D01*
X-616940Y458226D01*
X-616805Y458110D01*
X-616666Y457995D01*
X-616652Y457978D01*
X-616635Y457963D01*
X-616526Y457822D01*
X-616413Y457683D01*
X-616402Y457663D01*
X-616389Y457645D01*
X-616309Y457484D01*
X-616226Y457326D01*
X-616219Y457305D01*
X-616209Y457285D01*
X-616163Y457111D01*
X-616113Y456940D01*
X-616111Y456917D01*
X-616105Y456896D01*
X-616078Y456565D01*
X-616078Y420306D01*
X-616080Y420284D01*
X-616078Y420262D01*
X-616100Y420084D01*
X-616118Y419906D01*
X-616124Y419884D01*
X-616127Y419862D01*
X-616183Y419692D01*
X-616236Y419521D01*
X-616246Y419501D01*
X-616253Y419480D01*
X-616342Y419324D01*
X-616428Y419167D01*
X-616442Y419150D01*
X-616453Y419130D01*
X-616571Y418994D01*
X-616685Y418857D01*
X-616703Y418844D01*
X-616717Y418827D01*
X-616860Y418717D01*
X-616999Y418605D01*
X-617019Y418595D01*
X-617037Y418581D01*
X-617332Y418430D01*
X-617572Y418330D01*
X-621530Y414372D01*
X-623673Y409199D01*
X-623673Y403601D01*
X-621530Y398428D01*
X-617572Y394470D01*
X-612399Y392327D01*
X-606801Y392327D01*
X-601628Y394470D01*
X-597701Y398397D01*
X-597694Y398403D01*
X-597689Y398409D01*
X-597539Y398530D01*
X-597390Y398652D01*
X-597382Y398656D01*
X-597375Y398662D01*
X-597205Y398750D01*
X-597034Y398841D01*
X-597025Y398843D01*
X-597018Y398847D01*
X-596833Y398900D01*
X-596648Y398955D01*
X-596639Y398956D01*
X-596631Y398959D01*
X-596439Y398974D01*
X-596247Y398992D01*
X-596238Y398991D01*
X-596229Y398992D01*
X-596040Y398969D01*
X-595847Y398948D01*
X-595838Y398946D01*
X-595830Y398945D01*
X-595648Y398885D01*
X-595463Y398827D01*
X-595455Y398823D01*
X-595447Y398820D01*
X-595278Y398725D01*
X-595111Y398632D01*
X-595104Y398626D01*
X-595096Y398622D01*
X-594950Y398496D01*
X-594804Y398372D01*
X-594798Y398365D01*
X-594791Y398359D01*
X-594674Y398207D01*
X-594554Y398056D01*
X-594550Y398048D01*
X-594545Y398041D01*
X-594459Y397868D01*
X-594372Y397697D01*
X-594369Y397688D01*
X-594365Y397680D01*
X-594315Y397494D01*
X-594264Y397309D01*
X-594263Y397300D01*
X-594261Y397291D01*
X-594234Y396961D01*
X-594234Y377739D01*
X-594235Y377731D01*
X-594234Y377722D01*
X-594255Y377528D01*
X-594274Y377339D01*
X-594276Y377330D01*
X-594277Y377321D01*
X-594335Y377139D01*
X-594392Y376954D01*
X-594396Y376946D01*
X-594399Y376938D01*
X-594492Y376769D01*
X-594584Y376600D01*
X-594589Y376593D01*
X-594594Y376585D01*
X-594718Y376438D01*
X-594841Y376291D01*
X-594848Y376285D01*
X-594854Y376278D01*
X-595005Y376159D01*
X-595155Y376038D01*
X-595163Y376034D01*
X-595170Y376029D01*
X-595343Y375941D01*
X-595512Y375853D01*
X-595521Y375850D01*
X-595529Y375846D01*
X-595715Y375794D01*
X-595899Y375741D01*
X-595908Y375741D01*
X-595917Y375738D01*
X-596110Y375724D01*
X-596301Y375708D01*
X-596309Y375710D01*
X-596318Y375709D01*
X-596511Y375733D01*
X-596700Y375755D01*
X-596709Y375758D01*
X-596718Y375759D01*
X-596901Y375821D01*
X-597083Y375880D01*
X-597091Y375885D01*
X-597099Y375887D01*
X-597266Y375984D01*
X-597434Y376078D01*
X-597441Y376084D01*
X-597448Y376088D01*
X-597701Y376303D01*
X-601628Y380230D01*
X-606801Y382373D01*
X-612399Y382373D01*
X-617572Y380230D01*
X-621530Y376272D01*
X-621630Y376032D01*
X-621640Y376012D01*
X-621647Y375991D01*
X-621735Y375835D01*
X-621820Y375677D01*
X-621834Y375660D01*
X-621845Y375640D01*
X-621962Y375505D01*
X-622076Y375366D01*
X-622094Y375352D01*
X-622108Y375335D01*
X-622250Y375226D01*
X-622389Y375113D01*
X-622409Y375102D01*
X-622426Y375089D01*
X-622587Y375009D01*
X-622745Y374926D01*
X-622767Y374919D01*
X-622787Y374909D01*
X-622960Y374863D01*
X-623132Y374813D01*
X-623154Y374811D01*
X-623176Y374805D01*
X-623506Y374778D01*
X-648963Y374778D01*
X-648990Y374780D01*
X-649016Y374778D01*
X-649190Y374800D01*
X-649364Y374818D01*
X-649389Y374825D01*
X-649416Y374829D01*
X-649582Y374885D01*
X-649748Y374936D01*
X-649772Y374949D01*
X-649797Y374957D01*
X-649949Y375044D01*
X-650103Y375128D01*
X-650123Y375145D01*
X-650146Y375158D01*
X-650399Y375373D01*
X-653561Y378535D01*
X-657999Y380373D01*
X-662801Y380373D01*
X-667239Y378535D01*
X-670635Y375139D01*
X-672355Y370985D01*
X-672397Y370907D01*
X-672430Y370825D01*
X-672492Y370730D01*
X-672545Y370630D01*
X-672602Y370562D01*
X-672651Y370488D01*
X-672730Y370407D01*
X-672802Y370320D01*
X-672871Y370264D01*
X-672933Y370201D01*
X-673027Y370137D01*
X-673114Y370066D01*
X-673193Y370025D01*
X-673267Y369975D01*
X-673371Y369932D01*
X-673471Y369879D01*
X-673556Y369854D01*
X-673638Y369820D01*
X-673749Y369798D01*
X-673857Y369766D01*
X-673946Y369758D01*
X-674033Y369741D01*
X-674146Y369741D01*
X-674258Y369731D01*
X-674347Y369741D01*
X-674435Y369742D01*
X-674546Y369764D01*
X-674659Y369777D01*
X-674743Y369804D01*
X-674830Y369821D01*
X-674934Y369865D01*
X-675042Y369900D01*
X-675119Y369943D01*
X-675201Y369978D01*
X-675295Y370041D01*
X-675393Y370096D01*
X-675461Y370154D01*
X-675534Y370204D01*
X-675613Y370284D01*
X-675699Y370358D01*
X-675754Y370428D01*
X-675816Y370491D01*
X-675878Y370586D01*
X-675947Y370675D01*
X-675987Y370754D01*
X-676036Y370829D01*
X-676090Y370959D01*
X-676128Y371035D01*
X-676140Y371079D01*
X-676164Y371135D01*
X-676495Y372154D01*
X-677212Y373562D01*
X-678141Y374841D01*
X-679259Y375959D01*
X-680538Y376888D01*
X-681946Y377605D01*
X-683449Y378093D01*
X-683769Y378144D01*
X-683769Y368300D01*
X-683769Y343456D01*
X-683449Y343507D01*
X-681946Y343995D01*
X-680538Y344712D01*
X-679259Y345641D01*
X-678141Y346759D01*
X-677212Y348038D01*
X-676495Y349446D01*
X-676164Y350465D01*
X-676128Y350546D01*
X-676102Y350631D01*
X-676047Y350730D01*
X-676002Y350834D01*
X-675951Y350906D01*
X-675908Y350984D01*
X-675836Y351071D01*
X-675771Y351163D01*
X-675706Y351225D01*
X-675649Y351293D01*
X-675561Y351363D01*
X-675479Y351441D01*
X-675404Y351488D01*
X-675334Y351543D01*
X-675234Y351595D01*
X-675138Y351655D01*
X-675055Y351687D01*
X-674976Y351727D01*
X-674867Y351758D01*
X-674762Y351798D01*
X-674674Y351813D01*
X-674589Y351837D01*
X-674476Y351846D01*
X-674365Y351864D01*
X-674276Y351861D01*
X-674187Y351868D01*
X-674075Y351855D01*
X-673962Y351851D01*
X-673876Y351830D01*
X-673788Y351820D01*
X-673680Y351784D01*
X-673570Y351758D01*
X-673490Y351721D01*
X-673406Y351693D01*
X-673307Y351637D01*
X-673205Y351590D01*
X-673133Y351538D01*
X-673056Y351494D01*
X-672971Y351419D01*
X-672879Y351353D01*
X-672819Y351288D01*
X-672752Y351229D01*
X-672683Y351139D01*
X-672607Y351056D01*
X-672561Y350980D01*
X-672507Y350910D01*
X-672442Y350784D01*
X-672398Y350712D01*
X-672383Y350669D01*
X-672355Y350615D01*
X-670635Y346461D01*
X-667239Y343065D01*
X-662801Y341227D01*
X-657999Y341227D01*
X-653561Y343065D01*
X-650165Y346461D01*
X-648327Y350899D01*
X-648327Y359791D01*
X-648325Y359809D01*
X-648327Y359827D01*
X-648306Y360009D01*
X-648287Y360192D01*
X-648282Y360209D01*
X-648280Y360226D01*
X-648223Y360401D01*
X-648169Y360577D01*
X-648161Y360592D01*
X-648155Y360609D01*
X-648065Y360769D01*
X-647977Y360931D01*
X-647966Y360944D01*
X-647957Y360960D01*
X-647838Y361098D01*
X-647720Y361240D01*
X-647706Y361251D01*
X-647694Y361265D01*
X-647549Y361377D01*
X-647406Y361492D01*
X-647390Y361500D01*
X-647376Y361511D01*
X-647211Y361593D01*
X-647049Y361678D01*
X-647032Y361683D01*
X-647016Y361691D01*
X-646837Y361738D01*
X-646662Y361789D01*
X-646644Y361791D01*
X-646627Y361795D01*
X-646296Y361822D01*
X-623506Y361822D01*
X-623484Y361820D01*
X-623462Y361822D01*
X-623284Y361800D01*
X-623106Y361782D01*
X-623084Y361776D01*
X-623062Y361773D01*
X-622892Y361717D01*
X-622721Y361664D01*
X-622701Y361654D01*
X-622680Y361647D01*
X-622524Y361558D01*
X-622367Y361472D01*
X-622350Y361458D01*
X-622330Y361447D01*
X-622194Y361329D01*
X-622057Y361215D01*
X-622044Y361197D01*
X-622027Y361183D01*
X-621917Y361040D01*
X-621805Y360901D01*
X-621795Y360881D01*
X-621781Y360863D01*
X-621630Y360568D01*
X-621530Y360328D01*
X-617572Y356370D01*
X-612399Y354227D01*
X-606801Y354227D01*
X-601628Y356370D01*
X-597701Y360297D01*
X-597694Y360303D01*
X-597689Y360309D01*
X-597539Y360430D01*
X-597390Y360552D01*
X-597382Y360556D01*
X-597375Y360562D01*
X-597205Y360650D01*
X-597034Y360741D01*
X-597025Y360743D01*
X-597018Y360747D01*
X-596833Y360800D01*
X-596648Y360855D01*
X-596639Y360856D01*
X-596631Y360859D01*
X-596439Y360874D01*
X-596247Y360892D01*
X-596238Y360891D01*
X-596229Y360892D01*
X-596040Y360869D01*
X-595847Y360848D01*
X-595838Y360846D01*
X-595830Y360845D01*
X-595648Y360785D01*
X-595463Y360727D01*
X-595455Y360723D01*
X-595447Y360720D01*
X-595278Y360625D01*
X-595111Y360532D01*
X-595104Y360526D01*
X-595096Y360522D01*
X-594950Y360396D01*
X-594804Y360272D01*
X-594798Y360265D01*
X-594791Y360259D01*
X-594674Y360107D01*
X-594554Y359956D01*
X-594550Y359948D01*
X-594545Y359941D01*
X-594459Y359768D01*
X-594372Y359597D01*
X-594369Y359588D01*
X-594365Y359580D01*
X-594315Y359394D01*
X-594264Y359209D01*
X-594263Y359200D01*
X-594261Y359191D01*
X-594234Y358861D01*
X-594234Y32745D01*
X-593248Y30365D01*
X-591140Y28257D01*
X-570923Y8040D01*
X-570917Y8033D01*
X-570911Y8028D01*
X-570790Y7878D01*
X-570668Y7729D01*
X-570664Y7721D01*
X-570658Y7714D01*
X-570569Y7543D01*
X-570479Y7373D01*
X-570477Y7365D01*
X-570473Y7357D01*
X-570420Y7171D01*
X-570365Y6987D01*
X-570364Y6978D01*
X-570361Y6970D01*
X-570346Y6778D01*
X-570328Y6586D01*
X-570329Y6577D01*
X-570329Y6568D01*
X-570351Y6379D01*
X-570372Y6186D01*
X-570374Y6177D01*
X-570375Y6169D01*
X-570435Y5987D01*
X-570493Y5802D01*
X-570498Y5794D01*
X-570500Y5786D01*
X-570595Y5617D01*
X-570688Y5450D01*
X-570694Y5443D01*
X-570698Y5435D01*
X-570824Y5289D01*
X-570949Y5143D01*
X-570956Y5137D01*
X-570961Y5130D01*
X-571113Y5013D01*
X-571264Y4893D01*
X-571272Y4889D01*
X-571279Y4884D01*
X-571452Y4798D01*
X-571623Y4711D01*
X-571632Y4708D01*
X-571640Y4704D01*
X-571826Y4654D01*
X-572011Y4603D01*
X-572020Y4602D01*
X-572029Y4600D01*
X-572359Y4573D01*
X-819406Y4573D01*
X-819424Y4575D01*
X-819442Y4573D01*
X-819624Y4594D01*
X-819807Y4613D01*
X-819824Y4618D01*
X-819841Y4620D01*
X-820016Y4677D01*
X-820192Y4731D01*
X-820207Y4739D01*
X-820224Y4745D01*
X-820384Y4835D01*
X-820546Y4923D01*
X-820559Y4934D01*
X-820575Y4943D01*
X-820714Y5063D01*
X-820855Y5180D01*
X-820866Y5194D01*
X-820880Y5206D01*
X-820992Y5351D01*
X-821107Y5494D01*
X-821115Y5510D01*
X-821126Y5524D01*
X-821208Y5689D01*
X-821293Y5851D01*
X-821298Y5868D01*
X-821306Y5884D01*
X-821353Y6063D01*
X-821404Y6238D01*
X-821406Y6256D01*
X-821410Y6273D01*
X-821437Y6604D01*
X-821437Y653796D01*
X-821435Y653814D01*
X-821437Y653832D01*
X-821416Y654014D01*
X-821397Y654197D01*
X-821392Y654214D01*
X-821390Y654231D01*
X-821333Y654406D01*
X-821279Y654582D01*
X-821271Y654597D01*
X-821265Y654614D01*
X-821175Y654774D01*
X-821087Y654936D01*
X-821076Y654949D01*
X-821067Y654965D01*
X-820947Y655104D01*
X-820830Y655245D01*
X-820816Y655256D01*
X-820804Y655270D01*
X-820659Y655382D01*
X-820516Y655497D01*
X-820500Y655505D01*
X-820486Y655516D01*
X-820321Y655598D01*
X-820159Y655683D01*
X-820142Y655688D01*
X-820126Y655696D01*
X-819947Y655743D01*
X-819772Y655794D01*
X-819754Y655796D01*
X-819737Y655800D01*
X-819406Y655827D01*
X-6604Y655827D01*
X-6586Y655825D01*
X-6568Y655827D01*
X-6386Y655806D01*
X-6203Y655787D01*
X-6186Y655782D01*
X-6169Y655780D01*
X-5994Y655723D01*
X-5818Y655669D01*
X-5803Y655661D01*
X-5786Y655655D01*
X-5626Y655565D01*
X-5464Y655477D01*
X-5451Y655466D01*
X-5435Y655457D01*
X-5296Y655337D01*
X-5155Y655220D01*
X-5144Y655206D01*
X-5130Y655194D01*
X-5018Y655049D01*
X-4903Y654906D01*
X-4895Y654890D01*
X-4884Y654876D01*
X-4802Y654711D01*
X-4717Y654549D01*
X-4712Y654532D01*
X-4704Y654516D01*
X-4657Y654337D01*
X-4606Y654162D01*
X-4604Y654144D01*
X-4600Y654127D01*
X-4573Y653796D01*
X-4573Y6604D01*
X-4575Y6586D01*
X-4573Y6568D01*
X-4594Y6386D01*
X-4613Y6203D01*
X-4618Y6186D01*
X-4620Y6169D01*
X-4677Y5994D01*
X-4731Y5818D01*
X-4739Y5803D01*
X-4745Y5786D01*
X-4835Y5626D01*
X-4923Y5464D01*
X-4934Y5451D01*
X-4943Y5435D01*
X-5063Y5296D01*
X-5180Y5155D01*
X-5194Y5144D01*
X-5206Y5130D01*
X-5351Y5018D01*
X-5494Y4903D01*
X-5510Y4895D01*
X-5524Y4884D01*
X-5689Y4802D01*
X-5851Y4717D01*
X-5868Y4712D01*
X-5884Y4704D01*
X-6063Y4657D01*
X-6238Y4606D01*
X-6256Y4604D01*
X-6273Y4600D01*
X-6604Y4573D01*
X-161701Y4573D01*
X-161709Y4574D01*
G37*
G36*
X-354032Y40769D02*
X-354032Y40769D01*
X-354045Y40768D01*
X-354232Y40789D01*
X-354419Y40808D01*
X-354432Y40812D01*
X-354446Y40813D01*
X-354625Y40871D01*
X-354804Y40926D01*
X-354816Y40932D01*
X-354829Y40936D01*
X-354994Y41028D01*
X-355158Y41118D01*
X-355169Y41126D01*
X-355180Y41133D01*
X-355323Y41255D01*
X-355468Y41375D01*
X-355476Y41386D01*
X-355486Y41394D01*
X-355602Y41542D01*
X-355720Y41689D01*
X-355726Y41701D01*
X-355734Y41711D01*
X-355819Y41880D01*
X-355905Y42046D01*
X-355909Y42059D01*
X-355915Y42071D01*
X-355965Y42252D01*
X-356017Y42433D01*
X-356018Y42447D01*
X-356021Y42460D01*
X-356034Y42648D01*
X-356050Y42835D01*
X-356048Y42848D01*
X-356049Y42861D01*
X-356025Y43049D01*
X-356003Y43234D01*
X-355999Y43247D01*
X-355997Y43260D01*
X-355895Y43576D01*
X-354075Y47971D01*
X-354075Y53630D01*
X-356241Y58858D01*
X-360242Y62859D01*
X-362120Y63637D01*
X-365470Y65025D01*
X-371130Y65025D01*
X-376358Y62859D01*
X-380359Y58858D01*
X-380469Y58593D01*
X-380550Y58441D01*
X-380627Y58287D01*
X-380645Y58264D01*
X-380659Y58239D01*
X-380769Y58106D01*
X-380875Y57969D01*
X-380897Y57950D01*
X-380915Y57928D01*
X-381050Y57819D01*
X-381180Y57707D01*
X-381205Y57693D01*
X-381228Y57674D01*
X-381381Y57594D01*
X-381531Y57510D01*
X-381559Y57501D01*
X-381584Y57487D01*
X-381750Y57439D01*
X-381914Y57386D01*
X-381943Y57382D01*
X-381971Y57374D01*
X-382143Y57360D01*
X-382314Y57340D01*
X-382343Y57342D01*
X-382372Y57340D01*
X-382543Y57359D01*
X-382716Y57374D01*
X-382743Y57382D01*
X-382772Y57385D01*
X-382936Y57438D01*
X-383102Y57486D01*
X-383128Y57499D01*
X-383155Y57508D01*
X-383306Y57592D01*
X-383459Y57672D01*
X-383482Y57690D01*
X-383507Y57704D01*
X-383638Y57817D01*
X-383772Y57925D01*
X-383793Y57950D01*
X-383813Y57966D01*
X-383865Y58033D01*
X-383989Y58177D01*
X-384400Y58743D01*
X-385757Y60100D01*
X-387310Y61228D01*
X-389020Y62099D01*
X-390845Y62692D01*
X-391201Y62749D01*
X-391201Y51268D01*
X-391201Y51261D01*
X-391201Y51256D01*
X-391202Y51246D01*
X-391201Y51233D01*
X-391222Y51050D01*
X-391241Y50868D01*
X-391246Y50851D01*
X-391248Y50833D01*
X-391305Y50658D01*
X-391359Y50483D01*
X-391367Y50467D01*
X-391373Y50450D01*
X-391463Y50290D01*
X-391550Y50129D01*
X-391562Y50115D01*
X-391571Y50099D01*
X-391691Y49960D01*
X-391808Y49819D01*
X-391822Y49808D01*
X-391834Y49795D01*
X-391979Y49682D01*
X-392122Y49567D01*
X-392138Y49559D01*
X-392152Y49548D01*
X-392317Y49466D01*
X-392344Y49452D01*
X-392399Y49354D01*
X-392487Y49192D01*
X-392498Y49179D01*
X-392507Y49163D01*
X-392627Y49024D01*
X-392745Y48883D01*
X-392758Y48872D01*
X-392770Y48858D01*
X-392915Y48746D01*
X-393058Y48631D01*
X-393074Y48623D01*
X-393088Y48612D01*
X-393253Y48530D01*
X-393416Y48445D01*
X-393433Y48440D01*
X-393449Y48432D01*
X-393627Y48384D01*
X-393802Y48334D01*
X-393820Y48332D01*
X-393837Y48328D01*
X-394168Y48301D01*
X-418632Y48301D01*
X-418650Y48302D01*
X-418667Y48301D01*
X-418850Y48322D01*
X-419032Y48341D01*
X-419049Y48346D01*
X-419067Y48348D01*
X-419242Y48405D01*
X-419417Y48459D01*
X-419433Y48467D01*
X-419450Y48473D01*
X-419610Y48563D01*
X-419771Y48650D01*
X-419785Y48662D01*
X-419801Y48671D01*
X-419940Y48791D01*
X-420081Y48908D01*
X-420092Y48922D01*
X-420105Y48934D01*
X-420218Y49079D01*
X-420333Y49222D01*
X-420341Y49238D01*
X-420352Y49252D01*
X-420434Y49417D01*
X-420448Y49444D01*
X-420546Y49499D01*
X-420708Y49587D01*
X-420721Y49598D01*
X-420737Y49607D01*
X-420876Y49727D01*
X-421017Y49845D01*
X-421028Y49858D01*
X-421042Y49870D01*
X-421154Y50015D01*
X-421269Y50158D01*
X-421277Y50174D01*
X-421288Y50188D01*
X-421370Y50353D01*
X-421455Y50516D01*
X-421460Y50533D01*
X-421468Y50549D01*
X-421515Y50727D01*
X-421566Y50902D01*
X-421568Y50920D01*
X-421572Y50937D01*
X-421599Y51268D01*
X-421599Y62749D01*
X-421955Y62692D01*
X-423780Y62099D01*
X-425490Y61228D01*
X-427043Y60100D01*
X-428400Y58743D01*
X-428811Y58177D01*
X-428926Y58048D01*
X-429037Y57916D01*
X-429060Y57898D01*
X-429079Y57876D01*
X-429217Y57772D01*
X-429352Y57665D01*
X-429378Y57652D01*
X-429401Y57634D01*
X-429556Y57560D01*
X-429710Y57481D01*
X-429738Y57473D01*
X-429764Y57461D01*
X-429931Y57418D01*
X-430098Y57371D01*
X-430127Y57369D01*
X-430155Y57362D01*
X-430327Y57353D01*
X-430499Y57340D01*
X-430528Y57343D01*
X-430557Y57342D01*
X-430728Y57368D01*
X-430899Y57389D01*
X-430926Y57398D01*
X-430955Y57402D01*
X-431117Y57461D01*
X-431281Y57515D01*
X-431306Y57530D01*
X-431333Y57539D01*
X-431481Y57629D01*
X-431631Y57715D01*
X-431653Y57734D01*
X-431677Y57749D01*
X-431804Y57866D01*
X-431934Y57979D01*
X-431952Y58002D01*
X-431973Y58022D01*
X-432075Y58161D01*
X-432180Y58298D01*
X-432195Y58327D01*
X-432209Y58348D01*
X-432245Y58425D01*
X-432331Y58593D01*
X-432441Y58858D01*
X-436442Y62859D01*
X-438320Y63637D01*
X-441670Y65025D01*
X-447330Y65025D01*
X-452558Y62859D01*
X-455764Y59653D01*
X-455777Y59642D01*
X-455789Y59628D01*
X-455933Y59514D01*
X-456075Y59398D01*
X-456091Y59390D01*
X-456105Y59379D01*
X-456269Y59295D01*
X-456431Y59209D01*
X-456448Y59204D01*
X-456464Y59196D01*
X-456641Y59147D01*
X-456817Y59095D01*
X-456835Y59093D01*
X-456852Y59088D01*
X-457035Y59075D01*
X-457218Y59058D01*
X-457236Y59060D01*
X-457253Y59059D01*
X-457435Y59082D01*
X-457618Y59102D01*
X-457635Y59107D01*
X-457653Y59109D01*
X-457826Y59168D01*
X-458002Y59223D01*
X-458018Y59232D01*
X-458034Y59238D01*
X-458194Y59329D01*
X-458354Y59418D01*
X-458368Y59429D01*
X-458383Y59438D01*
X-458636Y59653D01*
X-461842Y62859D01*
X-463720Y63637D01*
X-467070Y65025D01*
X-472730Y65025D01*
X-477958Y62859D01*
X-481164Y59653D01*
X-481177Y59642D01*
X-481189Y59628D01*
X-481333Y59514D01*
X-481475Y59398D01*
X-481491Y59390D01*
X-481505Y59379D01*
X-481669Y59295D01*
X-481831Y59209D01*
X-481848Y59204D01*
X-481864Y59196D01*
X-482041Y59147D01*
X-482217Y59095D01*
X-482235Y59093D01*
X-482252Y59088D01*
X-482435Y59075D01*
X-482618Y59058D01*
X-482636Y59060D01*
X-482653Y59059D01*
X-482835Y59082D01*
X-483018Y59102D01*
X-483035Y59107D01*
X-483053Y59109D01*
X-483226Y59168D01*
X-483402Y59223D01*
X-483418Y59232D01*
X-483434Y59238D01*
X-483594Y59329D01*
X-483754Y59418D01*
X-483768Y59429D01*
X-483783Y59438D01*
X-484036Y59653D01*
X-487242Y62859D01*
X-489120Y63637D01*
X-492470Y65025D01*
X-498130Y65025D01*
X-503358Y62859D01*
X-506564Y59653D01*
X-506577Y59642D01*
X-506589Y59628D01*
X-506733Y59514D01*
X-506875Y59398D01*
X-506891Y59390D01*
X-506905Y59379D01*
X-507069Y59295D01*
X-507231Y59209D01*
X-507248Y59204D01*
X-507264Y59196D01*
X-507441Y59147D01*
X-507617Y59095D01*
X-507635Y59093D01*
X-507652Y59088D01*
X-507835Y59075D01*
X-508018Y59058D01*
X-508036Y59060D01*
X-508053Y59059D01*
X-508235Y59082D01*
X-508418Y59102D01*
X-508435Y59107D01*
X-508453Y59109D01*
X-508626Y59168D01*
X-508802Y59223D01*
X-508818Y59232D01*
X-508834Y59238D01*
X-508994Y59329D01*
X-509154Y59418D01*
X-509168Y59429D01*
X-509183Y59438D01*
X-509436Y59653D01*
X-512642Y62859D01*
X-514520Y63637D01*
X-517870Y65025D01*
X-523530Y65025D01*
X-528758Y62859D01*
X-531964Y59653D01*
X-531977Y59642D01*
X-531989Y59628D01*
X-532133Y59514D01*
X-532275Y59398D01*
X-532291Y59390D01*
X-532305Y59379D01*
X-532469Y59295D01*
X-532631Y59209D01*
X-532648Y59204D01*
X-532664Y59196D01*
X-532841Y59147D01*
X-533017Y59095D01*
X-533035Y59093D01*
X-533052Y59088D01*
X-533235Y59075D01*
X-533418Y59058D01*
X-533436Y59060D01*
X-533453Y59059D01*
X-533635Y59082D01*
X-533818Y59102D01*
X-533835Y59107D01*
X-533853Y59109D01*
X-534026Y59168D01*
X-534202Y59223D01*
X-534218Y59232D01*
X-534234Y59238D01*
X-534394Y59329D01*
X-534554Y59418D01*
X-534568Y59429D01*
X-534583Y59438D01*
X-534836Y59653D01*
X-538042Y62859D01*
X-539920Y63637D01*
X-543270Y65025D01*
X-548930Y65025D01*
X-553324Y63205D01*
X-553337Y63201D01*
X-553348Y63195D01*
X-553529Y63143D01*
X-553709Y63088D01*
X-553722Y63087D01*
X-553735Y63083D01*
X-553923Y63068D01*
X-554110Y63050D01*
X-554123Y63051D01*
X-554137Y63050D01*
X-554324Y63072D01*
X-554510Y63092D01*
X-554523Y63096D01*
X-554536Y63097D01*
X-554716Y63156D01*
X-554895Y63211D01*
X-554906Y63218D01*
X-554919Y63222D01*
X-555084Y63315D01*
X-555248Y63405D01*
X-555258Y63413D01*
X-555270Y63420D01*
X-555412Y63543D01*
X-555556Y63664D01*
X-555564Y63674D01*
X-555575Y63683D01*
X-555690Y63832D01*
X-555807Y63979D01*
X-555813Y63991D01*
X-555821Y64001D01*
X-555905Y64170D01*
X-555991Y64337D01*
X-555995Y64350D01*
X-556001Y64362D01*
X-556050Y64545D01*
X-556101Y64724D01*
X-556102Y64737D01*
X-556105Y64751D01*
X-556132Y65081D01*
X-556132Y401605D01*
X-556130Y401632D01*
X-556132Y401659D01*
X-556110Y401833D01*
X-556092Y402006D01*
X-556085Y402032D01*
X-556081Y402058D01*
X-556026Y402224D01*
X-555974Y402391D01*
X-555961Y402415D01*
X-555953Y402440D01*
X-555866Y402592D01*
X-555782Y402745D01*
X-555765Y402765D01*
X-555752Y402789D01*
X-555537Y403042D01*
X-439709Y518870D01*
X-439692Y518884D01*
X-439677Y518901D01*
X-439536Y519012D01*
X-439398Y519125D01*
X-439378Y519135D01*
X-439360Y519149D01*
X-439200Y519230D01*
X-439042Y519314D01*
X-439021Y519320D01*
X-439001Y519330D01*
X-438828Y519377D01*
X-438656Y519428D01*
X-438634Y519430D01*
X-438612Y519436D01*
X-438434Y519449D01*
X-438255Y519465D01*
X-438233Y519462D01*
X-438211Y519464D01*
X-438033Y519441D01*
X-437855Y519421D01*
X-437833Y519415D01*
X-437811Y519412D01*
X-437495Y519310D01*
X-437169Y519175D01*
X-431510Y519175D01*
X-426282Y521341D01*
X-423076Y524547D01*
X-423062Y524558D01*
X-423051Y524572D01*
X-422907Y524685D01*
X-422765Y524802D01*
X-422749Y524810D01*
X-422735Y524821D01*
X-422571Y524905D01*
X-422409Y524991D01*
X-422392Y524996D01*
X-422376Y525004D01*
X-422199Y525053D01*
X-422023Y525105D01*
X-422005Y525107D01*
X-421988Y525112D01*
X-421805Y525125D01*
X-421622Y525142D01*
X-421604Y525140D01*
X-421587Y525141D01*
X-421405Y525118D01*
X-421222Y525098D01*
X-421205Y525093D01*
X-421187Y525091D01*
X-421013Y525032D01*
X-420838Y524977D01*
X-420822Y524968D01*
X-420806Y524962D01*
X-420646Y524871D01*
X-420486Y524782D01*
X-420472Y524771D01*
X-420457Y524762D01*
X-420204Y524547D01*
X-416998Y521341D01*
X-414611Y520352D01*
X-411770Y519175D01*
X-406110Y519175D01*
X-400882Y521341D01*
X-396881Y525342D01*
X-394715Y530570D01*
X-394715Y536229D01*
X-394850Y536555D01*
X-394857Y536577D01*
X-394867Y536597D01*
X-394915Y536769D01*
X-394967Y536941D01*
X-394969Y536963D01*
X-394975Y536985D01*
X-394988Y537164D01*
X-395005Y537342D01*
X-395003Y537364D01*
X-395004Y537386D01*
X-394982Y537564D01*
X-394963Y537742D01*
X-394957Y537763D01*
X-394954Y537786D01*
X-394897Y537955D01*
X-394843Y538127D01*
X-394833Y538146D01*
X-394826Y538167D01*
X-394736Y538322D01*
X-394650Y538480D01*
X-394636Y538497D01*
X-394625Y538516D01*
X-394410Y538769D01*
X-390723Y542456D01*
X-390702Y542473D01*
X-390685Y542494D01*
X-390547Y542601D01*
X-390411Y542711D01*
X-390388Y542724D01*
X-390366Y542740D01*
X-390210Y542818D01*
X-390056Y542900D01*
X-390030Y542908D01*
X-390006Y542920D01*
X-389837Y542965D01*
X-389670Y543015D01*
X-389643Y543017D01*
X-389617Y543024D01*
X-389286Y543051D01*
X-382739Y543051D01*
X-382726Y543050D01*
X-382712Y543051D01*
X-382526Y543030D01*
X-382338Y543011D01*
X-382326Y543007D01*
X-382312Y543006D01*
X-382134Y542949D01*
X-381954Y542893D01*
X-381942Y542887D01*
X-381929Y542883D01*
X-381765Y542791D01*
X-381599Y542701D01*
X-381589Y542693D01*
X-381578Y542686D01*
X-381434Y542564D01*
X-381290Y542444D01*
X-381282Y542433D01*
X-381272Y542425D01*
X-381155Y542276D01*
X-381038Y542130D01*
X-381032Y542118D01*
X-381023Y542108D01*
X-380939Y541939D01*
X-380852Y541773D01*
X-380849Y541760D01*
X-380843Y541748D01*
X-380793Y541566D01*
X-380741Y541386D01*
X-380740Y541372D01*
X-380736Y541359D01*
X-380723Y541171D01*
X-380708Y540984D01*
X-380710Y540971D01*
X-380709Y540958D01*
X-380733Y540770D01*
X-380755Y540585D01*
X-380759Y540572D01*
X-380761Y540559D01*
X-380862Y540243D01*
X-382525Y536230D01*
X-382525Y530570D01*
X-380359Y525342D01*
X-376358Y521341D01*
X-373971Y520352D01*
X-371130Y519175D01*
X-365470Y519175D01*
X-360242Y521341D01*
X-357036Y524547D01*
X-357022Y524558D01*
X-357011Y524572D01*
X-356867Y524685D01*
X-356725Y524802D01*
X-356709Y524810D01*
X-356695Y524821D01*
X-356531Y524905D01*
X-356369Y524991D01*
X-356352Y524996D01*
X-356336Y525004D01*
X-356159Y525053D01*
X-355983Y525105D01*
X-355965Y525107D01*
X-355948Y525112D01*
X-355765Y525125D01*
X-355582Y525142D01*
X-355564Y525140D01*
X-355547Y525141D01*
X-355365Y525118D01*
X-355182Y525098D01*
X-355165Y525093D01*
X-355147Y525091D01*
X-354973Y525032D01*
X-354798Y524977D01*
X-354782Y524968D01*
X-354766Y524962D01*
X-354606Y524871D01*
X-354446Y524782D01*
X-354432Y524771D01*
X-354417Y524762D01*
X-354164Y524547D01*
X-350958Y521341D01*
X-348571Y520352D01*
X-345714Y519169D01*
X-345578Y519154D01*
X-345389Y519135D01*
X-345380Y519133D01*
X-345371Y519132D01*
X-345187Y519073D01*
X-345004Y519017D01*
X-344996Y519013D01*
X-344988Y519010D01*
X-344819Y518917D01*
X-344650Y518825D01*
X-344643Y518820D01*
X-344635Y518815D01*
X-344488Y518691D01*
X-344341Y518568D01*
X-344335Y518561D01*
X-344328Y518555D01*
X-344209Y518403D01*
X-344088Y518254D01*
X-344084Y518246D01*
X-344079Y518239D01*
X-343991Y518066D01*
X-343903Y517897D01*
X-343900Y517888D01*
X-343896Y517880D01*
X-343844Y517693D01*
X-343791Y517510D01*
X-343791Y517501D01*
X-343788Y517492D01*
X-343774Y517299D01*
X-343759Y517108D01*
X-343760Y517100D01*
X-343759Y517091D01*
X-343783Y516898D01*
X-343805Y516709D01*
X-343808Y516700D01*
X-343809Y516691D01*
X-343871Y516509D01*
X-343930Y516326D01*
X-343935Y516318D01*
X-343938Y516310D01*
X-344034Y516143D01*
X-344128Y515975D01*
X-344134Y515968D01*
X-344138Y515961D01*
X-344353Y515708D01*
X-446588Y413473D01*
X-446609Y413456D01*
X-446626Y413435D01*
X-446764Y413328D01*
X-446900Y413218D01*
X-446923Y413205D01*
X-446945Y413189D01*
X-447101Y413111D01*
X-447255Y413029D01*
X-447281Y413021D01*
X-447305Y413009D01*
X-447474Y412964D01*
X-447641Y412914D01*
X-447668Y412912D01*
X-447694Y412905D01*
X-448025Y412878D01*
X-494094Y412878D01*
X-494116Y412880D01*
X-494138Y412878D01*
X-494316Y412900D01*
X-494494Y412918D01*
X-494516Y412924D01*
X-494538Y412927D01*
X-494708Y412983D01*
X-494879Y413036D01*
X-494899Y413046D01*
X-494920Y413053D01*
X-495076Y413142D01*
X-495233Y413228D01*
X-495250Y413242D01*
X-495270Y413253D01*
X-495406Y413371D01*
X-495543Y413485D01*
X-495556Y413503D01*
X-495573Y413517D01*
X-495683Y413660D01*
X-495795Y413799D01*
X-495805Y413819D01*
X-495819Y413837D01*
X-495970Y414132D01*
X-496070Y414372D01*
X-500028Y418330D01*
X-505201Y420473D01*
X-510799Y420473D01*
X-515972Y418330D01*
X-519930Y414372D01*
X-522073Y409199D01*
X-522073Y403601D01*
X-519930Y398428D01*
X-515972Y394470D01*
X-510799Y392327D01*
X-505201Y392327D01*
X-500028Y394470D01*
X-496070Y398428D01*
X-495970Y398668D01*
X-495960Y398688D01*
X-495953Y398709D01*
X-495865Y398865D01*
X-495780Y399023D01*
X-495766Y399040D01*
X-495755Y399060D01*
X-495638Y399195D01*
X-495524Y399334D01*
X-495506Y399348D01*
X-495492Y399365D01*
X-495350Y399474D01*
X-495211Y399587D01*
X-495191Y399598D01*
X-495174Y399611D01*
X-495013Y399691D01*
X-494855Y399774D01*
X-494833Y399781D01*
X-494813Y399791D01*
X-494640Y399837D01*
X-494468Y399887D01*
X-494446Y399889D01*
X-494424Y399895D01*
X-494094Y399922D01*
X-443211Y399922D01*
X-440831Y400908D01*
X-322869Y518870D01*
X-322852Y518884D01*
X-322837Y518901D01*
X-322696Y519012D01*
X-322558Y519125D01*
X-322538Y519135D01*
X-322520Y519149D01*
X-322360Y519230D01*
X-322202Y519314D01*
X-322181Y519320D01*
X-322161Y519330D01*
X-321988Y519377D01*
X-321816Y519428D01*
X-321794Y519430D01*
X-321772Y519436D01*
X-321594Y519449D01*
X-321415Y519465D01*
X-321393Y519462D01*
X-321371Y519464D01*
X-321193Y519441D01*
X-321015Y519421D01*
X-320993Y519415D01*
X-320971Y519412D01*
X-320655Y519310D01*
X-320314Y519169D01*
X-320178Y519154D01*
X-319989Y519135D01*
X-319980Y519133D01*
X-319971Y519132D01*
X-319787Y519073D01*
X-319604Y519017D01*
X-319596Y519013D01*
X-319588Y519010D01*
X-319419Y518917D01*
X-319250Y518825D01*
X-319243Y518820D01*
X-319235Y518815D01*
X-319088Y518691D01*
X-318941Y518568D01*
X-318935Y518561D01*
X-318928Y518555D01*
X-318809Y518403D01*
X-318688Y518254D01*
X-318684Y518246D01*
X-318679Y518239D01*
X-318591Y518066D01*
X-318503Y517897D01*
X-318500Y517888D01*
X-318496Y517880D01*
X-318444Y517693D01*
X-318391Y517510D01*
X-318391Y517501D01*
X-318388Y517492D01*
X-318374Y517299D01*
X-318359Y517108D01*
X-318360Y517100D01*
X-318359Y517091D01*
X-318383Y516898D01*
X-318405Y516709D01*
X-318408Y516700D01*
X-318409Y516691D01*
X-318471Y516509D01*
X-318530Y516326D01*
X-318535Y516318D01*
X-318538Y516310D01*
X-318634Y516143D01*
X-318728Y515975D01*
X-318734Y515968D01*
X-318738Y515961D01*
X-318953Y515708D01*
X-459288Y375373D01*
X-459309Y375356D01*
X-459326Y375335D01*
X-459464Y375228D01*
X-459600Y375118D01*
X-459623Y375105D01*
X-459645Y375089D01*
X-459801Y375011D01*
X-459955Y374929D01*
X-459981Y374921D01*
X-460005Y374909D01*
X-460174Y374864D01*
X-460341Y374814D01*
X-460368Y374812D01*
X-460394Y374805D01*
X-460725Y374778D01*
X-494094Y374778D01*
X-494116Y374780D01*
X-494138Y374778D01*
X-494316Y374800D01*
X-494494Y374818D01*
X-494516Y374824D01*
X-494538Y374827D01*
X-494708Y374883D01*
X-494879Y374936D01*
X-494899Y374946D01*
X-494920Y374953D01*
X-495076Y375042D01*
X-495233Y375128D01*
X-495250Y375142D01*
X-495270Y375153D01*
X-495406Y375271D01*
X-495543Y375385D01*
X-495556Y375403D01*
X-495573Y375417D01*
X-495683Y375560D01*
X-495795Y375699D01*
X-495805Y375719D01*
X-495819Y375737D01*
X-495970Y376032D01*
X-496070Y376272D01*
X-500028Y380230D01*
X-505201Y382373D01*
X-510799Y382373D01*
X-515972Y380230D01*
X-519930Y376272D01*
X-522073Y371099D01*
X-522073Y365501D01*
X-519930Y360328D01*
X-515972Y356370D01*
X-510799Y354227D01*
X-505201Y354227D01*
X-500028Y356370D01*
X-496070Y360328D01*
X-495970Y360568D01*
X-495960Y360588D01*
X-495953Y360609D01*
X-495865Y360765D01*
X-495780Y360923D01*
X-495766Y360940D01*
X-495755Y360960D01*
X-495638Y361095D01*
X-495524Y361234D01*
X-495506Y361248D01*
X-495492Y361265D01*
X-495350Y361374D01*
X-495211Y361487D01*
X-495191Y361498D01*
X-495174Y361511D01*
X-495013Y361591D01*
X-494855Y361674D01*
X-494833Y361681D01*
X-494813Y361691D01*
X-494640Y361737D01*
X-494468Y361787D01*
X-494446Y361789D01*
X-494424Y361795D01*
X-494094Y361822D01*
X-455911Y361822D01*
X-453531Y362808D01*
X-297469Y518870D01*
X-297452Y518884D01*
X-297437Y518901D01*
X-297296Y519012D01*
X-297158Y519125D01*
X-297138Y519135D01*
X-297120Y519149D01*
X-296960Y519230D01*
X-296802Y519314D01*
X-296781Y519320D01*
X-296761Y519330D01*
X-296588Y519377D01*
X-296416Y519428D01*
X-296394Y519430D01*
X-296372Y519436D01*
X-296194Y519449D01*
X-296015Y519465D01*
X-295993Y519462D01*
X-295971Y519464D01*
X-295793Y519441D01*
X-295615Y519421D01*
X-295593Y519415D01*
X-295571Y519412D01*
X-295255Y519310D01*
X-294929Y519175D01*
X-289270Y519175D01*
X-284042Y521341D01*
X-280836Y524547D01*
X-280823Y524558D01*
X-280811Y524572D01*
X-280667Y524686D01*
X-280525Y524802D01*
X-280509Y524810D01*
X-280495Y524821D01*
X-280331Y524905D01*
X-280169Y524991D01*
X-280152Y524996D01*
X-280136Y525004D01*
X-279959Y525053D01*
X-279783Y525105D01*
X-279765Y525107D01*
X-279748Y525112D01*
X-279565Y525125D01*
X-279382Y525142D01*
X-279364Y525140D01*
X-279347Y525141D01*
X-279165Y525118D01*
X-278982Y525098D01*
X-278965Y525093D01*
X-278947Y525091D01*
X-278774Y525032D01*
X-278598Y524977D01*
X-278582Y524968D01*
X-278566Y524962D01*
X-278406Y524871D01*
X-278246Y524782D01*
X-278232Y524771D01*
X-278217Y524762D01*
X-277964Y524547D01*
X-274758Y521341D01*
X-272371Y520352D01*
X-269530Y519175D01*
X-263871Y519175D01*
X-263545Y519310D01*
X-263523Y519317D01*
X-263503Y519327D01*
X-263331Y519375D01*
X-263159Y519427D01*
X-263137Y519429D01*
X-263115Y519435D01*
X-262936Y519448D01*
X-262758Y519465D01*
X-262736Y519463D01*
X-262714Y519464D01*
X-262536Y519442D01*
X-262358Y519423D01*
X-262337Y519417D01*
X-262314Y519414D01*
X-262145Y519357D01*
X-261973Y519303D01*
X-261954Y519293D01*
X-261933Y519286D01*
X-261778Y519196D01*
X-261620Y519110D01*
X-261603Y519096D01*
X-261584Y519085D01*
X-261331Y518870D01*
X-245477Y503016D01*
X-243097Y502030D01*
X-168625Y502030D01*
X-168598Y502028D01*
X-168571Y502030D01*
X-168397Y502008D01*
X-168224Y501990D01*
X-168198Y501983D01*
X-168172Y501979D01*
X-168006Y501924D01*
X-167839Y501872D01*
X-167815Y501859D01*
X-167790Y501851D01*
X-167638Y501764D01*
X-167485Y501680D01*
X-167465Y501663D01*
X-167441Y501650D01*
X-167188Y501435D01*
X-128830Y463077D01*
X-128816Y463060D01*
X-128799Y463045D01*
X-128688Y462904D01*
X-128575Y462766D01*
X-128565Y462746D01*
X-128551Y462728D01*
X-128470Y462568D01*
X-128386Y462410D01*
X-128380Y462389D01*
X-128370Y462369D01*
X-128323Y462196D01*
X-128272Y462024D01*
X-128270Y462002D01*
X-128264Y461980D01*
X-128251Y461802D01*
X-128235Y461623D01*
X-128238Y461601D01*
X-128236Y461579D01*
X-128259Y461401D01*
X-128279Y461223D01*
X-128285Y461201D01*
X-128288Y461179D01*
X-128390Y460863D01*
X-128525Y460537D01*
X-128525Y454878D01*
X-126359Y449650D01*
X-122299Y445590D01*
X-122227Y445551D01*
X-122220Y445546D01*
X-122212Y445541D01*
X-122063Y445416D01*
X-121916Y445295D01*
X-121911Y445288D01*
X-121904Y445282D01*
X-121784Y445131D01*
X-121663Y444982D01*
X-121658Y444974D01*
X-121653Y444967D01*
X-121565Y444796D01*
X-121476Y444626D01*
X-121473Y444617D01*
X-121469Y444609D01*
X-121417Y444425D01*
X-121363Y444239D01*
X-121362Y444230D01*
X-121359Y444222D01*
X-121344Y444030D01*
X-121328Y443838D01*
X-121329Y443829D01*
X-121328Y443820D01*
X-121352Y443629D01*
X-121373Y443438D01*
X-121376Y443430D01*
X-121377Y443421D01*
X-121437Y443238D01*
X-121496Y443055D01*
X-121501Y443047D01*
X-121504Y443038D01*
X-121599Y442872D01*
X-121693Y442703D01*
X-121699Y442697D01*
X-121703Y442689D01*
X-121829Y442544D01*
X-121955Y442398D01*
X-121962Y442392D01*
X-121968Y442385D01*
X-122119Y442269D01*
X-122272Y442149D01*
X-122280Y442145D01*
X-122287Y442140D01*
X-122312Y442127D01*
X-126359Y438080D01*
X-126494Y437754D01*
X-126505Y437734D01*
X-126512Y437713D01*
X-126600Y437557D01*
X-126684Y437399D01*
X-126699Y437382D01*
X-126710Y437362D01*
X-126826Y437227D01*
X-126941Y437088D01*
X-126958Y437074D01*
X-126973Y437057D01*
X-127114Y436948D01*
X-127253Y436835D01*
X-127273Y436824D01*
X-127291Y436811D01*
X-127451Y436731D01*
X-127610Y436648D01*
X-127631Y436641D01*
X-127651Y436631D01*
X-127825Y436585D01*
X-127996Y436535D01*
X-128019Y436533D01*
X-128040Y436527D01*
X-128371Y436500D01*
X-149879Y436500D01*
X-152259Y435514D01*
X-213772Y374001D01*
X-214758Y371621D01*
X-214758Y87345D01*
X-214760Y87318D01*
X-214758Y87291D01*
X-214780Y87117D01*
X-214798Y86944D01*
X-214805Y86918D01*
X-214809Y86892D01*
X-214864Y86726D01*
X-214916Y86559D01*
X-214929Y86535D01*
X-214937Y86510D01*
X-215024Y86358D01*
X-215108Y86205D01*
X-215125Y86185D01*
X-215138Y86161D01*
X-215353Y85908D01*
X-235931Y65330D01*
X-235948Y65316D01*
X-235963Y65299D01*
X-236104Y65188D01*
X-236242Y65075D01*
X-236262Y65065D01*
X-236280Y65051D01*
X-236440Y64970D01*
X-236598Y64886D01*
X-236619Y64880D01*
X-236639Y64870D01*
X-236813Y64823D01*
X-236984Y64772D01*
X-237006Y64770D01*
X-237028Y64764D01*
X-237207Y64751D01*
X-237385Y64735D01*
X-237407Y64738D01*
X-237429Y64736D01*
X-237607Y64759D01*
X-237785Y64779D01*
X-237806Y64785D01*
X-237829Y64788D01*
X-238144Y64890D01*
X-238470Y65025D01*
X-244130Y65025D01*
X-249358Y62859D01*
X-252564Y59653D01*
X-252578Y59642D01*
X-252589Y59628D01*
X-252733Y59515D01*
X-252875Y59398D01*
X-252891Y59390D01*
X-252905Y59379D01*
X-253069Y59295D01*
X-253231Y59209D01*
X-253248Y59204D01*
X-253264Y59196D01*
X-253441Y59147D01*
X-253617Y59095D01*
X-253635Y59093D01*
X-253652Y59088D01*
X-253835Y59075D01*
X-254018Y59058D01*
X-254036Y59060D01*
X-254053Y59059D01*
X-254235Y59082D01*
X-254418Y59102D01*
X-254435Y59107D01*
X-254453Y59109D01*
X-254627Y59168D01*
X-254802Y59223D01*
X-254818Y59232D01*
X-254834Y59238D01*
X-254994Y59329D01*
X-255154Y59418D01*
X-255168Y59429D01*
X-255183Y59438D01*
X-255436Y59653D01*
X-258642Y62859D01*
X-258968Y62994D01*
X-258988Y63005D01*
X-259009Y63012D01*
X-259165Y63100D01*
X-259323Y63184D01*
X-259340Y63199D01*
X-259360Y63210D01*
X-259495Y63326D01*
X-259634Y63441D01*
X-259648Y63458D01*
X-259665Y63473D01*
X-259774Y63614D01*
X-259887Y63753D01*
X-259898Y63773D01*
X-259911Y63791D01*
X-259991Y63951D01*
X-260074Y64110D01*
X-260081Y64131D01*
X-260091Y64151D01*
X-260137Y64325D01*
X-260187Y64496D01*
X-260189Y64519D01*
X-260195Y64540D01*
X-260222Y64871D01*
X-260222Y278194D01*
X-260220Y278216D01*
X-260222Y278238D01*
X-260200Y278416D01*
X-260182Y278594D01*
X-260176Y278616D01*
X-260173Y278638D01*
X-260117Y278808D01*
X-260064Y278979D01*
X-260054Y278999D01*
X-260047Y279020D01*
X-259958Y279176D01*
X-259872Y279333D01*
X-259858Y279350D01*
X-259847Y279370D01*
X-259729Y279506D01*
X-259615Y279643D01*
X-259597Y279656D01*
X-259583Y279673D01*
X-259440Y279783D01*
X-259301Y279895D01*
X-259281Y279905D01*
X-259263Y279919D01*
X-258968Y280070D01*
X-258728Y280170D01*
X-254770Y284128D01*
X-252627Y289301D01*
X-252627Y294899D01*
X-254770Y300072D01*
X-258728Y304030D01*
X-263901Y306173D01*
X-269499Y306173D01*
X-274672Y304030D01*
X-278630Y300072D01*
X-280773Y294899D01*
X-280773Y289301D01*
X-278630Y284128D01*
X-274672Y280170D01*
X-274432Y280070D01*
X-274412Y280060D01*
X-274391Y280053D01*
X-274235Y279965D01*
X-274077Y279880D01*
X-274060Y279866D01*
X-274040Y279855D01*
X-273905Y279738D01*
X-273766Y279624D01*
X-273752Y279606D01*
X-273735Y279592D01*
X-273626Y279450D01*
X-273513Y279311D01*
X-273502Y279291D01*
X-273489Y279274D01*
X-273409Y279113D01*
X-273326Y278955D01*
X-273319Y278933D01*
X-273309Y278913D01*
X-273263Y278740D01*
X-273213Y278568D01*
X-273211Y278546D01*
X-273205Y278524D01*
X-273178Y278194D01*
X-273178Y64871D01*
X-273180Y64849D01*
X-273178Y64826D01*
X-273200Y64649D01*
X-273218Y64470D01*
X-273224Y64449D01*
X-273227Y64427D01*
X-273283Y64257D01*
X-273336Y64085D01*
X-273346Y64066D01*
X-273353Y64044D01*
X-273442Y63889D01*
X-273528Y63731D01*
X-273542Y63714D01*
X-273553Y63695D01*
X-273671Y63559D01*
X-273785Y63422D01*
X-273803Y63408D01*
X-273817Y63391D01*
X-273960Y63282D01*
X-274099Y63170D01*
X-274119Y63159D01*
X-274137Y63146D01*
X-274432Y62994D01*
X-274758Y62859D01*
X-277964Y59653D01*
X-277978Y59642D01*
X-277989Y59628D01*
X-278133Y59515D01*
X-278275Y59398D01*
X-278291Y59390D01*
X-278305Y59379D01*
X-278469Y59295D01*
X-278631Y59209D01*
X-278648Y59204D01*
X-278664Y59196D01*
X-278841Y59147D01*
X-279017Y59095D01*
X-279035Y59093D01*
X-279052Y59088D01*
X-279235Y59075D01*
X-279418Y59058D01*
X-279436Y59060D01*
X-279453Y59059D01*
X-279635Y59082D01*
X-279818Y59102D01*
X-279835Y59107D01*
X-279853Y59109D01*
X-280027Y59168D01*
X-280202Y59223D01*
X-280218Y59232D01*
X-280234Y59238D01*
X-280394Y59329D01*
X-280554Y59418D01*
X-280568Y59429D01*
X-280583Y59438D01*
X-280836Y59653D01*
X-284042Y62859D01*
X-284368Y62994D01*
X-284388Y63005D01*
X-284409Y63012D01*
X-284565Y63100D01*
X-284723Y63184D01*
X-284740Y63199D01*
X-284760Y63210D01*
X-284895Y63326D01*
X-285034Y63441D01*
X-285048Y63458D01*
X-285065Y63473D01*
X-285174Y63614D01*
X-285287Y63753D01*
X-285298Y63773D01*
X-285311Y63791D01*
X-285391Y63951D01*
X-285474Y64110D01*
X-285481Y64131D01*
X-285491Y64151D01*
X-285537Y64325D01*
X-285587Y64496D01*
X-285589Y64519D01*
X-285595Y64540D01*
X-285622Y64871D01*
X-285622Y332804D01*
X-285620Y332826D01*
X-285622Y332848D01*
X-285600Y333026D01*
X-285582Y333204D01*
X-285576Y333226D01*
X-285573Y333248D01*
X-285517Y333418D01*
X-285464Y333589D01*
X-285454Y333609D01*
X-285447Y333630D01*
X-285358Y333786D01*
X-285272Y333943D01*
X-285258Y333960D01*
X-285247Y333980D01*
X-285129Y334116D01*
X-285015Y334253D01*
X-284997Y334266D01*
X-284983Y334283D01*
X-284840Y334393D01*
X-284701Y334505D01*
X-284681Y334515D01*
X-284663Y334529D01*
X-284368Y334680D01*
X-284128Y334780D01*
X-280170Y338738D01*
X-278027Y343911D01*
X-278027Y349509D01*
X-280170Y354682D01*
X-284128Y358640D01*
X-289301Y360783D01*
X-294899Y360783D01*
X-300072Y358640D01*
X-304030Y354682D01*
X-306173Y349509D01*
X-306173Y343911D01*
X-304030Y338738D01*
X-300072Y334780D01*
X-299832Y334680D01*
X-299812Y334670D01*
X-299791Y334663D01*
X-299635Y334575D01*
X-299477Y334490D01*
X-299460Y334476D01*
X-299440Y334465D01*
X-299305Y334348D01*
X-299166Y334234D01*
X-299152Y334216D01*
X-299135Y334202D01*
X-299026Y334060D01*
X-298913Y333921D01*
X-298902Y333901D01*
X-298889Y333884D01*
X-298809Y333723D01*
X-298726Y333565D01*
X-298719Y333543D01*
X-298709Y333523D01*
X-298663Y333350D01*
X-298613Y333178D01*
X-298611Y333156D01*
X-298605Y333134D01*
X-298578Y332804D01*
X-298578Y64871D01*
X-298580Y64849D01*
X-298578Y64826D01*
X-298600Y64649D01*
X-298618Y64470D01*
X-298624Y64449D01*
X-298627Y64427D01*
X-298683Y64257D01*
X-298736Y64085D01*
X-298746Y64066D01*
X-298753Y64044D01*
X-298842Y63889D01*
X-298928Y63731D01*
X-298942Y63714D01*
X-298953Y63695D01*
X-299071Y63559D01*
X-299185Y63422D01*
X-299203Y63408D01*
X-299217Y63391D01*
X-299360Y63282D01*
X-299499Y63170D01*
X-299519Y63159D01*
X-299537Y63146D01*
X-299832Y62994D01*
X-300158Y62859D01*
X-303364Y59653D01*
X-303378Y59642D01*
X-303389Y59628D01*
X-303533Y59515D01*
X-303675Y59398D01*
X-303691Y59390D01*
X-303705Y59379D01*
X-303869Y59295D01*
X-304031Y59209D01*
X-304048Y59204D01*
X-304064Y59196D01*
X-304241Y59147D01*
X-304417Y59095D01*
X-304435Y59093D01*
X-304452Y59088D01*
X-304635Y59075D01*
X-304818Y59058D01*
X-304836Y59060D01*
X-304853Y59059D01*
X-305035Y59082D01*
X-305218Y59102D01*
X-305235Y59107D01*
X-305253Y59109D01*
X-305427Y59168D01*
X-305602Y59223D01*
X-305618Y59232D01*
X-305634Y59238D01*
X-305794Y59329D01*
X-305954Y59418D01*
X-305968Y59429D01*
X-305983Y59438D01*
X-306236Y59653D01*
X-309442Y62859D01*
X-309768Y62994D01*
X-309788Y63005D01*
X-309809Y63012D01*
X-309965Y63100D01*
X-310123Y63184D01*
X-310140Y63199D01*
X-310160Y63210D01*
X-310295Y63326D01*
X-310434Y63441D01*
X-310448Y63458D01*
X-310465Y63473D01*
X-310574Y63614D01*
X-310687Y63753D01*
X-310698Y63773D01*
X-310711Y63791D01*
X-310791Y63951D01*
X-310874Y64110D01*
X-310881Y64131D01*
X-310891Y64151D01*
X-310937Y64325D01*
X-310987Y64496D01*
X-310989Y64519D01*
X-310995Y64540D01*
X-311022Y64871D01*
X-311022Y388684D01*
X-311020Y388706D01*
X-311022Y388728D01*
X-311000Y388906D01*
X-310982Y389084D01*
X-310976Y389106D01*
X-310973Y389128D01*
X-310917Y389298D01*
X-310864Y389469D01*
X-310854Y389489D01*
X-310847Y389510D01*
X-310758Y389666D01*
X-310672Y389823D01*
X-310658Y389840D01*
X-310647Y389860D01*
X-310529Y389996D01*
X-310415Y390133D01*
X-310397Y390146D01*
X-310383Y390163D01*
X-310240Y390273D01*
X-310101Y390385D01*
X-310081Y390395D01*
X-310063Y390409D01*
X-309768Y390560D01*
X-309528Y390660D01*
X-305570Y394618D01*
X-303427Y399791D01*
X-303427Y405389D01*
X-305570Y410562D01*
X-309528Y414520D01*
X-314701Y416663D01*
X-320299Y416663D01*
X-325472Y414520D01*
X-329430Y410562D01*
X-331573Y405389D01*
X-331573Y399791D01*
X-329430Y394618D01*
X-325472Y390660D01*
X-325232Y390560D01*
X-325212Y390550D01*
X-325191Y390543D01*
X-325035Y390455D01*
X-324877Y390370D01*
X-324860Y390356D01*
X-324840Y390345D01*
X-324705Y390228D01*
X-324566Y390114D01*
X-324552Y390096D01*
X-324535Y390082D01*
X-324426Y389940D01*
X-324313Y389801D01*
X-324302Y389781D01*
X-324289Y389764D01*
X-324209Y389603D01*
X-324126Y389445D01*
X-324119Y389423D01*
X-324109Y389403D01*
X-324063Y389230D01*
X-324013Y389058D01*
X-324011Y389036D01*
X-324005Y389014D01*
X-323978Y388684D01*
X-323978Y64871D01*
X-323980Y64849D01*
X-323978Y64826D01*
X-324000Y64649D01*
X-324018Y64470D01*
X-324024Y64449D01*
X-324027Y64427D01*
X-324083Y64257D01*
X-324136Y64085D01*
X-324146Y64066D01*
X-324153Y64044D01*
X-324242Y63889D01*
X-324328Y63731D01*
X-324342Y63714D01*
X-324353Y63695D01*
X-324471Y63559D01*
X-324585Y63422D01*
X-324603Y63408D01*
X-324617Y63391D01*
X-324760Y63282D01*
X-324899Y63170D01*
X-324919Y63159D01*
X-324937Y63146D01*
X-325232Y62994D01*
X-325558Y62859D01*
X-329559Y58858D01*
X-331725Y53630D01*
X-331725Y47971D01*
X-329905Y43576D01*
X-329901Y43563D01*
X-329895Y43552D01*
X-329843Y43372D01*
X-329788Y43191D01*
X-329787Y43178D01*
X-329783Y43165D01*
X-329768Y42977D01*
X-329750Y42790D01*
X-329751Y42777D01*
X-329750Y42763D01*
X-329772Y42576D01*
X-329792Y42390D01*
X-329796Y42377D01*
X-329797Y42364D01*
X-329856Y42184D01*
X-329911Y42005D01*
X-329918Y41994D01*
X-329922Y41981D01*
X-330015Y41816D01*
X-330105Y41652D01*
X-330113Y41642D01*
X-330120Y41630D01*
X-330243Y41488D01*
X-330364Y41344D01*
X-330374Y41336D01*
X-330383Y41325D01*
X-330532Y41210D01*
X-330679Y41093D01*
X-330691Y41087D01*
X-330701Y41079D01*
X-330870Y40995D01*
X-331037Y40909D01*
X-331050Y40905D01*
X-331062Y40899D01*
X-331244Y40850D01*
X-331424Y40799D01*
X-331437Y40798D01*
X-331450Y40795D01*
X-331781Y40768D01*
X-354019Y40768D01*
X-354032Y40769D01*
G37*
%LPC*%
G36*
X-657999Y432427D02*
X-657999Y432427D01*
X-653561Y434265D01*
X-650165Y437661D01*
X-648327Y442099D01*
X-648327Y461901D01*
X-650165Y466339D01*
X-653327Y469501D01*
X-653344Y469521D01*
X-653365Y469539D01*
X-653472Y469677D01*
X-653582Y469812D01*
X-653595Y469836D01*
X-653611Y469857D01*
X-653689Y470014D01*
X-653771Y470168D01*
X-653779Y470194D01*
X-653791Y470218D01*
X-653836Y470387D01*
X-653886Y470554D01*
X-653888Y470580D01*
X-653895Y470606D01*
X-653922Y470937D01*
X-653922Y471189D01*
X-654908Y473569D01*
X-717227Y535888D01*
X-717244Y535909D01*
X-717265Y535926D01*
X-717372Y536064D01*
X-717482Y536200D01*
X-717495Y536223D01*
X-717511Y536245D01*
X-717589Y536401D01*
X-717671Y536555D01*
X-717679Y536581D01*
X-717691Y536605D01*
X-717736Y536774D01*
X-717786Y536941D01*
X-717788Y536968D01*
X-717795Y536994D01*
X-717822Y537325D01*
X-717822Y587332D01*
X-717820Y587354D01*
X-717822Y587376D01*
X-717800Y587554D01*
X-717782Y587732D01*
X-717776Y587754D01*
X-717773Y587776D01*
X-717717Y587946D01*
X-717664Y588117D01*
X-717654Y588137D01*
X-717647Y588158D01*
X-717558Y588314D01*
X-717472Y588471D01*
X-717458Y588488D01*
X-717447Y588508D01*
X-717329Y588643D01*
X-717215Y588781D01*
X-717197Y588795D01*
X-717183Y588811D01*
X-717040Y588921D01*
X-716901Y589033D01*
X-716881Y589043D01*
X-716863Y589057D01*
X-716652Y589165D01*
X-712833Y592985D01*
X-710774Y597956D01*
X-710774Y621244D01*
X-712833Y626215D01*
X-716638Y630021D01*
X-717447Y630356D01*
X-721609Y632080D01*
X-726991Y632080D01*
X-731962Y630021D01*
X-735767Y626215D01*
X-737826Y621244D01*
X-737826Y597956D01*
X-735767Y592985D01*
X-731951Y589168D01*
X-731835Y589103D01*
X-731677Y589018D01*
X-731660Y589004D01*
X-731640Y588993D01*
X-731505Y588876D01*
X-731366Y588762D01*
X-731352Y588744D01*
X-731335Y588730D01*
X-731226Y588589D01*
X-731113Y588449D01*
X-731102Y588429D01*
X-731089Y588412D01*
X-731009Y588251D01*
X-730926Y588093D01*
X-730919Y588071D01*
X-730909Y588051D01*
X-730863Y587877D01*
X-730813Y587706D01*
X-730811Y587684D01*
X-730805Y587662D01*
X-730778Y587332D01*
X-730778Y541642D01*
X-730779Y541634D01*
X-730778Y541625D01*
X-730799Y541431D01*
X-730818Y541242D01*
X-730820Y541233D01*
X-730821Y541224D01*
X-730880Y541040D01*
X-730936Y540857D01*
X-730940Y540849D01*
X-730943Y540841D01*
X-731036Y540672D01*
X-731128Y540503D01*
X-731133Y540496D01*
X-731138Y540488D01*
X-731262Y540341D01*
X-731385Y540194D01*
X-731392Y540188D01*
X-731398Y540181D01*
X-731550Y540062D01*
X-731699Y539941D01*
X-731707Y539937D01*
X-731714Y539932D01*
X-731887Y539844D01*
X-732056Y539756D01*
X-732065Y539753D01*
X-732073Y539749D01*
X-732259Y539697D01*
X-732443Y539644D01*
X-732452Y539644D01*
X-732461Y539641D01*
X-732654Y539627D01*
X-732845Y539612D01*
X-732853Y539613D01*
X-732862Y539612D01*
X-733055Y539636D01*
X-733244Y539658D01*
X-733253Y539661D01*
X-733262Y539662D01*
X-733444Y539724D01*
X-733627Y539783D01*
X-733635Y539788D01*
X-733643Y539791D01*
X-733810Y539887D01*
X-733978Y539981D01*
X-733985Y539987D01*
X-733992Y539991D01*
X-734245Y540206D01*
X-767627Y573588D01*
X-767644Y573609D01*
X-767665Y573626D01*
X-767772Y573764D01*
X-767882Y573900D01*
X-767895Y573923D01*
X-767911Y573945D01*
X-767989Y574101D01*
X-768071Y574255D01*
X-768079Y574281D01*
X-768091Y574305D01*
X-768136Y574474D01*
X-768186Y574641D01*
X-768188Y574668D01*
X-768195Y574694D01*
X-768222Y575025D01*
X-768222Y587166D01*
X-768220Y587188D01*
X-768222Y587211D01*
X-768200Y587388D01*
X-768182Y587567D01*
X-768176Y587588D01*
X-768173Y587610D01*
X-768117Y587780D01*
X-768064Y587952D01*
X-768054Y587971D01*
X-768047Y587992D01*
X-767958Y588148D01*
X-767872Y588306D01*
X-767858Y588323D01*
X-767847Y588342D01*
X-767729Y588477D01*
X-767615Y588615D01*
X-767597Y588629D01*
X-767583Y588646D01*
X-767440Y588755D01*
X-767301Y588867D01*
X-767281Y588877D01*
X-767263Y588891D01*
X-766968Y589043D01*
X-766638Y589180D01*
X-762833Y592985D01*
X-760774Y597956D01*
X-760774Y621244D01*
X-762833Y626215D01*
X-766638Y630021D01*
X-767447Y630356D01*
X-771609Y632080D01*
X-776991Y632080D01*
X-781962Y630021D01*
X-785767Y626215D01*
X-787826Y621244D01*
X-787826Y597956D01*
X-785767Y592985D01*
X-781773Y588990D01*
X-781756Y588969D01*
X-781735Y588952D01*
X-781628Y588814D01*
X-781518Y588679D01*
X-781505Y588655D01*
X-781489Y588634D01*
X-781411Y588477D01*
X-781329Y588323D01*
X-781321Y588297D01*
X-781309Y588273D01*
X-781264Y588104D01*
X-781214Y587937D01*
X-781212Y587910D01*
X-781205Y587885D01*
X-781178Y587554D01*
X-781178Y570211D01*
X-780192Y567831D01*
X-692873Y480512D01*
X-692856Y480491D01*
X-692835Y480474D01*
X-692728Y480336D01*
X-692618Y480200D01*
X-692605Y480177D01*
X-692589Y480155D01*
X-692511Y479999D01*
X-692429Y479845D01*
X-692421Y479819D01*
X-692409Y479795D01*
X-692364Y479626D01*
X-692314Y479459D01*
X-692312Y479432D01*
X-692305Y479406D01*
X-692278Y479075D01*
X-692278Y470937D01*
X-692280Y470910D01*
X-692278Y470884D01*
X-692300Y470710D01*
X-692318Y470536D01*
X-692325Y470511D01*
X-692329Y470484D01*
X-692385Y470318D01*
X-692436Y470152D01*
X-692449Y470128D01*
X-692457Y470103D01*
X-692544Y469951D01*
X-692628Y469797D01*
X-692645Y469777D01*
X-692658Y469754D01*
X-692873Y469501D01*
X-696035Y466339D01*
X-697873Y461901D01*
X-697873Y442099D01*
X-696035Y437661D01*
X-692639Y434265D01*
X-688201Y432427D01*
X-683399Y432427D01*
X-678961Y434265D01*
X-675565Y437661D01*
X-674977Y439082D01*
X-674972Y439090D01*
X-674970Y439099D01*
X-674878Y439267D01*
X-674786Y439437D01*
X-674781Y439444D01*
X-674776Y439452D01*
X-674653Y439599D01*
X-674530Y439748D01*
X-674523Y439753D01*
X-674517Y439760D01*
X-674368Y439879D01*
X-674217Y440001D01*
X-674209Y440006D01*
X-674203Y440011D01*
X-674033Y440098D01*
X-673861Y440188D01*
X-673852Y440191D01*
X-673844Y440195D01*
X-673661Y440247D01*
X-673475Y440301D01*
X-673465Y440302D01*
X-673457Y440305D01*
X-673266Y440319D01*
X-673073Y440336D01*
X-673064Y440335D01*
X-673056Y440336D01*
X-672866Y440313D01*
X-672673Y440291D01*
X-672665Y440288D01*
X-672656Y440287D01*
X-672475Y440227D01*
X-672290Y440168D01*
X-672282Y440163D01*
X-672274Y440161D01*
X-672107Y440066D01*
X-671939Y439971D01*
X-671932Y439966D01*
X-671924Y439961D01*
X-671779Y439835D01*
X-671633Y439710D01*
X-671627Y439703D01*
X-671620Y439697D01*
X-671503Y439544D01*
X-671384Y439393D01*
X-671380Y439385D01*
X-671375Y439378D01*
X-671223Y439082D01*
X-670635Y437661D01*
X-667239Y434265D01*
X-662801Y432427D01*
X-657999Y432427D01*
G37*
%LPD*%
%LPC*%
G36*
X-41968Y592858D02*
X-41968Y592858D01*
X-40232Y594246D01*
X-39159Y596194D01*
X-39068Y597011D01*
X-39046Y597116D01*
X-39034Y597223D01*
X-39004Y597312D01*
X-38985Y597405D01*
X-38942Y597503D01*
X-38909Y597605D01*
X-38862Y597688D01*
X-38825Y597775D01*
X-38764Y597863D01*
X-38711Y597956D01*
X-38649Y598027D01*
X-38595Y598105D01*
X-38518Y598180D01*
X-38448Y598261D01*
X-38373Y598319D01*
X-38305Y598384D01*
X-38214Y598442D01*
X-38130Y598507D01*
X-38045Y598550D01*
X-37965Y598600D01*
X-37865Y598639D01*
X-37769Y598687D01*
X-37678Y598711D01*
X-37589Y598745D01*
X-37484Y598763D01*
X-37380Y598791D01*
X-37267Y598801D01*
X-37192Y598813D01*
X-37132Y598812D01*
X-37050Y598818D01*
X-34036Y598818D01*
X-34018Y598817D01*
X-34000Y598818D01*
X-33818Y598797D01*
X-33635Y598778D01*
X-33618Y598773D01*
X-33601Y598771D01*
X-33426Y598714D01*
X-33250Y598660D01*
X-33235Y598652D01*
X-33218Y598646D01*
X-33058Y598556D01*
X-32896Y598469D01*
X-32883Y598457D01*
X-32867Y598448D01*
X-32728Y598328D01*
X-32587Y598211D01*
X-32576Y598197D01*
X-32562Y598185D01*
X-32450Y598040D01*
X-32335Y597897D01*
X-32327Y597881D01*
X-32316Y597867D01*
X-32234Y597702D01*
X-32149Y597540D01*
X-32144Y597523D01*
X-32136Y597507D01*
X-32089Y597329D01*
X-32038Y597153D01*
X-32036Y597135D01*
X-32032Y597118D01*
X-32006Y596809D01*
X-31154Y594750D01*
X-29582Y593178D01*
X-27528Y592327D01*
X-25304Y592327D01*
X-23250Y593178D01*
X-21678Y594750D01*
X-20827Y596804D01*
X-20827Y612010D01*
X-21593Y613858D01*
X-21601Y613884D01*
X-21613Y613908D01*
X-21659Y614076D01*
X-21709Y614244D01*
X-21712Y614270D01*
X-21719Y614296D01*
X-21731Y614471D01*
X-21748Y614645D01*
X-21745Y614671D01*
X-21747Y614698D01*
X-21724Y614872D01*
X-21706Y615045D01*
X-21698Y615071D01*
X-21694Y615097D01*
X-21593Y615413D01*
X-20827Y617261D01*
X-20827Y620783D01*
X-21678Y622837D01*
X-23023Y624182D01*
X-23061Y624229D01*
X-23105Y624269D01*
X-23188Y624384D01*
X-23278Y624494D01*
X-23306Y624547D01*
X-23342Y624595D01*
X-23400Y624724D01*
X-23467Y624849D01*
X-23484Y624907D01*
X-23509Y624962D01*
X-23541Y625099D01*
X-23582Y625235D01*
X-23587Y625295D01*
X-23601Y625354D01*
X-23605Y625495D01*
X-23618Y625636D01*
X-23611Y625696D01*
X-23613Y625756D01*
X-23590Y625895D01*
X-23575Y626036D01*
X-23556Y626094D01*
X-23546Y626153D01*
X-23496Y626285D01*
X-23453Y626420D01*
X-23424Y626473D01*
X-23402Y626529D01*
X-23327Y626649D01*
X-23258Y626773D01*
X-23219Y626819D01*
X-23187Y626869D01*
X-23051Y627017D01*
X-22998Y627080D01*
X-22981Y627093D01*
X-22962Y627113D01*
X-22579Y627466D01*
X-20827Y631458D01*
X-20827Y635817D01*
X-22579Y639809D01*
X-25787Y642761D01*
X-27404Y643315D01*
X-27483Y643351D01*
X-27635Y643411D01*
X-29756Y644445D01*
X-35270Y645717D01*
X-40930Y645717D01*
X-46444Y644445D01*
X-48565Y643411D01*
X-48647Y643381D01*
X-48796Y643315D01*
X-50413Y642761D01*
X-53621Y639809D01*
X-55373Y635817D01*
X-55373Y631458D01*
X-53621Y627466D01*
X-50413Y624514D01*
X-48796Y623959D01*
X-48716Y623923D01*
X-48565Y623864D01*
X-46444Y622830D01*
X-40930Y621558D01*
X-35334Y621558D01*
X-35316Y621556D01*
X-35299Y621557D01*
X-35116Y621536D01*
X-34934Y621518D01*
X-34917Y621512D01*
X-34899Y621510D01*
X-34724Y621453D01*
X-34549Y621399D01*
X-34533Y621391D01*
X-34516Y621385D01*
X-34356Y621295D01*
X-34195Y621208D01*
X-34181Y621196D01*
X-34165Y621188D01*
X-34026Y621067D01*
X-33885Y620950D01*
X-33874Y620936D01*
X-33861Y620924D01*
X-33748Y620779D01*
X-33633Y620636D01*
X-33625Y620620D01*
X-33614Y620606D01*
X-33532Y620441D01*
X-33448Y620279D01*
X-33443Y620262D01*
X-33435Y620246D01*
X-33387Y620068D01*
X-33336Y619892D01*
X-33335Y619874D01*
X-33330Y619857D01*
X-33303Y619526D01*
X-33303Y617261D01*
X-32452Y615207D01*
X-32159Y614914D01*
X-32145Y614897D01*
X-32128Y614882D01*
X-32017Y614741D01*
X-31904Y614603D01*
X-31893Y614583D01*
X-31880Y614565D01*
X-31799Y614405D01*
X-31715Y614247D01*
X-31709Y614226D01*
X-31699Y614206D01*
X-31652Y614033D01*
X-31600Y613861D01*
X-31598Y613839D01*
X-31593Y613817D01*
X-31580Y613640D01*
X-31564Y613460D01*
X-31567Y613438D01*
X-31565Y613416D01*
X-31588Y613239D01*
X-31607Y613060D01*
X-31614Y613038D01*
X-31617Y613016D01*
X-31719Y612701D01*
X-32006Y612006D01*
X-32005Y611992D01*
X-32026Y611809D01*
X-32045Y611626D01*
X-32050Y611609D01*
X-32052Y611592D01*
X-32109Y611417D01*
X-32163Y611242D01*
X-32171Y611226D01*
X-32177Y611209D01*
X-32267Y611049D01*
X-32355Y610888D01*
X-32366Y610874D01*
X-32375Y610858D01*
X-32495Y610719D01*
X-32612Y610578D01*
X-32626Y610567D01*
X-32638Y610554D01*
X-32783Y610441D01*
X-32926Y610326D01*
X-32942Y610318D01*
X-32956Y610307D01*
X-33121Y610225D01*
X-33283Y610140D01*
X-33300Y610136D01*
X-33316Y610128D01*
X-33495Y610080D01*
X-33670Y610029D01*
X-33688Y610028D01*
X-33705Y610023D01*
X-34036Y609996D01*
X-49362Y609996D01*
X-49446Y610004D01*
X-49586Y610008D01*
X-50272Y610084D01*
X-50300Y610076D01*
X-50419Y610054D01*
X-50535Y610023D01*
X-50630Y610015D01*
X-50696Y610003D01*
X-50766Y610004D01*
X-50866Y609996D01*
X-50896Y609996D01*
X-51533Y609732D01*
X-51614Y609707D01*
X-51745Y609658D01*
X-52407Y609466D01*
X-52430Y609447D01*
X-52531Y609381D01*
X-52627Y609308D01*
X-52712Y609264D01*
X-52768Y609228D01*
X-52833Y609202D01*
X-52922Y609156D01*
X-52950Y609145D01*
X-53438Y608657D01*
X-53503Y608604D01*
X-53605Y608507D01*
X-54143Y608077D01*
X-54158Y608051D01*
X-54226Y607951D01*
X-54286Y607847D01*
X-54348Y607774D01*
X-54386Y607719D01*
X-54436Y607670D01*
X-54501Y607594D01*
X-54522Y607573D01*
X-54786Y606936D01*
X-54826Y606861D01*
X-54883Y606733D01*
X-55216Y606129D01*
X-55219Y606099D01*
X-55244Y605982D01*
X-55260Y605862D01*
X-55289Y605771D01*
X-55303Y605706D01*
X-55331Y605642D01*
X-55361Y605546D01*
X-55373Y605519D01*
X-55373Y604829D01*
X-55381Y604745D01*
X-55385Y604605D01*
X-55461Y603919D01*
X-55453Y603891D01*
X-55431Y603772D01*
X-55400Y603656D01*
X-55392Y603561D01*
X-55380Y603495D01*
X-55381Y603425D01*
X-55373Y603325D01*
X-55373Y603295D01*
X-55109Y602658D01*
X-55084Y602577D01*
X-55034Y602446D01*
X-54843Y601784D01*
X-54824Y601761D01*
X-54758Y601659D01*
X-54685Y601564D01*
X-54641Y601479D01*
X-54605Y601423D01*
X-54579Y601358D01*
X-54533Y601269D01*
X-54522Y601241D01*
X-54034Y600754D01*
X-53981Y600688D01*
X-53884Y600586D01*
X-48261Y593557D01*
X-46313Y592484D01*
X-44103Y592239D01*
X-41968Y592858D01*
G37*
%LPD*%
%LPC*%
G36*
X-105663Y531367D02*
X-105663Y531367D01*
X-105663Y554964D01*
X-106288Y554893D01*
X-109347Y554195D01*
X-112309Y553159D01*
X-115137Y551797D01*
X-117794Y550127D01*
X-120248Y548171D01*
X-122467Y545952D01*
X-124423Y543498D01*
X-126093Y540841D01*
X-127455Y538013D01*
X-128491Y535051D01*
X-129189Y531992D01*
X-129260Y531367D01*
X-105663Y531367D01*
G37*
%LPD*%
%LPC*%
G36*
X-73940Y531367D02*
X-73940Y531367D01*
X-74011Y531992D01*
X-74709Y535051D01*
X-75745Y538013D01*
X-77107Y540841D01*
X-78777Y543498D01*
X-80733Y545952D01*
X-82952Y548171D01*
X-85406Y550127D01*
X-88063Y551797D01*
X-90891Y553159D01*
X-93853Y554195D01*
X-96912Y554893D01*
X-97537Y554964D01*
X-97537Y531367D01*
X-73940Y531367D01*
G37*
%LPD*%
%LPC*%
G36*
X-73940Y60959D02*
X-73940Y60959D01*
X-74011Y61584D01*
X-74709Y64643D01*
X-75745Y67605D01*
X-77107Y70433D01*
X-78777Y73090D01*
X-80733Y75544D01*
X-82952Y77763D01*
X-85406Y79719D01*
X-88063Y81389D01*
X-90891Y82751D01*
X-93853Y83787D01*
X-96912Y84485D01*
X-97537Y84556D01*
X-97537Y60959D01*
X-73940Y60959D01*
G37*
%LPD*%
%LPC*%
G36*
X-96912Y499715D02*
X-96912Y499715D01*
X-93853Y500413D01*
X-90891Y501449D01*
X-88063Y502811D01*
X-85406Y504481D01*
X-82952Y506437D01*
X-80733Y508656D01*
X-78777Y511110D01*
X-77107Y513767D01*
X-75745Y516595D01*
X-74709Y519557D01*
X-74011Y522616D01*
X-73940Y523241D01*
X-97537Y523241D01*
X-97537Y499644D01*
X-96912Y499715D01*
G37*
%LPD*%
%LPC*%
G36*
X-96912Y29307D02*
X-96912Y29307D01*
X-93853Y30005D01*
X-90891Y31041D01*
X-88063Y32403D01*
X-85406Y34073D01*
X-82952Y36029D01*
X-80733Y38248D01*
X-78777Y40702D01*
X-77107Y43359D01*
X-75745Y46187D01*
X-74709Y49149D01*
X-74011Y52208D01*
X-73940Y52833D01*
X-97537Y52833D01*
X-97537Y29236D01*
X-96912Y29307D01*
G37*
%LPD*%
%LPC*%
G36*
X-687831Y366269D02*
X-687831Y366269D01*
X-695841Y366269D01*
X-695841Y352510D01*
X-695593Y350949D01*
X-695105Y349446D01*
X-694388Y348038D01*
X-693459Y346759D01*
X-692341Y345641D01*
X-691062Y344712D01*
X-689654Y343995D01*
X-688151Y343507D01*
X-687831Y343456D01*
X-687831Y366269D01*
G37*
%LPD*%
%LPC*%
G36*
X-396199Y53299D02*
X-396199Y53299D01*
X-396199Y62749D01*
X-396555Y62692D01*
X-398380Y62099D01*
X-400090Y61228D01*
X-401643Y60100D01*
X-403000Y58743D01*
X-404128Y57190D01*
X-404590Y56284D01*
X-404618Y56241D01*
X-404639Y56194D01*
X-404726Y56072D01*
X-404808Y55945D01*
X-404843Y55908D01*
X-404873Y55866D01*
X-404983Y55764D01*
X-405088Y55656D01*
X-405130Y55627D01*
X-405167Y55592D01*
X-405295Y55512D01*
X-405419Y55427D01*
X-405466Y55407D01*
X-405510Y55380D01*
X-405651Y55328D01*
X-405789Y55269D01*
X-405839Y55258D01*
X-405887Y55240D01*
X-406036Y55217D01*
X-406183Y55186D01*
X-406234Y55186D01*
X-406285Y55178D01*
X-406436Y55184D01*
X-406586Y55183D01*
X-406636Y55193D01*
X-406687Y55195D01*
X-406833Y55231D01*
X-406981Y55260D01*
X-407029Y55279D01*
X-407078Y55291D01*
X-407214Y55355D01*
X-407354Y55412D01*
X-407396Y55441D01*
X-407443Y55463D01*
X-407563Y55552D01*
X-407689Y55636D01*
X-407725Y55672D01*
X-407766Y55702D01*
X-407867Y55814D01*
X-407973Y55921D01*
X-408001Y55963D01*
X-408036Y56001D01*
X-408157Y56198D01*
X-408196Y56256D01*
X-408201Y56269D01*
X-408210Y56284D01*
X-408672Y57190D01*
X-409800Y58743D01*
X-411157Y60100D01*
X-412710Y61228D01*
X-414420Y62099D01*
X-416245Y62692D01*
X-416601Y62749D01*
X-416601Y53299D01*
X-396199Y53299D01*
G37*
%LPD*%
%LPC*%
G36*
X-662984Y612584D02*
X-662984Y612584D01*
X-662984Y629670D01*
X-664412Y629206D01*
X-666024Y628384D01*
X-667488Y627321D01*
X-668767Y626041D01*
X-669831Y624578D01*
X-670652Y622966D01*
X-671211Y621245D01*
X-671494Y619458D01*
X-671494Y612584D01*
X-662984Y612584D01*
G37*
%LPD*%
%LPC*%
G36*
X-662984Y606616D02*
X-662984Y606616D01*
X-671494Y606616D01*
X-671494Y599742D01*
X-671211Y597955D01*
X-670652Y596234D01*
X-669831Y594622D01*
X-668767Y593159D01*
X-667488Y591879D01*
X-666024Y590816D01*
X-664412Y589994D01*
X-662984Y589530D01*
X-662984Y606616D01*
G37*
%LPD*%
%LPC*%
G36*
X-648506Y612584D02*
X-648506Y612584D01*
X-648506Y619458D01*
X-648789Y621245D01*
X-649348Y622966D01*
X-650169Y624578D01*
X-651233Y626041D01*
X-652512Y627321D01*
X-653976Y628384D01*
X-655588Y629206D01*
X-657016Y629670D01*
X-657016Y612584D01*
X-648506Y612584D01*
G37*
%LPD*%
%LPC*%
G36*
X-655588Y589994D02*
X-655588Y589994D01*
X-653976Y590816D01*
X-652512Y591879D01*
X-651233Y593159D01*
X-650169Y594622D01*
X-649348Y596234D01*
X-648789Y597955D01*
X-648506Y599742D01*
X-648506Y606616D01*
X-657016Y606616D01*
X-657016Y589530D01*
X-655588Y589994D01*
G37*
%LPD*%
%LPC*%
G36*
X-116839Y261875D02*
X-116839Y261875D01*
X-126243Y261875D01*
X-126192Y261559D01*
X-125599Y259734D01*
X-124728Y258024D01*
X-123600Y256471D01*
X-122243Y255114D01*
X-120690Y253986D01*
X-118980Y253115D01*
X-117489Y252630D01*
X-117334Y252562D01*
X-117178Y252500D01*
X-117150Y252482D01*
X-117120Y252468D01*
X-116981Y252371D01*
X-116841Y252279D01*
X-116839Y252277D01*
X-116839Y261875D01*
G37*
%LPD*%
%LPC*%
G36*
X-76957Y280923D02*
X-76957Y280923D01*
X-77008Y281239D01*
X-77601Y283064D01*
X-78472Y284774D01*
X-79600Y286327D01*
X-80957Y287684D01*
X-82510Y288812D01*
X-84220Y289683D01*
X-85711Y290168D01*
X-85866Y290236D01*
X-86022Y290298D01*
X-86050Y290317D01*
X-86080Y290330D01*
X-86218Y290427D01*
X-86359Y290519D01*
X-86361Y290521D01*
X-86361Y280923D01*
X-76957Y280923D01*
G37*
%LPD*%
%LPC*%
G36*
X-102357Y239521D02*
X-102357Y239521D01*
X-102408Y239837D01*
X-103001Y241662D01*
X-103872Y243372D01*
X-105000Y244925D01*
X-106357Y246282D01*
X-107910Y247410D01*
X-109620Y248281D01*
X-111111Y248766D01*
X-111266Y248834D01*
X-111422Y248896D01*
X-111450Y248915D01*
X-111480Y248928D01*
X-111618Y249025D01*
X-111759Y249117D01*
X-111761Y249119D01*
X-111761Y239521D01*
X-102357Y239521D01*
G37*
%LPD*%
%LPC*%
G36*
X-76957Y198119D02*
X-76957Y198119D01*
X-77008Y198435D01*
X-77601Y200260D01*
X-78472Y201970D01*
X-79600Y203523D01*
X-80957Y204880D01*
X-82510Y206008D01*
X-84220Y206879D01*
X-85711Y207364D01*
X-85866Y207432D01*
X-86022Y207494D01*
X-86050Y207513D01*
X-86080Y207526D01*
X-86218Y207623D01*
X-86359Y207715D01*
X-86361Y207717D01*
X-86361Y198119D01*
X-76957Y198119D01*
G37*
%LPD*%
%LPC*%
G36*
X-116839Y239521D02*
X-116839Y239521D01*
X-116839Y249119D01*
X-116845Y249114D01*
X-116873Y249096D01*
X-116897Y249073D01*
X-117042Y248986D01*
X-117182Y248894D01*
X-117217Y248880D01*
X-117242Y248865D01*
X-117323Y248835D01*
X-117489Y248766D01*
X-118980Y248281D01*
X-120690Y247410D01*
X-122243Y246282D01*
X-123600Y244925D01*
X-124728Y243372D01*
X-125599Y241662D01*
X-126192Y239837D01*
X-126243Y239521D01*
X-116839Y239521D01*
G37*
%LPD*%
%LPC*%
G36*
X-111755Y252282D02*
X-111755Y252282D01*
X-111727Y252300D01*
X-111703Y252323D01*
X-111559Y252410D01*
X-111418Y252502D01*
X-111383Y252516D01*
X-111358Y252531D01*
X-111277Y252561D01*
X-111111Y252630D01*
X-109620Y253115D01*
X-107910Y253986D01*
X-106357Y255114D01*
X-105000Y256471D01*
X-103872Y258024D01*
X-103001Y259734D01*
X-102408Y261559D01*
X-102357Y261875D01*
X-111761Y261875D01*
X-111761Y252277D01*
X-111755Y252282D01*
G37*
%LPD*%
%LPC*%
G36*
X-86355Y210880D02*
X-86355Y210880D01*
X-86327Y210898D01*
X-86303Y210921D01*
X-86159Y211008D01*
X-86018Y211100D01*
X-85983Y211114D01*
X-85958Y211129D01*
X-85877Y211159D01*
X-85711Y211228D01*
X-84220Y211713D01*
X-82510Y212584D01*
X-80957Y213712D01*
X-79600Y215069D01*
X-78472Y216622D01*
X-77601Y218332D01*
X-77008Y220157D01*
X-76957Y220473D01*
X-86361Y220473D01*
X-86361Y210875D01*
X-86355Y210880D01*
G37*
%LPD*%
%LPC*%
G36*
X-86355Y293684D02*
X-86355Y293684D01*
X-86327Y293702D01*
X-86303Y293725D01*
X-86159Y293812D01*
X-86018Y293904D01*
X-85983Y293918D01*
X-85958Y293933D01*
X-85877Y293963D01*
X-85711Y294032D01*
X-84220Y294517D01*
X-82510Y295388D01*
X-80957Y296516D01*
X-79600Y297873D01*
X-78472Y299426D01*
X-77601Y301136D01*
X-77008Y302961D01*
X-76957Y303277D01*
X-86361Y303277D01*
X-86361Y293679D01*
X-86355Y293684D01*
G37*
%LPD*%
%LPC*%
G36*
X-91439Y248159D02*
X-91439Y248159D01*
X-100843Y248159D01*
X-100792Y247843D01*
X-100199Y246018D01*
X-99328Y244308D01*
X-98200Y242755D01*
X-96843Y241398D01*
X-95290Y240270D01*
X-93580Y239399D01*
X-91698Y238787D01*
X-91543Y238719D01*
X-91439Y238677D01*
X-91439Y248159D01*
G37*
%LPD*%
%LPC*%
G36*
X-76957Y308355D02*
X-76957Y308355D01*
X-77008Y308671D01*
X-77601Y310496D01*
X-78472Y312206D01*
X-79600Y313759D01*
X-80957Y315116D01*
X-82510Y316244D01*
X-84220Y317115D01*
X-86102Y317727D01*
X-86256Y317795D01*
X-86361Y317836D01*
X-86361Y308355D01*
X-76957Y308355D01*
G37*
%LPD*%
%LPC*%
G36*
X-76957Y253237D02*
X-76957Y253237D01*
X-77008Y253553D01*
X-77601Y255378D01*
X-78472Y257088D01*
X-79600Y258641D01*
X-80957Y259998D01*
X-82510Y261126D01*
X-84220Y261997D01*
X-86102Y262609D01*
X-86256Y262677D01*
X-86361Y262718D01*
X-86361Y253237D01*
X-76957Y253237D01*
G37*
%LPD*%
%LPC*%
G36*
X-91439Y275845D02*
X-91439Y275845D01*
X-100843Y275845D01*
X-100792Y275529D01*
X-100199Y273704D01*
X-99328Y271994D01*
X-98200Y270441D01*
X-96843Y269084D01*
X-95290Y267956D01*
X-93580Y267085D01*
X-91698Y266473D01*
X-91544Y266405D01*
X-91439Y266363D01*
X-91439Y275845D01*
G37*
%LPD*%
%LPC*%
G36*
X-76957Y170433D02*
X-76957Y170433D01*
X-77008Y170749D01*
X-77601Y172574D01*
X-78472Y174284D01*
X-79600Y175837D01*
X-80957Y177194D01*
X-82510Y178322D01*
X-84220Y179193D01*
X-86102Y179805D01*
X-86256Y179873D01*
X-86361Y179915D01*
X-86361Y170433D01*
X-76957Y170433D01*
G37*
%LPD*%
%LPC*%
G36*
X-76957Y142747D02*
X-76957Y142747D01*
X-77008Y143063D01*
X-77601Y144888D01*
X-78472Y146598D01*
X-79600Y148151D01*
X-80957Y149508D01*
X-82510Y150636D01*
X-84220Y151507D01*
X-86102Y152119D01*
X-86256Y152187D01*
X-86361Y152229D01*
X-86361Y142747D01*
X-76957Y142747D01*
G37*
%LPD*%
%LPC*%
G36*
X-76957Y225551D02*
X-76957Y225551D01*
X-77008Y225867D01*
X-77601Y227692D01*
X-78472Y229402D01*
X-79600Y230955D01*
X-80957Y232312D01*
X-82510Y233440D01*
X-84220Y234311D01*
X-86102Y234923D01*
X-86256Y234991D01*
X-86361Y235032D01*
X-86361Y225551D01*
X-76957Y225551D01*
G37*
%LPD*%
%LPC*%
G36*
X-91439Y253237D02*
X-91439Y253237D01*
X-91439Y262715D01*
X-91451Y262708D01*
X-91532Y262678D01*
X-91698Y262609D01*
X-93580Y261997D01*
X-95290Y261126D01*
X-96843Y259998D01*
X-98200Y258641D01*
X-99328Y257088D01*
X-100199Y255378D01*
X-100792Y253553D01*
X-100843Y253237D01*
X-91439Y253237D01*
G37*
%LPD*%
%LPC*%
G36*
X-91439Y225551D02*
X-91439Y225551D01*
X-91439Y235029D01*
X-91451Y235022D01*
X-91532Y234992D01*
X-91698Y234923D01*
X-93580Y234311D01*
X-95290Y233440D01*
X-96843Y232312D01*
X-98200Y230955D01*
X-99328Y229402D01*
X-100199Y227692D01*
X-100792Y225867D01*
X-100843Y225551D01*
X-91439Y225551D01*
G37*
%LPD*%
%LPC*%
G36*
X-86349Y238688D02*
X-86349Y238688D01*
X-86268Y238718D01*
X-86102Y238787D01*
X-84220Y239399D01*
X-82510Y240270D01*
X-80957Y241398D01*
X-79600Y242755D01*
X-78472Y244308D01*
X-77601Y246018D01*
X-77008Y247843D01*
X-76957Y248159D01*
X-86361Y248159D01*
X-86361Y238681D01*
X-86349Y238688D01*
G37*
%LPD*%
%LPC*%
G36*
X-86349Y183570D02*
X-86349Y183570D01*
X-86268Y183600D01*
X-86102Y183669D01*
X-84220Y184281D01*
X-82510Y185152D01*
X-80957Y186280D01*
X-79600Y187637D01*
X-78472Y189190D01*
X-77601Y190900D01*
X-77008Y192725D01*
X-76957Y193041D01*
X-86361Y193041D01*
X-86361Y183563D01*
X-86349Y183570D01*
G37*
%LPD*%
%LPC*%
G36*
X-86349Y155884D02*
X-86349Y155884D01*
X-86268Y155914D01*
X-86102Y155983D01*
X-84220Y156595D01*
X-82510Y157466D01*
X-80957Y158594D01*
X-79600Y159951D01*
X-78472Y161504D01*
X-77601Y163214D01*
X-77008Y165039D01*
X-76957Y165355D01*
X-86361Y165355D01*
X-86361Y155877D01*
X-86349Y155884D01*
G37*
%LPD*%
%LPC*%
G36*
X-86349Y266374D02*
X-86349Y266374D01*
X-86268Y266404D01*
X-86102Y266473D01*
X-84220Y267085D01*
X-82510Y267956D01*
X-80957Y269084D01*
X-79600Y270441D01*
X-78472Y271994D01*
X-77601Y273704D01*
X-77008Y275529D01*
X-76957Y275845D01*
X-86361Y275845D01*
X-86361Y266367D01*
X-86349Y266374D01*
G37*
%LPD*%
%LPC*%
G36*
X-86349Y321492D02*
X-86349Y321492D01*
X-86268Y321522D01*
X-86102Y321591D01*
X-84220Y322203D01*
X-82510Y323074D01*
X-80957Y324202D01*
X-79600Y325559D01*
X-78472Y327112D01*
X-77601Y328822D01*
X-77008Y330647D01*
X-76957Y330963D01*
X-86361Y330963D01*
X-86361Y321485D01*
X-86349Y321492D01*
G37*
%LPD*%
%LPC*%
G36*
X-86045Y128316D02*
X-86045Y128316D01*
X-84220Y128909D01*
X-82510Y129780D01*
X-80957Y130908D01*
X-79600Y132265D01*
X-78472Y133818D01*
X-77601Y135528D01*
X-77008Y137353D01*
X-76957Y137669D01*
X-86361Y137669D01*
X-86361Y128265D01*
X-86045Y128316D01*
G37*
%LPD*%
%LPC*%
G36*
X-634491Y471931D02*
X-634491Y471931D01*
X-634491Y480441D01*
X-636826Y480441D01*
X-643001Y474266D01*
X-643001Y471931D01*
X-634491Y471931D01*
G37*
%LPD*%
%LPC*%
G36*
X-634491Y459359D02*
X-634491Y459359D01*
X-634491Y467869D01*
X-643001Y467869D01*
X-643001Y465534D01*
X-636826Y459359D01*
X-634491Y459359D01*
G37*
%LPD*%
%LPC*%
G36*
X-687831Y370331D02*
X-687831Y370331D01*
X-687831Y378144D01*
X-688151Y378093D01*
X-689654Y377605D01*
X-691062Y376888D01*
X-692341Y375959D01*
X-693459Y374841D01*
X-694388Y373562D01*
X-695105Y372154D01*
X-695593Y370651D01*
X-695644Y370331D01*
X-687831Y370331D01*
G37*
%LPD*%
%LPC*%
G36*
X-101599Y527303D02*
X-101599Y527303D01*
X-101599Y527305D01*
X-101601Y527305D01*
X-101601Y527303D01*
X-101599Y527303D01*
G37*
%LPD*%
D10*
X-44591Y597916D02*
X-49784Y604407D01*
X-26416Y604407D01*
X-26416Y597916D02*
X-26416Y610898D01*
X-26416Y618373D02*
X-27714Y618373D01*
X-27714Y619671D01*
X-26416Y619671D01*
X-26416Y618373D01*
X-38100Y627146D02*
X-38560Y627151D01*
X-39019Y627168D01*
X-39478Y627195D01*
X-39936Y627234D01*
X-40393Y627283D01*
X-40849Y627343D01*
X-41303Y627414D01*
X-41756Y627496D01*
X-42206Y627589D01*
X-42654Y627692D01*
X-43099Y627806D01*
X-43542Y627931D01*
X-43981Y628066D01*
X-44417Y628212D01*
X-44849Y628368D01*
X-45278Y628534D01*
X-45703Y628710D01*
X-46123Y628897D01*
X-46538Y629093D01*
X-46539Y629094D02*
X-46666Y629139D01*
X-46792Y629189D01*
X-46917Y629241D01*
X-47040Y629298D01*
X-47162Y629358D01*
X-47281Y629421D01*
X-47399Y629487D01*
X-47515Y629557D01*
X-47629Y629630D01*
X-47741Y629706D01*
X-47851Y629786D01*
X-47958Y629868D01*
X-48063Y629954D01*
X-48166Y630042D01*
X-48266Y630133D01*
X-48364Y630227D01*
X-48458Y630324D01*
X-48550Y630423D01*
X-48640Y630525D01*
X-48726Y630629D01*
X-48809Y630736D01*
X-48889Y630845D01*
X-48967Y630957D01*
X-49040Y631070D01*
X-49111Y631185D01*
X-49179Y631303D01*
X-49243Y631422D01*
X-49304Y631543D01*
X-49361Y631666D01*
X-49415Y631790D01*
X-49465Y631916D01*
X-49512Y632043D01*
X-49555Y632171D01*
X-49594Y632301D01*
X-49630Y632431D01*
X-49662Y632563D01*
X-49691Y632695D01*
X-49715Y632828D01*
X-49736Y632962D01*
X-49753Y633097D01*
X-49767Y633231D01*
X-49776Y633366D01*
X-49782Y633502D01*
X-49784Y633637D01*
X-49782Y633772D01*
X-49776Y633908D01*
X-49767Y634043D01*
X-49753Y634178D01*
X-49736Y634312D01*
X-49715Y634446D01*
X-49691Y634579D01*
X-49662Y634711D01*
X-49630Y634843D01*
X-49594Y634973D01*
X-49555Y635103D01*
X-49512Y635231D01*
X-49465Y635358D01*
X-49415Y635484D01*
X-49361Y635608D01*
X-49304Y635731D01*
X-49243Y635852D01*
X-49179Y635971D01*
X-49111Y636089D01*
X-49040Y636204D01*
X-48966Y636317D01*
X-48889Y636429D01*
X-48809Y636538D01*
X-48726Y636645D01*
X-48640Y636749D01*
X-48550Y636851D01*
X-48458Y636950D01*
X-48364Y637047D01*
X-48266Y637141D01*
X-48166Y637232D01*
X-48063Y637320D01*
X-47958Y637406D01*
X-47851Y637488D01*
X-47741Y637568D01*
X-47629Y637644D01*
X-47515Y637717D01*
X-47399Y637787D01*
X-47281Y637853D01*
X-47162Y637916D01*
X-47040Y637976D01*
X-46917Y638033D01*
X-46792Y638085D01*
X-46666Y638135D01*
X-46539Y638180D01*
X-46539Y638182D02*
X-46123Y638378D01*
X-45703Y638565D01*
X-45278Y638741D01*
X-44850Y638907D01*
X-44417Y639063D01*
X-43981Y639209D01*
X-43542Y639344D01*
X-43099Y639469D01*
X-42654Y639583D01*
X-42206Y639686D01*
X-41756Y639779D01*
X-41303Y639861D01*
X-40849Y639932D01*
X-40393Y639992D01*
X-39936Y640041D01*
X-39478Y640080D01*
X-39019Y640107D01*
X-38560Y640124D01*
X-38100Y640129D01*
X-38100Y627147D02*
X-37640Y627152D01*
X-37181Y627169D01*
X-36722Y627196D01*
X-36264Y627235D01*
X-35807Y627284D01*
X-35351Y627344D01*
X-34897Y627415D01*
X-34445Y627497D01*
X-33994Y627590D01*
X-33546Y627693D01*
X-33101Y627807D01*
X-32658Y627932D01*
X-32219Y628067D01*
X-31783Y628213D01*
X-31351Y628369D01*
X-30922Y628535D01*
X-30497Y628711D01*
X-30077Y628898D01*
X-29662Y629094D01*
X-29661Y629094D02*
X-29534Y629139D01*
X-29408Y629189D01*
X-29283Y629241D01*
X-29160Y629298D01*
X-29038Y629358D01*
X-28919Y629421D01*
X-28801Y629487D01*
X-28685Y629557D01*
X-28571Y629630D01*
X-28459Y629706D01*
X-28349Y629786D01*
X-28242Y629868D01*
X-28137Y629954D01*
X-28034Y630042D01*
X-27934Y630133D01*
X-27836Y630227D01*
X-27742Y630324D01*
X-27650Y630423D01*
X-27560Y630525D01*
X-27474Y630630D01*
X-27391Y630736D01*
X-27311Y630845D01*
X-27233Y630957D01*
X-27160Y631070D01*
X-27089Y631185D01*
X-27021Y631303D01*
X-26957Y631422D01*
X-26896Y631543D01*
X-26839Y631666D01*
X-26785Y631790D01*
X-26735Y631916D01*
X-26688Y632043D01*
X-26645Y632171D01*
X-26606Y632301D01*
X-26570Y632431D01*
X-26538Y632563D01*
X-26509Y632695D01*
X-26485Y632828D01*
X-26464Y632962D01*
X-26447Y633097D01*
X-26433Y633231D01*
X-26424Y633366D01*
X-26418Y633502D01*
X-26416Y633637D01*
X-29662Y638181D02*
X-30077Y638377D01*
X-30497Y638564D01*
X-30922Y638740D01*
X-31350Y638906D01*
X-31783Y639062D01*
X-32219Y639208D01*
X-32658Y639343D01*
X-33101Y639468D01*
X-33546Y639582D01*
X-33994Y639685D01*
X-34444Y639778D01*
X-34897Y639860D01*
X-35351Y639931D01*
X-35807Y639991D01*
X-36264Y640040D01*
X-36722Y640079D01*
X-37181Y640106D01*
X-37640Y640123D01*
X-38100Y640128D01*
X-29661Y638180D02*
X-29534Y638135D01*
X-29408Y638085D01*
X-29283Y638033D01*
X-29160Y637976D01*
X-29038Y637916D01*
X-28919Y637853D01*
X-28801Y637787D01*
X-28685Y637717D01*
X-28571Y637644D01*
X-28459Y637568D01*
X-28349Y637488D01*
X-28242Y637406D01*
X-28137Y637320D01*
X-28034Y637232D01*
X-27934Y637141D01*
X-27836Y637047D01*
X-27742Y636950D01*
X-27650Y636851D01*
X-27560Y636749D01*
X-27474Y636645D01*
X-27391Y636538D01*
X-27311Y636429D01*
X-27233Y636317D01*
X-27160Y636204D01*
X-27089Y636089D01*
X-27021Y635971D01*
X-26957Y635852D01*
X-26896Y635731D01*
X-26839Y635608D01*
X-26785Y635484D01*
X-26735Y635358D01*
X-26688Y635231D01*
X-26645Y635103D01*
X-26606Y634973D01*
X-26570Y634843D01*
X-26538Y634711D01*
X-26509Y634579D01*
X-26485Y634446D01*
X-26464Y634312D01*
X-26447Y634177D01*
X-26433Y634043D01*
X-26424Y633908D01*
X-26418Y633772D01*
X-26416Y633637D01*
X-31609Y628444D02*
X-44591Y638830D01*
D11*
X-610000Y618554D02*
X-610000Y600647D01*
X-660000Y600647D02*
X-660000Y618554D01*
X-724300Y618554D02*
X-724300Y600647D01*
X-774300Y600647D02*
X-774300Y618554D01*
D12*
X-508000Y406400D03*
X-609600Y406400D03*
X-508000Y368300D03*
X-609600Y368300D03*
D13*
X-632460Y469900D03*
D14*
X-612140Y469900D03*
D15*
X-660400Y368300D02*
X-660400Y353300D01*
X-685800Y353300D02*
X-685800Y368300D01*
X-685800Y444500D02*
X-685800Y459500D01*
X-660400Y459500D02*
X-660400Y444500D01*
D16*
X-114300Y126492D03*
X-114300Y154178D03*
X-114300Y181610D03*
X-114300Y209296D03*
X-114300Y236982D03*
X-114300Y264414D03*
X-114300Y292100D03*
X-114300Y319786D03*
X-114300Y347218D03*
X-114300Y374904D03*
X-114300Y402590D03*
X-114300Y430022D03*
X-114300Y457708D03*
X-88900Y140208D03*
X-88900Y167894D03*
X-88900Y195580D03*
X-88900Y223012D03*
X-88900Y250698D03*
X-88900Y278384D03*
X-88900Y305816D03*
X-88900Y333502D03*
X-88900Y361188D03*
X-88900Y388620D03*
X-88900Y416306D03*
X-88900Y443992D03*
D17*
X-101600Y527304D03*
X-101600Y56896D03*
D16*
X-292100Y533400D03*
X-317500Y50800D03*
X-266700Y533400D03*
X-241300Y533400D03*
X-215900Y533400D03*
X-190500Y533400D03*
X-317500Y533400D03*
X-342900Y533400D03*
X-368300Y533400D03*
X-408940Y533400D03*
X-434340Y533400D03*
X-459740Y533400D03*
X-485140Y533400D03*
X-510540Y533400D03*
X-535940Y533400D03*
X-561340Y533400D03*
X-586740Y533400D03*
X-292100Y50800D03*
X-266700Y50800D03*
X-241300Y50800D03*
X-215900Y50800D03*
X-190500Y50800D03*
X-368300Y50800D03*
X-393700Y50800D03*
X-419100Y50800D03*
X-444500Y50800D03*
X-469900Y50800D03*
X-495300Y50800D03*
X-520700Y50800D03*
X-612140Y533400D03*
X-637540Y533400D03*
X-546100Y50800D03*
D18*
X-609600Y406400D02*
X-609600Y467360D01*
X-612140Y469900D01*
X-612140Y485190D01*
X-653669Y526719D01*
X-653669Y540131D01*
X-609600Y584200D01*
X-609600Y609200D01*
X-610000Y609600D01*
X-609600Y368300D02*
X-660400Y368300D01*
X-139954Y100838D02*
X-114300Y126492D01*
X-139954Y100838D02*
X-139954Y40384D01*
X-171194Y9144D01*
X-562866Y9144D01*
X-587756Y34034D01*
X-587756Y456184D01*
X-510540Y533400D01*
X-148336Y43856D02*
X-174666Y17526D01*
X-559394Y17526D01*
X-579374Y37506D01*
X-148336Y43856D02*
X-148336Y120142D01*
X-114300Y154178D01*
X-485140Y533400D02*
X-579374Y439166D01*
X-579374Y37506D01*
X-178138Y25908D02*
X-156718Y47328D01*
X-156718Y139192D02*
X-114300Y181610D01*
X-156718Y139192D02*
X-156718Y47328D01*
X-555922Y25908D02*
X-570992Y40978D01*
X-570992Y422148D02*
X-459740Y533400D01*
X-570992Y422148D02*
X-570992Y40978D01*
X-555922Y25908D02*
X-178138Y25908D01*
X-165100Y158496D02*
X-114300Y209296D01*
X-165100Y158496D02*
X-165100Y50800D01*
X-181610Y34290D01*
X-552450Y34290D01*
X-562610Y44450D01*
X-562610Y405130D02*
X-434340Y533400D01*
X-562610Y405130D02*
X-562610Y44450D01*
X-88900Y416306D02*
X-88900Y421182D01*
X-72771Y437311D01*
X-72771Y450843D01*
X-171457Y549529D01*
X-392811Y549529D02*
X-408940Y533400D01*
X-392811Y549529D02*
X-171457Y549529D01*
X-317500Y533400D02*
X-444500Y406400D01*
X-508000Y406400D01*
X-508000Y368300D02*
X-457200Y368300D01*
X-292100Y533400D01*
X-241808Y508508D02*
X-165100Y508508D01*
X-114300Y457708D01*
X-241808Y508508D02*
X-266700Y533400D01*
X-88900Y455118D02*
X-88900Y443992D01*
X-88900Y455118D02*
X-150799Y517017D01*
X-224917Y517017D02*
X-241300Y533400D01*
X-224917Y517017D02*
X-150799Y517017D01*
X-208280Y370332D02*
X-208280Y83820D01*
X-241300Y50800D01*
X-208280Y370332D02*
X-148590Y430022D01*
X-114300Y430022D01*
X-317500Y402590D02*
X-317500Y50800D01*
D12*
X-317500Y402590D03*
D18*
X-152400Y402590D02*
X-114300Y402590D01*
D12*
X-152400Y402590D03*
D18*
X-199390Y67310D02*
X-215900Y50800D01*
X-199390Y67310D02*
X-199390Y322834D01*
X-147320Y374904D01*
X-114300Y374904D01*
X-292100Y346710D02*
X-292100Y50800D01*
D12*
X-292100Y346710D03*
D18*
X-114808Y346710D02*
X-114300Y347218D01*
X-114808Y346710D02*
X-152400Y346710D01*
D12*
X-152400Y346710D03*
D18*
X-190500Y307086D02*
X-190500Y50800D01*
X-190500Y307086D02*
X-177800Y319786D01*
X-114300Y319786D01*
X-266700Y292100D02*
X-266700Y50800D01*
D12*
X-266700Y292100D03*
D18*
X-152400Y292100D02*
X-114300Y292100D01*
D12*
X-152400Y292100D03*
D18*
X-660400Y444500D02*
X-660400Y469900D01*
X-724300Y533800D02*
X-724300Y609600D01*
X-724300Y533800D02*
X-660400Y469900D01*
X-685800Y482600D02*
X-685800Y444500D01*
X-685800Y482600D02*
X-774700Y571500D01*
X-774700Y609200D01*
X-774300Y609600D01*
M02*
