G04 EAGLE Gerber X2 export*
%TF.Part,Single*%
%TF.FileFunction,Copper,L2,Bot,Mixed*%
%TF.FilePolarity,Positive*%
%TF.GenerationSoftware,Autodesk,EAGLE,9.6.2*%
%TF.CreationDate,2020-09-24T10:56:33Z*%
G75*
%MOMM*%
%FSLAX34Y34*%
%LPD*%
%INBottom Copper*%
%AMOC8*
5,1,8,0,0,1.08239X$1,22.5*%
G01*
%ADD10C,0.203200*%
%ADD11C,1.930400*%
%ADD12C,1.790700*%
%ADD13C,1.500000*%
%ADD14P,1.623585X8X22.500000*%
%ADD15C,1.500000*%
%ADD16C,0.508000*%
%ADD17C,1.900000*%

G36*
X-789723Y4576D02*
X-789723Y4576D01*
X-789757Y4574D01*
X-789946Y4596D01*
X-790137Y4613D01*
X-790170Y4622D01*
X-790204Y4626D01*
X-790387Y4681D01*
X-790571Y4731D01*
X-790602Y4746D01*
X-790635Y4756D01*
X-790806Y4843D01*
X-790978Y4925D01*
X-791006Y4945D01*
X-791037Y4960D01*
X-791189Y5076D01*
X-791344Y5187D01*
X-791368Y5212D01*
X-791395Y5232D01*
X-791524Y5372D01*
X-791658Y5509D01*
X-791677Y5538D01*
X-791701Y5564D01*
X-791803Y5725D01*
X-791910Y5882D01*
X-791924Y5914D01*
X-791942Y5943D01*
X-792015Y6120D01*
X-792092Y6294D01*
X-792100Y6328D01*
X-792113Y6360D01*
X-792153Y6547D01*
X-792199Y6732D01*
X-792201Y6766D01*
X-792208Y6800D01*
X-792227Y7112D01*
X-792227Y138498D01*
X-792216Y138627D01*
X-792214Y138758D01*
X-792196Y138851D01*
X-792187Y138947D01*
X-792153Y139072D01*
X-792128Y139200D01*
X-792094Y139289D01*
X-792069Y139381D01*
X-792013Y139498D01*
X-791966Y139620D01*
X-791916Y139702D01*
X-791875Y139788D01*
X-791800Y139893D01*
X-791732Y140004D01*
X-791669Y140076D01*
X-791613Y140154D01*
X-791520Y140245D01*
X-791434Y140342D01*
X-791359Y140401D01*
X-791291Y140468D01*
X-791183Y140541D01*
X-791081Y140621D01*
X-790997Y140666D01*
X-790918Y140720D01*
X-790799Y140772D01*
X-790684Y140834D01*
X-790593Y140863D01*
X-790506Y140902D01*
X-790379Y140933D01*
X-790256Y140973D01*
X-790161Y140986D01*
X-790068Y141009D01*
X-789939Y141017D01*
X-789810Y141034D01*
X-789714Y141031D01*
X-789619Y141036D01*
X-789490Y141021D01*
X-789360Y141016D01*
X-789267Y140995D01*
X-789172Y140984D01*
X-789047Y140947D01*
X-788920Y140918D01*
X-788832Y140882D01*
X-788741Y140854D01*
X-788625Y140795D01*
X-788505Y140745D01*
X-788424Y140693D01*
X-788339Y140650D01*
X-788236Y140571D01*
X-788127Y140501D01*
X-788029Y140414D01*
X-787981Y140378D01*
X-787950Y140345D01*
X-787892Y140294D01*
X-720127Y72528D01*
X-717769Y70170D01*
X-715155Y69087D01*
X-81455Y69087D01*
X-78841Y70170D01*
X-43500Y105511D01*
X-42417Y108125D01*
X-42417Y419245D01*
X-43500Y421859D01*
X-45858Y424217D01*
X-74893Y453252D01*
X-77251Y455610D01*
X-79865Y456693D01*
X-105832Y456693D01*
X-105996Y456707D01*
X-106160Y456714D01*
X-106220Y456727D01*
X-106281Y456733D01*
X-106439Y456776D01*
X-106600Y456812D01*
X-106656Y456835D01*
X-106715Y456851D01*
X-106863Y456922D01*
X-107015Y456985D01*
X-107067Y457018D01*
X-107122Y457045D01*
X-107255Y457140D01*
X-107393Y457230D01*
X-107451Y457281D01*
X-107488Y457307D01*
X-107530Y457350D01*
X-107628Y457436D01*
X-107766Y457575D01*
X-112995Y459741D01*
X-118653Y459741D01*
X-123882Y457575D01*
X-127883Y453574D01*
X-130049Y448345D01*
X-130049Y442687D01*
X-127883Y437458D01*
X-123893Y433469D01*
X-123871Y433442D01*
X-123845Y433419D01*
X-123727Y433270D01*
X-123604Y433123D01*
X-123587Y433093D01*
X-123566Y433066D01*
X-123476Y432898D01*
X-123381Y432732D01*
X-123370Y432700D01*
X-123353Y432669D01*
X-123294Y432488D01*
X-123230Y432308D01*
X-123225Y432274D01*
X-123214Y432241D01*
X-123188Y432052D01*
X-123157Y431864D01*
X-123157Y431829D01*
X-123153Y431795D01*
X-123160Y431604D01*
X-123163Y431413D01*
X-123169Y431379D01*
X-123171Y431345D01*
X-123212Y431159D01*
X-123248Y430971D01*
X-123261Y430939D01*
X-123268Y430905D01*
X-123342Y430730D01*
X-123411Y430551D01*
X-123429Y430522D01*
X-123442Y430490D01*
X-123545Y430330D01*
X-123645Y430167D01*
X-123668Y430141D01*
X-123686Y430112D01*
X-123893Y429877D01*
X-128084Y425686D01*
X-128210Y425581D01*
X-128331Y425469D01*
X-128383Y425437D01*
X-128430Y425398D01*
X-128572Y425316D01*
X-128711Y425228D01*
X-128768Y425204D01*
X-128821Y425174D01*
X-128976Y425119D01*
X-129128Y425057D01*
X-129187Y425044D01*
X-129245Y425023D01*
X-129407Y424997D01*
X-129568Y424962D01*
X-129645Y424957D01*
X-129689Y424950D01*
X-129750Y424951D01*
X-129880Y424943D01*
X-134686Y424943D01*
X-134850Y424957D01*
X-135014Y424964D01*
X-135074Y424977D01*
X-135135Y424983D01*
X-135293Y425026D01*
X-135454Y425062D01*
X-135510Y425085D01*
X-135569Y425101D01*
X-135717Y425172D01*
X-135869Y425235D01*
X-135921Y425268D01*
X-135976Y425295D01*
X-136109Y425390D01*
X-136247Y425480D01*
X-136305Y425531D01*
X-136342Y425557D01*
X-136384Y425600D01*
X-136482Y425686D01*
X-152164Y441368D01*
X-152269Y441495D01*
X-152381Y441616D01*
X-152413Y441667D01*
X-152452Y441714D01*
X-152534Y441857D01*
X-152622Y441995D01*
X-152646Y442052D01*
X-152676Y442105D01*
X-152731Y442260D01*
X-152793Y442412D01*
X-152806Y442472D01*
X-152827Y442529D01*
X-152853Y442691D01*
X-152888Y442852D01*
X-152893Y442929D01*
X-152900Y442973D01*
X-152899Y443034D01*
X-152907Y443164D01*
X-152907Y567588D01*
X-152904Y567623D01*
X-152906Y567657D01*
X-152884Y567846D01*
X-152867Y568037D01*
X-152858Y568070D01*
X-152854Y568104D01*
X-152799Y568287D01*
X-152749Y568471D01*
X-152734Y568502D01*
X-152724Y568535D01*
X-152637Y568706D01*
X-152555Y568878D01*
X-152535Y568906D01*
X-152520Y568937D01*
X-152404Y569089D01*
X-152293Y569244D01*
X-152268Y569268D01*
X-152248Y569295D01*
X-152108Y569424D01*
X-151971Y569558D01*
X-151942Y569577D01*
X-151916Y569601D01*
X-151755Y569703D01*
X-151598Y569810D01*
X-151566Y569824D01*
X-151537Y569842D01*
X-151360Y569915D01*
X-151186Y569992D01*
X-151152Y570000D01*
X-151120Y570013D01*
X-150933Y570053D01*
X-150748Y570099D01*
X-150714Y570101D01*
X-150680Y570108D01*
X-150368Y570127D01*
X-149601Y570127D01*
X-144428Y572270D01*
X-140470Y576228D01*
X-138327Y581401D01*
X-138327Y586999D01*
X-140470Y592172D01*
X-143403Y595104D01*
X-143425Y595131D01*
X-143451Y595154D01*
X-143569Y595303D01*
X-143692Y595450D01*
X-143709Y595480D01*
X-143730Y595507D01*
X-143820Y595675D01*
X-143915Y595841D01*
X-143926Y595873D01*
X-143943Y595904D01*
X-144002Y596085D01*
X-144066Y596265D01*
X-144071Y596299D01*
X-144082Y596332D01*
X-144108Y596521D01*
X-144139Y596709D01*
X-144139Y596744D01*
X-144143Y596778D01*
X-144136Y596969D01*
X-144133Y597159D01*
X-144126Y597194D01*
X-144125Y597228D01*
X-144084Y597414D01*
X-144048Y597602D01*
X-144035Y597634D01*
X-144028Y597668D01*
X-143954Y597844D01*
X-143885Y598022D01*
X-143867Y598051D01*
X-143854Y598083D01*
X-143750Y598244D01*
X-143651Y598406D01*
X-143628Y598432D01*
X-143610Y598461D01*
X-143403Y598696D01*
X-140470Y601628D01*
X-138327Y606801D01*
X-138327Y612399D01*
X-140470Y617572D01*
X-144428Y621530D01*
X-149601Y623673D01*
X-155199Y623673D01*
X-160372Y621530D01*
X-164330Y617572D01*
X-166473Y612399D01*
X-166473Y606638D01*
X-166487Y606474D01*
X-166494Y606310D01*
X-166507Y606250D01*
X-166513Y606189D01*
X-166556Y606031D01*
X-166592Y605870D01*
X-166615Y605814D01*
X-166631Y605755D01*
X-166702Y605607D01*
X-166765Y605455D01*
X-166798Y605403D01*
X-166825Y605348D01*
X-166920Y605215D01*
X-167010Y605077D01*
X-167061Y605019D01*
X-167087Y604982D01*
X-167130Y604940D01*
X-167216Y604842D01*
X-169576Y602483D01*
X-169639Y602430D01*
X-169696Y602371D01*
X-169811Y602286D01*
X-169921Y602194D01*
X-169992Y602154D01*
X-170059Y602105D01*
X-170188Y602042D01*
X-170312Y601971D01*
X-170389Y601944D01*
X-170464Y601907D01*
X-170601Y601868D01*
X-170736Y601820D01*
X-170818Y601807D01*
X-170897Y601784D01*
X-171039Y601770D01*
X-171180Y601747D01*
X-171263Y601748D01*
X-171345Y601740D01*
X-171487Y601751D01*
X-171631Y601753D01*
X-171712Y601769D01*
X-171794Y601775D01*
X-171932Y601811D01*
X-172073Y601838D01*
X-172150Y601868D01*
X-172229Y601889D01*
X-172359Y601949D01*
X-172493Y602001D01*
X-172563Y602044D01*
X-172638Y602078D01*
X-172755Y602160D01*
X-172877Y602235D01*
X-172939Y602289D01*
X-173007Y602337D01*
X-173108Y602438D01*
X-173215Y602533D01*
X-173266Y602597D01*
X-173324Y602656D01*
X-173406Y602774D01*
X-173494Y602886D01*
X-173533Y602959D01*
X-173580Y603026D01*
X-173688Y603248D01*
X-173707Y603283D01*
X-173710Y603293D01*
X-173717Y603307D01*
X-174310Y604739D01*
X-176668Y607097D01*
X-226023Y656452D01*
X-228381Y658810D01*
X-230995Y659893D01*
X-274785Y659893D01*
X-277399Y658810D01*
X-290035Y646174D01*
X-291118Y643560D01*
X-291118Y549290D01*
X-290035Y546676D01*
X-281668Y538310D01*
X-281563Y538183D01*
X-281451Y538062D01*
X-281419Y538011D01*
X-281380Y537964D01*
X-281298Y537821D01*
X-281210Y537683D01*
X-281186Y537626D01*
X-281156Y537573D01*
X-281101Y537418D01*
X-281039Y537266D01*
X-281026Y537207D01*
X-281005Y537149D01*
X-280979Y536987D01*
X-280944Y536826D01*
X-280939Y536749D01*
X-280932Y536705D01*
X-280933Y536644D01*
X-280925Y536514D01*
X-280925Y530571D01*
X-278759Y525342D01*
X-275912Y522496D01*
X-275890Y522469D01*
X-275864Y522446D01*
X-275746Y522297D01*
X-275623Y522150D01*
X-275606Y522120D01*
X-275585Y522093D01*
X-275495Y521925D01*
X-275400Y521759D01*
X-275389Y521727D01*
X-275372Y521696D01*
X-275313Y521515D01*
X-275249Y521335D01*
X-275244Y521301D01*
X-275233Y521268D01*
X-275207Y521079D01*
X-275176Y520891D01*
X-275176Y520856D01*
X-275172Y520822D01*
X-275179Y520631D01*
X-275182Y520440D01*
X-275188Y520406D01*
X-275190Y520372D01*
X-275231Y520186D01*
X-275267Y519998D01*
X-275280Y519966D01*
X-275287Y519932D01*
X-275361Y519757D01*
X-275430Y519578D01*
X-275448Y519549D01*
X-275461Y519517D01*
X-275564Y519357D01*
X-275664Y519194D01*
X-275687Y519168D01*
X-275705Y519139D01*
X-275912Y518904D01*
X-278759Y516058D01*
X-280925Y510829D01*
X-280925Y505171D01*
X-278759Y499942D01*
X-274758Y495941D01*
X-269529Y493775D01*
X-263586Y493775D01*
X-263422Y493761D01*
X-263258Y493754D01*
X-263198Y493741D01*
X-263137Y493735D01*
X-262979Y493692D01*
X-262818Y493656D01*
X-262762Y493633D01*
X-262703Y493617D01*
X-262555Y493546D01*
X-262403Y493483D01*
X-262351Y493450D01*
X-262296Y493423D01*
X-262163Y493328D01*
X-262025Y493238D01*
X-261967Y493187D01*
X-261930Y493161D01*
X-261888Y493118D01*
X-261790Y493032D01*
X-236558Y467800D01*
X-236453Y467673D01*
X-236341Y467552D01*
X-236309Y467501D01*
X-236270Y467454D01*
X-236188Y467311D01*
X-236100Y467173D01*
X-236076Y467116D01*
X-236046Y467063D01*
X-235991Y466908D01*
X-235929Y466756D01*
X-235916Y466696D01*
X-235895Y466639D01*
X-235869Y466477D01*
X-235834Y466316D01*
X-235829Y466239D01*
X-235822Y466195D01*
X-235823Y466134D01*
X-235815Y466004D01*
X-235815Y420241D01*
X-235829Y420077D01*
X-235836Y419913D01*
X-235849Y419853D01*
X-235855Y419792D01*
X-235898Y419634D01*
X-235934Y419473D01*
X-235957Y419417D01*
X-235973Y419358D01*
X-236044Y419210D01*
X-236107Y419058D01*
X-236140Y419006D01*
X-236167Y418951D01*
X-236262Y418818D01*
X-236352Y418680D01*
X-236403Y418622D01*
X-236429Y418585D01*
X-236472Y418543D01*
X-236558Y418445D01*
X-240632Y414372D01*
X-242775Y409199D01*
X-242775Y403601D01*
X-240632Y398428D01*
X-236674Y394470D01*
X-231501Y392327D01*
X-225903Y392327D01*
X-220730Y394470D01*
X-216772Y398428D01*
X-214629Y403601D01*
X-214629Y409199D01*
X-216772Y414372D01*
X-220846Y418445D01*
X-220951Y418572D01*
X-221063Y418692D01*
X-221095Y418744D01*
X-221134Y418791D01*
X-221216Y418933D01*
X-221304Y419072D01*
X-221328Y419129D01*
X-221358Y419182D01*
X-221413Y419337D01*
X-221475Y419489D01*
X-221488Y419548D01*
X-221509Y419606D01*
X-221535Y419768D01*
X-221570Y419929D01*
X-221575Y420006D01*
X-221582Y420050D01*
X-221581Y420111D01*
X-221589Y420241D01*
X-221589Y471417D01*
X-222672Y474031D01*
X-225030Y476389D01*
X-251732Y503090D01*
X-251837Y503217D01*
X-251949Y503338D01*
X-251981Y503389D01*
X-252020Y503436D01*
X-252102Y503578D01*
X-252190Y503717D01*
X-252214Y503774D01*
X-252244Y503827D01*
X-252299Y503982D01*
X-252361Y504134D01*
X-252374Y504193D01*
X-252395Y504251D01*
X-252421Y504413D01*
X-252456Y504574D01*
X-252461Y504651D01*
X-252468Y504695D01*
X-252467Y504756D01*
X-252475Y504886D01*
X-252475Y510829D01*
X-254641Y516058D01*
X-257488Y518904D01*
X-257510Y518931D01*
X-257536Y518954D01*
X-257654Y519103D01*
X-257777Y519250D01*
X-257794Y519280D01*
X-257815Y519307D01*
X-257905Y519475D01*
X-258000Y519641D01*
X-258012Y519673D01*
X-258028Y519704D01*
X-258087Y519885D01*
X-258151Y520065D01*
X-258156Y520099D01*
X-258167Y520132D01*
X-258193Y520321D01*
X-258224Y520509D01*
X-258224Y520544D01*
X-258228Y520578D01*
X-258221Y520769D01*
X-258218Y520959D01*
X-258212Y520994D01*
X-258210Y521028D01*
X-258169Y521214D01*
X-258133Y521402D01*
X-258120Y521434D01*
X-258113Y521468D01*
X-258039Y521644D01*
X-257970Y521822D01*
X-257952Y521851D01*
X-257939Y521883D01*
X-257835Y522044D01*
X-257736Y522206D01*
X-257713Y522232D01*
X-257695Y522261D01*
X-257488Y522496D01*
X-254641Y525342D01*
X-252475Y530571D01*
X-252475Y536229D01*
X-254641Y541458D01*
X-257488Y544304D01*
X-257510Y544331D01*
X-257536Y544354D01*
X-257654Y544503D01*
X-257777Y544650D01*
X-257794Y544680D01*
X-257815Y544707D01*
X-257905Y544875D01*
X-258000Y545041D01*
X-258011Y545073D01*
X-258028Y545104D01*
X-258087Y545285D01*
X-258151Y545465D01*
X-258156Y545499D01*
X-258167Y545532D01*
X-258193Y545721D01*
X-258224Y545909D01*
X-258224Y545944D01*
X-258228Y545978D01*
X-258221Y546169D01*
X-258218Y546360D01*
X-258212Y546394D01*
X-258210Y546428D01*
X-258169Y546614D01*
X-258133Y546802D01*
X-258120Y546834D01*
X-258113Y546868D01*
X-258039Y547044D01*
X-257970Y547222D01*
X-257952Y547251D01*
X-257939Y547283D01*
X-257835Y547443D01*
X-257736Y547606D01*
X-257713Y547632D01*
X-257695Y547661D01*
X-257488Y547896D01*
X-254440Y550944D01*
X-254313Y551049D01*
X-254193Y551161D01*
X-254141Y551193D01*
X-254094Y551232D01*
X-253952Y551314D01*
X-253813Y551402D01*
X-253756Y551426D01*
X-253703Y551456D01*
X-253548Y551511D01*
X-253396Y551573D01*
X-253337Y551586D01*
X-253279Y551607D01*
X-253117Y551633D01*
X-252956Y551668D01*
X-252879Y551673D01*
X-252835Y551680D01*
X-252774Y551679D01*
X-252644Y551687D01*
X-219898Y551687D01*
X-219734Y551673D01*
X-219570Y551666D01*
X-219510Y551653D01*
X-219449Y551647D01*
X-219291Y551604D01*
X-219130Y551568D01*
X-219074Y551545D01*
X-219015Y551529D01*
X-218867Y551458D01*
X-218715Y551395D01*
X-218663Y551362D01*
X-218608Y551335D01*
X-218475Y551240D01*
X-218337Y551150D01*
X-218279Y551099D01*
X-218242Y551073D01*
X-218200Y551030D01*
X-218102Y550944D01*
X-208516Y541358D01*
X-208411Y541231D01*
X-208299Y541110D01*
X-208267Y541059D01*
X-208228Y541012D01*
X-208146Y540869D01*
X-208058Y540731D01*
X-208034Y540674D01*
X-208004Y540621D01*
X-207949Y540466D01*
X-207887Y540314D01*
X-207874Y540254D01*
X-207853Y540197D01*
X-207827Y540035D01*
X-207792Y539874D01*
X-207787Y539797D01*
X-207780Y539753D01*
X-207781Y539692D01*
X-207773Y539562D01*
X-207773Y362821D01*
X-206690Y360207D01*
X-130792Y284310D01*
X-130687Y284183D01*
X-130575Y284062D01*
X-130543Y284011D01*
X-130504Y283964D01*
X-130422Y283821D01*
X-130334Y283683D01*
X-130310Y283626D01*
X-130280Y283573D01*
X-130225Y283418D01*
X-130163Y283266D01*
X-130150Y283206D01*
X-130129Y283149D01*
X-130103Y282987D01*
X-130068Y282826D01*
X-130063Y282749D01*
X-130056Y282705D01*
X-130057Y282644D01*
X-130049Y282514D01*
X-130049Y276571D01*
X-127883Y271342D01*
X-123882Y267341D01*
X-122423Y266737D01*
X-122396Y266722D01*
X-122367Y266713D01*
X-122197Y266618D01*
X-122024Y266528D01*
X-122000Y266509D01*
X-121973Y266495D01*
X-121822Y266372D01*
X-121668Y266252D01*
X-121647Y266230D01*
X-121624Y266210D01*
X-121497Y266063D01*
X-121366Y265918D01*
X-121350Y265892D01*
X-121330Y265869D01*
X-121231Y265701D01*
X-121128Y265536D01*
X-121117Y265508D01*
X-121101Y265481D01*
X-121034Y265298D01*
X-120962Y265118D01*
X-120956Y265088D01*
X-120945Y265059D01*
X-120911Y264868D01*
X-120872Y264676D01*
X-120871Y264646D01*
X-120865Y264616D01*
X-120865Y264421D01*
X-120861Y264226D01*
X-120865Y264196D01*
X-120865Y264165D01*
X-120900Y263973D01*
X-120930Y263781D01*
X-120940Y263752D01*
X-120945Y263722D01*
X-121013Y263539D01*
X-121076Y263355D01*
X-121091Y263329D01*
X-121101Y263300D01*
X-121201Y263132D01*
X-121295Y262962D01*
X-121315Y262939D01*
X-121330Y262912D01*
X-121457Y262765D01*
X-121581Y262614D01*
X-121604Y262594D01*
X-121624Y262571D01*
X-121775Y262448D01*
X-121923Y262321D01*
X-121949Y262306D01*
X-121973Y262287D01*
X-122198Y262154D01*
X-123767Y261014D01*
X-125124Y259657D01*
X-126252Y258104D01*
X-127124Y256394D01*
X-127716Y254569D01*
X-127767Y254253D01*
X-115824Y254253D01*
X-103881Y254253D01*
X-103932Y254569D01*
X-104524Y256394D01*
X-105396Y258104D01*
X-106524Y259657D01*
X-107881Y261014D01*
X-109443Y262149D01*
X-109460Y262156D01*
X-109623Y262264D01*
X-109787Y262367D01*
X-109810Y262388D01*
X-109835Y262404D01*
X-109976Y262539D01*
X-110121Y262670D01*
X-110139Y262694D01*
X-110161Y262715D01*
X-110276Y262872D01*
X-110395Y263027D01*
X-110409Y263054D01*
X-110427Y263078D01*
X-110513Y263254D01*
X-110602Y263426D01*
X-110611Y263456D01*
X-110625Y263483D01*
X-110678Y263671D01*
X-110736Y263857D01*
X-110740Y263887D01*
X-110748Y263916D01*
X-110767Y264110D01*
X-110791Y264303D01*
X-110789Y264334D01*
X-110792Y264364D01*
X-110777Y264559D01*
X-110767Y264753D01*
X-110760Y264783D01*
X-110757Y264813D01*
X-110708Y265002D01*
X-110663Y265191D01*
X-110651Y265219D01*
X-110643Y265249D01*
X-110561Y265426D01*
X-110484Y265604D01*
X-110467Y265630D01*
X-110454Y265657D01*
X-110342Y265817D01*
X-110234Y265979D01*
X-110213Y266001D01*
X-110196Y266026D01*
X-110058Y266163D01*
X-109923Y266304D01*
X-109898Y266322D01*
X-109876Y266344D01*
X-109716Y266454D01*
X-109559Y266569D01*
X-109531Y266582D01*
X-109506Y266599D01*
X-109225Y266737D01*
X-107766Y267341D01*
X-103765Y271342D01*
X-101599Y276571D01*
X-101599Y282229D01*
X-103765Y287458D01*
X-107755Y291447D01*
X-107777Y291474D01*
X-107803Y291497D01*
X-107921Y291646D01*
X-108044Y291793D01*
X-108061Y291823D01*
X-108082Y291850D01*
X-108172Y292018D01*
X-108267Y292184D01*
X-108279Y292216D01*
X-108295Y292247D01*
X-108354Y292428D01*
X-108418Y292608D01*
X-108423Y292642D01*
X-108434Y292675D01*
X-108460Y292864D01*
X-108491Y293052D01*
X-108491Y293087D01*
X-108495Y293121D01*
X-108488Y293312D01*
X-108485Y293502D01*
X-108479Y293537D01*
X-108477Y293571D01*
X-108436Y293757D01*
X-108400Y293945D01*
X-108387Y293977D01*
X-108380Y294011D01*
X-108306Y294187D01*
X-108237Y294365D01*
X-108219Y294394D01*
X-108206Y294426D01*
X-108102Y294586D01*
X-108003Y294749D01*
X-107980Y294775D01*
X-107962Y294804D01*
X-107755Y295039D01*
X-103765Y299028D01*
X-101599Y304257D01*
X-101599Y309915D01*
X-103765Y315144D01*
X-107755Y319133D01*
X-107777Y319160D01*
X-107803Y319183D01*
X-107921Y319332D01*
X-108044Y319479D01*
X-108061Y319509D01*
X-108082Y319536D01*
X-108172Y319704D01*
X-108267Y319870D01*
X-108279Y319902D01*
X-108295Y319933D01*
X-108354Y320114D01*
X-108418Y320294D01*
X-108423Y320328D01*
X-108434Y320361D01*
X-108460Y320550D01*
X-108491Y320738D01*
X-108491Y320773D01*
X-108495Y320807D01*
X-108488Y320998D01*
X-108485Y321188D01*
X-108479Y321223D01*
X-108477Y321257D01*
X-108436Y321443D01*
X-108400Y321631D01*
X-108387Y321663D01*
X-108380Y321697D01*
X-108306Y321873D01*
X-108237Y322051D01*
X-108219Y322080D01*
X-108206Y322112D01*
X-108102Y322272D01*
X-108003Y322435D01*
X-107980Y322461D01*
X-107962Y322490D01*
X-107755Y322725D01*
X-103765Y326714D01*
X-101599Y331943D01*
X-101599Y337601D01*
X-103765Y342830D01*
X-107755Y346819D01*
X-107777Y346846D01*
X-107803Y346869D01*
X-107921Y347018D01*
X-108044Y347165D01*
X-108061Y347195D01*
X-108082Y347222D01*
X-108172Y347390D01*
X-108267Y347556D01*
X-108279Y347588D01*
X-108295Y347619D01*
X-108354Y347800D01*
X-108418Y347980D01*
X-108423Y348014D01*
X-108434Y348047D01*
X-108460Y348236D01*
X-108491Y348424D01*
X-108491Y348459D01*
X-108495Y348493D01*
X-108488Y348684D01*
X-108485Y348874D01*
X-108479Y348909D01*
X-108477Y348943D01*
X-108436Y349129D01*
X-108400Y349317D01*
X-108387Y349349D01*
X-108380Y349383D01*
X-108306Y349559D01*
X-108237Y349737D01*
X-108219Y349766D01*
X-108206Y349798D01*
X-108102Y349958D01*
X-108003Y350121D01*
X-107980Y350147D01*
X-107962Y350176D01*
X-107755Y350411D01*
X-103765Y354400D01*
X-101599Y359629D01*
X-101599Y365287D01*
X-103765Y370516D01*
X-107755Y374505D01*
X-107777Y374532D01*
X-107803Y374555D01*
X-107921Y374704D01*
X-108044Y374851D01*
X-108061Y374881D01*
X-108082Y374908D01*
X-108172Y375076D01*
X-108267Y375242D01*
X-108279Y375274D01*
X-108295Y375305D01*
X-108354Y375486D01*
X-108418Y375666D01*
X-108423Y375700D01*
X-108434Y375733D01*
X-108460Y375922D01*
X-108491Y376110D01*
X-108491Y376145D01*
X-108495Y376179D01*
X-108488Y376370D01*
X-108485Y376560D01*
X-108479Y376595D01*
X-108477Y376629D01*
X-108436Y376815D01*
X-108400Y377003D01*
X-108387Y377035D01*
X-108380Y377069D01*
X-108306Y377245D01*
X-108237Y377423D01*
X-108219Y377452D01*
X-108206Y377484D01*
X-108102Y377644D01*
X-108003Y377807D01*
X-107980Y377833D01*
X-107962Y377862D01*
X-107755Y378097D01*
X-103765Y382086D01*
X-101599Y387315D01*
X-101599Y391963D01*
X-101588Y392093D01*
X-101586Y392223D01*
X-101568Y392316D01*
X-101559Y392412D01*
X-101525Y392537D01*
X-101500Y392665D01*
X-101466Y392754D01*
X-101441Y392846D01*
X-101385Y392963D01*
X-101338Y393085D01*
X-101288Y393167D01*
X-101247Y393253D01*
X-101172Y393358D01*
X-101104Y393470D01*
X-101041Y393541D01*
X-100985Y393619D01*
X-100892Y393709D01*
X-100806Y393807D01*
X-100731Y393866D01*
X-100663Y393933D01*
X-100555Y394006D01*
X-100453Y394086D01*
X-100369Y394131D01*
X-100290Y394185D01*
X-100171Y394238D01*
X-100056Y394299D01*
X-99965Y394328D01*
X-99878Y394367D01*
X-99751Y394398D01*
X-99628Y394438D01*
X-99533Y394451D01*
X-99440Y394474D01*
X-99311Y394482D01*
X-99182Y394500D01*
X-99086Y394496D01*
X-98991Y394501D01*
X-98862Y394486D01*
X-98732Y394481D01*
X-98639Y394460D01*
X-98544Y394449D01*
X-98419Y394412D01*
X-98292Y394384D01*
X-98204Y394347D01*
X-98113Y394319D01*
X-97997Y394260D01*
X-97877Y394210D01*
X-97797Y394158D01*
X-97711Y394115D01*
X-97608Y394036D01*
X-97499Y393966D01*
X-97401Y393880D01*
X-97353Y393843D01*
X-97322Y393810D01*
X-97264Y393759D01*
X-95434Y391928D01*
X-93975Y391324D01*
X-93948Y391310D01*
X-93919Y391300D01*
X-93748Y391205D01*
X-93576Y391115D01*
X-93552Y391097D01*
X-93525Y391082D01*
X-93374Y390959D01*
X-93220Y390839D01*
X-93200Y390817D01*
X-93176Y390798D01*
X-93049Y390650D01*
X-92918Y390505D01*
X-92902Y390479D01*
X-92882Y390456D01*
X-92783Y390288D01*
X-92680Y390123D01*
X-92669Y390095D01*
X-92654Y390069D01*
X-92586Y389885D01*
X-92514Y389705D01*
X-92508Y389675D01*
X-92497Y389646D01*
X-92462Y389454D01*
X-92424Y389263D01*
X-92423Y389233D01*
X-92417Y389203D01*
X-92417Y389009D01*
X-92413Y388813D01*
X-92417Y388783D01*
X-92417Y388753D01*
X-92452Y388562D01*
X-92482Y388368D01*
X-92491Y388339D01*
X-92497Y388310D01*
X-92564Y388128D01*
X-92628Y387943D01*
X-92643Y387916D01*
X-92653Y387888D01*
X-92752Y387719D01*
X-92847Y387549D01*
X-92866Y387526D01*
X-92882Y387500D01*
X-93009Y387351D01*
X-93133Y387201D01*
X-93156Y387181D01*
X-93175Y387158D01*
X-93326Y387035D01*
X-93475Y386908D01*
X-93501Y386893D01*
X-93525Y386874D01*
X-93750Y386741D01*
X-95319Y385601D01*
X-96676Y384244D01*
X-97804Y382691D01*
X-98676Y380981D01*
X-99268Y379156D01*
X-99319Y378840D01*
X-87376Y378840D01*
X-87342Y378837D01*
X-87307Y378839D01*
X-87118Y378817D01*
X-86928Y378800D01*
X-86894Y378791D01*
X-86860Y378787D01*
X-86677Y378732D01*
X-86493Y378682D01*
X-86462Y378667D01*
X-86429Y378657D01*
X-86258Y378570D01*
X-86087Y378489D01*
X-86059Y378468D01*
X-86028Y378453D01*
X-85876Y378337D01*
X-85721Y378226D01*
X-85720Y378226D01*
X-85696Y378201D01*
X-85669Y378181D01*
X-85669Y378180D01*
X-85668Y378180D01*
X-85539Y378040D01*
X-85406Y377903D01*
X-85387Y377875D01*
X-85363Y377849D01*
X-85261Y377688D01*
X-85154Y377530D01*
X-85140Y377499D01*
X-85121Y377469D01*
X-85049Y377293D01*
X-84972Y377118D01*
X-84964Y377085D01*
X-84951Y377053D01*
X-84910Y376866D01*
X-84865Y376681D01*
X-84863Y376647D01*
X-84856Y376613D01*
X-84837Y376301D01*
X-84837Y348615D01*
X-84837Y320929D01*
X-84837Y293243D01*
X-84837Y265557D01*
X-84837Y237871D01*
X-84837Y210185D01*
X-84837Y182499D01*
X-84837Y154813D01*
X-84837Y127127D01*
X-84840Y127093D01*
X-84838Y127058D01*
X-84860Y126869D01*
X-84876Y126679D01*
X-84886Y126645D01*
X-84890Y126611D01*
X-84945Y126428D01*
X-84995Y126244D01*
X-85010Y126213D01*
X-85020Y126180D01*
X-85107Y126009D01*
X-85188Y125838D01*
X-85209Y125810D01*
X-85224Y125779D01*
X-85339Y125627D01*
X-85451Y125472D01*
X-85451Y125471D01*
X-85475Y125447D01*
X-85496Y125420D01*
X-85497Y125420D01*
X-85497Y125419D01*
X-85637Y125290D01*
X-85774Y125157D01*
X-85802Y125138D01*
X-85828Y125114D01*
X-85989Y125012D01*
X-86147Y124905D01*
X-86178Y124891D01*
X-86208Y124872D01*
X-86384Y124800D01*
X-86559Y124723D01*
X-86592Y124715D01*
X-86624Y124702D01*
X-86811Y124661D01*
X-86996Y124616D01*
X-87030Y124614D01*
X-87064Y124607D01*
X-87376Y124588D01*
X-99319Y124588D01*
X-99268Y124272D01*
X-98676Y122447D01*
X-97804Y120737D01*
X-96676Y119184D01*
X-95319Y117827D01*
X-93766Y116699D01*
X-92056Y115827D01*
X-90231Y115235D01*
X-89821Y115170D01*
X-89670Y115132D01*
X-89517Y115102D01*
X-89452Y115077D01*
X-89384Y115060D01*
X-89243Y114996D01*
X-89097Y114940D01*
X-89037Y114904D01*
X-88974Y114875D01*
X-88845Y114787D01*
X-88712Y114706D01*
X-88660Y114660D01*
X-88603Y114620D01*
X-88492Y114511D01*
X-88375Y114408D01*
X-88331Y114353D01*
X-88282Y114304D01*
X-88192Y114177D01*
X-88095Y114054D01*
X-88062Y113993D01*
X-88022Y113936D01*
X-87956Y113795D01*
X-87883Y113658D01*
X-87861Y113591D01*
X-87832Y113528D01*
X-87792Y113378D01*
X-87743Y113229D01*
X-87734Y113161D01*
X-87716Y113093D01*
X-87703Y112938D01*
X-87682Y112783D01*
X-87685Y112714D01*
X-87679Y112645D01*
X-87694Y112489D01*
X-87700Y112333D01*
X-87715Y112266D01*
X-87722Y112196D01*
X-87764Y112046D01*
X-87798Y111894D01*
X-87825Y111830D01*
X-87844Y111763D01*
X-87911Y111622D01*
X-87972Y111478D01*
X-88009Y111420D01*
X-88040Y111357D01*
X-88131Y111231D01*
X-88216Y111100D01*
X-88275Y111033D01*
X-88304Y110993D01*
X-88346Y110953D01*
X-88423Y110866D01*
X-94912Y104376D01*
X-95039Y104271D01*
X-95160Y104159D01*
X-95211Y104127D01*
X-95258Y104088D01*
X-95401Y104006D01*
X-95539Y103918D01*
X-95596Y103894D01*
X-95649Y103864D01*
X-95804Y103809D01*
X-95956Y103747D01*
X-96016Y103734D01*
X-96073Y103713D01*
X-96235Y103687D01*
X-96396Y103652D01*
X-96473Y103647D01*
X-96517Y103640D01*
X-96578Y103641D01*
X-96708Y103633D01*
X-100625Y103633D01*
X-100707Y103640D01*
X-100789Y103638D01*
X-100930Y103660D01*
X-101073Y103673D01*
X-101153Y103694D01*
X-101234Y103707D01*
X-101369Y103753D01*
X-101508Y103791D01*
X-101582Y103827D01*
X-101660Y103853D01*
X-101785Y103923D01*
X-101914Y103985D01*
X-101981Y104032D01*
X-102053Y104073D01*
X-102164Y104163D01*
X-102280Y104247D01*
X-102338Y104306D01*
X-102401Y104358D01*
X-102494Y104467D01*
X-102594Y104569D01*
X-102641Y104638D01*
X-102694Y104700D01*
X-102766Y104824D01*
X-102846Y104942D01*
X-102880Y105018D01*
X-102921Y105089D01*
X-102971Y105223D01*
X-103029Y105354D01*
X-103048Y105434D01*
X-103077Y105512D01*
X-103101Y105653D01*
X-103135Y105792D01*
X-103140Y105874D01*
X-103155Y105955D01*
X-103154Y106098D01*
X-103163Y106241D01*
X-103153Y106323D01*
X-103153Y106405D01*
X-103128Y106546D01*
X-103111Y106688D01*
X-103087Y106767D01*
X-103072Y106848D01*
X-102992Y107082D01*
X-102981Y107119D01*
X-102976Y107129D01*
X-102971Y107144D01*
X-101599Y110455D01*
X-101599Y116113D01*
X-103765Y121342D01*
X-107755Y125331D01*
X-107777Y125358D01*
X-107803Y125381D01*
X-107921Y125530D01*
X-108044Y125677D01*
X-108061Y125707D01*
X-108082Y125734D01*
X-108172Y125902D01*
X-108267Y126068D01*
X-108279Y126100D01*
X-108295Y126131D01*
X-108354Y126312D01*
X-108418Y126492D01*
X-108423Y126526D01*
X-108434Y126559D01*
X-108460Y126748D01*
X-108491Y126936D01*
X-108491Y126971D01*
X-108495Y127005D01*
X-108488Y127196D01*
X-108485Y127386D01*
X-108479Y127421D01*
X-108477Y127455D01*
X-108436Y127641D01*
X-108400Y127829D01*
X-108387Y127861D01*
X-108380Y127895D01*
X-108306Y128071D01*
X-108237Y128249D01*
X-108219Y128278D01*
X-108206Y128310D01*
X-108102Y128470D01*
X-108003Y128633D01*
X-107980Y128659D01*
X-107962Y128688D01*
X-107755Y128923D01*
X-103765Y132912D01*
X-101599Y138141D01*
X-101599Y143799D01*
X-103765Y149028D01*
X-107755Y153017D01*
X-107777Y153044D01*
X-107803Y153067D01*
X-107921Y153216D01*
X-108044Y153363D01*
X-108061Y153393D01*
X-108082Y153420D01*
X-108172Y153588D01*
X-108267Y153754D01*
X-108279Y153786D01*
X-108295Y153817D01*
X-108354Y153998D01*
X-108418Y154178D01*
X-108423Y154212D01*
X-108434Y154245D01*
X-108460Y154434D01*
X-108491Y154622D01*
X-108491Y154657D01*
X-108495Y154691D01*
X-108488Y154882D01*
X-108485Y155072D01*
X-108479Y155107D01*
X-108477Y155141D01*
X-108436Y155327D01*
X-108400Y155515D01*
X-108387Y155547D01*
X-108380Y155581D01*
X-108306Y155757D01*
X-108237Y155935D01*
X-108219Y155964D01*
X-108206Y155996D01*
X-108102Y156156D01*
X-108003Y156319D01*
X-107980Y156345D01*
X-107962Y156374D01*
X-107755Y156609D01*
X-103765Y160598D01*
X-101599Y165827D01*
X-101599Y171485D01*
X-103765Y176714D01*
X-107755Y180703D01*
X-107777Y180730D01*
X-107803Y180753D01*
X-107921Y180902D01*
X-108044Y181049D01*
X-108061Y181079D01*
X-108082Y181106D01*
X-108172Y181274D01*
X-108267Y181440D01*
X-108279Y181472D01*
X-108295Y181503D01*
X-108354Y181684D01*
X-108418Y181864D01*
X-108423Y181898D01*
X-108434Y181931D01*
X-108460Y182120D01*
X-108491Y182308D01*
X-108491Y182343D01*
X-108495Y182377D01*
X-108488Y182568D01*
X-108485Y182758D01*
X-108479Y182793D01*
X-108477Y182827D01*
X-108436Y183013D01*
X-108400Y183201D01*
X-108387Y183233D01*
X-108380Y183267D01*
X-108306Y183443D01*
X-108237Y183621D01*
X-108219Y183650D01*
X-108206Y183682D01*
X-108102Y183842D01*
X-108003Y184005D01*
X-107980Y184031D01*
X-107962Y184060D01*
X-107755Y184295D01*
X-103765Y188284D01*
X-101599Y193513D01*
X-101599Y199171D01*
X-103765Y204400D01*
X-107766Y208401D01*
X-109225Y209005D01*
X-109252Y209019D01*
X-109281Y209029D01*
X-109452Y209124D01*
X-109624Y209214D01*
X-109648Y209232D01*
X-109675Y209247D01*
X-109826Y209370D01*
X-109980Y209490D01*
X-110000Y209512D01*
X-110024Y209531D01*
X-110151Y209679D01*
X-110282Y209824D01*
X-110298Y209850D01*
X-110318Y209873D01*
X-110417Y210041D01*
X-110520Y210206D01*
X-110531Y210234D01*
X-110546Y210260D01*
X-110614Y210444D01*
X-110686Y210624D01*
X-110692Y210654D01*
X-110703Y210683D01*
X-110738Y210875D01*
X-110776Y211066D01*
X-110777Y211096D01*
X-110783Y211126D01*
X-110783Y211320D01*
X-110787Y211516D01*
X-110783Y211546D01*
X-110783Y211576D01*
X-110748Y211767D01*
X-110718Y211961D01*
X-110709Y211990D01*
X-110703Y212019D01*
X-110636Y212201D01*
X-110572Y212386D01*
X-110557Y212413D01*
X-110547Y212441D01*
X-110448Y212610D01*
X-110353Y212780D01*
X-110334Y212803D01*
X-110318Y212829D01*
X-110191Y212978D01*
X-110067Y213128D01*
X-110044Y213148D01*
X-110025Y213171D01*
X-109874Y213294D01*
X-109725Y213421D01*
X-109699Y213436D01*
X-109675Y213455D01*
X-109450Y213588D01*
X-107881Y214728D01*
X-106524Y216085D01*
X-105396Y217638D01*
X-104524Y219348D01*
X-103932Y221173D01*
X-103881Y221489D01*
X-115824Y221489D01*
X-127767Y221489D01*
X-127716Y221173D01*
X-127124Y219348D01*
X-126252Y217638D01*
X-125124Y216085D01*
X-123767Y214728D01*
X-122205Y213593D01*
X-122188Y213586D01*
X-122026Y213478D01*
X-121860Y213375D01*
X-121838Y213354D01*
X-121813Y213337D01*
X-121672Y213203D01*
X-121527Y213072D01*
X-121509Y213048D01*
X-121487Y213027D01*
X-121371Y212869D01*
X-121253Y212715D01*
X-121239Y212688D01*
X-121221Y212663D01*
X-121135Y212488D01*
X-121045Y212315D01*
X-121036Y212286D01*
X-121023Y212259D01*
X-120970Y212071D01*
X-120912Y211885D01*
X-120908Y211855D01*
X-120900Y211826D01*
X-120881Y211632D01*
X-120857Y211438D01*
X-120859Y211408D01*
X-120856Y211378D01*
X-120871Y211183D01*
X-120881Y210989D01*
X-120888Y210959D01*
X-120891Y210929D01*
X-120940Y210740D01*
X-120985Y210550D01*
X-120997Y210523D01*
X-121005Y210493D01*
X-121087Y210316D01*
X-121164Y210137D01*
X-121181Y210112D01*
X-121194Y210085D01*
X-121306Y209925D01*
X-121414Y209763D01*
X-121435Y209741D01*
X-121452Y209716D01*
X-121591Y209578D01*
X-121726Y209438D01*
X-121750Y209420D01*
X-121772Y209398D01*
X-121932Y209288D01*
X-122090Y209173D01*
X-122117Y209160D01*
X-122142Y209142D01*
X-122423Y209005D01*
X-123882Y208401D01*
X-128084Y204198D01*
X-128211Y204093D01*
X-128331Y203981D01*
X-128383Y203949D01*
X-128430Y203910D01*
X-128572Y203828D01*
X-128711Y203740D01*
X-128768Y203716D01*
X-128821Y203686D01*
X-128976Y203631D01*
X-129128Y203569D01*
X-129187Y203556D01*
X-129245Y203535D01*
X-129407Y203509D01*
X-129568Y203474D01*
X-129645Y203469D01*
X-129689Y203462D01*
X-129750Y203463D01*
X-129880Y203455D01*
X-550484Y203455D01*
X-550648Y203469D01*
X-550812Y203476D01*
X-550872Y203489D01*
X-550933Y203495D01*
X-551091Y203538D01*
X-551252Y203574D01*
X-551308Y203597D01*
X-551367Y203613D01*
X-551515Y203684D01*
X-551667Y203747D01*
X-551719Y203780D01*
X-551774Y203807D01*
X-551907Y203902D01*
X-552045Y203992D01*
X-552103Y204043D01*
X-552140Y204069D01*
X-552182Y204112D01*
X-552280Y204198D01*
X-734332Y386250D01*
X-734423Y386359D01*
X-734459Y386397D01*
X-734469Y386411D01*
X-734549Y386498D01*
X-734581Y386549D01*
X-734620Y386596D01*
X-734702Y386738D01*
X-734790Y386877D01*
X-734814Y386934D01*
X-734844Y386987D01*
X-734899Y387142D01*
X-734961Y387294D01*
X-734974Y387353D01*
X-734995Y387411D01*
X-735021Y387573D01*
X-735056Y387734D01*
X-735061Y387811D01*
X-735068Y387855D01*
X-735067Y387916D01*
X-735075Y388046D01*
X-735075Y393989D01*
X-737241Y399218D01*
X-740088Y402064D01*
X-740110Y402091D01*
X-740136Y402114D01*
X-740254Y402263D01*
X-740377Y402410D01*
X-740394Y402440D01*
X-740415Y402467D01*
X-740505Y402635D01*
X-740600Y402801D01*
X-740611Y402833D01*
X-740628Y402864D01*
X-740687Y403045D01*
X-740751Y403225D01*
X-740756Y403259D01*
X-740767Y403292D01*
X-740793Y403481D01*
X-740824Y403669D01*
X-740824Y403704D01*
X-740828Y403738D01*
X-740821Y403929D01*
X-740818Y404120D01*
X-740812Y404154D01*
X-740810Y404188D01*
X-740769Y404374D01*
X-740733Y404562D01*
X-740720Y404594D01*
X-740713Y404628D01*
X-740639Y404803D01*
X-740570Y404982D01*
X-740552Y405011D01*
X-740539Y405043D01*
X-740436Y405203D01*
X-740336Y405366D01*
X-740313Y405392D01*
X-740295Y405421D01*
X-740088Y405656D01*
X-737241Y408502D01*
X-735075Y413731D01*
X-735075Y419389D01*
X-737241Y424618D01*
X-741242Y428619D01*
X-746471Y430785D01*
X-752129Y430785D01*
X-757358Y428619D01*
X-761359Y424618D01*
X-763525Y419389D01*
X-763525Y413446D01*
X-763539Y413282D01*
X-763546Y413118D01*
X-763559Y413058D01*
X-763565Y412997D01*
X-763608Y412839D01*
X-763644Y412678D01*
X-763667Y412622D01*
X-763683Y412563D01*
X-763754Y412415D01*
X-763817Y412263D01*
X-763850Y412211D01*
X-763877Y412156D01*
X-763972Y412023D01*
X-764062Y411885D01*
X-764113Y411827D01*
X-764139Y411790D01*
X-764182Y411748D01*
X-764268Y411650D01*
X-765792Y410126D01*
X-765892Y410043D01*
X-765985Y409952D01*
X-766065Y409899D01*
X-766138Y409837D01*
X-766251Y409773D01*
X-766358Y409700D01*
X-766446Y409662D01*
X-766529Y409614D01*
X-766651Y409571D01*
X-766770Y409518D01*
X-766863Y409495D01*
X-766953Y409463D01*
X-767082Y409442D01*
X-767208Y409411D01*
X-767303Y409405D01*
X-767397Y409390D01*
X-767528Y409392D01*
X-767657Y409384D01*
X-767752Y409395D01*
X-767848Y409396D01*
X-767975Y409421D01*
X-768104Y409436D01*
X-768196Y409463D01*
X-768290Y409482D01*
X-768411Y409528D01*
X-768535Y409566D01*
X-768620Y409609D01*
X-768710Y409644D01*
X-768821Y409711D01*
X-768937Y409770D01*
X-769013Y409828D01*
X-769094Y409878D01*
X-769192Y409964D01*
X-769295Y410042D01*
X-769360Y410113D01*
X-769432Y410176D01*
X-769512Y410278D01*
X-769601Y410373D01*
X-769652Y410454D01*
X-769711Y410529D01*
X-769772Y410643D01*
X-769842Y410753D01*
X-769879Y410842D01*
X-769924Y410926D01*
X-769964Y411050D01*
X-770013Y411170D01*
X-770033Y411263D01*
X-770063Y411354D01*
X-770081Y411483D01*
X-770108Y411610D01*
X-770116Y411740D01*
X-770124Y411800D01*
X-770123Y411845D01*
X-770127Y411922D01*
X-770127Y552262D01*
X-770113Y552426D01*
X-770106Y552590D01*
X-770093Y552650D01*
X-770087Y552711D01*
X-770044Y552869D01*
X-770008Y553030D01*
X-769985Y553086D01*
X-769969Y553145D01*
X-769898Y553293D01*
X-769835Y553445D01*
X-769802Y553497D01*
X-769775Y553552D01*
X-769680Y553685D01*
X-769590Y553823D01*
X-769539Y553881D01*
X-769513Y553918D01*
X-769470Y553960D01*
X-769384Y554058D01*
X-767368Y556073D01*
X-767304Y556126D01*
X-767248Y556186D01*
X-767132Y556270D01*
X-767022Y556362D01*
X-766951Y556403D01*
X-766884Y556452D01*
X-766756Y556515D01*
X-766631Y556586D01*
X-766554Y556613D01*
X-766480Y556649D01*
X-766342Y556689D01*
X-766207Y556737D01*
X-766126Y556750D01*
X-766047Y556772D01*
X-765904Y556787D01*
X-765763Y556810D01*
X-765680Y556809D01*
X-765598Y556817D01*
X-765456Y556806D01*
X-765313Y556804D01*
X-765232Y556788D01*
X-765150Y556782D01*
X-765011Y556746D01*
X-764871Y556718D01*
X-764794Y556689D01*
X-764714Y556668D01*
X-764584Y556608D01*
X-764451Y556556D01*
X-764380Y556513D01*
X-764305Y556479D01*
X-764188Y556397D01*
X-764066Y556322D01*
X-764004Y556268D01*
X-763937Y556220D01*
X-763836Y556119D01*
X-763728Y556024D01*
X-763677Y555959D01*
X-763619Y555901D01*
X-763538Y555783D01*
X-763449Y555671D01*
X-763410Y555598D01*
X-763363Y555530D01*
X-763255Y555309D01*
X-763236Y555274D01*
X-763233Y555264D01*
X-763226Y555250D01*
X-761359Y550742D01*
X-758512Y547896D01*
X-758490Y547869D01*
X-758464Y547846D01*
X-758346Y547697D01*
X-758223Y547550D01*
X-758206Y547520D01*
X-758185Y547493D01*
X-758095Y547325D01*
X-758000Y547159D01*
X-757989Y547127D01*
X-757972Y547096D01*
X-757913Y546915D01*
X-757849Y546735D01*
X-757844Y546701D01*
X-757833Y546668D01*
X-757807Y546479D01*
X-757776Y546291D01*
X-757776Y546256D01*
X-757772Y546222D01*
X-757779Y546031D01*
X-757782Y545840D01*
X-757788Y545806D01*
X-757790Y545772D01*
X-757831Y545586D01*
X-757867Y545398D01*
X-757880Y545366D01*
X-757887Y545332D01*
X-757961Y545157D01*
X-758030Y544978D01*
X-758048Y544949D01*
X-758061Y544917D01*
X-758164Y544757D01*
X-758264Y544594D01*
X-758287Y544568D01*
X-758305Y544539D01*
X-758512Y544304D01*
X-761359Y541458D01*
X-763525Y536229D01*
X-763525Y530571D01*
X-761359Y525342D01*
X-758512Y522496D01*
X-758490Y522469D01*
X-758464Y522446D01*
X-758346Y522297D01*
X-758223Y522150D01*
X-758206Y522120D01*
X-758185Y522093D01*
X-758095Y521925D01*
X-758000Y521759D01*
X-757988Y521727D01*
X-757972Y521696D01*
X-757913Y521515D01*
X-757849Y521335D01*
X-757844Y521301D01*
X-757833Y521268D01*
X-757807Y521079D01*
X-757776Y520891D01*
X-757776Y520856D01*
X-757772Y520822D01*
X-757779Y520631D01*
X-757782Y520441D01*
X-757788Y520406D01*
X-757790Y520372D01*
X-757831Y520186D01*
X-757867Y519998D01*
X-757880Y519966D01*
X-757887Y519932D01*
X-757961Y519756D01*
X-758030Y519578D01*
X-758048Y519549D01*
X-758061Y519517D01*
X-758165Y519356D01*
X-758264Y519194D01*
X-758287Y519168D01*
X-758305Y519139D01*
X-758512Y518904D01*
X-761359Y516058D01*
X-763525Y510829D01*
X-763525Y505171D01*
X-761359Y499942D01*
X-758512Y497096D01*
X-758490Y497069D01*
X-758464Y497046D01*
X-758346Y496897D01*
X-758223Y496750D01*
X-758206Y496720D01*
X-758185Y496693D01*
X-758095Y496525D01*
X-758000Y496359D01*
X-757988Y496327D01*
X-757972Y496296D01*
X-757913Y496115D01*
X-757849Y495935D01*
X-757844Y495901D01*
X-757833Y495868D01*
X-757807Y495679D01*
X-757776Y495491D01*
X-757776Y495456D01*
X-757772Y495422D01*
X-757779Y495231D01*
X-757782Y495041D01*
X-757788Y495006D01*
X-757790Y494972D01*
X-757831Y494786D01*
X-757867Y494598D01*
X-757880Y494566D01*
X-757887Y494532D01*
X-757961Y494356D01*
X-758030Y494178D01*
X-758048Y494149D01*
X-758061Y494117D01*
X-758165Y493956D01*
X-758264Y493794D01*
X-758287Y493768D01*
X-758305Y493739D01*
X-758512Y493504D01*
X-761359Y490658D01*
X-763525Y485429D01*
X-763525Y479771D01*
X-761359Y474542D01*
X-758512Y471696D01*
X-758490Y471669D01*
X-758464Y471646D01*
X-758346Y471497D01*
X-758223Y471350D01*
X-758206Y471320D01*
X-758185Y471293D01*
X-758095Y471125D01*
X-758000Y470959D01*
X-757988Y470927D01*
X-757972Y470896D01*
X-757913Y470715D01*
X-757849Y470535D01*
X-757844Y470501D01*
X-757833Y470468D01*
X-757807Y470279D01*
X-757776Y470091D01*
X-757776Y470056D01*
X-757772Y470022D01*
X-757779Y469831D01*
X-757782Y469641D01*
X-757788Y469606D01*
X-757790Y469572D01*
X-757831Y469386D01*
X-757867Y469198D01*
X-757880Y469166D01*
X-757887Y469132D01*
X-757961Y468956D01*
X-758030Y468778D01*
X-758048Y468749D01*
X-758061Y468717D01*
X-758165Y468556D01*
X-758264Y468394D01*
X-758287Y468368D01*
X-758305Y468339D01*
X-758512Y468104D01*
X-761359Y465258D01*
X-763525Y460029D01*
X-763525Y454371D01*
X-761359Y449142D01*
X-757358Y445141D01*
X-752129Y442975D01*
X-746471Y442975D01*
X-741242Y445141D01*
X-737241Y449142D01*
X-735075Y454371D01*
X-735075Y460029D01*
X-737241Y465258D01*
X-740088Y468104D01*
X-740110Y468131D01*
X-740136Y468154D01*
X-740254Y468303D01*
X-740377Y468450D01*
X-740394Y468480D01*
X-740415Y468507D01*
X-740505Y468675D01*
X-740600Y468841D01*
X-740611Y468873D01*
X-740628Y468904D01*
X-740687Y469085D01*
X-740751Y469265D01*
X-740756Y469299D01*
X-740767Y469332D01*
X-740793Y469521D01*
X-740824Y469709D01*
X-740824Y469744D01*
X-740828Y469778D01*
X-740821Y469969D01*
X-740818Y470160D01*
X-740812Y470194D01*
X-740810Y470228D01*
X-740769Y470414D01*
X-740733Y470602D01*
X-740720Y470634D01*
X-740713Y470668D01*
X-740639Y470843D01*
X-740570Y471022D01*
X-740552Y471051D01*
X-740539Y471083D01*
X-740436Y471243D01*
X-740336Y471406D01*
X-740313Y471432D01*
X-740295Y471461D01*
X-740088Y471696D01*
X-737241Y474542D01*
X-735075Y479771D01*
X-735075Y485429D01*
X-737241Y490658D01*
X-740088Y493504D01*
X-740110Y493531D01*
X-740136Y493554D01*
X-740254Y493703D01*
X-740377Y493850D01*
X-740394Y493880D01*
X-740415Y493907D01*
X-740505Y494075D01*
X-740600Y494241D01*
X-740611Y494273D01*
X-740628Y494304D01*
X-740687Y494485D01*
X-740751Y494665D01*
X-740756Y494699D01*
X-740767Y494732D01*
X-740793Y494921D01*
X-740824Y495109D01*
X-740824Y495144D01*
X-740828Y495178D01*
X-740821Y495369D01*
X-740818Y495560D01*
X-740812Y495594D01*
X-740810Y495628D01*
X-740769Y495814D01*
X-740733Y496002D01*
X-740720Y496034D01*
X-740713Y496068D01*
X-740639Y496243D01*
X-740570Y496422D01*
X-740552Y496451D01*
X-740539Y496483D01*
X-740436Y496643D01*
X-740336Y496806D01*
X-740313Y496832D01*
X-740295Y496861D01*
X-740088Y497096D01*
X-737040Y500144D01*
X-736914Y500249D01*
X-736793Y500361D01*
X-736741Y500393D01*
X-736694Y500432D01*
X-736552Y500514D01*
X-736413Y500602D01*
X-736356Y500626D01*
X-736303Y500656D01*
X-736148Y500711D01*
X-735996Y500773D01*
X-735937Y500786D01*
X-735879Y500807D01*
X-735717Y500833D01*
X-735556Y500868D01*
X-735479Y500873D01*
X-735435Y500880D01*
X-735374Y500879D01*
X-735244Y500887D01*
X-677098Y500887D01*
X-676934Y500873D01*
X-676770Y500866D01*
X-676710Y500853D01*
X-676649Y500847D01*
X-676491Y500804D01*
X-676330Y500768D01*
X-676274Y500745D01*
X-676215Y500729D01*
X-676067Y500658D01*
X-675915Y500595D01*
X-675863Y500562D01*
X-675808Y500535D01*
X-675675Y500440D01*
X-675537Y500350D01*
X-675479Y500299D01*
X-675442Y500273D01*
X-675400Y500230D01*
X-675302Y500144D01*
X-660516Y485358D01*
X-660411Y485231D01*
X-660299Y485110D01*
X-660267Y485059D01*
X-660228Y485012D01*
X-660146Y484870D01*
X-660058Y484731D01*
X-660034Y484674D01*
X-660004Y484621D01*
X-659949Y484466D01*
X-659887Y484314D01*
X-659874Y484255D01*
X-659853Y484197D01*
X-659827Y484035D01*
X-659792Y483874D01*
X-659787Y483797D01*
X-659780Y483753D01*
X-659781Y483692D01*
X-659773Y483562D01*
X-659773Y480199D01*
X-657935Y475761D01*
X-654539Y472365D01*
X-650101Y470527D01*
X-645299Y470527D01*
X-640861Y472365D01*
X-637465Y475761D01*
X-635627Y480199D01*
X-635627Y485001D01*
X-637465Y489439D01*
X-640861Y492835D01*
X-645299Y494673D01*
X-648662Y494673D01*
X-648826Y494687D01*
X-648990Y494694D01*
X-649050Y494707D01*
X-649111Y494713D01*
X-649269Y494756D01*
X-649430Y494792D01*
X-649486Y494815D01*
X-649545Y494831D01*
X-649693Y494902D01*
X-649845Y494965D01*
X-649897Y494998D01*
X-649952Y495025D01*
X-650085Y495120D01*
X-650223Y495210D01*
X-650281Y495261D01*
X-650318Y495287D01*
X-650360Y495330D01*
X-650458Y495416D01*
X-666713Y511672D01*
X-669071Y514030D01*
X-671685Y515113D01*
X-735244Y515113D01*
X-735408Y515127D01*
X-735572Y515134D01*
X-735632Y515147D01*
X-735693Y515153D01*
X-735851Y515196D01*
X-736012Y515232D01*
X-736068Y515255D01*
X-736127Y515271D01*
X-736275Y515342D01*
X-736427Y515405D01*
X-736479Y515438D01*
X-736534Y515465D01*
X-736667Y515560D01*
X-736805Y515650D01*
X-736863Y515701D01*
X-736900Y515727D01*
X-736942Y515770D01*
X-737040Y515856D01*
X-740088Y518904D01*
X-740110Y518931D01*
X-740136Y518954D01*
X-740254Y519103D01*
X-740377Y519250D01*
X-740394Y519280D01*
X-740415Y519307D01*
X-740505Y519475D01*
X-740600Y519641D01*
X-740611Y519673D01*
X-740628Y519704D01*
X-740687Y519885D01*
X-740751Y520065D01*
X-740756Y520099D01*
X-740767Y520132D01*
X-740793Y520321D01*
X-740824Y520509D01*
X-740824Y520544D01*
X-740828Y520578D01*
X-740821Y520769D01*
X-740818Y520960D01*
X-740812Y520994D01*
X-740810Y521028D01*
X-740769Y521214D01*
X-740733Y521402D01*
X-740720Y521434D01*
X-740713Y521468D01*
X-740639Y521643D01*
X-740570Y521822D01*
X-740552Y521851D01*
X-740539Y521883D01*
X-740436Y522043D01*
X-740336Y522206D01*
X-740313Y522232D01*
X-740295Y522261D01*
X-740088Y522496D01*
X-737040Y525544D01*
X-736914Y525649D01*
X-736793Y525761D01*
X-736741Y525793D01*
X-736694Y525832D01*
X-736552Y525914D01*
X-736413Y526002D01*
X-736356Y526026D01*
X-736303Y526056D01*
X-736148Y526111D01*
X-735996Y526173D01*
X-735937Y526186D01*
X-735879Y526207D01*
X-735717Y526233D01*
X-735556Y526268D01*
X-735479Y526273D01*
X-735435Y526280D01*
X-735374Y526279D01*
X-735244Y526287D01*
X-658712Y526287D01*
X-658549Y526273D01*
X-658384Y526266D01*
X-658325Y526253D01*
X-658264Y526247D01*
X-658105Y526204D01*
X-657945Y526168D01*
X-657888Y526145D01*
X-657830Y526129D01*
X-657682Y526058D01*
X-657529Y525995D01*
X-657478Y525962D01*
X-657423Y525935D01*
X-657290Y525840D01*
X-657151Y525750D01*
X-657093Y525699D01*
X-657057Y525673D01*
X-657014Y525630D01*
X-656917Y525544D01*
X-654539Y523165D01*
X-650101Y521327D01*
X-645299Y521327D01*
X-640861Y523165D01*
X-637465Y526561D01*
X-635627Y530999D01*
X-635627Y535801D01*
X-637465Y540239D01*
X-640861Y543635D01*
X-645299Y545473D01*
X-650101Y545473D01*
X-654539Y543635D01*
X-656917Y541256D01*
X-657043Y541151D01*
X-657164Y541039D01*
X-657215Y541007D01*
X-657262Y540968D01*
X-657405Y540886D01*
X-657544Y540798D01*
X-657600Y540774D01*
X-657653Y540744D01*
X-657808Y540689D01*
X-657960Y540627D01*
X-658020Y540614D01*
X-658078Y540593D01*
X-658240Y540567D01*
X-658401Y540532D01*
X-658478Y540527D01*
X-658522Y540520D01*
X-658583Y540521D01*
X-658712Y540513D01*
X-735244Y540513D01*
X-735408Y540527D01*
X-735572Y540534D01*
X-735632Y540547D01*
X-735693Y540553D01*
X-735852Y540596D01*
X-736012Y540632D01*
X-736068Y540655D01*
X-736127Y540671D01*
X-736275Y540742D01*
X-736427Y540805D01*
X-736479Y540838D01*
X-736534Y540865D01*
X-736667Y540960D01*
X-736805Y541050D01*
X-736863Y541101D01*
X-736900Y541127D01*
X-736942Y541170D01*
X-737040Y541256D01*
X-740088Y544304D01*
X-740110Y544331D01*
X-740136Y544354D01*
X-740254Y544503D01*
X-740377Y544650D01*
X-740394Y544680D01*
X-740415Y544707D01*
X-740505Y544875D01*
X-740600Y545041D01*
X-740612Y545073D01*
X-740628Y545104D01*
X-740687Y545285D01*
X-740751Y545465D01*
X-740756Y545499D01*
X-740767Y545532D01*
X-740793Y545721D01*
X-740824Y545909D01*
X-740824Y545944D01*
X-740828Y545978D01*
X-740821Y546169D01*
X-740818Y546359D01*
X-740812Y546394D01*
X-740810Y546428D01*
X-740769Y546614D01*
X-740733Y546802D01*
X-740720Y546834D01*
X-740713Y546868D01*
X-740639Y547044D01*
X-740570Y547222D01*
X-740552Y547251D01*
X-740539Y547283D01*
X-740435Y547444D01*
X-740336Y547606D01*
X-740313Y547632D01*
X-740295Y547661D01*
X-740088Y547896D01*
X-737241Y550742D01*
X-735075Y555971D01*
X-735075Y561914D01*
X-735061Y562078D01*
X-735054Y562242D01*
X-735041Y562302D01*
X-735035Y562363D01*
X-734992Y562521D01*
X-734956Y562682D01*
X-734933Y562738D01*
X-734917Y562797D01*
X-734846Y562945D01*
X-734783Y563097D01*
X-734750Y563149D01*
X-734723Y563204D01*
X-734628Y563337D01*
X-734538Y563475D01*
X-734487Y563533D01*
X-734461Y563570D01*
X-734418Y563612D01*
X-734332Y563710D01*
X-727848Y570193D01*
X-725490Y572551D01*
X-724407Y575165D01*
X-724407Y632018D01*
X-724396Y632147D01*
X-724394Y632278D01*
X-724376Y632371D01*
X-724367Y632467D01*
X-724333Y632592D01*
X-724308Y632720D01*
X-724274Y632809D01*
X-724249Y632901D01*
X-724193Y633018D01*
X-724146Y633140D01*
X-724096Y633222D01*
X-724055Y633308D01*
X-723980Y633413D01*
X-723912Y633524D01*
X-723849Y633596D01*
X-723793Y633674D01*
X-723700Y633765D01*
X-723614Y633862D01*
X-723539Y633921D01*
X-723471Y633988D01*
X-723363Y634061D01*
X-723261Y634141D01*
X-723177Y634186D01*
X-723098Y634240D01*
X-722979Y634292D01*
X-722864Y634354D01*
X-722773Y634383D01*
X-722686Y634422D01*
X-722559Y634453D01*
X-722436Y634493D01*
X-722341Y634506D01*
X-722248Y634529D01*
X-722119Y634537D01*
X-721990Y634554D01*
X-721894Y634551D01*
X-721799Y634556D01*
X-721670Y634541D01*
X-721540Y634536D01*
X-721447Y634515D01*
X-721352Y634504D01*
X-721227Y634467D01*
X-721100Y634438D01*
X-721012Y634402D01*
X-720921Y634374D01*
X-720805Y634315D01*
X-720685Y634265D01*
X-720604Y634213D01*
X-720519Y634170D01*
X-720416Y634091D01*
X-720307Y634021D01*
X-720209Y633934D01*
X-720161Y633898D01*
X-720130Y633865D01*
X-720072Y633814D01*
X-664429Y578170D01*
X-661815Y577087D01*
X-661012Y577087D01*
X-660849Y577073D01*
X-660684Y577066D01*
X-660625Y577053D01*
X-660564Y577047D01*
X-660405Y577004D01*
X-660245Y576968D01*
X-660188Y576945D01*
X-660130Y576929D01*
X-659981Y576858D01*
X-659829Y576795D01*
X-659778Y576762D01*
X-659723Y576735D01*
X-659589Y576640D01*
X-659451Y576550D01*
X-659393Y576499D01*
X-659357Y576473D01*
X-659314Y576430D01*
X-659217Y576344D01*
X-656839Y573965D01*
X-652401Y572127D01*
X-632599Y572127D01*
X-628161Y573965D01*
X-624765Y577361D01*
X-622927Y581799D01*
X-622927Y586601D01*
X-624765Y591039D01*
X-628161Y594435D01*
X-628449Y594554D01*
X-628565Y594614D01*
X-628684Y594666D01*
X-628764Y594718D01*
X-628848Y594762D01*
X-628951Y594842D01*
X-629060Y594914D01*
X-629129Y594980D01*
X-629204Y595038D01*
X-629291Y595135D01*
X-629386Y595224D01*
X-629442Y595302D01*
X-629506Y595372D01*
X-629575Y595483D01*
X-629652Y595588D01*
X-629693Y595674D01*
X-629744Y595755D01*
X-629792Y595875D01*
X-629849Y595992D01*
X-629875Y596084D01*
X-629911Y596173D01*
X-629937Y596301D01*
X-629972Y596426D01*
X-629982Y596520D01*
X-630001Y596614D01*
X-630004Y596744D01*
X-630017Y596874D01*
X-630009Y596969D01*
X-630012Y597064D01*
X-629992Y597193D01*
X-629981Y597323D01*
X-629957Y597415D01*
X-629943Y597509D01*
X-629900Y597632D01*
X-629867Y597758D01*
X-629827Y597845D01*
X-629796Y597935D01*
X-629733Y598049D01*
X-629678Y598167D01*
X-629623Y598245D01*
X-629577Y598328D01*
X-629495Y598429D01*
X-629420Y598536D01*
X-629352Y598603D01*
X-629292Y598677D01*
X-629193Y598761D01*
X-629101Y598853D01*
X-629022Y598907D01*
X-628949Y598969D01*
X-628837Y599035D01*
X-628730Y599109D01*
X-628613Y599166D01*
X-628561Y599197D01*
X-628519Y599212D01*
X-628449Y599246D01*
X-628161Y599365D01*
X-624765Y602761D01*
X-622927Y607199D01*
X-622927Y612001D01*
X-624765Y616439D01*
X-628161Y619835D01*
X-632599Y621673D01*
X-652401Y621673D01*
X-656839Y619835D01*
X-659217Y617456D01*
X-659343Y617351D01*
X-659464Y617239D01*
X-659516Y617207D01*
X-659562Y617168D01*
X-659705Y617086D01*
X-659844Y616998D01*
X-659900Y616974D01*
X-659953Y616944D01*
X-660108Y616889D01*
X-660260Y616827D01*
X-660320Y616814D01*
X-660378Y616793D01*
X-660540Y616767D01*
X-660701Y616732D01*
X-660778Y616727D01*
X-660822Y616720D01*
X-660882Y616721D01*
X-661012Y616713D01*
X-667832Y616713D01*
X-667996Y616727D01*
X-668160Y616734D01*
X-668220Y616747D01*
X-668281Y616753D01*
X-668439Y616796D01*
X-668600Y616832D01*
X-668656Y616855D01*
X-668715Y616871D01*
X-668863Y616942D01*
X-669015Y617005D01*
X-669067Y617038D01*
X-669122Y617065D01*
X-669255Y617160D01*
X-669393Y617250D01*
X-669451Y617301D01*
X-669488Y617327D01*
X-669530Y617370D01*
X-669628Y617456D01*
X-703744Y651572D01*
X-703849Y651699D01*
X-703961Y651820D01*
X-703993Y651871D01*
X-704032Y651918D01*
X-704114Y652061D01*
X-704202Y652199D01*
X-704226Y652256D01*
X-704256Y652309D01*
X-704311Y652464D01*
X-704373Y652616D01*
X-704386Y652676D01*
X-704407Y652733D01*
X-704433Y652895D01*
X-704468Y653056D01*
X-704473Y653133D01*
X-704480Y653177D01*
X-704479Y653238D01*
X-704487Y653368D01*
X-704487Y727278D01*
X-704473Y727442D01*
X-704466Y727607D01*
X-704453Y727666D01*
X-704447Y727727D01*
X-704404Y727886D01*
X-704368Y728046D01*
X-704345Y728102D01*
X-704329Y728161D01*
X-704258Y728309D01*
X-704195Y728462D01*
X-704162Y728513D01*
X-704135Y728568D01*
X-704040Y728701D01*
X-703950Y728840D01*
X-703899Y728898D01*
X-703873Y728934D01*
X-703830Y728977D01*
X-703744Y729074D01*
X-700133Y732685D01*
X-698074Y737656D01*
X-698074Y760944D01*
X-700133Y765915D01*
X-703938Y769721D01*
X-708909Y771780D01*
X-714291Y771780D01*
X-719262Y769721D01*
X-723067Y765915D01*
X-725126Y760944D01*
X-725126Y737656D01*
X-723067Y732685D01*
X-719456Y729074D01*
X-719351Y728948D01*
X-719239Y728827D01*
X-719207Y728775D01*
X-719168Y728729D01*
X-719086Y728586D01*
X-718998Y728447D01*
X-718974Y728391D01*
X-718944Y728338D01*
X-718889Y728183D01*
X-718827Y728031D01*
X-718814Y727971D01*
X-718793Y727913D01*
X-718767Y727751D01*
X-718732Y727590D01*
X-718727Y727513D01*
X-718720Y727469D01*
X-718721Y727408D01*
X-718713Y727278D01*
X-718713Y658702D01*
X-718724Y658573D01*
X-718726Y658442D01*
X-718744Y658349D01*
X-718753Y658253D01*
X-718787Y658128D01*
X-718812Y658000D01*
X-718846Y657911D01*
X-718871Y657819D01*
X-718927Y657702D01*
X-718974Y657580D01*
X-719024Y657498D01*
X-719065Y657412D01*
X-719140Y657307D01*
X-719208Y657196D01*
X-719271Y657124D01*
X-719327Y657046D01*
X-719420Y656955D01*
X-719506Y656858D01*
X-719581Y656799D01*
X-719649Y656732D01*
X-719757Y656659D01*
X-719859Y656579D01*
X-719943Y656534D01*
X-720022Y656480D01*
X-720141Y656428D01*
X-720256Y656366D01*
X-720347Y656337D01*
X-720434Y656298D01*
X-720561Y656267D01*
X-720684Y656227D01*
X-720779Y656214D01*
X-720872Y656191D01*
X-721001Y656183D01*
X-721130Y656166D01*
X-721226Y656169D01*
X-721321Y656164D01*
X-721450Y656179D01*
X-721580Y656184D01*
X-721673Y656205D01*
X-721768Y656216D01*
X-721893Y656253D01*
X-722020Y656282D01*
X-722108Y656318D01*
X-722199Y656346D01*
X-722315Y656405D01*
X-722435Y656455D01*
X-722516Y656507D01*
X-722601Y656550D01*
X-722704Y656629D01*
X-722813Y656699D01*
X-722911Y656786D01*
X-722959Y656822D01*
X-722990Y656855D01*
X-723048Y656906D01*
X-754144Y688002D01*
X-754249Y688129D01*
X-754361Y688250D01*
X-754393Y688301D01*
X-754432Y688348D01*
X-754514Y688491D01*
X-754602Y688629D01*
X-754626Y688686D01*
X-754656Y688739D01*
X-754711Y688894D01*
X-754773Y689046D01*
X-754786Y689106D01*
X-754807Y689163D01*
X-754833Y689325D01*
X-754868Y689486D01*
X-754873Y689563D01*
X-754880Y689607D01*
X-754879Y689668D01*
X-754887Y689798D01*
X-754887Y726878D01*
X-754873Y727042D01*
X-754866Y727207D01*
X-754853Y727266D01*
X-754847Y727327D01*
X-754804Y727486D01*
X-754768Y727646D01*
X-754745Y727702D01*
X-754729Y727761D01*
X-754658Y727909D01*
X-754595Y728062D01*
X-754562Y728113D01*
X-754535Y728168D01*
X-754440Y728301D01*
X-754350Y728440D01*
X-754299Y728498D01*
X-754273Y728534D01*
X-754230Y728577D01*
X-754144Y728674D01*
X-750133Y732685D01*
X-748074Y737656D01*
X-748074Y760944D01*
X-750133Y765915D01*
X-753938Y769721D01*
X-758909Y771780D01*
X-764291Y771780D01*
X-769262Y769721D01*
X-773067Y765915D01*
X-775126Y760944D01*
X-775126Y737656D01*
X-773067Y732685D01*
X-769856Y729474D01*
X-769751Y729348D01*
X-769639Y729227D01*
X-769607Y729175D01*
X-769568Y729129D01*
X-769486Y728986D01*
X-769398Y728847D01*
X-769374Y728791D01*
X-769344Y728738D01*
X-769289Y728583D01*
X-769227Y728431D01*
X-769214Y728371D01*
X-769193Y728313D01*
X-769167Y728151D01*
X-769132Y727990D01*
X-769127Y727913D01*
X-769120Y727869D01*
X-769121Y727808D01*
X-769113Y727678D01*
X-769113Y684385D01*
X-768030Y681771D01*
X-765672Y679413D01*
X-749470Y663212D01*
X-749387Y663112D01*
X-749296Y663019D01*
X-749243Y662939D01*
X-749181Y662866D01*
X-749117Y662753D01*
X-749044Y662646D01*
X-749006Y662558D01*
X-748958Y662475D01*
X-748915Y662353D01*
X-748862Y662234D01*
X-748839Y662141D01*
X-748807Y662051D01*
X-748786Y661922D01*
X-748755Y661796D01*
X-748749Y661701D01*
X-748734Y661607D01*
X-748736Y661476D01*
X-748728Y661347D01*
X-748739Y661252D01*
X-748740Y661156D01*
X-748765Y661029D01*
X-748780Y660900D01*
X-748807Y660808D01*
X-748826Y660714D01*
X-748872Y660593D01*
X-748910Y660469D01*
X-748953Y660384D01*
X-748988Y660294D01*
X-749055Y660183D01*
X-749114Y660067D01*
X-749172Y659991D01*
X-749222Y659910D01*
X-749308Y659812D01*
X-749386Y659709D01*
X-749457Y659644D01*
X-749520Y659572D01*
X-749622Y659492D01*
X-749717Y659403D01*
X-749798Y659352D01*
X-749873Y659293D01*
X-749988Y659232D01*
X-750097Y659162D01*
X-750186Y659125D01*
X-750270Y659080D01*
X-750394Y659040D01*
X-750514Y658991D01*
X-750607Y658971D01*
X-750698Y658941D01*
X-750827Y658923D01*
X-750954Y658896D01*
X-751084Y658888D01*
X-751144Y658880D01*
X-751189Y658881D01*
X-751266Y658877D01*
X-757659Y658877D01*
X-760273Y657794D01*
X-772094Y645973D01*
X-773177Y643359D01*
X-773177Y585404D01*
X-773191Y585240D01*
X-773198Y585076D01*
X-773211Y585016D01*
X-773217Y584955D01*
X-773260Y584797D01*
X-773296Y584636D01*
X-773319Y584580D01*
X-773335Y584521D01*
X-773406Y584373D01*
X-773469Y584221D01*
X-773502Y584169D01*
X-773529Y584114D01*
X-773624Y583981D01*
X-773714Y583843D01*
X-773765Y583785D01*
X-773791Y583748D01*
X-773834Y583706D01*
X-773920Y583608D01*
X-787892Y569636D01*
X-787992Y569553D01*
X-788085Y569462D01*
X-788165Y569409D01*
X-788238Y569347D01*
X-788351Y569283D01*
X-788458Y569210D01*
X-788546Y569172D01*
X-788629Y569124D01*
X-788751Y569081D01*
X-788870Y569028D01*
X-788963Y569005D01*
X-789053Y568973D01*
X-789182Y568952D01*
X-789308Y568921D01*
X-789403Y568915D01*
X-789497Y568900D01*
X-789628Y568902D01*
X-789757Y568894D01*
X-789852Y568905D01*
X-789948Y568906D01*
X-790075Y568931D01*
X-790204Y568946D01*
X-790296Y568973D01*
X-790390Y568992D01*
X-790511Y569038D01*
X-790635Y569076D01*
X-790720Y569119D01*
X-790810Y569154D01*
X-790921Y569221D01*
X-791037Y569280D01*
X-791113Y569338D01*
X-791194Y569388D01*
X-791292Y569474D01*
X-791395Y569552D01*
X-791460Y569623D01*
X-791532Y569686D01*
X-791612Y569788D01*
X-791701Y569883D01*
X-791752Y569964D01*
X-791811Y570039D01*
X-791872Y570154D01*
X-791942Y570263D01*
X-791979Y570352D01*
X-792024Y570436D01*
X-792064Y570560D01*
X-792113Y570680D01*
X-792133Y570773D01*
X-792163Y570864D01*
X-792181Y570993D01*
X-792208Y571120D01*
X-792216Y571250D01*
X-792224Y571310D01*
X-792223Y571355D01*
X-792227Y571432D01*
X-792227Y794488D01*
X-792224Y794523D01*
X-792226Y794557D01*
X-792204Y794746D01*
X-792187Y794937D01*
X-792178Y794970D01*
X-792174Y795004D01*
X-792119Y795187D01*
X-792069Y795371D01*
X-792054Y795402D01*
X-792044Y795435D01*
X-791957Y795606D01*
X-791875Y795778D01*
X-791855Y795806D01*
X-791840Y795837D01*
X-791724Y795989D01*
X-791613Y796144D01*
X-791588Y796168D01*
X-791568Y796195D01*
X-791428Y796324D01*
X-791291Y796458D01*
X-791262Y796477D01*
X-791236Y796501D01*
X-791075Y796603D01*
X-790918Y796710D01*
X-790886Y796724D01*
X-790857Y796742D01*
X-790680Y796815D01*
X-790506Y796892D01*
X-790472Y796900D01*
X-790440Y796913D01*
X-790253Y796953D01*
X-790068Y796999D01*
X-790034Y797001D01*
X-790000Y797008D01*
X-789688Y797027D01*
X-7112Y797027D01*
X-7077Y797024D01*
X-7043Y797026D01*
X-6854Y797004D01*
X-6663Y796987D01*
X-6630Y796978D01*
X-6596Y796974D01*
X-6413Y796919D01*
X-6229Y796869D01*
X-6198Y796854D01*
X-6165Y796844D01*
X-5994Y796757D01*
X-5822Y796675D01*
X-5794Y796655D01*
X-5763Y796640D01*
X-5611Y796524D01*
X-5456Y796413D01*
X-5432Y796388D01*
X-5405Y796368D01*
X-5276Y796228D01*
X-5142Y796091D01*
X-5123Y796062D01*
X-5099Y796036D01*
X-4997Y795875D01*
X-4890Y795718D01*
X-4876Y795686D01*
X-4858Y795657D01*
X-4785Y795480D01*
X-4708Y795306D01*
X-4700Y795272D01*
X-4687Y795240D01*
X-4647Y795053D01*
X-4601Y794868D01*
X-4599Y794834D01*
X-4592Y794800D01*
X-4573Y794488D01*
X-4573Y7112D01*
X-4576Y7077D01*
X-4574Y7043D01*
X-4596Y6854D01*
X-4613Y6663D01*
X-4622Y6630D01*
X-4626Y6596D01*
X-4681Y6413D01*
X-4731Y6229D01*
X-4746Y6198D01*
X-4756Y6165D01*
X-4843Y5994D01*
X-4925Y5822D01*
X-4945Y5794D01*
X-4960Y5763D01*
X-5076Y5611D01*
X-5187Y5456D01*
X-5212Y5432D01*
X-5232Y5405D01*
X-5372Y5276D01*
X-5509Y5142D01*
X-5538Y5123D01*
X-5564Y5099D01*
X-5725Y4997D01*
X-5882Y4890D01*
X-5914Y4876D01*
X-5943Y4858D01*
X-6120Y4785D01*
X-6294Y4708D01*
X-6328Y4700D01*
X-6360Y4687D01*
X-6547Y4647D01*
X-6732Y4601D01*
X-6766Y4599D01*
X-6800Y4592D01*
X-7112Y4573D01*
X-789688Y4573D01*
X-789723Y4576D01*
G37*
G36*
X-702286Y103647D02*
X-702286Y103647D01*
X-702450Y103654D01*
X-702510Y103667D01*
X-702571Y103673D01*
X-702729Y103716D01*
X-702890Y103752D01*
X-702946Y103775D01*
X-703005Y103791D01*
X-703153Y103862D01*
X-703305Y103925D01*
X-703357Y103958D01*
X-703412Y103985D01*
X-703545Y104080D01*
X-703683Y104170D01*
X-703741Y104221D01*
X-703778Y104247D01*
X-703820Y104290D01*
X-703918Y104376D01*
X-759224Y159682D01*
X-759329Y159809D01*
X-759441Y159930D01*
X-759473Y159981D01*
X-759512Y160028D01*
X-759594Y160171D01*
X-759682Y160309D01*
X-759706Y160366D01*
X-759736Y160419D01*
X-759791Y160574D01*
X-759853Y160726D01*
X-759866Y160786D01*
X-759887Y160843D01*
X-759913Y161005D01*
X-759948Y161166D01*
X-759953Y161243D01*
X-759960Y161287D01*
X-759959Y161348D01*
X-759967Y161478D01*
X-759967Y175722D01*
X-759960Y175804D01*
X-759962Y175886D01*
X-759940Y176027D01*
X-759927Y176170D01*
X-759906Y176250D01*
X-759893Y176331D01*
X-759847Y176466D01*
X-759809Y176604D01*
X-759773Y176679D01*
X-759747Y176757D01*
X-759677Y176882D01*
X-759615Y177011D01*
X-759568Y177078D01*
X-759527Y177150D01*
X-759437Y177261D01*
X-759353Y177377D01*
X-759294Y177435D01*
X-759242Y177498D01*
X-759133Y177591D01*
X-759031Y177691D01*
X-758962Y177737D01*
X-758900Y177791D01*
X-758776Y177863D01*
X-758658Y177943D01*
X-758582Y177977D01*
X-758511Y178018D01*
X-758377Y178068D01*
X-758246Y178126D01*
X-758166Y178145D01*
X-758088Y178173D01*
X-757947Y178198D01*
X-757808Y178232D01*
X-757726Y178237D01*
X-757645Y178252D01*
X-757502Y178251D01*
X-757359Y178260D01*
X-757277Y178250D01*
X-757195Y178250D01*
X-757054Y178224D01*
X-756912Y178208D01*
X-756833Y178184D01*
X-756752Y178169D01*
X-756518Y178089D01*
X-756481Y178077D01*
X-756471Y178073D01*
X-756456Y178068D01*
X-752129Y176275D01*
X-746471Y176275D01*
X-741242Y178441D01*
X-737241Y182442D01*
X-735075Y187671D01*
X-735075Y193329D01*
X-737241Y198558D01*
X-740088Y201404D01*
X-740110Y201431D01*
X-740136Y201454D01*
X-740254Y201603D01*
X-740377Y201750D01*
X-740394Y201780D01*
X-740415Y201807D01*
X-740505Y201975D01*
X-740600Y202141D01*
X-740611Y202173D01*
X-740628Y202204D01*
X-740687Y202385D01*
X-740751Y202565D01*
X-740756Y202599D01*
X-740767Y202632D01*
X-740793Y202821D01*
X-740824Y203009D01*
X-740824Y203044D01*
X-740828Y203078D01*
X-740821Y203269D01*
X-740818Y203460D01*
X-740812Y203494D01*
X-740810Y203528D01*
X-740769Y203714D01*
X-740733Y203902D01*
X-740720Y203934D01*
X-740713Y203968D01*
X-740639Y204143D01*
X-740570Y204322D01*
X-740552Y204351D01*
X-740539Y204383D01*
X-740436Y204543D01*
X-740336Y204706D01*
X-740313Y204732D01*
X-740295Y204761D01*
X-740088Y204996D01*
X-737241Y207842D01*
X-735075Y213071D01*
X-735075Y218729D01*
X-737241Y223958D01*
X-738818Y225534D01*
X-738840Y225561D01*
X-738866Y225584D01*
X-738984Y225733D01*
X-739107Y225880D01*
X-739124Y225910D01*
X-739145Y225937D01*
X-739235Y226105D01*
X-739330Y226271D01*
X-739342Y226303D01*
X-739358Y226334D01*
X-739417Y226514D01*
X-739481Y226695D01*
X-739486Y226729D01*
X-739497Y226762D01*
X-739523Y226951D01*
X-739554Y227139D01*
X-739554Y227174D01*
X-739558Y227208D01*
X-739551Y227399D01*
X-739548Y227589D01*
X-739542Y227624D01*
X-739540Y227658D01*
X-739499Y227844D01*
X-739463Y228032D01*
X-739450Y228064D01*
X-739443Y228098D01*
X-739369Y228274D01*
X-739300Y228452D01*
X-739282Y228481D01*
X-739269Y228513D01*
X-739165Y228674D01*
X-739066Y228836D01*
X-739043Y228862D01*
X-739025Y228891D01*
X-738818Y229126D01*
X-737241Y230702D01*
X-735075Y235931D01*
X-735075Y241589D01*
X-737241Y246818D01*
X-741529Y251105D01*
X-741534Y251112D01*
X-741541Y251118D01*
X-741678Y251284D01*
X-741818Y251451D01*
X-741822Y251458D01*
X-741827Y251465D01*
X-741934Y251655D01*
X-742041Y251842D01*
X-742044Y251850D01*
X-742048Y251858D01*
X-742119Y252061D01*
X-742192Y252266D01*
X-742193Y252275D01*
X-742196Y252283D01*
X-742229Y252491D01*
X-742265Y252710D01*
X-742265Y252719D01*
X-742266Y252728D01*
X-742262Y252942D01*
X-742259Y253161D01*
X-742257Y253169D01*
X-742257Y253178D01*
X-742215Y253389D01*
X-742174Y253603D01*
X-742170Y253611D01*
X-742169Y253619D01*
X-742090Y253820D01*
X-742011Y254023D01*
X-742007Y254030D01*
X-742004Y254038D01*
X-741891Y254221D01*
X-741777Y254407D01*
X-741772Y254414D01*
X-741767Y254421D01*
X-741623Y254582D01*
X-741479Y254745D01*
X-741472Y254750D01*
X-741466Y254757D01*
X-741431Y254786D01*
X-740000Y256217D01*
X-738872Y257770D01*
X-738000Y259480D01*
X-737408Y261305D01*
X-737357Y261621D01*
X-749300Y261621D01*
X-749334Y261624D01*
X-749369Y261622D01*
X-749558Y261644D01*
X-749748Y261660D01*
X-749782Y261670D01*
X-749816Y261674D01*
X-749999Y261729D01*
X-750183Y261779D01*
X-750214Y261794D01*
X-750247Y261804D01*
X-750418Y261891D01*
X-750589Y261972D01*
X-750617Y261993D01*
X-750648Y262008D01*
X-750800Y262123D01*
X-750955Y262235D01*
X-750979Y262259D01*
X-751007Y262280D01*
X-751136Y262420D01*
X-751269Y262557D01*
X-751289Y262586D01*
X-751312Y262611D01*
X-751415Y262772D01*
X-751521Y262930D01*
X-751535Y262962D01*
X-751554Y262991D01*
X-751626Y263168D01*
X-751704Y263342D01*
X-751712Y263376D01*
X-751725Y263408D01*
X-751765Y263594D01*
X-751810Y263779D01*
X-751812Y263814D01*
X-751820Y263848D01*
X-751839Y264160D01*
X-751836Y264195D01*
X-751838Y264229D01*
X-751816Y264419D01*
X-751799Y264609D01*
X-751790Y264642D01*
X-751786Y264676D01*
X-751731Y264859D01*
X-751680Y265043D01*
X-751666Y265074D01*
X-751656Y265107D01*
X-751569Y265278D01*
X-751487Y265450D01*
X-751467Y265478D01*
X-751451Y265509D01*
X-751336Y265661D01*
X-751225Y265816D01*
X-751200Y265840D01*
X-751179Y265867D01*
X-751039Y265997D01*
X-750902Y266130D01*
X-750874Y266149D01*
X-750848Y266173D01*
X-750687Y266275D01*
X-750529Y266382D01*
X-750498Y266396D01*
X-750468Y266414D01*
X-750292Y266487D01*
X-750117Y266564D01*
X-750084Y266572D01*
X-750052Y266585D01*
X-749865Y266626D01*
X-749680Y266671D01*
X-749646Y266673D01*
X-749612Y266680D01*
X-749300Y266699D01*
X-737357Y266699D01*
X-737408Y267015D01*
X-738000Y268840D01*
X-738872Y270550D01*
X-740000Y272103D01*
X-741498Y273601D01*
X-741501Y273605D01*
X-741565Y273660D01*
X-741570Y273667D01*
X-741577Y273673D01*
X-741710Y273841D01*
X-741847Y274012D01*
X-741851Y274019D01*
X-741856Y274026D01*
X-741958Y274216D01*
X-742062Y274407D01*
X-742065Y274415D01*
X-742069Y274423D01*
X-742136Y274629D01*
X-742204Y274834D01*
X-742205Y274843D01*
X-742208Y274851D01*
X-742238Y275065D01*
X-742269Y275280D01*
X-742268Y275289D01*
X-742269Y275297D01*
X-742261Y275515D01*
X-742253Y275730D01*
X-742251Y275738D01*
X-742251Y275747D01*
X-742204Y275959D01*
X-742159Y276170D01*
X-742155Y276178D01*
X-742154Y276187D01*
X-742070Y276386D01*
X-741988Y276587D01*
X-741983Y276594D01*
X-741980Y276602D01*
X-741862Y276784D01*
X-741746Y276967D01*
X-741740Y276973D01*
X-741736Y276980D01*
X-741529Y277215D01*
X-737241Y281502D01*
X-735075Y286731D01*
X-735075Y292389D01*
X-737241Y297618D01*
X-740088Y300464D01*
X-740110Y300491D01*
X-740136Y300514D01*
X-740254Y300663D01*
X-740377Y300810D01*
X-740394Y300840D01*
X-740415Y300867D01*
X-740505Y301035D01*
X-740600Y301201D01*
X-740611Y301233D01*
X-740628Y301264D01*
X-740687Y301445D01*
X-740751Y301625D01*
X-740756Y301659D01*
X-740767Y301692D01*
X-740793Y301881D01*
X-740824Y302069D01*
X-740824Y302104D01*
X-740828Y302138D01*
X-740821Y302329D01*
X-740818Y302520D01*
X-740812Y302554D01*
X-740810Y302588D01*
X-740769Y302774D01*
X-740733Y302962D01*
X-740720Y302994D01*
X-740713Y303028D01*
X-740639Y303203D01*
X-740570Y303382D01*
X-740552Y303411D01*
X-740539Y303443D01*
X-740436Y303603D01*
X-740336Y303766D01*
X-740313Y303792D01*
X-740295Y303821D01*
X-740088Y304056D01*
X-737040Y307104D01*
X-736914Y307209D01*
X-736793Y307321D01*
X-736741Y307353D01*
X-736694Y307392D01*
X-736552Y307474D01*
X-736413Y307562D01*
X-736356Y307586D01*
X-736303Y307616D01*
X-736148Y307671D01*
X-735996Y307733D01*
X-735937Y307746D01*
X-735879Y307767D01*
X-735717Y307793D01*
X-735556Y307828D01*
X-735479Y307833D01*
X-735435Y307840D01*
X-735374Y307839D01*
X-735244Y307847D01*
X-719008Y307847D01*
X-718844Y307833D01*
X-718680Y307826D01*
X-718620Y307813D01*
X-718559Y307807D01*
X-718401Y307764D01*
X-718240Y307728D01*
X-718184Y307705D01*
X-718125Y307689D01*
X-717977Y307618D01*
X-717825Y307555D01*
X-717773Y307522D01*
X-717718Y307495D01*
X-717585Y307400D01*
X-717447Y307310D01*
X-717389Y307259D01*
X-717352Y307233D01*
X-717310Y307190D01*
X-717212Y307104D01*
X-570703Y160594D01*
X-568089Y159511D01*
X-173162Y159511D01*
X-172998Y159497D01*
X-172834Y159490D01*
X-172774Y159477D01*
X-172713Y159471D01*
X-172555Y159428D01*
X-172394Y159392D01*
X-172338Y159369D01*
X-172279Y159353D01*
X-172131Y159282D01*
X-171979Y159219D01*
X-171927Y159186D01*
X-171872Y159159D01*
X-171739Y159064D01*
X-171601Y158974D01*
X-171543Y158923D01*
X-171506Y158897D01*
X-171466Y158856D01*
X-171462Y158853D01*
X-171455Y158846D01*
X-171366Y158768D01*
X-130792Y118194D01*
X-130687Y118067D01*
X-130575Y117946D01*
X-130543Y117895D01*
X-130504Y117848D01*
X-130422Y117705D01*
X-130334Y117567D01*
X-130310Y117510D01*
X-130280Y117457D01*
X-130225Y117302D01*
X-130163Y117150D01*
X-130150Y117090D01*
X-130129Y117033D01*
X-130103Y116871D01*
X-130068Y116710D01*
X-130063Y116633D01*
X-130056Y116589D01*
X-130057Y116528D01*
X-130049Y116398D01*
X-130049Y110455D01*
X-128677Y107144D01*
X-128653Y107065D01*
X-128619Y106990D01*
X-128585Y106851D01*
X-128543Y106714D01*
X-128532Y106632D01*
X-128513Y106552D01*
X-128504Y106410D01*
X-128486Y106267D01*
X-128490Y106185D01*
X-128485Y106103D01*
X-128502Y105961D01*
X-128509Y105818D01*
X-128528Y105738D01*
X-128537Y105656D01*
X-128579Y105518D01*
X-128611Y105379D01*
X-128643Y105304D01*
X-128667Y105225D01*
X-128732Y105097D01*
X-128789Y104966D01*
X-128834Y104897D01*
X-128872Y104823D01*
X-128958Y104709D01*
X-129037Y104590D01*
X-129094Y104530D01*
X-129144Y104465D01*
X-129249Y104368D01*
X-129348Y104264D01*
X-129414Y104215D01*
X-129475Y104159D01*
X-129596Y104082D01*
X-129711Y103998D01*
X-129785Y103962D01*
X-129855Y103918D01*
X-129987Y103863D01*
X-130116Y103800D01*
X-130195Y103778D01*
X-130271Y103747D01*
X-130411Y103717D01*
X-130549Y103677D01*
X-130631Y103669D01*
X-130711Y103652D01*
X-130957Y103637D01*
X-130997Y103633D01*
X-131008Y103634D01*
X-131023Y103633D01*
X-702122Y103633D01*
X-702286Y103647D01*
G37*
%LPC*%
G36*
X-490359Y470527D02*
X-490359Y470527D01*
X-485921Y472365D01*
X-482959Y475328D01*
X-482932Y475350D01*
X-482909Y475376D01*
X-482760Y475494D01*
X-482613Y475617D01*
X-482583Y475634D01*
X-482556Y475655D01*
X-482388Y475745D01*
X-482222Y475840D01*
X-482190Y475852D01*
X-482159Y475868D01*
X-481978Y475927D01*
X-481798Y475991D01*
X-481764Y475997D01*
X-481731Y476007D01*
X-481543Y476033D01*
X-481354Y476064D01*
X-481319Y476064D01*
X-481285Y476069D01*
X-481094Y476061D01*
X-480904Y476058D01*
X-480870Y476052D01*
X-480835Y476050D01*
X-480649Y476009D01*
X-480462Y475973D01*
X-480429Y475960D01*
X-480395Y475953D01*
X-480220Y475879D01*
X-480042Y475811D01*
X-480012Y475792D01*
X-479980Y475779D01*
X-479820Y475676D01*
X-479657Y475577D01*
X-479631Y475554D01*
X-479602Y475535D01*
X-479368Y475328D01*
X-476599Y472559D01*
X-474979Y472559D01*
X-474979Y482600D01*
X-474979Y492641D01*
X-476599Y492641D01*
X-479368Y489872D01*
X-479394Y489850D01*
X-479417Y489824D01*
X-479567Y489706D01*
X-479713Y489583D01*
X-479743Y489566D01*
X-479770Y489545D01*
X-479938Y489454D01*
X-480104Y489360D01*
X-480137Y489348D01*
X-480167Y489332D01*
X-480348Y489273D01*
X-480528Y489209D01*
X-480562Y489203D01*
X-480595Y489193D01*
X-480784Y489167D01*
X-480972Y489136D01*
X-481007Y489136D01*
X-481041Y489131D01*
X-481232Y489139D01*
X-481423Y489142D01*
X-481457Y489148D01*
X-481491Y489150D01*
X-481677Y489191D01*
X-481865Y489227D01*
X-481897Y489240D01*
X-481931Y489247D01*
X-482107Y489321D01*
X-482285Y489389D01*
X-482314Y489407D01*
X-482346Y489421D01*
X-482507Y489525D01*
X-482669Y489623D01*
X-482695Y489646D01*
X-482725Y489665D01*
X-482959Y489872D01*
X-485921Y492835D01*
X-490359Y494673D01*
X-495161Y494673D01*
X-499599Y492835D01*
X-501977Y490456D01*
X-502103Y490351D01*
X-502224Y490239D01*
X-502276Y490207D01*
X-502322Y490168D01*
X-502465Y490086D01*
X-502604Y489998D01*
X-502660Y489974D01*
X-502713Y489944D01*
X-502868Y489889D01*
X-503020Y489827D01*
X-503080Y489814D01*
X-503138Y489793D01*
X-503300Y489767D01*
X-503461Y489732D01*
X-503538Y489727D01*
X-503582Y489720D01*
X-503642Y489721D01*
X-503772Y489713D01*
X-535088Y489713D01*
X-535251Y489727D01*
X-535416Y489734D01*
X-535475Y489747D01*
X-535536Y489753D01*
X-535695Y489796D01*
X-535855Y489832D01*
X-535912Y489855D01*
X-535970Y489871D01*
X-536118Y489942D01*
X-536271Y490005D01*
X-536322Y490038D01*
X-536377Y490065D01*
X-536510Y490160D01*
X-536649Y490250D01*
X-536707Y490301D01*
X-536743Y490327D01*
X-536786Y490370D01*
X-536883Y490456D01*
X-539261Y492835D01*
X-543699Y494673D01*
X-547062Y494673D01*
X-547226Y494687D01*
X-547390Y494694D01*
X-547450Y494707D01*
X-547511Y494713D01*
X-547669Y494756D01*
X-547830Y494792D01*
X-547886Y494815D01*
X-547945Y494831D01*
X-548093Y494902D01*
X-548245Y494965D01*
X-548297Y494998D01*
X-548352Y495025D01*
X-548485Y495120D01*
X-548623Y495210D01*
X-548681Y495261D01*
X-548718Y495287D01*
X-548760Y495330D01*
X-548858Y495416D01*
X-589044Y535602D01*
X-589149Y535729D01*
X-589261Y535850D01*
X-589293Y535901D01*
X-589332Y535948D01*
X-589414Y536091D01*
X-589502Y536229D01*
X-589526Y536286D01*
X-589556Y536339D01*
X-589611Y536494D01*
X-589673Y536646D01*
X-589686Y536706D01*
X-589707Y536763D01*
X-589733Y536925D01*
X-589768Y537086D01*
X-589773Y537163D01*
X-589780Y537207D01*
X-589779Y537268D01*
X-589787Y537398D01*
X-589787Y674515D01*
X-589994Y675014D01*
X-590029Y675125D01*
X-590073Y675233D01*
X-590096Y675340D01*
X-590129Y675443D01*
X-590143Y675559D01*
X-590168Y675674D01*
X-590178Y675827D01*
X-590185Y675890D01*
X-590184Y675926D01*
X-590187Y675986D01*
X-590187Y727278D01*
X-590173Y727442D01*
X-590166Y727607D01*
X-590153Y727666D01*
X-590147Y727727D01*
X-590104Y727886D01*
X-590068Y728046D01*
X-590045Y728102D01*
X-590029Y728161D01*
X-589958Y728309D01*
X-589895Y728462D01*
X-589862Y728513D01*
X-589835Y728568D01*
X-589740Y728701D01*
X-589650Y728840D01*
X-589599Y728898D01*
X-589573Y728934D01*
X-589530Y728977D01*
X-589444Y729074D01*
X-585833Y732685D01*
X-583774Y737656D01*
X-583774Y760944D01*
X-585833Y765915D01*
X-589638Y769721D01*
X-594609Y771780D01*
X-599991Y771780D01*
X-604962Y769721D01*
X-608767Y765915D01*
X-610826Y760944D01*
X-610826Y737656D01*
X-608767Y732685D01*
X-605156Y729074D01*
X-605051Y728948D01*
X-604939Y728827D01*
X-604907Y728775D01*
X-604868Y728729D01*
X-604786Y728586D01*
X-604698Y728447D01*
X-604674Y728391D01*
X-604644Y728338D01*
X-604589Y728183D01*
X-604527Y728031D01*
X-604514Y727971D01*
X-604493Y727913D01*
X-604467Y727751D01*
X-604432Y727590D01*
X-604427Y727513D01*
X-604420Y727469D01*
X-604421Y727408D01*
X-604413Y727278D01*
X-604413Y672085D01*
X-604206Y671586D01*
X-604171Y671475D01*
X-604127Y671367D01*
X-604104Y671260D01*
X-604071Y671157D01*
X-604057Y671041D01*
X-604032Y670926D01*
X-604022Y670773D01*
X-604015Y670710D01*
X-604016Y670674D01*
X-604013Y670614D01*
X-604013Y531985D01*
X-602930Y529371D01*
X-600572Y527013D01*
X-558916Y485358D01*
X-558811Y485231D01*
X-558699Y485110D01*
X-558667Y485059D01*
X-558628Y485012D01*
X-558546Y484870D01*
X-558458Y484731D01*
X-558434Y484674D01*
X-558404Y484621D01*
X-558349Y484466D01*
X-558287Y484314D01*
X-558274Y484255D01*
X-558253Y484197D01*
X-558227Y484035D01*
X-558192Y483874D01*
X-558187Y483797D01*
X-558180Y483753D01*
X-558181Y483692D01*
X-558173Y483562D01*
X-558173Y480199D01*
X-556335Y475761D01*
X-552939Y472365D01*
X-548501Y470527D01*
X-543699Y470527D01*
X-539261Y472365D01*
X-536883Y474744D01*
X-536757Y474849D01*
X-536636Y474961D01*
X-536585Y474993D01*
X-536538Y475032D01*
X-536395Y475114D01*
X-536256Y475202D01*
X-536200Y475226D01*
X-536147Y475256D01*
X-535992Y475311D01*
X-535840Y475373D01*
X-535780Y475386D01*
X-535722Y475407D01*
X-535560Y475433D01*
X-535399Y475468D01*
X-535322Y475473D01*
X-535278Y475480D01*
X-535217Y475479D01*
X-535088Y475487D01*
X-503772Y475487D01*
X-503609Y475473D01*
X-503444Y475466D01*
X-503385Y475453D01*
X-503324Y475447D01*
X-503165Y475404D01*
X-503005Y475368D01*
X-502948Y475345D01*
X-502890Y475329D01*
X-502741Y475258D01*
X-502589Y475195D01*
X-502538Y475162D01*
X-502483Y475135D01*
X-502349Y475040D01*
X-502211Y474950D01*
X-502153Y474899D01*
X-502117Y474873D01*
X-502074Y474830D01*
X-501977Y474744D01*
X-499599Y472365D01*
X-495161Y470527D01*
X-490359Y470527D01*
G37*
%LPD*%
%LPC*%
G36*
X-263871Y265175D02*
X-263871Y265175D01*
X-258642Y267341D01*
X-254641Y271342D01*
X-252475Y276571D01*
X-252475Y282229D01*
X-254641Y287458D01*
X-257488Y290304D01*
X-257510Y290331D01*
X-257536Y290354D01*
X-257654Y290503D01*
X-257777Y290650D01*
X-257794Y290680D01*
X-257815Y290707D01*
X-257905Y290875D01*
X-258000Y291041D01*
X-258011Y291073D01*
X-258028Y291104D01*
X-258087Y291285D01*
X-258151Y291465D01*
X-258156Y291499D01*
X-258167Y291532D01*
X-258193Y291721D01*
X-258224Y291909D01*
X-258224Y291944D01*
X-258228Y291978D01*
X-258221Y292169D01*
X-258218Y292360D01*
X-258212Y292394D01*
X-258210Y292428D01*
X-258169Y292614D01*
X-258133Y292802D01*
X-258120Y292834D01*
X-258113Y292868D01*
X-258039Y293043D01*
X-257970Y293222D01*
X-257952Y293251D01*
X-257939Y293283D01*
X-257836Y293443D01*
X-257736Y293606D01*
X-257713Y293632D01*
X-257695Y293661D01*
X-257488Y293896D01*
X-254641Y296742D01*
X-252475Y301971D01*
X-252475Y307629D01*
X-254641Y312858D01*
X-257488Y315704D01*
X-257510Y315731D01*
X-257536Y315754D01*
X-257654Y315903D01*
X-257777Y316050D01*
X-257794Y316080D01*
X-257815Y316107D01*
X-257905Y316275D01*
X-258000Y316441D01*
X-258011Y316473D01*
X-258028Y316504D01*
X-258087Y316685D01*
X-258151Y316865D01*
X-258156Y316899D01*
X-258167Y316932D01*
X-258193Y317121D01*
X-258224Y317309D01*
X-258224Y317344D01*
X-258228Y317378D01*
X-258221Y317569D01*
X-258218Y317760D01*
X-258212Y317794D01*
X-258210Y317828D01*
X-258169Y318014D01*
X-258133Y318202D01*
X-258120Y318234D01*
X-258113Y318268D01*
X-258039Y318443D01*
X-257970Y318622D01*
X-257952Y318651D01*
X-257939Y318683D01*
X-257836Y318843D01*
X-257736Y319006D01*
X-257713Y319032D01*
X-257695Y319061D01*
X-257488Y319296D01*
X-254641Y322142D01*
X-252475Y327371D01*
X-252475Y333029D01*
X-254641Y338258D01*
X-257488Y341104D01*
X-257510Y341131D01*
X-257536Y341154D01*
X-257654Y341303D01*
X-257777Y341450D01*
X-257794Y341480D01*
X-257815Y341507D01*
X-257905Y341675D01*
X-258000Y341841D01*
X-258011Y341873D01*
X-258028Y341904D01*
X-258087Y342085D01*
X-258151Y342265D01*
X-258156Y342299D01*
X-258167Y342332D01*
X-258193Y342521D01*
X-258224Y342709D01*
X-258224Y342744D01*
X-258228Y342778D01*
X-258221Y342969D01*
X-258218Y343160D01*
X-258212Y343194D01*
X-258210Y343228D01*
X-258169Y343414D01*
X-258133Y343602D01*
X-258120Y343634D01*
X-258113Y343668D01*
X-258039Y343843D01*
X-257970Y344022D01*
X-257952Y344051D01*
X-257939Y344083D01*
X-257836Y344243D01*
X-257736Y344406D01*
X-257713Y344432D01*
X-257695Y344461D01*
X-257488Y344696D01*
X-254641Y347542D01*
X-252475Y352771D01*
X-252475Y358429D01*
X-254641Y363658D01*
X-257488Y366504D01*
X-257510Y366531D01*
X-257536Y366554D01*
X-257654Y366703D01*
X-257777Y366850D01*
X-257794Y366880D01*
X-257815Y366907D01*
X-257905Y367075D01*
X-258000Y367241D01*
X-258011Y367273D01*
X-258028Y367304D01*
X-258087Y367485D01*
X-258151Y367665D01*
X-258156Y367699D01*
X-258167Y367732D01*
X-258193Y367921D01*
X-258224Y368109D01*
X-258224Y368144D01*
X-258228Y368178D01*
X-258221Y368369D01*
X-258218Y368560D01*
X-258212Y368594D01*
X-258210Y368628D01*
X-258169Y368814D01*
X-258133Y369002D01*
X-258120Y369034D01*
X-258113Y369068D01*
X-258039Y369243D01*
X-257970Y369422D01*
X-257952Y369451D01*
X-257939Y369483D01*
X-257836Y369643D01*
X-257736Y369806D01*
X-257713Y369832D01*
X-257695Y369861D01*
X-257488Y370096D01*
X-254641Y372942D01*
X-252475Y378171D01*
X-252475Y383829D01*
X-254641Y389058D01*
X-258929Y393345D01*
X-258935Y393353D01*
X-258942Y393359D01*
X-259081Y393527D01*
X-259218Y393691D01*
X-259222Y393699D01*
X-259228Y393706D01*
X-259333Y393894D01*
X-259441Y394082D01*
X-259444Y394091D01*
X-259449Y394099D01*
X-259518Y394299D01*
X-259592Y394506D01*
X-259593Y394515D01*
X-259596Y394524D01*
X-259630Y394738D01*
X-259665Y394950D01*
X-259665Y394960D01*
X-259667Y394969D01*
X-259662Y395184D01*
X-259659Y395401D01*
X-259657Y395410D01*
X-259657Y395419D01*
X-259615Y395630D01*
X-259574Y395843D01*
X-259570Y395851D01*
X-259568Y395861D01*
X-259489Y396062D01*
X-259411Y396263D01*
X-259406Y396271D01*
X-259403Y396279D01*
X-259290Y396462D01*
X-259177Y396647D01*
X-259171Y396654D01*
X-259166Y396662D01*
X-259023Y396822D01*
X-258879Y396985D01*
X-258872Y396991D01*
X-258866Y396998D01*
X-258830Y397026D01*
X-257400Y398457D01*
X-256272Y400010D01*
X-255400Y401720D01*
X-254808Y403545D01*
X-254757Y403861D01*
X-266700Y403861D01*
X-278643Y403861D01*
X-278592Y403545D01*
X-278000Y401720D01*
X-277128Y400010D01*
X-276000Y398457D01*
X-274502Y396959D01*
X-274499Y396955D01*
X-274436Y396901D01*
X-274430Y396893D01*
X-274423Y396887D01*
X-274290Y396719D01*
X-274154Y396550D01*
X-274149Y396541D01*
X-274144Y396534D01*
X-274043Y396346D01*
X-273938Y396154D01*
X-273935Y396145D01*
X-273931Y396137D01*
X-273864Y395931D01*
X-273796Y395727D01*
X-273795Y395718D01*
X-273792Y395709D01*
X-273763Y395496D01*
X-273731Y395281D01*
X-273732Y395272D01*
X-273730Y395263D01*
X-273739Y395047D01*
X-273747Y394831D01*
X-273748Y394822D01*
X-273749Y394813D01*
X-273796Y394600D01*
X-273841Y394391D01*
X-273844Y394382D01*
X-273846Y394373D01*
X-273929Y394175D01*
X-274011Y393974D01*
X-274016Y393966D01*
X-274020Y393958D01*
X-274137Y393777D01*
X-274253Y393594D01*
X-274259Y393588D01*
X-274264Y393580D01*
X-274471Y393345D01*
X-278759Y389058D01*
X-280925Y383829D01*
X-280925Y378171D01*
X-278759Y372942D01*
X-275912Y370096D01*
X-275890Y370069D01*
X-275864Y370046D01*
X-275746Y369897D01*
X-275623Y369750D01*
X-275606Y369720D01*
X-275585Y369693D01*
X-275495Y369525D01*
X-275400Y369359D01*
X-275388Y369327D01*
X-275372Y369296D01*
X-275313Y369115D01*
X-275249Y368935D01*
X-275244Y368901D01*
X-275233Y368868D01*
X-275207Y368679D01*
X-275176Y368491D01*
X-275176Y368456D01*
X-275172Y368422D01*
X-275179Y368231D01*
X-275182Y368041D01*
X-275188Y368006D01*
X-275190Y367972D01*
X-275231Y367786D01*
X-275267Y367598D01*
X-275280Y367566D01*
X-275287Y367532D01*
X-275361Y367356D01*
X-275430Y367178D01*
X-275448Y367149D01*
X-275461Y367117D01*
X-275565Y366956D01*
X-275664Y366794D01*
X-275687Y366768D01*
X-275705Y366739D01*
X-275912Y366504D01*
X-278759Y363658D01*
X-280925Y358429D01*
X-280925Y352771D01*
X-278759Y347542D01*
X-275912Y344696D01*
X-275890Y344669D01*
X-275864Y344646D01*
X-275746Y344497D01*
X-275623Y344350D01*
X-275606Y344320D01*
X-275585Y344293D01*
X-275495Y344125D01*
X-275400Y343959D01*
X-275388Y343927D01*
X-275372Y343896D01*
X-275313Y343715D01*
X-275249Y343535D01*
X-275244Y343501D01*
X-275233Y343468D01*
X-275207Y343279D01*
X-275176Y343091D01*
X-275176Y343056D01*
X-275172Y343022D01*
X-275179Y342831D01*
X-275182Y342641D01*
X-275188Y342606D01*
X-275190Y342572D01*
X-275231Y342386D01*
X-275267Y342198D01*
X-275280Y342166D01*
X-275287Y342132D01*
X-275361Y341956D01*
X-275430Y341778D01*
X-275448Y341749D01*
X-275461Y341717D01*
X-275565Y341556D01*
X-275664Y341394D01*
X-275687Y341368D01*
X-275705Y341339D01*
X-275912Y341104D01*
X-278759Y338258D01*
X-280925Y333029D01*
X-280925Y327371D01*
X-278759Y322142D01*
X-275912Y319296D01*
X-275890Y319269D01*
X-275864Y319246D01*
X-275746Y319097D01*
X-275623Y318950D01*
X-275606Y318920D01*
X-275585Y318893D01*
X-275495Y318725D01*
X-275400Y318559D01*
X-275388Y318527D01*
X-275372Y318496D01*
X-275313Y318315D01*
X-275249Y318135D01*
X-275244Y318101D01*
X-275233Y318068D01*
X-275207Y317879D01*
X-275176Y317691D01*
X-275176Y317656D01*
X-275172Y317622D01*
X-275179Y317431D01*
X-275182Y317241D01*
X-275188Y317206D01*
X-275190Y317172D01*
X-275231Y316986D01*
X-275267Y316798D01*
X-275280Y316766D01*
X-275287Y316732D01*
X-275361Y316556D01*
X-275430Y316378D01*
X-275448Y316349D01*
X-275461Y316317D01*
X-275565Y316156D01*
X-275664Y315994D01*
X-275687Y315968D01*
X-275705Y315939D01*
X-275912Y315704D01*
X-278759Y312858D01*
X-280925Y307629D01*
X-280925Y301971D01*
X-278759Y296742D01*
X-275912Y293896D01*
X-275890Y293869D01*
X-275864Y293846D01*
X-275746Y293697D01*
X-275623Y293550D01*
X-275606Y293520D01*
X-275585Y293493D01*
X-275495Y293325D01*
X-275400Y293159D01*
X-275388Y293127D01*
X-275372Y293096D01*
X-275313Y292915D01*
X-275249Y292735D01*
X-275244Y292701D01*
X-275233Y292668D01*
X-275207Y292479D01*
X-275176Y292291D01*
X-275176Y292256D01*
X-275172Y292222D01*
X-275179Y292031D01*
X-275182Y291841D01*
X-275188Y291806D01*
X-275190Y291772D01*
X-275231Y291586D01*
X-275267Y291398D01*
X-275280Y291366D01*
X-275287Y291332D01*
X-275361Y291156D01*
X-275430Y290978D01*
X-275448Y290949D01*
X-275461Y290917D01*
X-275565Y290756D01*
X-275664Y290594D01*
X-275687Y290568D01*
X-275705Y290539D01*
X-275912Y290304D01*
X-278759Y287458D01*
X-280925Y282229D01*
X-280925Y276571D01*
X-278759Y271342D01*
X-274758Y267341D01*
X-269529Y265175D01*
X-263871Y265175D01*
G37*
%LPD*%
%LPC*%
G36*
X-543699Y521327D02*
X-543699Y521327D01*
X-539261Y523165D01*
X-536883Y525544D01*
X-536757Y525649D01*
X-536636Y525761D01*
X-536585Y525793D01*
X-536538Y525832D01*
X-536395Y525914D01*
X-536256Y526002D01*
X-536200Y526026D01*
X-536147Y526056D01*
X-535992Y526111D01*
X-535840Y526173D01*
X-535780Y526186D01*
X-535722Y526207D01*
X-535560Y526233D01*
X-535399Y526268D01*
X-535322Y526273D01*
X-535278Y526280D01*
X-535217Y526279D01*
X-535088Y526287D01*
X-531985Y526287D01*
X-529371Y527370D01*
X-514670Y542071D01*
X-513587Y544685D01*
X-513587Y598315D01*
X-514670Y600929D01*
X-529371Y615630D01*
X-531985Y616713D01*
X-532788Y616713D01*
X-532951Y616727D01*
X-533116Y616734D01*
X-533175Y616747D01*
X-533236Y616753D01*
X-533395Y616796D01*
X-533555Y616832D01*
X-533612Y616855D01*
X-533670Y616871D01*
X-533819Y616942D01*
X-533971Y617005D01*
X-534022Y617038D01*
X-534077Y617065D01*
X-534211Y617160D01*
X-534349Y617250D01*
X-534407Y617301D01*
X-534443Y617327D01*
X-534486Y617370D01*
X-534583Y617456D01*
X-536961Y619835D01*
X-541399Y621673D01*
X-561201Y621673D01*
X-565639Y619835D01*
X-569035Y616439D01*
X-570873Y612001D01*
X-570873Y607199D01*
X-569035Y602761D01*
X-565639Y599365D01*
X-562737Y598163D01*
X-562710Y598149D01*
X-562682Y598140D01*
X-562511Y598045D01*
X-562338Y597955D01*
X-562314Y597936D01*
X-562288Y597922D01*
X-562136Y597798D01*
X-561982Y597679D01*
X-561962Y597657D01*
X-561938Y597638D01*
X-561811Y597490D01*
X-561681Y597345D01*
X-561665Y597319D01*
X-561645Y597296D01*
X-561546Y597128D01*
X-561443Y596963D01*
X-561431Y596935D01*
X-561416Y596908D01*
X-561348Y596726D01*
X-561276Y596544D01*
X-561270Y596514D01*
X-561259Y596486D01*
X-561225Y596295D01*
X-561186Y596103D01*
X-561185Y596073D01*
X-561180Y596043D01*
X-561180Y595848D01*
X-561175Y595653D01*
X-561180Y595623D01*
X-561180Y595593D01*
X-561214Y595401D01*
X-561244Y595208D01*
X-561254Y595179D01*
X-561259Y595150D01*
X-561327Y594967D01*
X-561390Y594782D01*
X-561405Y594756D01*
X-561416Y594727D01*
X-561515Y594559D01*
X-561610Y594389D01*
X-561629Y594366D01*
X-561644Y594339D01*
X-561772Y594192D01*
X-561895Y594041D01*
X-561918Y594021D01*
X-561938Y593998D01*
X-562089Y593875D01*
X-562237Y593748D01*
X-562264Y593733D01*
X-562287Y593714D01*
X-562556Y593555D01*
X-564063Y592788D01*
X-565341Y591859D01*
X-566459Y590741D01*
X-567388Y589463D01*
X-568105Y588054D01*
X-568532Y586739D01*
X-558800Y586739D01*
X-534068Y586739D01*
X-534495Y588054D01*
X-535212Y589463D01*
X-536141Y590741D01*
X-537259Y591859D01*
X-538537Y592788D01*
X-540044Y593555D01*
X-540069Y593571D01*
X-540097Y593583D01*
X-540261Y593691D01*
X-540425Y593794D01*
X-540448Y593815D01*
X-540473Y593831D01*
X-540615Y593966D01*
X-540758Y594097D01*
X-540777Y594121D01*
X-540799Y594142D01*
X-540914Y594300D01*
X-541033Y594454D01*
X-541047Y594481D01*
X-541065Y594505D01*
X-541150Y594680D01*
X-541240Y594854D01*
X-541249Y594883D01*
X-541262Y594910D01*
X-541316Y595097D01*
X-541373Y595284D01*
X-541377Y595314D01*
X-541385Y595343D01*
X-541405Y595538D01*
X-541429Y595731D01*
X-541427Y595761D01*
X-541430Y595791D01*
X-541415Y595986D01*
X-541404Y596180D01*
X-541397Y596210D01*
X-541395Y596240D01*
X-541346Y596428D01*
X-541301Y596618D01*
X-541288Y596646D01*
X-541281Y596676D01*
X-541199Y596852D01*
X-541121Y597031D01*
X-541104Y597057D01*
X-541092Y597084D01*
X-540980Y597244D01*
X-540872Y597406D01*
X-540851Y597428D01*
X-540833Y597453D01*
X-540695Y597590D01*
X-540560Y597731D01*
X-540535Y597749D01*
X-540514Y597770D01*
X-540354Y597881D01*
X-540196Y597996D01*
X-540168Y598009D01*
X-540143Y598026D01*
X-539863Y598163D01*
X-536961Y599365D01*
X-536888Y599438D01*
X-536862Y599461D01*
X-536839Y599486D01*
X-536690Y599604D01*
X-536543Y599727D01*
X-536513Y599744D01*
X-536486Y599766D01*
X-536318Y599856D01*
X-536152Y599951D01*
X-536119Y599962D01*
X-536089Y599979D01*
X-535908Y600037D01*
X-535728Y600101D01*
X-535693Y600107D01*
X-535661Y600118D01*
X-535472Y600144D01*
X-535284Y600175D01*
X-535249Y600174D01*
X-535215Y600179D01*
X-535024Y600171D01*
X-534833Y600169D01*
X-534799Y600162D01*
X-534765Y600161D01*
X-534579Y600120D01*
X-534391Y600083D01*
X-534359Y600071D01*
X-534325Y600063D01*
X-534149Y599990D01*
X-533971Y599921D01*
X-533942Y599903D01*
X-533910Y599890D01*
X-533749Y599786D01*
X-533587Y599687D01*
X-533561Y599664D01*
X-533531Y599645D01*
X-533297Y599438D01*
X-528556Y594698D01*
X-528451Y594571D01*
X-528339Y594450D01*
X-528307Y594399D01*
X-528268Y594352D01*
X-528186Y594209D01*
X-528098Y594071D01*
X-528074Y594014D01*
X-528044Y593961D01*
X-527989Y593806D01*
X-527927Y593654D01*
X-527914Y593594D01*
X-527893Y593537D01*
X-527867Y593375D01*
X-527832Y593214D01*
X-527827Y593137D01*
X-527820Y593093D01*
X-527821Y593032D01*
X-527813Y592902D01*
X-527813Y550098D01*
X-527827Y549934D01*
X-527834Y549770D01*
X-527847Y549710D01*
X-527853Y549649D01*
X-527896Y549491D01*
X-527932Y549330D01*
X-527955Y549274D01*
X-527971Y549215D01*
X-528042Y549067D01*
X-528105Y548915D01*
X-528138Y548863D01*
X-528165Y548808D01*
X-528260Y548675D01*
X-528350Y548537D01*
X-528401Y548479D01*
X-528427Y548442D01*
X-528470Y548400D01*
X-528556Y548302D01*
X-534447Y542412D01*
X-534474Y542389D01*
X-534497Y542364D01*
X-534646Y542245D01*
X-534793Y542123D01*
X-534823Y542106D01*
X-534850Y542084D01*
X-535018Y541994D01*
X-535184Y541899D01*
X-535216Y541888D01*
X-535247Y541871D01*
X-535428Y541813D01*
X-535608Y541749D01*
X-535642Y541743D01*
X-535675Y541732D01*
X-535864Y541706D01*
X-536052Y541675D01*
X-536086Y541676D01*
X-536121Y541671D01*
X-536312Y541679D01*
X-536502Y541681D01*
X-536536Y541688D01*
X-536571Y541689D01*
X-536757Y541731D01*
X-536944Y541767D01*
X-536977Y541779D01*
X-537010Y541787D01*
X-537187Y541860D01*
X-537364Y541929D01*
X-537394Y541947D01*
X-537426Y541960D01*
X-537586Y542064D01*
X-537749Y542163D01*
X-537775Y542186D01*
X-537804Y542205D01*
X-538038Y542412D01*
X-539261Y543635D01*
X-543699Y545473D01*
X-548501Y545473D01*
X-552939Y543635D01*
X-556335Y540239D01*
X-558173Y535801D01*
X-558173Y530999D01*
X-556335Y526561D01*
X-552939Y523165D01*
X-548501Y521327D01*
X-543699Y521327D01*
G37*
%LPD*%
%LPC*%
G36*
X-41968Y726413D02*
X-41968Y726413D01*
X-40232Y727802D01*
X-39159Y729749D01*
X-39119Y730115D01*
X-39095Y730232D01*
X-39081Y730351D01*
X-39050Y730453D01*
X-39030Y730556D01*
X-38986Y730667D01*
X-38951Y730782D01*
X-38903Y730877D01*
X-38864Y730975D01*
X-38801Y731077D01*
X-38747Y731183D01*
X-38683Y731268D01*
X-38627Y731358D01*
X-38547Y731447D01*
X-38475Y731542D01*
X-38397Y731614D01*
X-38326Y731693D01*
X-38231Y731766D01*
X-38143Y731847D01*
X-38054Y731904D01*
X-37970Y731969D01*
X-37865Y732025D01*
X-37764Y732089D01*
X-37665Y732129D01*
X-37572Y732179D01*
X-37458Y732215D01*
X-37347Y732260D01*
X-37243Y732282D01*
X-37142Y732314D01*
X-37024Y732330D01*
X-36907Y732355D01*
X-36758Y732364D01*
X-36696Y732372D01*
X-36658Y732370D01*
X-36595Y732374D01*
X-34536Y732374D01*
X-34324Y732355D01*
X-34113Y732338D01*
X-34100Y732335D01*
X-34087Y732334D01*
X-33881Y732278D01*
X-33678Y732224D01*
X-33666Y732219D01*
X-33653Y732215D01*
X-33462Y732125D01*
X-33269Y732035D01*
X-33258Y732028D01*
X-33246Y732022D01*
X-33074Y731899D01*
X-32900Y731777D01*
X-32891Y731768D01*
X-32880Y731760D01*
X-32731Y731607D01*
X-32583Y731458D01*
X-32575Y731447D01*
X-32566Y731437D01*
X-32447Y731261D01*
X-32327Y731087D01*
X-32320Y731073D01*
X-32314Y731064D01*
X-32298Y731028D01*
X-32190Y730806D01*
X-31154Y728306D01*
X-29582Y726734D01*
X-27528Y725883D01*
X-25304Y725883D01*
X-23250Y726734D01*
X-21678Y728306D01*
X-20827Y730360D01*
X-20827Y745565D01*
X-21512Y747219D01*
X-21562Y747376D01*
X-21618Y747531D01*
X-21629Y747591D01*
X-21647Y747649D01*
X-21668Y747812D01*
X-21696Y747974D01*
X-21696Y748035D01*
X-21704Y748096D01*
X-21695Y748260D01*
X-21695Y748425D01*
X-21684Y748485D01*
X-21681Y748545D01*
X-21644Y748705D01*
X-21614Y748867D01*
X-21589Y748941D01*
X-21579Y748984D01*
X-21555Y749040D01*
X-21512Y749163D01*
X-20827Y750817D01*
X-20827Y754339D01*
X-21678Y756393D01*
X-23250Y757965D01*
X-24409Y758445D01*
X-24469Y758476D01*
X-24532Y758499D01*
X-24668Y758580D01*
X-24808Y758653D01*
X-24862Y758695D01*
X-24919Y758729D01*
X-25039Y758832D01*
X-25164Y758929D01*
X-25209Y758979D01*
X-25260Y759023D01*
X-25360Y759146D01*
X-25466Y759263D01*
X-25501Y759320D01*
X-25544Y759373D01*
X-25620Y759511D01*
X-25704Y759646D01*
X-25729Y759708D01*
X-25761Y759767D01*
X-25812Y759917D01*
X-25871Y760064D01*
X-25884Y760130D01*
X-25906Y760193D01*
X-25960Y760501D01*
X-26004Y760877D01*
X-26004Y760912D01*
X-26020Y761167D01*
X-26020Y762207D01*
X-26001Y762419D01*
X-25985Y762630D01*
X-25981Y762643D01*
X-25980Y762656D01*
X-25925Y762860D01*
X-25871Y763066D01*
X-25865Y763078D01*
X-25862Y763090D01*
X-25772Y763280D01*
X-25682Y763474D01*
X-25674Y763485D01*
X-25668Y763497D01*
X-25545Y763669D01*
X-25423Y763843D01*
X-25414Y763852D01*
X-25406Y763863D01*
X-25254Y764012D01*
X-25104Y764160D01*
X-25093Y764168D01*
X-25084Y764177D01*
X-24907Y764296D01*
X-24733Y764416D01*
X-24719Y764423D01*
X-24710Y764429D01*
X-24674Y764445D01*
X-24453Y764553D01*
X-23250Y765051D01*
X-21678Y766624D01*
X-20827Y768678D01*
X-20827Y770901D01*
X-21678Y772955D01*
X-23250Y774527D01*
X-25488Y775454D01*
X-25634Y775530D01*
X-25783Y775599D01*
X-25833Y775634D01*
X-25887Y775663D01*
X-26017Y775763D01*
X-26152Y775858D01*
X-26195Y775901D01*
X-26243Y775938D01*
X-26353Y776060D01*
X-26469Y776177D01*
X-26504Y776227D01*
X-26545Y776273D01*
X-26631Y776412D01*
X-26725Y776548D01*
X-26759Y776617D01*
X-26782Y776655D01*
X-26805Y776712D01*
X-26862Y776828D01*
X-26871Y776850D01*
X-28443Y778422D01*
X-30497Y779273D01*
X-32721Y779273D01*
X-34775Y778422D01*
X-36347Y776850D01*
X-36356Y776828D01*
X-36432Y776683D01*
X-36501Y776533D01*
X-36536Y776483D01*
X-36564Y776429D01*
X-36665Y776299D01*
X-36759Y776164D01*
X-36802Y776122D01*
X-36840Y776073D01*
X-36962Y775963D01*
X-37079Y775847D01*
X-37129Y775812D01*
X-37174Y775772D01*
X-37314Y775685D01*
X-37449Y775591D01*
X-37518Y775557D01*
X-37556Y775534D01*
X-37613Y775511D01*
X-37730Y775454D01*
X-39967Y774527D01*
X-41540Y772955D01*
X-42008Y771825D01*
X-42061Y771723D01*
X-42105Y771617D01*
X-42165Y771524D01*
X-42216Y771426D01*
X-42287Y771335D01*
X-42349Y771238D01*
X-42424Y771157D01*
X-42492Y771070D01*
X-42577Y770993D01*
X-42656Y770909D01*
X-42744Y770842D01*
X-42826Y770768D01*
X-42924Y770707D01*
X-43016Y770638D01*
X-43115Y770589D01*
X-43209Y770530D01*
X-43315Y770488D01*
X-43418Y770436D01*
X-43524Y770405D01*
X-43627Y770363D01*
X-43740Y770340D01*
X-43849Y770308D01*
X-43959Y770295D01*
X-44068Y770273D01*
X-44183Y770271D01*
X-44297Y770258D01*
X-44407Y770265D01*
X-44518Y770262D01*
X-44632Y770280D01*
X-44746Y770288D01*
X-44901Y770322D01*
X-44963Y770331D01*
X-44996Y770343D01*
X-45051Y770355D01*
X-49318Y771574D01*
X-51526Y771320D01*
X-53470Y770240D01*
X-54852Y768499D01*
X-55463Y766361D01*
X-55209Y764152D01*
X-54130Y762209D01*
X-52388Y760826D01*
X-35145Y755900D01*
X-35021Y755852D01*
X-34895Y755814D01*
X-34812Y755772D01*
X-34724Y755738D01*
X-34611Y755670D01*
X-34494Y755610D01*
X-34419Y755553D01*
X-34339Y755505D01*
X-34240Y755417D01*
X-34135Y755338D01*
X-34072Y755269D01*
X-34001Y755207D01*
X-33919Y755104D01*
X-33830Y755007D01*
X-33779Y754928D01*
X-33721Y754854D01*
X-33659Y754738D01*
X-33588Y754627D01*
X-33552Y754540D01*
X-33508Y754458D01*
X-33467Y754332D01*
X-33417Y754210D01*
X-33397Y754119D01*
X-33368Y754030D01*
X-33350Y753899D01*
X-33322Y753770D01*
X-33314Y753644D01*
X-33306Y753584D01*
X-33308Y753538D01*
X-33303Y753458D01*
X-33303Y750817D01*
X-32452Y748763D01*
X-32399Y748710D01*
X-32263Y748547D01*
X-32125Y748386D01*
X-32119Y748375D01*
X-32110Y748364D01*
X-32004Y748179D01*
X-31898Y747997D01*
X-31893Y747985D01*
X-31887Y747974D01*
X-31816Y747774D01*
X-31743Y747575D01*
X-31740Y747562D01*
X-31736Y747549D01*
X-31701Y747341D01*
X-31665Y747131D01*
X-31665Y747118D01*
X-31662Y747105D01*
X-31665Y746893D01*
X-31666Y746681D01*
X-31668Y746668D01*
X-31669Y746655D01*
X-31709Y746446D01*
X-31747Y746238D01*
X-31752Y746223D01*
X-31754Y746213D01*
X-31768Y746176D01*
X-31849Y745943D01*
X-32190Y745119D01*
X-32288Y744931D01*
X-32384Y744742D01*
X-32392Y744732D01*
X-32398Y744720D01*
X-32528Y744552D01*
X-32656Y744383D01*
X-32666Y744374D01*
X-32674Y744364D01*
X-32832Y744222D01*
X-32987Y744078D01*
X-32998Y744071D01*
X-33008Y744062D01*
X-33188Y743950D01*
X-33367Y743836D01*
X-33379Y743831D01*
X-33390Y743824D01*
X-33587Y743746D01*
X-33784Y743665D01*
X-33796Y743663D01*
X-33809Y743658D01*
X-34016Y743615D01*
X-34224Y743571D01*
X-34240Y743570D01*
X-34250Y743567D01*
X-34289Y743567D01*
X-34536Y743551D01*
X-49334Y743551D01*
X-49378Y743555D01*
X-49614Y743567D01*
X-50284Y743641D01*
X-50428Y743613D01*
X-50626Y743571D01*
X-50655Y743569D01*
X-50673Y743565D01*
X-50727Y743564D01*
X-50888Y743554D01*
X-51507Y743298D01*
X-51549Y743285D01*
X-51772Y743205D01*
X-52419Y743018D01*
X-52542Y742936D01*
X-52708Y742821D01*
X-52734Y742809D01*
X-52749Y742799D01*
X-52799Y742777D01*
X-52944Y742706D01*
X-53418Y742233D01*
X-53452Y742204D01*
X-53627Y742045D01*
X-54153Y741624D01*
X-54235Y741502D01*
X-54345Y741333D01*
X-54364Y741311D01*
X-54374Y741296D01*
X-54412Y741257D01*
X-54519Y741136D01*
X-54775Y740517D01*
X-54795Y740479D01*
X-54897Y740264D01*
X-55222Y739674D01*
X-55251Y739530D01*
X-55287Y739331D01*
X-55297Y739304D01*
X-55300Y739285D01*
X-55320Y739235D01*
X-55373Y739082D01*
X-55373Y738413D01*
X-55376Y738380D01*
X-55374Y738347D01*
X-55381Y738287D01*
X-55388Y738132D01*
X-55463Y737462D01*
X-55434Y737318D01*
X-55392Y737121D01*
X-55390Y737092D01*
X-55387Y737074D01*
X-55386Y737020D01*
X-55376Y736858D01*
X-55120Y736240D01*
X-55106Y736198D01*
X-55027Y735975D01*
X-54839Y735327D01*
X-54758Y735205D01*
X-54643Y735039D01*
X-54630Y735013D01*
X-54620Y734997D01*
X-54598Y734948D01*
X-54528Y734803D01*
X-54054Y734329D01*
X-54026Y734295D01*
X-53867Y734120D01*
X-48261Y727112D01*
X-46313Y726040D01*
X-44103Y725794D01*
X-41968Y726413D01*
G37*
%LPD*%
%LPC*%
G36*
X-266700Y434339D02*
X-266700Y434339D01*
X-254757Y434339D01*
X-254808Y434655D01*
X-255400Y436480D01*
X-256272Y438190D01*
X-257400Y439743D01*
X-258898Y441241D01*
X-258901Y441245D01*
X-258964Y441299D01*
X-258970Y441307D01*
X-258977Y441313D01*
X-259110Y441481D01*
X-259246Y441650D01*
X-259251Y441659D01*
X-259256Y441666D01*
X-259357Y441854D01*
X-259462Y442046D01*
X-259465Y442055D01*
X-259469Y442063D01*
X-259535Y442266D01*
X-259604Y442473D01*
X-259605Y442482D01*
X-259608Y442491D01*
X-259637Y442704D01*
X-259669Y442919D01*
X-259668Y442928D01*
X-259670Y442937D01*
X-259661Y443153D01*
X-259653Y443369D01*
X-259652Y443378D01*
X-259651Y443387D01*
X-259604Y443598D01*
X-259559Y443809D01*
X-259556Y443818D01*
X-259554Y443827D01*
X-259471Y444023D01*
X-259389Y444226D01*
X-259384Y444234D01*
X-259380Y444242D01*
X-259263Y444423D01*
X-259147Y444606D01*
X-259141Y444612D01*
X-259136Y444620D01*
X-258929Y444855D01*
X-254641Y449142D01*
X-252475Y454371D01*
X-252475Y460029D01*
X-254641Y465258D01*
X-258642Y469259D01*
X-263871Y471425D01*
X-269529Y471425D01*
X-274758Y469259D01*
X-278759Y465258D01*
X-280925Y460029D01*
X-280925Y454371D01*
X-278759Y449142D01*
X-274471Y444855D01*
X-274465Y444847D01*
X-274458Y444841D01*
X-274319Y444673D01*
X-274182Y444509D01*
X-274178Y444501D01*
X-274172Y444494D01*
X-274067Y444306D01*
X-273959Y444118D01*
X-273956Y444109D01*
X-273951Y444101D01*
X-273880Y443896D01*
X-273808Y443694D01*
X-273807Y443685D01*
X-273804Y443676D01*
X-273770Y443462D01*
X-273735Y443250D01*
X-273735Y443240D01*
X-273733Y443231D01*
X-273738Y443015D01*
X-273741Y442799D01*
X-273743Y442790D01*
X-273743Y442781D01*
X-273785Y442570D01*
X-273826Y442357D01*
X-273830Y442349D01*
X-273832Y442339D01*
X-273911Y442138D01*
X-273989Y441937D01*
X-273994Y441929D01*
X-273997Y441921D01*
X-274110Y441738D01*
X-274223Y441553D01*
X-274229Y441546D01*
X-274234Y441538D01*
X-274377Y441378D01*
X-274521Y441215D01*
X-274528Y441209D01*
X-274534Y441202D01*
X-274570Y441174D01*
X-276000Y439743D01*
X-277128Y438190D01*
X-278000Y436480D01*
X-278592Y434655D01*
X-278643Y434339D01*
X-266700Y434339D01*
X-266700Y434339D01*
G37*
%LPD*%
%LPC*%
G36*
X-543010Y574159D02*
X-543010Y574159D01*
X-541449Y574407D01*
X-539946Y574895D01*
X-538537Y575612D01*
X-537259Y576541D01*
X-536141Y577659D01*
X-535212Y578937D01*
X-534495Y580346D01*
X-534068Y581661D01*
X-556261Y581661D01*
X-556261Y574159D01*
X-543010Y574159D01*
G37*
%LPD*%
%LPC*%
G36*
X-269239Y408939D02*
X-269239Y408939D01*
X-269239Y429261D01*
X-278643Y429261D01*
X-278592Y428945D01*
X-278000Y427120D01*
X-277128Y425410D01*
X-276000Y423857D01*
X-274643Y422500D01*
X-273090Y421372D01*
X-273072Y421363D01*
X-272940Y421280D01*
X-272803Y421204D01*
X-272750Y421160D01*
X-272691Y421123D01*
X-272575Y421019D01*
X-272454Y420920D01*
X-272409Y420867D01*
X-272357Y420821D01*
X-272262Y420697D01*
X-272161Y420579D01*
X-272125Y420519D01*
X-272083Y420464D01*
X-272011Y420325D01*
X-271932Y420191D01*
X-271908Y420126D01*
X-271876Y420064D01*
X-271829Y419915D01*
X-271775Y419769D01*
X-271763Y419700D01*
X-271742Y419634D01*
X-271723Y419479D01*
X-271696Y419326D01*
X-271696Y419256D01*
X-271687Y419187D01*
X-271696Y419031D01*
X-271696Y418875D01*
X-271708Y418807D01*
X-271712Y418738D01*
X-271747Y418586D01*
X-271775Y418432D01*
X-271799Y418367D01*
X-271815Y418299D01*
X-271877Y418156D01*
X-271931Y418010D01*
X-271967Y417950D01*
X-271994Y417886D01*
X-272081Y417757D01*
X-272160Y417622D01*
X-272205Y417569D01*
X-272244Y417511D01*
X-272352Y417399D01*
X-272454Y417281D01*
X-272508Y417237D01*
X-272556Y417187D01*
X-272682Y417095D01*
X-272803Y416996D01*
X-272879Y416951D01*
X-272920Y416922D01*
X-272972Y416896D01*
X-273072Y416838D01*
X-273090Y416828D01*
X-274643Y415700D01*
X-276000Y414343D01*
X-277128Y412790D01*
X-278000Y411080D01*
X-278592Y409255D01*
X-278643Y408939D01*
X-269239Y408939D01*
G37*
%LPD*%
%LPC*%
G36*
X-254757Y408939D02*
X-254757Y408939D01*
X-254808Y409255D01*
X-255400Y411080D01*
X-256272Y412790D01*
X-257400Y414343D01*
X-258757Y415700D01*
X-260310Y416828D01*
X-260328Y416838D01*
X-260460Y416920D01*
X-260597Y416996D01*
X-260651Y417040D01*
X-260709Y417077D01*
X-260825Y417182D01*
X-260946Y417280D01*
X-260991Y417333D01*
X-261043Y417380D01*
X-261138Y417503D01*
X-261240Y417622D01*
X-261275Y417681D01*
X-261317Y417736D01*
X-261389Y417875D01*
X-261468Y418009D01*
X-261492Y418075D01*
X-261524Y418136D01*
X-261570Y418285D01*
X-261625Y418432D01*
X-261637Y418500D01*
X-261658Y418566D01*
X-261677Y418721D01*
X-261704Y418875D01*
X-261704Y418944D01*
X-261713Y419013D01*
X-261704Y419169D01*
X-261704Y419325D01*
X-261692Y419393D01*
X-261688Y419463D01*
X-261652Y419615D01*
X-261625Y419768D01*
X-261601Y419833D01*
X-261585Y419901D01*
X-261523Y420044D01*
X-261468Y420190D01*
X-261433Y420250D01*
X-261405Y420314D01*
X-261319Y420444D01*
X-261240Y420578D01*
X-261194Y420631D01*
X-261156Y420689D01*
X-261048Y420801D01*
X-260946Y420920D01*
X-260892Y420964D01*
X-260844Y421014D01*
X-260718Y421105D01*
X-260597Y421204D01*
X-260520Y421249D01*
X-260480Y421278D01*
X-260428Y421304D01*
X-260328Y421363D01*
X-260310Y421372D01*
X-258757Y422500D01*
X-257400Y423857D01*
X-256272Y425410D01*
X-255400Y427120D01*
X-254808Y428945D01*
X-254757Y429261D01*
X-264161Y429261D01*
X-264161Y408939D01*
X-254757Y408939D01*
G37*
%LPD*%
%LPC*%
G36*
X-650284Y752284D02*
X-650284Y752284D01*
X-650284Y769370D01*
X-651712Y768906D01*
X-653324Y768084D01*
X-654788Y767021D01*
X-656067Y765741D01*
X-657131Y764278D01*
X-657952Y762666D01*
X-658511Y760945D01*
X-658794Y759158D01*
X-658794Y752284D01*
X-650284Y752284D01*
G37*
%LPD*%
%LPC*%
G36*
X-650284Y746316D02*
X-650284Y746316D01*
X-658794Y746316D01*
X-658794Y739442D01*
X-658511Y737655D01*
X-657952Y735934D01*
X-657131Y734322D01*
X-656067Y732859D01*
X-654788Y731579D01*
X-653324Y730516D01*
X-651712Y729694D01*
X-650284Y729230D01*
X-650284Y746316D01*
G37*
%LPD*%
%LPC*%
G36*
X-635806Y752284D02*
X-635806Y752284D01*
X-635806Y759158D01*
X-636089Y760945D01*
X-636648Y762666D01*
X-637469Y764278D01*
X-638533Y765741D01*
X-639812Y767021D01*
X-641276Y768084D01*
X-642888Y768906D01*
X-644316Y769370D01*
X-644316Y752284D01*
X-635806Y752284D01*
G37*
%LPD*%
%LPC*%
G36*
X-642888Y729694D02*
X-642888Y729694D01*
X-641276Y730516D01*
X-639812Y731579D01*
X-638533Y732859D01*
X-637469Y734322D01*
X-636648Y735934D01*
X-636089Y737655D01*
X-635806Y739442D01*
X-635806Y746316D01*
X-644316Y746316D01*
X-644316Y729230D01*
X-642888Y729694D01*
G37*
%LPD*%
%LPC*%
G36*
X-89915Y263018D02*
X-89915Y263018D01*
X-99319Y263018D01*
X-99268Y262702D01*
X-98676Y260877D01*
X-97804Y259167D01*
X-96676Y257614D01*
X-95319Y256257D01*
X-93766Y255129D01*
X-92056Y254258D01*
X-91661Y254129D01*
X-91565Y254088D01*
X-91466Y254057D01*
X-91358Y254000D01*
X-91246Y253952D01*
X-91159Y253895D01*
X-91067Y253847D01*
X-90972Y253772D01*
X-90870Y253705D01*
X-90794Y253634D01*
X-90712Y253570D01*
X-90631Y253480D01*
X-90543Y253396D01*
X-90481Y253312D01*
X-90412Y253235D01*
X-90348Y253131D01*
X-90276Y253033D01*
X-90230Y252940D01*
X-90175Y252851D01*
X-90131Y252739D01*
X-90077Y252630D01*
X-90048Y252529D01*
X-90010Y252433D01*
X-89986Y252313D01*
X-89952Y252197D01*
X-89942Y252093D01*
X-89921Y251991D01*
X-89919Y251869D01*
X-89915Y251837D01*
X-89915Y263018D01*
G37*
%LPD*%
%LPC*%
G36*
X-89915Y290704D02*
X-89915Y290704D01*
X-99319Y290704D01*
X-99268Y290388D01*
X-98676Y288563D01*
X-97804Y286853D01*
X-96676Y285300D01*
X-95319Y283943D01*
X-93766Y282815D01*
X-92056Y281944D01*
X-91661Y281815D01*
X-91565Y281774D01*
X-91466Y281743D01*
X-91358Y281686D01*
X-91246Y281638D01*
X-91159Y281581D01*
X-91067Y281533D01*
X-90972Y281458D01*
X-90870Y281391D01*
X-90794Y281320D01*
X-90712Y281256D01*
X-90631Y281166D01*
X-90543Y281082D01*
X-90481Y280998D01*
X-90412Y280921D01*
X-90348Y280817D01*
X-90276Y280719D01*
X-90230Y280626D01*
X-90175Y280537D01*
X-90131Y280425D01*
X-90077Y280316D01*
X-90048Y280215D01*
X-90010Y280119D01*
X-89986Y279999D01*
X-89952Y279883D01*
X-89942Y279779D01*
X-89921Y279677D01*
X-89919Y279555D01*
X-89915Y279523D01*
X-89915Y290704D01*
G37*
%LPD*%
%LPC*%
G36*
X-118363Y249175D02*
X-118363Y249175D01*
X-127767Y249175D01*
X-127716Y248859D01*
X-127124Y247034D01*
X-126252Y245324D01*
X-125124Y243771D01*
X-123767Y242414D01*
X-122214Y241286D01*
X-120504Y240415D01*
X-120109Y240286D01*
X-120013Y240245D01*
X-119914Y240214D01*
X-119806Y240157D01*
X-119694Y240109D01*
X-119607Y240052D01*
X-119515Y240004D01*
X-119420Y239929D01*
X-119318Y239862D01*
X-119242Y239791D01*
X-119160Y239727D01*
X-119079Y239637D01*
X-118991Y239553D01*
X-118929Y239469D01*
X-118860Y239392D01*
X-118796Y239288D01*
X-118724Y239190D01*
X-118678Y239097D01*
X-118623Y239008D01*
X-118579Y238896D01*
X-118525Y238787D01*
X-118496Y238686D01*
X-118458Y238590D01*
X-118434Y238470D01*
X-118400Y238354D01*
X-118390Y238250D01*
X-118369Y238148D01*
X-118367Y238026D01*
X-118363Y237994D01*
X-118363Y249175D01*
G37*
%LPD*%
%LPC*%
G36*
X-89915Y235332D02*
X-89915Y235332D01*
X-99319Y235332D01*
X-99268Y235016D01*
X-98676Y233191D01*
X-97804Y231481D01*
X-96676Y229928D01*
X-95319Y228571D01*
X-93766Y227443D01*
X-92056Y226572D01*
X-91661Y226443D01*
X-91565Y226402D01*
X-91466Y226371D01*
X-91358Y226314D01*
X-91246Y226266D01*
X-91159Y226209D01*
X-91067Y226161D01*
X-90972Y226086D01*
X-90870Y226019D01*
X-90794Y225948D01*
X-90712Y225884D01*
X-90631Y225794D01*
X-90543Y225710D01*
X-90481Y225626D01*
X-90412Y225549D01*
X-90348Y225445D01*
X-90276Y225347D01*
X-90230Y225254D01*
X-90175Y225165D01*
X-90131Y225053D01*
X-90077Y224944D01*
X-90048Y224843D01*
X-90010Y224747D01*
X-89986Y224627D01*
X-89952Y224511D01*
X-89942Y224407D01*
X-89921Y224305D01*
X-89919Y224183D01*
X-89915Y224151D01*
X-89915Y235332D01*
G37*
%LPD*%
%LPC*%
G36*
X-89915Y207646D02*
X-89915Y207646D01*
X-99319Y207646D01*
X-99268Y207330D01*
X-98676Y205505D01*
X-97804Y203795D01*
X-96676Y202242D01*
X-95319Y200885D01*
X-93766Y199757D01*
X-92056Y198886D01*
X-91661Y198757D01*
X-91565Y198716D01*
X-91466Y198685D01*
X-91358Y198628D01*
X-91246Y198580D01*
X-91159Y198523D01*
X-91067Y198475D01*
X-90972Y198400D01*
X-90870Y198333D01*
X-90794Y198262D01*
X-90712Y198198D01*
X-90631Y198108D01*
X-90543Y198024D01*
X-90481Y197940D01*
X-90412Y197863D01*
X-90348Y197759D01*
X-90276Y197661D01*
X-90230Y197568D01*
X-90175Y197479D01*
X-90131Y197367D01*
X-90077Y197258D01*
X-90048Y197157D01*
X-90010Y197061D01*
X-89986Y196941D01*
X-89952Y196825D01*
X-89942Y196721D01*
X-89921Y196619D01*
X-89919Y196497D01*
X-89915Y196465D01*
X-89915Y207646D01*
G37*
%LPD*%
%LPC*%
G36*
X-89915Y318390D02*
X-89915Y318390D01*
X-99319Y318390D01*
X-99268Y318074D01*
X-98676Y316249D01*
X-97804Y314539D01*
X-96676Y312986D01*
X-95319Y311629D01*
X-93766Y310501D01*
X-92056Y309630D01*
X-91661Y309501D01*
X-91565Y309460D01*
X-91466Y309429D01*
X-91358Y309372D01*
X-91246Y309324D01*
X-91159Y309267D01*
X-91067Y309219D01*
X-90972Y309144D01*
X-90870Y309077D01*
X-90794Y309006D01*
X-90712Y308942D01*
X-90631Y308852D01*
X-90543Y308768D01*
X-90481Y308684D01*
X-90412Y308607D01*
X-90348Y308503D01*
X-90276Y308405D01*
X-90230Y308312D01*
X-90175Y308223D01*
X-90131Y308111D01*
X-90077Y308002D01*
X-90048Y307901D01*
X-90010Y307805D01*
X-89986Y307685D01*
X-89952Y307569D01*
X-89942Y307465D01*
X-89921Y307363D01*
X-89919Y307241D01*
X-89915Y307209D01*
X-89915Y318390D01*
G37*
%LPD*%
%LPC*%
G36*
X-89915Y346076D02*
X-89915Y346076D01*
X-99319Y346076D01*
X-99268Y345760D01*
X-98676Y343935D01*
X-97804Y342225D01*
X-96676Y340672D01*
X-95319Y339315D01*
X-93766Y338187D01*
X-92056Y337316D01*
X-91661Y337187D01*
X-91565Y337146D01*
X-91466Y337115D01*
X-91358Y337058D01*
X-91247Y337010D01*
X-91159Y336953D01*
X-91067Y336905D01*
X-90972Y336830D01*
X-90870Y336764D01*
X-90794Y336692D01*
X-90712Y336628D01*
X-90631Y336537D01*
X-90543Y336454D01*
X-90481Y336370D01*
X-90412Y336293D01*
X-90348Y336189D01*
X-90276Y336092D01*
X-90230Y335998D01*
X-90175Y335910D01*
X-90131Y335797D01*
X-90077Y335688D01*
X-90048Y335588D01*
X-90010Y335491D01*
X-89986Y335372D01*
X-89952Y335255D01*
X-89942Y335151D01*
X-89921Y335049D01*
X-89919Y334928D01*
X-89915Y334895D01*
X-89915Y346076D01*
G37*
%LPD*%
%LPC*%
G36*
X-89915Y152274D02*
X-89915Y152274D01*
X-99319Y152274D01*
X-99268Y151958D01*
X-98676Y150133D01*
X-97804Y148423D01*
X-96676Y146870D01*
X-95319Y145513D01*
X-93766Y144385D01*
X-92056Y143514D01*
X-91661Y143385D01*
X-91565Y143344D01*
X-91466Y143313D01*
X-91358Y143256D01*
X-91247Y143208D01*
X-91159Y143151D01*
X-91067Y143103D01*
X-90972Y143028D01*
X-90870Y142962D01*
X-90794Y142890D01*
X-90712Y142826D01*
X-90631Y142735D01*
X-90543Y142652D01*
X-90481Y142568D01*
X-90412Y142491D01*
X-90348Y142387D01*
X-90276Y142290D01*
X-90230Y142196D01*
X-90175Y142108D01*
X-90131Y141995D01*
X-90077Y141886D01*
X-90048Y141786D01*
X-90010Y141689D01*
X-89986Y141570D01*
X-89952Y141453D01*
X-89942Y141349D01*
X-89921Y141247D01*
X-89919Y141126D01*
X-89915Y141093D01*
X-89915Y152274D01*
G37*
%LPD*%
%LPC*%
G36*
X-89915Y373762D02*
X-89915Y373762D01*
X-99319Y373762D01*
X-99268Y373446D01*
X-98676Y371621D01*
X-97804Y369911D01*
X-96676Y368358D01*
X-95319Y367001D01*
X-93766Y365873D01*
X-92056Y365001D01*
X-91661Y364873D01*
X-91565Y364832D01*
X-91466Y364801D01*
X-91358Y364744D01*
X-91246Y364696D01*
X-91159Y364639D01*
X-91067Y364591D01*
X-90971Y364516D01*
X-90870Y364449D01*
X-90794Y364378D01*
X-90712Y364314D01*
X-90631Y364223D01*
X-90543Y364140D01*
X-90481Y364056D01*
X-90412Y363978D01*
X-90348Y363875D01*
X-90276Y363777D01*
X-90230Y363684D01*
X-90175Y363595D01*
X-90131Y363483D01*
X-90077Y363374D01*
X-90048Y363273D01*
X-90010Y363177D01*
X-89986Y363057D01*
X-89952Y362941D01*
X-89942Y362837D01*
X-89921Y362735D01*
X-89919Y362613D01*
X-89915Y362581D01*
X-89915Y373762D01*
G37*
%LPD*%
%LPC*%
G36*
X-89915Y179960D02*
X-89915Y179960D01*
X-99319Y179960D01*
X-99268Y179644D01*
X-98676Y177819D01*
X-97804Y176109D01*
X-96676Y174556D01*
X-95319Y173199D01*
X-93766Y172071D01*
X-92056Y171199D01*
X-91661Y171071D01*
X-91565Y171030D01*
X-91466Y170999D01*
X-91358Y170942D01*
X-91246Y170894D01*
X-91159Y170837D01*
X-91067Y170789D01*
X-90971Y170714D01*
X-90870Y170647D01*
X-90794Y170576D01*
X-90712Y170512D01*
X-90631Y170421D01*
X-90543Y170338D01*
X-90481Y170254D01*
X-90412Y170176D01*
X-90348Y170073D01*
X-90276Y169975D01*
X-90230Y169882D01*
X-90175Y169793D01*
X-90131Y169681D01*
X-90077Y169572D01*
X-90048Y169471D01*
X-90010Y169375D01*
X-89986Y169255D01*
X-89952Y169139D01*
X-89942Y169035D01*
X-89921Y168933D01*
X-89919Y168811D01*
X-89915Y168779D01*
X-89915Y179960D01*
G37*
%LPD*%
%LPC*%
G36*
X-103881Y226567D02*
X-103881Y226567D01*
X-103932Y226883D01*
X-104524Y228708D01*
X-105396Y230418D01*
X-106524Y231971D01*
X-107881Y233328D01*
X-109434Y234456D01*
X-111144Y235327D01*
X-111539Y235456D01*
X-111635Y235497D01*
X-111734Y235528D01*
X-111842Y235585D01*
X-111953Y235633D01*
X-112041Y235690D01*
X-112133Y235738D01*
X-112228Y235813D01*
X-112330Y235879D01*
X-112406Y235951D01*
X-112488Y236015D01*
X-112569Y236106D01*
X-112657Y236189D01*
X-112719Y236273D01*
X-112788Y236350D01*
X-112852Y236454D01*
X-112924Y236551D01*
X-112970Y236645D01*
X-113025Y236733D01*
X-113069Y236846D01*
X-113123Y236955D01*
X-113152Y237055D01*
X-113190Y237152D01*
X-113214Y237271D01*
X-113248Y237388D01*
X-113258Y237492D01*
X-113279Y237594D01*
X-113281Y237715D01*
X-113285Y237748D01*
X-113285Y226567D01*
X-103881Y226567D01*
G37*
%LPD*%
%LPC*%
G36*
X-89915Y323468D02*
X-89915Y323468D01*
X-89915Y334578D01*
X-89931Y334479D01*
X-89940Y334358D01*
X-89966Y334257D01*
X-89982Y334154D01*
X-90022Y334040D01*
X-90053Y333922D01*
X-90096Y333827D01*
X-90130Y333729D01*
X-90190Y333623D01*
X-90240Y333513D01*
X-90300Y333427D01*
X-90351Y333337D01*
X-90428Y333243D01*
X-90497Y333143D01*
X-90571Y333070D01*
X-90637Y332989D01*
X-90730Y332911D01*
X-90816Y332825D01*
X-90901Y332765D01*
X-90981Y332698D01*
X-91085Y332637D01*
X-91185Y332567D01*
X-91280Y332524D01*
X-91370Y332472D01*
X-91539Y332405D01*
X-91594Y332380D01*
X-91621Y332373D01*
X-91661Y332357D01*
X-92056Y332228D01*
X-93766Y331357D01*
X-95319Y330229D01*
X-96676Y328872D01*
X-97804Y327319D01*
X-98676Y325609D01*
X-99268Y323784D01*
X-99319Y323468D01*
X-89915Y323468D01*
G37*
%LPD*%
%LPC*%
G36*
X-89915Y129666D02*
X-89915Y129666D01*
X-89915Y140776D01*
X-89931Y140677D01*
X-89940Y140556D01*
X-89966Y140455D01*
X-89982Y140352D01*
X-90022Y140238D01*
X-90053Y140120D01*
X-90096Y140025D01*
X-90130Y139927D01*
X-90190Y139821D01*
X-90240Y139711D01*
X-90300Y139625D01*
X-90351Y139535D01*
X-90428Y139441D01*
X-90497Y139341D01*
X-90571Y139268D01*
X-90637Y139187D01*
X-90730Y139109D01*
X-90816Y139023D01*
X-90901Y138963D01*
X-90981Y138896D01*
X-91085Y138835D01*
X-91185Y138765D01*
X-91280Y138722D01*
X-91370Y138670D01*
X-91539Y138603D01*
X-91594Y138578D01*
X-91621Y138571D01*
X-91661Y138555D01*
X-92056Y138426D01*
X-93766Y137555D01*
X-95319Y136427D01*
X-96676Y135070D01*
X-97804Y133517D01*
X-98676Y131807D01*
X-99268Y129982D01*
X-99319Y129666D01*
X-89915Y129666D01*
G37*
%LPD*%
%LPC*%
G36*
X-89915Y268096D02*
X-89915Y268096D01*
X-89915Y279205D01*
X-89931Y279107D01*
X-89940Y278986D01*
X-89966Y278885D01*
X-89982Y278782D01*
X-90022Y278667D01*
X-90053Y278550D01*
X-90096Y278455D01*
X-90130Y278357D01*
X-90190Y278251D01*
X-90240Y278141D01*
X-90300Y278055D01*
X-90351Y277964D01*
X-90428Y277871D01*
X-90497Y277771D01*
X-90571Y277697D01*
X-90637Y277617D01*
X-90730Y277538D01*
X-90816Y277453D01*
X-90901Y277393D01*
X-90981Y277326D01*
X-91086Y277265D01*
X-91185Y277195D01*
X-91280Y277152D01*
X-91370Y277100D01*
X-91539Y277033D01*
X-91595Y277007D01*
X-91621Y277001D01*
X-91661Y276985D01*
X-92056Y276856D01*
X-93766Y275985D01*
X-95319Y274857D01*
X-96676Y273500D01*
X-97804Y271947D01*
X-98676Y270237D01*
X-99268Y268412D01*
X-99319Y268096D01*
X-89915Y268096D01*
G37*
%LPD*%
%LPC*%
G36*
X-118363Y226567D02*
X-118363Y226567D01*
X-118363Y237676D01*
X-118379Y237578D01*
X-118388Y237457D01*
X-118414Y237356D01*
X-118430Y237253D01*
X-118470Y237138D01*
X-118501Y237021D01*
X-118544Y236926D01*
X-118578Y236828D01*
X-118638Y236722D01*
X-118688Y236612D01*
X-118748Y236526D01*
X-118799Y236435D01*
X-118876Y236342D01*
X-118945Y236242D01*
X-119019Y236168D01*
X-119085Y236088D01*
X-119178Y236009D01*
X-119264Y235924D01*
X-119349Y235864D01*
X-119429Y235797D01*
X-119534Y235736D01*
X-119633Y235666D01*
X-119728Y235623D01*
X-119818Y235571D01*
X-119987Y235504D01*
X-120043Y235478D01*
X-120069Y235472D01*
X-120109Y235456D01*
X-120504Y235327D01*
X-122214Y234456D01*
X-123767Y233328D01*
X-125124Y231971D01*
X-126252Y230418D01*
X-127124Y228708D01*
X-127716Y226883D01*
X-127767Y226567D01*
X-118363Y226567D01*
G37*
%LPD*%
%LPC*%
G36*
X-89915Y295782D02*
X-89915Y295782D01*
X-89915Y306891D01*
X-89931Y306793D01*
X-89940Y306672D01*
X-89966Y306571D01*
X-89982Y306468D01*
X-90022Y306353D01*
X-90053Y306236D01*
X-90096Y306141D01*
X-90130Y306043D01*
X-90190Y305937D01*
X-90240Y305827D01*
X-90300Y305741D01*
X-90351Y305650D01*
X-90428Y305557D01*
X-90497Y305457D01*
X-90571Y305383D01*
X-90637Y305303D01*
X-90730Y305224D01*
X-90816Y305139D01*
X-90901Y305079D01*
X-90981Y305012D01*
X-91086Y304951D01*
X-91185Y304881D01*
X-91280Y304838D01*
X-91370Y304786D01*
X-91539Y304719D01*
X-91595Y304693D01*
X-91621Y304687D01*
X-91661Y304671D01*
X-92056Y304542D01*
X-93766Y303671D01*
X-95319Y302543D01*
X-96676Y301186D01*
X-97804Y299633D01*
X-98676Y297923D01*
X-99268Y296098D01*
X-99319Y295782D01*
X-89915Y295782D01*
G37*
%LPD*%
%LPC*%
G36*
X-89915Y212724D02*
X-89915Y212724D01*
X-89915Y223833D01*
X-89931Y223735D01*
X-89940Y223614D01*
X-89966Y223513D01*
X-89982Y223410D01*
X-90022Y223295D01*
X-90053Y223178D01*
X-90096Y223083D01*
X-90130Y222985D01*
X-90190Y222879D01*
X-90240Y222769D01*
X-90300Y222683D01*
X-90351Y222592D01*
X-90428Y222499D01*
X-90497Y222399D01*
X-90571Y222325D01*
X-90637Y222245D01*
X-90730Y222166D01*
X-90816Y222081D01*
X-90901Y222021D01*
X-90981Y221954D01*
X-91086Y221893D01*
X-91185Y221823D01*
X-91280Y221780D01*
X-91370Y221728D01*
X-91539Y221661D01*
X-91595Y221635D01*
X-91621Y221629D01*
X-91661Y221613D01*
X-92056Y221484D01*
X-93766Y220613D01*
X-95319Y219485D01*
X-96676Y218128D01*
X-97804Y216575D01*
X-98676Y214865D01*
X-99268Y213040D01*
X-99319Y212724D01*
X-89915Y212724D01*
G37*
%LPD*%
%LPC*%
G36*
X-89915Y185038D02*
X-89915Y185038D01*
X-89915Y196147D01*
X-89931Y196049D01*
X-89940Y195928D01*
X-89966Y195827D01*
X-89982Y195724D01*
X-90022Y195609D01*
X-90053Y195492D01*
X-90096Y195397D01*
X-90130Y195299D01*
X-90190Y195193D01*
X-90240Y195083D01*
X-90300Y194997D01*
X-90351Y194906D01*
X-90428Y194813D01*
X-90497Y194713D01*
X-90571Y194639D01*
X-90637Y194559D01*
X-90730Y194480D01*
X-90816Y194395D01*
X-90901Y194335D01*
X-90981Y194268D01*
X-91086Y194207D01*
X-91185Y194137D01*
X-91280Y194094D01*
X-91370Y194042D01*
X-91539Y193975D01*
X-91595Y193949D01*
X-91621Y193943D01*
X-91661Y193927D01*
X-92056Y193798D01*
X-93766Y192927D01*
X-95319Y191799D01*
X-96676Y190442D01*
X-97804Y188889D01*
X-98676Y187179D01*
X-99268Y185354D01*
X-99319Y185038D01*
X-89915Y185038D01*
G37*
%LPD*%
%LPC*%
G36*
X-89915Y240410D02*
X-89915Y240410D01*
X-89915Y251519D01*
X-89931Y251421D01*
X-89940Y251300D01*
X-89966Y251199D01*
X-89982Y251096D01*
X-90022Y250981D01*
X-90053Y250864D01*
X-90096Y250769D01*
X-90130Y250671D01*
X-90190Y250565D01*
X-90240Y250455D01*
X-90300Y250369D01*
X-90351Y250278D01*
X-90428Y250185D01*
X-90497Y250085D01*
X-90571Y250011D01*
X-90637Y249931D01*
X-90730Y249852D01*
X-90816Y249767D01*
X-90901Y249707D01*
X-90981Y249640D01*
X-91086Y249579D01*
X-91185Y249509D01*
X-91280Y249466D01*
X-91370Y249414D01*
X-91539Y249347D01*
X-91595Y249321D01*
X-91621Y249315D01*
X-91661Y249299D01*
X-92056Y249170D01*
X-93766Y248299D01*
X-95319Y247171D01*
X-96676Y245814D01*
X-97804Y244261D01*
X-98676Y242551D01*
X-99268Y240726D01*
X-99319Y240410D01*
X-89915Y240410D01*
G37*
%LPD*%
%LPC*%
G36*
X-89915Y351154D02*
X-89915Y351154D01*
X-89915Y362263D01*
X-89931Y362165D01*
X-89940Y362044D01*
X-89966Y361943D01*
X-89982Y361840D01*
X-90022Y361726D01*
X-90053Y361608D01*
X-90096Y361513D01*
X-90130Y361415D01*
X-90190Y361309D01*
X-90240Y361199D01*
X-90300Y361113D01*
X-90351Y361022D01*
X-90428Y360929D01*
X-90497Y360829D01*
X-90571Y360755D01*
X-90637Y360675D01*
X-90730Y360596D01*
X-90816Y360511D01*
X-90901Y360451D01*
X-90981Y360384D01*
X-91086Y360323D01*
X-91185Y360253D01*
X-91280Y360210D01*
X-91370Y360158D01*
X-91539Y360091D01*
X-91595Y360066D01*
X-91621Y360059D01*
X-91661Y360043D01*
X-92056Y359914D01*
X-93766Y359043D01*
X-95319Y357915D01*
X-96676Y356558D01*
X-97804Y355005D01*
X-98676Y353295D01*
X-99268Y351470D01*
X-99319Y351154D01*
X-89915Y351154D01*
G37*
%LPD*%
%LPC*%
G36*
X-89915Y157352D02*
X-89915Y157352D01*
X-89915Y168461D01*
X-89931Y168363D01*
X-89940Y168242D01*
X-89966Y168141D01*
X-89982Y168038D01*
X-90022Y167924D01*
X-90053Y167806D01*
X-90096Y167711D01*
X-90130Y167613D01*
X-90190Y167507D01*
X-90240Y167397D01*
X-90300Y167311D01*
X-90351Y167220D01*
X-90428Y167127D01*
X-90497Y167027D01*
X-90571Y166953D01*
X-90637Y166873D01*
X-90730Y166794D01*
X-90816Y166709D01*
X-90901Y166649D01*
X-90981Y166582D01*
X-91086Y166521D01*
X-91185Y166451D01*
X-91280Y166408D01*
X-91370Y166356D01*
X-91539Y166289D01*
X-91595Y166264D01*
X-91621Y166257D01*
X-91661Y166241D01*
X-92056Y166112D01*
X-93766Y165241D01*
X-95319Y164113D01*
X-96676Y162756D01*
X-97804Y161203D01*
X-98676Y159493D01*
X-99268Y157668D01*
X-99319Y157352D01*
X-89915Y157352D01*
G37*
%LPD*%
%LPC*%
G36*
X-113269Y238164D02*
X-113269Y238164D01*
X-113260Y238285D01*
X-113234Y238386D01*
X-113218Y238489D01*
X-113178Y238603D01*
X-113147Y238721D01*
X-113104Y238816D01*
X-113070Y238914D01*
X-113010Y239020D01*
X-112960Y239130D01*
X-112900Y239216D01*
X-112849Y239306D01*
X-112772Y239400D01*
X-112703Y239500D01*
X-112629Y239573D01*
X-112563Y239654D01*
X-112470Y239732D01*
X-112384Y239818D01*
X-112299Y239878D01*
X-112219Y239945D01*
X-112115Y240006D01*
X-112015Y240076D01*
X-111920Y240119D01*
X-111830Y240171D01*
X-111661Y240238D01*
X-111606Y240263D01*
X-111579Y240270D01*
X-111539Y240286D01*
X-111144Y240415D01*
X-109434Y241286D01*
X-107881Y242414D01*
X-106524Y243771D01*
X-105396Y245324D01*
X-104524Y247034D01*
X-103932Y248859D01*
X-103881Y249175D01*
X-113285Y249175D01*
X-113285Y238066D01*
X-113269Y238164D01*
G37*
%LPD*%
%LPC*%
G36*
X-462399Y485139D02*
X-462399Y485139D01*
X-462399Y486759D01*
X-468281Y492641D01*
X-469901Y492641D01*
X-469901Y485139D01*
X-462399Y485139D01*
G37*
%LPD*%
%LPC*%
G36*
X-468281Y472559D02*
X-468281Y472559D01*
X-462399Y478441D01*
X-462399Y480061D01*
X-469901Y480061D01*
X-469901Y472559D01*
X-468281Y472559D01*
G37*
%LPD*%
%LPC*%
G36*
X-561339Y581661D02*
X-561339Y581661D01*
X-568532Y581661D01*
X-568105Y580346D01*
X-567388Y578937D01*
X-566459Y577659D01*
X-565341Y576541D01*
X-564063Y575612D01*
X-562654Y574895D01*
X-561339Y574468D01*
X-561339Y581661D01*
G37*
%LPD*%
D10*
X-44591Y731472D02*
X-49784Y737963D01*
X-26416Y737963D01*
X-26416Y731472D02*
X-26416Y744454D01*
X-26416Y751929D02*
X-27714Y751929D01*
X-27714Y753227D01*
X-26416Y753227D01*
X-26416Y751929D01*
X-31609Y760702D02*
X-49784Y765895D01*
X-31609Y760702D02*
X-31609Y773684D01*
X-36802Y769789D02*
X-26416Y769789D01*
D11*
X-115824Y113284D03*
X-115824Y140970D03*
X-115824Y168656D03*
X-115824Y196342D03*
X-115824Y224028D03*
X-115824Y251714D03*
X-115824Y279400D03*
X-115824Y307086D03*
X-115824Y334772D03*
X-115824Y362458D03*
X-115824Y390144D03*
X-115824Y417830D03*
X-115824Y445516D03*
X-87376Y127127D03*
X-87376Y154813D03*
X-87376Y182499D03*
X-87376Y210185D03*
X-87376Y237871D03*
X-87376Y265557D03*
X-87376Y293243D03*
X-87376Y320929D03*
X-87376Y348615D03*
X-87376Y376301D03*
X-87376Y403987D03*
X-87376Y431673D03*
X-749300Y533400D03*
X-266700Y508000D03*
X-749300Y558800D03*
X-749300Y584200D03*
X-749300Y609600D03*
X-749300Y635000D03*
X-749300Y508000D03*
X-749300Y482600D03*
X-749300Y457200D03*
X-749300Y416560D03*
X-749300Y391160D03*
X-749300Y365760D03*
X-749300Y340360D03*
X-749300Y314960D03*
X-749300Y289560D03*
X-749300Y264160D03*
X-749300Y238760D03*
X-266700Y533400D03*
X-266700Y558800D03*
X-266700Y584200D03*
X-266700Y609600D03*
X-266700Y635000D03*
X-266700Y457200D03*
X-266700Y431800D03*
X-266700Y406400D03*
X-266700Y381000D03*
X-266700Y355600D03*
X-266700Y330200D03*
X-266700Y304800D03*
X-749300Y215900D03*
X-749300Y190500D03*
X-266700Y279400D03*
D12*
X-597300Y740347D02*
X-597300Y758254D01*
X-647300Y758254D02*
X-647300Y740347D01*
X-711600Y740347D02*
X-711600Y758254D01*
X-761600Y758254D02*
X-761600Y740347D01*
D13*
X-647700Y482600D03*
X-546100Y482600D03*
X-647700Y533400D03*
X-546100Y533400D03*
D14*
X-472440Y482600D03*
D13*
X-492760Y482600D03*
D15*
X-543800Y609600D02*
X-558800Y609600D01*
X-558800Y584200D02*
X-543800Y584200D01*
X-635000Y584200D02*
X-650000Y584200D01*
X-650000Y609600D02*
X-635000Y609600D01*
D16*
X-596900Y533400D02*
X-546100Y482600D01*
X-597300Y673500D02*
X-597300Y749300D01*
X-596900Y673100D02*
X-596900Y533400D01*
X-596900Y673100D02*
X-597300Y673500D01*
X-546100Y482600D02*
X-492760Y482600D01*
X-711600Y649370D02*
X-711600Y749300D01*
X-711600Y649370D02*
X-671830Y609600D01*
X-635000Y609600D01*
X-635000Y584200D02*
X-660400Y584200D01*
X-762000Y685800D01*
X-762000Y748900D01*
X-761600Y749300D01*
X-558800Y609600D02*
X-533400Y609600D01*
X-520700Y596900D01*
X-520700Y546100D01*
X-533400Y533400D01*
X-546100Y533400D01*
X-566674Y166624D02*
X-169164Y166624D01*
X-115824Y113284D01*
X-715010Y314960D02*
X-749300Y314960D01*
X-715010Y314960D02*
X-566674Y166624D01*
X-562610Y176530D02*
X-151384Y176530D01*
X-115824Y140970D01*
X-726440Y340360D02*
X-749300Y340360D01*
X-726440Y340360D02*
X-562610Y176530D01*
X-737870Y365760D02*
X-749300Y365760D01*
X-737870Y365760D02*
X-558546Y186436D01*
X-133604Y186436D01*
X-115824Y168656D01*
X-115824Y196342D02*
X-554482Y196342D01*
X-749300Y391160D01*
X-92710Y96520D02*
X-69850Y119380D01*
X-92710Y96520D02*
X-706120Y96520D01*
X-767080Y157480D01*
X-767080Y398780D01*
X-749300Y416560D01*
X-87376Y403987D02*
X-69850Y386461D01*
X-69850Y119380D01*
X-647700Y482600D02*
X-673100Y508000D01*
X-749300Y508000D01*
X-749300Y533400D02*
X-647700Y533400D01*
X-81280Y449580D02*
X-49530Y417830D01*
X-731520Y576580D02*
X-749300Y558800D01*
X-787400Y560070D02*
X-787400Y149860D01*
X-713740Y76200D01*
X-82870Y76200D02*
X-49530Y109540D01*
X-49530Y417830D01*
X-82870Y76200D02*
X-713740Y76200D01*
X-111760Y449580D02*
X-81280Y449580D01*
X-111760Y449580D02*
X-115824Y445516D01*
X-742356Y651764D02*
X-756244Y651764D01*
X-766064Y641944D01*
X-731520Y640928D02*
X-731520Y576580D01*
X-731520Y640928D02*
X-742356Y651764D01*
X-766064Y641944D02*
X-766064Y581406D01*
X-787400Y560070D01*
X-87630Y86360D02*
X-59690Y114300D01*
X-87630Y86360D02*
X-709930Y86360D01*
X-777240Y153670D01*
X-777240Y556260D01*
X-749300Y584200D01*
X-87376Y431673D02*
X-59690Y403987D01*
X-59690Y114300D01*
D17*
X-152400Y406400D03*
D16*
X-228702Y470002D02*
X-266700Y508000D01*
X-228702Y470002D02*
X-228702Y406400D01*
D17*
X-228702Y406400D03*
D16*
X-136144Y390144D02*
X-115824Y390144D01*
X-136144Y390144D02*
X-152400Y406400D01*
X-180340Y600710D02*
X-232410Y652780D01*
X-273370Y652780D01*
X-284005Y642145D01*
X-284005Y550705D01*
X-266700Y533400D01*
X-180340Y600710D02*
X-180340Y372110D01*
X-143002Y334772D01*
X-115824Y334772D01*
X-200660Y543560D02*
X-215900Y558800D01*
X-266700Y558800D01*
X-200660Y364236D02*
X-115824Y279400D01*
X-200660Y364236D02*
X-200660Y543560D01*
D17*
X-152400Y584200D03*
D16*
X-228600Y584200D02*
X-266700Y584200D01*
D17*
X-228600Y584200D03*
D16*
X-160020Y439166D02*
X-138684Y417830D01*
X-115824Y417830D01*
X-160020Y576580D02*
X-152400Y584200D01*
X-160020Y576580D02*
X-160020Y439166D01*
X-170180Y375920D02*
X-156718Y362458D01*
X-170180Y591820D02*
X-152400Y609600D01*
X-170180Y591820D02*
X-170180Y375920D01*
D17*
X-152400Y609600D03*
D16*
X-228600Y609600D02*
X-266700Y609600D01*
D17*
X-228600Y609600D03*
D16*
X-156718Y362458D02*
X-115824Y362458D01*
X-228600Y635000D02*
X-266700Y635000D01*
X-228600Y635000D02*
X-190500Y596900D01*
X-190500Y368300D01*
X-129286Y307086D01*
X-115824Y307086D01*
M02*
