G04 EAGLE Gerber X2 export*
%TF.Part,Single*%
%TF.FileFunction,Copper,L2,Bot,Mixed*%
%TF.FilePolarity,Positive*%
%TF.GenerationSoftware,Autodesk,EAGLE,9.6.2*%
%TF.CreationDate,2020-09-28T14:28:33Z*%
G75*
%MOMM*%
%FSLAX34Y34*%
%LPD*%
%INBottom Copper*%
%AMOC8*
5,1,8,0,0,1.08239X$1,22.5*%
G01*
%ADD10C,0.203200*%
%ADD11C,1.790700*%
%ADD12C,1.900000*%
%ADD13P,1.731824X8X202.500000*%
%ADD14C,1.600000*%
%ADD15C,1.500000*%
%ADD16C,1.930400*%
%ADD17C,5.080000*%
%ADD18C,0.508000*%

G36*
X-819424Y4575D02*
X-819424Y4575D01*
X-819442Y4573D01*
X-819624Y4594D01*
X-819807Y4613D01*
X-819824Y4618D01*
X-819841Y4620D01*
X-820016Y4677D01*
X-820192Y4731D01*
X-820207Y4739D01*
X-820224Y4745D01*
X-820384Y4835D01*
X-820546Y4923D01*
X-820559Y4934D01*
X-820575Y4943D01*
X-820714Y5063D01*
X-820855Y5180D01*
X-820866Y5194D01*
X-820880Y5206D01*
X-820992Y5351D01*
X-821107Y5494D01*
X-821115Y5510D01*
X-821126Y5524D01*
X-821208Y5689D01*
X-821293Y5851D01*
X-821298Y5868D01*
X-821306Y5884D01*
X-821353Y6063D01*
X-821404Y6238D01*
X-821406Y6256D01*
X-821410Y6273D01*
X-821437Y6604D01*
X-821437Y679196D01*
X-821435Y679214D01*
X-821437Y679232D01*
X-821416Y679414D01*
X-821397Y679597D01*
X-821392Y679614D01*
X-821390Y679631D01*
X-821333Y679806D01*
X-821279Y679982D01*
X-821271Y679997D01*
X-821265Y680014D01*
X-821175Y680174D01*
X-821087Y680336D01*
X-821076Y680349D01*
X-821067Y680365D01*
X-820947Y680504D01*
X-820830Y680645D01*
X-820816Y680656D01*
X-820804Y680670D01*
X-820659Y680782D01*
X-820516Y680897D01*
X-820500Y680905D01*
X-820486Y680916D01*
X-820321Y680998D01*
X-820159Y681083D01*
X-820142Y681088D01*
X-820126Y681096D01*
X-819947Y681143D01*
X-819772Y681194D01*
X-819754Y681196D01*
X-819737Y681200D01*
X-819406Y681227D01*
X-6604Y681227D01*
X-6586Y681225D01*
X-6568Y681227D01*
X-6386Y681206D01*
X-6203Y681187D01*
X-6186Y681182D01*
X-6169Y681180D01*
X-5994Y681123D01*
X-5818Y681069D01*
X-5803Y681061D01*
X-5786Y681055D01*
X-5626Y680965D01*
X-5464Y680877D01*
X-5451Y680866D01*
X-5435Y680857D01*
X-5296Y680737D01*
X-5155Y680620D01*
X-5144Y680606D01*
X-5130Y680594D01*
X-5018Y680449D01*
X-4903Y680306D01*
X-4895Y680290D01*
X-4884Y680276D01*
X-4802Y680111D01*
X-4717Y679949D01*
X-4712Y679932D01*
X-4704Y679916D01*
X-4657Y679737D01*
X-4606Y679562D01*
X-4604Y679544D01*
X-4600Y679527D01*
X-4573Y679196D01*
X-4573Y6604D01*
X-4575Y6586D01*
X-4573Y6568D01*
X-4594Y6386D01*
X-4613Y6203D01*
X-4618Y6186D01*
X-4620Y6169D01*
X-4677Y5994D01*
X-4731Y5818D01*
X-4739Y5803D01*
X-4745Y5786D01*
X-4835Y5626D01*
X-4923Y5464D01*
X-4934Y5451D01*
X-4943Y5435D01*
X-5063Y5296D01*
X-5180Y5155D01*
X-5194Y5144D01*
X-5206Y5130D01*
X-5351Y5018D01*
X-5494Y4903D01*
X-5510Y4895D01*
X-5524Y4884D01*
X-5689Y4802D01*
X-5851Y4717D01*
X-5868Y4712D01*
X-5884Y4704D01*
X-6063Y4657D01*
X-6238Y4606D01*
X-6256Y4604D01*
X-6273Y4600D01*
X-6604Y4573D01*
X-819406Y4573D01*
X-819424Y4575D01*
G37*
%LPC*%
G36*
X-179631Y13461D02*
X-179631Y13461D01*
X-177017Y14544D01*
X-137734Y53827D01*
X-136651Y56441D01*
X-136651Y118640D01*
X-136649Y118667D01*
X-136651Y118694D01*
X-136629Y118868D01*
X-136611Y119041D01*
X-136604Y119067D01*
X-136600Y119093D01*
X-136545Y119259D01*
X-136493Y119426D01*
X-136480Y119450D01*
X-136472Y119475D01*
X-136385Y119627D01*
X-136301Y119780D01*
X-136284Y119800D01*
X-136271Y119824D01*
X-136056Y120077D01*
X-119034Y137099D01*
X-119017Y137113D01*
X-119002Y137131D01*
X-118861Y137241D01*
X-118723Y137354D01*
X-118703Y137365D01*
X-118685Y137379D01*
X-118524Y137459D01*
X-118367Y137543D01*
X-118345Y137549D01*
X-118325Y137559D01*
X-118152Y137607D01*
X-117981Y137657D01*
X-117958Y137660D01*
X-117936Y137665D01*
X-117758Y137678D01*
X-117580Y137694D01*
X-117557Y137691D01*
X-117535Y137693D01*
X-117358Y137670D01*
X-117335Y137667D01*
X-111470Y137667D01*
X-106242Y139833D01*
X-102241Y143834D01*
X-100075Y149062D01*
X-100075Y154670D01*
X-100070Y154721D01*
X-100073Y154772D01*
X-100050Y154921D01*
X-100035Y155070D01*
X-100020Y155119D01*
X-100013Y155170D01*
X-99961Y155311D01*
X-99917Y155455D01*
X-99893Y155500D01*
X-99875Y155548D01*
X-99797Y155677D01*
X-99725Y155809D01*
X-99693Y155848D01*
X-99666Y155892D01*
X-99564Y156003D01*
X-99468Y156119D01*
X-99428Y156151D01*
X-99393Y156188D01*
X-99271Y156277D01*
X-99154Y156371D01*
X-99109Y156394D01*
X-99067Y156424D01*
X-98930Y156487D01*
X-98797Y156556D01*
X-98748Y156571D01*
X-98701Y156592D01*
X-98554Y156626D01*
X-98410Y156668D01*
X-98359Y156672D01*
X-98309Y156684D01*
X-98158Y156688D01*
X-98008Y156701D01*
X-97958Y156695D01*
X-97907Y156696D01*
X-97758Y156671D01*
X-97609Y156654D01*
X-97560Y156638D01*
X-97510Y156629D01*
X-97369Y156576D01*
X-97226Y156529D01*
X-97181Y156504D01*
X-97134Y156485D01*
X-96936Y156366D01*
X-96875Y156331D01*
X-96865Y156322D01*
X-96850Y156313D01*
X-95291Y155180D01*
X-93580Y154309D01*
X-91755Y153716D01*
X-91439Y153665D01*
X-91439Y163069D01*
X-101006Y163069D01*
X-101060Y162916D01*
X-101110Y162756D01*
X-101126Y162727D01*
X-101138Y162696D01*
X-101224Y162551D01*
X-101305Y162404D01*
X-101327Y162378D01*
X-101344Y162350D01*
X-101457Y162225D01*
X-101566Y162097D01*
X-101592Y162076D01*
X-101614Y162051D01*
X-101750Y161951D01*
X-101882Y161847D01*
X-101911Y161832D01*
X-101938Y161812D01*
X-102091Y161741D01*
X-102241Y161665D01*
X-102273Y161656D01*
X-102303Y161642D01*
X-102466Y161602D01*
X-102628Y161557D01*
X-102662Y161554D01*
X-102694Y161547D01*
X-102862Y161540D01*
X-103030Y161527D01*
X-103063Y161532D01*
X-103096Y161530D01*
X-103262Y161557D01*
X-103429Y161578D01*
X-103461Y161589D01*
X-103494Y161594D01*
X-103651Y161652D01*
X-103811Y161706D01*
X-103840Y161723D01*
X-103871Y161734D01*
X-104014Y161823D01*
X-104160Y161907D01*
X-104188Y161931D01*
X-104213Y161947D01*
X-104276Y162006D01*
X-104413Y162122D01*
X-106301Y164010D01*
X-106373Y164048D01*
X-106380Y164054D01*
X-106388Y164059D01*
X-106536Y164183D01*
X-106683Y164305D01*
X-106689Y164312D01*
X-106696Y164318D01*
X-106817Y164469D01*
X-106937Y164617D01*
X-106941Y164625D01*
X-106947Y164633D01*
X-107035Y164804D01*
X-107124Y164974D01*
X-107127Y164982D01*
X-107131Y164991D01*
X-107183Y165175D01*
X-107237Y165360D01*
X-107238Y165369D01*
X-107241Y165378D01*
X-107255Y165568D01*
X-107272Y165761D01*
X-107271Y165770D01*
X-107272Y165779D01*
X-107249Y165969D01*
X-107227Y166161D01*
X-107224Y166170D01*
X-107223Y166179D01*
X-107163Y166361D01*
X-107104Y166545D01*
X-107099Y166553D01*
X-107097Y166561D01*
X-107002Y166727D01*
X-106908Y166896D01*
X-106902Y166903D01*
X-106897Y166911D01*
X-106771Y167056D01*
X-106646Y167202D01*
X-106639Y167208D01*
X-106633Y167215D01*
X-106480Y167332D01*
X-106329Y167450D01*
X-106321Y167454D01*
X-106313Y167460D01*
X-106288Y167473D01*
X-104365Y169396D01*
X-104235Y169503D01*
X-104108Y169613D01*
X-104079Y169630D01*
X-104054Y169651D01*
X-103905Y169730D01*
X-103759Y169814D01*
X-103727Y169824D01*
X-103698Y169840D01*
X-103537Y169888D01*
X-103377Y169941D01*
X-103344Y169945D01*
X-103312Y169955D01*
X-103144Y169970D01*
X-102977Y169990D01*
X-102944Y169988D01*
X-102911Y169991D01*
X-102743Y169973D01*
X-102576Y169960D01*
X-102544Y169951D01*
X-102511Y169948D01*
X-102350Y169897D01*
X-102188Y169851D01*
X-102159Y169836D01*
X-102127Y169826D01*
X-101979Y169744D01*
X-101830Y169668D01*
X-101804Y169647D01*
X-101775Y169631D01*
X-101646Y169522D01*
X-101514Y169418D01*
X-101493Y169392D01*
X-101468Y169371D01*
X-101363Y169239D01*
X-101255Y169110D01*
X-101239Y169081D01*
X-101218Y169055D01*
X-101142Y168905D01*
X-101061Y168757D01*
X-101051Y168726D01*
X-101036Y168696D01*
X-100990Y168533D01*
X-100940Y168373D01*
X-100937Y168340D01*
X-100928Y168308D01*
X-100916Y168147D01*
X-91439Y168147D01*
X-91439Y190755D01*
X-101006Y190755D01*
X-101059Y190603D01*
X-101110Y190442D01*
X-101126Y190413D01*
X-101138Y190382D01*
X-101224Y190237D01*
X-101305Y190090D01*
X-101327Y190064D01*
X-101344Y190036D01*
X-101457Y189911D01*
X-101566Y189783D01*
X-101592Y189762D01*
X-101614Y189737D01*
X-101750Y189637D01*
X-101882Y189533D01*
X-101911Y189518D01*
X-101938Y189498D01*
X-102091Y189427D01*
X-102240Y189351D01*
X-102273Y189342D01*
X-102303Y189328D01*
X-102466Y189288D01*
X-102628Y189243D01*
X-102662Y189240D01*
X-102694Y189233D01*
X-102862Y189226D01*
X-103030Y189213D01*
X-103063Y189218D01*
X-103096Y189216D01*
X-103262Y189243D01*
X-103429Y189264D01*
X-103461Y189275D01*
X-103494Y189280D01*
X-103651Y189338D01*
X-103811Y189392D01*
X-103840Y189409D01*
X-103871Y189420D01*
X-104014Y189509D01*
X-104160Y189593D01*
X-104188Y189617D01*
X-104213Y189633D01*
X-104276Y189692D01*
X-104413Y189808D01*
X-106463Y191858D01*
X-106474Y191871D01*
X-106488Y191883D01*
X-106602Y192028D01*
X-106718Y192169D01*
X-106726Y192185D01*
X-106737Y192199D01*
X-106821Y192364D01*
X-106907Y192525D01*
X-106912Y192542D01*
X-106920Y192558D01*
X-106969Y192736D01*
X-107021Y192911D01*
X-107023Y192929D01*
X-107028Y192946D01*
X-107041Y193129D01*
X-107058Y193312D01*
X-107056Y193330D01*
X-107057Y193347D01*
X-107034Y193529D01*
X-107014Y193712D01*
X-107009Y193729D01*
X-107007Y193747D01*
X-106948Y193920D01*
X-106893Y194096D01*
X-106884Y194111D01*
X-106879Y194128D01*
X-106787Y194288D01*
X-106698Y194448D01*
X-106686Y194462D01*
X-106678Y194477D01*
X-106463Y194730D01*
X-104413Y196780D01*
X-104283Y196887D01*
X-104156Y196998D01*
X-104127Y197014D01*
X-104101Y197035D01*
X-103953Y197114D01*
X-103807Y197198D01*
X-103775Y197208D01*
X-103746Y197224D01*
X-103584Y197272D01*
X-103425Y197325D01*
X-103392Y197329D01*
X-103360Y197339D01*
X-103192Y197354D01*
X-103025Y197375D01*
X-102992Y197372D01*
X-102959Y197375D01*
X-102791Y197357D01*
X-102624Y197344D01*
X-102592Y197335D01*
X-102559Y197332D01*
X-102398Y197281D01*
X-102236Y197235D01*
X-102207Y197220D01*
X-102175Y197210D01*
X-102027Y197129D01*
X-101878Y197052D01*
X-101852Y197032D01*
X-101822Y197015D01*
X-101694Y196906D01*
X-101562Y196802D01*
X-101541Y196777D01*
X-101515Y196755D01*
X-101411Y196623D01*
X-101302Y196494D01*
X-101286Y196465D01*
X-101266Y196439D01*
X-101189Y196289D01*
X-101108Y196142D01*
X-101098Y196110D01*
X-101083Y196080D01*
X-101038Y195918D01*
X-101012Y195833D01*
X-91439Y195833D01*
X-91439Y218441D01*
X-100914Y218441D01*
X-100923Y218378D01*
X-100941Y218210D01*
X-100951Y218178D01*
X-100956Y218145D01*
X-101012Y217986D01*
X-101063Y217826D01*
X-101079Y217797D01*
X-101090Y217766D01*
X-101176Y217621D01*
X-101257Y217474D01*
X-101279Y217449D01*
X-101296Y217420D01*
X-101409Y217296D01*
X-101518Y217167D01*
X-101544Y217146D01*
X-101566Y217122D01*
X-101701Y217022D01*
X-101834Y216917D01*
X-101864Y216902D01*
X-101890Y216883D01*
X-102043Y216811D01*
X-102193Y216735D01*
X-102225Y216726D01*
X-102255Y216712D01*
X-102419Y216672D01*
X-102581Y216627D01*
X-102614Y216625D01*
X-102646Y216617D01*
X-102814Y216610D01*
X-102982Y216598D01*
X-103015Y216602D01*
X-103048Y216601D01*
X-103214Y216627D01*
X-103382Y216648D01*
X-103413Y216659D01*
X-103446Y216664D01*
X-103604Y216723D01*
X-103763Y216776D01*
X-103792Y216793D01*
X-103823Y216805D01*
X-103967Y216893D01*
X-104112Y216977D01*
X-104140Y217001D01*
X-104165Y217017D01*
X-104229Y217076D01*
X-104365Y217192D01*
X-106301Y219128D01*
X-106373Y219166D01*
X-106380Y219172D01*
X-106388Y219177D01*
X-106536Y219301D01*
X-106683Y219423D01*
X-106689Y219430D01*
X-106696Y219436D01*
X-106817Y219587D01*
X-106937Y219735D01*
X-106941Y219743D01*
X-106947Y219751D01*
X-107034Y219921D01*
X-107124Y220092D01*
X-107127Y220100D01*
X-107131Y220109D01*
X-107183Y220293D01*
X-107237Y220478D01*
X-107238Y220487D01*
X-107241Y220496D01*
X-107255Y220686D01*
X-107272Y220879D01*
X-107271Y220888D01*
X-107272Y220897D01*
X-107249Y221087D01*
X-107227Y221279D01*
X-107224Y221288D01*
X-107223Y221297D01*
X-107163Y221479D01*
X-107104Y221663D01*
X-107099Y221671D01*
X-107097Y221679D01*
X-107002Y221845D01*
X-106908Y222014D01*
X-106902Y222021D01*
X-106897Y222029D01*
X-106772Y222173D01*
X-106646Y222320D01*
X-106639Y222326D01*
X-106633Y222333D01*
X-106480Y222450D01*
X-106329Y222568D01*
X-106321Y222572D01*
X-106313Y222578D01*
X-106288Y222591D01*
X-104413Y224466D01*
X-104283Y224573D01*
X-104156Y224684D01*
X-104127Y224700D01*
X-104101Y224721D01*
X-103953Y224800D01*
X-103807Y224884D01*
X-103775Y224894D01*
X-103746Y224910D01*
X-103584Y224958D01*
X-103425Y225011D01*
X-103392Y225015D01*
X-103360Y225025D01*
X-103192Y225040D01*
X-103025Y225061D01*
X-102992Y225058D01*
X-102959Y225061D01*
X-102791Y225043D01*
X-102624Y225030D01*
X-102592Y225021D01*
X-102559Y225018D01*
X-102398Y224967D01*
X-102236Y224921D01*
X-102207Y224906D01*
X-102175Y224896D01*
X-102027Y224815D01*
X-101878Y224738D01*
X-101852Y224718D01*
X-101822Y224701D01*
X-101694Y224592D01*
X-101562Y224488D01*
X-101541Y224463D01*
X-101515Y224441D01*
X-101411Y224309D01*
X-101302Y224180D01*
X-101286Y224151D01*
X-101266Y224125D01*
X-101189Y223975D01*
X-101108Y223828D01*
X-101098Y223796D01*
X-101083Y223766D01*
X-101038Y223604D01*
X-101012Y223519D01*
X-91439Y223519D01*
X-91439Y245873D01*
X-101006Y245873D01*
X-101059Y245721D01*
X-101110Y245560D01*
X-101126Y245531D01*
X-101138Y245500D01*
X-101224Y245355D01*
X-101305Y245208D01*
X-101327Y245182D01*
X-101344Y245154D01*
X-101457Y245029D01*
X-101566Y244901D01*
X-101592Y244880D01*
X-101614Y244856D01*
X-101750Y244756D01*
X-101882Y244651D01*
X-101911Y244636D01*
X-101938Y244616D01*
X-102091Y244545D01*
X-102240Y244469D01*
X-102273Y244460D01*
X-102303Y244446D01*
X-102466Y244406D01*
X-102628Y244361D01*
X-102662Y244358D01*
X-102694Y244351D01*
X-102862Y244344D01*
X-103030Y244331D01*
X-103063Y244336D01*
X-103096Y244334D01*
X-103262Y244361D01*
X-103429Y244382D01*
X-103461Y244392D01*
X-103494Y244398D01*
X-103652Y244457D01*
X-103811Y244510D01*
X-103840Y244527D01*
X-103871Y244538D01*
X-104014Y244627D01*
X-104160Y244711D01*
X-104188Y244735D01*
X-104213Y244751D01*
X-104276Y244810D01*
X-104413Y244926D01*
X-106242Y246755D01*
X-108719Y247781D01*
X-108834Y247843D01*
X-108954Y247896D01*
X-109011Y247938D01*
X-109074Y247971D01*
X-109175Y248055D01*
X-109281Y248131D01*
X-109330Y248182D01*
X-109384Y248228D01*
X-109467Y248329D01*
X-109556Y248425D01*
X-109593Y248485D01*
X-109638Y248540D01*
X-109699Y248656D01*
X-109768Y248767D01*
X-109792Y248834D01*
X-109825Y248897D01*
X-109862Y249022D01*
X-109907Y249145D01*
X-109918Y249215D01*
X-109938Y249283D01*
X-109950Y249413D01*
X-109970Y249543D01*
X-109967Y249614D01*
X-109973Y249684D01*
X-109958Y249814D01*
X-109953Y249945D01*
X-109936Y250014D01*
X-109928Y250084D01*
X-109888Y250209D01*
X-109857Y250336D01*
X-109826Y250400D01*
X-109805Y250468D01*
X-109741Y250582D01*
X-109685Y250700D01*
X-109643Y250757D01*
X-109608Y250819D01*
X-109523Y250918D01*
X-109445Y251024D01*
X-109393Y251071D01*
X-109346Y251125D01*
X-109243Y251206D01*
X-109146Y251293D01*
X-109076Y251336D01*
X-109029Y251373D01*
X-108961Y251407D01*
X-108864Y251468D01*
X-107910Y251954D01*
X-106357Y253082D01*
X-105000Y254439D01*
X-103872Y255992D01*
X-103001Y257702D01*
X-102408Y259527D01*
X-102357Y259843D01*
X-113792Y259843D01*
X-113810Y259844D01*
X-113827Y259843D01*
X-114010Y259864D01*
X-114192Y259883D01*
X-114209Y259888D01*
X-114227Y259890D01*
X-114305Y259915D01*
X-114442Y259876D01*
X-114460Y259874D01*
X-114477Y259870D01*
X-114808Y259843D01*
X-126243Y259843D01*
X-126192Y259527D01*
X-125599Y257702D01*
X-124728Y255992D01*
X-123600Y254439D01*
X-122243Y253082D01*
X-120690Y251954D01*
X-119736Y251468D01*
X-119626Y251397D01*
X-119511Y251334D01*
X-119457Y251289D01*
X-119397Y251250D01*
X-119303Y251159D01*
X-119203Y251075D01*
X-119159Y251019D01*
X-119108Y250970D01*
X-119034Y250862D01*
X-118952Y250760D01*
X-118920Y250697D01*
X-118879Y250639D01*
X-118828Y250518D01*
X-118768Y250402D01*
X-118749Y250334D01*
X-118721Y250269D01*
X-118694Y250140D01*
X-118659Y250015D01*
X-118653Y249944D01*
X-118639Y249874D01*
X-118638Y249743D01*
X-118627Y249613D01*
X-118636Y249543D01*
X-118635Y249472D01*
X-118660Y249343D01*
X-118676Y249214D01*
X-118698Y249146D01*
X-118712Y249077D01*
X-118761Y248956D01*
X-118803Y248831D01*
X-118838Y248770D01*
X-118865Y248704D01*
X-118937Y248595D01*
X-119002Y248482D01*
X-119049Y248428D01*
X-119088Y248369D01*
X-119180Y248277D01*
X-119267Y248178D01*
X-119323Y248135D01*
X-119373Y248085D01*
X-119482Y248012D01*
X-119586Y247933D01*
X-119659Y247895D01*
X-119709Y247862D01*
X-119779Y247833D01*
X-119881Y247781D01*
X-122358Y246755D01*
X-126359Y242754D01*
X-128525Y237526D01*
X-128525Y231700D01*
X-128515Y231568D01*
X-128498Y231390D01*
X-128500Y231368D01*
X-128499Y231345D01*
X-128521Y231167D01*
X-128540Y230990D01*
X-128546Y230968D01*
X-128549Y230945D01*
X-128606Y230776D01*
X-128659Y230605D01*
X-128670Y230585D01*
X-128677Y230564D01*
X-128767Y230409D01*
X-128852Y230252D01*
X-128867Y230235D01*
X-128878Y230215D01*
X-129093Y229962D01*
X-176463Y182592D01*
X-178750Y180305D01*
X-179833Y177691D01*
X-179833Y90218D01*
X-179834Y90205D01*
X-179833Y90192D01*
X-179854Y90005D01*
X-179873Y89818D01*
X-179877Y89805D01*
X-179878Y89791D01*
X-179935Y89613D01*
X-179991Y89433D01*
X-179997Y89421D01*
X-180001Y89408D01*
X-180093Y89244D01*
X-180183Y89079D01*
X-180191Y89068D01*
X-180198Y89057D01*
X-180320Y88913D01*
X-180440Y88769D01*
X-180451Y88761D01*
X-180459Y88751D01*
X-180608Y88635D01*
X-180754Y88517D01*
X-180766Y88511D01*
X-180776Y88503D01*
X-180945Y88418D01*
X-181111Y88332D01*
X-181124Y88328D01*
X-181136Y88322D01*
X-181318Y88272D01*
X-181498Y88220D01*
X-181512Y88219D01*
X-181525Y88216D01*
X-181713Y88203D01*
X-181900Y88187D01*
X-181913Y88189D01*
X-181926Y88188D01*
X-182114Y88212D01*
X-182299Y88234D01*
X-182312Y88238D01*
X-182325Y88240D01*
X-182641Y88342D01*
X-187670Y90425D01*
X-193330Y90425D01*
X-198558Y88259D01*
X-201764Y85053D01*
X-201778Y85042D01*
X-201789Y85028D01*
X-201933Y84915D01*
X-202075Y84798D01*
X-202091Y84790D01*
X-202105Y84779D01*
X-202269Y84695D01*
X-202431Y84609D01*
X-202448Y84604D01*
X-202464Y84596D01*
X-202641Y84547D01*
X-202817Y84495D01*
X-202835Y84493D01*
X-202852Y84488D01*
X-203035Y84475D01*
X-203218Y84458D01*
X-203236Y84460D01*
X-203253Y84459D01*
X-203435Y84482D01*
X-203618Y84502D01*
X-203635Y84507D01*
X-203653Y84509D01*
X-203827Y84568D01*
X-204002Y84623D01*
X-204018Y84632D01*
X-204034Y84638D01*
X-204194Y84729D01*
X-204354Y84818D01*
X-204368Y84829D01*
X-204383Y84838D01*
X-204636Y85053D01*
X-207842Y88259D01*
X-213070Y90425D01*
X-218730Y90425D01*
X-223958Y88259D01*
X-227164Y85053D01*
X-227178Y85042D01*
X-227189Y85028D01*
X-227333Y84915D01*
X-227475Y84798D01*
X-227491Y84790D01*
X-227505Y84779D01*
X-227669Y84695D01*
X-227831Y84609D01*
X-227848Y84604D01*
X-227864Y84596D01*
X-228041Y84547D01*
X-228217Y84495D01*
X-228235Y84493D01*
X-228252Y84488D01*
X-228435Y84475D01*
X-228618Y84458D01*
X-228636Y84460D01*
X-228653Y84459D01*
X-228835Y84482D01*
X-229018Y84502D01*
X-229035Y84507D01*
X-229053Y84509D01*
X-229227Y84568D01*
X-229402Y84623D01*
X-229418Y84632D01*
X-229434Y84638D01*
X-229594Y84729D01*
X-229754Y84818D01*
X-229768Y84829D01*
X-229783Y84838D01*
X-230036Y85053D01*
X-233242Y88259D01*
X-238470Y90425D01*
X-244130Y90425D01*
X-249358Y88259D01*
X-252564Y85053D01*
X-252578Y85042D01*
X-252589Y85028D01*
X-252733Y84915D01*
X-252875Y84798D01*
X-252891Y84790D01*
X-252905Y84779D01*
X-253069Y84695D01*
X-253231Y84609D01*
X-253248Y84604D01*
X-253264Y84596D01*
X-253441Y84547D01*
X-253617Y84495D01*
X-253635Y84493D01*
X-253652Y84488D01*
X-253835Y84475D01*
X-254018Y84458D01*
X-254036Y84460D01*
X-254053Y84459D01*
X-254235Y84482D01*
X-254418Y84502D01*
X-254435Y84507D01*
X-254453Y84509D01*
X-254627Y84568D01*
X-254802Y84623D01*
X-254818Y84632D01*
X-254834Y84638D01*
X-254994Y84729D01*
X-255154Y84818D01*
X-255168Y84829D01*
X-255183Y84838D01*
X-255436Y85053D01*
X-258760Y88377D01*
X-258860Y88464D01*
X-258998Y88578D01*
X-259013Y88595D01*
X-259030Y88610D01*
X-259139Y88751D01*
X-259252Y88890D01*
X-259263Y88910D01*
X-259276Y88928D01*
X-259356Y89088D01*
X-259439Y89247D01*
X-259446Y89268D01*
X-259456Y89288D01*
X-259502Y89461D01*
X-259552Y89633D01*
X-259554Y89655D01*
X-259560Y89677D01*
X-259587Y90008D01*
X-259587Y141115D01*
X-260670Y143729D01*
X-326556Y209615D01*
X-326573Y209636D01*
X-326594Y209653D01*
X-326701Y209791D01*
X-326811Y209927D01*
X-326824Y209950D01*
X-326840Y209972D01*
X-326918Y210128D01*
X-327000Y210282D01*
X-327008Y210308D01*
X-327020Y210332D01*
X-327065Y210501D01*
X-327115Y210668D01*
X-327117Y210695D01*
X-327124Y210721D01*
X-327151Y211052D01*
X-327151Y544361D01*
X-327150Y544374D01*
X-327151Y544388D01*
X-327130Y544574D01*
X-327111Y544762D01*
X-327107Y544774D01*
X-327106Y544788D01*
X-327049Y544966D01*
X-326993Y545147D01*
X-326987Y545158D01*
X-326983Y545171D01*
X-326891Y545336D01*
X-326801Y545501D01*
X-326793Y545511D01*
X-326786Y545523D01*
X-326664Y545665D01*
X-326544Y545810D01*
X-326533Y545818D01*
X-326525Y545828D01*
X-326377Y545944D01*
X-326230Y546062D01*
X-326218Y546068D01*
X-326208Y546077D01*
X-326039Y546161D01*
X-325873Y546248D01*
X-325860Y546251D01*
X-325848Y546257D01*
X-325667Y546307D01*
X-325486Y546359D01*
X-325472Y546360D01*
X-325459Y546364D01*
X-325271Y546377D01*
X-325084Y546392D01*
X-325071Y546390D01*
X-325058Y546391D01*
X-324870Y546367D01*
X-324685Y546345D01*
X-324672Y546341D01*
X-324659Y546339D01*
X-324343Y546238D01*
X-320329Y544575D01*
X-314670Y544575D01*
X-309442Y546741D01*
X-306236Y549947D01*
X-306223Y549958D01*
X-306211Y549972D01*
X-306067Y550086D01*
X-305925Y550202D01*
X-305909Y550210D01*
X-305895Y550221D01*
X-305731Y550305D01*
X-305569Y550391D01*
X-305552Y550396D01*
X-305536Y550404D01*
X-305359Y550453D01*
X-305183Y550505D01*
X-305165Y550507D01*
X-305148Y550512D01*
X-304965Y550525D01*
X-304782Y550542D01*
X-304764Y550540D01*
X-304747Y550541D01*
X-304565Y550518D01*
X-304382Y550498D01*
X-304365Y550493D01*
X-304347Y550491D01*
X-304174Y550432D01*
X-303998Y550377D01*
X-303982Y550368D01*
X-303966Y550362D01*
X-303806Y550271D01*
X-303646Y550182D01*
X-303632Y550171D01*
X-303617Y550162D01*
X-303364Y549947D01*
X-300158Y546741D01*
X-295296Y544727D01*
X-294930Y544575D01*
X-289270Y544575D01*
X-284042Y546741D01*
X-280836Y549947D01*
X-280823Y549958D01*
X-280811Y549972D01*
X-280667Y550086D01*
X-280525Y550202D01*
X-280509Y550210D01*
X-280495Y550221D01*
X-280331Y550305D01*
X-280169Y550391D01*
X-280152Y550396D01*
X-280136Y550404D01*
X-279959Y550453D01*
X-279783Y550505D01*
X-279765Y550507D01*
X-279748Y550512D01*
X-279565Y550525D01*
X-279382Y550542D01*
X-279364Y550540D01*
X-279347Y550541D01*
X-279165Y550518D01*
X-278982Y550498D01*
X-278965Y550493D01*
X-278947Y550491D01*
X-278774Y550432D01*
X-278598Y550377D01*
X-278582Y550368D01*
X-278566Y550362D01*
X-278406Y550271D01*
X-278246Y550182D01*
X-278232Y550171D01*
X-278217Y550162D01*
X-277964Y549947D01*
X-274640Y546623D01*
X-274540Y546536D01*
X-274402Y546422D01*
X-274387Y546405D01*
X-274370Y546390D01*
X-274261Y546249D01*
X-274148Y546110D01*
X-274137Y546090D01*
X-274124Y546072D01*
X-274044Y545912D01*
X-273961Y545753D01*
X-273954Y545732D01*
X-273944Y545712D01*
X-273898Y545539D01*
X-273848Y545367D01*
X-273846Y545345D01*
X-273840Y545323D01*
X-273813Y544992D01*
X-273813Y468485D01*
X-272730Y465871D01*
X-270443Y463584D01*
X-129093Y322234D01*
X-129079Y322217D01*
X-129061Y322202D01*
X-128951Y322061D01*
X-128838Y321923D01*
X-128827Y321903D01*
X-128813Y321885D01*
X-128733Y321724D01*
X-128649Y321567D01*
X-128643Y321545D01*
X-128633Y321525D01*
X-128585Y321352D01*
X-128535Y321181D01*
X-128532Y321158D01*
X-128527Y321136D01*
X-128514Y320958D01*
X-128498Y320780D01*
X-128501Y320757D01*
X-128499Y320735D01*
X-128522Y320558D01*
X-128525Y320535D01*
X-128525Y314670D01*
X-126359Y309442D01*
X-122358Y305441D01*
X-121389Y305040D01*
X-119881Y304415D01*
X-119766Y304353D01*
X-119646Y304300D01*
X-119589Y304258D01*
X-119526Y304225D01*
X-119425Y304141D01*
X-119319Y304065D01*
X-119270Y304014D01*
X-119216Y303968D01*
X-119133Y303867D01*
X-119044Y303771D01*
X-119007Y303711D01*
X-118962Y303656D01*
X-118901Y303540D01*
X-118832Y303429D01*
X-118808Y303362D01*
X-118775Y303299D01*
X-118738Y303174D01*
X-118693Y303051D01*
X-118682Y302981D01*
X-118662Y302913D01*
X-118650Y302783D01*
X-118630Y302653D01*
X-118633Y302582D01*
X-118627Y302512D01*
X-118642Y302382D01*
X-118647Y302251D01*
X-118664Y302182D01*
X-118672Y302112D01*
X-118712Y301987D01*
X-118743Y301860D01*
X-118774Y301796D01*
X-118795Y301728D01*
X-118859Y301614D01*
X-118915Y301496D01*
X-118957Y301439D01*
X-118992Y301377D01*
X-119077Y301278D01*
X-119155Y301172D01*
X-119207Y301125D01*
X-119254Y301071D01*
X-119357Y300990D01*
X-119454Y300903D01*
X-119524Y300860D01*
X-119571Y300823D01*
X-119639Y300789D01*
X-119736Y300728D01*
X-120690Y300242D01*
X-122243Y299114D01*
X-123600Y297757D01*
X-124728Y296204D01*
X-125599Y294494D01*
X-126192Y292669D01*
X-126243Y292353D01*
X-114808Y292353D01*
X-114790Y292351D01*
X-114773Y292353D01*
X-114590Y292332D01*
X-114408Y292313D01*
X-114391Y292308D01*
X-114373Y292306D01*
X-114295Y292281D01*
X-114158Y292320D01*
X-114140Y292322D01*
X-114123Y292326D01*
X-113792Y292353D01*
X-102357Y292353D01*
X-102408Y292669D01*
X-103001Y294494D01*
X-103872Y296204D01*
X-105000Y297757D01*
X-106357Y299114D01*
X-107910Y300242D01*
X-108864Y300728D01*
X-108974Y300799D01*
X-109089Y300862D01*
X-109143Y300907D01*
X-109203Y300946D01*
X-109297Y301037D01*
X-109397Y301121D01*
X-109441Y301177D01*
X-109492Y301226D01*
X-109566Y301334D01*
X-109648Y301436D01*
X-109680Y301499D01*
X-109721Y301557D01*
X-109772Y301678D01*
X-109832Y301794D01*
X-109851Y301862D01*
X-109879Y301927D01*
X-109906Y302056D01*
X-109941Y302181D01*
X-109947Y302252D01*
X-109961Y302322D01*
X-109962Y302453D01*
X-109973Y302583D01*
X-109964Y302653D01*
X-109965Y302724D01*
X-109940Y302853D01*
X-109924Y302982D01*
X-109902Y303050D01*
X-109888Y303119D01*
X-109839Y303240D01*
X-109797Y303365D01*
X-109762Y303426D01*
X-109735Y303492D01*
X-109663Y303601D01*
X-109598Y303714D01*
X-109551Y303768D01*
X-109512Y303827D01*
X-109420Y303919D01*
X-109333Y304018D01*
X-109277Y304061D01*
X-109227Y304111D01*
X-109118Y304184D01*
X-109014Y304263D01*
X-108941Y304301D01*
X-108891Y304334D01*
X-108821Y304363D01*
X-108719Y304415D01*
X-106242Y305441D01*
X-104413Y307270D01*
X-104283Y307377D01*
X-104156Y307488D01*
X-104127Y307504D01*
X-104101Y307525D01*
X-103953Y307604D01*
X-103807Y307688D01*
X-103775Y307698D01*
X-103746Y307714D01*
X-103584Y307762D01*
X-103425Y307815D01*
X-103392Y307819D01*
X-103360Y307829D01*
X-103192Y307844D01*
X-103025Y307865D01*
X-102992Y307862D01*
X-102959Y307865D01*
X-102791Y307847D01*
X-102624Y307834D01*
X-102592Y307825D01*
X-102559Y307822D01*
X-102398Y307771D01*
X-102236Y307725D01*
X-102206Y307710D01*
X-102175Y307700D01*
X-102027Y307619D01*
X-101878Y307542D01*
X-101852Y307522D01*
X-101822Y307505D01*
X-101694Y307396D01*
X-101562Y307292D01*
X-101541Y307266D01*
X-101515Y307245D01*
X-101411Y307113D01*
X-101302Y306984D01*
X-101286Y306955D01*
X-101266Y306929D01*
X-101190Y306779D01*
X-101108Y306632D01*
X-101098Y306600D01*
X-101083Y306570D01*
X-101038Y306408D01*
X-101012Y306323D01*
X-91439Y306323D01*
X-91439Y328677D01*
X-101006Y328677D01*
X-101060Y328524D01*
X-101110Y328364D01*
X-101126Y328335D01*
X-101138Y328304D01*
X-101224Y328159D01*
X-101305Y328012D01*
X-101327Y327986D01*
X-101344Y327958D01*
X-101457Y327833D01*
X-101566Y327705D01*
X-101592Y327684D01*
X-101614Y327659D01*
X-101750Y327559D01*
X-101882Y327455D01*
X-101911Y327440D01*
X-101938Y327420D01*
X-102091Y327349D01*
X-102241Y327273D01*
X-102273Y327264D01*
X-102303Y327250D01*
X-102466Y327210D01*
X-102628Y327165D01*
X-102662Y327162D01*
X-102694Y327155D01*
X-102862Y327148D01*
X-103030Y327135D01*
X-103063Y327140D01*
X-103096Y327138D01*
X-103262Y327165D01*
X-103429Y327186D01*
X-103461Y327197D01*
X-103494Y327202D01*
X-103651Y327260D01*
X-103811Y327314D01*
X-103840Y327331D01*
X-103871Y327342D01*
X-104014Y327431D01*
X-104160Y327515D01*
X-104188Y327539D01*
X-104213Y327555D01*
X-104276Y327614D01*
X-104413Y327730D01*
X-106301Y329618D01*
X-106373Y329656D01*
X-106380Y329662D01*
X-106388Y329667D01*
X-106536Y329791D01*
X-106683Y329913D01*
X-106689Y329920D01*
X-106696Y329926D01*
X-106817Y330077D01*
X-106937Y330225D01*
X-106941Y330233D01*
X-106947Y330241D01*
X-107035Y330412D01*
X-107124Y330582D01*
X-107127Y330590D01*
X-107131Y330599D01*
X-107183Y330783D01*
X-107237Y330968D01*
X-107238Y330977D01*
X-107241Y330986D01*
X-107255Y331176D01*
X-107272Y331369D01*
X-107271Y331378D01*
X-107272Y331387D01*
X-107249Y331577D01*
X-107227Y331769D01*
X-107224Y331778D01*
X-107223Y331787D01*
X-107163Y331969D01*
X-107104Y332153D01*
X-107099Y332161D01*
X-107097Y332169D01*
X-107002Y332335D01*
X-106908Y332504D01*
X-106902Y332511D01*
X-106897Y332519D01*
X-106771Y332664D01*
X-106646Y332810D01*
X-106639Y332816D01*
X-106633Y332823D01*
X-106480Y332940D01*
X-106329Y333058D01*
X-106321Y333062D01*
X-106313Y333068D01*
X-106288Y333081D01*
X-104365Y335004D01*
X-104235Y335111D01*
X-104108Y335221D01*
X-104079Y335238D01*
X-104054Y335259D01*
X-103905Y335338D01*
X-103759Y335422D01*
X-103727Y335432D01*
X-103698Y335448D01*
X-103537Y335496D01*
X-103377Y335549D01*
X-103344Y335553D01*
X-103312Y335563D01*
X-103144Y335578D01*
X-102977Y335598D01*
X-102944Y335596D01*
X-102911Y335599D01*
X-102743Y335581D01*
X-102576Y335568D01*
X-102544Y335559D01*
X-102511Y335556D01*
X-102350Y335505D01*
X-102188Y335459D01*
X-102159Y335444D01*
X-102127Y335434D01*
X-101979Y335352D01*
X-101830Y335276D01*
X-101804Y335255D01*
X-101775Y335239D01*
X-101646Y335130D01*
X-101514Y335026D01*
X-101493Y335000D01*
X-101468Y334979D01*
X-101363Y334847D01*
X-101255Y334718D01*
X-101239Y334689D01*
X-101218Y334663D01*
X-101142Y334513D01*
X-101061Y334365D01*
X-101051Y334334D01*
X-101036Y334304D01*
X-100990Y334141D01*
X-100940Y333981D01*
X-100937Y333948D01*
X-100928Y333916D01*
X-100916Y333755D01*
X-91439Y333755D01*
X-91439Y356363D01*
X-101006Y356363D01*
X-101059Y356211D01*
X-101110Y356050D01*
X-101127Y356021D01*
X-101138Y355990D01*
X-101224Y355845D01*
X-101305Y355698D01*
X-101327Y355673D01*
X-101344Y355644D01*
X-101457Y355519D01*
X-101566Y355391D01*
X-101592Y355370D01*
X-101614Y355345D01*
X-101750Y355245D01*
X-101882Y355141D01*
X-101911Y355126D01*
X-101938Y355106D01*
X-102091Y355035D01*
X-102241Y354959D01*
X-102273Y354950D01*
X-102303Y354936D01*
X-102466Y354896D01*
X-102628Y354851D01*
X-102662Y354848D01*
X-102694Y354841D01*
X-102862Y354834D01*
X-103030Y354821D01*
X-103063Y354826D01*
X-103096Y354824D01*
X-103262Y354851D01*
X-103429Y354872D01*
X-103461Y354883D01*
X-103494Y354888D01*
X-103651Y354946D01*
X-103811Y355000D01*
X-103840Y355017D01*
X-103871Y355028D01*
X-104014Y355117D01*
X-104160Y355201D01*
X-104188Y355225D01*
X-104213Y355241D01*
X-104276Y355300D01*
X-104413Y355416D01*
X-106463Y357466D01*
X-106474Y357479D01*
X-106488Y357491D01*
X-106602Y357636D01*
X-106718Y357777D01*
X-106726Y357793D01*
X-106737Y357807D01*
X-106821Y357972D01*
X-106907Y358133D01*
X-106912Y358150D01*
X-106920Y358166D01*
X-106969Y358344D01*
X-107021Y358519D01*
X-107023Y358537D01*
X-107028Y358554D01*
X-107041Y358737D01*
X-107058Y358920D01*
X-107056Y358938D01*
X-107057Y358955D01*
X-107034Y359137D01*
X-107014Y359320D01*
X-107009Y359337D01*
X-107007Y359355D01*
X-106948Y359528D01*
X-106893Y359704D01*
X-106884Y359719D01*
X-106879Y359736D01*
X-106787Y359896D01*
X-106698Y360056D01*
X-106686Y360070D01*
X-106678Y360085D01*
X-106463Y360338D01*
X-104413Y362388D01*
X-104283Y362495D01*
X-104156Y362606D01*
X-104127Y362622D01*
X-104101Y362643D01*
X-103953Y362722D01*
X-103807Y362806D01*
X-103775Y362816D01*
X-103746Y362832D01*
X-103584Y362880D01*
X-103425Y362933D01*
X-103392Y362937D01*
X-103360Y362947D01*
X-103192Y362962D01*
X-103025Y362983D01*
X-102992Y362980D01*
X-102959Y362983D01*
X-102791Y362965D01*
X-102624Y362952D01*
X-102592Y362943D01*
X-102559Y362940D01*
X-102398Y362889D01*
X-102236Y362843D01*
X-102206Y362828D01*
X-102175Y362818D01*
X-102027Y362737D01*
X-101878Y362660D01*
X-101852Y362640D01*
X-101822Y362623D01*
X-101694Y362515D01*
X-101562Y362410D01*
X-101541Y362384D01*
X-101515Y362363D01*
X-101411Y362231D01*
X-101303Y362102D01*
X-101286Y362073D01*
X-101266Y362047D01*
X-101190Y361897D01*
X-101109Y361750D01*
X-101099Y361718D01*
X-101083Y361688D01*
X-101038Y361526D01*
X-101012Y361441D01*
X-89408Y361441D01*
X-89390Y361439D01*
X-89373Y361441D01*
X-89190Y361420D01*
X-89008Y361401D01*
X-88991Y361396D01*
X-88973Y361394D01*
X-88895Y361369D01*
X-88758Y361408D01*
X-88740Y361410D01*
X-88723Y361414D01*
X-88392Y361441D01*
X-76957Y361441D01*
X-77008Y361757D01*
X-77601Y363582D01*
X-78472Y365292D01*
X-79600Y366845D01*
X-80957Y368202D01*
X-82510Y369330D01*
X-83464Y369816D01*
X-83574Y369887D01*
X-83689Y369950D01*
X-83743Y369995D01*
X-83803Y370034D01*
X-83897Y370125D01*
X-83997Y370209D01*
X-84041Y370265D01*
X-84092Y370314D01*
X-84166Y370422D01*
X-84248Y370524D01*
X-84280Y370587D01*
X-84321Y370645D01*
X-84372Y370766D01*
X-84432Y370882D01*
X-84451Y370950D01*
X-84479Y371015D01*
X-84506Y371144D01*
X-84541Y371269D01*
X-84547Y371340D01*
X-84561Y371410D01*
X-84562Y371541D01*
X-84573Y371671D01*
X-84564Y371741D01*
X-84565Y371812D01*
X-84540Y371941D01*
X-84524Y372070D01*
X-84502Y372138D01*
X-84488Y372207D01*
X-84439Y372328D01*
X-84397Y372453D01*
X-84362Y372514D01*
X-84335Y372580D01*
X-84263Y372689D01*
X-84198Y372802D01*
X-84151Y372856D01*
X-84112Y372915D01*
X-84020Y373007D01*
X-83933Y373106D01*
X-83877Y373149D01*
X-83827Y373199D01*
X-83718Y373272D01*
X-83614Y373351D01*
X-83541Y373389D01*
X-83491Y373422D01*
X-83421Y373451D01*
X-83319Y373503D01*
X-80842Y374529D01*
X-76841Y378530D01*
X-74675Y383758D01*
X-74675Y389418D01*
X-76841Y394646D01*
X-81063Y398868D01*
X-81074Y398881D01*
X-81088Y398893D01*
X-81202Y399037D01*
X-81318Y399179D01*
X-81326Y399195D01*
X-81337Y399209D01*
X-81421Y399373D01*
X-81507Y399535D01*
X-81512Y399552D01*
X-81520Y399568D01*
X-81569Y399745D01*
X-81621Y399921D01*
X-81623Y399939D01*
X-81628Y399956D01*
X-81641Y400139D01*
X-81658Y400322D01*
X-81656Y400340D01*
X-81657Y400357D01*
X-81634Y400539D01*
X-81614Y400722D01*
X-81609Y400739D01*
X-81607Y400757D01*
X-81548Y400930D01*
X-81493Y401106D01*
X-81484Y401122D01*
X-81478Y401138D01*
X-81387Y401298D01*
X-81298Y401458D01*
X-81287Y401472D01*
X-81278Y401487D01*
X-81063Y401740D01*
X-76841Y405962D01*
X-74675Y411190D01*
X-74675Y416850D01*
X-76841Y422078D01*
X-80901Y426138D01*
X-80973Y426177D01*
X-80980Y426182D01*
X-80988Y426187D01*
X-81135Y426310D01*
X-81284Y426433D01*
X-81289Y426440D01*
X-81296Y426446D01*
X-81415Y426594D01*
X-81537Y426746D01*
X-81542Y426754D01*
X-81547Y426761D01*
X-81635Y426931D01*
X-81724Y427102D01*
X-81727Y427111D01*
X-81731Y427119D01*
X-81784Y427305D01*
X-81837Y427489D01*
X-81838Y427498D01*
X-81841Y427506D01*
X-81856Y427699D01*
X-81872Y427890D01*
X-81871Y427899D01*
X-81872Y427908D01*
X-81848Y428099D01*
X-81827Y428290D01*
X-81824Y428298D01*
X-81823Y428308D01*
X-81762Y428490D01*
X-81704Y428673D01*
X-81699Y428681D01*
X-81696Y428690D01*
X-81601Y428856D01*
X-81507Y429025D01*
X-81501Y429032D01*
X-81497Y429039D01*
X-81370Y429185D01*
X-81246Y429330D01*
X-81238Y429336D01*
X-81232Y429343D01*
X-81078Y429461D01*
X-80929Y429579D01*
X-80920Y429583D01*
X-80913Y429588D01*
X-80888Y429601D01*
X-76841Y433648D01*
X-74675Y438876D01*
X-74675Y444535D01*
X-75712Y447039D01*
X-75719Y447061D01*
X-75729Y447081D01*
X-75777Y447253D01*
X-75829Y447425D01*
X-75831Y447447D01*
X-75837Y447468D01*
X-75850Y447648D01*
X-75867Y447826D01*
X-75865Y447848D01*
X-75866Y447870D01*
X-75844Y448049D01*
X-75825Y448226D01*
X-75819Y448247D01*
X-75816Y448269D01*
X-75759Y448440D01*
X-75706Y448610D01*
X-75695Y448630D01*
X-75688Y448651D01*
X-75598Y448807D01*
X-75512Y448964D01*
X-75498Y448981D01*
X-75487Y449000D01*
X-75272Y449253D01*
X-66106Y458419D01*
X-65023Y461033D01*
X-65023Y479717D01*
X-66106Y482331D01*
X-99329Y515554D01*
X-101943Y516637D01*
X-109628Y516637D01*
X-109655Y516639D01*
X-109682Y516637D01*
X-109856Y516659D01*
X-110029Y516677D01*
X-110055Y516684D01*
X-110081Y516688D01*
X-110247Y516743D01*
X-110414Y516795D01*
X-110438Y516808D01*
X-110463Y516816D01*
X-110615Y516903D01*
X-110768Y516987D01*
X-110788Y517004D01*
X-110812Y517017D01*
X-111065Y517232D01*
X-121448Y527615D01*
X-121504Y527683D01*
X-121567Y527744D01*
X-121631Y527838D01*
X-121703Y527927D01*
X-121744Y528004D01*
X-121794Y528077D01*
X-121838Y528182D01*
X-121892Y528282D01*
X-121917Y528366D01*
X-121951Y528447D01*
X-121974Y528559D01*
X-122007Y528668D01*
X-122015Y528755D01*
X-122032Y528842D01*
X-122033Y528956D01*
X-122043Y529069D01*
X-122033Y529157D01*
X-122034Y529244D01*
X-122012Y529356D01*
X-122000Y529469D01*
X-121973Y529553D01*
X-121956Y529639D01*
X-121913Y529744D01*
X-121878Y529853D01*
X-121836Y529930D01*
X-121802Y530011D01*
X-121738Y530106D01*
X-121683Y530206D01*
X-121626Y530272D01*
X-121577Y530345D01*
X-121496Y530426D01*
X-121423Y530513D01*
X-121354Y530567D01*
X-121291Y530629D01*
X-121196Y530692D01*
X-121107Y530762D01*
X-121029Y530802D01*
X-120955Y530850D01*
X-120850Y530893D01*
X-120748Y530945D01*
X-120663Y530968D01*
X-120582Y531001D01*
X-120470Y531022D01*
X-120360Y531053D01*
X-120272Y531059D01*
X-120186Y531075D01*
X-120072Y531074D01*
X-119958Y531082D01*
X-119871Y531071D01*
X-119784Y531070D01*
X-119672Y531046D01*
X-119559Y531031D01*
X-119476Y531003D01*
X-119390Y530985D01*
X-119285Y530940D01*
X-119177Y530903D01*
X-119101Y530859D01*
X-119021Y530824D01*
X-118902Y530745D01*
X-118828Y530702D01*
X-118789Y530668D01*
X-118745Y530639D01*
X-117794Y529881D01*
X-115137Y528211D01*
X-112309Y526849D01*
X-109347Y525813D01*
X-106288Y525115D01*
X-105663Y525044D01*
X-105663Y550672D01*
X-105661Y550690D01*
X-105663Y550707D01*
X-105641Y550890D01*
X-105623Y551072D01*
X-105618Y551089D01*
X-105616Y551107D01*
X-105559Y551282D01*
X-105505Y551457D01*
X-105497Y551473D01*
X-105491Y551490D01*
X-105401Y551650D01*
X-105313Y551811D01*
X-105302Y551825D01*
X-105293Y551841D01*
X-105173Y551980D01*
X-105056Y552121D01*
X-105042Y552132D01*
X-105030Y552145D01*
X-104885Y552258D01*
X-104742Y552373D01*
X-104726Y552381D01*
X-104712Y552392D01*
X-104547Y552474D01*
X-104385Y552559D01*
X-104368Y552563D01*
X-104351Y552571D01*
X-104173Y552619D01*
X-103998Y552670D01*
X-103980Y552671D01*
X-103963Y552676D01*
X-103632Y552703D01*
X-101599Y552703D01*
X-101599Y552705D01*
X-103632Y552705D01*
X-103650Y552707D01*
X-103667Y552705D01*
X-103850Y552727D01*
X-104033Y552745D01*
X-104050Y552750D01*
X-104067Y552752D01*
X-104242Y552809D01*
X-104417Y552863D01*
X-104433Y552871D01*
X-104450Y552877D01*
X-104610Y552967D01*
X-104772Y553055D01*
X-104785Y553066D01*
X-104801Y553075D01*
X-104940Y553195D01*
X-105081Y553312D01*
X-105092Y553326D01*
X-105105Y553338D01*
X-105218Y553483D01*
X-105333Y553626D01*
X-105341Y553642D01*
X-105352Y553656D01*
X-105434Y553821D01*
X-105519Y553984D01*
X-105524Y554001D01*
X-105532Y554017D01*
X-105579Y554194D01*
X-105630Y554370D01*
X-105631Y554388D01*
X-105636Y554405D01*
X-105663Y554736D01*
X-105663Y580364D01*
X-106288Y580293D01*
X-109347Y579595D01*
X-112309Y578559D01*
X-115137Y577197D01*
X-117794Y575527D01*
X-120248Y573571D01*
X-122467Y571352D01*
X-123634Y569888D01*
X-123720Y569800D01*
X-123798Y569705D01*
X-123860Y569656D01*
X-123915Y569599D01*
X-124016Y569530D01*
X-124112Y569453D01*
X-124182Y569417D01*
X-124247Y569372D01*
X-124360Y569324D01*
X-124469Y569268D01*
X-124545Y569246D01*
X-124618Y569215D01*
X-124738Y569190D01*
X-124856Y569156D01*
X-124935Y569150D01*
X-125012Y569134D01*
X-125135Y569133D01*
X-125258Y569123D01*
X-125336Y569132D01*
X-125415Y569132D01*
X-125535Y569156D01*
X-125657Y569170D01*
X-125733Y569195D01*
X-125810Y569210D01*
X-125923Y569257D01*
X-126040Y569295D01*
X-126109Y569334D01*
X-126182Y569364D01*
X-126284Y569433D01*
X-126391Y569493D01*
X-126451Y569544D01*
X-126516Y569588D01*
X-126603Y569676D01*
X-126696Y569756D01*
X-126744Y569818D01*
X-126799Y569874D01*
X-126867Y569977D01*
X-126942Y570074D01*
X-126977Y570145D01*
X-127021Y570211D01*
X-127067Y570325D01*
X-127122Y570435D01*
X-127142Y570511D01*
X-127172Y570584D01*
X-127194Y570705D01*
X-127226Y570823D01*
X-127234Y570915D01*
X-127246Y570980D01*
X-127245Y571051D01*
X-127253Y571154D01*
X-127253Y583639D01*
X-128336Y586253D01*
X-163047Y620964D01*
X-165661Y622047D01*
X-515089Y622047D01*
X-517703Y620964D01*
X-568894Y569773D01*
X-569977Y567159D01*
X-569977Y550441D01*
X-568894Y547827D01*
X-557073Y536006D01*
X-554459Y534923D01*
X-416792Y534923D01*
X-416765Y534921D01*
X-416738Y534923D01*
X-416564Y534901D01*
X-416391Y534883D01*
X-416365Y534876D01*
X-416339Y534872D01*
X-416173Y534817D01*
X-416006Y534765D01*
X-415982Y534752D01*
X-415957Y534744D01*
X-415805Y534657D01*
X-415652Y534573D01*
X-415632Y534556D01*
X-415608Y534543D01*
X-415355Y534328D01*
X-361276Y480249D01*
X-361259Y480228D01*
X-361238Y480211D01*
X-361131Y480073D01*
X-361021Y479937D01*
X-361008Y479914D01*
X-360992Y479892D01*
X-360914Y479736D01*
X-360832Y479582D01*
X-360824Y479556D01*
X-360812Y479532D01*
X-360767Y479363D01*
X-360717Y479196D01*
X-360715Y479169D01*
X-360708Y479143D01*
X-360681Y478812D01*
X-360681Y135360D01*
X-360683Y135333D01*
X-360681Y135306D01*
X-360703Y135132D01*
X-360721Y134959D01*
X-360728Y134933D01*
X-360732Y134907D01*
X-360787Y134741D01*
X-360839Y134574D01*
X-360852Y134550D01*
X-360860Y134525D01*
X-360947Y134373D01*
X-361031Y134220D01*
X-361048Y134200D01*
X-361061Y134176D01*
X-361276Y133923D01*
X-404206Y90993D01*
X-404223Y90979D01*
X-404238Y90962D01*
X-404379Y90852D01*
X-404517Y90738D01*
X-404537Y90728D01*
X-404555Y90714D01*
X-404715Y90633D01*
X-404873Y90549D01*
X-404894Y90543D01*
X-404914Y90533D01*
X-405088Y90486D01*
X-405259Y90435D01*
X-405281Y90433D01*
X-405303Y90427D01*
X-405482Y90414D01*
X-405660Y90398D01*
X-405682Y90401D01*
X-405704Y90399D01*
X-405882Y90422D01*
X-405905Y90425D01*
X-411770Y90425D01*
X-416998Y88259D01*
X-420204Y85053D01*
X-420217Y85042D01*
X-420229Y85028D01*
X-420373Y84914D01*
X-420515Y84798D01*
X-420531Y84790D01*
X-420545Y84779D01*
X-420709Y84695D01*
X-420871Y84609D01*
X-420888Y84604D01*
X-420904Y84596D01*
X-421081Y84547D01*
X-421257Y84495D01*
X-421275Y84493D01*
X-421292Y84488D01*
X-421475Y84475D01*
X-421658Y84458D01*
X-421676Y84460D01*
X-421693Y84459D01*
X-421875Y84482D01*
X-422058Y84502D01*
X-422075Y84507D01*
X-422093Y84509D01*
X-422266Y84568D01*
X-422442Y84623D01*
X-422458Y84632D01*
X-422474Y84638D01*
X-422634Y84729D01*
X-422794Y84818D01*
X-422808Y84829D01*
X-422823Y84838D01*
X-423076Y85053D01*
X-426282Y88259D01*
X-431510Y90425D01*
X-437170Y90425D01*
X-442398Y88259D01*
X-445604Y85053D01*
X-445617Y85042D01*
X-445629Y85028D01*
X-445773Y84914D01*
X-445915Y84798D01*
X-445931Y84790D01*
X-445945Y84779D01*
X-446109Y84695D01*
X-446271Y84609D01*
X-446288Y84604D01*
X-446304Y84596D01*
X-446481Y84547D01*
X-446657Y84495D01*
X-446675Y84493D01*
X-446692Y84488D01*
X-446875Y84475D01*
X-447058Y84458D01*
X-447076Y84460D01*
X-447093Y84459D01*
X-447275Y84482D01*
X-447458Y84502D01*
X-447475Y84507D01*
X-447493Y84509D01*
X-447666Y84568D01*
X-447842Y84623D01*
X-447858Y84632D01*
X-447874Y84638D01*
X-448034Y84729D01*
X-448194Y84818D01*
X-448208Y84829D01*
X-448223Y84838D01*
X-448476Y85053D01*
X-451682Y88259D01*
X-456910Y90425D01*
X-462570Y90425D01*
X-467798Y88259D01*
X-471004Y85053D01*
X-471017Y85042D01*
X-471029Y85028D01*
X-471173Y84914D01*
X-471315Y84798D01*
X-471331Y84790D01*
X-471345Y84779D01*
X-471509Y84695D01*
X-471671Y84609D01*
X-471688Y84604D01*
X-471704Y84596D01*
X-471881Y84547D01*
X-472057Y84495D01*
X-472075Y84493D01*
X-472092Y84488D01*
X-472275Y84475D01*
X-472458Y84458D01*
X-472476Y84460D01*
X-472493Y84459D01*
X-472675Y84482D01*
X-472858Y84502D01*
X-472875Y84507D01*
X-472893Y84509D01*
X-473066Y84568D01*
X-473242Y84623D01*
X-473258Y84632D01*
X-473274Y84638D01*
X-473434Y84729D01*
X-473594Y84818D01*
X-473608Y84829D01*
X-473623Y84838D01*
X-473876Y85053D01*
X-477082Y88259D01*
X-482310Y90425D01*
X-487970Y90425D01*
X-493198Y88259D01*
X-496404Y85053D01*
X-496417Y85042D01*
X-496429Y85028D01*
X-496573Y84914D01*
X-496715Y84798D01*
X-496731Y84790D01*
X-496745Y84779D01*
X-496909Y84695D01*
X-497071Y84609D01*
X-497088Y84604D01*
X-497104Y84596D01*
X-497281Y84547D01*
X-497457Y84495D01*
X-497475Y84493D01*
X-497492Y84488D01*
X-497675Y84475D01*
X-497858Y84458D01*
X-497876Y84460D01*
X-497893Y84459D01*
X-498075Y84482D01*
X-498258Y84502D01*
X-498275Y84507D01*
X-498293Y84509D01*
X-498466Y84568D01*
X-498642Y84623D01*
X-498658Y84632D01*
X-498674Y84638D01*
X-498834Y84729D01*
X-498994Y84818D01*
X-499008Y84829D01*
X-499023Y84838D01*
X-499276Y85053D01*
X-502482Y88259D01*
X-507710Y90425D01*
X-513370Y90425D01*
X-518598Y88259D01*
X-521804Y85053D01*
X-521817Y85042D01*
X-521829Y85028D01*
X-521973Y84914D01*
X-522115Y84798D01*
X-522131Y84790D01*
X-522145Y84779D01*
X-522309Y84695D01*
X-522471Y84609D01*
X-522488Y84604D01*
X-522504Y84596D01*
X-522681Y84547D01*
X-522857Y84495D01*
X-522875Y84493D01*
X-522892Y84488D01*
X-523075Y84475D01*
X-523258Y84458D01*
X-523276Y84460D01*
X-523293Y84459D01*
X-523475Y84482D01*
X-523658Y84502D01*
X-523675Y84507D01*
X-523693Y84509D01*
X-523866Y84568D01*
X-524042Y84623D01*
X-524058Y84632D01*
X-524074Y84638D01*
X-524234Y84729D01*
X-524394Y84818D01*
X-524408Y84829D01*
X-524423Y84838D01*
X-524676Y85053D01*
X-527882Y88259D01*
X-533110Y90425D01*
X-538770Y90425D01*
X-543998Y88259D01*
X-547999Y84258D01*
X-548109Y83993D01*
X-548190Y83841D01*
X-548267Y83687D01*
X-548285Y83664D01*
X-548299Y83639D01*
X-548409Y83506D01*
X-548515Y83369D01*
X-548537Y83350D01*
X-548555Y83328D01*
X-548689Y83219D01*
X-548820Y83107D01*
X-548845Y83093D01*
X-548868Y83074D01*
X-549021Y82994D01*
X-549171Y82910D01*
X-549199Y82901D01*
X-549224Y82887D01*
X-549390Y82839D01*
X-549554Y82786D01*
X-549583Y82782D01*
X-549611Y82774D01*
X-549783Y82760D01*
X-549954Y82740D01*
X-549983Y82742D01*
X-550012Y82740D01*
X-550183Y82759D01*
X-550356Y82774D01*
X-550383Y82782D01*
X-550412Y82785D01*
X-550576Y82838D01*
X-550742Y82886D01*
X-550768Y82899D01*
X-550795Y82908D01*
X-550946Y82992D01*
X-551099Y83072D01*
X-551122Y83090D01*
X-551147Y83104D01*
X-551278Y83217D01*
X-551412Y83325D01*
X-551433Y83350D01*
X-551453Y83366D01*
X-551505Y83433D01*
X-551629Y83577D01*
X-552040Y84143D01*
X-553397Y85500D01*
X-554950Y86628D01*
X-556660Y87499D01*
X-558485Y88092D01*
X-558841Y88149D01*
X-558841Y76668D01*
X-558842Y76650D01*
X-558841Y76633D01*
X-558862Y76450D01*
X-558881Y76268D01*
X-558886Y76251D01*
X-558888Y76233D01*
X-558901Y76192D01*
X-558874Y76098D01*
X-558872Y76080D01*
X-558868Y76063D01*
X-558841Y75732D01*
X-558841Y64251D01*
X-558485Y64308D01*
X-556660Y64901D01*
X-554950Y65772D01*
X-553397Y66900D01*
X-552040Y68257D01*
X-551629Y68823D01*
X-551514Y68952D01*
X-551403Y69084D01*
X-551380Y69102D01*
X-551361Y69124D01*
X-551223Y69228D01*
X-551088Y69335D01*
X-551062Y69348D01*
X-551039Y69366D01*
X-550884Y69440D01*
X-550730Y69519D01*
X-550702Y69527D01*
X-550676Y69539D01*
X-550509Y69582D01*
X-550342Y69629D01*
X-550313Y69631D01*
X-550285Y69638D01*
X-550113Y69647D01*
X-549941Y69660D01*
X-549912Y69657D01*
X-549883Y69658D01*
X-549712Y69632D01*
X-549541Y69611D01*
X-549514Y69602D01*
X-549485Y69598D01*
X-549323Y69539D01*
X-549159Y69485D01*
X-549134Y69470D01*
X-549107Y69461D01*
X-548959Y69371D01*
X-548809Y69285D01*
X-548787Y69266D01*
X-548763Y69251D01*
X-548636Y69134D01*
X-548506Y69021D01*
X-548488Y68998D01*
X-548467Y68978D01*
X-548365Y68839D01*
X-548260Y68702D01*
X-548245Y68673D01*
X-548231Y68652D01*
X-548195Y68575D01*
X-548109Y68407D01*
X-547999Y68142D01*
X-543998Y64141D01*
X-538770Y61975D01*
X-533110Y61975D01*
X-527882Y64141D01*
X-524676Y67347D01*
X-524662Y67358D01*
X-524651Y67372D01*
X-524507Y67485D01*
X-524365Y67602D01*
X-524349Y67610D01*
X-524335Y67621D01*
X-524171Y67705D01*
X-524009Y67791D01*
X-523992Y67796D01*
X-523976Y67804D01*
X-523799Y67853D01*
X-523623Y67905D01*
X-523605Y67907D01*
X-523588Y67912D01*
X-523405Y67925D01*
X-523222Y67942D01*
X-523204Y67940D01*
X-523187Y67941D01*
X-523005Y67918D01*
X-522822Y67898D01*
X-522805Y67893D01*
X-522787Y67891D01*
X-522613Y67832D01*
X-522438Y67777D01*
X-522422Y67768D01*
X-522406Y67762D01*
X-522246Y67671D01*
X-522086Y67582D01*
X-522072Y67571D01*
X-522057Y67562D01*
X-521804Y67347D01*
X-518598Y64141D01*
X-513370Y61975D01*
X-507710Y61975D01*
X-506823Y62343D01*
X-506802Y62349D01*
X-506782Y62359D01*
X-506609Y62408D01*
X-506438Y62459D01*
X-506415Y62461D01*
X-506394Y62467D01*
X-506215Y62481D01*
X-506037Y62497D01*
X-506015Y62495D01*
X-505992Y62497D01*
X-505814Y62474D01*
X-505636Y62456D01*
X-505615Y62449D01*
X-505593Y62446D01*
X-505423Y62389D01*
X-505252Y62336D01*
X-505232Y62325D01*
X-505211Y62318D01*
X-505056Y62228D01*
X-504899Y62143D01*
X-504882Y62128D01*
X-504862Y62117D01*
X-504609Y61903D01*
X-459538Y16831D01*
X-459537Y16830D01*
X-457251Y14544D01*
X-454637Y13461D01*
X-179631Y13461D01*
G37*
%LPD*%
%LPC*%
G36*
X-416301Y112927D02*
X-416301Y112927D01*
X-411128Y115070D01*
X-407170Y119028D01*
X-405027Y124201D01*
X-405027Y130172D01*
X-405025Y130199D01*
X-405027Y130226D01*
X-405005Y130400D01*
X-404987Y130573D01*
X-404980Y130599D01*
X-404976Y130625D01*
X-404921Y130791D01*
X-404869Y130958D01*
X-404856Y130982D01*
X-404848Y131007D01*
X-404761Y131159D01*
X-404677Y131312D01*
X-404660Y131332D01*
X-404647Y131356D01*
X-404432Y131609D01*
X-387670Y148371D01*
X-386587Y150985D01*
X-386587Y417975D01*
X-387670Y420589D01*
X-421172Y454091D01*
X-421189Y454112D01*
X-421210Y454129D01*
X-421317Y454267D01*
X-421427Y454403D01*
X-421440Y454426D01*
X-421456Y454448D01*
X-421534Y454604D01*
X-421616Y454758D01*
X-421624Y454784D01*
X-421636Y454808D01*
X-421681Y454977D01*
X-421731Y455144D01*
X-421733Y455171D01*
X-421740Y455197D01*
X-421767Y455528D01*
X-421767Y459701D01*
X-423681Y464322D01*
X-427218Y467859D01*
X-431839Y469773D01*
X-434961Y469773D01*
X-434987Y469775D01*
X-435014Y469773D01*
X-435188Y469795D01*
X-435361Y469813D01*
X-435387Y469820D01*
X-435414Y469824D01*
X-435579Y469879D01*
X-435746Y469931D01*
X-435770Y469944D01*
X-435795Y469952D01*
X-435947Y470039D01*
X-436100Y470123D01*
X-436121Y470140D01*
X-436144Y470153D01*
X-436397Y470368D01*
X-479043Y513014D01*
X-481658Y514097D01*
X-565954Y514097D01*
X-565981Y514099D01*
X-566008Y514097D01*
X-566182Y514119D01*
X-566355Y514137D01*
X-566380Y514144D01*
X-566407Y514148D01*
X-566573Y514203D01*
X-566740Y514255D01*
X-566763Y514268D01*
X-566789Y514276D01*
X-566940Y514363D01*
X-567094Y514447D01*
X-567114Y514464D01*
X-567138Y514477D01*
X-567391Y514692D01*
X-589592Y536893D01*
X-589609Y536914D01*
X-589630Y536932D01*
X-589737Y537069D01*
X-589847Y537205D01*
X-589860Y537228D01*
X-589876Y537250D01*
X-589954Y537407D01*
X-590036Y537561D01*
X-590044Y537586D01*
X-590056Y537610D01*
X-590101Y537780D01*
X-590151Y537946D01*
X-590153Y537973D01*
X-590160Y537999D01*
X-590187Y538330D01*
X-590187Y613189D01*
X-590185Y613215D01*
X-590187Y613242D01*
X-590165Y613416D01*
X-590147Y613590D01*
X-590140Y613615D01*
X-590136Y613642D01*
X-590080Y613807D01*
X-590029Y613974D01*
X-590016Y613998D01*
X-590008Y614023D01*
X-589921Y614175D01*
X-589837Y614328D01*
X-589820Y614349D01*
X-589807Y614372D01*
X-589592Y614625D01*
X-585833Y618385D01*
X-583774Y623356D01*
X-583774Y646644D01*
X-585833Y651615D01*
X-589638Y655421D01*
X-594609Y657480D01*
X-599991Y657480D01*
X-604962Y655421D01*
X-608767Y651615D01*
X-610826Y646644D01*
X-610826Y623356D01*
X-608767Y618385D01*
X-605008Y614625D01*
X-604991Y614604D01*
X-604970Y614587D01*
X-604863Y614449D01*
X-604753Y614314D01*
X-604740Y614290D01*
X-604724Y614269D01*
X-604646Y614112D01*
X-604564Y613958D01*
X-604556Y613932D01*
X-604544Y613908D01*
X-604499Y613739D01*
X-604449Y613572D01*
X-604447Y613545D01*
X-604440Y613520D01*
X-604413Y613189D01*
X-604413Y533127D01*
X-603330Y530513D01*
X-573771Y500954D01*
X-571157Y499871D01*
X-486860Y499871D01*
X-486833Y499869D01*
X-486807Y499871D01*
X-486633Y499849D01*
X-486459Y499831D01*
X-486434Y499824D01*
X-486407Y499820D01*
X-486242Y499765D01*
X-486074Y499713D01*
X-486051Y499700D01*
X-486026Y499692D01*
X-485874Y499605D01*
X-485720Y499521D01*
X-485700Y499504D01*
X-485677Y499491D01*
X-485424Y499276D01*
X-457356Y471208D01*
X-457350Y471201D01*
X-457343Y471196D01*
X-457223Y471046D01*
X-457101Y470897D01*
X-457096Y470889D01*
X-457091Y470882D01*
X-457002Y470711D01*
X-456912Y470541D01*
X-456909Y470533D01*
X-456905Y470525D01*
X-456852Y470339D01*
X-456797Y470155D01*
X-456796Y470146D01*
X-456794Y470138D01*
X-456778Y469946D01*
X-456761Y469754D01*
X-456762Y469745D01*
X-456761Y469736D01*
X-456783Y469547D01*
X-456804Y469354D01*
X-456807Y469345D01*
X-456808Y469337D01*
X-456868Y469154D01*
X-456926Y468970D01*
X-456930Y468962D01*
X-456933Y468954D01*
X-457028Y468785D01*
X-457120Y468618D01*
X-457126Y468611D01*
X-457131Y468603D01*
X-457258Y468456D01*
X-457381Y468311D01*
X-457388Y468305D01*
X-457394Y468298D01*
X-457545Y468181D01*
X-457697Y468061D01*
X-457705Y468057D01*
X-457712Y468052D01*
X-457884Y467966D01*
X-458056Y467879D01*
X-458064Y467876D01*
X-458072Y467872D01*
X-458259Y467822D01*
X-458444Y467771D01*
X-458453Y467770D01*
X-458461Y467768D01*
X-458792Y467741D01*
X-459026Y467741D01*
X-465201Y461566D01*
X-465201Y459231D01*
X-454660Y459231D01*
X-454643Y459230D01*
X-454625Y459231D01*
X-454442Y459210D01*
X-454260Y459191D01*
X-454243Y459186D01*
X-454225Y459184D01*
X-454050Y459127D01*
X-453875Y459073D01*
X-453859Y459065D01*
X-453842Y459059D01*
X-453682Y458969D01*
X-453521Y458882D01*
X-453507Y458870D01*
X-453492Y458861D01*
X-453352Y458741D01*
X-453212Y458624D01*
X-453211Y458624D01*
X-453211Y458623D01*
X-453200Y458610D01*
X-453187Y458598D01*
X-453186Y458598D01*
X-453074Y458453D01*
X-452959Y458310D01*
X-452950Y458294D01*
X-452940Y458280D01*
X-452858Y458115D01*
X-452773Y457952D01*
X-452768Y457935D01*
X-452760Y457919D01*
X-452712Y457741D01*
X-452662Y457565D01*
X-452660Y457548D01*
X-452656Y457530D01*
X-452629Y457200D01*
X-452629Y446659D01*
X-450294Y446659D01*
X-447373Y449580D01*
X-447359Y449591D01*
X-447348Y449605D01*
X-447204Y449718D01*
X-447062Y449835D01*
X-447046Y449843D01*
X-447032Y449855D01*
X-446867Y449938D01*
X-446706Y450024D01*
X-446689Y450029D01*
X-446673Y450037D01*
X-446495Y450086D01*
X-446320Y450138D01*
X-446302Y450140D01*
X-446285Y450145D01*
X-446102Y450158D01*
X-445919Y450175D01*
X-445901Y450173D01*
X-445884Y450174D01*
X-445701Y450151D01*
X-445519Y450131D01*
X-445502Y450126D01*
X-445484Y450124D01*
X-445310Y450065D01*
X-445135Y450010D01*
X-445119Y450001D01*
X-445102Y449996D01*
X-444943Y449904D01*
X-444783Y449815D01*
X-444769Y449804D01*
X-444754Y449795D01*
X-444501Y449580D01*
X-441462Y446541D01*
X-438214Y445196D01*
X-436841Y444627D01*
X-432668Y444627D01*
X-432641Y444625D01*
X-432614Y444627D01*
X-432440Y444605D01*
X-432267Y444587D01*
X-432241Y444580D01*
X-432215Y444576D01*
X-432049Y444521D01*
X-431882Y444469D01*
X-431858Y444456D01*
X-431833Y444448D01*
X-431681Y444361D01*
X-431528Y444277D01*
X-431508Y444260D01*
X-431484Y444247D01*
X-431231Y444032D01*
X-401408Y414209D01*
X-401391Y414188D01*
X-401370Y414171D01*
X-401263Y414033D01*
X-401153Y413897D01*
X-401140Y413874D01*
X-401124Y413852D01*
X-401046Y413696D01*
X-400964Y413542D01*
X-400956Y413516D01*
X-400944Y413492D01*
X-400899Y413323D01*
X-400849Y413156D01*
X-400847Y413129D01*
X-400840Y413103D01*
X-400813Y412772D01*
X-400813Y156188D01*
X-400815Y156161D01*
X-400813Y156134D01*
X-400835Y155960D01*
X-400853Y155787D01*
X-400860Y155761D01*
X-400864Y155735D01*
X-400919Y155569D01*
X-400971Y155402D01*
X-400984Y155378D01*
X-400992Y155353D01*
X-401079Y155201D01*
X-401163Y155048D01*
X-401180Y155028D01*
X-401193Y155004D01*
X-401408Y154751D01*
X-414491Y141668D01*
X-414512Y141651D01*
X-414529Y141630D01*
X-414667Y141523D01*
X-414803Y141413D01*
X-414826Y141400D01*
X-414848Y141384D01*
X-415004Y141306D01*
X-415158Y141224D01*
X-415184Y141216D01*
X-415208Y141204D01*
X-415377Y141159D01*
X-415544Y141109D01*
X-415571Y141107D01*
X-415597Y141100D01*
X-415928Y141073D01*
X-421899Y141073D01*
X-427072Y138930D01*
X-431030Y134972D01*
X-433173Y129799D01*
X-433173Y124201D01*
X-431030Y119028D01*
X-427072Y115070D01*
X-421899Y112927D01*
X-416301Y112927D01*
G37*
%LPD*%
%LPC*%
G36*
X-594499Y432427D02*
X-594499Y432427D01*
X-590061Y434265D01*
X-586665Y437661D01*
X-584827Y442099D01*
X-584827Y446901D01*
X-586665Y451339D01*
X-590061Y454735D01*
X-591482Y455323D01*
X-591490Y455328D01*
X-591499Y455330D01*
X-591667Y455422D01*
X-591837Y455514D01*
X-591844Y455519D01*
X-591852Y455524D01*
X-591999Y455647D01*
X-592148Y455770D01*
X-592153Y455777D01*
X-592160Y455783D01*
X-592279Y455932D01*
X-592401Y456083D01*
X-592406Y456091D01*
X-592411Y456097D01*
X-592498Y456267D01*
X-592588Y456439D01*
X-592591Y456448D01*
X-592595Y456456D01*
X-592647Y456639D01*
X-592701Y456825D01*
X-592702Y456835D01*
X-592705Y456843D01*
X-592719Y457033D01*
X-592736Y457227D01*
X-592735Y457235D01*
X-592736Y457244D01*
X-592713Y457434D01*
X-592691Y457627D01*
X-592688Y457635D01*
X-592687Y457644D01*
X-592627Y457825D01*
X-592568Y458010D01*
X-592563Y458018D01*
X-592561Y458026D01*
X-592466Y458193D01*
X-592371Y458361D01*
X-592366Y458368D01*
X-592361Y458376D01*
X-592235Y458521D01*
X-592110Y458667D01*
X-592103Y458673D01*
X-592097Y458680D01*
X-591944Y458797D01*
X-591793Y458916D01*
X-591785Y458920D01*
X-591778Y458925D01*
X-591482Y459077D01*
X-590061Y459665D01*
X-586665Y463061D01*
X-584827Y467499D01*
X-584827Y472301D01*
X-586665Y476739D01*
X-590061Y480135D01*
X-594499Y481973D01*
X-614301Y481973D01*
X-618739Y480135D01*
X-621266Y477608D01*
X-621286Y477591D01*
X-621304Y477570D01*
X-621442Y477463D01*
X-621577Y477353D01*
X-621601Y477340D01*
X-621622Y477324D01*
X-621779Y477246D01*
X-621933Y477164D01*
X-621959Y477156D01*
X-621983Y477144D01*
X-622152Y477099D01*
X-622319Y477049D01*
X-622345Y477047D01*
X-622371Y477040D01*
X-622702Y477013D01*
X-631212Y477013D01*
X-631239Y477015D01*
X-631266Y477013D01*
X-631440Y477035D01*
X-631613Y477053D01*
X-631639Y477060D01*
X-631665Y477064D01*
X-631831Y477119D01*
X-631998Y477171D01*
X-632022Y477184D01*
X-632047Y477192D01*
X-632199Y477279D01*
X-632352Y477363D01*
X-632372Y477380D01*
X-632396Y477393D01*
X-632649Y477608D01*
X-703892Y548851D01*
X-703909Y548872D01*
X-703930Y548889D01*
X-704037Y549027D01*
X-704147Y549163D01*
X-704160Y549186D01*
X-704176Y549208D01*
X-704254Y549364D01*
X-704336Y549518D01*
X-704344Y549544D01*
X-704356Y549568D01*
X-704401Y549737D01*
X-704451Y549904D01*
X-704453Y549931D01*
X-704460Y549957D01*
X-704487Y550288D01*
X-704487Y613189D01*
X-704485Y613215D01*
X-704487Y613242D01*
X-704465Y613416D01*
X-704447Y613589D01*
X-704440Y613615D01*
X-704436Y613642D01*
X-704381Y613807D01*
X-704329Y613974D01*
X-704316Y613998D01*
X-704308Y614023D01*
X-704221Y614175D01*
X-704137Y614328D01*
X-704120Y614349D01*
X-704107Y614372D01*
X-703892Y614625D01*
X-700133Y618385D01*
X-698074Y623356D01*
X-698074Y646644D01*
X-700133Y651615D01*
X-703938Y655421D01*
X-708909Y657480D01*
X-714291Y657480D01*
X-719262Y655421D01*
X-723067Y651615D01*
X-725126Y646644D01*
X-725126Y623356D01*
X-723067Y618385D01*
X-719308Y614625D01*
X-719291Y614604D01*
X-719270Y614587D01*
X-719163Y614449D01*
X-719053Y614314D01*
X-719040Y614290D01*
X-719024Y614269D01*
X-718946Y614112D01*
X-718864Y613958D01*
X-718856Y613932D01*
X-718844Y613908D01*
X-718799Y613739D01*
X-718749Y613572D01*
X-718747Y613545D01*
X-718740Y613520D01*
X-718713Y613189D01*
X-718713Y545085D01*
X-717630Y542471D01*
X-639029Y463870D01*
X-638081Y463477D01*
X-638080Y463477D01*
X-636415Y462787D01*
X-622702Y462787D01*
X-622675Y462785D01*
X-622649Y462787D01*
X-622475Y462765D01*
X-622301Y462747D01*
X-622276Y462740D01*
X-622249Y462736D01*
X-622083Y462680D01*
X-621917Y462629D01*
X-621893Y462616D01*
X-621868Y462608D01*
X-621716Y462521D01*
X-621562Y462437D01*
X-621542Y462420D01*
X-621519Y462407D01*
X-621266Y462192D01*
X-618739Y459665D01*
X-618134Y459415D01*
X-617318Y459077D01*
X-617310Y459072D01*
X-617301Y459070D01*
X-617132Y458977D01*
X-616963Y458886D01*
X-616956Y458881D01*
X-616948Y458876D01*
X-616801Y458753D01*
X-616652Y458630D01*
X-616647Y458623D01*
X-616640Y458617D01*
X-616520Y458467D01*
X-616399Y458317D01*
X-616395Y458309D01*
X-616389Y458302D01*
X-616300Y458130D01*
X-616212Y457961D01*
X-616209Y457952D01*
X-616205Y457944D01*
X-616152Y457757D01*
X-616099Y457574D01*
X-616098Y457566D01*
X-616095Y457557D01*
X-616080Y457364D01*
X-616064Y457173D01*
X-616065Y457164D01*
X-616064Y457156D01*
X-616088Y456964D01*
X-616109Y456773D01*
X-616112Y456765D01*
X-616113Y456756D01*
X-616173Y456573D01*
X-616232Y456390D01*
X-616237Y456382D01*
X-616239Y456374D01*
X-616334Y456207D01*
X-616429Y456038D01*
X-616434Y456032D01*
X-616439Y456024D01*
X-616565Y455879D01*
X-616690Y455733D01*
X-616697Y455727D01*
X-616703Y455720D01*
X-616857Y455602D01*
X-617007Y455484D01*
X-617015Y455480D01*
X-617023Y455475D01*
X-617318Y455323D01*
X-618739Y454735D01*
X-621266Y452208D01*
X-621286Y452191D01*
X-621304Y452170D01*
X-621442Y452063D01*
X-621577Y451953D01*
X-621601Y451940D01*
X-621622Y451924D01*
X-621779Y451846D01*
X-621933Y451764D01*
X-621959Y451756D01*
X-621983Y451744D01*
X-622152Y451699D01*
X-622319Y451649D01*
X-622345Y451647D01*
X-622371Y451640D01*
X-622702Y451613D01*
X-656612Y451613D01*
X-656639Y451615D01*
X-656666Y451613D01*
X-656840Y451635D01*
X-657013Y451653D01*
X-657039Y451660D01*
X-657065Y451664D01*
X-657231Y451719D01*
X-657398Y451771D01*
X-657422Y451784D01*
X-657447Y451792D01*
X-657599Y451879D01*
X-657752Y451963D01*
X-657772Y451980D01*
X-657796Y451993D01*
X-658049Y452208D01*
X-754292Y548451D01*
X-754309Y548472D01*
X-754330Y548489D01*
X-754437Y548627D01*
X-754547Y548763D01*
X-754560Y548786D01*
X-754576Y548808D01*
X-754654Y548964D01*
X-754736Y549118D01*
X-754744Y549144D01*
X-754756Y549168D01*
X-754801Y549337D01*
X-754851Y549504D01*
X-754853Y549531D01*
X-754860Y549557D01*
X-754887Y549888D01*
X-754887Y612829D01*
X-754885Y612852D01*
X-754887Y612874D01*
X-754865Y613052D01*
X-754847Y613230D01*
X-754841Y613251D01*
X-754838Y613274D01*
X-754782Y613443D01*
X-754729Y613615D01*
X-754718Y613635D01*
X-754711Y613656D01*
X-754623Y613811D01*
X-754537Y613969D01*
X-754523Y613986D01*
X-754512Y614006D01*
X-754394Y614141D01*
X-754280Y614278D01*
X-754262Y614292D01*
X-754247Y614309D01*
X-754106Y614418D01*
X-754075Y614443D01*
X-750133Y618385D01*
X-748074Y623356D01*
X-748074Y646644D01*
X-750133Y651615D01*
X-753938Y655421D01*
X-758909Y657480D01*
X-764291Y657480D01*
X-769262Y655421D01*
X-773067Y651615D01*
X-775126Y646644D01*
X-775126Y623356D01*
X-773067Y618385D01*
X-769708Y615025D01*
X-769691Y615004D01*
X-769670Y614987D01*
X-769563Y614849D01*
X-769453Y614714D01*
X-769440Y614690D01*
X-769424Y614669D01*
X-769345Y614511D01*
X-769264Y614358D01*
X-769256Y614332D01*
X-769244Y614308D01*
X-769199Y614139D01*
X-769149Y613972D01*
X-769147Y613945D01*
X-769140Y613920D01*
X-769113Y613589D01*
X-769113Y544685D01*
X-768030Y542071D01*
X-664429Y438470D01*
X-661815Y437387D01*
X-622702Y437387D01*
X-622675Y437385D01*
X-622649Y437387D01*
X-622475Y437365D01*
X-622301Y437347D01*
X-622276Y437340D01*
X-622249Y437336D01*
X-622083Y437280D01*
X-621917Y437229D01*
X-621893Y437216D01*
X-621868Y437208D01*
X-621716Y437121D01*
X-621562Y437037D01*
X-621542Y437020D01*
X-621519Y437007D01*
X-621266Y436792D01*
X-618739Y434265D01*
X-614301Y432427D01*
X-594499Y432427D01*
G37*
%LPD*%
G36*
X-353104Y492994D02*
X-353104Y492994D01*
X-353113Y492993D01*
X-353306Y493017D01*
X-353495Y493039D01*
X-353504Y493042D01*
X-353513Y493043D01*
X-353695Y493105D01*
X-353878Y493164D01*
X-353886Y493169D01*
X-353894Y493172D01*
X-354061Y493268D01*
X-354229Y493362D01*
X-354236Y493368D01*
X-354243Y493373D01*
X-354496Y493587D01*
X-406688Y545779D01*
X-409024Y548115D01*
X-409142Y548178D01*
X-409185Y548214D01*
X-409233Y548243D01*
X-409340Y548342D01*
X-409453Y548435D01*
X-409488Y548478D01*
X-409528Y548516D01*
X-409614Y548634D01*
X-409706Y548747D01*
X-409732Y548797D01*
X-409765Y548842D01*
X-409825Y548974D01*
X-409893Y549104D01*
X-409909Y549157D01*
X-409932Y549208D01*
X-409965Y549350D01*
X-410006Y549490D01*
X-410011Y549546D01*
X-410024Y549600D01*
X-410029Y549746D01*
X-410041Y549891D01*
X-410035Y549947D01*
X-410037Y550002D01*
X-410012Y550146D01*
X-409996Y550291D01*
X-409979Y550344D01*
X-409970Y550399D01*
X-409918Y550536D01*
X-409873Y550675D01*
X-409846Y550723D01*
X-409826Y550775D01*
X-409714Y550959D01*
X-409676Y551026D01*
X-409665Y551040D01*
X-409653Y551059D01*
X-408672Y552409D01*
X-408210Y553316D01*
X-408182Y553359D01*
X-408161Y553406D01*
X-408074Y553528D01*
X-407992Y553655D01*
X-407957Y553692D01*
X-407927Y553734D01*
X-407817Y553836D01*
X-407712Y553944D01*
X-407670Y553973D01*
X-407633Y554008D01*
X-407505Y554088D01*
X-407381Y554173D01*
X-407334Y554193D01*
X-407290Y554220D01*
X-407149Y554272D01*
X-407011Y554331D01*
X-406961Y554342D01*
X-406913Y554360D01*
X-406764Y554383D01*
X-406617Y554414D01*
X-406566Y554414D01*
X-406515Y554422D01*
X-406364Y554416D01*
X-406214Y554417D01*
X-406164Y554407D01*
X-406113Y554405D01*
X-405966Y554369D01*
X-405819Y554340D01*
X-405771Y554321D01*
X-405722Y554309D01*
X-405586Y554245D01*
X-405446Y554188D01*
X-405404Y554159D01*
X-405357Y554137D01*
X-405237Y554048D01*
X-405111Y553964D01*
X-405075Y553928D01*
X-405034Y553898D01*
X-404933Y553786D01*
X-404827Y553679D01*
X-404799Y553637D01*
X-404764Y553599D01*
X-404643Y553402D01*
X-404604Y553344D01*
X-404599Y553331D01*
X-404590Y553316D01*
X-404128Y552410D01*
X-403000Y550857D01*
X-401643Y549500D01*
X-400090Y548372D01*
X-398380Y547501D01*
X-396555Y546908D01*
X-396199Y546851D01*
X-396199Y556301D01*
X-418632Y556301D01*
X-418650Y556302D01*
X-418667Y556301D01*
X-418850Y556322D01*
X-419032Y556341D01*
X-419049Y556346D01*
X-419067Y556348D01*
X-419242Y556405D01*
X-419417Y556459D01*
X-419433Y556467D01*
X-419450Y556473D01*
X-419610Y556563D01*
X-419771Y556650D01*
X-419785Y556662D01*
X-419801Y556671D01*
X-419940Y556791D01*
X-420081Y556908D01*
X-420092Y556922D01*
X-420105Y556934D01*
X-420218Y557079D01*
X-420333Y557222D01*
X-420341Y557238D01*
X-420352Y557252D01*
X-420434Y557417D01*
X-420448Y557444D01*
X-420546Y557499D01*
X-420708Y557587D01*
X-420721Y557598D01*
X-420737Y557607D01*
X-420876Y557727D01*
X-421017Y557845D01*
X-421028Y557858D01*
X-421042Y557870D01*
X-421154Y558015D01*
X-421269Y558158D01*
X-421277Y558174D01*
X-421288Y558188D01*
X-421370Y558353D01*
X-421455Y558516D01*
X-421460Y558533D01*
X-421468Y558549D01*
X-421515Y558727D01*
X-421566Y558902D01*
X-421568Y558920D01*
X-421572Y558937D01*
X-421599Y559268D01*
X-421599Y570749D01*
X-421955Y570692D01*
X-423780Y570099D01*
X-425490Y569228D01*
X-427043Y568100D01*
X-428400Y566743D01*
X-428811Y566177D01*
X-428926Y566048D01*
X-429037Y565916D01*
X-429060Y565898D01*
X-429079Y565876D01*
X-429217Y565772D01*
X-429352Y565665D01*
X-429378Y565652D01*
X-429401Y565634D01*
X-429556Y565560D01*
X-429710Y565481D01*
X-429738Y565473D01*
X-429764Y565461D01*
X-429931Y565418D01*
X-430098Y565371D01*
X-430127Y565369D01*
X-430155Y565362D01*
X-430327Y565353D01*
X-430499Y565340D01*
X-430528Y565343D01*
X-430557Y565342D01*
X-430728Y565368D01*
X-430899Y565389D01*
X-430926Y565398D01*
X-430955Y565402D01*
X-431117Y565461D01*
X-431281Y565515D01*
X-431306Y565530D01*
X-431333Y565539D01*
X-431481Y565629D01*
X-431631Y565715D01*
X-431653Y565734D01*
X-431677Y565749D01*
X-431804Y565866D01*
X-431934Y565979D01*
X-431952Y566002D01*
X-431973Y566022D01*
X-432075Y566161D01*
X-432180Y566298D01*
X-432195Y566327D01*
X-432209Y566348D01*
X-432245Y566425D01*
X-432331Y566593D01*
X-432441Y566858D01*
X-436442Y570859D01*
X-441670Y573025D01*
X-447330Y573025D01*
X-452558Y570859D01*
X-455764Y567653D01*
X-455777Y567642D01*
X-455789Y567628D01*
X-455933Y567514D01*
X-456075Y567398D01*
X-456091Y567390D01*
X-456105Y567379D01*
X-456269Y567295D01*
X-456431Y567209D01*
X-456448Y567204D01*
X-456464Y567196D01*
X-456641Y567147D01*
X-456817Y567095D01*
X-456835Y567093D01*
X-456852Y567088D01*
X-457035Y567075D01*
X-457218Y567058D01*
X-457236Y567060D01*
X-457253Y567059D01*
X-457435Y567082D01*
X-457618Y567102D01*
X-457635Y567107D01*
X-457653Y567109D01*
X-457826Y567168D01*
X-458002Y567223D01*
X-458018Y567232D01*
X-458034Y567238D01*
X-458194Y567329D01*
X-458354Y567418D01*
X-458368Y567429D01*
X-458383Y567438D01*
X-458636Y567653D01*
X-461842Y570859D01*
X-467070Y573025D01*
X-472730Y573025D01*
X-477958Y570859D01*
X-481164Y567653D01*
X-481177Y567642D01*
X-481189Y567628D01*
X-481333Y567514D01*
X-481475Y567398D01*
X-481491Y567390D01*
X-481505Y567379D01*
X-481669Y567295D01*
X-481831Y567209D01*
X-481848Y567204D01*
X-481864Y567196D01*
X-482041Y567147D01*
X-482217Y567095D01*
X-482235Y567093D01*
X-482252Y567088D01*
X-482435Y567075D01*
X-482618Y567058D01*
X-482636Y567060D01*
X-482653Y567059D01*
X-482835Y567082D01*
X-483018Y567102D01*
X-483035Y567107D01*
X-483053Y567109D01*
X-483226Y567168D01*
X-483402Y567223D01*
X-483418Y567232D01*
X-483434Y567238D01*
X-483594Y567329D01*
X-483754Y567418D01*
X-483768Y567429D01*
X-483783Y567438D01*
X-484036Y567653D01*
X-487242Y570859D01*
X-492470Y573025D01*
X-498130Y573025D01*
X-503358Y570859D01*
X-506564Y567653D01*
X-506577Y567642D01*
X-506589Y567628D01*
X-506733Y567514D01*
X-506875Y567398D01*
X-506891Y567390D01*
X-506905Y567379D01*
X-507069Y567295D01*
X-507231Y567209D01*
X-507248Y567204D01*
X-507264Y567196D01*
X-507441Y567147D01*
X-507617Y567095D01*
X-507635Y567093D01*
X-507652Y567088D01*
X-507835Y567075D01*
X-508018Y567058D01*
X-508036Y567060D01*
X-508053Y567059D01*
X-508235Y567082D01*
X-508418Y567102D01*
X-508435Y567107D01*
X-508453Y567109D01*
X-508626Y567168D01*
X-508802Y567223D01*
X-508818Y567232D01*
X-508834Y567238D01*
X-508994Y567329D01*
X-509154Y567418D01*
X-509168Y567429D01*
X-509183Y567438D01*
X-509436Y567653D01*
X-512642Y570859D01*
X-517870Y573025D01*
X-523530Y573025D01*
X-528758Y570859D01*
X-531964Y567653D01*
X-531977Y567642D01*
X-531989Y567628D01*
X-532133Y567514D01*
X-532275Y567398D01*
X-532291Y567390D01*
X-532305Y567379D01*
X-532469Y567295D01*
X-532631Y567209D01*
X-532648Y567204D01*
X-532664Y567196D01*
X-532841Y567147D01*
X-533017Y567095D01*
X-533035Y567093D01*
X-533052Y567088D01*
X-533235Y567075D01*
X-533418Y567058D01*
X-533436Y567060D01*
X-533453Y567059D01*
X-533635Y567082D01*
X-533818Y567102D01*
X-533835Y567107D01*
X-533853Y567109D01*
X-534026Y567168D01*
X-534202Y567223D01*
X-534218Y567232D01*
X-534234Y567238D01*
X-534394Y567329D01*
X-534554Y567418D01*
X-534568Y567429D01*
X-534583Y567438D01*
X-534836Y567653D01*
X-538042Y570859D01*
X-542056Y572521D01*
X-542067Y572528D01*
X-542080Y572532D01*
X-542244Y572623D01*
X-542410Y572712D01*
X-542421Y572720D01*
X-542432Y572727D01*
X-542575Y572848D01*
X-542721Y572968D01*
X-542729Y572978D01*
X-542739Y572987D01*
X-542856Y573135D01*
X-542975Y573281D01*
X-542981Y573293D01*
X-542989Y573303D01*
X-543075Y573471D01*
X-543162Y573637D01*
X-543165Y573650D01*
X-543171Y573662D01*
X-543222Y573844D01*
X-543275Y574024D01*
X-543276Y574037D01*
X-543279Y574050D01*
X-543293Y574238D01*
X-543309Y574425D01*
X-543308Y574438D01*
X-543309Y574451D01*
X-543285Y574640D01*
X-543264Y574825D01*
X-543260Y574837D01*
X-543258Y574851D01*
X-543199Y575028D01*
X-543141Y575208D01*
X-543134Y575220D01*
X-543130Y575233D01*
X-543036Y575396D01*
X-542945Y575560D01*
X-542936Y575570D01*
X-542929Y575581D01*
X-542715Y575834D01*
X-511323Y607226D01*
X-511302Y607243D01*
X-511284Y607264D01*
X-511147Y607371D01*
X-511011Y607481D01*
X-510988Y607494D01*
X-510966Y607510D01*
X-510809Y607588D01*
X-510655Y607670D01*
X-510630Y607678D01*
X-510606Y607690D01*
X-510436Y607735D01*
X-510270Y607785D01*
X-510243Y607787D01*
X-510217Y607794D01*
X-509886Y607821D01*
X-320799Y607821D01*
X-320791Y607820D01*
X-320782Y607821D01*
X-320588Y607800D01*
X-320399Y607781D01*
X-320390Y607779D01*
X-320381Y607778D01*
X-320197Y607719D01*
X-320014Y607663D01*
X-320006Y607659D01*
X-319998Y607656D01*
X-319829Y607563D01*
X-319660Y607471D01*
X-319653Y607466D01*
X-319645Y607461D01*
X-319498Y607337D01*
X-319351Y607214D01*
X-319345Y607207D01*
X-319338Y607201D01*
X-319218Y607049D01*
X-319098Y606900D01*
X-319094Y606892D01*
X-319089Y606885D01*
X-319001Y606712D01*
X-318913Y606543D01*
X-318910Y606534D01*
X-318906Y606526D01*
X-318854Y606340D01*
X-318801Y606156D01*
X-318801Y606147D01*
X-318798Y606138D01*
X-318784Y605945D01*
X-318769Y605754D01*
X-318770Y605746D01*
X-318769Y605737D01*
X-318793Y605544D01*
X-318815Y605355D01*
X-318818Y605346D01*
X-318819Y605337D01*
X-318881Y605155D01*
X-318940Y604972D01*
X-318945Y604964D01*
X-318948Y604956D01*
X-319044Y604789D01*
X-319138Y604621D01*
X-319144Y604614D01*
X-319148Y604607D01*
X-319363Y604354D01*
X-347659Y576058D01*
X-349946Y573771D01*
X-351029Y571157D01*
X-351029Y564486D01*
X-351029Y564482D01*
X-351029Y564477D01*
X-351049Y564283D01*
X-351069Y564086D01*
X-351070Y564081D01*
X-351070Y564077D01*
X-351129Y563889D01*
X-351187Y563701D01*
X-351189Y563697D01*
X-351190Y563692D01*
X-351287Y563516D01*
X-351379Y563347D01*
X-351381Y563343D01*
X-351384Y563339D01*
X-351512Y563186D01*
X-351636Y563037D01*
X-351640Y563035D01*
X-351643Y563031D01*
X-351799Y562906D01*
X-351950Y562785D01*
X-351954Y562783D01*
X-351957Y562780D01*
X-352138Y562688D01*
X-352307Y562600D01*
X-352312Y562598D01*
X-352316Y562596D01*
X-352506Y562542D01*
X-352694Y562488D01*
X-352699Y562488D01*
X-352703Y562487D01*
X-352896Y562472D01*
X-353096Y562455D01*
X-353100Y562456D01*
X-353104Y562455D01*
X-353298Y562479D01*
X-353495Y562502D01*
X-353500Y562504D01*
X-353504Y562504D01*
X-353689Y562565D01*
X-353878Y562627D01*
X-353882Y562629D01*
X-353886Y562631D01*
X-354055Y562727D01*
X-354229Y562825D01*
X-354232Y562828D01*
X-354236Y562830D01*
X-354385Y562960D01*
X-354533Y563088D01*
X-354536Y563092D01*
X-354540Y563095D01*
X-354662Y563253D01*
X-354780Y563406D01*
X-354782Y563410D01*
X-354785Y563414D01*
X-354937Y563709D01*
X-356241Y566858D01*
X-360242Y570859D01*
X-365470Y573025D01*
X-371130Y573025D01*
X-376358Y570859D01*
X-380359Y566858D01*
X-380469Y566593D01*
X-380550Y566441D01*
X-380627Y566287D01*
X-380645Y566264D01*
X-380659Y566239D01*
X-380769Y566106D01*
X-380875Y565969D01*
X-380897Y565950D01*
X-380915Y565928D01*
X-381049Y565819D01*
X-381180Y565707D01*
X-381205Y565693D01*
X-381228Y565674D01*
X-381381Y565594D01*
X-381531Y565510D01*
X-381559Y565501D01*
X-381584Y565487D01*
X-381750Y565439D01*
X-381914Y565386D01*
X-381943Y565382D01*
X-381971Y565374D01*
X-382143Y565360D01*
X-382314Y565340D01*
X-382343Y565342D01*
X-382372Y565340D01*
X-382543Y565359D01*
X-382716Y565374D01*
X-382743Y565382D01*
X-382772Y565385D01*
X-382936Y565438D01*
X-383102Y565486D01*
X-383128Y565499D01*
X-383155Y565508D01*
X-383306Y565592D01*
X-383459Y565672D01*
X-383482Y565690D01*
X-383507Y565704D01*
X-383638Y565817D01*
X-383772Y565925D01*
X-383793Y565950D01*
X-383813Y565966D01*
X-383865Y566033D01*
X-383989Y566177D01*
X-384400Y566743D01*
X-385757Y568100D01*
X-387310Y569228D01*
X-389020Y570099D01*
X-390845Y570692D01*
X-391201Y570749D01*
X-391201Y559268D01*
X-391202Y559250D01*
X-391201Y559233D01*
X-391222Y559050D01*
X-391241Y558868D01*
X-391246Y558851D01*
X-391248Y558833D01*
X-391261Y558792D01*
X-391234Y558698D01*
X-391232Y558680D01*
X-391228Y558663D01*
X-391201Y558332D01*
X-391201Y546851D01*
X-390845Y546908D01*
X-389020Y547501D01*
X-387310Y548372D01*
X-385757Y549500D01*
X-384400Y550857D01*
X-383989Y551423D01*
X-383874Y551552D01*
X-383763Y551684D01*
X-383740Y551702D01*
X-383721Y551724D01*
X-383583Y551828D01*
X-383448Y551935D01*
X-383422Y551948D01*
X-383399Y551966D01*
X-383244Y552040D01*
X-383090Y552119D01*
X-383062Y552127D01*
X-383036Y552139D01*
X-382869Y552182D01*
X-382702Y552229D01*
X-382673Y552231D01*
X-382645Y552238D01*
X-382473Y552247D01*
X-382301Y552260D01*
X-382272Y552257D01*
X-382243Y552258D01*
X-382072Y552232D01*
X-381901Y552211D01*
X-381874Y552202D01*
X-381845Y552198D01*
X-381683Y552139D01*
X-381519Y552085D01*
X-381494Y552070D01*
X-381467Y552061D01*
X-381319Y551971D01*
X-381169Y551885D01*
X-381147Y551866D01*
X-381123Y551851D01*
X-380996Y551734D01*
X-380866Y551621D01*
X-380848Y551598D01*
X-380827Y551578D01*
X-380725Y551439D01*
X-380620Y551302D01*
X-380605Y551273D01*
X-380591Y551252D01*
X-380555Y551175D01*
X-380469Y551007D01*
X-380359Y550742D01*
X-376358Y546741D01*
X-371496Y544727D01*
X-371130Y544575D01*
X-365470Y544575D01*
X-360242Y546741D01*
X-356241Y550742D01*
X-354937Y553891D01*
X-354935Y553895D01*
X-354933Y553899D01*
X-354840Y554072D01*
X-354746Y554246D01*
X-354744Y554249D01*
X-354741Y554253D01*
X-354617Y554402D01*
X-354490Y554556D01*
X-354487Y554559D01*
X-354484Y554563D01*
X-354331Y554685D01*
X-354177Y554810D01*
X-354173Y554812D01*
X-354170Y554815D01*
X-353997Y554905D01*
X-353821Y554997D01*
X-353817Y554998D01*
X-353813Y555000D01*
X-353624Y555055D01*
X-353434Y555110D01*
X-353430Y555111D01*
X-353426Y555112D01*
X-353228Y555128D01*
X-353033Y555145D01*
X-353029Y555144D01*
X-353024Y555145D01*
X-352830Y555122D01*
X-352633Y555100D01*
X-352629Y555098D01*
X-352625Y555098D01*
X-352439Y555037D01*
X-352250Y554977D01*
X-352246Y554974D01*
X-352242Y554973D01*
X-352070Y554876D01*
X-351898Y554780D01*
X-351895Y554777D01*
X-351891Y554775D01*
X-351743Y554647D01*
X-351593Y554518D01*
X-351590Y554515D01*
X-351586Y554512D01*
X-351466Y554357D01*
X-351344Y554201D01*
X-351342Y554197D01*
X-351340Y554194D01*
X-351251Y554016D01*
X-351164Y553842D01*
X-351162Y553837D01*
X-351160Y553833D01*
X-351109Y553641D01*
X-351057Y553453D01*
X-351057Y553449D01*
X-351056Y553444D01*
X-351029Y553114D01*
X-351029Y495024D01*
X-351030Y495015D01*
X-351029Y495006D01*
X-351050Y494812D01*
X-351069Y494623D01*
X-351071Y494614D01*
X-351072Y494605D01*
X-351131Y494421D01*
X-351187Y494238D01*
X-351191Y494230D01*
X-351194Y494222D01*
X-351287Y494053D01*
X-351379Y493884D01*
X-351384Y493877D01*
X-351389Y493869D01*
X-351513Y493722D01*
X-351636Y493575D01*
X-351643Y493569D01*
X-351649Y493562D01*
X-351801Y493443D01*
X-351950Y493322D01*
X-351958Y493318D01*
X-351965Y493313D01*
X-352138Y493225D01*
X-352307Y493137D01*
X-352316Y493134D01*
X-352324Y493130D01*
X-352510Y493078D01*
X-352694Y493025D01*
X-352703Y493025D01*
X-352712Y493022D01*
X-352905Y493008D01*
X-353096Y492993D01*
X-353104Y492994D01*
G37*
%LPC*%
G36*
X-416301Y151027D02*
X-416301Y151027D01*
X-411128Y153170D01*
X-407170Y157128D01*
X-405027Y162301D01*
X-405027Y167899D01*
X-407170Y173072D01*
X-411128Y177030D01*
X-416301Y179173D01*
X-422272Y179173D01*
X-422299Y179175D01*
X-422326Y179173D01*
X-422500Y179195D01*
X-422673Y179213D01*
X-422699Y179220D01*
X-422725Y179224D01*
X-422891Y179279D01*
X-423058Y179331D01*
X-423082Y179344D01*
X-423107Y179352D01*
X-423259Y179439D01*
X-423412Y179523D01*
X-423432Y179540D01*
X-423456Y179553D01*
X-423709Y179768D01*
X-538392Y294451D01*
X-538409Y294472D01*
X-538430Y294489D01*
X-538537Y294627D01*
X-538647Y294763D01*
X-538660Y294786D01*
X-538676Y294808D01*
X-538754Y294964D01*
X-538836Y295118D01*
X-538844Y295144D01*
X-538856Y295168D01*
X-538901Y295337D01*
X-538951Y295504D01*
X-538953Y295531D01*
X-538960Y295557D01*
X-538987Y295888D01*
X-538987Y453412D01*
X-538985Y453439D01*
X-538987Y453466D01*
X-538965Y453640D01*
X-538947Y453813D01*
X-538940Y453839D01*
X-538936Y453865D01*
X-538881Y454031D01*
X-538829Y454198D01*
X-538816Y454222D01*
X-538808Y454247D01*
X-538721Y454399D01*
X-538637Y454552D01*
X-538620Y454572D01*
X-538607Y454596D01*
X-538392Y454849D01*
X-531994Y461248D01*
X-531980Y461259D01*
X-531968Y461272D01*
X-531824Y461386D01*
X-531682Y461503D01*
X-531666Y461511D01*
X-531652Y461522D01*
X-531488Y461605D01*
X-531326Y461691D01*
X-531309Y461696D01*
X-531293Y461704D01*
X-531116Y461754D01*
X-530940Y461806D01*
X-530923Y461808D01*
X-530905Y461812D01*
X-530722Y461826D01*
X-530539Y461842D01*
X-530522Y461840D01*
X-530504Y461842D01*
X-530322Y461819D01*
X-530139Y461799D01*
X-530122Y461794D01*
X-530104Y461791D01*
X-529931Y461733D01*
X-529755Y461677D01*
X-529740Y461669D01*
X-529723Y461663D01*
X-529564Y461572D01*
X-529403Y461483D01*
X-529389Y461471D01*
X-529374Y461462D01*
X-529121Y461248D01*
X-527539Y459665D01*
X-523385Y457945D01*
X-523307Y457903D01*
X-523225Y457870D01*
X-523130Y457808D01*
X-523030Y457755D01*
X-522962Y457698D01*
X-522888Y457649D01*
X-522807Y457570D01*
X-522720Y457498D01*
X-522664Y457429D01*
X-522601Y457367D01*
X-522537Y457273D01*
X-522466Y457186D01*
X-522425Y457107D01*
X-522375Y457033D01*
X-522332Y456929D01*
X-522279Y456829D01*
X-522254Y456744D01*
X-522220Y456662D01*
X-522198Y456551D01*
X-522166Y456443D01*
X-522158Y456354D01*
X-522141Y456267D01*
X-522141Y456154D01*
X-522131Y456042D01*
X-522141Y455953D01*
X-522142Y455865D01*
X-522164Y455754D01*
X-522177Y455641D01*
X-522204Y455557D01*
X-522221Y455470D01*
X-522265Y455366D01*
X-522300Y455258D01*
X-522343Y455181D01*
X-522378Y455099D01*
X-522441Y455005D01*
X-522496Y454907D01*
X-522554Y454839D01*
X-522604Y454766D01*
X-522684Y454687D01*
X-522758Y454601D01*
X-522828Y454546D01*
X-522891Y454484D01*
X-522986Y454422D01*
X-523075Y454353D01*
X-523154Y454313D01*
X-523229Y454264D01*
X-523359Y454210D01*
X-523435Y454172D01*
X-523479Y454160D01*
X-523535Y454136D01*
X-524554Y453805D01*
X-525962Y453088D01*
X-527241Y452159D01*
X-528359Y451041D01*
X-529288Y449762D01*
X-530005Y448354D01*
X-530493Y446851D01*
X-530544Y446531D01*
X-520700Y446531D01*
X-495856Y446531D01*
X-495907Y446851D01*
X-496395Y448354D01*
X-497112Y449762D01*
X-498041Y451041D01*
X-499159Y452159D01*
X-500438Y453088D01*
X-501846Y453805D01*
X-502865Y454136D01*
X-502946Y454172D01*
X-503031Y454198D01*
X-503130Y454253D01*
X-503234Y454298D01*
X-503306Y454349D01*
X-503384Y454392D01*
X-503471Y454464D01*
X-503563Y454529D01*
X-503625Y454594D01*
X-503693Y454651D01*
X-503763Y454739D01*
X-503841Y454821D01*
X-503888Y454896D01*
X-503943Y454966D01*
X-503995Y455066D01*
X-504055Y455162D01*
X-504087Y455245D01*
X-504127Y455324D01*
X-504158Y455433D01*
X-504198Y455538D01*
X-504213Y455626D01*
X-504237Y455711D01*
X-504246Y455824D01*
X-504264Y455935D01*
X-504261Y456024D01*
X-504268Y456113D01*
X-504255Y456225D01*
X-504251Y456338D01*
X-504230Y456424D01*
X-504220Y456512D01*
X-504184Y456620D01*
X-504158Y456730D01*
X-504121Y456810D01*
X-504093Y456894D01*
X-504037Y456993D01*
X-503990Y457095D01*
X-503938Y457167D01*
X-503894Y457244D01*
X-503819Y457329D01*
X-503753Y457421D01*
X-503688Y457481D01*
X-503629Y457548D01*
X-503539Y457617D01*
X-503456Y457693D01*
X-503380Y457739D01*
X-503310Y457793D01*
X-503184Y457858D01*
X-503112Y457902D01*
X-503069Y457917D01*
X-503015Y457945D01*
X-498861Y459665D01*
X-495465Y463061D01*
X-493627Y467499D01*
X-493627Y472301D01*
X-495465Y476739D01*
X-498861Y480135D01*
X-503299Y481973D01*
X-523101Y481973D01*
X-527539Y480135D01*
X-530066Y477608D01*
X-530086Y477591D01*
X-530104Y477570D01*
X-530242Y477463D01*
X-530377Y477353D01*
X-530401Y477340D01*
X-530422Y477324D01*
X-530579Y477246D01*
X-530733Y477164D01*
X-530759Y477156D01*
X-530783Y477144D01*
X-530952Y477099D01*
X-531119Y477049D01*
X-531145Y477047D01*
X-531171Y477040D01*
X-531502Y477013D01*
X-534815Y477013D01*
X-537429Y475930D01*
X-552130Y461229D01*
X-553213Y458615D01*
X-553213Y290685D01*
X-552130Y288071D01*
X-433768Y169709D01*
X-433751Y169688D01*
X-433730Y169671D01*
X-433623Y169533D01*
X-433513Y169397D01*
X-433500Y169374D01*
X-433484Y169352D01*
X-433406Y169196D01*
X-433324Y169042D01*
X-433316Y169016D01*
X-433304Y168992D01*
X-433259Y168823D01*
X-433209Y168656D01*
X-433207Y168629D01*
X-433200Y168603D01*
X-433173Y168272D01*
X-433173Y162301D01*
X-431030Y157128D01*
X-427072Y153170D01*
X-421899Y151027D01*
X-416301Y151027D01*
G37*
%LPD*%
%LPC*%
G36*
X-583910Y61975D02*
X-583910Y61975D01*
X-578682Y64141D01*
X-574681Y68142D01*
X-574571Y68407D01*
X-574490Y68559D01*
X-574413Y68713D01*
X-574395Y68736D01*
X-574381Y68761D01*
X-574271Y68894D01*
X-574165Y69031D01*
X-574143Y69050D01*
X-574125Y69072D01*
X-573991Y69181D01*
X-573860Y69293D01*
X-573835Y69307D01*
X-573812Y69326D01*
X-573659Y69406D01*
X-573509Y69490D01*
X-573481Y69499D01*
X-573456Y69513D01*
X-573290Y69561D01*
X-573126Y69614D01*
X-573097Y69618D01*
X-573069Y69626D01*
X-572897Y69640D01*
X-572726Y69660D01*
X-572697Y69658D01*
X-572668Y69660D01*
X-572497Y69641D01*
X-572324Y69626D01*
X-572297Y69618D01*
X-572268Y69615D01*
X-572104Y69562D01*
X-571938Y69514D01*
X-571912Y69501D01*
X-571885Y69492D01*
X-571734Y69408D01*
X-571581Y69328D01*
X-571558Y69310D01*
X-571533Y69296D01*
X-571402Y69183D01*
X-571268Y69075D01*
X-571247Y69050D01*
X-571227Y69034D01*
X-571175Y68967D01*
X-571051Y68823D01*
X-570640Y68257D01*
X-569283Y66900D01*
X-567730Y65772D01*
X-566020Y64901D01*
X-564195Y64308D01*
X-563839Y64251D01*
X-563839Y75732D01*
X-563837Y75750D01*
X-563839Y75767D01*
X-563818Y75949D01*
X-563799Y76132D01*
X-563794Y76149D01*
X-563792Y76167D01*
X-563779Y76208D01*
X-563806Y76302D01*
X-563808Y76320D01*
X-563812Y76337D01*
X-563839Y76668D01*
X-563839Y88149D01*
X-564195Y88092D01*
X-566020Y87499D01*
X-567730Y86628D01*
X-569283Y85500D01*
X-570640Y84143D01*
X-571051Y83577D01*
X-571166Y83448D01*
X-571277Y83316D01*
X-571300Y83298D01*
X-571319Y83276D01*
X-571457Y83172D01*
X-571592Y83065D01*
X-571618Y83052D01*
X-571641Y83034D01*
X-571796Y82960D01*
X-571950Y82881D01*
X-571978Y82873D01*
X-572004Y82861D01*
X-572171Y82818D01*
X-572338Y82771D01*
X-572367Y82769D01*
X-572395Y82762D01*
X-572567Y82753D01*
X-572739Y82740D01*
X-572768Y82743D01*
X-572797Y82742D01*
X-572968Y82768D01*
X-573139Y82789D01*
X-573166Y82798D01*
X-573195Y82802D01*
X-573357Y82861D01*
X-573521Y82915D01*
X-573546Y82930D01*
X-573573Y82939D01*
X-573721Y83029D01*
X-573871Y83115D01*
X-573893Y83134D01*
X-573917Y83149D01*
X-574044Y83266D01*
X-574174Y83379D01*
X-574192Y83402D01*
X-574213Y83422D01*
X-574315Y83561D01*
X-574420Y83698D01*
X-574435Y83727D01*
X-574449Y83748D01*
X-574485Y83825D01*
X-574571Y83993D01*
X-574681Y84258D01*
X-578682Y88259D01*
X-583910Y90425D01*
X-589570Y90425D01*
X-594798Y88259D01*
X-598004Y85053D01*
X-598018Y85042D01*
X-598029Y85028D01*
X-598173Y84915D01*
X-598315Y84798D01*
X-598331Y84790D01*
X-598345Y84779D01*
X-598509Y84695D01*
X-598671Y84609D01*
X-598688Y84604D01*
X-598704Y84596D01*
X-598881Y84547D01*
X-599057Y84495D01*
X-599075Y84493D01*
X-599092Y84488D01*
X-599275Y84475D01*
X-599458Y84458D01*
X-599476Y84460D01*
X-599493Y84459D01*
X-599675Y84482D01*
X-599858Y84502D01*
X-599875Y84507D01*
X-599893Y84509D01*
X-600067Y84568D01*
X-600242Y84623D01*
X-600258Y84632D01*
X-600274Y84638D01*
X-600434Y84729D01*
X-600594Y84818D01*
X-600608Y84829D01*
X-600623Y84838D01*
X-600876Y85053D01*
X-604082Y88259D01*
X-609310Y90425D01*
X-614970Y90425D01*
X-620198Y88259D01*
X-623404Y85053D01*
X-623417Y85042D01*
X-623429Y85028D01*
X-623573Y84914D01*
X-623715Y84798D01*
X-623731Y84790D01*
X-623745Y84779D01*
X-623909Y84695D01*
X-624071Y84609D01*
X-624088Y84604D01*
X-624104Y84596D01*
X-624281Y84547D01*
X-624457Y84495D01*
X-624475Y84493D01*
X-624492Y84488D01*
X-624675Y84475D01*
X-624858Y84458D01*
X-624876Y84460D01*
X-624893Y84459D01*
X-625075Y84482D01*
X-625258Y84502D01*
X-625275Y84507D01*
X-625293Y84509D01*
X-625466Y84568D01*
X-625642Y84623D01*
X-625658Y84632D01*
X-625674Y84638D01*
X-625834Y84729D01*
X-625994Y84818D01*
X-626008Y84829D01*
X-626023Y84838D01*
X-626276Y85053D01*
X-629482Y88259D01*
X-634710Y90425D01*
X-640370Y90425D01*
X-645598Y88259D01*
X-649599Y84258D01*
X-651765Y79030D01*
X-651765Y73370D01*
X-649599Y68142D01*
X-645598Y64141D01*
X-640370Y61975D01*
X-634710Y61975D01*
X-629482Y64141D01*
X-626276Y67347D01*
X-626262Y67358D01*
X-626251Y67372D01*
X-626107Y67485D01*
X-625965Y67602D01*
X-625949Y67610D01*
X-625935Y67621D01*
X-625771Y67705D01*
X-625609Y67791D01*
X-625592Y67796D01*
X-625576Y67804D01*
X-625399Y67853D01*
X-625223Y67905D01*
X-625205Y67907D01*
X-625188Y67912D01*
X-625005Y67925D01*
X-624822Y67942D01*
X-624804Y67940D01*
X-624787Y67941D01*
X-624605Y67918D01*
X-624422Y67898D01*
X-624405Y67893D01*
X-624387Y67891D01*
X-624213Y67832D01*
X-624038Y67777D01*
X-624022Y67768D01*
X-624006Y67762D01*
X-623846Y67671D01*
X-623686Y67582D01*
X-623672Y67571D01*
X-623657Y67562D01*
X-623404Y67347D01*
X-620198Y64141D01*
X-614970Y61975D01*
X-609310Y61975D01*
X-604082Y64141D01*
X-600876Y67347D01*
X-600863Y67358D01*
X-600851Y67372D01*
X-600707Y67486D01*
X-600565Y67602D01*
X-600549Y67610D01*
X-600535Y67621D01*
X-600371Y67705D01*
X-600209Y67791D01*
X-600192Y67796D01*
X-600176Y67804D01*
X-599999Y67853D01*
X-599823Y67905D01*
X-599805Y67907D01*
X-599788Y67912D01*
X-599605Y67925D01*
X-599422Y67942D01*
X-599404Y67940D01*
X-599387Y67941D01*
X-599205Y67918D01*
X-599022Y67898D01*
X-599005Y67893D01*
X-598987Y67891D01*
X-598814Y67832D01*
X-598638Y67777D01*
X-598622Y67768D01*
X-598606Y67762D01*
X-598446Y67671D01*
X-598286Y67582D01*
X-598272Y67571D01*
X-598257Y67562D01*
X-598004Y67347D01*
X-594798Y64141D01*
X-589570Y61975D01*
X-583910Y61975D01*
G37*
%LPD*%
%LPC*%
G36*
X-54668Y605558D02*
X-54668Y605558D01*
X-52932Y606946D01*
X-51859Y608894D01*
X-51768Y609711D01*
X-51746Y609816D01*
X-51734Y609923D01*
X-51704Y610012D01*
X-51685Y610105D01*
X-51642Y610203D01*
X-51609Y610305D01*
X-51562Y610388D01*
X-51525Y610475D01*
X-51464Y610563D01*
X-51411Y610656D01*
X-51349Y610727D01*
X-51295Y610805D01*
X-51218Y610880D01*
X-51148Y610961D01*
X-51073Y611019D01*
X-51005Y611084D01*
X-50914Y611142D01*
X-50830Y611207D01*
X-50745Y611250D01*
X-50665Y611300D01*
X-50565Y611339D01*
X-50469Y611387D01*
X-50378Y611411D01*
X-50289Y611445D01*
X-50184Y611463D01*
X-50080Y611491D01*
X-49967Y611501D01*
X-49892Y611513D01*
X-49832Y611512D01*
X-49750Y611518D01*
X-46736Y611518D01*
X-46718Y611517D01*
X-46700Y611518D01*
X-46518Y611497D01*
X-46335Y611478D01*
X-46318Y611473D01*
X-46301Y611471D01*
X-46126Y611414D01*
X-45950Y611360D01*
X-45935Y611352D01*
X-45918Y611346D01*
X-45758Y611256D01*
X-45596Y611169D01*
X-45583Y611157D01*
X-45567Y611148D01*
X-45428Y611028D01*
X-45287Y610911D01*
X-45276Y610897D01*
X-45262Y610885D01*
X-45150Y610740D01*
X-45035Y610597D01*
X-45027Y610581D01*
X-45016Y610567D01*
X-44934Y610402D01*
X-44849Y610240D01*
X-44844Y610223D01*
X-44836Y610207D01*
X-44789Y610029D01*
X-44738Y609853D01*
X-44736Y609835D01*
X-44732Y609818D01*
X-44706Y609509D01*
X-43854Y607450D01*
X-42282Y605878D01*
X-40228Y605027D01*
X-38004Y605027D01*
X-35950Y605878D01*
X-34378Y607450D01*
X-33527Y609504D01*
X-33527Y624710D01*
X-34293Y626558D01*
X-34301Y626584D01*
X-34313Y626608D01*
X-34359Y626776D01*
X-34409Y626944D01*
X-34412Y626970D01*
X-34419Y626996D01*
X-34431Y627171D01*
X-34448Y627345D01*
X-34445Y627371D01*
X-34447Y627398D01*
X-34424Y627572D01*
X-34406Y627745D01*
X-34398Y627771D01*
X-34394Y627797D01*
X-34293Y628113D01*
X-33527Y629961D01*
X-33527Y633483D01*
X-34378Y635537D01*
X-35723Y636882D01*
X-35761Y636929D01*
X-35805Y636969D01*
X-35888Y637084D01*
X-35978Y637194D01*
X-36006Y637247D01*
X-36042Y637295D01*
X-36100Y637424D01*
X-36167Y637549D01*
X-36184Y637607D01*
X-36209Y637662D01*
X-36241Y637799D01*
X-36282Y637935D01*
X-36287Y637995D01*
X-36301Y638054D01*
X-36305Y638195D01*
X-36318Y638336D01*
X-36311Y638396D01*
X-36313Y638456D01*
X-36290Y638595D01*
X-36275Y638736D01*
X-36256Y638794D01*
X-36246Y638853D01*
X-36196Y638985D01*
X-36153Y639120D01*
X-36124Y639173D01*
X-36102Y639229D01*
X-36027Y639349D01*
X-35958Y639473D01*
X-35945Y639488D01*
X-35943Y639492D01*
X-35917Y639522D01*
X-35887Y639569D01*
X-35751Y639717D01*
X-35698Y639780D01*
X-35688Y639788D01*
X-35680Y639796D01*
X-35672Y639803D01*
X-35662Y639813D01*
X-35279Y640166D01*
X-33527Y644158D01*
X-33527Y648517D01*
X-35279Y652509D01*
X-38487Y655461D01*
X-40104Y656015D01*
X-40183Y656051D01*
X-40335Y656111D01*
X-42456Y657145D01*
X-47970Y658417D01*
X-53630Y658417D01*
X-59144Y657145D01*
X-61265Y656111D01*
X-61347Y656081D01*
X-61496Y656015D01*
X-63113Y655461D01*
X-66321Y652509D01*
X-68073Y648517D01*
X-68073Y644158D01*
X-66321Y640166D01*
X-63113Y637214D01*
X-61496Y636659D01*
X-61416Y636623D01*
X-61265Y636564D01*
X-59144Y635530D01*
X-53630Y634258D01*
X-48034Y634258D01*
X-48016Y634256D01*
X-47999Y634257D01*
X-47816Y634236D01*
X-47634Y634218D01*
X-47617Y634212D01*
X-47599Y634210D01*
X-47424Y634153D01*
X-47249Y634099D01*
X-47233Y634091D01*
X-47216Y634085D01*
X-47056Y633995D01*
X-46895Y633908D01*
X-46881Y633896D01*
X-46865Y633888D01*
X-46726Y633767D01*
X-46585Y633650D01*
X-46574Y633636D01*
X-46561Y633624D01*
X-46448Y633479D01*
X-46333Y633336D01*
X-46325Y633320D01*
X-46314Y633306D01*
X-46232Y633141D01*
X-46148Y632979D01*
X-46143Y632962D01*
X-46135Y632946D01*
X-46087Y632768D01*
X-46036Y632592D01*
X-46035Y632574D01*
X-46030Y632557D01*
X-46003Y632226D01*
X-46003Y629961D01*
X-45152Y627907D01*
X-44859Y627614D01*
X-44845Y627597D01*
X-44828Y627582D01*
X-44717Y627441D01*
X-44604Y627303D01*
X-44593Y627283D01*
X-44580Y627265D01*
X-44499Y627105D01*
X-44415Y626947D01*
X-44409Y626926D01*
X-44399Y626906D01*
X-44352Y626733D01*
X-44300Y626561D01*
X-44298Y626539D01*
X-44293Y626517D01*
X-44280Y626340D01*
X-44264Y626160D01*
X-44267Y626138D01*
X-44265Y626116D01*
X-44288Y625939D01*
X-44307Y625760D01*
X-44314Y625738D01*
X-44317Y625716D01*
X-44419Y625401D01*
X-44706Y624706D01*
X-44705Y624692D01*
X-44726Y624509D01*
X-44745Y624326D01*
X-44750Y624309D01*
X-44752Y624292D01*
X-44809Y624117D01*
X-44863Y623942D01*
X-44871Y623926D01*
X-44877Y623909D01*
X-44967Y623749D01*
X-45055Y623588D01*
X-45066Y623574D01*
X-45075Y623558D01*
X-45195Y623419D01*
X-45312Y623278D01*
X-45326Y623267D01*
X-45338Y623254D01*
X-45483Y623141D01*
X-45626Y623026D01*
X-45642Y623018D01*
X-45656Y623007D01*
X-45821Y622925D01*
X-45983Y622840D01*
X-46000Y622836D01*
X-46016Y622828D01*
X-46195Y622780D01*
X-46370Y622729D01*
X-46388Y622728D01*
X-46405Y622723D01*
X-46736Y622696D01*
X-62062Y622696D01*
X-62146Y622704D01*
X-62286Y622708D01*
X-62972Y622784D01*
X-63000Y622776D01*
X-63119Y622754D01*
X-63235Y622723D01*
X-63330Y622715D01*
X-63396Y622703D01*
X-63466Y622704D01*
X-63566Y622696D01*
X-63596Y622696D01*
X-64233Y622432D01*
X-64314Y622407D01*
X-64445Y622358D01*
X-65107Y622166D01*
X-65130Y622147D01*
X-65231Y622081D01*
X-65327Y622008D01*
X-65412Y621964D01*
X-65468Y621928D01*
X-65533Y621902D01*
X-65622Y621856D01*
X-65650Y621845D01*
X-66138Y621357D01*
X-66203Y621304D01*
X-66305Y621207D01*
X-66843Y620777D01*
X-66858Y620751D01*
X-66926Y620651D01*
X-66986Y620547D01*
X-67048Y620474D01*
X-67086Y620419D01*
X-67136Y620370D01*
X-67201Y620294D01*
X-67222Y620273D01*
X-67486Y619636D01*
X-67526Y619561D01*
X-67583Y619433D01*
X-67916Y618829D01*
X-67919Y618799D01*
X-67944Y618682D01*
X-67960Y618562D01*
X-67989Y618471D01*
X-68003Y618406D01*
X-68031Y618342D01*
X-68061Y618246D01*
X-68073Y618219D01*
X-68073Y617529D01*
X-68081Y617445D01*
X-68085Y617305D01*
X-68161Y616619D01*
X-68153Y616591D01*
X-68131Y616472D01*
X-68100Y616356D01*
X-68092Y616261D01*
X-68080Y616195D01*
X-68081Y616125D01*
X-68073Y616025D01*
X-68073Y615995D01*
X-67809Y615358D01*
X-67784Y615277D01*
X-67734Y615146D01*
X-67543Y614484D01*
X-67524Y614461D01*
X-67458Y614359D01*
X-67385Y614264D01*
X-67341Y614179D01*
X-67305Y614123D01*
X-67279Y614058D01*
X-67233Y613969D01*
X-67222Y613941D01*
X-66734Y613454D01*
X-66681Y613388D01*
X-66584Y613286D01*
X-60961Y606257D01*
X-59013Y605184D01*
X-56803Y604939D01*
X-54668Y605558D01*
G37*
%LPD*%
%LPC*%
G36*
X-105663Y86359D02*
X-105663Y86359D01*
X-105663Y109956D01*
X-106288Y109885D01*
X-109347Y109187D01*
X-112309Y108151D01*
X-115137Y106789D01*
X-117794Y105119D01*
X-120248Y103163D01*
X-122467Y100944D01*
X-124423Y98490D01*
X-126093Y95833D01*
X-127455Y93005D01*
X-128491Y90043D01*
X-129189Y86984D01*
X-129260Y86359D01*
X-105663Y86359D01*
G37*
%LPD*%
%LPC*%
G36*
X-73940Y86359D02*
X-73940Y86359D01*
X-74011Y86984D01*
X-74709Y90043D01*
X-75745Y93005D01*
X-77107Y95833D01*
X-78777Y98490D01*
X-80733Y100944D01*
X-82952Y103163D01*
X-85406Y105119D01*
X-88063Y106789D01*
X-90891Y108151D01*
X-93853Y109187D01*
X-96912Y109885D01*
X-97537Y109956D01*
X-97537Y86359D01*
X-73940Y86359D01*
G37*
%LPD*%
%LPC*%
G36*
X-73940Y556767D02*
X-73940Y556767D01*
X-74011Y557392D01*
X-74709Y560451D01*
X-75745Y563413D01*
X-77107Y566241D01*
X-78777Y568898D01*
X-80733Y571352D01*
X-82952Y573571D01*
X-85406Y575527D01*
X-88063Y577197D01*
X-90891Y578559D01*
X-93853Y579595D01*
X-96912Y580293D01*
X-97537Y580364D01*
X-97537Y556767D01*
X-73940Y556767D01*
G37*
%LPD*%
%LPC*%
G36*
X-105663Y78233D02*
X-105663Y78233D01*
X-129260Y78233D01*
X-129189Y77608D01*
X-128491Y74549D01*
X-127455Y71587D01*
X-126093Y68759D01*
X-124423Y66102D01*
X-122467Y63648D01*
X-120248Y61429D01*
X-117794Y59473D01*
X-115137Y57803D01*
X-112309Y56441D01*
X-109347Y55405D01*
X-106288Y54707D01*
X-105663Y54636D01*
X-105663Y78233D01*
G37*
%LPD*%
%LPC*%
G36*
X-96912Y54707D02*
X-96912Y54707D01*
X-93853Y55405D01*
X-90891Y56441D01*
X-88063Y57803D01*
X-85406Y59473D01*
X-82952Y61429D01*
X-80733Y63648D01*
X-78777Y66102D01*
X-77107Y68759D01*
X-75745Y71587D01*
X-74709Y74549D01*
X-74011Y77608D01*
X-73940Y78233D01*
X-97537Y78233D01*
X-97537Y54636D01*
X-96912Y54707D01*
G37*
%LPD*%
%LPC*%
G36*
X-96912Y525115D02*
X-96912Y525115D01*
X-93853Y525813D01*
X-90891Y526849D01*
X-88063Y528211D01*
X-85406Y529881D01*
X-82952Y531837D01*
X-80733Y534056D01*
X-78777Y536510D01*
X-77107Y539167D01*
X-75745Y541995D01*
X-74709Y544957D01*
X-74011Y548016D01*
X-73940Y548641D01*
X-97537Y548641D01*
X-97537Y525044D01*
X-96912Y525115D01*
G37*
%LPD*%
%LPC*%
G36*
X-504910Y434459D02*
X-504910Y434459D01*
X-503349Y434707D01*
X-501846Y435195D01*
X-500438Y435912D01*
X-499159Y436841D01*
X-498041Y437959D01*
X-497112Y439238D01*
X-496395Y440646D01*
X-495907Y442149D01*
X-495856Y442469D01*
X-518669Y442469D01*
X-518669Y434459D01*
X-504910Y434459D01*
G37*
%LPD*%
%LPC*%
G36*
X-396199Y561299D02*
X-396199Y561299D01*
X-396199Y570749D01*
X-396555Y570692D01*
X-398380Y570099D01*
X-400090Y569228D01*
X-401643Y568100D01*
X-403000Y566743D01*
X-404128Y565190D01*
X-404590Y564284D01*
X-404618Y564241D01*
X-404639Y564194D01*
X-404726Y564072D01*
X-404808Y563945D01*
X-404843Y563908D01*
X-404873Y563866D01*
X-404983Y563764D01*
X-405088Y563656D01*
X-405130Y563627D01*
X-405167Y563592D01*
X-405295Y563512D01*
X-405419Y563427D01*
X-405466Y563407D01*
X-405510Y563380D01*
X-405651Y563328D01*
X-405789Y563269D01*
X-405839Y563258D01*
X-405887Y563240D01*
X-406036Y563217D01*
X-406183Y563186D01*
X-406234Y563186D01*
X-406285Y563178D01*
X-406436Y563184D01*
X-406586Y563183D01*
X-406636Y563193D01*
X-406687Y563195D01*
X-406833Y563231D01*
X-406981Y563260D01*
X-407029Y563279D01*
X-407078Y563291D01*
X-407214Y563355D01*
X-407354Y563412D01*
X-407396Y563441D01*
X-407443Y563463D01*
X-407563Y563552D01*
X-407689Y563636D01*
X-407725Y563672D01*
X-407766Y563702D01*
X-407867Y563814D01*
X-407973Y563921D01*
X-408001Y563963D01*
X-408036Y564001D01*
X-408157Y564198D01*
X-408196Y564256D01*
X-408201Y564269D01*
X-408210Y564284D01*
X-408672Y565190D01*
X-409800Y566743D01*
X-411157Y568100D01*
X-412710Y569228D01*
X-414420Y570099D01*
X-416245Y570692D01*
X-416601Y570749D01*
X-416601Y561299D01*
X-396199Y561299D01*
G37*
%LPD*%
%LPC*%
G36*
X-650284Y637984D02*
X-650284Y637984D01*
X-650284Y655070D01*
X-651712Y654606D01*
X-653324Y653784D01*
X-654788Y652721D01*
X-656067Y651441D01*
X-657131Y649978D01*
X-657952Y648366D01*
X-658511Y646645D01*
X-658794Y644858D01*
X-658794Y637984D01*
X-650284Y637984D01*
G37*
%LPD*%
%LPC*%
G36*
X-650284Y632016D02*
X-650284Y632016D01*
X-658794Y632016D01*
X-658794Y625142D01*
X-658511Y623355D01*
X-657952Y621634D01*
X-657131Y620022D01*
X-656067Y618559D01*
X-654788Y617279D01*
X-653324Y616216D01*
X-651712Y615394D01*
X-650284Y614930D01*
X-650284Y632016D01*
G37*
%LPD*%
%LPC*%
G36*
X-635806Y637984D02*
X-635806Y637984D01*
X-635806Y644858D01*
X-636089Y646645D01*
X-636648Y648366D01*
X-637469Y649978D01*
X-638533Y651441D01*
X-639812Y652721D01*
X-641276Y653784D01*
X-642888Y654606D01*
X-644316Y655070D01*
X-644316Y637984D01*
X-635806Y637984D01*
G37*
%LPD*%
%LPC*%
G36*
X-642888Y615394D02*
X-642888Y615394D01*
X-641276Y616216D01*
X-639812Y617279D01*
X-638533Y618559D01*
X-637469Y620022D01*
X-636648Y621634D01*
X-636089Y623355D01*
X-635806Y625142D01*
X-635806Y632016D01*
X-644316Y632016D01*
X-644316Y614930D01*
X-642888Y615394D01*
G37*
%LPD*%
%LPC*%
G36*
X-116839Y287275D02*
X-116839Y287275D01*
X-126243Y287275D01*
X-126192Y286959D01*
X-125599Y285134D01*
X-124728Y283424D01*
X-123600Y281871D01*
X-122243Y280514D01*
X-120690Y279386D01*
X-118980Y278515D01*
X-117489Y278030D01*
X-117334Y277962D01*
X-117178Y277900D01*
X-117150Y277882D01*
X-117120Y277868D01*
X-116981Y277771D01*
X-116841Y277679D01*
X-116839Y277677D01*
X-116839Y287275D01*
G37*
%LPD*%
%LPC*%
G36*
X-76957Y306323D02*
X-76957Y306323D01*
X-77008Y306639D01*
X-77601Y308464D01*
X-78472Y310174D01*
X-79600Y311727D01*
X-80957Y313084D01*
X-82510Y314212D01*
X-84220Y315083D01*
X-85711Y315568D01*
X-85866Y315636D01*
X-86022Y315698D01*
X-86050Y315717D01*
X-86080Y315730D01*
X-86218Y315827D01*
X-86359Y315919D01*
X-86361Y315921D01*
X-86361Y306323D01*
X-76957Y306323D01*
G37*
%LPD*%
%LPC*%
G36*
X-102357Y264921D02*
X-102357Y264921D01*
X-102408Y265237D01*
X-103001Y267062D01*
X-103872Y268772D01*
X-105000Y270325D01*
X-106357Y271682D01*
X-107910Y272810D01*
X-109620Y273681D01*
X-111111Y274166D01*
X-111266Y274234D01*
X-111422Y274296D01*
X-111450Y274315D01*
X-111480Y274328D01*
X-111618Y274425D01*
X-111759Y274517D01*
X-111761Y274519D01*
X-111761Y264921D01*
X-102357Y264921D01*
G37*
%LPD*%
%LPC*%
G36*
X-76957Y223519D02*
X-76957Y223519D01*
X-77008Y223835D01*
X-77601Y225660D01*
X-78472Y227370D01*
X-79600Y228923D01*
X-80957Y230280D01*
X-82510Y231408D01*
X-84220Y232279D01*
X-85711Y232764D01*
X-85866Y232832D01*
X-86022Y232894D01*
X-86050Y232913D01*
X-86080Y232926D01*
X-86218Y233023D01*
X-86359Y233115D01*
X-86361Y233117D01*
X-86361Y223519D01*
X-76957Y223519D01*
G37*
%LPD*%
%LPC*%
G36*
X-116839Y264921D02*
X-116839Y264921D01*
X-116839Y274519D01*
X-116845Y274514D01*
X-116873Y274496D01*
X-116897Y274473D01*
X-117042Y274386D01*
X-117182Y274294D01*
X-117217Y274280D01*
X-117242Y274265D01*
X-117323Y274235D01*
X-117489Y274166D01*
X-118980Y273681D01*
X-120690Y272810D01*
X-122243Y271682D01*
X-123600Y270325D01*
X-124728Y268772D01*
X-125599Y267062D01*
X-126192Y265237D01*
X-126243Y264921D01*
X-116839Y264921D01*
G37*
%LPD*%
%LPC*%
G36*
X-111755Y277682D02*
X-111755Y277682D01*
X-111727Y277700D01*
X-111703Y277723D01*
X-111559Y277810D01*
X-111418Y277902D01*
X-111383Y277916D01*
X-111358Y277931D01*
X-111277Y277961D01*
X-111111Y278030D01*
X-109620Y278515D01*
X-107910Y279386D01*
X-106357Y280514D01*
X-105000Y281871D01*
X-103872Y283424D01*
X-103001Y285134D01*
X-102408Y286959D01*
X-102357Y287275D01*
X-111761Y287275D01*
X-111761Y277677D01*
X-111755Y277682D01*
G37*
%LPD*%
%LPC*%
G36*
X-86355Y236280D02*
X-86355Y236280D01*
X-86327Y236298D01*
X-86303Y236321D01*
X-86159Y236408D01*
X-86018Y236500D01*
X-85983Y236514D01*
X-85958Y236529D01*
X-85877Y236559D01*
X-85711Y236628D01*
X-84220Y237113D01*
X-82510Y237984D01*
X-80957Y239112D01*
X-79600Y240469D01*
X-78472Y242022D01*
X-77601Y243732D01*
X-77008Y245557D01*
X-76957Y245873D01*
X-86361Y245873D01*
X-86361Y236275D01*
X-86355Y236280D01*
G37*
%LPD*%
%LPC*%
G36*
X-86355Y319084D02*
X-86355Y319084D01*
X-86327Y319102D01*
X-86303Y319125D01*
X-86159Y319212D01*
X-86018Y319304D01*
X-85983Y319318D01*
X-85958Y319333D01*
X-85877Y319363D01*
X-85711Y319432D01*
X-84220Y319917D01*
X-82510Y320788D01*
X-80957Y321916D01*
X-79600Y323273D01*
X-78472Y324826D01*
X-77601Y326536D01*
X-77008Y328361D01*
X-76957Y328677D01*
X-86361Y328677D01*
X-86361Y319079D01*
X-86355Y319084D01*
G37*
%LPD*%
%LPC*%
G36*
X-91439Y273559D02*
X-91439Y273559D01*
X-100843Y273559D01*
X-100792Y273243D01*
X-100199Y271418D01*
X-99328Y269708D01*
X-98200Y268155D01*
X-96843Y266798D01*
X-95290Y265670D01*
X-93580Y264799D01*
X-91698Y264187D01*
X-91543Y264119D01*
X-91439Y264077D01*
X-91439Y273559D01*
G37*
%LPD*%
%LPC*%
G36*
X-76957Y278637D02*
X-76957Y278637D01*
X-77008Y278953D01*
X-77601Y280778D01*
X-78472Y282488D01*
X-79600Y284041D01*
X-80957Y285398D01*
X-82510Y286526D01*
X-84220Y287397D01*
X-86102Y288009D01*
X-86256Y288077D01*
X-86361Y288118D01*
X-86361Y278637D01*
X-76957Y278637D01*
G37*
%LPD*%
%LPC*%
G36*
X-76957Y333755D02*
X-76957Y333755D01*
X-77008Y334071D01*
X-77601Y335896D01*
X-78472Y337606D01*
X-79600Y339159D01*
X-80957Y340516D01*
X-82510Y341644D01*
X-84220Y342515D01*
X-86102Y343127D01*
X-86256Y343195D01*
X-86361Y343236D01*
X-86361Y333755D01*
X-76957Y333755D01*
G37*
%LPD*%
%LPC*%
G36*
X-91439Y301245D02*
X-91439Y301245D01*
X-100843Y301245D01*
X-100792Y300929D01*
X-100199Y299104D01*
X-99328Y297394D01*
X-98200Y295841D01*
X-96843Y294484D01*
X-95290Y293356D01*
X-93580Y292485D01*
X-91698Y291873D01*
X-91544Y291805D01*
X-91439Y291763D01*
X-91439Y301245D01*
G37*
%LPD*%
%LPC*%
G36*
X-76957Y195833D02*
X-76957Y195833D01*
X-77008Y196149D01*
X-77601Y197974D01*
X-78472Y199684D01*
X-79600Y201237D01*
X-80957Y202594D01*
X-82510Y203722D01*
X-84220Y204593D01*
X-86102Y205205D01*
X-86256Y205273D01*
X-86361Y205315D01*
X-86361Y195833D01*
X-76957Y195833D01*
G37*
%LPD*%
%LPC*%
G36*
X-76957Y168147D02*
X-76957Y168147D01*
X-77008Y168463D01*
X-77601Y170288D01*
X-78472Y171998D01*
X-79600Y173551D01*
X-80957Y174908D01*
X-82510Y176036D01*
X-84220Y176907D01*
X-86102Y177519D01*
X-86256Y177587D01*
X-86361Y177629D01*
X-86361Y168147D01*
X-76957Y168147D01*
G37*
%LPD*%
%LPC*%
G36*
X-76957Y250951D02*
X-76957Y250951D01*
X-77008Y251267D01*
X-77601Y253092D01*
X-78472Y254802D01*
X-79600Y256355D01*
X-80957Y257712D01*
X-82510Y258840D01*
X-84220Y259711D01*
X-86102Y260323D01*
X-86256Y260391D01*
X-86361Y260432D01*
X-86361Y250951D01*
X-76957Y250951D01*
G37*
%LPD*%
%LPC*%
G36*
X-91439Y278637D02*
X-91439Y278637D01*
X-91439Y288115D01*
X-91451Y288108D01*
X-91532Y288078D01*
X-91698Y288009D01*
X-93580Y287397D01*
X-95290Y286526D01*
X-96843Y285398D01*
X-98200Y284041D01*
X-99328Y282488D01*
X-100199Y280778D01*
X-100792Y278953D01*
X-100843Y278637D01*
X-91439Y278637D01*
G37*
%LPD*%
%LPC*%
G36*
X-91439Y250951D02*
X-91439Y250951D01*
X-91439Y260429D01*
X-91451Y260422D01*
X-91532Y260392D01*
X-91698Y260323D01*
X-93580Y259711D01*
X-95290Y258840D01*
X-96843Y257712D01*
X-98200Y256355D01*
X-99328Y254802D01*
X-100199Y253092D01*
X-100792Y251267D01*
X-100843Y250951D01*
X-91439Y250951D01*
G37*
%LPD*%
%LPC*%
G36*
X-86349Y264088D02*
X-86349Y264088D01*
X-86268Y264118D01*
X-86102Y264187D01*
X-84220Y264799D01*
X-82510Y265670D01*
X-80957Y266798D01*
X-79600Y268155D01*
X-78472Y269708D01*
X-77601Y271418D01*
X-77008Y273243D01*
X-76957Y273559D01*
X-86361Y273559D01*
X-86361Y264081D01*
X-86349Y264088D01*
G37*
%LPD*%
%LPC*%
G36*
X-86349Y181284D02*
X-86349Y181284D01*
X-86268Y181314D01*
X-86102Y181383D01*
X-84220Y181995D01*
X-82510Y182866D01*
X-80957Y183994D01*
X-79600Y185351D01*
X-78472Y186904D01*
X-77601Y188614D01*
X-77008Y190439D01*
X-76957Y190755D01*
X-86361Y190755D01*
X-86361Y181277D01*
X-86349Y181284D01*
G37*
%LPD*%
%LPC*%
G36*
X-86349Y208970D02*
X-86349Y208970D01*
X-86268Y209000D01*
X-86102Y209069D01*
X-84220Y209681D01*
X-82510Y210552D01*
X-80957Y211680D01*
X-79600Y213037D01*
X-78472Y214590D01*
X-77601Y216300D01*
X-77008Y218125D01*
X-76957Y218441D01*
X-86361Y218441D01*
X-86361Y208963D01*
X-86349Y208970D01*
G37*
%LPD*%
%LPC*%
G36*
X-86349Y346892D02*
X-86349Y346892D01*
X-86268Y346922D01*
X-86102Y346991D01*
X-84220Y347603D01*
X-82510Y348474D01*
X-80957Y349602D01*
X-79600Y350959D01*
X-78472Y352512D01*
X-77601Y354222D01*
X-77008Y356047D01*
X-76957Y356363D01*
X-86361Y356363D01*
X-86361Y346885D01*
X-86349Y346892D01*
G37*
%LPD*%
%LPC*%
G36*
X-86349Y291774D02*
X-86349Y291774D01*
X-86268Y291804D01*
X-86102Y291873D01*
X-84220Y292485D01*
X-82510Y293356D01*
X-80957Y294484D01*
X-79600Y295841D01*
X-78472Y297394D01*
X-77601Y299104D01*
X-77008Y300929D01*
X-76957Y301245D01*
X-86361Y301245D01*
X-86361Y291767D01*
X-86349Y291774D01*
G37*
%LPD*%
%LPC*%
G36*
X-86045Y153716D02*
X-86045Y153716D01*
X-84220Y154309D01*
X-82510Y155180D01*
X-80957Y156308D01*
X-79600Y157665D01*
X-78472Y159218D01*
X-77601Y160928D01*
X-77008Y162753D01*
X-76957Y163069D01*
X-86361Y163069D01*
X-86361Y153665D01*
X-86045Y153716D01*
G37*
%LPD*%
%LPC*%
G36*
X-456691Y446659D02*
X-456691Y446659D01*
X-456691Y455169D01*
X-465201Y455169D01*
X-465201Y452834D01*
X-459026Y446659D01*
X-456691Y446659D01*
G37*
%LPD*%
%LPC*%
G36*
X-522731Y442469D02*
X-522731Y442469D01*
X-530544Y442469D01*
X-530493Y442149D01*
X-530005Y440646D01*
X-529288Y439238D01*
X-528359Y437959D01*
X-527241Y436841D01*
X-525962Y435912D01*
X-524554Y435195D01*
X-523051Y434707D01*
X-522731Y434656D01*
X-522731Y442469D01*
G37*
%LPD*%
%LPC*%
G36*
X-101599Y82295D02*
X-101599Y82295D01*
X-101599Y82297D01*
X-101601Y82297D01*
X-101601Y82295D01*
X-101599Y82295D01*
G37*
%LPD*%
D10*
X-57291Y610616D02*
X-62484Y617107D01*
X-39116Y617107D01*
X-39116Y610616D02*
X-39116Y623598D01*
X-39116Y631073D02*
X-40414Y631073D01*
X-40414Y632371D01*
X-39116Y632371D01*
X-39116Y631073D01*
X-50800Y639846D02*
X-51260Y639851D01*
X-51719Y639868D01*
X-52178Y639895D01*
X-52636Y639934D01*
X-53093Y639983D01*
X-53549Y640043D01*
X-54003Y640114D01*
X-54456Y640196D01*
X-54906Y640289D01*
X-55354Y640392D01*
X-55799Y640506D01*
X-56242Y640631D01*
X-56681Y640766D01*
X-57117Y640912D01*
X-57549Y641068D01*
X-57978Y641234D01*
X-58403Y641410D01*
X-58823Y641597D01*
X-59238Y641793D01*
X-59239Y641794D02*
X-59366Y641839D01*
X-59492Y641889D01*
X-59617Y641941D01*
X-59740Y641998D01*
X-59862Y642058D01*
X-59981Y642121D01*
X-60099Y642187D01*
X-60215Y642257D01*
X-60329Y642330D01*
X-60441Y642406D01*
X-60551Y642486D01*
X-60658Y642568D01*
X-60763Y642654D01*
X-60866Y642742D01*
X-60966Y642833D01*
X-61064Y642927D01*
X-61158Y643024D01*
X-61250Y643123D01*
X-61340Y643225D01*
X-61426Y643329D01*
X-61509Y643436D01*
X-61589Y643545D01*
X-61667Y643657D01*
X-61740Y643770D01*
X-61811Y643885D01*
X-61879Y644003D01*
X-61943Y644122D01*
X-62004Y644243D01*
X-62061Y644366D01*
X-62115Y644490D01*
X-62165Y644616D01*
X-62212Y644743D01*
X-62255Y644871D01*
X-62294Y645001D01*
X-62330Y645131D01*
X-62362Y645263D01*
X-62391Y645395D01*
X-62415Y645528D01*
X-62436Y645662D01*
X-62453Y645797D01*
X-62467Y645931D01*
X-62476Y646066D01*
X-62482Y646202D01*
X-62484Y646337D01*
X-62482Y646472D01*
X-62476Y646608D01*
X-62467Y646743D01*
X-62453Y646878D01*
X-62436Y647012D01*
X-62415Y647146D01*
X-62391Y647279D01*
X-62362Y647411D01*
X-62330Y647543D01*
X-62294Y647673D01*
X-62255Y647803D01*
X-62212Y647931D01*
X-62165Y648058D01*
X-62115Y648184D01*
X-62061Y648308D01*
X-62004Y648431D01*
X-61943Y648552D01*
X-61879Y648671D01*
X-61811Y648789D01*
X-61740Y648904D01*
X-61666Y649017D01*
X-61589Y649129D01*
X-61509Y649238D01*
X-61426Y649345D01*
X-61340Y649449D01*
X-61250Y649551D01*
X-61158Y649650D01*
X-61064Y649747D01*
X-60966Y649841D01*
X-60866Y649932D01*
X-60763Y650020D01*
X-60658Y650106D01*
X-60551Y650188D01*
X-60441Y650268D01*
X-60329Y650344D01*
X-60215Y650417D01*
X-60099Y650487D01*
X-59981Y650553D01*
X-59862Y650616D01*
X-59740Y650676D01*
X-59617Y650733D01*
X-59492Y650785D01*
X-59366Y650835D01*
X-59239Y650880D01*
X-59239Y650882D02*
X-58823Y651078D01*
X-58403Y651265D01*
X-57978Y651441D01*
X-57550Y651607D01*
X-57117Y651763D01*
X-56681Y651909D01*
X-56242Y652044D01*
X-55799Y652169D01*
X-55354Y652283D01*
X-54906Y652386D01*
X-54456Y652479D01*
X-54003Y652561D01*
X-53549Y652632D01*
X-53093Y652692D01*
X-52636Y652741D01*
X-52178Y652780D01*
X-51719Y652807D01*
X-51260Y652824D01*
X-50800Y652829D01*
X-50800Y639847D02*
X-50340Y639852D01*
X-49881Y639869D01*
X-49422Y639896D01*
X-48964Y639935D01*
X-48507Y639984D01*
X-48051Y640044D01*
X-47597Y640115D01*
X-47145Y640197D01*
X-46694Y640290D01*
X-46246Y640393D01*
X-45801Y640507D01*
X-45358Y640632D01*
X-44919Y640767D01*
X-44483Y640913D01*
X-44051Y641069D01*
X-43622Y641235D01*
X-43197Y641411D01*
X-42777Y641598D01*
X-42362Y641794D01*
X-42361Y641794D02*
X-42234Y641839D01*
X-42108Y641889D01*
X-41983Y641941D01*
X-41860Y641998D01*
X-41738Y642058D01*
X-41619Y642121D01*
X-41501Y642187D01*
X-41385Y642257D01*
X-41271Y642330D01*
X-41159Y642406D01*
X-41049Y642486D01*
X-40942Y642568D01*
X-40837Y642654D01*
X-40734Y642742D01*
X-40634Y642833D01*
X-40536Y642927D01*
X-40442Y643024D01*
X-40350Y643123D01*
X-40260Y643225D01*
X-40174Y643330D01*
X-40091Y643436D01*
X-40011Y643545D01*
X-39933Y643657D01*
X-39860Y643770D01*
X-39789Y643885D01*
X-39721Y644003D01*
X-39657Y644122D01*
X-39596Y644243D01*
X-39539Y644366D01*
X-39485Y644490D01*
X-39435Y644616D01*
X-39388Y644743D01*
X-39345Y644871D01*
X-39306Y645001D01*
X-39270Y645131D01*
X-39238Y645263D01*
X-39209Y645395D01*
X-39185Y645528D01*
X-39164Y645662D01*
X-39147Y645797D01*
X-39133Y645931D01*
X-39124Y646066D01*
X-39118Y646202D01*
X-39116Y646337D01*
X-42362Y650881D02*
X-42777Y651077D01*
X-43197Y651264D01*
X-43622Y651440D01*
X-44050Y651606D01*
X-44483Y651762D01*
X-44919Y651908D01*
X-45358Y652043D01*
X-45801Y652168D01*
X-46246Y652282D01*
X-46694Y652385D01*
X-47144Y652478D01*
X-47597Y652560D01*
X-48051Y652631D01*
X-48507Y652691D01*
X-48964Y652740D01*
X-49422Y652779D01*
X-49881Y652806D01*
X-50340Y652823D01*
X-50800Y652828D01*
X-42361Y650880D02*
X-42234Y650835D01*
X-42108Y650785D01*
X-41983Y650733D01*
X-41860Y650676D01*
X-41738Y650616D01*
X-41619Y650553D01*
X-41501Y650487D01*
X-41385Y650417D01*
X-41271Y650344D01*
X-41159Y650268D01*
X-41049Y650188D01*
X-40942Y650106D01*
X-40837Y650020D01*
X-40734Y649932D01*
X-40634Y649841D01*
X-40536Y649747D01*
X-40442Y649650D01*
X-40350Y649551D01*
X-40260Y649449D01*
X-40174Y649345D01*
X-40091Y649238D01*
X-40011Y649129D01*
X-39933Y649017D01*
X-39860Y648904D01*
X-39789Y648789D01*
X-39721Y648671D01*
X-39657Y648552D01*
X-39596Y648431D01*
X-39539Y648308D01*
X-39485Y648184D01*
X-39435Y648058D01*
X-39388Y647931D01*
X-39345Y647803D01*
X-39306Y647673D01*
X-39270Y647543D01*
X-39238Y647411D01*
X-39209Y647279D01*
X-39185Y647146D01*
X-39164Y647012D01*
X-39147Y646877D01*
X-39133Y646743D01*
X-39124Y646608D01*
X-39118Y646472D01*
X-39116Y646337D01*
X-44309Y641144D02*
X-57291Y651530D01*
D11*
X-597300Y643954D02*
X-597300Y626047D01*
X-647300Y626047D02*
X-647300Y643954D01*
X-711600Y643954D02*
X-711600Y626047D01*
X-761600Y626047D02*
X-761600Y643954D01*
D12*
X-317500Y127000D03*
X-419100Y127000D03*
X-317500Y165100D03*
X-419100Y165100D03*
D13*
X-454660Y457200D03*
D14*
X-434340Y457200D03*
D15*
X-505700Y469900D02*
X-520700Y469900D01*
X-520700Y444500D02*
X-505700Y444500D01*
X-596900Y444500D02*
X-611900Y444500D01*
X-611900Y469900D02*
X-596900Y469900D01*
D16*
X-114300Y151892D03*
X-114300Y179578D03*
X-114300Y207010D03*
X-114300Y234696D03*
X-114300Y262382D03*
X-114300Y289814D03*
X-114300Y317500D03*
X-114300Y345186D03*
X-114300Y372618D03*
X-114300Y400304D03*
X-114300Y427990D03*
X-114300Y455422D03*
X-114300Y483108D03*
X-88900Y165608D03*
X-88900Y193294D03*
X-88900Y220980D03*
X-88900Y248412D03*
X-88900Y276098D03*
X-88900Y303784D03*
X-88900Y331216D03*
X-88900Y358902D03*
X-88900Y386588D03*
X-88900Y414020D03*
X-88900Y441706D03*
X-88900Y469392D03*
D17*
X-101600Y552704D03*
X-101600Y82296D03*
D16*
X-292100Y76200D03*
X-317500Y558800D03*
X-266700Y76200D03*
X-241300Y76200D03*
X-215900Y76200D03*
X-190500Y76200D03*
X-317500Y76200D03*
X-342900Y76200D03*
X-368300Y76200D03*
X-408940Y76200D03*
X-434340Y76200D03*
X-459740Y76200D03*
X-485140Y76200D03*
X-510540Y76200D03*
X-535940Y76200D03*
X-561340Y76200D03*
X-586740Y76200D03*
X-292100Y558800D03*
X-266700Y558800D03*
X-241300Y558800D03*
X-215900Y558800D03*
X-190500Y558800D03*
X-368300Y558800D03*
X-393700Y558800D03*
X-419100Y558800D03*
X-444500Y558800D03*
X-469900Y558800D03*
X-495300Y558800D03*
X-520700Y558800D03*
X-612140Y76200D03*
X-637540Y76200D03*
X-546100Y558800D03*
D18*
X-393700Y152400D02*
X-419100Y127000D01*
X-393700Y416560D02*
X-434340Y457200D01*
X-393700Y416560D02*
X-393700Y152400D01*
X-434340Y457200D02*
X-439548Y462408D01*
X-439548Y463460D01*
X-483072Y506984D01*
X-569742Y506984D01*
X-597300Y534542D01*
X-597300Y635000D01*
X-546100Y292100D02*
X-419100Y165100D01*
X-546100Y292100D02*
X-546100Y457200D01*
X-533400Y469900D01*
X-520700Y469900D01*
X-143764Y122428D02*
X-114300Y151892D01*
X-143764Y57856D02*
X-181046Y20574D01*
X-143764Y57856D02*
X-143764Y122428D01*
X-508848Y76200D02*
X-510540Y76200D01*
X-508848Y76200D02*
X-453222Y20574D01*
X-181046Y20574D01*
X-153416Y140462D02*
X-114300Y179578D01*
X-153416Y61854D02*
X-185044Y30226D01*
X-153416Y61854D02*
X-153416Y140462D01*
X-439166Y30226D02*
X-485140Y76200D01*
X-439166Y30226D02*
X-185044Y30226D01*
X-163068Y158242D02*
X-114300Y207010D01*
X-163068Y158242D02*
X-163068Y65852D01*
X-189042Y39878D01*
X-423418Y39878D02*
X-459740Y76200D01*
X-423418Y39878D02*
X-189042Y39878D01*
X-407670Y49530D02*
X-434340Y76200D01*
X-407670Y49530D02*
X-193040Y49530D01*
X-172720Y69850D01*
X-172720Y176276D02*
X-114300Y234696D01*
X-172720Y176276D02*
X-172720Y69850D01*
X-113416Y509524D02*
X-103358Y509524D01*
X-88900Y445684D02*
X-88900Y441706D01*
X-88900Y445684D02*
X-72136Y462448D01*
X-72136Y478302D01*
X-103358Y509524D01*
X-134366Y530474D02*
X-134366Y582224D01*
X-167076Y614934D01*
X-134366Y530474D02*
X-113416Y509524D01*
X-553044Y542036D02*
X-562864Y551856D01*
X-562864Y565744D01*
X-413004Y542036D02*
X-353568Y482600D01*
X-413004Y542036D02*
X-553044Y542036D01*
X-562864Y565744D02*
X-513674Y614934D01*
X-167076Y614934D01*
X-353568Y131572D02*
X-408940Y76200D01*
X-353568Y131572D02*
X-353568Y482600D01*
X-317500Y127000D02*
X-317500Y76200D01*
X-292100Y76200D02*
X-292100Y139700D01*
X-317500Y165100D01*
X-153670Y574228D02*
X-175072Y595630D01*
X-153670Y522478D02*
X-114300Y483108D01*
X-153670Y522478D02*
X-153670Y574228D01*
X-334264Y565744D02*
X-334264Y207264D01*
X-334264Y565744D02*
X-304378Y595630D01*
X-266700Y139700D02*
X-266700Y76200D01*
X-266700Y139700D02*
X-334264Y207264D01*
X-304378Y595630D02*
X-175072Y595630D01*
X-117414Y499872D02*
X-107356Y499872D01*
X-88900Y481416D02*
X-88900Y469392D01*
X-88900Y481416D02*
X-107356Y499872D01*
X-144018Y526476D02*
X-144018Y578226D01*
X-171074Y605282D01*
X-144018Y526476D02*
X-117414Y499872D01*
X-308376Y605282D02*
X-343916Y569742D01*
X-343916Y127066D01*
X-308376Y605282D02*
X-171074Y605282D01*
X-385064Y69256D02*
X-375244Y59436D01*
X-242992Y76200D02*
X-241300Y76200D01*
X-242992Y76200D02*
X-259756Y59436D01*
X-375244Y59436D01*
X-385064Y85918D02*
X-343916Y127066D01*
X-385064Y85918D02*
X-385064Y69256D01*
X-114300Y455422D02*
X-152400Y493522D01*
X-152400Y495300D01*
D12*
X-152400Y495300D03*
D18*
X-241300Y495300D02*
X-241300Y558800D01*
D12*
X-241300Y495300D03*
D18*
X-317500Y558800D02*
X-290322Y585978D01*
X-179070Y585978D01*
X-163322Y570230D01*
X-163322Y546928D01*
X-170688Y539562D01*
X-170688Y484378D01*
X-114300Y427990D01*
X-114300Y400304D02*
X-114554Y400304D01*
X-158750Y444500D01*
D12*
X-158750Y444500D03*
D18*
X-215900Y444500D02*
X-215900Y558800D01*
D12*
X-215900Y444500D03*
D18*
X-173736Y565744D02*
X-183556Y575564D01*
X-273644Y575564D01*
X-140970Y372618D02*
X-114300Y372618D01*
X-180340Y543560D02*
X-173736Y550164D01*
X-173736Y565744D01*
X-290408Y558800D02*
X-292100Y558800D01*
X-290408Y558800D02*
X-273644Y575564D01*
X-180340Y543560D02*
X-180340Y411988D01*
X-140970Y372618D01*
X-128270Y345186D02*
X-190500Y407416D01*
X-128270Y345186D02*
X-114300Y345186D01*
X-190500Y407416D02*
X-190500Y558800D01*
X-266700Y469900D02*
X-114300Y317500D01*
X-266700Y469900D02*
X-266700Y558800D01*
X-711600Y546500D02*
X-711600Y635000D01*
X-711600Y546500D02*
X-635000Y469900D01*
X-596900Y469900D01*
X-596900Y444500D02*
X-660400Y444500D01*
X-762000Y546100D01*
X-762000Y634600D01*
X-761600Y635000D01*
M02*
